<svg width="398" height="204" viewBox="0 0 398 204" fill="none" xmlns="http://www.w3.org/2000/svg">
<g clip-path="url(#clip0_1488_6317)">
<rect width="398" height="204" rx="16" fill="#60935D"/>
<path d="M19.5227 64L16.3409 52.3636H17.7727L20.2045 61.8409H20.3182L22.7955 52.3636H24.3864L26.8636 61.8409H26.9773L29.4091 52.3636H30.8409L27.6591 64H26.2045L23.6364 54.7273H23.5455L20.9773 64H19.5227ZM35.2614 64.1818C34.4205 64.1818 33.6951 63.9962 33.0852 63.625C32.4792 63.25 32.0114 62.7273 31.6818 62.0568C31.3561 61.3826 31.1932 60.5985 31.1932 59.7045C31.1932 58.8106 31.3561 58.0227 31.6818 57.3409C32.0114 56.6553 32.4697 56.1212 33.0568 55.7386C33.6477 55.3523 34.3371 55.1591 35.125 55.1591C35.5795 55.1591 36.0284 55.2348 36.4716 55.3864C36.9148 55.5379 37.3182 55.7841 37.6818 56.125C38.0455 56.4621 38.3352 56.9091 38.5511 57.4659C38.767 58.0227 38.875 58.7083 38.875 59.5227V60.0909H32.1477V58.9318H37.5114C37.5114 58.4394 37.4129 58 37.2159 57.6136C37.0227 57.2273 36.7462 56.9223 36.3864 56.6989C36.0303 56.4754 35.6098 56.3636 35.125 56.3636C34.5909 56.3636 34.1288 56.4962 33.7386 56.7614C33.3523 57.0227 33.0549 57.3636 32.8466 57.7841C32.6383 58.2045 32.5341 58.6553 32.5341 59.1364V59.9091C32.5341 60.5682 32.6477 61.1269 32.875 61.5852C33.1061 62.0398 33.4261 62.3864 33.8352 62.625C34.2443 62.8598 34.7197 62.9773 35.2614 62.9773C35.6136 62.9773 35.9318 62.928 36.2159 62.8295C36.5038 62.7273 36.7519 62.5758 36.9602 62.375C37.1686 62.1705 37.3295 61.9167 37.4432 61.6136L38.7386 61.9773C38.6023 62.4167 38.3731 62.803 38.0511 63.1364C37.7292 63.4659 37.3314 63.7235 36.858 63.9091C36.3845 64.0909 35.8523 64.1818 35.2614 64.1818ZM44.5739 64.1818C43.733 64.1818 43.0076 63.9962 42.3977 63.625C41.7917 63.25 41.3239 62.7273 40.9943 62.0568C40.6686 61.3826 40.5057 60.5985 40.5057 59.7045C40.5057 58.8106 40.6686 58.0227 40.9943 57.3409C41.3239 56.6553 41.7822 56.1212 42.3693 55.7386C42.9602 55.3523 43.6496 55.1591 44.4375 55.1591C44.892 55.1591 45.3409 55.2348 45.7841 55.3864C46.2273 55.5379 46.6307 55.7841 46.9943 56.125C47.358 56.4621 47.6477 56.9091 47.8636 57.4659C48.0795 58.0227 48.1875 58.7083 48.1875 59.5227V60.0909H41.4602V58.9318H46.8239C46.8239 58.4394 46.7254 58 46.5284 57.6136C46.3352 57.2273 46.0587 56.9223 45.6989 56.6989C45.3428 56.4754 44.9223 56.3636 44.4375 56.3636C43.9034 56.3636 43.4413 56.4962 43.0511 56.7614C42.6648 57.0227 42.3674 57.3636 42.1591 57.7841C41.9508 58.2045 41.8466 58.6553 41.8466 59.1364V59.9091C41.8466 60.5682 41.9602 61.1269 42.1875 61.5852C42.4186 62.0398 42.7386 62.3864 43.1477 62.625C43.5568 62.8598 44.0322 62.9773 44.5739 62.9773C44.9261 62.9773 45.2443 62.928 45.5284 62.8295C45.8163 62.7273 46.0644 62.5758 46.2727 62.375C46.4811 62.1705 46.642 61.9167 46.7557 61.6136L48.0511 61.9773C47.9148 62.4167 47.6856 62.803 47.3636 63.1364C47.0417 63.4659 46.6439 63.7235 46.1705 63.9091C45.697 64.0909 45.1648 64.1818 44.5739 64.1818ZM51.4773 60.8182L51.4545 59.1591H51.7273L55.5455 55.2727H57.2045L53.1364 59.3864H53.0227L51.4773 60.8182ZM50.2273 64V52.3636H51.5682V64H50.2273ZM55.7727 64L52.3636 59.6818L53.3182 58.75L57.4773 64H55.7727ZM60.2713 52.3636V64H58.9304V52.3636H60.2713ZM63.5909 67.2727C63.3636 67.2727 63.161 67.2538 62.983 67.2159C62.8049 67.1818 62.6818 67.1477 62.6136 67.1136L62.9545 65.9318C63.2803 66.0152 63.5682 66.0455 63.8182 66.0227C64.0682 66 64.2898 65.8883 64.483 65.6875C64.6799 65.4905 64.8598 65.1705 65.0227 64.7273L65.2727 64.0455L62.0455 55.2727H63.5L65.9091 62.2273H66L68.4091 55.2727H69.8636L66.1591 65.2727C65.9924 65.7235 65.786 66.0966 65.5398 66.392C65.2936 66.6913 65.0076 66.9129 64.6818 67.0568C64.3598 67.2008 63.9962 67.2727 63.5909 67.2727ZM76.7926 64H75.3153L79.5881 52.3636H81.0426L85.3153 64H83.8381L80.3608 54.2045H80.2699L76.7926 64ZM77.3381 59.4545H83.2926V60.7045H77.3381V59.4545ZM92.9886 55.2727L89.7614 64H88.3977L85.1705 55.2727H86.625L89.0341 62.2273H89.125L91.5341 55.2727H92.9886ZM97.9688 67.4545C97.321 67.4545 96.7642 67.3712 96.2983 67.2045C95.8324 67.0417 95.4441 66.8258 95.1335 66.5568C94.8267 66.2917 94.5824 66.0076 94.4006 65.7045L95.4688 64.9545C95.59 65.1136 95.7434 65.2955 95.929 65.5C96.1146 65.7083 96.3684 65.8883 96.6903 66.0398C97.0161 66.1951 97.4422 66.2727 97.9688 66.2727C98.6733 66.2727 99.2547 66.1023 99.7131 65.7614C100.171 65.4205 100.401 64.8864 100.401 64.1591V62.3864H100.287C100.188 62.5455 100.048 62.7424 99.8665 62.9773C99.6884 63.2083 99.4309 63.4148 99.0938 63.5966C98.7604 63.7746 98.3097 63.8636 97.7415 63.8636C97.0369 63.8636 96.4044 63.697 95.8438 63.3636C95.2869 63.0303 94.8456 62.5455 94.5199 61.9091C94.1979 61.2727 94.0369 60.5 94.0369 59.5909C94.0369 58.697 94.1941 57.9186 94.5085 57.2557C94.8229 56.589 95.2604 56.0739 95.821 55.7102C96.3816 55.3428 97.0294 55.1591 97.7642 55.1591C98.3324 55.1591 98.7831 55.2538 99.1165 55.4432C99.4536 55.6288 99.7112 55.8409 99.8892 56.0795C100.071 56.3144 100.211 56.5076 100.31 56.6591H100.446V55.2727H101.741V64.25C101.741 65 101.571 65.6098 101.23 66.0795C100.893 66.553 100.438 66.8996 99.8665 67.1193C99.2983 67.3428 98.6657 67.4545 97.9688 67.4545ZM97.9233 62.6591C98.4612 62.6591 98.9157 62.536 99.2869 62.2898C99.6581 62.0436 99.9403 61.6894 100.134 61.2273C100.327 60.7652 100.423 60.2121 100.423 59.5682C100.423 58.9394 100.329 58.3845 100.139 57.9034C99.9498 57.4223 99.6695 57.0455 99.2983 56.7727C98.9271 56.5 98.4688 56.3636 97.9233 56.3636C97.3551 56.3636 96.8816 56.5076 96.5028 56.7955C96.1278 57.0833 95.8456 57.4697 95.6562 57.9545C95.4706 58.4394 95.3778 58.9773 95.3778 59.5682C95.3778 60.1742 95.4725 60.7102 95.6619 61.1761C95.8551 61.6383 96.1392 62.0019 96.5142 62.267C96.893 62.5284 97.3627 62.6591 97.9233 62.6591Z" fill="#BAE7BC"/>
<path d="M23.5071 28.4545V43H20.4318V31.3736H20.3466L17.0156 33.4616V30.7344L20.6165 28.4545H23.5071ZM33.2923 28.4545V43H30.217V31.3736H30.1317L26.8008 33.4616V30.7344L30.4016 28.4545H33.2923ZM39.8033 36.6932V43H36.7777V28.4545H39.718V34.0156H39.8459C40.0921 33.3717 40.4898 32.8674 41.0391 32.5028C41.5883 32.1335 42.2772 31.9489 43.1058 31.9489C43.8634 31.9489 44.5239 32.1146 45.0874 32.446C45.6555 32.7727 46.0959 33.2438 46.4084 33.8594C46.7256 34.4702 46.8819 35.2017 46.8771 36.054V43H43.8516V36.5938C43.8563 35.9214 43.6858 35.3982 43.3402 35.0241C42.9993 34.6501 42.5211 34.4631 41.9055 34.4631C41.4936 34.4631 41.129 34.5507 40.8118 34.7259C40.4993 34.901 40.2531 35.1567 40.0732 35.4929C39.898 35.8243 39.808 36.2244 39.8033 36.6932ZM59.2351 43.1989C58.1745 43.1989 57.2299 43.0166 56.4013 42.652C55.5774 42.2827 54.9264 41.776 54.4482 41.1321C53.9747 40.4834 53.7308 39.7353 53.7166 38.8878H56.8132C56.8321 39.2429 56.9482 39.5554 57.1612 39.8253C57.379 40.0904 57.6679 40.2964 58.0277 40.4432C58.3875 40.59 58.7924 40.6634 59.2422 40.6634C59.7109 40.6634 60.1252 40.5805 60.4851 40.4148C60.8449 40.2491 61.1267 40.0194 61.3303 39.7259C61.5339 39.4323 61.6357 39.0937 61.6357 38.7102C61.6357 38.322 61.5268 37.9787 61.3089 37.6804C61.0959 37.3774 60.7881 37.1406 60.3857 36.9702C59.9879 36.7997 59.5144 36.7145 58.9652 36.7145H57.6087V34.456H58.9652C59.4292 34.456 59.8388 34.3755 60.1939 34.2145C60.5537 34.0535 60.8331 33.831 61.032 33.5469C61.2308 33.258 61.3303 32.9219 61.3303 32.5384C61.3303 32.1738 61.2427 31.8542 61.0675 31.5795C60.897 31.3002 60.6555 31.0824 60.343 30.9261C60.0353 30.7699 59.6754 30.6918 59.2635 30.6918C58.8468 30.6918 58.4657 30.7675 58.12 30.919C57.7744 31.0658 57.4974 31.2765 57.2891 31.5511C57.0807 31.8258 56.9695 32.1477 56.9553 32.517H54.0078C54.022 31.679 54.2611 30.9403 54.7251 30.3011C55.1892 29.6619 55.8142 29.1624 56.6001 28.8026C57.3909 28.438 58.2834 28.2557 59.2777 28.2557C60.2815 28.2557 61.1598 28.438 61.9126 28.8026C62.6655 29.1671 63.2502 29.6596 63.6669 30.2798C64.0883 30.8954 64.2966 31.5866 64.2919 32.3537C64.2966 33.1681 64.0433 33.8475 63.532 34.392C63.0253 34.9366 62.3648 35.2822 61.5504 35.429V35.5426C62.6205 35.6799 63.4349 36.0516 63.9936 36.6577C64.5571 37.259 64.8364 38.0118 64.8317 38.9162C64.8364 39.7448 64.5973 40.4811 64.1143 41.125C63.6361 41.7689 62.9756 42.2756 62.1328 42.6449C61.29 43.0142 60.3241 43.1989 59.2351 43.1989ZM72.7454 43.3196C71.5238 43.3149 70.4727 43.0142 69.592 42.4176C68.716 41.821 68.0413 40.9569 67.5678 39.8253C67.0991 38.6937 66.8671 37.3324 66.8718 35.7415C66.8718 34.1553 67.1062 32.8035 67.5749 31.6861C68.0484 30.5687 68.7231 29.7187 69.5991 29.1364C70.4798 28.5492 71.5285 28.2557 72.7454 28.2557C73.9622 28.2557 75.0086 28.5492 75.8846 29.1364C76.7653 29.7235 77.4424 30.5758 77.9158 31.6932C78.3893 32.8059 78.6237 34.1553 78.619 35.7415C78.619 37.3371 78.3822 38.7008 77.9087 39.8324C77.44 40.964 76.7676 41.8281 75.8917 42.4247C75.0157 43.0213 73.967 43.3196 72.7454 43.3196ZM72.7454 40.7699C73.5787 40.7699 74.244 40.3509 74.7411 39.5128C75.2383 38.6747 75.4845 37.4176 75.4798 35.7415C75.4798 34.6383 75.3661 33.7197 75.1388 32.9858C74.9163 32.2519 74.5991 31.7003 74.1871 31.331C73.7799 30.9616 73.2994 30.777 72.7454 30.777C71.9168 30.777 71.2539 31.1913 70.7567 32.0199C70.2596 32.8485 70.0086 34.089 70.0039 35.7415C70.0039 36.8589 70.1152 37.7917 70.3377 38.5398C70.565 39.2831 70.8846 39.8419 71.2965 40.2159C71.7085 40.5852 72.1914 40.7699 72.7454 40.7699ZM80.8402 43V32.0909H83.7237V34.0156H83.8516C84.0788 33.3764 84.4576 32.8722 84.9879 32.5028C85.5182 32.1335 86.1527 31.9489 86.8913 31.9489C87.6394 31.9489 88.2763 32.1359 88.8018 32.5099C89.3274 32.8793 89.6778 33.3812 89.853 34.0156H89.9666C90.1892 33.3906 90.5916 32.8911 91.174 32.517C91.7611 32.1383 92.4548 31.9489 93.255 31.9489C94.273 31.9489 95.0992 32.2732 95.7337 32.9219C96.3729 33.5658 96.6925 34.4796 96.6925 35.6634V43H93.674V36.2599C93.674 35.6539 93.513 35.1993 93.1911 34.8963C92.8691 34.5933 92.4666 34.4418 91.9837 34.4418C91.4344 34.4418 91.0059 34.617 90.6982 34.9673C90.3904 35.313 90.2365 35.7699 90.2365 36.3381V43H87.3033V36.196C87.3033 35.661 87.1494 35.2348 86.8416 34.9176C86.5386 34.6004 86.1385 34.4418 85.6413 34.4418C85.3052 34.4418 85.0021 34.527 84.7322 34.6974C84.4671 34.8632 84.2564 35.0975 84.1001 35.4006C83.9439 35.6989 83.8658 36.0492 83.8658 36.4517V43H80.8402ZM99.0824 43V32.0909H102.108V43H99.0824ZM100.602 30.6847C100.152 30.6847 99.7666 30.5355 99.4446 30.2372C99.1274 29.9342 98.9688 29.572 98.9688 29.1506C98.9688 28.7339 99.1274 28.3764 99.4446 28.0781C99.7666 27.7751 100.152 27.6236 100.602 27.6236C101.052 27.6236 101.436 27.7751 101.753 28.0781C102.075 28.3764 102.236 28.7339 102.236 29.1506C102.236 29.572 102.075 29.9342 101.753 30.2372C101.436 30.5355 101.052 30.6847 100.602 30.6847ZM107.557 36.6932V43H104.532V32.0909H107.415V34.0156H107.543C107.784 33.3812 108.189 32.8793 108.757 32.5099C109.326 32.1359 110.015 31.9489 110.824 31.9489C111.582 31.9489 112.242 32.1146 112.806 32.446C113.369 32.7775 113.807 33.2509 114.12 33.8665C114.432 34.4773 114.588 35.2064 114.588 36.054V43H111.563V36.5938C111.568 35.9261 111.397 35.4053 111.051 35.0312C110.706 34.6525 110.23 34.4631 109.624 34.4631C109.217 34.4631 108.857 34.5507 108.544 34.7259C108.237 34.901 107.995 35.1567 107.82 35.4929C107.65 35.8243 107.562 36.2244 107.557 36.6932Z" fill="#FDFFFD"/>
<path d="M38.131 175.273H39.3924L42.3583 182.517H42.4606L45.4265 175.273H46.6879V184H45.6992V177.369H45.614L42.8867 184H41.9322L39.2049 177.369H39.1197V184H38.131V175.273ZM56.1705 179.636C56.1705 180.557 56.0043 181.352 55.6719 182.023C55.3395 182.693 54.8835 183.21 54.304 183.574C53.7244 183.938 53.0625 184.119 52.3182 184.119C51.5739 184.119 50.9119 183.938 50.3324 183.574C49.7528 183.21 49.2969 182.693 48.9645 182.023C48.6321 181.352 48.4659 180.557 48.4659 179.636C48.4659 178.716 48.6321 177.92 48.9645 177.25C49.2969 176.58 49.7528 176.062 50.3324 175.699C50.9119 175.335 51.5739 175.153 52.3182 175.153C53.0625 175.153 53.7244 175.335 54.304 175.699C54.8835 176.062 55.3395 176.58 55.6719 177.25C56.0043 177.92 56.1705 178.716 56.1705 179.636ZM55.1477 179.636C55.1477 178.881 55.0213 178.243 54.7685 177.723C54.5185 177.203 54.179 176.81 53.75 176.543C53.3239 176.276 52.8466 176.142 52.3182 176.142C51.7898 176.142 51.3111 176.276 50.8821 176.543C50.456 176.81 50.1165 177.203 49.8636 177.723C49.6136 178.243 49.4886 178.881 49.4886 179.636C49.4886 180.392 49.6136 181.03 49.8636 181.55C50.1165 182.07 50.456 182.463 50.8821 182.73C51.3111 182.997 51.7898 183.131 52.3182 183.131C52.8466 183.131 53.3239 182.997 53.75 182.73C54.179 182.463 54.5185 182.07 54.7685 181.55C55.0213 181.03 55.1477 180.392 55.1477 179.636ZM64.8679 175.273V184H63.8452L59.0895 177.148H59.0043V184H57.9474V175.273H58.9702L63.7429 182.142H63.8281V175.273H64.8679Z" fill="#234422"/>
<path d="M91.6967 176.21V175.273H98.2422V176.21H95.4979V184H94.4411V176.21H91.6967ZM105.6 175.273H106.657V181.051C106.657 181.648 106.517 182.18 106.235 182.649C105.957 183.115 105.564 183.483 105.055 183.753C104.547 184.02 103.95 184.153 103.265 184.153C102.581 184.153 101.984 184.02 101.475 183.753C100.967 183.483 100.572 183.115 100.291 182.649C100.012 182.18 99.8732 181.648 99.8732 181.051V175.273H100.93V180.966C100.93 181.392 101.024 181.771 101.211 182.104C101.399 182.433 101.666 182.693 102.012 182.884C102.362 183.071 102.779 183.165 103.265 183.165C103.751 183.165 104.169 183.071 104.518 182.884C104.868 182.693 105.135 182.433 105.319 182.104C105.507 181.771 105.6 181.392 105.6 180.966V175.273ZM108.768 184V175.273H114.035V176.21H109.825V179.159H113.762V180.097H109.825V183.062H114.103V184H108.768Z" fill="#234422"/>
<path d="M146.048 184L143.662 175.273H144.736L146.56 182.381H146.645L148.503 175.273H149.696L151.554 182.381H151.639L153.463 175.273H154.537L152.151 184H151.06L149.134 177.045H149.065L147.139 184H146.048ZM155.854 184V175.273H161.121V176.21H156.911V179.159H160.848V180.097H156.911V183.062H161.189V184H155.854ZM165.719 184H163.026V175.273H165.838C166.685 175.273 167.409 175.447 168.011 175.797C168.614 176.143 169.075 176.642 169.396 177.293C169.717 177.94 169.878 178.716 169.878 179.619C169.878 180.528 169.716 181.311 169.392 181.967C169.068 182.621 168.597 183.124 167.977 183.476C167.358 183.825 166.605 184 165.719 184ZM164.082 183.062H165.651C166.372 183.062 166.97 182.923 167.445 182.645C167.919 182.366 168.273 181.97 168.506 181.456C168.739 180.942 168.855 180.33 168.855 179.619C168.855 178.915 168.74 178.308 168.51 177.8C168.28 177.288 167.936 176.896 167.479 176.624C167.021 176.348 166.452 176.21 165.77 176.21H164.082V183.062Z" fill="#234422"/>
<path d="M197.841 176.21V175.273H204.387V176.21H201.642V184H200.586V176.21H197.841ZM206.018 184V175.273H207.075V179.159H211.728V175.273H212.785V184H211.728V180.097H207.075V184H206.018ZM220.628 175.273H221.685V181.051C221.685 181.648 221.544 182.18 221.263 182.649C220.984 183.115 220.591 183.483 220.082 183.753C219.574 184.02 218.977 184.153 218.293 184.153C217.608 184.153 217.011 184.02 216.503 183.753C215.994 183.483 215.599 183.115 215.318 182.649C215.04 182.18 214.901 181.648 214.901 181.051V175.273H215.957V180.966C215.957 181.392 216.051 181.771 216.239 182.104C216.426 182.433 216.693 182.693 217.04 182.884C217.389 183.071 217.807 183.165 218.293 183.165C218.778 183.165 219.196 183.071 219.545 182.884C219.895 182.693 220.162 182.433 220.347 182.104C220.534 181.771 220.628 181.392 220.628 180.966V175.273Z" fill="#234422"/>
<path d="M257.11 184V175.273H262.343V176.21H258.166V179.159H261.95V180.097H258.166V184H257.11ZM264.153 184V175.273H267.101C267.783 175.273 268.343 175.389 268.78 175.622C269.218 175.852 269.542 176.169 269.752 176.572C269.962 176.976 270.067 177.435 270.067 177.949C270.067 178.463 269.962 178.919 269.752 179.317C269.542 179.714 269.219 180.027 268.785 180.254C268.35 180.479 267.795 180.591 267.118 180.591H264.732V179.636H267.084C267.55 179.636 267.925 179.568 268.209 179.432C268.496 179.295 268.704 179.102 268.831 178.852C268.962 178.599 269.028 178.298 269.028 177.949C269.028 177.599 268.962 177.294 268.831 177.033C268.701 176.771 268.492 176.57 268.205 176.428C267.918 176.283 267.539 176.21 267.067 176.21H265.209V184H264.153ZM268.26 180.08L270.408 184H269.181L267.067 180.08H268.26ZM272.885 175.273V184H271.828V175.273H272.885Z" fill="#234422"/>
<path d="M313.109 177.455C313.058 177.023 312.85 176.688 312.487 176.449C312.123 176.21 311.677 176.091 311.149 176.091C310.762 176.091 310.424 176.153 310.134 176.278C309.847 176.403 309.623 176.575 309.461 176.794C309.302 177.013 309.222 177.261 309.222 177.54C309.222 177.773 309.278 177.973 309.389 178.141C309.502 178.305 309.647 178.443 309.823 178.554C309.999 178.662 310.184 178.751 310.377 178.822C310.57 178.891 310.748 178.946 310.91 178.989L311.796 179.227C312.024 179.287 312.276 179.369 312.555 179.474C312.836 179.58 313.105 179.723 313.36 179.905C313.619 180.084 313.832 180.314 313.999 180.595C314.167 180.876 314.251 181.222 314.251 181.631C314.251 182.102 314.127 182.528 313.88 182.909C313.636 183.29 313.278 183.592 312.806 183.817C312.338 184.041 311.768 184.153 311.097 184.153C310.472 184.153 309.931 184.053 309.474 183.851C309.019 183.649 308.661 183.368 308.4 183.007C308.142 182.646 307.995 182.227 307.961 181.75H309.052C309.08 182.08 309.191 182.352 309.384 182.568C309.58 182.781 309.828 182.94 310.126 183.045C310.427 183.148 310.751 183.199 311.097 183.199C311.501 183.199 311.863 183.134 312.184 183.003C312.505 182.869 312.759 182.685 312.947 182.449C313.134 182.21 313.228 181.932 313.228 181.614C313.228 181.324 313.147 181.088 312.985 180.906C312.823 180.724 312.61 180.577 312.346 180.463C312.082 180.349 311.796 180.25 311.49 180.165L310.416 179.858C309.734 179.662 309.194 179.382 308.796 179.018C308.399 178.655 308.2 178.179 308.2 177.591C308.2 177.102 308.332 176.676 308.596 176.312C308.863 175.946 309.221 175.662 309.67 175.46C310.122 175.256 310.626 175.153 311.183 175.153C311.745 175.153 312.245 175.254 312.683 175.456C313.12 175.655 313.467 175.928 313.722 176.274C313.981 176.621 314.117 177.014 314.132 177.455H313.109ZM316.346 184H315.238L318.443 175.273H319.534L322.738 184H321.631L319.023 176.653H318.954L316.346 184ZM316.756 180.591H321.221V181.528H316.756V180.591ZM322.601 176.21V175.273H329.146V176.21H326.402V184H325.345V176.21H322.601Z" fill="#234422"/>
<path d="M364.039 177.455C363.987 177.023 363.78 176.688 363.416 176.449C363.053 176.21 362.607 176.091 362.078 176.091C361.692 176.091 361.354 176.153 361.064 176.278C360.777 176.403 360.553 176.575 360.391 176.794C360.232 177.013 360.152 177.261 360.152 177.54C360.152 177.773 360.208 177.973 360.318 178.141C360.432 178.305 360.577 178.443 360.753 178.554C360.929 178.662 361.114 178.751 361.307 178.822C361.5 178.891 361.678 178.946 361.84 178.989L362.726 179.227C362.953 179.287 363.206 179.369 363.485 179.474C363.766 179.58 364.034 179.723 364.29 179.905C364.548 180.084 364.762 180.314 364.929 180.595C365.097 180.876 365.181 181.222 365.181 181.631C365.181 182.102 365.057 182.528 364.81 182.909C364.566 183.29 364.208 183.592 363.736 183.817C363.267 184.041 362.698 184.153 362.027 184.153C361.402 184.153 360.861 184.053 360.404 183.851C359.949 183.649 359.591 183.368 359.33 183.007C359.071 182.646 358.925 182.227 358.891 181.75H359.982C360.01 182.08 360.121 182.352 360.314 182.568C360.51 182.781 360.757 182.94 361.056 183.045C361.357 183.148 361.681 183.199 362.027 183.199C362.431 183.199 362.793 183.134 363.114 183.003C363.435 182.869 363.689 182.685 363.877 182.449C364.064 182.21 364.158 181.932 364.158 181.614C364.158 181.324 364.077 181.088 363.915 180.906C363.753 180.724 363.54 180.577 363.276 180.463C363.012 180.349 362.726 180.25 362.419 180.165L361.345 179.858C360.664 179.662 360.124 179.382 359.726 179.018C359.328 178.655 359.129 178.179 359.129 177.591C359.129 177.102 359.262 176.676 359.526 176.312C359.793 175.946 360.151 175.662 360.6 175.46C361.051 175.256 361.556 175.153 362.112 175.153C362.675 175.153 363.175 175.254 363.612 175.456C364.05 175.655 364.396 175.928 364.652 176.274C364.911 176.621 365.047 177.014 365.061 177.455H364.039ZM372.645 175.273H373.702V181.051C373.702 181.648 373.562 182.18 373.28 182.649C373.002 183.115 372.608 183.483 372.1 183.753C371.591 184.02 370.995 184.153 370.31 184.153C369.626 184.153 369.029 184.02 368.52 183.753C368.012 183.483 367.617 183.115 367.336 182.649C367.057 182.18 366.918 181.648 366.918 181.051V175.273H367.975V180.966C367.975 181.392 368.069 181.771 368.256 182.104C368.444 182.433 368.711 182.693 369.057 182.884C369.407 183.071 369.824 183.165 370.31 183.165C370.796 183.165 371.214 183.071 371.563 182.884C371.912 182.693 372.18 182.433 372.364 182.104C372.552 181.771 372.645 181.392 372.645 180.966V175.273ZM382.733 175.273V184H381.71L376.955 177.148H376.869V184H375.813V175.273H376.835L381.608 182.142H381.693V175.273H382.733Z" fill="#234422"/>
<path d="M20.1218 93.1193C19.5593 93.1193 19.0579 93.0227 18.6175 92.8295C18.18 92.6364 17.832 92.3679 17.5735 92.0241C17.3178 91.6776 17.1786 91.2756 17.1559 90.8182H18.2298C18.2525 91.0994 18.3491 91.3423 18.5195 91.5469C18.69 91.7486 18.913 91.9048 19.1886 92.0156C19.4641 92.1264 19.7695 92.1818 20.1048 92.1818C20.4798 92.1818 20.8121 92.1165 21.1019 91.9858C21.3917 91.8551 21.619 91.6733 21.7837 91.4403C21.9485 91.2074 22.0309 90.9375 22.0309 90.6307C22.0309 90.3097 21.9513 90.027 21.7923 89.7827C21.6332 89.5355 21.4002 89.3423 21.0934 89.2031C20.7866 89.0639 20.4116 88.9943 19.9684 88.9943H19.2695V88.0568H19.9684C20.315 88.0568 20.619 87.9943 20.8803 87.8693C21.1445 87.7443 21.3505 87.5682 21.4982 87.3409C21.6488 87.1136 21.7241 86.8466 21.7241 86.5398C21.7241 86.2443 21.6587 85.9872 21.5281 85.7685C21.3974 85.5497 21.2127 85.3793 20.9741 85.2571C20.7383 85.1349 20.4599 85.0739 20.1388 85.0739C19.8377 85.0739 19.5536 85.1293 19.2866 85.2401C19.0224 85.348 18.8065 85.5057 18.6388 85.7131C18.4712 85.9176 18.3803 86.1648 18.3661 86.4545H17.3434C17.3604 85.9972 17.4982 85.5966 17.7567 85.2528C18.0153 84.9062 18.3533 84.6364 18.771 84.4432C19.1914 84.25 19.6531 84.1534 20.1559 84.1534C20.6957 84.1534 21.1587 84.2628 21.5451 84.4815C21.9315 84.6974 22.2283 84.983 22.4357 85.3381C22.6431 85.6932 22.7468 86.0767 22.7468 86.4886C22.7468 86.9801 22.6175 87.3991 22.359 87.7457C22.1033 88.0923 21.7553 88.3324 21.315 88.4659V88.5341C21.8661 88.625 22.2965 88.8594 22.6062 89.2372C22.9158 89.6122 23.0707 90.0767 23.0707 90.6307C23.0707 91.1051 22.9414 91.5312 22.6829 91.9091C22.4272 92.2841 22.0778 92.5795 21.6346 92.7955C21.1914 93.0114 20.6871 93.1193 20.1218 93.1193ZM25.8363 89.0625V93H24.8306V84.2727H25.8363V87.4773H25.9215C26.0749 87.1392 26.305 86.8707 26.6119 86.6719C26.9215 86.4702 27.3335 86.3693 27.8477 86.3693C28.2937 86.3693 28.6843 86.4588 29.0195 86.6378C29.3548 86.8139 29.6147 87.0852 29.7994 87.4517C29.9869 87.8153 30.0806 88.2784 30.0806 88.8409V93H29.0749V88.9091C29.0749 88.3892 28.94 87.9872 28.6701 87.7031C28.4031 87.4162 28.0323 87.2727 27.5579 87.2727C27.2283 87.2727 26.9329 87.3423 26.6715 87.4815C26.413 87.6207 26.2085 87.8239 26.0579 88.0909C25.9102 88.358 25.8363 88.6818 25.8363 89.0625Z" fill="#234422"/>
<path d="M17.5479 117V116.233L20.4286 113.08C20.7667 112.71 21.0451 112.389 21.2638 112.116C21.4826 111.841 21.6445 111.582 21.7496 111.341C21.8576 111.097 21.9116 110.841 21.9116 110.574C21.9116 110.267 21.8377 110.001 21.69 109.777C21.5451 109.553 21.3462 109.379 21.0934 109.257C20.8406 109.135 20.5565 109.074 20.2411 109.074C19.9059 109.074 19.6133 109.143 19.3633 109.283C19.1161 109.419 18.9244 109.611 18.788 109.858C18.6545 110.105 18.5877 110.395 18.5877 110.727H17.582C17.582 110.216 17.6999 109.767 17.9357 109.381C18.1715 108.994 18.4925 108.693 18.8988 108.477C19.3079 108.261 19.7667 108.153 20.2752 108.153C20.7866 108.153 21.2397 108.261 21.6346 108.477C22.0295 108.693 22.3391 108.984 22.5636 109.351C22.788 109.717 22.9002 110.125 22.9002 110.574C22.9002 110.895 22.842 111.209 22.7255 111.516C22.6119 111.82 22.413 112.159 22.1289 112.534C21.8477 112.906 21.457 113.361 20.957 113.898L18.9968 115.994V116.062H23.0536V117H17.5479ZM25.8363 113.062V117H24.8306V108.273H25.8363V111.477H25.9215C26.0749 111.139 26.305 110.871 26.6119 110.672C26.9215 110.47 27.3335 110.369 27.8477 110.369C28.2937 110.369 28.6843 110.459 29.0195 110.638C29.3548 110.814 29.6147 111.085 29.7994 111.452C29.9869 111.815 30.0806 112.278 30.0806 112.841V117H29.0749V112.909C29.0749 112.389 28.94 111.987 28.6701 111.703C28.4031 111.416 28.0323 111.273 27.5579 111.273C27.2283 111.273 26.9329 111.342 26.6715 111.482C26.413 111.621 26.2085 111.824 26.0579 112.091C25.9102 112.358 25.8363 112.682 25.8363 113.062Z" fill="#234422"/>
<path d="M22.3036 132.273V141H21.2468V133.381H21.1957L19.065 134.795V133.722L21.2468 132.273H22.3036ZM25.8363 137.062V141H24.8306V132.273H25.8363V135.477H25.9215C26.0749 135.139 26.305 134.871 26.6119 134.672C26.9215 134.47 27.3335 134.369 27.8477 134.369C28.2937 134.369 28.6843 134.459 29.0195 134.638C29.3548 134.814 29.6147 135.085 29.7994 135.452C29.9869 135.815 30.0806 136.278 30.0806 136.841V141H29.0749V136.909C29.0749 136.389 28.94 135.987 28.6701 135.703C28.4031 135.416 28.0323 135.273 27.5579 135.273C27.2283 135.273 26.9329 135.342 26.6715 135.482C26.413 135.621 26.2085 135.824 26.0579 136.091C25.9102 136.358 25.8363 136.682 25.8363 137.062Z" fill="#234422"/>
<path d="M27.25 165.119C26.608 165.119 26.0611 164.945 25.6094 164.595C25.1577 164.243 24.8125 163.733 24.5739 163.065C24.3352 162.395 24.2159 161.585 24.2159 160.636C24.2159 159.693 24.3352 158.888 24.5739 158.22C24.8153 157.55 25.1619 157.038 25.6136 156.686C26.0682 156.331 26.6136 156.153 27.25 156.153C27.8864 156.153 28.4304 156.331 28.8821 156.686C29.3366 157.038 29.6832 157.55 29.9219 158.22C30.1634 158.888 30.2841 159.693 30.2841 160.636C30.2841 161.585 30.1648 162.395 29.9261 163.065C29.6875 163.733 29.3423 164.243 28.8906 164.595C28.4389 164.945 27.892 165.119 27.25 165.119ZM27.25 164.182C27.8864 164.182 28.3807 163.875 28.733 163.261C29.0852 162.648 29.2614 161.773 29.2614 160.636C29.2614 159.881 29.1804 159.237 29.0185 158.706C28.8594 158.175 28.6293 157.77 28.3281 157.491C28.0298 157.213 27.6705 157.074 27.25 157.074C26.6193 157.074 26.1264 157.385 25.7713 158.007C25.4162 158.626 25.2386 159.503 25.2386 160.636C25.2386 161.392 25.3182 162.034 25.4773 162.562C25.6364 163.091 25.8651 163.493 26.1634 163.768C26.4645 164.044 26.8267 164.182 27.25 164.182Z" fill="#234422"/>
<line x1="40" y1="92" x2="381" y2="92" stroke="#BAE7BC" stroke-width="2" stroke-linecap="round" stroke-dasharray="8 10"/>
<line x1="40" y1="116" x2="381" y2="116" stroke="#BAE7BC" stroke-width="2" stroke-linecap="round" stroke-dasharray="8 10"/>
<line x1="40" y1="140" x2="381" y2="140" stroke="#BAE7BC" stroke-width="2" stroke-linecap="round" stroke-dasharray="8 10"/>
<line x1="40" y1="164" x2="381" y2="164" stroke="#BAE7BC" stroke-width="2" stroke-linecap="round"/>
<path d="M39 120C39 116.134 42.134 113 46 113H52C55.866 113 59 116.134 59 120V165H39V120Z" fill="#BAE7BC"/>
<path d="M93 144C93 140.134 96.134 137 100 137H106C109.866 137 113 140.134 113 144V165H93V144Z" fill="#BAE7BC"/>
<path d="M147 96C147 92.134 150.134 89 154 89H160C163.866 89 167 92.134 167 96V165H147V96Z" fill="#BAE7BC"/>
<path d="M201 120C201 116.134 204.134 113 208 113H214C217.866 113 221 116.134 221 120V165H201V120Z" fill="#BAE7BC"/>
<path d="M255 96C255 92.134 258.134 89 262 89H268C271.866 89 275 92.134 275 96V165H255V96Z" fill="#BAE7BC"/>
<path d="M309 165C309 162.791 310.791 161 313 161H325C327.209 161 329 162.791 329 165H309Z" fill="#BAE7BC"/>
<path d="M363 165C363 162.791 364.791 161 367 161H379C381.209 161 383 162.791 383 165H363Z" fill="#BAE7BC"/>
</g>
<defs>
<clipPath id="clip0_1488_6317">
<rect width="398" height="204" rx="16" fill="white"/>
</clipPath>
</defs>
</svg>
