<svg width="210" height="209" viewBox="0 0 210 209" fill="none" xmlns="http://www.w3.org/2000/svg">
<path d="M153.933 12.4328C131.893 0.58281 106.283 -2.94719 81.8226 2.49281C57.3626 7.93281 35.4726 22.1028 20.5226 42.3228C13.4826 51.8428 8.15264 62.3728 4.66264 73.6428C3.58264 77.1228 2.67264 80.7328 1.95264 84.3728C-0.827357 98.5528 -0.637358 112.943 2.51264 127.153C15.0126 183.383 70.9426 218.963 127.183 206.463C143.553 202.823 158.943 195.233 171.693 184.513C183.623 174.483 193.293 161.703 199.733 147.473L200.393 145.993C209.203 125.673 211.313 103.483 206.493 81.8028C199.893 52.1228 180.743 26.8428 153.943 12.4428L153.933 12.4328Z" fill="#B5D7E6"/>
<path d="M125.353 133.593L126.153 144.013C126.153 144.013 123.463 149.603 119.813 150.113C116.173 150.623 115.593 154.383 117.143 155.243C118.693 156.113 119.543 161.973 119.543 161.973C119.543 161.973 115.573 167.243 114.563 171.553C113.553 175.863 109.373 178.153 106.553 179.083C103.733 180.013 104.133 181.133 106.843 181.743C109.553 182.353 105.823 186.663 105.823 186.663C105.823 186.663 107.363 188.133 109.703 187.773C112.043 187.403 111.353 194.523 111.353 194.523C111.353 194.523 117.023 198.253 112.473 199.573C107.923 200.883 97.5527 188.963 96.9627 188.343C96.3727 187.723 96.0327 181.433 95.4527 181.563C94.8727 181.693 90.5827 177.353 90.5827 177.353C90.5827 177.353 90.7927 169.433 88.8527 169.563C86.9127 169.693 85.0727 152.543 85.0727 152.543C85.0727 152.543 81.3227 149.293 77.2327 149.293C73.1427 149.293 73.5027 145.433 73.5027 145.433C73.5027 145.433 64.1627 138.123 62.9927 137.633C61.8227 137.133 63.0427 131.723 62.7027 129.523C62.3627 127.323 65.4927 125.723 67.0327 124.473C67.4127 124.163 67.4427 123.563 67.2727 122.833C66.4827 119.563 63.0927 117.633 59.8127 118.363L56.7527 119.043C55.7427 119.263 48.6427 113.883 48.1627 113.083C47.6827 112.283 43.3527 113.243 42.3127 113.323C41.2727 113.403 41.6427 110.293 41.6427 110.293L38.1827 111.063C38.1827 111.063 38.2027 111.813 36.4227 112.663C34.6427 113.513 30.0927 112.103 26.6527 109.543C23.3527 107.083 25.4027 104.963 25.5827 104.793C24.2427 105.643 17.8527 97.8826 17.8527 97.8826C17.8527 97.8826 16.8627 93.4126 15.9927 92.2426C15.1227 91.0726 13.8927 93.0126 13.8927 93.0126L15.6727 98.9726C15.6727 98.9726 18.7127 101.773 19.9227 102.413C21.1327 103.053 20.8327 105.843 19.2527 106.193C17.6727 106.543 12.1527 100.813 12.1527 100.813L9.35272 91.8526C4.84272 92.4526 4.54272 85.6626 4.54272 85.6626L4.68272 73.6626C8.17272 62.3726 13.5627 51.7826 20.5427 42.3426C24.5327 39.1526 27.9227 36.3826 28.6727 35.5526C30.7227 33.2826 37.7927 35.7926 38.2627 35.8426C38.7227 35.8926 40.8427 35.8726 43.6127 36.7726C46.3827 37.6726 47.6327 35.1226 46.9127 33.9226C46.1927 32.7226 41.8327 34.9026 40.6127 34.8726C39.3927 34.8426 41.3627 33.4926 41.1127 32.3426C40.8627 31.1926 38.0227 32.7226 36.1127 33.0026C34.2027 33.2826 37.2527 30.6326 41.5427 28.1626C45.8327 25.6926 48.6227 28.7026 49.3527 29.3026C50.0827 29.9026 51.7627 29.2226 52.9827 29.2526C54.2027 29.2826 55.2127 26.3326 57.0527 25.7826C58.8927 25.2226 57.4827 28.4026 56.5227 29.5226C55.5627 30.6426 52.0727 31.2726 50.9827 31.8126C49.8927 32.3526 52.7127 34.1526 52.2927 35.0026C51.8727 35.8526 56.8627 34.4426 57.1827 33.1626C57.5027 31.8826 59.7627 31.8326 62.0727 31.3226C64.3827 30.8126 61.8127 28.8026 60.1527 28.1226C58.4927 27.4426 61.6627 25.3626 61.8527 24.8726C62.0427 24.3726 65.5227 24.3526 67.1927 23.7026C68.8627 23.0526 66.8027 26.0326 65.9227 28.2026C65.0427 30.3626 68.4427 29.3126 69.8027 29.3126C71.1627 29.3126 71.0527 25.4026 71.9927 23.5326C72.9427 21.6626 77.3127 21.5926 83.5727 21.8626C89.8427 22.1326 88.6527 26.3326 89.4827 25.9926C90.3127 25.6526 92.6027 27.1126 92.7727 28.4426C92.9427 29.7626 89.6127 30.6626 88.4027 30.0226C87.1927 29.3826 87.4727 32.6526 86.0127 33.5826C84.5527 34.5126 78.9127 33.6426 77.5727 33.0426C76.2227 32.4326 82.7127 29.6326 82.4227 26.9726C82.1327 24.3126 76.0427 26.8726 74.9127 27.8826C73.7827 28.8926 72.4627 32.5126 70.7127 32.1426C68.9627 31.7726 69.0927 33.7126 70.4527 34.3826C71.8127 35.0626 71.2427 35.2026 69.5927 35.2626C67.9427 35.3226 68.9527 36.4626 67.6227 37.9726C66.2927 39.4826 64.6927 36.3526 63.8427 35.9426C62.9927 35.5226 61.5827 38.7126 58.7127 40.1126C55.8427 41.5126 55.1927 43.3226 53.3227 47.2126C51.4527 51.1126 62.4327 48.6726 62.9627 49.0026C63.4927 49.3426 63.6327 53.3926 64.9027 54.3226C66.1727 55.2526 66.5027 50.6326 66.3427 49.9126C66.1827 49.1926 69.0227 47.6526 72.6227 46.8526C76.2227 46.0526 72.1727 40.7526 71.4327 38.7926C70.6927 36.8426 74.7927 36.2326 75.5327 35.4626C76.2727 34.6926 80.8727 37.0026 80.8727 37.0026C80.8727 37.0026 81.5427 40.0326 83.1827 40.5726C84.8127 41.1126 86.2127 37.1726 88.1027 36.3026C89.9927 35.4226 89.5427 42.6426 90.5527 42.4126C91.5627 42.1826 94.1227 45.5526 94.4927 46.5326C94.8627 47.5126 94.6027 49.0826 92.8927 50.2226C91.1827 51.3626 95.9027 51.5226 95.9027 51.5226C95.9027 51.5226 98.4327 52.0226 95.9827 53.9226C93.5327 55.8326 90.2327 53.2326 89.6327 52.6126C89.0427 51.9926 91.3027 50.5726 90.9127 48.9926C90.5327 47.4126 89.1927 48.6226 88.8227 50.3626C88.4527 52.1126 85.7327 52.1126 82.5127 50.5526C79.2927 49.0026 79.1827 53.2626 79.1827 53.2626C79.1827 53.2626 83.0427 53.6126 83.4427 54.7226C83.8427 55.8226 80.3327 55.7326 78.2527 55.8926C76.1727 56.0526 75.0027 61.0026 74.7127 62.4326C74.4227 63.8626 68.7827 69.8026 66.3827 71.9526C63.9827 74.0926 65.5727 77.1726 65.5727 77.1726C65.5727 77.1726 62.3827 81.2126 61.0627 82.1126C59.7327 83.0126 57.4927 87.1426 58.5227 89.0326C59.5527 90.9226 58.0427 92.3126 55.0827 91.9126C52.1227 91.5126 54.4927 87.2026 54.4927 87.2026C54.4927 87.2026 49.6027 89.0426 45.6327 88.8726C41.6627 88.6926 38.5027 92.8826 36.1027 98.4126C33.7027 103.943 37.7827 105.303 39.5927 107.323C41.4027 109.343 45.0227 105.203 45.0227 105.203C45.0227 105.203 49.0127 100.683 50.3427 101.903C51.6727 103.123 49.5127 107.683 49.5127 107.683C49.5127 107.683 56.0027 106.243 55.7427 110.533C55.4827 114.823 56.4227 116.743 61.8027 115.993C68.4027 115.083 68.1627 111.253 69.4427 108.843C70.7227 106.433 77.1627 109.543 78.5127 110.843C79.8627 112.133 82.1827 109.643 85.1327 107.933C88.0827 106.223 92.3627 112.533 92.3627 112.533C92.3627 112.533 94.3027 112.403 98.0627 112.323C101.833 112.243 104.073 119.613 104.073 119.613C104.073 119.613 107.603 120.493 109.743 121.983C111.893 123.473 119.803 119.593 119.803 119.593C119.803 119.593 120.873 122.383 126.243 124.063C131.613 125.743 125.343 133.643 125.343 133.643L125.353 133.593Z" fill="#588255"/>
<path d="M140.703 32.4926C140.703 32.4926 136.153 31.0826 136.723 29.2126C137.293 27.3426 139.253 25.6226 140.073 26.5726C140.893 27.5226 141.983 31.7526 143.443 31.8726C144.913 32.0026 148.613 33.6726 147.953 34.1226C147.293 34.5726 147.283 37.2226 146.113 37.4126C144.943 37.5926 140.563 39.3326 140.123 38.3626C139.683 37.4026 138.193 35.4626 139.703 35.1226C141.213 34.7826 142.203 33.0626 140.703 32.4826V32.4926Z" fill="#588255"/>
<path d="M136.743 31.7026C136.743 31.7026 132.493 33.7026 132.513 35.8226C132.533 37.9426 132.483 39.7626 134.993 38.1426C137.503 36.5226 138.503 34.1826 138.503 34.1826C138.503 34.1826 138.533 32.2826 138.053 32.1626C137.573 32.0426 136.743 31.7026 136.743 31.7026Z" fill="#588255"/>
<path d="M206.483 81.8026C211.453 104.173 208.853 126.463 200.383 145.993C200.383 145.993 200.379 145.993 200.373 145.993C197.673 149.033 195.693 150.883 194.913 150.883C190.543 150.883 192.853 149.903 191.923 145.723C190.993 141.543 188.883 142.923 186.783 140.963C184.683 139.013 185.033 131.063 185.033 131.063C181.093 131.033 180.833 125.793 180.833 125.793C182.563 115.873 181.973 116.613 176.413 111.343C170.853 106.073 171.623 98.6526 171.623 98.6526L165.263 99.3026C165.263 99.3026 161.373 96.0826 158.613 98.6626C155.853 101.243 149.673 102.013 149.673 102.013C149.673 102.013 146.273 104.433 144.513 104.673C142.753 104.913 134.003 96.8726 132.583 96.2726C131.163 95.6826 130.453 87.0626 131.323 86.8726C132.193 86.6826 132.923 83.1826 131.273 83.2526C129.623 83.3126 128.993 79.8226 128.993 79.8226C127.503 77.8826 136.543 70.8826 138.043 69.4826C139.553 68.0926 137.143 65.4426 136.823 64.0026C136.503 62.5626 140.733 59.8026 140.953 59.7526C141.173 59.7026 147.553 59.1926 148.303 58.5726C149.053 57.9526 149.123 56.7226 157.353 54.2926C165.593 51.8526 163.553 57.0026 163.203 58.1326C162.853 59.2726 167.353 58.4226 168.943 58.0726C170.533 57.7226 174.443 58.9726 175.783 59.5826C177.133 60.1926 176.163 55.8626 178.103 54.3726C180.043 52.8826 184.593 55.6526 186.373 56.1626C188.153 56.6726 193.873 54.4926 193.873 54.4926C193.873 54.4926 190.933 52.3426 191.483 49.8826C192.033 47.4226 187.373 46.8826 186.453 47.6826C185.533 48.4826 183.343 47.3126 181.743 46.9126C180.143 46.5126 180.463 41.1426 180.463 41.1426L178.873 42.8526C178.873 42.8526 177.163 42.6326 177.563 46.4726C177.963 50.3226 175.613 48.5726 173.493 47.2226C171.373 45.8726 172.463 42.6126 172.463 42.6126C172.463 42.6126 170.783 42.5326 168.443 40.1726C166.103 37.8126 163.703 39.2626 162.003 39.7926C160.303 40.3226 164.123 43.8626 165.333 43.8926C166.553 43.9226 170.763 45.8626 170.763 45.8626C170.763 45.8626 169.273 46.6526 169.893 47.4126C170.523 48.1826 169.953 50.4226 169.353 50.4126C168.743 50.3926 167.563 51.8726 167.563 51.8726C167.563 51.8726 161.443 51.5626 166.263 49.4326C171.083 47.3026 161.853 45.2626 160.603 45.0926C159.353 44.9126 158.163 42.3026 158.163 42.3026C158.163 42.3026 156.653 45.0626 156.613 45.5226C156.573 45.9826 154.563 45.8226 152.703 45.6326C150.843 45.4426 149.813 50.5126 149.813 50.5126C149.813 50.5126 147.093 55.8126 145.893 56.5326C144.693 57.2526 139.373 57.8326 137.913 57.4026C136.453 56.9726 136.263 53.3826 135.673 51.5426C135.073 49.7126 137.353 48.7526 138.953 47.7826C140.553 46.8226 143.803 47.1526 144.613 47.4326C145.423 47.7026 146.003 45.4626 145.123 44.2926C144.243 43.1226 143.753 43.5426 143.753 43.5426C143.753 43.5426 143.503 41.0226 142.933 39.7926C142.353 38.5626 148.063 36.9926 148.713 37.0326C149.363 37.0726 149.693 32.0826 150.683 31.1026C151.673 30.1226 156.463 30.5726 158.763 29.9926C161.053 29.4126 156.723 24.9226 156.723 24.9226C156.723 24.9226 155.133 26.6326 153.693 26.9626C152.253 27.2926 152.123 25.3426 152.053 24.1526C151.983 22.9526 149.523 24.5626 148.983 24.1826C148.443 23.7926 149.263 23.4126 147.723 23.3026C146.183 23.1926 148.843 18.8126 151.323 18.4126C153.653 18.0326 153.893 13.0926 153.913 12.4526C179.733 26.3326 199.603 50.9526 206.463 81.8226L206.483 81.8026Z" fill="#588255"/>
<path d="M153.933 12.4328C131.893 0.58281 106.283 -2.94719 81.8226 2.49281C57.3626 7.93281 35.4726 22.1028 20.5226 42.3228C13.4826 51.8428 8.15264 62.3728 4.66264 73.6428C3.58264 77.1228 2.67264 80.7328 1.95264 84.3728C-0.827357 98.5528 -0.637358 112.943 2.51264 127.153C15.0126 183.383 70.9426 218.963 127.183 206.463C143.553 202.823 158.943 195.233 171.693 184.513C183.623 174.483 193.293 161.703 199.733 147.473L200.393 145.993C209.203 125.673 211.313 103.483 206.493 81.8028C199.893 52.1228 180.743 26.8428 153.943 12.4428L153.933 12.4328Z" fill="url(#paint0_radial_1625_7014)"/>
<defs>
<radialGradient id="paint0_radial_1625_7014" cx="0" cy="0" r="1" gradientUnits="userSpaceOnUse" gradientTransform="translate(104.503 104.483) scale(104.49)">
<stop stop-color="#4983D8" stop-opacity="0"/>
<stop offset="0.4" stop-color="#487FCB" stop-opacity="0.01"/>
<stop offset="0.72" stop-color="#4574A3" stop-opacity="0.0169"/>
<stop offset="1" stop-color="#416261" stop-opacity="0.3"/>
</radialGradient>
</defs>
</svg>
