<svg width="38" height="41" viewBox="0 0 38 41" fill="none" xmlns="http://www.w3.org/2000/svg">
<path fill-rule="evenodd" clip-rule="evenodd" d="M19 4.4C17.3209 4.39969 15.6711 4.83978 14.2153 5.67635C12.7594 6.51292 11.5484 7.7167 10.7032 9.16754C9.85801 10.6184 9.4081 12.2655 9.39841 13.9446C9.38872 15.6236 9.81959 17.2759 10.648 18.7364C11.2079 18.0087 11.9277 17.4195 12.7517 17.0144C13.5757 16.6092 14.4818 16.399 15.4 16.4H22.6C23.5182 16.399 24.4243 16.6092 25.2483 17.0144C26.0723 17.4195 26.7921 18.0087 27.352 18.7364C28.1804 17.2759 28.6113 15.6236 28.6016 13.9446C28.5919 12.2655 28.142 10.6184 27.2968 9.16754C26.4516 7.7167 25.2406 6.51292 23.7847 5.67635C22.3289 4.83978 20.6791 4.39969 19 4.4ZM28.5316 21.2912C30.136 19.1995 31.0039 16.6361 31 14C31 7.37239 25.6276 2 19 2C12.3724 2 7.00001 7.37239 7.00001 14C6.99605 16.6361 7.8639 19.1996 9.46841 21.2912L9.46241 21.3128L9.88841 21.8084C11.0139 23.1242 12.4113 24.1803 13.9843 24.9039C15.5573 25.6276 17.2685 26.0015 19 26C21.4328 26.0045 23.8089 25.2655 25.81 23.882C26.6631 23.2925 27.4367 22.5956 28.1116 21.8084L28.5376 21.3128L28.5316 21.2912ZM19 6.79999C18.0452 6.79999 17.1295 7.17928 16.4544 7.85441C15.7793 8.52954 15.4 9.44521 15.4 10.4C15.4 11.3548 15.7793 12.2704 16.4544 12.9456C17.1295 13.6207 18.0452 14 19 14C19.9548 14 20.8705 13.6207 21.5456 12.9456C22.2207 12.2704 22.6 11.3548 22.6 10.4C22.6 9.44521 22.2207 8.52954 21.5456 7.85441C20.8705 7.17928 19.9548 6.79999 19 6.79999Z" fill="#234422"/>
<path d="M3.44727 39V31H6.15039C6.77799 31 7.29102 31.1133 7.68945 31.3398C8.0905 31.5638 8.38737 31.8672 8.58008 32.25C8.77279 32.6328 8.86914 33.0599 8.86914 33.5312C8.86914 34.0026 8.77279 34.431 8.58008 34.8164C8.38997 35.2018 8.0957 35.5091 7.69727 35.7383C7.29883 35.9648 6.78841 36.0781 6.16602 36.0781H4.22852V35.2188H6.13477C6.56445 35.2188 6.90951 35.1445 7.16992 34.9961C7.43034 34.8477 7.61914 34.6471 7.73633 34.3945C7.85612 34.1393 7.91602 33.8516 7.91602 33.5312C7.91602 33.2109 7.85612 32.9245 7.73633 32.6719C7.61914 32.4193 7.42904 32.2214 7.16602 32.0781C6.90299 31.9323 6.55404 31.8594 6.11914 31.8594H4.41602V39H3.44727ZM10.3047 39V33H11.1953V33.9062H11.2578C11.3672 33.6094 11.5651 33.3685 11.8516 33.1836C12.138 32.9987 12.4609 32.9062 12.8203 32.9062C12.888 32.9062 12.9727 32.9076 13.0742 32.9102C13.1758 32.9128 13.2526 32.9167 13.3047 32.9219V33.8594C13.2734 33.8516 13.2018 33.8398 13.0898 33.8242C12.9805 33.806 12.8646 33.7969 12.7422 33.7969C12.4505 33.7969 12.1901 33.8581 11.9609 33.9805C11.7344 34.1003 11.5547 34.2669 11.4219 34.4805C11.2917 34.6914 11.2266 34.9323 11.2266 35.2031V39H10.3047ZM16.6523 39.125C16.1107 39.125 15.6354 38.9961 15.2266 38.7383C14.8203 38.4805 14.5026 38.1198 14.2734 37.6562C14.0469 37.1927 13.9336 36.651 13.9336 36.0312C13.9336 35.4062 14.0469 34.8607 14.2734 34.3945C14.5026 33.9284 14.8203 33.5664 15.2266 33.3086C15.6354 33.0508 16.1107 32.9219 16.6523 32.9219C17.194 32.9219 17.668 33.0508 18.0742 33.3086C18.4831 33.5664 18.8008 33.9284 19.0273 34.3945C19.2565 34.8607 19.3711 35.4062 19.3711 36.0312C19.3711 36.651 19.2565 37.1927 19.0273 37.6562C18.8008 38.1198 18.4831 38.4805 18.0742 38.7383C17.668 38.9961 17.194 39.125 16.6523 39.125ZM16.6523 38.2969C17.0638 38.2969 17.4023 38.1914 17.668 37.9805C17.9336 37.7695 18.1302 37.4922 18.2578 37.1484C18.3854 36.8047 18.4492 36.4323 18.4492 36.0312C18.4492 35.6302 18.3854 35.2565 18.2578 34.9102C18.1302 34.5638 17.9336 34.2839 17.668 34.0703C17.4023 33.8568 17.0638 33.75 16.6523 33.75C16.2409 33.75 15.9023 33.8568 15.6367 34.0703C15.3711 34.2839 15.1745 34.5638 15.0469 34.9102C14.9193 35.2565 14.8555 35.6302 14.8555 36.0312C14.8555 36.4323 14.9193 36.8047 15.0469 37.1484C15.1745 37.4922 15.3711 37.7695 15.6367 37.9805C15.9023 38.1914 16.2409 38.2969 16.6523 38.2969ZM23.4502 33V33.7812H20.2158V33H23.4502ZM21.1846 39V32.1719C21.1846 31.8281 21.2653 31.5417 21.4268 31.3125C21.5882 31.0833 21.7979 30.9115 22.0557 30.7969C22.3135 30.6823 22.5856 30.625 22.8721 30.625C23.0986 30.625 23.2835 30.6432 23.4268 30.6797C23.57 30.7161 23.6768 30.75 23.7471 30.7812L23.4814 31.5781C23.4346 31.5625 23.3695 31.543 23.2861 31.5195C23.2054 31.4961 23.0986 31.4844 22.9658 31.4844C22.6611 31.4844 22.4411 31.5612 22.3057 31.7148C22.1729 31.8685 22.1064 32.0937 22.1064 32.3906V39H21.1846ZM24.7422 39V33H25.6641V39H24.7422ZM25.2109 32C25.0313 32 24.8763 31.9388 24.7461 31.8164C24.6185 31.694 24.5547 31.5469 24.5547 31.375C24.5547 31.2031 24.6185 31.056 24.7461 30.9336C24.8763 30.8112 25.0313 30.75 25.2109 30.75C25.3906 30.75 25.5443 30.8112 25.6719 30.9336C25.8021 31.056 25.8672 31.2031 25.8672 31.375C25.8672 31.5469 25.8021 31.694 25.6719 31.8164C25.5443 31.9388 25.3906 32 25.2109 32ZM28.2744 31V39H27.3525V31H28.2744ZM32.4785 39.125C31.9004 39.125 31.4017 38.9974 30.9824 38.7422C30.5658 38.4844 30.2441 38.125 30.0176 37.6641C29.7936 37.2005 29.6816 36.6615 29.6816 36.0469C29.6816 35.4323 29.7936 34.8906 30.0176 34.4219C30.2441 33.9505 30.5592 33.5833 30.9629 33.3203C31.3691 33.0547 31.8431 32.9219 32.3848 32.9219C32.6973 32.9219 33.0059 32.974 33.3105 33.0781C33.6152 33.1823 33.8926 33.3516 34.1426 33.5859C34.3926 33.8177 34.5918 34.125 34.7402 34.5078C34.8887 34.8906 34.9629 35.362 34.9629 35.9219V36.3125H30.3379V35.5156H34.0254C34.0254 35.1771 33.9577 34.875 33.8223 34.6094C33.6895 34.3437 33.4993 34.1341 33.252 33.9805C33.0072 33.8268 32.7181 33.75 32.3848 33.75C32.0176 33.75 31.6999 33.8411 31.4316 34.0234C31.166 34.2031 30.9616 34.4375 30.8184 34.7266C30.6751 35.0156 30.6035 35.3255 30.6035 35.6562V36.1875C30.6035 36.6406 30.6816 37.0247 30.8379 37.3398C30.9967 37.6523 31.2168 37.8906 31.498 38.0547C31.7793 38.2161 32.1061 38.2969 32.4785 38.2969C32.7207 38.2969 32.9395 38.263 33.1348 38.1953C33.3327 38.125 33.5033 38.0208 33.6465 37.8828C33.7897 37.7422 33.9004 37.5677 33.9785 37.3594L34.8691 37.6094C34.7754 37.9115 34.6178 38.1771 34.3965 38.4062C34.1751 38.6328 33.9017 38.8099 33.5762 38.9375C33.2507 39.0625 32.8848 39.125 32.4785 39.125Z" fill="#234422"/>
</svg>
