<svg width="50" height="41" viewBox="0 0 50 41" fill="none" xmlns="http://www.w3.org/2000/svg">
<path d="M27.4 17.6C27.74 17.6 28.0352 17.4752 28.2856 17.2256C28.536 16.976 28.6608 16.6808 28.66 16.34C28.66 16 28.5352 15.7052 28.2856 15.4556C28.036 15.206 27.7408 15.0808 27.4 15.08C27.06 15.08 26.7652 15.2052 26.5156 15.4556C26.266 15.706 26.1408 16.0008 26.14 16.34C26.14 16.68 26.2652 16.9752 26.5156 17.2256C26.766 17.476 27.0608 17.6008 27.4 17.6ZM27.4 13.76C27.62 13.76 27.8252 13.68 28.0156 13.52C28.206 13.36 28.3208 13.15 28.36 12.89C28.4 12.65 28.4848 12.43 28.6144 12.23C28.744 12.03 28.9792 11.76 29.32 11.42C29.92 10.82 30.32 10.3348 30.52 9.9644C30.72 9.594 30.82 9.1592 30.82 8.66C30.82 7.76 30.5048 7.0248 29.8744 6.4544C29.244 5.884 28.4192 5.5992 27.4 5.6C26.74 5.6 26.14 5.75 25.6 6.05C25.06 6.35 24.63 6.78 24.31 7.34C24.19 7.54 24.18 7.75 24.28 7.97C24.38 8.19 24.55 8.35 24.79 8.45C25.01 8.55 25.2252 8.56 25.4356 8.48C25.646 8.4 25.8208 8.26 25.96 8.06C26.14 7.8 26.35 7.6052 26.59 7.4756C26.83 7.346 27.1 7.2808 27.4 7.28C27.88 7.28 28.27 7.4152 28.57 7.6856C28.87 7.956 29.02 8.3208 29.02 8.78C29.02 9.06 28.94 9.3252 28.78 9.5756C28.62 9.826 28.34 10.1408 27.94 10.52C27.36 11.02 26.99 11.4052 26.83 11.6756C26.67 11.946 26.57 12.3408 26.53 12.86C26.51 13.1 26.5852 13.31 26.7556 13.49C26.926 13.67 27.1408 13.76 27.4 13.76ZM20.2 21.2C19.54 21.2 18.9752 20.9652 18.5056 20.4956C18.036 20.026 17.8008 19.4608 17.8 18.8V4.4C17.8 3.74 18.0352 3.1752 18.5056 2.7056C18.976 2.236 19.5408 2.0008 20.2 2H34.6C35.26 2 35.8252 2.2352 36.2956 2.7056C36.766 3.176 37.0008 3.7408 37 4.4V18.8C37 19.46 36.7652 20.0252 36.2956 20.4956C35.826 20.966 35.2608 21.2008 34.6 21.2H20.2ZM15.4 26C14.74 26 14.1752 25.7652 13.7056 25.2956C13.236 24.826 13.0008 24.2608 13 23.6V8C13 7.66 13.1152 7.3752 13.3456 7.1456C13.576 6.916 13.8608 6.8008 14.2 6.8C14.54 6.8 14.8252 6.9152 15.0556 7.1456C15.286 7.376 15.4008 7.6608 15.4 8V23.6H31C31.34 23.6 31.6252 23.7152 31.8556 23.9456C32.086 24.176 32.2008 24.4608 32.2 24.8C32.2 25.14 32.0848 25.4252 31.8544 25.6556C31.624 25.886 31.3392 26.0008 31 26H15.4Z" fill="#234422"/>
<path d="M2.99121 31H4.14746L6.86621 37.6406H6.95996L9.67871 31H10.835V39H9.92871V32.9219H9.85059L7.35059 39H6.47559L3.97559 32.9219H3.89746V39H2.99121V31ZM15.168 39.125C14.5898 39.125 14.0911 38.9974 13.6719 38.7422C13.2552 38.4844 12.9336 38.125 12.707 37.6641C12.4831 37.2005 12.3711 36.6615 12.3711 36.0469C12.3711 35.4323 12.4831 34.8906 12.707 34.4219C12.9336 33.9505 13.2487 33.5833 13.6523 33.3203C14.0586 33.0547 14.5326 32.9219 15.0742 32.9219C15.3867 32.9219 15.6953 32.974 16 33.0781C16.3047 33.1823 16.582 33.3516 16.832 33.5859C17.082 33.8177 17.2813 34.125 17.4297 34.5078C17.5781 34.8906 17.6523 35.362 17.6523 35.9219V36.3125H13.0273V35.5156H16.7148C16.7148 35.1771 16.6471 34.875 16.5117 34.6094C16.3789 34.3437 16.1888 34.1341 15.9414 33.9805C15.6966 33.8268 15.4076 33.75 15.0742 33.75C14.707 33.75 14.3893 33.8411 14.1211 34.0234C13.8555 34.2031 13.651 34.4375 13.5078 34.7266C13.3646 35.0156 13.293 35.3255 13.293 35.6562V36.1875C13.293 36.6406 13.3711 37.0247 13.5273 37.3398C13.6862 37.6523 13.9063 37.8906 14.1875 38.0547C14.4688 38.2161 14.7956 38.2969 15.168 38.2969C15.4102 38.2969 15.6289 38.263 15.8242 38.1953C16.0221 38.125 16.1927 38.0208 16.3359 37.8828C16.4792 37.7422 16.5898 37.5677 16.668 37.3594L17.5586 37.6094C17.4648 37.9115 17.3073 38.1771 17.0859 38.4062C16.8646 38.6328 16.5911 38.8099 16.2656 38.9375C15.9401 39.0625 15.5742 39.125 15.168 39.125ZM21.6641 33V33.7812H18.5547V33H21.6641ZM19.4609 31.5625H20.3828V37.2812C20.3828 37.5417 20.4206 37.737 20.4961 37.8672C20.5742 37.9948 20.6732 38.0807 20.793 38.125C20.9154 38.1667 21.0443 38.1875 21.1797 38.1875C21.2813 38.1875 21.3646 38.1823 21.4297 38.1719C21.4948 38.1589 21.5469 38.1484 21.5859 38.1406L21.7734 38.9687C21.7109 38.9922 21.6237 39.0156 21.5117 39.0391C21.3997 39.0651 21.2578 39.0781 21.0859 39.0781C20.8255 39.0781 20.5703 39.0221 20.3203 38.9102C20.0729 38.7982 19.8672 38.6276 19.7031 38.3984C19.5417 38.1693 19.4609 37.8802 19.4609 37.5312V31.5625ZM24.1016 35.3906V39H23.1797V31H24.1016V33.9375H24.1797C24.3203 33.6276 24.5313 33.3815 24.8125 33.1992C25.0964 33.0143 25.474 32.9219 25.9453 32.9219C26.3542 32.9219 26.7122 33.0039 27.0195 33.168C27.3268 33.3294 27.5651 33.5781 27.7344 33.9141C27.9063 34.2474 27.9922 34.6719 27.9922 35.1875V39H27.0703V35.25C27.0703 34.7734 26.9466 34.4049 26.6992 34.1445C26.4544 33.8815 26.1146 33.75 25.6797 33.75C25.3776 33.75 25.1068 33.8138 24.8672 33.9414C24.6302 34.069 24.4427 34.2552 24.3047 34.5C24.1693 34.7448 24.1016 35.0417 24.1016 35.3906ZM32.1162 39.125C31.5745 39.125 31.0993 38.9961 30.6904 38.7383C30.2842 38.4805 29.9665 38.1198 29.7373 37.6562C29.5107 37.1927 29.3975 36.651 29.3975 36.0312C29.3975 35.4062 29.5107 34.8607 29.7373 34.3945C29.9665 33.9284 30.2842 33.5664 30.6904 33.3086C31.0993 33.0508 31.5745 32.9219 32.1162 32.9219C32.6579 32.9219 33.1318 33.0508 33.5381 33.3086C33.9469 33.5664 34.2646 33.9284 34.4912 34.3945C34.7204 34.8607 34.835 35.4062 34.835 36.0312C34.835 36.651 34.7204 37.1927 34.4912 37.6562C34.2646 38.1198 33.9469 38.4805 33.5381 38.7383C33.1318 38.9961 32.6579 39.125 32.1162 39.125ZM32.1162 38.2969C32.5277 38.2969 32.8662 38.1914 33.1318 37.9805C33.3975 37.7695 33.5941 37.4922 33.7217 37.1484C33.8493 36.8047 33.9131 36.4323 33.9131 36.0312C33.9131 35.6302 33.8493 35.2565 33.7217 34.9102C33.5941 34.5638 33.3975 34.2839 33.1318 34.0703C32.8662 33.8568 32.5277 33.75 32.1162 33.75C31.7048 33.75 31.3662 33.8568 31.1006 34.0703C30.835 34.2839 30.6383 34.5638 30.5107 34.9102C30.3831 35.2565 30.3193 35.6302 30.3193 36.0312C30.3193 36.4323 30.3831 36.8047 30.5107 37.1484C30.6383 37.4922 30.835 37.7695 31.1006 37.9805C31.3662 38.1914 31.7048 38.2969 32.1162 38.2969ZM38.5078 39.125C38.0078 39.125 37.5664 38.9987 37.1836 38.7461C36.8008 38.4909 36.5013 38.1315 36.2852 37.668C36.069 37.2018 35.9609 36.651 35.9609 36.0156C35.9609 35.3854 36.069 34.8385 36.2852 34.375C36.5013 33.9115 36.8021 33.5534 37.1875 33.3008C37.5729 33.0482 38.0182 32.9219 38.5234 32.9219C38.9141 32.9219 39.2227 32.987 39.4492 33.1172C39.6784 33.2448 39.8529 33.3906 39.9727 33.5547C40.0951 33.7161 40.1901 33.849 40.2578 33.9531H40.3359V31H41.2578V39H40.3672V38.0781H40.2578C40.1901 38.1875 40.0938 38.3255 39.9688 38.4922C39.8438 38.6562 39.6654 38.8034 39.4336 38.9336C39.2018 39.0612 38.8932 39.125 38.5078 39.125ZM38.6328 38.2969C39.0026 38.2969 39.3151 38.2005 39.5703 38.0078C39.8255 37.8125 40.0195 37.543 40.1523 37.1992C40.2852 36.8529 40.3516 36.4531 40.3516 36C40.3516 35.5521 40.2865 35.1602 40.1563 34.8242C40.026 34.4857 39.8333 34.2227 39.5781 34.0352C39.3229 33.8451 39.0078 33.75 38.6328 33.75C38.2422 33.75 37.9167 33.8503 37.6563 34.0508C37.3984 34.2487 37.2044 34.5182 37.0742 34.8594C36.9466 35.1979 36.8828 35.5781 36.8828 36C36.8828 36.4271 36.9479 36.8151 37.0781 37.1641C37.2109 37.5104 37.4063 37.7865 37.6641 37.9922C37.9245 38.1953 38.2474 38.2969 38.6328 38.2969ZM47.3242 34.3437L46.4961 34.5781C46.444 34.4401 46.3672 34.306 46.2656 34.1758C46.1667 34.043 46.0313 33.9336 45.8594 33.8477C45.6875 33.7617 45.4674 33.7187 45.1992 33.7187C44.832 33.7187 44.526 33.8034 44.2813 33.9727C44.0391 34.1393 43.918 34.3516 43.918 34.6094C43.918 34.8385 44.0013 35.0195 44.168 35.1523C44.3346 35.2852 44.5951 35.3958 44.9492 35.4844L45.8398 35.7031C46.3763 35.8333 46.776 36.0326 47.0391 36.3008C47.3021 36.5664 47.4336 36.9089 47.4336 37.3281C47.4336 37.6719 47.3346 37.9792 47.1367 38.25C46.9414 38.5208 46.668 38.7344 46.3164 38.8906C45.9648 39.0469 45.556 39.125 45.0898 39.125C44.4779 39.125 43.9714 38.9922 43.5703 38.7266C43.1693 38.4609 42.9154 38.0729 42.8086 37.5625L43.6836 37.3437C43.7669 37.6667 43.9245 37.9089 44.1563 38.0703C44.3906 38.2318 44.6966 38.3125 45.0742 38.3125C45.5039 38.3125 45.8451 38.2214 46.0977 38.0391C46.3529 37.8542 46.4805 37.6328 46.4805 37.375C46.4805 37.1667 46.4076 36.9922 46.2617 36.8516C46.1159 36.7083 45.8919 36.6016 45.5898 36.5312L44.5898 36.2969C44.0404 36.1667 43.6367 35.9648 43.3789 35.6914C43.1237 35.4154 42.9961 35.0703 42.9961 34.6562C42.9961 34.3177 43.0911 34.0182 43.2813 33.7578C43.474 33.4974 43.7357 33.293 44.0664 33.1445C44.3997 32.9961 44.7773 32.9219 45.1992 32.9219C45.793 32.9219 46.2591 33.0521 46.5977 33.3125C46.9388 33.5729 47.181 33.9167 47.3242 34.3437Z" fill="#234422"/>
</svg>
