<svg width="35" height="41" viewBox="0 0 35 41" fill="none" xmlns="http://www.w3.org/2000/svg">
<path fill-rule="evenodd" clip-rule="evenodd" d="M17.8631 2.35135C17.6381 2.12638 17.3329 2 17.0147 2C16.6965 2 16.3914 2.12638 16.1663 2.35135L7.76635 10.7514L5.36635 13.1515C5.25173 13.2622 5.16032 13.3946 5.09742 13.541C5.03453 13.6874 5.00143 13.8449 5.00005 14.0042C4.99866 14.1635 5.02902 14.3215 5.08936 14.469C5.1497 14.6165 5.2388 14.7505 5.35147 14.8632C5.46414 14.9758 5.59813 15.0649 5.7456 15.1253C5.89308 15.1856 6.05109 15.216 6.21043 15.2146C6.36976 15.2132 6.52723 15.1801 6.67363 15.1172C6.82004 15.0543 6.95245 14.9629 7.06315 14.8483L7.41475 14.4967V22.4C7.41475 23.3548 7.79403 24.2704 8.46916 24.9456C9.14429 25.6207 10.06 26 11.0147 26H23.0147C23.9695 26 24.8852 25.6207 25.5603 24.9456C26.2355 24.2704 26.6147 23.3548 26.6147 22.4V14.4967L26.9663 14.8483C27.1927 15.0669 27.4958 15.1878 27.8104 15.1851C28.1251 15.1824 28.426 15.0562 28.6485 14.8337C28.871 14.6112 28.9972 14.3102 29 13.9956C29.0027 13.6809 28.8817 13.3778 28.6631 13.1515L17.8631 2.35135Z" fill="#234422"/>
<path d="M3.13428 39V31H4.10303V34.5625H8.36865V31H9.3374V39H8.36865V35.4219H4.10303V39H3.13428ZM13.5894 39.125C13.0477 39.125 12.5724 38.9961 12.1636 38.7383C11.7573 38.4805 11.4396 38.1198 11.2104 37.6562C10.9839 37.1927 10.8706 36.651 10.8706 36.0312C10.8706 35.4062 10.9839 34.8607 11.2104 34.3945C11.4396 33.9284 11.7573 33.5664 12.1636 33.3086C12.5724 33.0508 13.0477 32.9219 13.5894 32.9219C14.131 32.9219 14.605 33.0508 15.0112 33.3086C15.4201 33.5664 15.7378 33.9284 15.9644 34.3945C16.1935 34.8607 16.3081 35.4062 16.3081 36.0312C16.3081 36.651 16.1935 37.1927 15.9644 37.6562C15.7378 38.1198 15.4201 38.4805 15.0112 38.7383C14.605 38.9961 14.131 39.125 13.5894 39.125ZM13.5894 38.2969C14.0008 38.2969 14.3394 38.1914 14.605 37.9805C14.8706 37.7695 15.0672 37.4922 15.1948 37.1484C15.3224 36.8047 15.3862 36.4323 15.3862 36.0312C15.3862 35.6302 15.3224 35.2565 15.1948 34.9102C15.0672 34.5638 14.8706 34.2839 14.605 34.0703C14.3394 33.8568 14.0008 33.75 13.5894 33.75C13.1779 33.75 12.8394 33.8568 12.5737 34.0703C12.3081 34.2839 12.1115 34.5638 11.9839 34.9102C11.8563 35.2565 11.7925 35.6302 11.7925 36.0312C11.7925 36.4323 11.8563 36.8047 11.9839 37.1484C12.1115 37.4922 12.3081 37.7695 12.5737 37.9805C12.8394 38.1914 13.1779 38.2969 13.5894 38.2969ZM17.7153 39V33H18.606V33.9375H18.6841C18.8091 33.6172 19.0109 33.3685 19.2896 33.1914C19.5682 33.0117 19.9028 32.9219 20.2935 32.9219C20.6893 32.9219 21.0187 33.0117 21.2817 33.1914C21.5474 33.3685 21.7544 33.6172 21.9028 33.9375H21.9653C22.119 33.6276 22.3494 33.3815 22.6567 33.1992C22.964 33.0143 23.3325 32.9219 23.7622 32.9219C24.2987 32.9219 24.7375 33.0898 25.0786 33.4258C25.4198 33.7591 25.5903 34.2786 25.5903 34.9844V39H24.6685V34.9844C24.6685 34.5417 24.5474 34.2253 24.3052 34.0352C24.063 33.8451 23.7778 33.75 23.4497 33.75C23.0278 33.75 22.701 33.8776 22.4692 34.1328C22.2375 34.3854 22.1216 34.7057 22.1216 35.0937V39H21.1841V34.8906C21.1841 34.5495 21.0734 34.2747 20.8521 34.0664C20.6307 33.8555 20.3455 33.75 19.9966 33.75C19.757 33.75 19.533 33.8138 19.3247 33.9414C19.119 34.069 18.9523 34.2461 18.8247 34.4727C18.6997 34.6966 18.6372 34.9557 18.6372 35.25V39H17.7153ZM29.7915 39.125C29.2134 39.125 28.7147 38.9974 28.2954 38.7422C27.8787 38.4844 27.5571 38.125 27.3306 37.6641C27.1066 37.2005 26.9946 36.6615 26.9946 36.0469C26.9946 35.4323 27.1066 34.8906 27.3306 34.4219C27.5571 33.9505 27.8722 33.5833 28.2759 33.3203C28.6821 33.0547 29.1561 32.9219 29.6978 32.9219C30.0103 32.9219 30.3188 32.974 30.6235 33.0781C30.9282 33.1823 31.2056 33.3516 31.4556 33.5859C31.7056 33.8177 31.9048 34.125 32.0532 34.5078C32.2017 34.8906 32.2759 35.362 32.2759 35.9219V36.3125H27.6509V35.5156H31.3384C31.3384 35.1771 31.2707 34.875 31.1353 34.6094C31.0024 34.3437 30.8123 34.1341 30.5649 33.9805C30.3201 33.8268 30.0311 33.75 29.6978 33.75C29.3306 33.75 29.0129 33.8411 28.7446 34.0234C28.479 34.2031 28.2746 34.4375 28.1313 34.7266C27.9881 35.0156 27.9165 35.3255 27.9165 35.6562V36.1875C27.9165 36.6406 27.9946 37.0247 28.1509 37.3398C28.3097 37.6523 28.5298 37.8906 28.811 38.0547C29.0923 38.2161 29.4191 38.2969 29.7915 38.2969C30.0337 38.2969 30.2524 38.263 30.4478 38.1953C30.6457 38.125 30.8162 38.0208 30.9595 37.8828C31.1027 37.7422 31.2134 37.5677 31.2915 37.3594L32.1821 37.6094C32.0884 37.9115 31.9308 38.1771 31.7095 38.4062C31.4881 38.6328 31.2147 38.8099 30.8892 38.9375C30.5636 39.0625 30.1978 39.125 29.7915 39.125Z" fill="#234422"/>
</svg>
