<svg width="35" height="50" viewBox="0 0 35 50" fill="none" xmlns="http://www.w3.org/2000/svg">
<path fill-rule="evenodd" clip-rule="evenodd" d="M17.8631 11.3513C17.6381 11.1264 17.3329 11 17.0147 11C16.6965 11 16.3914 11.1264 16.1663 11.3513L7.76635 19.7514L5.36635 22.1515C5.25173 22.2622 5.16032 22.3946 5.09742 22.541C5.03453 22.6874 5.00143 22.8449 5.00005 23.0042C4.99866 23.1635 5.02902 23.3215 5.08936 23.469C5.1497 23.6165 5.2388 23.7505 5.35147 23.8632C5.46414 23.9758 5.59813 24.0649 5.7456 24.1253C5.89308 24.1856 6.05109 24.216 6.21043 24.2146C6.36976 24.2132 6.52723 24.1801 6.67363 24.1172C6.82004 24.0543 6.95245 23.9629 7.06315 23.8483L7.41475 23.4967V31.4C7.41475 32.3548 7.79403 33.2704 8.46916 33.9456C9.14429 34.6207 10.06 35 11.0147 35H23.0147C23.9695 35 24.8852 34.6207 25.5603 33.9456C26.2355 33.2704 26.6147 32.3548 26.6147 31.4V23.4967L26.9663 23.8483C27.1927 24.0669 27.4958 24.1878 27.8104 24.1851C28.1251 24.1824 28.426 24.0562 28.6485 23.8337C28.871 23.6112 28.9972 23.3102 29 22.9956C29.0027 22.6809 28.8817 22.3778 28.6631 22.1515L17.8631 11.3513Z" fill="#60935D"/>
<path d="M3.13428 48V40H4.10303V43.5625H8.36865V40H9.3374V48H8.36865V44.4219H4.10303V48H3.13428ZM13.5894 48.125C13.0477 48.125 12.5724 47.9961 12.1636 47.7383C11.7573 47.4805 11.4396 47.1198 11.2104 46.6562C10.9839 46.1927 10.8706 45.651 10.8706 45.0312C10.8706 44.4062 10.9839 43.8607 11.2104 43.3945C11.4396 42.9284 11.7573 42.5664 12.1636 42.3086C12.5724 42.0508 13.0477 41.9219 13.5894 41.9219C14.131 41.9219 14.605 42.0508 15.0112 42.3086C15.4201 42.5664 15.7378 42.9284 15.9644 43.3945C16.1935 43.8607 16.3081 44.4062 16.3081 45.0312C16.3081 45.651 16.1935 46.1927 15.9644 46.6562C15.7378 47.1198 15.4201 47.4805 15.0112 47.7383C14.605 47.9961 14.131 48.125 13.5894 48.125ZM13.5894 47.2969C14.0008 47.2969 14.3394 47.1914 14.605 46.9805C14.8706 46.7695 15.0672 46.4922 15.1948 46.1484C15.3224 45.8047 15.3862 45.4323 15.3862 45.0312C15.3862 44.6302 15.3224 44.2565 15.1948 43.9102C15.0672 43.5638 14.8706 43.2839 14.605 43.0703C14.3394 42.8568 14.0008 42.75 13.5894 42.75C13.1779 42.75 12.8394 42.8568 12.5737 43.0703C12.3081 43.2839 12.1115 43.5638 11.9839 43.9102C11.8563 44.2565 11.7925 44.6302 11.7925 45.0312C11.7925 45.4323 11.8563 45.8047 11.9839 46.1484C12.1115 46.4922 12.3081 46.7695 12.5737 46.9805C12.8394 47.1914 13.1779 47.2969 13.5894 47.2969ZM17.7153 48V42H18.606V42.9375H18.6841C18.8091 42.6172 19.0109 42.3685 19.2896 42.1914C19.5682 42.0117 19.9028 41.9219 20.2935 41.9219C20.6893 41.9219 21.0187 42.0117 21.2817 42.1914C21.5474 42.3685 21.7544 42.6172 21.9028 42.9375H21.9653C22.119 42.6276 22.3494 42.3815 22.6567 42.1992C22.964 42.0143 23.3325 41.9219 23.7622 41.9219C24.2987 41.9219 24.7375 42.0898 25.0786 42.4258C25.4198 42.7591 25.5903 43.2786 25.5903 43.9844V48H24.6685V43.9844C24.6685 43.5417 24.5474 43.2253 24.3052 43.0352C24.063 42.8451 23.7778 42.75 23.4497 42.75C23.0278 42.75 22.701 42.8776 22.4692 43.1328C22.2375 43.3854 22.1216 43.7057 22.1216 44.0937V48H21.1841V43.8906C21.1841 43.5495 21.0734 43.2747 20.8521 43.0664C20.6307 42.8555 20.3455 42.75 19.9966 42.75C19.757 42.75 19.533 42.8138 19.3247 42.9414C19.119 43.069 18.9523 43.2461 18.8247 43.4727C18.6997 43.6966 18.6372 43.9557 18.6372 44.25V48H17.7153ZM29.7915 48.125C29.2134 48.125 28.7147 47.9974 28.2954 47.7422C27.8787 47.4844 27.5571 47.125 27.3306 46.6641C27.1066 46.2005 26.9946 45.6615 26.9946 45.0469C26.9946 44.4323 27.1066 43.8906 27.3306 43.4219C27.5571 42.9505 27.8722 42.5833 28.2759 42.3203C28.6821 42.0547 29.1561 41.9219 29.6978 41.9219C30.0103 41.9219 30.3188 41.974 30.6235 42.0781C30.9282 42.1823 31.2056 42.3516 31.4556 42.5859C31.7056 42.8177 31.9048 43.125 32.0532 43.5078C32.2017 43.8906 32.2759 44.362 32.2759 44.9219V45.3125H27.6509V44.5156H31.3384C31.3384 44.1771 31.2707 43.875 31.1353 43.6094C31.0024 43.3437 30.8123 43.1341 30.5649 42.9805C30.3201 42.8268 30.0311 42.75 29.6978 42.75C29.3306 42.75 29.0129 42.8411 28.7446 43.0234C28.479 43.2031 28.2746 43.4375 28.1313 43.7266C27.9881 44.0156 27.9165 44.3255 27.9165 44.6562V45.1875C27.9165 45.6406 27.9946 46.0247 28.1509 46.3398C28.3097 46.6523 28.5298 46.8906 28.811 47.0547C29.0923 47.2161 29.4191 47.2969 29.7915 47.2969C30.0337 47.2969 30.2524 47.263 30.4478 47.1953C30.6457 47.125 30.8162 47.0208 30.9595 46.8828C31.1027 46.7422 31.2134 46.5677 31.2915 46.3594L32.1821 46.6094C32.0884 46.9115 31.9308 47.1771 31.7095 47.4062C31.4881 47.6328 31.2147 47.8099 30.8892 47.9375C30.5636 48.0625 30.1978 48.125 29.7915 48.125Z" fill="#234422"/>
<circle cx="17" cy="3" r="3" fill="#60935D"/>
</svg>
