<svg width="80" height="42" viewBox="0 0 80 42" fill="none" xmlns="http://www.w3.org/2000/svg">
<path d="M42.4 17.6C42.74 17.6 43.0352 17.4752 43.2856 17.2256C43.536 16.976 43.6608 16.6808 43.66 16.34C43.66 16 43.5352 15.7052 43.2856 15.4556C43.036 15.206 42.7408 15.0808 42.4 15.08C42.06 15.08 41.7652 15.2052 41.5156 15.4556C41.266 15.706 41.1408 16.0008 41.14 16.34C41.14 16.68 41.2652 16.9752 41.5156 17.2256C41.766 17.476 42.0608 17.6008 42.4 17.6ZM42.4 13.76C42.62 13.76 42.8252 13.68 43.0156 13.52C43.206 13.36 43.3208 13.15 43.36 12.89C43.4 12.65 43.4848 12.43 43.6144 12.23C43.744 12.03 43.9792 11.76 44.32 11.42C44.92 10.82 45.32 10.3348 45.52 9.9644C45.72 9.594 45.82 9.1592 45.82 8.66C45.82 7.76 45.5048 7.0248 44.8744 6.4544C44.244 5.884 43.4192 5.5992 42.4 5.6C41.74 5.6 41.14 5.75 40.6 6.05C40.06 6.35 39.63 6.78 39.31 7.34C39.19 7.54 39.18 7.75 39.28 7.97C39.38 8.19 39.55 8.35 39.79 8.45C40.01 8.55 40.2252 8.56 40.4356 8.48C40.646 8.4 40.8208 8.26 40.96 8.06C41.14 7.8 41.35 7.6052 41.59 7.4756C41.83 7.346 42.1 7.2808 42.4 7.28C42.88 7.28 43.27 7.4152 43.57 7.6856C43.87 7.956 44.02 8.3208 44.02 8.78C44.02 9.06 43.94 9.3252 43.78 9.5756C43.62 9.826 43.34 10.1408 42.94 10.52C42.36 11.02 41.99 11.4052 41.83 11.6756C41.67 11.946 41.57 12.3408 41.53 12.86C41.51 13.1 41.5852 13.31 41.7556 13.49C41.926 13.67 42.1408 13.76 42.4 13.76ZM35.2 21.2C34.54 21.2 33.9752 20.9652 33.5056 20.4956C33.036 20.026 32.8008 19.4608 32.8 18.8V4.4C32.8 3.74 33.0352 3.1752 33.5056 2.7056C33.976 2.236 34.5408 2.0008 35.2 2H49.6C50.26 2 50.8252 2.2352 51.2956 2.7056C51.766 3.176 52.0008 3.7408 52 4.4V18.8C52 19.46 51.7652 20.0252 51.2956 20.4956C50.826 20.966 50.2608 21.2008 49.6 21.2H35.2ZM30.4 26C29.74 26 29.1752 25.7652 28.7056 25.2956C28.236 24.826 28.0008 24.2608 28 23.6V8C28 7.66 28.1152 7.3752 28.3456 7.1456C28.576 6.916 28.8608 6.8008 29.2 6.8C29.54 6.8 29.8252 6.9152 30.0556 7.1456C30.286 7.376 30.4008 7.6608 30.4 8V23.6H46C46.34 23.6 46.6252 23.7152 46.8556 23.9456C47.086 24.176 47.2008 24.4608 47.2 24.8C47.2 25.14 47.0848 25.4252 46.8544 25.6556C46.624 25.886 46.3392 26.0008 46 26H30.4Z" fill="#234422"/>
<path d="M5.64063 33C5.59375 32.6042 5.40365 32.2969 5.07031 32.0781C4.73698 31.8594 4.32813 31.75 3.84375 31.75C3.48958 31.75 3.17969 31.8073 2.91406 31.9219C2.65104 32.0365 2.44531 32.194 2.29688 32.3945C2.15104 32.5951 2.07813 32.8229 2.07813 33.0781C2.07813 33.2917 2.12891 33.4753 2.23047 33.6289C2.33464 33.7799 2.46745 33.9062 2.62891 34.0078C2.79036 34.1068 2.95964 34.1888 3.13672 34.2539C3.3138 34.3164 3.47656 34.3672 3.625 34.4062L4.4375 34.625C4.64583 34.6797 4.8776 34.7552 5.13281 34.8516C5.39063 34.9479 5.63672 35.0794 5.87109 35.2461C6.10807 35.4102 6.30339 35.6211 6.45703 35.8789C6.61068 36.1367 6.6875 36.4531 6.6875 36.8281C6.6875 37.2604 6.57422 37.651 6.34766 38C6.1237 38.349 5.79557 38.6263 5.36328 38.832C4.93359 39.0378 4.41146 39.1406 3.79687 39.1406C3.22396 39.1406 2.72786 39.0482 2.30859 38.8633C1.89193 38.6784 1.5638 38.4206 1.32422 38.0898C1.08724 37.7591 0.953125 37.375 0.921875 36.9375H1.92188C1.94792 37.2396 2.04948 37.4896 2.22656 37.6875C2.40625 37.8828 2.63281 38.0286 2.90625 38.125C3.18229 38.2187 3.47917 38.2656 3.79687 38.2656C4.16667 38.2656 4.4987 38.2057 4.79297 38.0859C5.08724 37.9635 5.32031 37.7943 5.49219 37.5781C5.66406 37.3594 5.75 37.1042 5.75 36.8125C5.75 36.5469 5.67578 36.3307 5.52734 36.1641C5.37891 35.9974 5.18359 35.862 4.94141 35.7578C4.69922 35.6536 4.4375 35.5625 4.15625 35.4844L3.17188 35.2031C2.54688 35.0234 2.05208 34.7669 1.6875 34.4336C1.32292 34.1003 1.14063 33.6641 1.14063 33.125C1.14063 32.6771 1.26172 32.2865 1.50391 31.9531C1.7487 31.6172 2.07682 31.3568 2.48828 31.1719C2.90234 30.9844 3.36458 30.8906 3.875 30.8906C4.39063 30.8906 4.84896 30.9831 5.25 31.168C5.65104 31.3503 5.96875 31.6003 6.20312 31.918C6.4401 32.2357 6.5651 32.5964 6.57813 33H5.64063ZM10.7646 33V33.7812H7.65527V33H10.7646ZM8.56152 31.5625H9.4834V37.2812C9.4834 37.5417 9.52116 37.737 9.59668 37.8672C9.6748 37.9948 9.77376 38.0807 9.89355 38.125C10.016 38.1667 10.1449 38.1875 10.2803 38.1875C10.3818 38.1875 10.4652 38.1823 10.5303 38.1719C10.5954 38.1589 10.6475 38.1484 10.6865 38.1406L10.874 38.9687C10.8115 38.9922 10.7243 39.0156 10.6123 39.0391C10.5003 39.0651 10.3584 39.0781 10.1865 39.0781C9.92611 39.0781 9.6709 39.0221 9.4209 38.9102C9.1735 38.7982 8.96777 38.6276 8.80371 38.3984C8.64225 38.1693 8.56152 37.8802 8.56152 37.5312V31.5625ZM15.9326 36.5469V33H16.8545V39H15.9326V37.9844H15.8701C15.7295 38.2891 15.5107 38.5482 15.2139 38.7617C14.917 38.9727 14.542 39.0781 14.0889 39.0781C13.7139 39.0781 13.3805 38.9961 13.0889 38.832C12.7972 38.6654 12.568 38.4154 12.4014 38.082C12.2347 37.7461 12.1514 37.3229 12.1514 36.8125V33H13.0732V36.75C13.0732 37.1875 13.1956 37.5365 13.4404 37.7969C13.6878 38.0573 14.0029 38.1875 14.3857 38.1875C14.6149 38.1875 14.848 38.1289 15.085 38.0117C15.3245 37.8945 15.5251 37.7148 15.6865 37.4727C15.8506 37.2305 15.9326 36.9219 15.9326 36.5469ZM20.8086 39.125C20.3086 39.125 19.8672 38.9987 19.4844 38.7461C19.1016 38.4909 18.8021 38.1315 18.5859 37.668C18.3698 37.2018 18.2617 36.651 18.2617 36.0156C18.2617 35.3854 18.3698 34.8385 18.5859 34.375C18.8021 33.9115 19.1029 33.5534 19.4883 33.3008C19.8737 33.0482 20.319 32.9219 20.8242 32.9219C21.2148 32.9219 21.5234 32.987 21.75 33.1172C21.9792 33.2448 22.1536 33.3906 22.2734 33.5547C22.3958 33.7161 22.4909 33.849 22.5586 33.9531H22.6367V31H23.5586V39H22.668V38.0781H22.5586C22.4909 38.1875 22.3945 38.3255 22.2695 38.4922C22.1445 38.6562 21.9661 38.8034 21.7344 38.9336C21.5026 39.0612 21.194 39.125 20.8086 39.125ZM20.9336 38.2969C21.3034 38.2969 21.6159 38.2005 21.8711 38.0078C22.1263 37.8125 22.3203 37.543 22.4531 37.1992C22.5859 36.8529 22.6523 36.4531 22.6523 36C22.6523 35.5521 22.5872 35.1602 22.457 34.8242C22.3268 34.4857 22.1341 34.2227 21.8789 34.0352C21.6237 33.8451 21.3086 33.75 20.9336 33.75C20.543 33.75 20.2174 33.8503 19.957 34.0508C19.6992 34.2487 19.5052 34.5182 19.375 34.8594C19.2474 35.1979 19.1836 35.5781 19.1836 36C19.1836 36.4271 19.2487 36.8151 19.3789 37.1641C19.5117 37.5104 19.707 37.7865 19.9648 37.9922C20.2253 38.1953 20.5482 38.2969 20.9336 38.2969ZM25.9688 41.25C25.8125 41.25 25.6732 41.237 25.5508 41.2109C25.4284 41.1875 25.3438 41.1641 25.2969 41.1406L25.5313 40.3281C25.7552 40.3854 25.9531 40.4063 26.125 40.3906C26.2969 40.375 26.4492 40.2982 26.582 40.1602C26.7174 40.0247 26.8411 39.8047 26.9531 39.5L27.125 39.0313L24.9063 33H25.9062L27.5625 37.7812H27.625L29.2813 33H30.2813L27.7344 39.875C27.6198 40.1849 27.4779 40.4414 27.3086 40.6445C27.1393 40.8503 26.9427 41.0026 26.7188 41.1016C26.4974 41.2005 26.2474 41.25 25.9688 41.25ZM34.7168 31H35.873L38.5918 37.6406H38.6855L41.4043 31H42.5605V39H41.6543V32.9219H41.5762L39.0762 39H38.2012L35.7012 32.9219H35.623V39H34.7168V31ZM46.8936 39.125C46.3154 39.125 45.8167 38.9974 45.3975 38.7422C44.9808 38.4844 44.6592 38.125 44.4326 37.6641C44.2087 37.2005 44.0967 36.6615 44.0967 36.0469C44.0967 35.4323 44.2087 34.8906 44.4326 34.4219C44.6592 33.9505 44.9743 33.5833 45.3779 33.3203C45.7842 33.0547 46.2581 32.9219 46.7998 32.9219C47.1123 32.9219 47.4209 32.974 47.7256 33.0781C48.0303 33.1823 48.3076 33.3516 48.5576 33.5859C48.8076 33.8177 49.0068 34.125 49.1553 34.5078C49.3037 34.8906 49.3779 35.362 49.3779 35.9219V36.3125H44.7529V35.5156H48.4404C48.4404 35.1771 48.3727 34.875 48.2373 34.6094C48.1045 34.3437 47.9144 34.1341 47.667 33.9805C47.4222 33.8268 47.1331 33.75 46.7998 33.75C46.4326 33.75 46.1149 33.8411 45.8467 34.0234C45.5811 34.2031 45.3766 34.4375 45.2334 34.7266C45.0902 35.0156 45.0186 35.3255 45.0186 35.6562V36.1875C45.0186 36.6406 45.0967 37.0247 45.2529 37.3398C45.4118 37.6523 45.6318 37.8906 45.9131 38.0547C46.1943 38.2161 46.5212 38.2969 46.8936 38.2969C47.1357 38.2969 47.3545 38.263 47.5498 38.1953C47.7477 38.125 47.9183 38.0208 48.0615 37.8828C48.2048 37.7422 48.3154 37.5677 48.3936 37.3594L49.2842 37.6094C49.1904 37.9115 49.0329 38.1771 48.8115 38.4062C48.5902 38.6328 48.3167 38.8099 47.9912 38.9375C47.6657 39.0625 47.2998 39.125 46.8936 39.125ZM53.3896 33V33.7812H50.2803V33H53.3896ZM51.1865 31.5625H52.1084V37.2812C52.1084 37.5417 52.1462 37.737 52.2217 37.8672C52.2998 37.9948 52.3988 38.0807 52.5186 38.125C52.641 38.1667 52.7699 38.1875 52.9053 38.1875C53.0068 38.1875 53.0902 38.1823 53.1553 38.1719C53.2204 38.1589 53.2725 38.1484 53.3115 38.1406L53.499 38.9687C53.4365 38.9922 53.3493 39.0156 53.2373 39.0391C53.1253 39.0651 52.9834 39.0781 52.8115 39.0781C52.5511 39.0781 52.2959 39.0221 52.0459 38.9102C51.7985 38.7982 51.5928 38.6276 51.4287 38.3984C51.2673 38.1693 51.1865 37.8802 51.1865 37.5312V31.5625ZM55.8271 35.3906V39H54.9053V31H55.8271V33.9375H55.9053C56.0459 33.6276 56.2568 33.3815 56.5381 33.1992C56.8219 33.0143 57.1995 32.9219 57.6709 32.9219C58.0798 32.9219 58.4378 33.0039 58.7451 33.168C59.0524 33.3294 59.2907 33.5781 59.46 33.9141C59.6318 34.2474 59.7178 34.6719 59.7178 35.1875V39H58.7959V35.25C58.7959 34.7734 58.6722 34.4049 58.4248 34.1445C58.18 33.8815 57.8402 33.75 57.4053 33.75C57.1032 33.75 56.8324 33.8138 56.5928 33.9414C56.3558 34.069 56.1683 34.2552 56.0303 34.5C55.8949 34.7448 55.8271 35.0417 55.8271 35.3906ZM63.8418 39.125C63.3001 39.125 62.8249 38.9961 62.416 38.7383C62.0098 38.4805 61.6921 38.1198 61.4629 37.6562C61.2363 37.1927 61.123 36.651 61.123 36.0312C61.123 35.4062 61.2363 34.8607 61.4629 34.3945C61.6921 33.9284 62.0098 33.5664 62.416 33.3086C62.8249 33.0508 63.3001 32.9219 63.8418 32.9219C64.3835 32.9219 64.8574 33.0508 65.2637 33.3086C65.6725 33.5664 65.9902 33.9284 66.2168 34.3945C66.446 34.8607 66.5605 35.4062 66.5605 36.0312C66.5605 36.651 66.446 37.1927 66.2168 37.6562C65.9902 38.1198 65.6725 38.4805 65.2637 38.7383C64.8574 38.9961 64.3835 39.125 63.8418 39.125ZM63.8418 38.2969C64.2533 38.2969 64.5918 38.1914 64.8574 37.9805C65.123 37.7695 65.3197 37.4922 65.4473 37.1484C65.5749 36.8047 65.6387 36.4323 65.6387 36.0312C65.6387 35.6302 65.5749 35.2565 65.4473 34.9102C65.3197 34.5638 65.123 34.2839 64.8574 34.0703C64.5918 33.8568 64.2533 33.75 63.8418 33.75C63.4303 33.75 63.0918 33.8568 62.8262 34.0703C62.5605 34.2839 62.3639 34.5638 62.2363 34.9102C62.1087 35.2565 62.0449 35.6302 62.0449 36.0312C62.0449 36.4323 62.1087 36.8047 62.2363 37.1484C62.3639 37.4922 62.5605 37.7695 62.8262 37.9805C63.0918 38.1914 63.4303 38.2969 63.8418 38.2969ZM70.2334 39.125C69.7334 39.125 69.292 38.9987 68.9092 38.7461C68.5264 38.4909 68.2269 38.1315 68.0107 37.668C67.7946 37.2018 67.6865 36.651 67.6865 36.0156C67.6865 35.3854 67.7946 34.8385 68.0107 34.375C68.2269 33.9115 68.5277 33.5534 68.9131 33.3008C69.2985 33.0482 69.7438 32.9219 70.249 32.9219C70.6396 32.9219 70.9482 32.987 71.1748 33.1172C71.404 33.2448 71.5785 33.3906 71.6982 33.5547C71.8206 33.7161 71.9157 33.849 71.9834 33.9531H72.0615V31H72.9834V39H72.0928V38.0781H71.9834C71.9157 38.1875 71.8193 38.3255 71.6943 38.4922C71.5693 38.6562 71.391 38.8034 71.1592 38.9336C70.9274 39.0612 70.6188 39.125 70.2334 39.125ZM70.3584 38.2969C70.7282 38.2969 71.0407 38.2005 71.2959 38.0078C71.5511 37.8125 71.7451 37.543 71.8779 37.1992C72.0107 36.8529 72.0771 36.4531 72.0771 36C72.0771 35.5521 72.012 35.1602 71.8818 34.8242C71.7516 34.4857 71.5589 34.2227 71.3037 34.0352C71.0485 33.8451 70.7334 33.75 70.3584 33.75C69.9678 33.75 69.6423 33.8503 69.3818 34.0508C69.124 34.2487 68.93 34.5182 68.7998 34.8594C68.6722 35.1979 68.6084 35.5781 68.6084 36C68.6084 36.4271 68.6735 36.8151 68.8037 37.1641C68.9365 37.5104 69.1318 37.7865 69.3896 37.9922C69.6501 38.1953 69.973 38.2969 70.3584 38.2969ZM79.0498 34.3437L78.2217 34.5781C78.1696 34.4401 78.0928 34.306 77.9912 34.1758C77.8923 34.043 77.7568 33.9336 77.585 33.8477C77.4131 33.7617 77.193 33.7187 76.9248 33.7187C76.5576 33.7187 76.2516 33.8034 76.0068 33.9727C75.7646 34.1393 75.6436 34.3516 75.6436 34.6094C75.6436 34.8385 75.7269 35.0195 75.8936 35.1523C76.0602 35.2852 76.3206 35.3958 76.6748 35.4844L77.5654 35.7031C78.1019 35.8333 78.5016 36.0326 78.7646 36.3008C79.0277 36.5664 79.1592 36.9089 79.1592 37.3281C79.1592 37.6719 79.0602 37.9792 78.8623 38.25C78.667 38.5208 78.3936 38.7344 78.042 38.8906C77.6904 39.0469 77.2816 39.125 76.8154 39.125C76.2035 39.125 75.6969 38.9922 75.2959 38.7266C74.8949 38.4609 74.641 38.0729 74.5342 37.5625L75.4092 37.3437C75.4925 37.6667 75.6501 37.9089 75.8818 38.0703C76.1162 38.2318 76.4222 38.3125 76.7998 38.3125C77.2295 38.3125 77.5706 38.2214 77.8232 38.0391C78.0785 37.8542 78.2061 37.6328 78.2061 37.375C78.2061 37.1667 78.1331 36.9922 77.9873 36.8516C77.8415 36.7083 77.6175 36.6016 77.3154 36.5312L76.3154 36.2969C75.766 36.1667 75.3623 35.9648 75.1045 35.6914C74.8493 35.4154 74.7217 35.0703 74.7217 34.6562C74.7217 34.3177 74.8167 34.0182 75.0068 33.7578C75.1995 33.4974 75.4613 33.293 75.792 33.1445C76.1253 32.9961 76.5029 32.9219 76.9248 32.9219C77.5186 32.9219 77.9847 33.0521 78.3232 33.3125C78.6644 33.5729 78.9066 33.9167 79.0498 34.3437Z" fill="#234422"/>
</svg>
