<svg width="41" height="41" viewBox="0 0 41 41" fill="none" xmlns="http://www.w3.org/2000/svg">
<path d="M26.1938 12.1943C26.1938 16.4089 22.7158 19.8887 18.3469 19.8887C13.978 19.8887 10.5 16.4089 10.5 12.1943C10.5 7.97976 13.978 4.5 18.3469 4.5C22.7158 4.5 26.1938 7.97976 26.1938 12.1943Z" stroke="#234422" stroke-width="5"/>
<line y1="-2.5" x2="10.9556" y2="-2.5" transform="matrix(0.712339 0.701835 -0.712339 0.701835 21.7959 18.311)" stroke="#234422" stroke-width="5"/>
<path d="M7.75928 33C7.7124 32.6042 7.5223 32.2969 7.18896 32.0781C6.85563 31.8594 6.44678 31.75 5.9624 31.75C5.60824 31.75 5.29834 31.8073 5.03271 31.9219C4.76969 32.0365 4.56396 32.194 4.41553 32.3945C4.26969 32.5951 4.19678 32.8229 4.19678 33.0781C4.19678 33.2917 4.24756 33.4753 4.34912 33.6289C4.45329 33.7799 4.5861 33.9062 4.74756 34.0078C4.90902 34.1068 5.07829 34.1888 5.25537 34.2539C5.43245 34.3164 5.59521 34.3672 5.74365 34.4062L6.55615 34.625C6.76449 34.6797 6.99626 34.7552 7.25146 34.8516C7.50928 34.9479 7.75537 35.0794 7.98975 35.2461C8.22673 35.4102 8.42204 35.6211 8.57568 35.8789C8.72933 36.1367 8.80615 36.4531 8.80615 36.8281C8.80615 37.2604 8.69287 37.651 8.46631 38C8.24235 38.349 7.91423 38.6263 7.48193 38.832C7.05225 39.0378 6.53011 39.1406 5.91553 39.1406C5.34261 39.1406 4.84652 39.0482 4.42725 38.8633C4.01058 38.6784 3.68245 38.4206 3.44287 38.0898C3.20589 37.7591 3.07178 37.375 3.04053 36.9375H4.04053C4.06657 37.2396 4.16813 37.4896 4.34521 37.6875C4.5249 37.8828 4.75146 38.0286 5.0249 38.125C5.30094 38.2187 5.59782 38.2656 5.91553 38.2656C6.28532 38.2656 6.61735 38.2057 6.91162 38.0859C7.20589 37.9635 7.43897 37.7943 7.61084 37.5781C7.78272 37.3594 7.86865 37.1042 7.86865 36.8125C7.86865 36.5469 7.79443 36.3307 7.646 36.1641C7.49756 35.9974 7.30225 35.862 7.06006 35.7578C6.81787 35.6536 6.55615 35.5625 6.2749 35.4844L5.29053 35.2031C4.66553 35.0234 4.17074 34.7669 3.80615 34.4336C3.44157 34.1003 3.25928 33.6641 3.25928 33.125C3.25928 32.6771 3.38037 32.2865 3.62256 31.9531C3.86735 31.6172 4.19548 31.3568 4.60693 31.1719C5.021 30.9844 5.48324 30.8906 5.99365 30.8906C6.50928 30.8906 6.96761 30.9831 7.36865 31.168C7.76969 31.3503 8.0874 31.6003 8.32178 31.918C8.55876 32.2357 8.68376 32.5964 8.69678 33H7.75928ZM12.7896 39.125C12.2114 39.125 11.7127 38.9974 11.2935 38.7422C10.8768 38.4844 10.5552 38.125 10.3286 37.6641C10.1047 37.2005 9.99268 36.6615 9.99268 36.0469C9.99268 35.4323 10.1047 34.8906 10.3286 34.4219C10.5552 33.9505 10.8703 33.5833 11.2739 33.3203C11.6802 33.0547 12.1541 32.9219 12.6958 32.9219C13.0083 32.9219 13.3169 32.974 13.6216 33.0781C13.9263 33.1823 14.2036 33.3516 14.4536 33.5859C14.7036 33.8177 14.9028 34.125 15.0513 34.5078C15.1997 34.8906 15.2739 35.362 15.2739 35.9219V36.3125H10.6489V35.5156H14.3364C14.3364 35.1771 14.2687 34.875 14.1333 34.6094C14.0005 34.3437 13.8104 34.1341 13.563 33.9805C13.3182 33.8268 13.0291 33.75 12.6958 33.75C12.3286 33.75 12.0109 33.8411 11.7427 34.0234C11.4771 34.2031 11.2726 34.4375 11.1294 34.7266C10.9862 35.0156 10.9146 35.3255 10.9146 35.6562V36.1875C10.9146 36.6406 10.9927 37.0247 11.1489 37.3398C11.3078 37.6523 11.5278 37.8906 11.8091 38.0547C12.0903 38.2161 12.4172 38.2969 12.7896 38.2969C13.0317 38.2969 13.2505 38.263 13.4458 38.1953C13.6437 38.125 13.8143 38.0208 13.9575 37.8828C14.1007 37.7422 14.2114 37.5677 14.2896 37.3594L15.1802 37.6094C15.0864 37.9115 14.9289 38.1771 14.7075 38.4062C14.4862 38.6328 14.2127 38.8099 13.8872 38.9375C13.5617 39.0625 13.1958 39.125 12.7896 39.125ZM18.4419 39.1406C18.0617 39.1406 17.7166 39.069 17.4067 38.9258C17.0968 38.7799 16.8507 38.5703 16.6685 38.2969C16.4862 38.0208 16.395 37.6875 16.395 37.2969C16.395 36.9531 16.4627 36.6745 16.5981 36.4609C16.7336 36.2448 16.9146 36.0755 17.1411 35.9531C17.3677 35.8307 17.6177 35.7396 17.8911 35.6797C18.1672 35.6172 18.4445 35.5677 18.7231 35.5313C19.0877 35.4844 19.3833 35.4492 19.6099 35.4258C19.839 35.3997 20.0057 35.3568 20.1099 35.2969C20.2166 35.237 20.27 35.1328 20.27 34.9844V34.9531C20.27 34.5677 20.1646 34.2682 19.9536 34.0547C19.7453 33.8411 19.4289 33.7344 19.0044 33.7344C18.5643 33.7344 18.2192 33.8307 17.9692 34.0234C17.7192 34.2161 17.5435 34.4219 17.4419 34.6406L16.5669 34.3281C16.7231 33.9635 16.9315 33.6797 17.1919 33.4766C17.4549 33.2708 17.7414 33.1276 18.0513 33.0469C18.3638 32.9635 18.6711 32.9219 18.9731 32.9219C19.1659 32.9219 19.3872 32.9453 19.6372 32.9922C19.8898 33.0365 20.1333 33.1289 20.3677 33.2695C20.6047 33.4102 20.8013 33.6224 20.9575 33.9062C21.1138 34.1901 21.1919 34.5703 21.1919 35.0469V39H20.27V38.1875H20.2231C20.1606 38.3177 20.0565 38.457 19.9106 38.6055C19.7648 38.7539 19.5708 38.8802 19.3286 38.9844C19.0864 39.0885 18.7909 39.1406 18.4419 39.1406ZM18.5825 38.3125C18.9471 38.3125 19.2544 38.2409 19.5044 38.0977C19.757 37.9544 19.9471 37.7695 20.0747 37.543C20.2049 37.3164 20.27 37.0781 20.27 36.8281V35.9844C20.231 36.0312 20.145 36.0742 20.0122 36.1133C19.882 36.1497 19.731 36.1823 19.5591 36.2109C19.3898 36.237 19.2244 36.2604 19.063 36.2812C18.9041 36.2995 18.7752 36.3151 18.6763 36.3281C18.4367 36.3594 18.2127 36.4102 18.0044 36.4805C17.7987 36.5482 17.632 36.651 17.5044 36.7891C17.3794 36.9245 17.3169 37.1094 17.3169 37.3437C17.3169 37.6641 17.4354 37.9062 17.6724 38.0703C17.9119 38.2318 18.2153 38.3125 18.5825 38.3125ZM22.8745 39V33H23.7651V33.9062H23.8276C23.937 33.6094 24.1349 33.3685 24.4214 33.1836C24.7078 32.9987 25.0308 32.9062 25.3901 32.9062C25.4578 32.9062 25.5425 32.9076 25.644 32.9102C25.7456 32.9128 25.8224 32.9167 25.8745 32.9219V33.8594C25.8433 33.8516 25.7716 33.8398 25.6597 33.8242C25.5503 33.806 25.4344 33.7969 25.312 33.7969C25.0203 33.7969 24.7599 33.8581 24.5308 33.9805C24.3042 34.1003 24.1245 34.2669 23.9917 34.4805C23.8615 34.6914 23.7964 34.9323 23.7964 35.2031V39H22.8745ZM29.2222 39.125C28.6597 39.125 28.1753 38.9922 27.769 38.7266C27.3628 38.4609 27.0503 38.0951 26.8315 37.6289C26.6128 37.1628 26.5034 36.6302 26.5034 36.0312C26.5034 35.4219 26.6154 34.8841 26.8394 34.418C27.0659 33.9492 27.381 33.5833 27.7847 33.3203C28.1909 33.0547 28.6649 32.9219 29.2065 32.9219C29.6284 32.9219 30.0086 33 30.3472 33.1562C30.6857 33.3125 30.9631 33.5312 31.1792 33.8125C31.3953 34.0937 31.5295 34.4219 31.5815 34.7969H30.6597C30.5894 34.5234 30.4331 34.2812 30.1909 34.0703C29.9513 33.8568 29.6284 33.75 29.2222 33.75C28.8628 33.75 28.5477 33.8437 28.2769 34.0312C28.0086 34.2161 27.799 34.4779 27.6479 34.8164C27.4995 35.1523 27.4253 35.5469 27.4253 36C27.4253 36.4635 27.4982 36.8672 27.644 37.2109C27.7925 37.5547 28.0008 37.8216 28.269 38.0117C28.5399 38.2018 28.8576 38.2969 29.2222 38.2969C29.4618 38.2969 29.6792 38.2552 29.8745 38.1719C30.0698 38.0885 30.2352 37.9688 30.3706 37.8125C30.506 37.6562 30.6024 37.4687 30.6597 37.25H31.5815C31.5295 37.6042 31.4006 37.9232 31.1948 38.207C30.9917 38.4883 30.7222 38.7122 30.3862 38.8789C30.0529 39.043 29.6649 39.125 29.2222 39.125ZM33.8511 35.3906V39H32.9292V31H33.8511V33.9375H33.9292C34.0698 33.6276 34.2808 33.3815 34.562 33.1992C34.8459 33.0143 35.2235 32.9219 35.6948 32.9219C36.1037 32.9219 36.4618 33.0039 36.769 33.168C37.0763 33.3294 37.3146 33.5781 37.4839 33.9141C37.6558 34.2474 37.7417 34.6719 37.7417 35.1875V39H36.8198V35.25C36.8198 34.7734 36.6961 34.4049 36.4487 34.1445C36.2039 33.8815 35.8641 33.75 35.4292 33.75C35.1271 33.75 34.8563 33.8138 34.6167 33.9414C34.3797 34.069 34.1922 34.2552 34.0542 34.5C33.9188 34.7448 33.8511 35.0417 33.8511 35.3906Z" fill="#234422"/>
</svg>
