<svg width="42" height="42" viewBox="0 0 42 42" fill="none" xmlns="http://www.w3.org/2000/svg">
<path d="M14.8962 11.4944H14.0193C12.8225 11.4533 11.6297 11.6467 10.5147 12.0629C9.39975 12.4791 8.38649 13.109 7.53782 13.9136L7.2959 14.1824V22.1312H11.4085V17.6192L11.9629 17.024L12.2149 16.7456C13.5273 15.4616 15.1611 14.5168 16.9626 14C16.0607 13.3464 15.3493 12.4839 14.8962 11.4944Z" fill="#234422"/>
<path d="M34.3906 13.8848C33.5419 13.0802 32.5287 12.4502 31.4137 12.0341C30.2988 11.6179 29.1059 11.4244 27.9092 11.4656C27.5421 11.4666 27.1754 11.4859 26.8104 11.5232C26.3489 12.4515 25.6569 13.2587 24.7944 13.8752C26.7177 14.382 28.4599 15.3775 29.8344 16.7552L30.0864 17.024L30.6308 17.6192V22.1408H34.6023V14.1536L34.3906 13.8848Z" fill="#234422"/>
<path d="M13.9886 9.62251H14.301C14.1559 8.43522 14.3746 7.23329 14.9309 6.16179C15.4871 5.0903 16.3572 4.19505 17.4359 3.58411C17.0449 3.01516 16.5054 2.55269 15.8703 2.24197C15.2352 1.93126 14.5263 1.78296 13.8129 1.81159C13.0995 1.84022 12.4062 2.0448 11.8008 2.4053C11.1954 2.7658 10.6987 3.26986 10.3593 3.86812C10.0199 4.46638 9.84949 5.13833 9.86471 5.81817C9.87992 6.49801 10.0803 7.16244 10.4461 7.74638C10.812 8.33032 11.3308 8.81377 11.9517 9.14938C12.5727 9.48499 13.2746 9.66125 13.9886 9.66091V9.62251Z" fill="#234422"/>
<path d="M27.4256 8.90245C27.4378 9.1231 27.4378 9.34421 27.4256 9.56486C27.619 9.59406 27.8144 9.6101 28.0102 9.61286H28.2017C28.9126 9.57676 29.6015 9.36597 30.2014 9.00103C30.8014 8.63608 31.2919 8.12941 31.6252 7.53034C31.9584 6.93127 32.1232 6.26022 32.1033 5.58252C32.0835 4.90481 31.8797 4.24355 31.5119 3.66312C31.144 3.08268 30.6246 2.60284 30.0043 2.27032C29.3839 1.9378 28.6837 1.76393 27.9718 1.76564C27.26 1.76734 26.5607 1.94457 25.9421 2.28005C25.3235 2.61554 24.8067 3.09786 24.4419 3.68006C25.3542 4.24735 26.1044 5.02147 26.6252 5.93295C27.1459 6.84444 27.4209 7.86479 27.4256 8.90245Z" fill="#234422"/>
<path d="M20.8129 13.2032C23.3014 13.2032 25.3186 11.282 25.3186 8.91205C25.3186 6.54209 23.3014 4.62085 20.8129 4.62085C18.3244 4.62085 16.3071 6.54209 16.3071 8.91205C16.3071 11.282 18.3244 13.2032 20.8129 13.2032Z" fill="#234422"/>
<path d="M21.0546 15.4881C19.7382 15.4375 18.4247 15.641 17.193 16.0865C15.9614 16.5319 14.837 17.2101 13.8877 18.0801L13.6357 18.3489V24.4257C13.6397 24.6236 13.6845 24.8189 13.7677 25.0003C13.8509 25.1818 13.9708 25.3458 14.1206 25.4831C14.2703 25.6204 14.447 25.7282 14.6406 25.8005C14.8341 25.8727 15.0407 25.9079 15.2485 25.9041H26.8305C27.0383 25.9079 27.2449 25.8727 27.4384 25.8005C27.632 25.7282 27.8087 25.6204 27.9584 25.4831C28.1082 25.3458 28.2281 25.1818 28.3113 25.0003C28.3945 24.8189 28.4393 24.6236 28.4433 24.4257V18.3681L28.2013 18.0801C27.2582 17.2074 26.1378 16.5273 24.9089 16.0816C23.68 15.6359 22.3684 15.4339 21.0546 15.4881Z" fill="#234422"/>
<path d="M8.69238 33.5C8.60645 33.237 8.49316 33.0013 8.35254 32.793C8.21452 32.582 8.04915 32.4023 7.85645 32.2539C7.66634 32.1055 7.4502 31.9922 7.20801 31.9141C6.96582 31.8359 6.7002 31.7969 6.41113 31.7969C5.93717 31.7969 5.50619 31.9193 5.11816 32.1641C4.73014 32.4089 4.42155 32.7695 4.19238 33.2461C3.96322 33.7227 3.84863 34.3073 3.84863 35C3.84863 35.6927 3.96452 36.2773 4.19629 36.7539C4.42806 37.2305 4.74186 37.5911 5.1377 37.8359C5.53353 38.0807 5.97884 38.2031 6.47363 38.2031C6.93197 38.2031 7.33561 38.1055 7.68457 37.9102C8.03613 37.7122 8.30957 37.4336 8.50488 37.0742C8.7028 36.7122 8.80176 36.2865 8.80176 35.7969L9.09863 35.8594H6.69238V35H9.73926V35.8594C9.73926 36.5182 9.59863 37.0911 9.31738 37.5781C9.03874 38.0651 8.65332 38.4427 8.16113 38.7109C7.67155 38.9766 7.10905 39.1094 6.47363 39.1094C5.7653 39.1094 5.1429 38.9427 4.60645 38.6094C4.07259 38.276 3.65592 37.8021 3.35645 37.1875C3.05957 36.5729 2.91113 35.8437 2.91113 35C2.91113 34.3672 2.99577 33.7982 3.16504 33.293C3.33691 32.7852 3.5791 32.3529 3.8916 31.9961C4.2041 31.6393 4.57389 31.3659 5.00098 31.1758C5.42806 30.9857 5.89811 30.8906 6.41113 30.8906C6.83301 30.8906 7.22624 30.9544 7.59082 31.082C7.95801 31.207 8.28483 31.3854 8.57129 31.6172C8.86035 31.8464 9.10124 32.1211 9.29395 32.4414C9.48665 32.7591 9.61947 33.112 9.69238 33.5H8.69238ZM11.2734 39V33H12.1641V33.9062H12.2266C12.3359 33.6094 12.5339 33.3685 12.8203 33.1836C13.1068 32.9987 13.4297 32.9062 13.7891 32.9062C13.8568 32.9062 13.9414 32.9076 14.043 32.9102C14.1445 32.9128 14.2214 32.9167 14.2734 32.9219V33.8594C14.2422 33.8516 14.1706 33.8398 14.0586 33.8242C13.9492 33.806 13.8333 33.7969 13.7109 33.7969C13.4193 33.7969 13.1589 33.8581 12.9297 33.9805C12.7031 34.1003 12.5234 34.2669 12.3906 34.4805C12.2604 34.6914 12.1953 34.9323 12.1953 35.2031V39H11.2734ZM17.6211 39.125C17.0794 39.125 16.6042 38.9961 16.1953 38.7383C15.7891 38.4805 15.4714 38.1198 15.2422 37.6562C15.0156 37.1927 14.9023 36.651 14.9023 36.0312C14.9023 35.4062 15.0156 34.8607 15.2422 34.3945C15.4714 33.9284 15.7891 33.5664 16.1953 33.3086C16.6042 33.0508 17.0794 32.9219 17.6211 32.9219C18.1628 32.9219 18.6367 33.0508 19.043 33.3086C19.4518 33.5664 19.7695 33.9284 19.9961 34.3945C20.2253 34.8607 20.3398 35.4062 20.3398 36.0312C20.3398 36.651 20.2253 37.1927 19.9961 37.6562C19.7695 38.1198 19.4518 38.4805 19.043 38.7383C18.6367 38.9961 18.1628 39.125 17.6211 39.125ZM17.6211 38.2969C18.0326 38.2969 18.3711 38.1914 18.6367 37.9805C18.9023 37.7695 19.099 37.4922 19.2266 37.1484C19.3542 36.8047 19.418 36.4323 19.418 36.0312C19.418 35.6302 19.3542 35.2565 19.2266 34.9102C19.099 34.5638 18.9023 34.2839 18.6367 34.0703C18.3711 33.8568 18.0326 33.75 17.6211 33.75C17.2096 33.75 16.8711 33.8568 16.6055 34.0703C16.3398 34.2839 16.1432 34.5638 16.0156 34.9102C15.888 35.2565 15.8242 35.6302 15.8242 36.0312C15.8242 36.4323 15.888 36.8047 16.0156 37.1484C16.1432 37.4922 16.3398 37.7695 16.6055 37.9805C16.8711 38.1914 17.2096 38.2969 17.6211 38.2969ZM25.5283 36.5469V33H26.4502V39H25.5283V37.9844H25.4658C25.3252 38.2891 25.1064 38.5482 24.8096 38.7617C24.5127 38.9727 24.1377 39.0781 23.6846 39.0781C23.3096 39.0781 22.9762 38.9961 22.6846 38.832C22.3929 38.6654 22.1637 38.4154 21.9971 38.082C21.8304 37.7461 21.7471 37.3229 21.7471 36.8125V33H22.6689V36.75C22.6689 37.1875 22.7913 37.5365 23.0361 37.7969C23.2835 38.0573 23.5986 38.1875 23.9814 38.1875C24.2106 38.1875 24.4437 38.1289 24.6807 38.0117C24.9202 37.8945 25.1208 37.7148 25.2822 37.4727C25.4463 37.2305 25.5283 36.9219 25.5283 36.5469ZM28.1387 41.25V33H29.0293V33.9531H29.1387C29.2064 33.849 29.3001 33.7161 29.4199 33.5547C29.5423 33.3906 29.7168 33.2448 29.9434 33.1172C30.1725 32.987 30.4824 32.9219 30.873 32.9219C31.3783 32.9219 31.8236 33.0482 32.209 33.3008C32.5944 33.5534 32.8952 33.9115 33.1113 34.375C33.3275 34.8385 33.4355 35.3854 33.4355 36.0156C33.4355 36.651 33.3275 37.2018 33.1113 37.668C32.8952 38.1315 32.5957 38.4909 32.2129 38.7461C31.8301 38.9987 31.3887 39.125 30.8887 39.125C30.5033 39.125 30.1947 39.0612 29.9629 38.9336C29.7311 38.8034 29.5527 38.6562 29.4277 38.4922C29.3027 38.3255 29.2064 38.1875 29.1387 38.0781H29.0605V41.25H28.1387ZM29.0449 36C29.0449 36.4531 29.1113 36.8529 29.2441 37.1992C29.377 37.543 29.571 37.8125 29.8262 38.0078C30.0814 38.2005 30.3939 38.2969 30.7637 38.2969C31.1491 38.2969 31.4707 38.1953 31.7285 37.9922C31.9889 37.7865 32.1842 37.5104 32.3145 37.1641C32.4473 36.8151 32.5137 36.4271 32.5137 36C32.5137 35.5781 32.4486 35.1979 32.3184 34.8594C32.1908 34.5182 31.9967 34.2487 31.7363 34.0508C31.4785 33.8503 31.1543 33.75 30.7637 33.75C30.3887 33.75 30.0736 33.8451 29.8184 34.0352C29.5632 34.2227 29.3704 34.4857 29.2402 34.8242C29.11 35.1602 29.0449 35.5521 29.0449 36ZM39.0918 34.3437L38.2637 34.5781C38.2116 34.4401 38.1348 34.306 38.0332 34.1758C37.9342 34.043 37.7988 33.9336 37.627 33.8477C37.4551 33.7617 37.235 33.7187 36.9668 33.7187C36.5996 33.7187 36.2936 33.8034 36.0488 33.9727C35.8066 34.1393 35.6855 34.3516 35.6855 34.6094C35.6855 34.8385 35.7689 35.0195 35.9355 35.1523C36.1022 35.2852 36.3626 35.3958 36.7168 35.4844L37.6074 35.7031C38.1439 35.8333 38.5436 36.0326 38.8066 36.3008C39.0697 36.5664 39.2012 36.9089 39.2012 37.3281C39.2012 37.6719 39.1022 37.9792 38.9043 38.25C38.709 38.5208 38.4355 38.7344 38.084 38.8906C37.7324 39.0469 37.3236 39.125 36.8574 39.125C36.2454 39.125 35.7389 38.9922 35.3379 38.7266C34.9368 38.4609 34.6829 38.0729 34.5762 37.5625L35.4512 37.3437C35.5345 37.6667 35.6921 37.9089 35.9238 38.0703C36.1582 38.2318 36.4642 38.3125 36.8418 38.3125C37.2715 38.3125 37.6126 38.2214 37.8652 38.0391C38.1204 37.8542 38.248 37.6328 38.248 37.375C38.248 37.1667 38.1751 36.9922 38.0293 36.8516C37.8835 36.7083 37.6595 36.6016 37.3574 36.5312L36.3574 36.2969C35.8079 36.1667 35.4043 35.9648 35.1465 35.6914C34.8913 35.4154 34.7637 35.0703 34.7637 34.6562C34.7637 34.3177 34.8587 34.0182 35.0488 33.7578C35.2415 33.4974 35.5033 33.293 35.834 33.1445C36.1673 32.9961 36.5449 32.9219 36.9668 32.9219C37.5605 32.9219 38.0267 33.0521 38.3652 33.3125C38.7064 33.5729 38.9486 33.9167 39.0918 34.3437Z" fill="#234422"/>
</svg>
