<svg width="42" height="51" viewBox="0 0 42 51" fill="none" xmlns="http://www.w3.org/2000/svg">
<path d="M14.8962 20.4944H14.0193C12.8225 20.4533 11.6297 20.6467 10.5147 21.0629C9.39975 21.4791 8.38649 22.109 7.53782 22.9136L7.2959 23.1824V31.1312H11.4085V26.6192L11.9629 26.024L12.2149 25.7456C13.5273 24.4616 15.1611 23.5168 16.9626 23C16.0607 22.3464 15.3493 21.4839 14.8962 20.4944Z" fill="#60935D"/>
<path d="M34.3906 22.8848C33.5419 22.0802 32.5287 21.4502 31.4137 21.0341C30.2988 20.6179 29.1059 20.4244 27.9092 20.4656C27.5421 20.4666 27.1754 20.4859 26.8104 20.5232C26.3489 21.4515 25.6569 22.2587 24.7944 22.8752C26.7177 23.382 28.4599 24.3775 29.8344 25.7552L30.0864 26.024L30.6308 26.6192V31.1408H34.6023V23.1536L34.3906 22.8848Z" fill="#60935D"/>
<path d="M13.9886 18.6225H14.301C14.1559 17.4352 14.3746 16.2333 14.9309 15.1618C15.4871 14.0903 16.3572 13.195 17.4359 12.5841C17.0449 12.0152 16.5054 11.5527 15.8703 11.242C15.2352 10.9313 14.5263 10.783 13.8129 10.8116C13.0995 10.8402 12.4062 11.0448 11.8008 11.4053C11.1954 11.7658 10.6987 12.2699 10.3593 12.8681C10.0199 13.4664 9.84949 14.1383 9.86471 14.8182C9.87992 15.498 10.0803 16.1624 10.4461 16.7464C10.812 17.3303 11.3308 17.8138 11.9517 18.1494C12.5727 18.485 13.2746 18.6612 13.9886 18.6609V18.6225Z" fill="#60935D"/>
<path d="M27.4256 17.9025C27.4378 18.1231 27.4378 18.3442 27.4256 18.5649C27.619 18.5941 27.8144 18.6101 28.0102 18.6129H28.2017C28.9126 18.5768 29.6015 18.366 30.2014 18.001C30.8014 17.6361 31.2919 17.1294 31.6252 16.5303C31.9584 15.9313 32.1232 15.2602 32.1033 14.5825C32.0835 13.9048 31.8797 13.2436 31.5119 12.6631C31.144 12.0827 30.6246 11.6028 30.0043 11.2703C29.3839 10.9378 28.6837 10.7639 27.9718 10.7656C27.26 10.7673 26.5607 10.9446 25.9421 11.2801C25.3235 11.6155 24.8067 12.0979 24.4419 12.6801C25.3542 13.2474 26.1044 14.0215 26.6252 14.933C27.1459 15.8444 27.4209 16.8648 27.4256 17.9025Z" fill="#60935D"/>
<path d="M20.8129 22.2032C23.3014 22.2032 25.3186 20.282 25.3186 17.912C25.3186 15.5421 23.3014 13.6208 20.8129 13.6208C18.3244 13.6208 16.3071 15.5421 16.3071 17.912C16.3071 20.282 18.3244 22.2032 20.8129 22.2032Z" fill="#60935D"/>
<path d="M21.0546 24.4881C19.7382 24.4375 18.4247 24.641 17.193 25.0865C15.9614 25.5319 14.837 26.2101 13.8877 27.0801L13.6357 27.3489V33.4257C13.6397 33.6236 13.6845 33.8189 13.7677 34.0003C13.8509 34.1818 13.9708 34.3458 14.1206 34.4831C14.2703 34.6204 14.447 34.7282 14.6406 34.8005C14.8341 34.8727 15.0407 34.9079 15.2485 34.9041H26.8305C27.0383 34.9079 27.2449 34.8727 27.4384 34.8005C27.632 34.7282 27.8087 34.6204 27.9584 34.4831C28.1082 34.3458 28.2281 34.1818 28.3113 34.0003C28.3945 33.8189 28.4393 33.6236 28.4433 33.4257V27.3681L28.2013 27.0801C27.2582 26.2074 26.1378 25.5273 24.9089 25.0816C23.68 24.6359 22.3684 24.4339 21.0546 24.4881Z" fill="#60935D"/>
<path d="M8.69238 42.5C8.60645 42.237 8.49316 42.0013 8.35254 41.793C8.21452 41.582 8.04915 41.4023 7.85645 41.2539C7.66634 41.1055 7.4502 40.9922 7.20801 40.9141C6.96582 40.8359 6.7002 40.7969 6.41113 40.7969C5.93717 40.7969 5.50619 40.9193 5.11816 41.1641C4.73014 41.4089 4.42155 41.7695 4.19238 42.2461C3.96322 42.7227 3.84863 43.3073 3.84863 44C3.84863 44.6927 3.96452 45.2773 4.19629 45.7539C4.42806 46.2305 4.74186 46.5911 5.1377 46.8359C5.53353 47.0807 5.97884 47.2031 6.47363 47.2031C6.93197 47.2031 7.33561 47.1055 7.68457 46.9102C8.03613 46.7122 8.30957 46.4336 8.50488 46.0742C8.7028 45.7122 8.80176 45.2865 8.80176 44.7969L9.09863 44.8594H6.69238V44H9.73926V44.8594C9.73926 45.5182 9.59863 46.0911 9.31738 46.5781C9.03874 47.0651 8.65332 47.4427 8.16113 47.7109C7.67155 47.9766 7.10905 48.1094 6.47363 48.1094C5.7653 48.1094 5.1429 47.9427 4.60645 47.6094C4.07259 47.276 3.65592 46.8021 3.35645 46.1875C3.05957 45.5729 2.91113 44.8437 2.91113 44C2.91113 43.3672 2.99577 42.7982 3.16504 42.293C3.33691 41.7852 3.5791 41.3529 3.8916 40.9961C4.2041 40.6393 4.57389 40.3659 5.00098 40.1758C5.42806 39.9857 5.89811 39.8906 6.41113 39.8906C6.83301 39.8906 7.22624 39.9544 7.59082 40.082C7.95801 40.207 8.28483 40.3854 8.57129 40.6172C8.86035 40.8464 9.10124 41.1211 9.29395 41.4414C9.48665 41.7591 9.61947 42.112 9.69238 42.5H8.69238ZM11.2734 48V42H12.1641V42.9062H12.2266C12.3359 42.6094 12.5339 42.3685 12.8203 42.1836C13.1068 41.9987 13.4297 41.9062 13.7891 41.9062C13.8568 41.9062 13.9414 41.9076 14.043 41.9102C14.1445 41.9128 14.2214 41.9167 14.2734 41.9219V42.8594C14.2422 42.8516 14.1706 42.8398 14.0586 42.8242C13.9492 42.806 13.8333 42.7969 13.7109 42.7969C13.4193 42.7969 13.1589 42.8581 12.9297 42.9805C12.7031 43.1003 12.5234 43.2669 12.3906 43.4805C12.2604 43.6914 12.1953 43.9323 12.1953 44.2031V48H11.2734ZM17.6211 48.125C17.0794 48.125 16.6042 47.9961 16.1953 47.7383C15.7891 47.4805 15.4714 47.1198 15.2422 46.6562C15.0156 46.1927 14.9023 45.651 14.9023 45.0312C14.9023 44.4062 15.0156 43.8607 15.2422 43.3945C15.4714 42.9284 15.7891 42.5664 16.1953 42.3086C16.6042 42.0508 17.0794 41.9219 17.6211 41.9219C18.1628 41.9219 18.6367 42.0508 19.043 42.3086C19.4518 42.5664 19.7695 42.9284 19.9961 43.3945C20.2253 43.8607 20.3398 44.4062 20.3398 45.0312C20.3398 45.651 20.2253 46.1927 19.9961 46.6562C19.7695 47.1198 19.4518 47.4805 19.043 47.7383C18.6367 47.9961 18.1628 48.125 17.6211 48.125ZM17.6211 47.2969C18.0326 47.2969 18.3711 47.1914 18.6367 46.9805C18.9023 46.7695 19.099 46.4922 19.2266 46.1484C19.3542 45.8047 19.418 45.4323 19.418 45.0312C19.418 44.6302 19.3542 44.2565 19.2266 43.9102C19.099 43.5638 18.9023 43.2839 18.6367 43.0703C18.3711 42.8568 18.0326 42.75 17.6211 42.75C17.2096 42.75 16.8711 42.8568 16.6055 43.0703C16.3398 43.2839 16.1432 43.5638 16.0156 43.9102C15.888 44.2565 15.8242 44.6302 15.8242 45.0312C15.8242 45.4323 15.888 45.8047 16.0156 46.1484C16.1432 46.4922 16.3398 46.7695 16.6055 46.9805C16.8711 47.1914 17.2096 47.2969 17.6211 47.2969ZM25.5283 45.5469V42H26.4502V48H25.5283V46.9844H25.4658C25.3252 47.2891 25.1064 47.5482 24.8096 47.7617C24.5127 47.9727 24.1377 48.0781 23.6846 48.0781C23.3096 48.0781 22.9762 47.9961 22.6846 47.832C22.3929 47.6654 22.1637 47.4154 21.9971 47.082C21.8304 46.7461 21.7471 46.3229 21.7471 45.8125V42H22.6689V45.75C22.6689 46.1875 22.7913 46.5365 23.0361 46.7969C23.2835 47.0573 23.5986 47.1875 23.9814 47.1875C24.2106 47.1875 24.4437 47.1289 24.6807 47.0117C24.9202 46.8945 25.1208 46.7148 25.2822 46.4727C25.4463 46.2305 25.5283 45.9219 25.5283 45.5469ZM28.1387 50.25V42H29.0293V42.9531H29.1387C29.2064 42.849 29.3001 42.7161 29.4199 42.5547C29.5423 42.3906 29.7168 42.2448 29.9434 42.1172C30.1725 41.987 30.4824 41.9219 30.873 41.9219C31.3783 41.9219 31.8236 42.0482 32.209 42.3008C32.5944 42.5534 32.8952 42.9115 33.1113 43.375C33.3275 43.8385 33.4355 44.3854 33.4355 45.0156C33.4355 45.651 33.3275 46.2018 33.1113 46.668C32.8952 47.1315 32.5957 47.4909 32.2129 47.7461C31.8301 47.9987 31.3887 48.125 30.8887 48.125C30.5033 48.125 30.1947 48.0612 29.9629 47.9336C29.7311 47.8034 29.5527 47.6562 29.4277 47.4922C29.3027 47.3255 29.2064 47.1875 29.1387 47.0781H29.0605V50.25H28.1387ZM29.0449 45C29.0449 45.4531 29.1113 45.8529 29.2441 46.1992C29.377 46.543 29.571 46.8125 29.8262 47.0078C30.0814 47.2005 30.3939 47.2969 30.7637 47.2969C31.1491 47.2969 31.4707 47.1953 31.7285 46.9922C31.9889 46.7865 32.1842 46.5104 32.3145 46.1641C32.4473 45.8151 32.5137 45.4271 32.5137 45C32.5137 44.5781 32.4486 44.1979 32.3184 43.8594C32.1908 43.5182 31.9967 43.2487 31.7363 43.0508C31.4785 42.8503 31.1543 42.75 30.7637 42.75C30.3887 42.75 30.0736 42.8451 29.8184 43.0352C29.5632 43.2227 29.3704 43.4857 29.2402 43.8242C29.11 44.1602 29.0449 44.5521 29.0449 45ZM39.0918 43.3437L38.2637 43.5781C38.2116 43.4401 38.1348 43.306 38.0332 43.1758C37.9342 43.043 37.7988 42.9336 37.627 42.8477C37.4551 42.7617 37.235 42.7187 36.9668 42.7187C36.5996 42.7187 36.2936 42.8034 36.0488 42.9727C35.8066 43.1393 35.6855 43.3516 35.6855 43.6094C35.6855 43.8385 35.7689 44.0195 35.9355 44.1523C36.1022 44.2852 36.3626 44.3958 36.7168 44.4844L37.6074 44.7031C38.1439 44.8333 38.5436 45.0326 38.8066 45.3008C39.0697 45.5664 39.2012 45.9089 39.2012 46.3281C39.2012 46.6719 39.1022 46.9792 38.9043 47.25C38.709 47.5208 38.4355 47.7344 38.084 47.8906C37.7324 48.0469 37.3236 48.125 36.8574 48.125C36.2454 48.125 35.7389 47.9922 35.3379 47.7266C34.9368 47.4609 34.6829 47.0729 34.5762 46.5625L35.4512 46.3437C35.5345 46.6667 35.6921 46.9089 35.9238 47.0703C36.1582 47.2318 36.4642 47.3125 36.8418 47.3125C37.2715 47.3125 37.6126 47.2214 37.8652 47.0391C38.1204 46.8542 38.248 46.6328 38.248 46.375C38.248 46.1667 38.1751 45.9922 38.0293 45.8516C37.8835 45.7083 37.6595 45.6016 37.3574 45.5312L36.3574 45.2969C35.8079 45.1667 35.4043 44.9648 35.1465 44.6914C34.8913 44.4154 34.7637 44.0703 34.7637 43.6562C34.7637 43.3177 34.8587 43.0182 35.0488 42.7578C35.2415 42.4974 35.5033 42.293 35.834 42.1445C36.1673 41.9961 36.5449 41.9219 36.9668 41.9219C37.5605 41.9219 38.0267 42.0521 38.3652 42.3125C38.7064 42.5729 38.9486 42.9167 39.0918 43.3437Z" fill="#234422"/>
<circle cx="21" cy="3" r="3" fill="#60935D"/>
</svg>
