<svg width="41" height="50" viewBox="0 0 41 50" fill="none" xmlns="http://www.w3.org/2000/svg">
<circle cx="18" cy="3" r="3" fill="#60935D"/>
<path d="M26.1938 21.1943C26.1938 25.4089 22.7158 28.8887 18.3469 28.8887C13.978 28.8887 10.5 25.4089 10.5 21.1943C10.5 16.9798 13.978 13.5 18.3469 13.5C22.7158 13.5 26.1938 16.9798 26.1938 21.1943Z" stroke="#60935D" stroke-width="5"/>
<line y1="-2.5" x2="10.9556" y2="-2.5" transform="matrix(0.712339 0.701835 -0.712339 0.701835 21.7959 27.311)" stroke="#60935D" stroke-width="5"/>
<path d="M7.75928 42C7.7124 41.6042 7.5223 41.2969 7.18896 41.0781C6.85563 40.8594 6.44678 40.75 5.9624 40.75C5.60824 40.75 5.29834 40.8073 5.03271 40.9219C4.76969 41.0365 4.56396 41.194 4.41553 41.3945C4.26969 41.5951 4.19678 41.8229 4.19678 42.0781C4.19678 42.2917 4.24756 42.4753 4.34912 42.6289C4.45329 42.7799 4.5861 42.9062 4.74756 43.0078C4.90902 43.1068 5.07829 43.1888 5.25537 43.2539C5.43245 43.3164 5.59521 43.3672 5.74365 43.4062L6.55615 43.625C6.76449 43.6797 6.99626 43.7552 7.25146 43.8516C7.50928 43.9479 7.75537 44.0794 7.98975 44.2461C8.22673 44.4102 8.42204 44.6211 8.57568 44.8789C8.72933 45.1367 8.80615 45.4531 8.80615 45.8281C8.80615 46.2604 8.69287 46.651 8.46631 47C8.24235 47.349 7.91423 47.6263 7.48193 47.832C7.05225 48.0378 6.53011 48.1406 5.91553 48.1406C5.34261 48.1406 4.84652 48.0482 4.42725 47.8633C4.01058 47.6784 3.68245 47.4206 3.44287 47.0898C3.20589 46.7591 3.07178 46.375 3.04053 45.9375H4.04053C4.06657 46.2396 4.16813 46.4896 4.34521 46.6875C4.5249 46.8828 4.75146 47.0286 5.0249 47.125C5.30094 47.2187 5.59782 47.2656 5.91553 47.2656C6.28532 47.2656 6.61735 47.2057 6.91162 47.0859C7.20589 46.9635 7.43897 46.7943 7.61084 46.5781C7.78272 46.3594 7.86865 46.1042 7.86865 45.8125C7.86865 45.5469 7.79443 45.3307 7.646 45.1641C7.49756 44.9974 7.30225 44.862 7.06006 44.7578C6.81787 44.6536 6.55615 44.5625 6.2749 44.4844L5.29053 44.2031C4.66553 44.0234 4.17074 43.7669 3.80615 43.4336C3.44157 43.1003 3.25928 42.6641 3.25928 42.125C3.25928 41.6771 3.38037 41.2865 3.62256 40.9531C3.86735 40.6172 4.19548 40.3568 4.60693 40.1719C5.021 39.9844 5.48324 39.8906 5.99365 39.8906C6.50928 39.8906 6.96761 39.9831 7.36865 40.168C7.76969 40.3503 8.0874 40.6003 8.32178 40.918C8.55876 41.2357 8.68376 41.5964 8.69678 42H7.75928ZM12.7896 48.125C12.2114 48.125 11.7127 47.9974 11.2935 47.7422C10.8768 47.4844 10.5552 47.125 10.3286 46.6641C10.1047 46.2005 9.99268 45.6615 9.99268 45.0469C9.99268 44.4323 10.1047 43.8906 10.3286 43.4219C10.5552 42.9505 10.8703 42.5833 11.2739 42.3203C11.6802 42.0547 12.1541 41.9219 12.6958 41.9219C13.0083 41.9219 13.3169 41.974 13.6216 42.0781C13.9263 42.1823 14.2036 42.3516 14.4536 42.5859C14.7036 42.8177 14.9028 43.125 15.0513 43.5078C15.1997 43.8906 15.2739 44.362 15.2739 44.9219V45.3125H10.6489V44.5156H14.3364C14.3364 44.1771 14.2687 43.875 14.1333 43.6094C14.0005 43.3437 13.8104 43.1341 13.563 42.9805C13.3182 42.8268 13.0291 42.75 12.6958 42.75C12.3286 42.75 12.0109 42.8411 11.7427 43.0234C11.4771 43.2031 11.2726 43.4375 11.1294 43.7266C10.9862 44.0156 10.9146 44.3255 10.9146 44.6562V45.1875C10.9146 45.6406 10.9927 46.0247 11.1489 46.3398C11.3078 46.6523 11.5278 46.8906 11.8091 47.0547C12.0903 47.2161 12.4172 47.2969 12.7896 47.2969C13.0317 47.2969 13.2505 47.263 13.4458 47.1953C13.6437 47.125 13.8143 47.0208 13.9575 46.8828C14.1007 46.7422 14.2114 46.5677 14.2896 46.3594L15.1802 46.6094C15.0864 46.9115 14.9289 47.1771 14.7075 47.4062C14.4862 47.6328 14.2127 47.8099 13.8872 47.9375C13.5617 48.0625 13.1958 48.125 12.7896 48.125ZM18.4419 48.1406C18.0617 48.1406 17.7166 48.069 17.4067 47.9258C17.0968 47.7799 16.8507 47.5703 16.6685 47.2969C16.4862 47.0208 16.395 46.6875 16.395 46.2969C16.395 45.9531 16.4627 45.6745 16.5981 45.4609C16.7336 45.2448 16.9146 45.0755 17.1411 44.9531C17.3677 44.8307 17.6177 44.7396 17.8911 44.6797C18.1672 44.6172 18.4445 44.5677 18.7231 44.5313C19.0877 44.4844 19.3833 44.4492 19.6099 44.4258C19.839 44.3997 20.0057 44.3568 20.1099 44.2969C20.2166 44.237 20.27 44.1328 20.27 43.9844V43.9531C20.27 43.5677 20.1646 43.2682 19.9536 43.0547C19.7453 42.8411 19.4289 42.7344 19.0044 42.7344C18.5643 42.7344 18.2192 42.8307 17.9692 43.0234C17.7192 43.2161 17.5435 43.4219 17.4419 43.6406L16.5669 43.3281C16.7231 42.9635 16.9315 42.6797 17.1919 42.4766C17.4549 42.2708 17.7414 42.1276 18.0513 42.0469C18.3638 41.9635 18.6711 41.9219 18.9731 41.9219C19.1659 41.9219 19.3872 41.9453 19.6372 41.9922C19.8898 42.0365 20.1333 42.1289 20.3677 42.2695C20.6047 42.4102 20.8013 42.6224 20.9575 42.9062C21.1138 43.1901 21.1919 43.5703 21.1919 44.0469V48H20.27V47.1875H20.2231C20.1606 47.3177 20.0565 47.457 19.9106 47.6055C19.7648 47.7539 19.5708 47.8802 19.3286 47.9844C19.0864 48.0885 18.7909 48.1406 18.4419 48.1406ZM18.5825 47.3125C18.9471 47.3125 19.2544 47.2409 19.5044 47.0977C19.757 46.9544 19.9471 46.7695 20.0747 46.543C20.2049 46.3164 20.27 46.0781 20.27 45.8281V44.9844C20.231 45.0312 20.145 45.0742 20.0122 45.1133C19.882 45.1497 19.731 45.1823 19.5591 45.2109C19.3898 45.237 19.2244 45.2604 19.063 45.2812C18.9041 45.2995 18.7752 45.3151 18.6763 45.3281C18.4367 45.3594 18.2127 45.4102 18.0044 45.4805C17.7987 45.5482 17.632 45.651 17.5044 45.7891C17.3794 45.9245 17.3169 46.1094 17.3169 46.3437C17.3169 46.6641 17.4354 46.9062 17.6724 47.0703C17.9119 47.2318 18.2153 47.3125 18.5825 47.3125ZM22.8745 48V42H23.7651V42.9062H23.8276C23.937 42.6094 24.1349 42.3685 24.4214 42.1836C24.7078 41.9987 25.0308 41.9062 25.3901 41.9062C25.4578 41.9062 25.5425 41.9076 25.644 41.9102C25.7456 41.9128 25.8224 41.9167 25.8745 41.9219V42.8594C25.8433 42.8516 25.7716 42.8398 25.6597 42.8242C25.5503 42.806 25.4344 42.7969 25.312 42.7969C25.0203 42.7969 24.7599 42.8581 24.5308 42.9805C24.3042 43.1003 24.1245 43.2669 23.9917 43.4805C23.8615 43.6914 23.7964 43.9323 23.7964 44.2031V48H22.8745ZM29.2222 48.125C28.6597 48.125 28.1753 47.9922 27.769 47.7266C27.3628 47.4609 27.0503 47.0951 26.8315 46.6289C26.6128 46.1628 26.5034 45.6302 26.5034 45.0312C26.5034 44.4219 26.6154 43.8841 26.8394 43.418C27.0659 42.9492 27.381 42.5833 27.7847 42.3203C28.1909 42.0547 28.6649 41.9219 29.2065 41.9219C29.6284 41.9219 30.0086 42 30.3472 42.1562C30.6857 42.3125 30.9631 42.5312 31.1792 42.8125C31.3953 43.0937 31.5295 43.4219 31.5815 43.7969H30.6597C30.5894 43.5234 30.4331 43.2812 30.1909 43.0703C29.9513 42.8568 29.6284 42.75 29.2222 42.75C28.8628 42.75 28.5477 42.8437 28.2769 43.0312C28.0086 43.2161 27.799 43.4779 27.6479 43.8164C27.4995 44.1523 27.4253 44.5469 27.4253 45C27.4253 45.4635 27.4982 45.8672 27.644 46.2109C27.7925 46.5547 28.0008 46.8216 28.269 47.0117C28.5399 47.2018 28.8576 47.2969 29.2222 47.2969C29.4618 47.2969 29.6792 47.2552 29.8745 47.1719C30.0698 47.0885 30.2352 46.9688 30.3706 46.8125C30.506 46.6562 30.6024 46.4687 30.6597 46.25H31.5815C31.5295 46.6042 31.4006 46.9232 31.1948 47.207C30.9917 47.4883 30.7222 47.7122 30.3862 47.8789C30.0529 48.043 29.6649 48.125 29.2222 48.125ZM33.8511 44.3906V48H32.9292V40H33.8511V42.9375H33.9292C34.0698 42.6276 34.2808 42.3815 34.562 42.1992C34.8459 42.0143 35.2235 41.9219 35.6948 41.9219C36.1037 41.9219 36.4618 42.0039 36.769 42.168C37.0763 42.3294 37.3146 42.5781 37.4839 42.9141C37.6558 43.2474 37.7417 43.6719 37.7417 44.1875V48H36.8198V44.25C36.8198 43.7734 36.6961 43.4049 36.4487 43.1445C36.2039 42.8815 35.8641 42.75 35.4292 42.75C35.1271 42.75 34.8563 42.8138 34.6167 42.9414C34.3797 43.069 34.1922 43.2552 34.0542 43.5C33.9188 43.7448 33.8511 44.0417 33.8511 44.3906Z" fill="#234422"/>
</svg>
