<svg width="80" height="51" viewBox="0 0 80 51" fill="none" xmlns="http://www.w3.org/2000/svg">
<path d="M42.4 26.6C42.74 26.6 43.0352 26.4752 43.2856 26.2256C43.536 25.976 43.6608 25.6808 43.66 25.34C43.66 25 43.5352 24.7052 43.2856 24.4556C43.036 24.206 42.7408 24.0808 42.4 24.08C42.06 24.08 41.7652 24.2052 41.5156 24.4556C41.266 24.706 41.1408 25.0008 41.14 25.34C41.14 25.68 41.2652 25.9752 41.5156 26.2256C41.766 26.476 42.0608 26.6008 42.4 26.6ZM42.4 22.76C42.62 22.76 42.8252 22.68 43.0156 22.52C43.206 22.36 43.3208 22.15 43.36 21.89C43.4 21.65 43.4848 21.43 43.6144 21.23C43.744 21.03 43.9792 20.76 44.32 20.42C44.92 19.82 45.32 19.3348 45.52 18.9644C45.72 18.594 45.82 18.1592 45.82 17.66C45.82 16.76 45.5048 16.0248 44.8744 15.4544C44.244 14.884 43.4192 14.5992 42.4 14.6C41.74 14.6 41.14 14.75 40.6 15.05C40.06 15.35 39.63 15.78 39.31 16.34C39.19 16.54 39.18 16.75 39.28 16.97C39.38 17.19 39.55 17.35 39.79 17.45C40.01 17.55 40.2252 17.56 40.4356 17.48C40.646 17.4 40.8208 17.26 40.96 17.06C41.14 16.8 41.35 16.6052 41.59 16.4756C41.83 16.346 42.1 16.2808 42.4 16.28C42.88 16.28 43.27 16.4152 43.57 16.6856C43.87 16.956 44.02 17.3208 44.02 17.78C44.02 18.06 43.94 18.3252 43.78 18.5756C43.62 18.826 43.34 19.1408 42.94 19.52C42.36 20.02 41.99 20.4052 41.83 20.6756C41.67 20.946 41.57 21.3408 41.53 21.86C41.51 22.1 41.5852 22.31 41.7556 22.49C41.926 22.67 42.1408 22.76 42.4 22.76ZM35.2 30.2C34.54 30.2 33.9752 29.9652 33.5056 29.4956C33.036 29.026 32.8008 28.4608 32.8 27.8V13.4C32.8 12.74 33.0352 12.1752 33.5056 11.7056C33.976 11.236 34.5408 11.0008 35.2 11H49.6C50.26 11 50.8252 11.2352 51.2956 11.7056C51.766 12.176 52.0008 12.7408 52 13.4V27.8C52 28.46 51.7652 29.0252 51.2956 29.4956C50.826 29.966 50.2608 30.2008 49.6 30.2H35.2ZM30.4 35C29.74 35 29.1752 34.7652 28.7056 34.2956C28.236 33.826 28.0008 33.2608 28 32.6V17C28 16.66 28.1152 16.3752 28.3456 16.1456C28.576 15.916 28.8608 15.8008 29.2 15.8C29.54 15.8 29.8252 15.9152 30.0556 16.1456C30.286 16.376 30.4008 16.6608 30.4 17V32.6H46C46.34 32.6 46.6252 32.7152 46.8556 32.9456C47.086 33.176 47.2008 33.4608 47.2 33.8C47.2 34.14 47.0848 34.4252 46.8544 34.6556C46.624 34.886 46.3392 35.0008 46 35H30.4Z" fill="#60935D"/>
<path d="M5.64063 42C5.59375 41.6042 5.40365 41.2969 5.07031 41.0781C4.73698 40.8594 4.32813 40.75 3.84375 40.75C3.48958 40.75 3.17969 40.8073 2.91406 40.9219C2.65104 41.0365 2.44531 41.194 2.29688 41.3945C2.15104 41.5951 2.07813 41.8229 2.07813 42.0781C2.07813 42.2917 2.12891 42.4753 2.23047 42.6289C2.33464 42.7799 2.46745 42.9062 2.62891 43.0078C2.79036 43.1068 2.95964 43.1888 3.13672 43.2539C3.3138 43.3164 3.47656 43.3672 3.625 43.4062L4.4375 43.625C4.64583 43.6797 4.8776 43.7552 5.13281 43.8516C5.39063 43.9479 5.63672 44.0794 5.87109 44.2461C6.10807 44.4102 6.30339 44.6211 6.45703 44.8789C6.61068 45.1367 6.6875 45.4531 6.6875 45.8281C6.6875 46.2604 6.57422 46.651 6.34766 47C6.1237 47.349 5.79557 47.6263 5.36328 47.832C4.93359 48.0378 4.41146 48.1406 3.79687 48.1406C3.22396 48.1406 2.72786 48.0482 2.30859 47.8633C1.89193 47.6784 1.5638 47.4206 1.32422 47.0898C1.08724 46.7591 0.953125 46.375 0.921875 45.9375H1.92188C1.94792 46.2396 2.04948 46.4896 2.22656 46.6875C2.40625 46.8828 2.63281 47.0286 2.90625 47.125C3.18229 47.2187 3.47917 47.2656 3.79687 47.2656C4.16667 47.2656 4.4987 47.2057 4.79297 47.0859C5.08724 46.9635 5.32031 46.7943 5.49219 46.5781C5.66406 46.3594 5.75 46.1042 5.75 45.8125C5.75 45.5469 5.67578 45.3307 5.52734 45.1641C5.37891 44.9974 5.18359 44.862 4.94141 44.7578C4.69922 44.6536 4.4375 44.5625 4.15625 44.4844L3.17188 44.2031C2.54688 44.0234 2.05208 43.7669 1.6875 43.4336C1.32292 43.1003 1.14063 42.6641 1.14063 42.125C1.14063 41.6771 1.26172 41.2865 1.50391 40.9531C1.7487 40.6172 2.07682 40.3568 2.48828 40.1719C2.90234 39.9844 3.36458 39.8906 3.875 39.8906C4.39063 39.8906 4.84896 39.9831 5.25 40.168C5.65104 40.3503 5.96875 40.6003 6.20312 40.918C6.4401 41.2357 6.5651 41.5964 6.57813 42H5.64063ZM10.7646 42V42.7812H7.65527V42H10.7646ZM8.56152 40.5625H9.4834V46.2812C9.4834 46.5417 9.52116 46.737 9.59668 46.8672C9.6748 46.9948 9.77376 47.0807 9.89355 47.125C10.016 47.1667 10.1449 47.1875 10.2803 47.1875C10.3818 47.1875 10.4652 47.1823 10.5303 47.1719C10.5954 47.1589 10.6475 47.1484 10.6865 47.1406L10.874 47.9687C10.8115 47.9922 10.7243 48.0156 10.6123 48.0391C10.5003 48.0651 10.3584 48.0781 10.1865 48.0781C9.92611 48.0781 9.6709 48.0221 9.4209 47.9102C9.1735 47.7982 8.96777 47.6276 8.80371 47.3984C8.64225 47.1693 8.56152 46.8802 8.56152 46.5312V40.5625ZM15.9326 45.5469V42H16.8545V48H15.9326V46.9844H15.8701C15.7295 47.2891 15.5107 47.5482 15.2139 47.7617C14.917 47.9727 14.542 48.0781 14.0889 48.0781C13.7139 48.0781 13.3805 47.9961 13.0889 47.832C12.7972 47.6654 12.568 47.4154 12.4014 47.082C12.2347 46.7461 12.1514 46.3229 12.1514 45.8125V42H13.0732V45.75C13.0732 46.1875 13.1956 46.5365 13.4404 46.7969C13.6878 47.0573 14.0029 47.1875 14.3857 47.1875C14.6149 47.1875 14.848 47.1289 15.085 47.0117C15.3245 46.8945 15.5251 46.7148 15.6865 46.4727C15.8506 46.2305 15.9326 45.9219 15.9326 45.5469ZM20.8086 48.125C20.3086 48.125 19.8672 47.9987 19.4844 47.7461C19.1016 47.4909 18.8021 47.1315 18.5859 46.668C18.3698 46.2018 18.2617 45.651 18.2617 45.0156C18.2617 44.3854 18.3698 43.8385 18.5859 43.375C18.8021 42.9115 19.1029 42.5534 19.4883 42.3008C19.8737 42.0482 20.319 41.9219 20.8242 41.9219C21.2148 41.9219 21.5234 41.987 21.75 42.1172C21.9792 42.2448 22.1536 42.3906 22.2734 42.5547C22.3958 42.7161 22.4909 42.849 22.5586 42.9531H22.6367V40H23.5586V48H22.668V47.0781H22.5586C22.4909 47.1875 22.3945 47.3255 22.2695 47.4922C22.1445 47.6562 21.9661 47.8034 21.7344 47.9336C21.5026 48.0612 21.194 48.125 20.8086 48.125ZM20.9336 47.2969C21.3034 47.2969 21.6159 47.2005 21.8711 47.0078C22.1263 46.8125 22.3203 46.543 22.4531 46.1992C22.5859 45.8529 22.6523 45.4531 22.6523 45C22.6523 44.5521 22.5872 44.1602 22.457 43.8242C22.3268 43.4857 22.1341 43.2227 21.8789 43.0352C21.6237 42.8451 21.3086 42.75 20.9336 42.75C20.543 42.75 20.2174 42.8503 19.957 43.0508C19.6992 43.2487 19.5052 43.5182 19.375 43.8594C19.2474 44.1979 19.1836 44.5781 19.1836 45C19.1836 45.4271 19.2487 45.8151 19.3789 46.1641C19.5117 46.5104 19.707 46.7865 19.9648 46.9922C20.2253 47.1953 20.5482 47.2969 20.9336 47.2969ZM25.9688 50.25C25.8125 50.25 25.6732 50.237 25.5508 50.2109C25.4284 50.1875 25.3438 50.1641 25.2969 50.1406L25.5313 49.3281C25.7552 49.3854 25.9531 49.4063 26.125 49.3906C26.2969 49.375 26.4492 49.2982 26.582 49.1602C26.7174 49.0247 26.8411 48.8047 26.9531 48.5L27.125 48.0313L24.9063 42H25.9062L27.5625 46.7812H27.625L29.2813 42H30.2813L27.7344 48.875C27.6198 49.1849 27.4779 49.4414 27.3086 49.6445C27.1393 49.8503 26.9427 50.0026 26.7188 50.1016C26.4974 50.2005 26.2474 50.25 25.9688 50.25ZM34.7168 40H35.873L38.5918 46.6406H38.6855L41.4043 40H42.5605V48H41.6543V41.9219H41.5762L39.0762 48H38.2012L35.7012 41.9219H35.623V48H34.7168V40ZM46.8936 48.125C46.3154 48.125 45.8167 47.9974 45.3975 47.7422C44.9808 47.4844 44.6592 47.125 44.4326 46.6641C44.2087 46.2005 44.0967 45.6615 44.0967 45.0469C44.0967 44.4323 44.2087 43.8906 44.4326 43.4219C44.6592 42.9505 44.9743 42.5833 45.3779 42.3203C45.7842 42.0547 46.2581 41.9219 46.7998 41.9219C47.1123 41.9219 47.4209 41.974 47.7256 42.0781C48.0303 42.1823 48.3076 42.3516 48.5576 42.5859C48.8076 42.8177 49.0068 43.125 49.1553 43.5078C49.3037 43.8906 49.3779 44.362 49.3779 44.9219V45.3125H44.7529V44.5156H48.4404C48.4404 44.1771 48.3727 43.875 48.2373 43.6094C48.1045 43.3437 47.9144 43.1341 47.667 42.9805C47.4222 42.8268 47.1331 42.75 46.7998 42.75C46.4326 42.75 46.1149 42.8411 45.8467 43.0234C45.5811 43.2031 45.3766 43.4375 45.2334 43.7266C45.0902 44.0156 45.0186 44.3255 45.0186 44.6562V45.1875C45.0186 45.6406 45.0967 46.0247 45.2529 46.3398C45.4118 46.6523 45.6318 46.8906 45.9131 47.0547C46.1943 47.2161 46.5212 47.2969 46.8936 47.2969C47.1357 47.2969 47.3545 47.263 47.5498 47.1953C47.7477 47.125 47.9183 47.0208 48.0615 46.8828C48.2048 46.7422 48.3154 46.5677 48.3936 46.3594L49.2842 46.6094C49.1904 46.9115 49.0329 47.1771 48.8115 47.4062C48.5902 47.6328 48.3167 47.8099 47.9912 47.9375C47.6657 48.0625 47.2998 48.125 46.8936 48.125ZM53.3896 42V42.7812H50.2803V42H53.3896ZM51.1865 40.5625H52.1084V46.2812C52.1084 46.5417 52.1462 46.737 52.2217 46.8672C52.2998 46.9948 52.3988 47.0807 52.5186 47.125C52.641 47.1667 52.7699 47.1875 52.9053 47.1875C53.0068 47.1875 53.0902 47.1823 53.1553 47.1719C53.2204 47.1589 53.2725 47.1484 53.3115 47.1406L53.499 47.9687C53.4365 47.9922 53.3493 48.0156 53.2373 48.0391C53.1253 48.0651 52.9834 48.0781 52.8115 48.0781C52.5511 48.0781 52.2959 48.0221 52.0459 47.9102C51.7985 47.7982 51.5928 47.6276 51.4287 47.3984C51.2673 47.1693 51.1865 46.8802 51.1865 46.5312V40.5625ZM55.8271 44.3906V48H54.9053V40H55.8271V42.9375H55.9053C56.0459 42.6276 56.2568 42.3815 56.5381 42.1992C56.8219 42.0143 57.1995 41.9219 57.6709 41.9219C58.0798 41.9219 58.4378 42.0039 58.7451 42.168C59.0524 42.3294 59.2907 42.5781 59.46 42.9141C59.6318 43.2474 59.7178 43.6719 59.7178 44.1875V48H58.7959V44.25C58.7959 43.7734 58.6722 43.4049 58.4248 43.1445C58.18 42.8815 57.8402 42.75 57.4053 42.75C57.1032 42.75 56.8324 42.8138 56.5928 42.9414C56.3558 43.069 56.1683 43.2552 56.0303 43.5C55.8949 43.7448 55.8271 44.0417 55.8271 44.3906ZM63.8418 48.125C63.3001 48.125 62.8249 47.9961 62.416 47.7383C62.0098 47.4805 61.6921 47.1198 61.4629 46.6562C61.2363 46.1927 61.123 45.651 61.123 45.0312C61.123 44.4062 61.2363 43.8607 61.4629 43.3945C61.6921 42.9284 62.0098 42.5664 62.416 42.3086C62.8249 42.0508 63.3001 41.9219 63.8418 41.9219C64.3835 41.9219 64.8574 42.0508 65.2637 42.3086C65.6725 42.5664 65.9902 42.9284 66.2168 43.3945C66.446 43.8607 66.5605 44.4062 66.5605 45.0312C66.5605 45.651 66.446 46.1927 66.2168 46.6562C65.9902 47.1198 65.6725 47.4805 65.2637 47.7383C64.8574 47.9961 64.3835 48.125 63.8418 48.125ZM63.8418 47.2969C64.2533 47.2969 64.5918 47.1914 64.8574 46.9805C65.123 46.7695 65.3197 46.4922 65.4473 46.1484C65.5749 45.8047 65.6387 45.4323 65.6387 45.0312C65.6387 44.6302 65.5749 44.2565 65.4473 43.9102C65.3197 43.5638 65.123 43.2839 64.8574 43.0703C64.5918 42.8568 64.2533 42.75 63.8418 42.75C63.4303 42.75 63.0918 42.8568 62.8262 43.0703C62.5605 43.2839 62.3639 43.5638 62.2363 43.9102C62.1087 44.2565 62.0449 44.6302 62.0449 45.0312C62.0449 45.4323 62.1087 45.8047 62.2363 46.1484C62.3639 46.4922 62.5605 46.7695 62.8262 46.9805C63.0918 47.1914 63.4303 47.2969 63.8418 47.2969ZM70.2334 48.125C69.7334 48.125 69.292 47.9987 68.9092 47.7461C68.5264 47.4909 68.2269 47.1315 68.0107 46.668C67.7946 46.2018 67.6865 45.651 67.6865 45.0156C67.6865 44.3854 67.7946 43.8385 68.0107 43.375C68.2269 42.9115 68.5277 42.5534 68.9131 42.3008C69.2985 42.0482 69.7438 41.9219 70.249 41.9219C70.6396 41.9219 70.9482 41.987 71.1748 42.1172C71.404 42.2448 71.5785 42.3906 71.6982 42.5547C71.8206 42.7161 71.9157 42.849 71.9834 42.9531H72.0615V40H72.9834V48H72.0928V47.0781H71.9834C71.9157 47.1875 71.8193 47.3255 71.6943 47.4922C71.5693 47.6562 71.391 47.8034 71.1592 47.9336C70.9274 48.0612 70.6188 48.125 70.2334 48.125ZM70.3584 47.2969C70.7282 47.2969 71.0407 47.2005 71.2959 47.0078C71.5511 46.8125 71.7451 46.543 71.8779 46.1992C72.0107 45.8529 72.0771 45.4531 72.0771 45C72.0771 44.5521 72.012 44.1602 71.8818 43.8242C71.7516 43.4857 71.5589 43.2227 71.3037 43.0352C71.0485 42.8451 70.7334 42.75 70.3584 42.75C69.9678 42.75 69.6423 42.8503 69.3818 43.0508C69.124 43.2487 68.93 43.5182 68.7998 43.8594C68.6722 44.1979 68.6084 44.5781 68.6084 45C68.6084 45.4271 68.6735 45.8151 68.8037 46.1641C68.9365 46.5104 69.1318 46.7865 69.3896 46.9922C69.6501 47.1953 69.973 47.2969 70.3584 47.2969ZM79.0498 43.3437L78.2217 43.5781C78.1696 43.4401 78.0928 43.306 77.9912 43.1758C77.8923 43.043 77.7568 42.9336 77.585 42.8477C77.4131 42.7617 77.193 42.7187 76.9248 42.7187C76.5576 42.7187 76.2516 42.8034 76.0068 42.9727C75.7646 43.1393 75.6436 43.3516 75.6436 43.6094C75.6436 43.8385 75.7269 44.0195 75.8936 44.1523C76.0602 44.2852 76.3206 44.3958 76.6748 44.4844L77.5654 44.7031C78.1019 44.8333 78.5016 45.0326 78.7646 45.3008C79.0277 45.5664 79.1592 45.9089 79.1592 46.3281C79.1592 46.6719 79.0602 46.9792 78.8623 47.25C78.667 47.5208 78.3936 47.7344 78.042 47.8906C77.6904 48.0469 77.2816 48.125 76.8154 48.125C76.2035 48.125 75.6969 47.9922 75.2959 47.7266C74.8949 47.4609 74.641 47.0729 74.5342 46.5625L75.4092 46.3437C75.4925 46.6667 75.6501 46.9089 75.8818 47.0703C76.1162 47.2318 76.4222 47.3125 76.7998 47.3125C77.2295 47.3125 77.5706 47.2214 77.8232 47.0391C78.0785 46.8542 78.2061 46.6328 78.2061 46.375C78.2061 46.1667 78.1331 45.9922 77.9873 45.8516C77.8415 45.7083 77.6175 45.6016 77.3154 45.5312L76.3154 45.2969C75.766 45.1667 75.3623 44.9648 75.1045 44.6914C74.8493 44.4154 74.7217 44.0703 74.7217 43.6562C74.7217 43.3177 74.8167 43.0182 75.0068 42.7578C75.1995 42.4974 75.4613 42.293 75.792 42.1445C76.1253 41.9961 76.5029 41.9219 76.9248 41.9219C77.5186 41.9219 77.9847 42.0521 78.3232 42.3125C78.6644 42.5729 78.9066 42.9167 79.0498 43.3437Z" fill="#234422"/>
<circle cx="40" cy="3" r="3" fill="#60935D"/>
</svg>
