<svg width="50" height="50" viewBox="0 0 50 50" fill="none" xmlns="http://www.w3.org/2000/svg">
<path d="M27.4 26.6C27.74 26.6 28.0352 26.4752 28.2856 26.2256C28.536 25.976 28.6608 25.6808 28.66 25.34C28.66 25 28.5352 24.7052 28.2856 24.4556C28.036 24.206 27.7408 24.0808 27.4 24.08C27.06 24.08 26.7652 24.2052 26.5156 24.4556C26.266 24.706 26.1408 25.0008 26.14 25.34C26.14 25.68 26.2652 25.9752 26.5156 26.2256C26.766 26.476 27.0608 26.6008 27.4 26.6ZM27.4 22.76C27.62 22.76 27.8252 22.68 28.0156 22.52C28.206 22.36 28.3208 22.15 28.36 21.89C28.4 21.65 28.4848 21.43 28.6144 21.23C28.744 21.03 28.9792 20.76 29.32 20.42C29.92 19.82 30.32 19.3348 30.52 18.9644C30.72 18.594 30.82 18.1592 30.82 17.66C30.82 16.76 30.5048 16.0248 29.8744 15.4544C29.244 14.884 28.4192 14.5992 27.4 14.6C26.74 14.6 26.14 14.75 25.6 15.05C25.06 15.35 24.63 15.78 24.31 16.34C24.19 16.54 24.18 16.75 24.28 16.97C24.38 17.19 24.55 17.35 24.79 17.45C25.01 17.55 25.2252 17.56 25.4356 17.48C25.646 17.4 25.8208 17.26 25.96 17.06C26.14 16.8 26.35 16.6052 26.59 16.4756C26.83 16.346 27.1 16.2808 27.4 16.28C27.88 16.28 28.27 16.4152 28.57 16.6856C28.87 16.956 29.02 17.3208 29.02 17.78C29.02 18.06 28.94 18.3252 28.78 18.5756C28.62 18.826 28.34 19.1408 27.94 19.52C27.36 20.02 26.99 20.4052 26.83 20.6756C26.67 20.946 26.57 21.3408 26.53 21.86C26.51 22.1 26.5852 22.31 26.7556 22.49C26.926 22.67 27.1408 22.76 27.4 22.76ZM20.2 30.2C19.54 30.2 18.9752 29.9652 18.5056 29.4956C18.036 29.026 17.8008 28.4608 17.8 27.8V13.4C17.8 12.74 18.0352 12.1752 18.5056 11.7056C18.976 11.236 19.5408 11.0008 20.2 11H34.6C35.26 11 35.8252 11.2352 36.2956 11.7056C36.766 12.176 37.0008 12.7408 37 13.4V27.8C37 28.46 36.7652 29.0252 36.2956 29.4956C35.826 29.966 35.2608 30.2008 34.6 30.2H20.2ZM15.4 35C14.74 35 14.1752 34.7652 13.7056 34.2956C13.236 33.826 13.0008 33.2608 13 32.6V17C13 16.66 13.1152 16.3752 13.3456 16.1456C13.576 15.916 13.8608 15.8008 14.2 15.8C14.54 15.8 14.8252 15.9152 15.0556 16.1456C15.286 16.376 15.4008 16.6608 15.4 17V32.6H31C31.34 32.6 31.6252 32.7152 31.8556 32.9456C32.086 33.176 32.2008 33.4608 32.2 33.8C32.2 34.14 32.0848 34.4252 31.8544 34.6556C31.624 34.886 31.3392 35.0008 31 35H15.4Z" fill="#60935D"/>
<path d="M2.99121 40H4.14746L6.86621 46.6406H6.95996L9.67871 40H10.835V48H9.92871V41.9219H9.85059L7.35059 48H6.47559L3.97559 41.9219H3.89746V48H2.99121V40ZM15.168 48.125C14.5898 48.125 14.0911 47.9974 13.6719 47.7422C13.2552 47.4844 12.9336 47.125 12.707 46.6641C12.4831 46.2005 12.3711 45.6615 12.3711 45.0469C12.3711 44.4323 12.4831 43.8906 12.707 43.4219C12.9336 42.9505 13.2487 42.5833 13.6523 42.3203C14.0586 42.0547 14.5326 41.9219 15.0742 41.9219C15.3867 41.9219 15.6953 41.974 16 42.0781C16.3047 42.1823 16.582 42.3516 16.832 42.5859C17.082 42.8177 17.2813 43.125 17.4297 43.5078C17.5781 43.8906 17.6523 44.362 17.6523 44.9219V45.3125H13.0273V44.5156H16.7148C16.7148 44.1771 16.6471 43.875 16.5117 43.6094C16.3789 43.3437 16.1888 43.1341 15.9414 42.9805C15.6966 42.8268 15.4076 42.75 15.0742 42.75C14.707 42.75 14.3893 42.8411 14.1211 43.0234C13.8555 43.2031 13.651 43.4375 13.5078 43.7266C13.3646 44.0156 13.293 44.3255 13.293 44.6562V45.1875C13.293 45.6406 13.3711 46.0247 13.5273 46.3398C13.6862 46.6523 13.9063 46.8906 14.1875 47.0547C14.4688 47.2161 14.7956 47.2969 15.168 47.2969C15.4102 47.2969 15.6289 47.263 15.8242 47.1953C16.0221 47.125 16.1927 47.0208 16.3359 46.8828C16.4792 46.7422 16.5898 46.5677 16.668 46.3594L17.5586 46.6094C17.4648 46.9115 17.3073 47.1771 17.0859 47.4062C16.8646 47.6328 16.5911 47.8099 16.2656 47.9375C15.9401 48.0625 15.5742 48.125 15.168 48.125ZM21.6641 42V42.7812H18.5547V42H21.6641ZM19.4609 40.5625H20.3828V46.2812C20.3828 46.5417 20.4206 46.737 20.4961 46.8672C20.5742 46.9948 20.6732 47.0807 20.793 47.125C20.9154 47.1667 21.0443 47.1875 21.1797 47.1875C21.2813 47.1875 21.3646 47.1823 21.4297 47.1719C21.4948 47.1589 21.5469 47.1484 21.5859 47.1406L21.7734 47.9687C21.7109 47.9922 21.6237 48.0156 21.5117 48.0391C21.3997 48.0651 21.2578 48.0781 21.0859 48.0781C20.8255 48.0781 20.5703 48.0221 20.3203 47.9102C20.0729 47.7982 19.8672 47.6276 19.7031 47.3984C19.5417 47.1693 19.4609 46.8802 19.4609 46.5312V40.5625ZM24.1016 44.3906V48H23.1797V40H24.1016V42.9375H24.1797C24.3203 42.6276 24.5313 42.3815 24.8125 42.1992C25.0964 42.0143 25.474 41.9219 25.9453 41.9219C26.3542 41.9219 26.7122 42.0039 27.0195 42.168C27.3268 42.3294 27.5651 42.5781 27.7344 42.9141C27.9063 43.2474 27.9922 43.6719 27.9922 44.1875V48H27.0703V44.25C27.0703 43.7734 26.9466 43.4049 26.6992 43.1445C26.4544 42.8815 26.1146 42.75 25.6797 42.75C25.3776 42.75 25.1068 42.8138 24.8672 42.9414C24.6302 43.069 24.4427 43.2552 24.3047 43.5C24.1693 43.7448 24.1016 44.0417 24.1016 44.3906ZM32.1162 48.125C31.5745 48.125 31.0993 47.9961 30.6904 47.7383C30.2842 47.4805 29.9665 47.1198 29.7373 46.6562C29.5107 46.1927 29.3975 45.651 29.3975 45.0312C29.3975 44.4062 29.5107 43.8607 29.7373 43.3945C29.9665 42.9284 30.2842 42.5664 30.6904 42.3086C31.0993 42.0508 31.5745 41.9219 32.1162 41.9219C32.6579 41.9219 33.1318 42.0508 33.5381 42.3086C33.9469 42.5664 34.2646 42.9284 34.4912 43.3945C34.7204 43.8607 34.835 44.4062 34.835 45.0312C34.835 45.651 34.7204 46.1927 34.4912 46.6562C34.2646 47.1198 33.9469 47.4805 33.5381 47.7383C33.1318 47.9961 32.6579 48.125 32.1162 48.125ZM32.1162 47.2969C32.5277 47.2969 32.8662 47.1914 33.1318 46.9805C33.3975 46.7695 33.5941 46.4922 33.7217 46.1484C33.8493 45.8047 33.9131 45.4323 33.9131 45.0312C33.9131 44.6302 33.8493 44.2565 33.7217 43.9102C33.5941 43.5638 33.3975 43.2839 33.1318 43.0703C32.8662 42.8568 32.5277 42.75 32.1162 42.75C31.7048 42.75 31.3662 42.8568 31.1006 43.0703C30.835 43.2839 30.6383 43.5638 30.5107 43.9102C30.3831 44.2565 30.3193 44.6302 30.3193 45.0312C30.3193 45.4323 30.3831 45.8047 30.5107 46.1484C30.6383 46.4922 30.835 46.7695 31.1006 46.9805C31.3662 47.1914 31.7048 47.2969 32.1162 47.2969ZM38.5078 48.125C38.0078 48.125 37.5664 47.9987 37.1836 47.7461C36.8008 47.4909 36.5013 47.1315 36.2852 46.668C36.069 46.2018 35.9609 45.651 35.9609 45.0156C35.9609 44.3854 36.069 43.8385 36.2852 43.375C36.5013 42.9115 36.8021 42.5534 37.1875 42.3008C37.5729 42.0482 38.0182 41.9219 38.5234 41.9219C38.9141 41.9219 39.2227 41.987 39.4492 42.1172C39.6784 42.2448 39.8529 42.3906 39.9727 42.5547C40.0951 42.7161 40.1901 42.849 40.2578 42.9531H40.3359V40H41.2578V48H40.3672V47.0781H40.2578C40.1901 47.1875 40.0938 47.3255 39.9688 47.4922C39.8438 47.6562 39.6654 47.8034 39.4336 47.9336C39.2018 48.0612 38.8932 48.125 38.5078 48.125ZM38.6328 47.2969C39.0026 47.2969 39.3151 47.2005 39.5703 47.0078C39.8255 46.8125 40.0195 46.543 40.1523 46.1992C40.2852 45.8529 40.3516 45.4531 40.3516 45C40.3516 44.5521 40.2865 44.1602 40.1563 43.8242C40.026 43.4857 39.8333 43.2227 39.5781 43.0352C39.3229 42.8451 39.0078 42.75 38.6328 42.75C38.2422 42.75 37.9167 42.8503 37.6563 43.0508C37.3984 43.2487 37.2044 43.5182 37.0742 43.8594C36.9466 44.1979 36.8828 44.5781 36.8828 45C36.8828 45.4271 36.9479 45.8151 37.0781 46.1641C37.2109 46.5104 37.4063 46.7865 37.6641 46.9922C37.9245 47.1953 38.2474 47.2969 38.6328 47.2969ZM47.3242 43.3437L46.4961 43.5781C46.444 43.4401 46.3672 43.306 46.2656 43.1758C46.1667 43.043 46.0313 42.9336 45.8594 42.8477C45.6875 42.7617 45.4674 42.7187 45.1992 42.7187C44.832 42.7187 44.526 42.8034 44.2813 42.9727C44.0391 43.1393 43.918 43.3516 43.918 43.6094C43.918 43.8385 44.0013 44.0195 44.168 44.1523C44.3346 44.2852 44.5951 44.3958 44.9492 44.4844L45.8398 44.7031C46.3763 44.8333 46.776 45.0326 47.0391 45.3008C47.3021 45.5664 47.4336 45.9089 47.4336 46.3281C47.4336 46.6719 47.3346 46.9792 47.1367 47.25C46.9414 47.5208 46.668 47.7344 46.3164 47.8906C45.9648 48.0469 45.556 48.125 45.0898 48.125C44.4779 48.125 43.9714 47.9922 43.5703 47.7266C43.1693 47.4609 42.9154 47.0729 42.8086 46.5625L43.6836 46.3437C43.7669 46.6667 43.9245 46.9089 44.1563 47.0703C44.3906 47.2318 44.6966 47.3125 45.0742 47.3125C45.5039 47.3125 45.8451 47.2214 46.0977 47.0391C46.3529 46.8542 46.4805 46.6328 46.4805 46.375C46.4805 46.1667 46.4076 45.9922 46.2617 45.8516C46.1159 45.7083 45.8919 45.6016 45.5898 45.5312L44.5898 45.2969C44.0404 45.1667 43.6367 44.9648 43.3789 44.6914C43.1237 44.4154 42.9961 44.0703 42.9961 43.6562C42.9961 43.3177 43.0911 43.0182 43.2813 42.7578C43.474 42.4974 43.7357 42.293 44.0664 42.1445C44.3997 41.9961 44.7773 41.9219 45.1992 41.9219C45.793 41.9219 46.2591 42.0521 46.5977 42.3125C46.9388 42.5729 47.181 42.9167 47.3242 43.3437Z" fill="#234422"/>
<circle cx="25" cy="3" r="3" fill="#60935D"/>
</svg>
