<svg width="151" height="186" viewBox="0 0 151 186" fill="none" xmlns="http://www.w3.org/2000/svg">
<path d="M33.0134 138.298C32.9481 138.236 32.8817 138.173 32.8152 138.11C31.2357 136.651 30.0465 134.896 28.7767 133.125C25.0147 127.873 21.4023 122.506 17.9761 117.021C13.5163 109.882 9.31286 102.527 5.89621 94.8088C3.12515 88.5475 0.34222 81.4905 0.572449 74.4984C1.27144 53.2864 77.8547 -2.91223 97.6782 0.117892C117.503 3.14801 123.205 50.8077 107.183 85.5186C91.1606 120.229 130.266 95.1603 133.797 74.224C134.651 69.1569 138.358 67.6581 142.204 71.0734C150.821 78.724 151.676 93.6519 149.291 104.106C147.219 113.191 142.449 121.414 136.395 128.353C134.502 130.523 132.48 132.576 130.364 134.522C128.76 135.995 126.77 137.01 125.771 138.972C123.203 144.018 120.746 148.592 116.619 152.565C114.772 154.342 112.745 155.941 111.129 157.936C109.279 160.219 108.037 162.935 106.756 165.591C104.15 170.988 101.168 176.416 96.508 180.125C92.5277 183.293 87.5528 184.988 82.5353 185.641C77.5177 186.295 72.4265 185.958 67.3971 185.405C64.4326 185.079 61.4277 184.666 58.7018 183.438C56.0672 182.252 53.8124 180.36 51.6098 178.473C47.5297 174.979 43.3844 171.266 41.151 166.346C39.0848 161.793 38.8534 156.645 38.2221 151.674C37.618 146.919 36.5369 141.705 33.0158 138.299L33.0134 138.298Z" fill="#3B6F6C" fill-opacity="0.35"/>
<path d="M107.465 47.8921C106.25 47.8921 105.261 46.8928 105.261 45.6646C105.261 44.4364 106.25 43.437 107.465 43.437C108.681 43.437 109.67 44.4364 109.67 45.6646C109.67 46.8928 108.681 47.8921 107.465 47.8921ZM107.465 44.1868C106.659 44.1868 106.002 44.8495 106.002 45.6656C106.002 46.4816 106.658 47.1444 107.465 47.1444C108.273 47.1444 108.929 46.4816 108.929 45.6656C108.929 44.8495 108.273 44.1868 107.465 44.1868Z" fill="#60935D" fill-opacity="0.85"/>
<path d="M3.86528 79.0776C2.64998 79.0776 1.66113 78.0783 1.66113 76.8501C1.66113 75.6219 2.64998 74.6226 3.86528 74.6226C5.08058 74.6226 6.06942 75.6219 6.06942 76.8501C6.06942 78.0783 5.08058 79.0776 3.86528 79.0776ZM3.86528 75.3713C3.05883 75.3713 2.402 76.0341 2.402 76.8501C2.402 77.6661 3.05781 78.3289 3.86528 78.3289C4.67275 78.3289 5.32856 77.6661 5.32856 76.8501C5.32856 76.0341 4.67275 75.3713 3.86528 75.3713Z" fill="#60935D" fill-opacity="0.85"/>
<path d="M57.3157 42.3233C56.4036 42.3233 55.6626 41.5734 55.6626 40.6526C55.6626 39.7318 56.4046 38.9819 57.3157 38.9819C58.2269 38.9819 58.9688 39.7318 58.9688 40.6526C58.9688 41.5734 58.2269 42.3233 57.3157 42.3233ZM57.3157 39.6915C56.7916 39.6915 56.3657 40.1219 56.3657 40.6516C56.3657 41.1813 56.7916 41.6117 57.3157 41.6117C57.8398 41.6117 58.2658 41.1813 58.2658 40.6516C58.2658 40.1219 57.8398 39.6915 57.3157 39.6915Z" fill="#60935D" fill-opacity="0.85"/>
<path d="M147.134 93.5569C145.919 93.5569 144.93 92.5576 144.93 91.3294C144.93 90.1011 145.919 89.1018 147.134 89.1018C148.35 89.1018 149.338 90.1011 149.338 91.3294C149.338 92.5576 148.35 93.5569 147.134 93.5569ZM147.134 89.8505C146.328 89.8505 145.671 90.5133 145.671 91.3294C145.671 92.1454 146.327 92.8082 147.134 92.8082C147.942 92.8082 148.598 92.1454 148.598 91.3294C148.598 90.5133 147.942 89.8505 147.134 89.8505Z" fill="#60935D" fill-opacity="0.85"/>
<path d="M117.379 94.6705L103.152 92.4906L95.3374 69.0537L115.499 70.723L117.379 94.6705ZM103.787 91.7356L116.458 93.6782L114.717 71.5023L96.5375 69.9971L103.787 91.7368V91.7356Z" fill="#60935D" fill-opacity="0.85"/>
<path d="M118.377 94.6705L116.277 70.6868L136.114 65.7124L132.207 90.1694L118.377 94.6705ZM117.186 71.328L119.13 93.5373L131.449 89.5282L135.073 66.842L117.185 71.328H117.186Z" fill="#60935D" fill-opacity="0.85"/>
<path d="M116.178 94.6705L114.073 71.5369L117.478 71.2812L119.583 94.4148L116.178 94.6705ZM115.04 72.2814L116.998 93.7909L118.618 93.6692L116.661 72.1597L115.04 72.2814Z" fill="#60935D" fill-opacity="0.85"/>
<path d="M115.319 71.2813L115.175 69.7093L115.35 69.5836C115.408 69.5418 116.812 68.5469 119.572 67.5698C122.102 66.6743 126.308 65.625 131.972 65.7182L132.086 65.7203L133.91 66.7299L133.471 67.375L131.843 66.4733C126.395 66.3989 122.354 67.4022 119.918 68.2599C117.801 69.0056 116.498 69.7732 116.049 70.0591L116.156 71.2184L115.319 71.2813Z" fill="#60935D" fill-opacity="0.85"/>
<path d="M115.459 72.3937L115.354 70.974C114.87 70.7098 113.478 70.0198 111.304 69.503C108.803 68.9092 104.729 68.4308 99.4894 69.5094L98.0793 70.8945L97.5415 70.1942L99.1207 68.6437L99.2308 68.6206C104.675 67.4805 108.916 67.9832 111.515 68.6052C114.351 69.285 115.881 70.2314 115.944 70.2725L116.136 70.393L116.277 72.3181L115.459 72.395V72.3937Z" fill="#60935D" fill-opacity="0.85"/>
<path d="M115.978 70.1675L115.175 69.9754C115.212 69.8089 116.182 65.8847 123.69 64.6889C130.752 63.564 132.729 62.1376 132.748 62.1237L133.91 61.2573L133.377 62.6185L132.042 66.0198L131.276 65.7066L132.196 63.3638C130.955 63.918 128.448 64.7844 123.818 65.5214C120.191 66.099 118.25 67.3391 117.26 68.2776C116.203 69.2802 115.982 70.1582 115.98 70.1675H115.978Z" fill="#60935D" fill-opacity="0.85"/>
<path d="M117.368 73.3217L115.172 73.5159L115.27 74.6252L117.466 74.431L117.368 73.3217Z" fill="#60935D" fill-opacity="0.85"/>
<path d="M117.368 75.5493L115.172 75.7434L115.27 76.8527L117.466 76.6586L117.368 75.5493Z" fill="#60935D" fill-opacity="0.85"/>
<path d="M118.478 91.1683L116.279 91.3237L116.358 92.4346L118.557 92.2792L118.478 91.1683Z" fill="#60935D" fill-opacity="0.85"/>
<path d="M118.478 88.9408L116.279 89.0962L116.358 90.2071L118.557 90.0517L118.478 88.9408Z" fill="#60935D" fill-opacity="0.85"/>
<path d="M117.379 70.1656C117.61 70.0034 117.861 69.8641 118.113 69.7287C118.369 69.5951 118.629 69.4701 118.894 69.3528C119.426 69.1181 119.973 68.9111 120.532 68.7279L120.953 68.5963C121.092 68.5524 121.236 68.5142 121.378 68.4742C121.662 68.395 121.949 68.3215 122.238 68.2557C122.524 68.1851 122.818 68.1326 123.109 68.0745C123.402 68.0239 123.696 67.9771 123.991 67.9399C123.713 68.0334 123.429 68.1126 123.15 68.1966L122.73 68.3234C122.59 68.3654 122.449 68.4036 122.31 68.4484C122.171 68.4923 122.031 68.5343 121.891 68.5753C121.751 68.6154 121.614 68.6621 121.475 68.706C121.196 68.7909 120.921 68.8815 120.643 68.9702C120.092 69.1525 119.542 69.3375 118.998 69.536C118.455 69.7363 117.914 69.9395 117.38 70.1675L117.379 70.1656Z" fill="#60935D" fill-opacity="0.85"/>
<path d="M121.787 69.0527C122.542 68.6871 123.341 68.4009 124.15 68.1445C124.96 67.8901 125.784 67.6718 126.619 67.4885C126.827 67.4429 127.037 67.4027 127.246 67.3592L127.56 67.2967L127.877 67.2416L128.509 67.1356C128.721 67.1038 128.933 67.0752 129.146 67.0466C129.569 66.983 129.997 66.948 130.423 66.9046C130.53 66.894 130.636 66.8855 130.743 66.8792L131.064 66.859C131.278 66.8463 131.492 66.8346 131.706 66.8262C131.286 66.9078 130.864 66.9692 130.445 67.0445L129.816 67.1547C129.712 67.1738 129.607 67.1886 129.502 67.2087L129.19 67.2681C128.981 67.3083 128.772 67.3465 128.563 67.3836L127.94 67.5086L127.628 67.569L127.318 67.6358C127.111 67.6803 126.903 67.7216 126.696 67.7672C125.869 67.9495 125.047 68.1445 124.227 68.3575C123.409 68.5726 122.595 68.7973 121.787 69.0537V69.0527Z" fill="#60935D" fill-opacity="0.85"/>
<path d="M116.275 70.1675C115.626 70.0833 114.983 69.9897 114.341 69.8938L112.418 69.6067L110.495 69.3243L108.562 69.0537C109.224 69.0584 109.883 69.0993 110.538 69.1599C111.191 69.2228 111.843 69.3015 112.487 69.3982C113.131 69.495 113.771 69.6067 114.403 69.7325C115.036 69.8591 115.664 69.9976 116.277 70.1667L116.275 70.1675Z" fill="#60935D" fill-opacity="0.85"/>
<path d="M112.97 70.1665C112.048 70.0796 111.131 69.982 110.213 69.8825L108.838 69.7337L108.151 69.6583L107.464 69.5858C107.005 69.5375 106.547 69.4873 106.088 69.4438C105.859 69.4206 105.63 69.3945 105.4 69.3742C105.171 69.354 104.94 69.3308 104.711 69.3076C103.793 69.2235 102.874 69.1443 101.95 69.0728C102.876 69.0351 103.807 69.0573 104.732 69.1037C105.195 69.1279 105.658 69.1607 106.12 69.1974C106.351 69.2148 106.581 69.237 106.811 69.2593L107.502 69.3269C107.961 69.3791 108.421 69.4303 108.879 69.4892C109.108 69.5182 109.337 69.5501 109.565 69.582C109.794 69.6129 110.022 69.6457 110.25 69.6815C111.161 69.8197 112.071 69.9742 112.969 70.1675L112.97 70.1665Z" fill="#60935D" fill-opacity="0.85"/>
<path d="M73.8782 73.5089C73.0215 73.5089 72.1603 73.4339 71.2991 73.2828C67.3843 72.5953 63.9699 70.408 61.6831 67.1243C59.3963 63.8405 58.5114 59.8534 59.1928 55.8981C59.873 51.9417 62.0372 48.4909 65.2864 46.1798C68.5356 43.8686 72.4807 42.9755 76.3944 43.663C80.3091 44.3504 83.7236 46.5377 86.0104 49.8214C88.2972 53.1052 89.182 57.0923 88.5007 61.0476C87.8205 65.004 85.6563 68.4548 82.4071 70.766C79.8729 72.5681 76.9149 73.5089 73.8782 73.5089ZM73.8276 44.2663C71.0315 44.2663 68.2096 45.1049 65.7552 46.8513C59.4142 51.3611 57.8863 60.2431 62.3486 66.6516C66.8109 73.06 75.5995 74.6042 81.9405 70.0944C85.012 67.9094 87.0582 64.6472 87.7013 60.9078C88.3444 57.1684 87.5091 53.3995 85.3471 50.2953C82.6128 46.3684 78.2528 44.2686 73.8287 44.2686L73.8276 44.2663Z" fill="#60935D" fill-opacity="0.85"/>
<path d="M73.3095 71.2813C69.4939 71.2813 65.7356 69.4708 63.3782 66.0848C59.5305 60.5596 60.8478 52.9021 66.3152 49.0137C68.9635 47.1303 72.1789 46.4022 75.3691 46.9624C78.5592 47.5227 81.3428 49.3054 83.2065 51.9818C85.0702 54.6582 85.7907 57.9076 85.2363 61.1315C84.6818 64.3554 82.9178 67.1684 80.2694 69.0518C78.1526 70.5567 75.7196 71.2802 73.3084 71.2802L73.3095 71.2813ZM73.2683 47.6153C70.9624 47.6153 68.7161 48.3296 66.7917 49.6979C61.6977 53.32 60.4709 60.4554 64.0551 65.6021C67.6394 70.75 74.7001 71.9898 79.7929 68.3676C82.2603 66.6127 83.9041 63.9919 84.4207 60.9879C84.9373 57.984 84.266 54.9568 82.5295 52.4634C80.7929 49.9699 78.1996 48.3087 75.227 47.7867C74.573 47.6721 73.9177 47.6153 73.2683 47.6153Z" fill="#60935D" fill-opacity="0.85"/>
<path d="M79.1898 66.8262L78.8062 66.2181C79.4377 65.7651 80.0008 65.2199 80.4804 64.5986L81.0103 65.0648C80.4889 65.7408 79.8764 66.3336 79.1889 66.8262H79.1898Z" fill="#60935D" fill-opacity="0.85"/>
<path d="M82.4157 62.37L81.7631 62.0318C82.9573 59.0366 82.6686 55.5052 81.0103 52.8177L81.5964 52.3472C82.503 53.8165 83.0525 55.5347 83.1834 57.3162C83.3104 59.0445 83.0456 60.7921 82.4157 62.3711V62.37Z" fill="#60935D" fill-opacity="0.85"/>
<path d="M59.8047 71.2813L56.7646 67.0804L60.3908 64.5986L60.8569 65.2436L57.893 67.271L60.0008 70.1831L62.9109 68.1927L63.3771 68.8366L59.8047 71.2813Z" fill="#60935D" fill-opacity="0.85"/>
<path d="M38.1306 87.9879L33.6211 81.6792L56.6634 65.7124L61.1729 72.0211L38.1306 87.9879ZM34.7772 81.877L38.3315 86.8496L60.0157 71.8233L56.4613 66.8507L34.7772 81.877Z" fill="#60935D" fill-opacity="0.85"/>
<path d="M85.0519 159.118H135.078C135.078 159.118 134.204 162.804 134.204 166.809C134.204 170.815 135.078 174.5 135.078 174.5H85.0519C83.2772 174.5 81.8389 173.036 81.8389 171.23V162.391C81.8389 160.581 83.2772 159.117 85.0519 159.117V159.118Z" fill="#FAE0B2"/>
<path d="M135.753 157.027C136.321 157.027 136.781 157.498 136.781 158.073C136.781 158.363 136.668 158.624 136.479 158.813C136.294 159.005 136.037 159.119 135.753 159.119H85.0516C83.2769 159.119 81.8386 160.583 81.8386 162.393V171.232C81.8386 173.039 83.2769 174.503 85.0516 174.503H135.753C136.321 174.503 136.781 174.971 136.781 175.549C136.781 175.839 136.668 176.097 136.479 176.289C136.294 176.478 136.037 176.596 135.753 176.596H85.0516C82.1399 176.596 79.7837 174.194 79.7837 171.234V162.391C79.7837 159.431 82.1399 157.029 85.0516 157.029H135.753V157.027Z" fill="#184655"/>
<path d="M88.3516 162.096C91.3138 161.962 94.276 161.871 97.2382 161.826C100.2 161.77 103.163 161.755 106.125 161.748C109.087 161.754 112.049 161.77 115.011 161.824C117.974 161.87 120.936 161.96 123.898 162.096C120.936 162.232 117.974 162.323 115.011 162.369C112.049 162.423 109.087 162.439 106.125 162.445C103.163 162.438 100.2 162.423 97.2382 162.367C94.276 162.322 91.3138 162.231 88.3516 162.096Z" fill="#E5BD83"/>
<path d="M86.4985 166.81C87.618 166.666 88.7375 166.591 89.8569 166.539C90.9764 166.483 92.0959 166.469 93.2154 166.462C94.3348 166.468 95.4543 166.483 96.5738 166.538C97.6932 166.59 98.8127 166.665 99.9322 166.81C98.8127 166.956 97.6932 167.031 96.5738 167.082C95.4543 167.137 94.3348 167.153 93.2154 167.159C92.0959 167.152 90.9764 167.137 89.8569 167.081C88.7375 167.03 87.618 166.955 86.4985 166.81Z" fill="#E5BD83"/>
<path d="M95.0669 171.643C96.1864 171.498 97.3058 171.423 98.4253 171.372C99.5448 171.316 100.664 171.302 101.784 171.294C102.903 171.3 104.023 171.316 105.142 171.371C106.262 171.422 107.381 171.497 108.501 171.643C107.381 171.788 106.262 171.864 105.142 171.915C104.023 171.97 102.903 171.985 101.784 171.991C100.664 171.984 99.5448 171.97 98.4253 171.914C97.3058 171.862 96.1864 171.787 95.0669 171.643Z" fill="#E5BD83"/>
<path d="M102.134 168.814C104.721 168.679 107.307 168.588 109.894 168.543C112.481 168.487 115.067 168.472 117.654 168.465C120.242 168.471 122.827 168.487 125.415 168.542C128.002 168.587 130.588 168.678 133.175 168.814C130.588 168.95 128.002 169.04 125.415 169.086C122.827 169.141 120.242 169.156 117.654 169.162C115.067 169.155 112.481 169.141 109.894 169.085C107.307 169.039 104.721 168.949 102.134 168.814Z" fill="#E5BD83"/>
<path d="M96.9206 176.121C95.406 173.208 95.406 169.722 96.9206 166.809H88.3508C86.8362 169.722 86.8362 173.208 88.3508 176.121C89.3673 175.329 90.4951 174.493 91.7354 173.639C93.3509 174.493 95.0801 175.329 96.9206 176.121Z" fill="#50BFA5"/>
<path d="M148.907 141.126H84.2505V155.803H148.907V141.126Z" fill="#FE875E"/>
<path d="M94.4547 141.126H90.6284V155.803H94.4547V141.126Z" fill="#F7A491"/>
<path d="M138.703 155.803H142.529V141.127H138.703V155.803Z" fill="#F7A491"/>
<path d="M84.2512 147.27C84.2512 147.27 79.3575 149.574 78.5708 155.802L80.6679 154.096L81.411 155.802C81.411 155.802 81.8911 150.512 84.2512 148.465V147.27Z" fill="#EFEFEF"/>
<path d="M97.778 133.393C97.778 133.393 99.2526 136.939 97.7229 141.294L91.9145 140.965L77.3472 140.142V140.139C77.3472 140.139 77.7887 138.421 77.7887 136.408C77.7887 134.559 77.3472 132.674 77.3472 132.674V132.67L91.706 133.177L97.778 133.393Z" fill="#FAE0B2"/>
<path d="M77.0424 140.124L77.347 140.142L91.9143 140.964L97.7227 141.294C99.2524 136.94 97.7778 133.392 97.7778 133.392L91.7058 133.176L77.347 132.67L77.0014 132.659C76.5388 132.64 76.1768 132.251 76.1768 131.772C76.1768 131.293 76.5598 130.89 77.026 130.89H77.0635L98.6305 131.715C98.6305 131.715 101.478 136.613 98.6305 142.95L76.9604 141.894C76.4954 141.87 76.1323 141.461 76.1464 140.976C76.164 140.497 76.547 140.123 77.0049 140.123H77.0424V140.124Z" fill="#3C8F7C"/>
<path d="M77.062 130.891L136.163 130.119L135.839 130.133L98.629 131.717L77.062 130.891Z" fill="#3C8F7C"/>
<path d="M99.3504 131.686L135.838 130.133C137.656 130.059 139.172 131.562 139.182 133.446L139.206 138.151C139.216 139.951 137.847 141.432 136.111 141.5L98.6289 142.953C101.476 136.614 98.6289 131.718 98.6289 131.718L99.3504 131.688V131.686Z" fill="#184655"/>
<path d="M97.305 136.122C96.185 136.229 95.0697 136.245 93.9555 136.229C92.8414 136.219 91.7284 136.155 90.6165 136.081C89.5047 135.99 88.394 135.887 87.2857 135.731C86.1762 135.581 85.069 135.399 83.9653 135.124C85.0853 135.018 86.2006 135 87.3148 135.016C88.429 135.027 89.542 135.09 90.6538 135.165C91.7656 135.258 92.8763 135.36 93.9846 135.517C95.093 135.667 96.2013 135.849 97.305 136.122Z" fill="#E5BD83"/>
<path d="M87.1431 143.381C86.0574 141.732 86.167 137.816 87.3444 136.234C89.4789 136.298 91.534 136.57 93.6673 136.633C92.4899 138.215 92.4586 141.923 93.5454 143.573C92.2171 143.083 90.929 142.451 89.7293 141.738C88.7946 142.386 87.9482 142.955 87.142 143.38L87.1431 143.381Z" fill="#F47458"/>
<path d="M102.136 120.51L103.199 120.606C100.555 120.802 98.5707 123.141 98.7627 125.835L98.8687 127.327C99.0301 129.575 100.66 131.357 102.733 131.767L85.6578 130.396C82.8109 130.118 80.7343 127.53 81.0229 124.634L81.103 123.832C81.388 120.973 83.8686 118.88 86.6778 119.132H86.6814L102.135 120.51H102.136Z" fill="#355389"/>
<path d="M143.246 119.617L103.199 120.606L102.136 120.51L86.6821 119.131H86.6786L86.4937 119.114L143.246 119.617Z" fill="#355389"/>
<path d="M142.097 121.263L103.288 122.357C102.413 122.432 101.621 122.877 101.084 123.602C100.621 124.234 100.43 125.031 100.488 125.821L100.589 127.198C100.705 128.803 102.029 130.081 103.605 130.105C103.694 130.106 103.787 130.1 103.877 130.095L103.918 130.093L142.16 129.151L143.111 129.127C143.559 129.116 143.925 129.489 143.919 129.945L143.917 130.089C143.911 130.52 143.572 130.87 143.149 130.882L104.004 131.846C103.57 131.878 103.143 131.85 102.736 131.768C100.662 131.358 99.031 129.577 98.8708 127.328L98.7648 125.836C98.5728 123.142 100.558 120.804 103.201 120.607L143.248 119.618C143.695 119.607 144.062 119.977 144.056 120.437C144.05 120.868 143.714 121.217 143.29 121.229L142.098 121.264L142.097 121.263Z" fill="#86B1F2"/>
<path d="M142.161 129.151L103.919 130.093L103.877 130.095C103.788 130.101 103.695 130.106 103.605 130.105C102.029 130.082 100.704 128.802 100.59 127.197L100.489 125.821C100.431 125.031 100.622 124.234 101.085 123.602C101.622 122.877 102.413 122.433 103.288 122.357L142.097 121.262C142.082 121.332 141.594 123.686 141.573 125.199C141.552 126.704 142.161 129.151 142.161 129.151Z" fill="#FAE0B2"/>
<path d="M103.368 125.032C104.474 124.749 105.583 124.569 106.692 124.422C107.801 124.27 108.912 124.18 110.024 124.101C111.136 124.041 112.248 123.993 113.361 124.005C114.475 124.012 115.589 124.055 116.707 124.2C115.601 124.484 114.493 124.666 113.383 124.809C112.274 124.961 111.163 125.051 110.051 125.131C108.939 125.189 107.827 125.237 106.714 125.225C105.6 125.217 104.486 125.175 103.368 125.032Z" fill="#E5BD83"/>
<path d="M113.07 128.701C114.176 128.419 115.285 128.238 116.394 128.092C117.504 127.94 118.615 127.85 119.726 127.77C120.838 127.71 121.95 127.662 123.064 127.675C124.177 127.682 125.291 127.724 126.41 127.869C125.303 128.154 124.196 128.334 123.086 128.479C121.976 128.631 120.865 128.721 119.754 128.8C118.641 128.859 117.529 128.906 116.416 128.894C115.302 128.887 114.188 128.844 113.07 128.701Z" fill="#E5BD83"/>
<path d="M114.291 133.788C115.823 131.612 115.915 126.23 114.443 124.007C111.61 123.964 109.093 124.284 106.261 124.241C107.733 126.464 107.326 131.482 105.793 133.658C107.582 133.073 109.324 132.291 110.955 131.395C112.157 132.334 113.247 133.159 114.291 133.787V133.788Z" fill="#50BFA5"/>
<path d="M122.771 126.258C124.282 125.974 125.797 125.795 127.311 125.649C128.826 125.498 130.341 125.406 131.856 125.325C133.372 125.264 134.889 125.216 136.406 125.229C137.923 125.234 139.441 125.276 140.961 125.42C139.45 125.704 137.936 125.885 136.421 126.031C134.906 126.182 133.392 126.274 131.876 126.353C130.36 126.412 128.843 126.46 127.326 126.448C125.809 126.442 124.291 126.4 122.771 126.258Z" fill="#E5BD83"/>
<path d="M90.8395 85.3427L98.7095 134.616L94.7458 131.707L86.9355 82.4749L88.484 83.6103L90.8395 85.3427Z" fill="#E5BD83"/>
<path d="M94.7454 131.707L98.7092 134.616C80.5725 134.5 66.8994 140.922 66.8994 140.922L60.0452 142.045C49.1498 139.065 28.3608 146.182 28.3608 146.182L31.2653 142.097C31.2653 142.097 52.0191 134.983 63.2289 138.309C72.8421 131.574 94.7454 131.707 94.7454 131.707Z" fill="#C9A16B"/>
<path d="M86.9347 82.4756L94.7449 131.709C94.7449 131.709 72.8415 131.575 63.2283 138.311L56.0938 93.343C56.0938 93.343 66.9821 81.5069 86.9335 82.4756H86.9347Z" fill="#FAE0B2"/>
<path d="M56.0953 93.3419L63.2298 138.309C52.02 134.982 31.2663 142.097 31.2663 142.097L23.4561 92.8641C42.0983 85.5783 56.0964 93.3419 56.0964 93.3419H56.0953Z" fill="#FAE0B2"/>
<path d="M94.7665 82.5827L103.369 136.806C103.369 136.806 80.9291 136.505 67.1855 142.727L59.821 143.933C44.1067 141.742 24.6562 149.688 24.6562 149.688L16.0542 95.465L22.3371 94.4367L20.3675 97.2045L28.3608 146.18C28.3608 146.18 49.1497 139.063 60.0451 142.043L66.8993 140.921C66.8993 140.921 80.5725 134.499 98.7091 134.615L90.8379 85.341L88.4824 83.6086L94.7653 82.5803L94.7665 82.5827Z" fill="#8F3C7D"/>
<path d="M23.4555 92.865L31.2665 142.097L28.3617 146.181L20.3677 97.2055L22.3374 94.4365L23.4555 92.865Z" fill="#E5BD83"/>
<path d="M40.7785 141.407C41.9528 141.009 43.1598 140.725 44.3739 140.485C45.5881 140.24 46.8174 140.072 48.0491 139.953C48.665 139.89 49.2844 139.859 49.9026 139.819C50.5219 139.808 51.1402 139.768 51.7595 139.792C52.9983 139.792 54.2347 139.89 55.4594 140.049C54.84 140.062 54.2253 140.024 53.6083 140.049C52.9924 140.049 52.3777 140.058 51.763 140.09C50.5349 140.139 49.3078 140.215 48.0843 140.338C46.8597 140.447 45.6397 140.603 44.422 140.777C43.2044 140.955 41.9903 141.166 40.7773 141.409L40.7785 141.407Z" fill="#B28856"/>
<path d="M63.4144 139.641C62.9006 139.542 62.388 139.454 61.8718 139.39C61.358 139.313 60.8419 139.253 60.3246 139.202C59.2911 139.102 58.2565 139.023 57.2195 138.973C56.1825 138.922 55.1455 138.901 54.105 138.889C53.0657 138.876 52.0252 138.899 50.98 138.897C51.4961 138.82 52.0158 138.76 52.5355 138.701C53.0563 138.665 53.5771 138.614 54.0991 138.592C55.1432 138.534 56.1907 138.546 57.2371 138.589C58.2823 138.648 59.3263 138.739 60.3609 138.909C61.3932 139.079 62.4255 139.288 63.4132 139.641H63.4144Z" fill="#B28856"/>
<path d="M96.7601 133.37L93.5377 133.589L90.3211 133.821L83.8857 134.323C84.4136 134.209 84.9438 134.111 85.4752 134.014C86.0078 133.93 86.5404 133.846 87.0753 133.774C88.1439 133.621 89.2185 133.521 90.293 133.435C91.3687 133.358 92.4467 133.302 93.5248 133.292C94.6028 133.279 95.682 133.286 96.7589 133.369L96.7601 133.37Z" fill="#B28856"/>
<path d="M84.2422 133.29C83.0164 133.446 81.7987 133.634 80.587 133.854C79.3764 134.078 78.1693 134.317 76.974 134.604C75.7751 134.877 74.5868 135.196 73.4043 135.543C72.8108 135.709 72.2242 135.898 71.6401 136.094C71.0465 136.266 70.4752 136.5 69.8828 136.685C70.9972 136.142 72.141 135.655 73.3164 135.26C73.897 135.039 74.4965 134.881 75.0877 134.692C75.6871 134.533 76.283 134.365 76.8883 134.229C78.0954 133.949 79.3142 133.717 80.5424 133.562C81.7694 133.402 83.0047 133.288 84.2411 133.29H84.2422Z" fill="#B28856"/>
<path d="M63.3838 141.035C64.212 140.384 65.1281 139.857 66.0548 139.366C66.9839 138.874 67.947 138.455 68.9218 138.065C69.9013 137.691 70.8925 137.346 71.9025 137.068C72.4046 136.922 72.9149 136.804 73.4217 136.671C73.9331 136.563 74.4446 136.453 74.9595 136.362C73.9683 136.698 72.9724 137.006 71.9894 137.35C71.0063 137.694 70.028 138.045 69.0591 138.424C68.0901 138.802 67.1329 139.207 66.1827 139.631C65.7076 139.844 65.236 140.066 64.7727 140.303C64.3023 140.528 63.8425 140.775 63.385 141.032L63.3838 141.035Z" fill="#B28856"/>
<path d="M30.3469 143.691C31.344 143.27 32.3657 142.918 33.3945 142.587C34.4221 142.252 35.4614 141.961 36.5066 141.692C37.5542 141.43 38.604 141.182 39.6657 140.987C40.1959 140.886 40.7273 140.794 41.2587 140.704C41.7924 140.626 42.3273 140.55 42.8634 140.49L36.5981 142.066L33.4731 142.872L30.3457 143.691H30.3469Z" fill="#B28856"/>
<path d="M45.8586 147.242C46.5235 145.026 46.2616 142.498 45.1587 140.491C46.8264 140.295 48.4928 140.099 50.1605 139.903C51.2634 141.912 51.5253 144.439 50.8604 146.655C50.2075 146.15 49.4871 145.621 48.698 145.087C47.8195 145.817 46.8722 146.541 45.8586 147.242Z" fill="#184655"/>
<path d="M66.898 141.187L59.7114 142.335L59.8985 143.544L67.0851 142.396L66.898 141.187Z" fill="#701C60"/>
<path d="M56.0732 93.4268C56.9179 97.1593 57.6476 100.91 58.3391 104.668C58.6956 106.544 59.0103 108.428 59.3441 110.309L60.2856 115.96L61.1649 121.622C61.4365 123.513 61.7296 125.4 61.9784 127.294C62.5 131.079 62.9822 134.87 63.3494 138.68C62.5036 134.948 61.7726 131.197 61.0824 127.439C60.7258 125.563 60.4124 123.678 60.0774 121.798L59.1383 116.146L58.2602 110.484C57.9886 108.593 57.6967 106.706 57.4467 104.811C56.925 101.027 56.4429 97.2361 56.0744 93.4268H56.0732Z" fill="#F7CC7F"/>
</svg>
