<svg width="133" height="109" viewBox="0 0 133 109" fill="none" xmlns="http://www.w3.org/2000/svg">
<path d="M15.5941 68.0737C13.4941 74.5237 10.5841 80.8237 6.20412 87.1137C5.20412 88.5537 4.14412 89.9937 3.18412 91.4737C1.97412 93.3537 0.924127 95.3137 0.364127 97.4637C-0.645873 101.324 0.414119 106.074 3.93412 107.954C8.31412 110.294 13.4641 107.194 17.6841 104.594C21.0541 102.514 24.5941 100.724 28.2441 99.2037C33.9441 96.8337 39.9341 95.1437 46.0341 94.1537C36.8141 84.2737 26.8441 75.2537 15.6041 68.0737H15.5941Z" fill="#C8E4F7"/>
<path d="M128.254 11.2936C123.714 7.96363 117.294 9.83363 112.274 12.3936C107.254 14.9536 101.974 18.1936 96.4341 17.2336C90.9941 16.2836 87.1541 11.6036 82.8841 8.10363C72.7841 -0.196371 58.0141 -2.34637 45.9641 2.70363C37.3941 6.30363 30.4941 13.7836 26.2041 22.3936C26.4741 23.0936 26.7541 23.7936 27.0341 24.4936C26.7441 23.8036 26.4641 23.1036 26.2041 22.3936C23.9641 26.8936 22.4341 31.7036 21.7441 36.4336C20.1041 47.7336 18.8341 58.0936 15.5841 68.0736C26.8341 75.2536 36.7941 84.2736 46.0141 94.1536C52.6941 93.0636 59.5141 92.8036 66.2441 93.4036C67.2841 88.5336 68.5641 83.7036 70.0441 78.9436C63.3341 71.7336 56.1341 64.6136 49.4041 57.1936C56.8841 65.4336 64.9341 73.3136 72.2641 81.3436C72.8341 82.0136 73.4641 82.6236 74.1341 83.1936C89.1741 82.5436 103.894 83.8536 118.834 84.1436C118.254 83.1636 117.684 82.1736 117.194 81.1536C114.364 75.2136 114.564 68.2736 115.704 61.7936C117.244 53.0436 120.404 44.5836 124.984 36.9736C127.444 32.8836 130.354 28.9336 131.634 24.3336C132.914 19.7236 132.104 14.1136 128.244 11.2936H128.254ZM33.3041 36.5136C33.0741 36.1536 32.8541 35.7936 32.6341 35.4236C32.8541 35.7836 33.0741 36.1536 33.3041 36.5136ZM32.1241 34.5636C31.9041 34.1936 31.6941 33.8336 31.4841 33.4636C31.6941 33.8336 31.9041 34.2036 32.1241 34.5636ZM30.9941 32.6036C30.7841 32.2336 30.5841 31.8536 30.3841 31.4736C30.5841 31.8536 30.7841 32.2236 30.9941 32.6036ZM29.9141 30.6136C29.7141 30.2236 29.5141 29.8336 29.3241 29.4436C29.5241 29.8336 29.7141 30.2236 29.9141 30.6136ZM28.9041 28.6036C28.7041 28.1936 28.5141 27.7836 28.3241 27.3736C28.5141 27.7836 28.7041 28.2036 28.9041 28.6036ZM40.4541 46.6436C40.7441 47.0236 41.0441 47.3936 41.3441 47.7636C41.0441 47.3936 40.7541 47.0136 40.4541 46.6436ZM35.0841 39.2536C35.3241 39.6136 35.5641 39.9736 35.8141 40.3236C35.5741 39.9636 35.3241 39.6136 35.0841 39.2536ZM36.3641 41.1336C36.6141 41.4936 36.8641 41.8536 37.1241 42.2036C36.8641 41.8436 36.6141 41.4836 36.3641 41.1336ZM37.6941 42.9936C37.9541 43.3536 38.2241 43.7136 38.4941 44.0736C38.2241 43.7136 37.9641 43.3536 37.6941 42.9936ZM39.0641 44.8336C39.3441 45.2036 39.6241 45.5636 39.9041 45.9336C39.6241 45.5736 39.3441 45.2036 39.0641 44.8336ZM45.9341 53.2736C45.5641 52.8436 45.1941 52.4236 44.8341 51.9936C45.2041 52.4236 45.5641 52.8536 45.9341 53.2736ZM44.3641 51.4336C44.0241 51.0336 43.6841 50.6336 43.3541 50.2236C43.6841 50.6236 44.0241 51.0236 44.3641 51.4336ZM42.8341 49.6036C42.5141 49.2236 42.2041 48.8336 41.8941 48.4436C42.2041 48.8336 42.5241 49.2136 42.8341 49.6036ZM47.8741 55.4736C48.3541 56.0036 48.8241 56.5436 49.3041 57.0736C48.8241 56.5436 48.3441 56.0136 47.8741 55.4736ZM46.3441 53.7436C46.7541 54.2136 47.1641 54.6836 47.5741 55.1436C47.1641 54.6736 46.7441 54.2136 46.3441 53.7436Z" fill="#D9F3FF"/>
<path d="M122.264 92.4038C122.034 89.3938 120.404 86.7938 118.844 84.1538C103.904 83.8538 89.1841 82.5538 74.1441 83.2038C73.4741 82.6338 72.8541 82.0238 72.2741 81.3538C71.5441 80.5538 70.7941 79.7438 70.0541 78.9438C68.5741 83.7038 67.3042 88.5338 66.2542 93.4038C73.6342 94.0638 80.9141 95.7338 87.8041 98.4638C92.7741 100.434 97.6941 102.944 102.844 104.064C104.514 104.424 106.204 104.654 107.934 104.664C115.004 104.704 122.794 99.4538 122.254 92.4038H122.264ZM84.4041 89.5338C80.7941 87.4738 77.0641 85.7138 74.1441 83.1938C77.0641 85.7138 80.7941 87.4638 84.4041 89.5338ZM87.8041 91.6538C88.1341 91.8838 88.4642 92.1138 88.7942 92.3638C88.4742 92.1238 88.1441 91.8838 87.8041 91.6538ZM84.5641 89.6338C84.8441 89.7938 85.1241 89.9638 85.4041 90.1238C85.1241 89.9538 84.8441 89.7938 84.5641 89.6338ZM85.7242 90.3138C85.9642 90.4538 86.2041 90.6038 86.4341 90.7538C86.1941 90.6038 85.9642 90.4538 85.7242 90.3138ZM86.7841 90.9738C87.0241 91.1238 87.2542 91.2838 87.4842 91.4438C87.2542 91.2838 87.0141 91.1338 86.7841 90.9738Z" fill="#C8E4F7"/>
<path d="M42.3211 9.07844L36.4512 10.5845L38.7923 19.7089L44.6622 18.2029L42.3211 9.07844Z" fill="#AABFE0"/>
<path d="M45.5893 8.24456L42.3347 9.07959L44.6758 18.2041L47.9304 17.369L45.5893 8.24456Z" fill="#9EB4D7"/>
<path d="M43.7979 3.8797L35.6711 5.96479C34.5316 6.25714 33.8449 7.41786 34.1373 8.55732L34.6641 10.6108C34.9565 11.7503 36.1172 12.437 37.2567 12.1446L45.3834 10.0595C46.5229 9.76719 47.2096 8.60648 46.9172 7.46702L46.3904 5.41353C46.098 4.27407 44.9373 3.58735 43.7979 3.8797Z" fill="#C4D1EE"/>
<path d="M11.8886 33.4694L7.86603 40.2686L16.4037 45.3197L20.4263 38.5206L11.8886 33.4694Z" fill="#9EB4D7"/>
<path d="M15.9183 26.6688L11.8906 33.4766L20.4282 38.5277L24.456 31.72L15.9183 26.6688Z" fill="#AABFE0"/>
<path d="M4.6441 26.6032L2.37409 30.4332C-0.475908 35.2532 0.864094 41.3832 5.31409 44.6032L18.4841 22.3532C13.5241 20.0032 7.4941 21.7832 4.6441 26.6032Z" fill="#BFD4F0"/>
<path d="M53.3241 99.1932C76.4151 99.1932 95.1341 80.4743 95.1341 57.3832C95.1341 34.2922 76.4151 15.5732 53.3241 15.5732C30.2331 15.5732 11.5141 34.2922 11.5141 57.3832C11.5141 80.4743 30.2331 99.1932 53.3241 99.1932Z" fill="#7D9DC1"/>
<path d="M53.3241 94.9832C74.09 94.9832 90.9241 78.1491 90.9241 57.3832C90.9241 36.6173 74.09 19.7832 53.3241 19.7832C32.5582 19.7832 15.7241 36.6173 15.7241 57.3832C15.7241 78.1491 32.5582 94.9832 53.3241 94.9832Z" fill="#A9C3E5"/>
<path d="M53.3241 90.3331C71.5219 90.3331 86.2741 75.5809 86.2741 57.3831C86.2741 39.1853 71.5219 24.4331 53.3241 24.4331C35.1263 24.4331 20.3741 39.1853 20.3741 57.3831C20.3741 75.5809 35.1263 90.3331 53.3241 90.3331Z" fill="#E0E7F6"/>
<path d="M46.7847 28.9973C46.6859 28.6121 46.2935 28.38 45.9083 28.4788C45.5232 28.5776 45.291 28.97 45.3899 29.3551L46.6176 34.1401C46.7164 34.5253 47.1087 34.7574 47.4939 34.6586C47.8791 34.5598 48.1112 34.1674 48.0124 33.7823L46.7847 28.9973Z" fill="#7D9DC1"/>
<path d="M46.6135 34.1692C46.7123 34.5544 47.1047 34.7865 47.4898 34.6877C47.875 34.5889 48.1071 34.1965 48.0083 33.8114L46.7806 29.0264C46.6818 28.6412 46.2894 28.4091 45.9043 28.5079C45.5191 28.6067 45.287 28.9991 45.3858 29.3842L46.6135 34.1692Z" fill="#7D9DC1"/>
<path d="M60.0233 80.5905C59.9245 80.2053 59.5322 79.9732 59.147 80.072C58.7618 80.1709 58.5297 80.5632 58.6285 80.9484L59.8562 85.7334C59.955 86.1186 60.3474 86.3507 60.7326 86.2519C61.1177 86.1531 61.3499 85.7607 61.251 85.3755L60.0233 80.5905Z" fill="#7D9DC1"/>
<path d="M32.1664 45.7008C32.5087 45.9033 32.9503 45.79 33.1527 45.4478C33.3552 45.1056 33.2419 44.664 32.8997 44.4615L28.6481 41.9461C28.3058 41.7436 27.8642 41.8569 27.6618 42.1992C27.4593 42.5414 27.5726 42.983 27.9148 43.1854L32.1664 45.7008Z" fill="#7D9DC1"/>
<path d="M74.4677 69.0492C74.1255 68.8467 73.6839 68.96 73.4814 69.3022C73.2789 69.6444 73.3922 70.086 73.7345 70.2885L77.9861 72.8039C78.3283 73.0064 78.7699 72.8931 78.9724 72.5508C79.1749 72.2086 79.0616 71.767 78.7193 71.5646L74.4677 69.0492Z" fill="#7D9DC1"/>
<path d="M30.098 64.083C30.4832 63.9842 30.7153 63.5919 30.6165 63.2067C30.5177 62.8215 30.1253 62.5894 29.7402 62.6882L24.9551 63.9159C24.57 64.0147 24.3378 64.4071 24.4367 64.7923C24.5355 65.1774 24.9278 65.4096 25.313 65.3107L30.098 64.083Z" fill="#7D9DC1"/>
<path d="M63.7341 35.9932L52.4241 52.5132L57.5141 55.0232L63.7341 35.9932Z" fill="#7D9DC1"/>
<path d="M76.5294 50.6733C76.1443 50.7721 75.9121 51.1645 76.0109 51.5497C76.1098 51.9348 76.5021 52.167 76.8873 52.0681L81.6723 50.8404C82.0575 50.7416 82.2896 50.3493 82.1908 49.9641C82.092 49.5789 81.6996 49.3468 81.3144 49.4456L76.5294 50.6733Z" fill="#7D9DC1"/>
<path d="M41.6468 78.5321C41.8492 78.1899 41.736 77.7483 41.3937 77.5458C41.0515 77.3433 40.6099 77.4566 40.4074 77.7989L37.892 82.0505C37.6895 82.3927 37.8028 82.8343 38.1451 83.0368C38.4873 83.2393 38.9289 83.126 39.1314 82.7837L41.6468 78.5321Z" fill="#7D9DC1"/>
<path d="M53.3241 63.0534C56.4556 63.0534 58.9941 60.5148 58.9941 57.3834C58.9941 54.2519 56.4556 51.7134 53.3241 51.7134C50.1927 51.7134 47.6541 54.2519 47.6541 57.3834C47.6541 60.5148 50.1927 63.0534 53.3241 63.0534Z" fill="#A9C3E5"/>
<path d="M53.3241 60.4632C55.0252 60.4632 56.4041 59.0843 56.4041 57.3832C56.4041 55.6822 55.0252 54.3032 53.3241 54.3032C51.6231 54.3032 50.2441 55.6822 50.2441 57.3832C50.2441 59.0843 51.6231 60.4632 53.3241 60.4632Z" fill="#7D9DC1"/>
<path d="M64.9954 36.2311C64.793 36.5733 64.9063 37.0149 65.2485 37.2174C65.5907 37.4198 66.0323 37.3066 66.2348 36.9643L68.7502 32.7127C68.9527 32.3705 68.8394 31.9289 68.4971 31.7264C68.1549 31.5239 67.7133 31.6372 67.5108 31.9795L64.9954 36.2311Z" fill="#7D9DC1"/>
<path d="M81.1341 90.4834C81.3941 90.5734 92.4441 90.9134 92.4441 90.9134L102.614 90.6934L91.8741 89.9634L81.1341 90.4834Z" fill="#E8CB9C"/>
<path d="M128.454 74.8833H128.334C128.334 74.8833 128.414 74.8833 128.454 74.8933V74.8833Z" fill="#696969"/>
<path d="M79.3241 77.1733C77.5541 77.1733 76.1141 78.6133 76.1141 80.3833V91.1233C76.1141 92.8933 77.5541 94.3333 79.3241 94.3333H123.874C123.964 94.3133 124.054 94.2933 124.154 94.2933H128.214C126.844 91.9933 126.014 89.0133 126.014 85.7533C126.014 82.4933 126.854 79.4833 128.234 77.1733H79.3241ZM109.424 80.3233C109.424 80.3233 91.4541 79.9833 91.0241 79.8933L108.494 79.3733L125.964 80.1033L109.414 80.3233H109.424Z" fill="#E3EAF0"/>
<path d="M91.024 79.8935C91.454 79.9835 109.424 80.3235 109.424 80.3235L125.974 80.1035L108.504 79.3735L91.0341 79.8935H91.024Z" fill="#C4C9CE"/>
<path d="M100.284 88.8836C100.594 88.9536 113.804 89.2336 113.804 89.2336L125.964 89.0536L113.124 88.4536L100.284 88.8736V88.8836Z" fill="#C4C9CE"/>
<path d="M89.644 91.5636C89.824 91.6236 97.3541 91.8536 97.3541 91.8536L104.284 91.7136L96.9641 91.2236L89.644 91.5636Z" fill="#C4C9CE"/>
<path d="M80.8041 88.2937C80.9441 88.3337 86.7441 88.5137 86.7441 88.5137L92.0841 88.4037L86.4441 88.0337L80.8041 88.2937Z" fill="#C4C9CE"/>
<path d="M128.334 96.5735H124.154C123.524 96.5735 123.004 96.0535 123.004 95.4235C123.004 94.8935 123.374 94.4435 123.874 94.3135H79.3241C77.5541 94.3135 76.1141 92.8735 76.1141 91.1035V80.3635C76.1141 78.5935 77.5541 77.1535 79.3241 77.1535H124.154C123.524 77.1535 123.004 76.6335 123.004 76.0035C123.004 75.3735 123.524 74.8535 124.154 74.8535H79.3241C76.3041 74.8535 73.8241 77.3235 73.8241 80.3535V91.0935C73.8241 94.1135 76.2941 96.5935 79.3241 96.5935H128.454V96.5435C128.454 96.5435 128.374 96.5535 128.334 96.5535V96.5735Z" fill="#7D9DC1"/>
<path d="M128.234 77.1736H128.334C128.964 77.1736 129.484 76.6536 129.484 76.0236C129.484 75.4336 129.034 74.9536 128.464 74.8936V76.8336C128.394 76.9436 128.314 77.0636 128.244 77.1736H128.234Z" fill="#7D9DC1"/>
<path d="M123.014 76.0233C123.014 76.6533 123.534 77.1733 124.164 77.1733H128.244C128.314 77.0533 128.394 76.9433 128.464 76.8333V74.8933C128.464 74.8933 128.384 74.8833 128.344 74.8833H124.164C123.534 74.8833 123.014 75.4033 123.014 76.0333V76.0233Z" fill="#7D9DC1"/>
<path d="M128.334 94.3237H128.234C128.304 94.4437 128.384 94.5537 128.454 94.6637V96.6037C129.024 96.5437 129.474 96.0537 129.474 95.4737C129.474 94.8437 128.954 94.3237 128.324 94.3237H128.334Z" fill="#7D9DC1"/>
<path d="M123.884 94.3237C123.384 94.4437 123.014 94.8937 123.014 95.4337C123.014 96.0637 123.534 96.5837 124.164 96.5837H128.344C128.344 96.5837 128.424 96.5837 128.464 96.5737V94.6737C128.394 94.5637 128.314 94.4437 128.244 94.3337H123.884V94.3237Z" fill="#7D9DC1"/>
<path d="M123.884 94.3237H128.244C128.244 94.3237 128.234 94.2937 128.224 94.2837H124.164C124.064 94.2837 123.974 94.3037 123.884 94.3237Z" fill="#F6E1B7"/>
<path d="M88.8041 97.8535C87.5241 94.6635 87.5441 91.4835 88.8741 88.2935H82.2841C81.2041 91.5435 81.2041 94.7835 82.2841 98.0335H82.4141C84.1841 94.8735 86.3141 97.0135 88.8041 97.8535Z" fill="#67617D"/>
<path d="M125.704 63.6636H76.5841V74.8936H125.704V63.6636Z" fill="#AABFE0"/>
<path d="M83.4641 63.6636H80.6241V74.8936H83.4641V63.6636Z" fill="#7D9DC1"/>
<path d="M121.644 63.6636H118.804V74.8936H121.644V63.6636Z" fill="#7D9DC1"/>
<path d="M78.2841 54.6836H123.984C126.674 54.6836 128.854 56.8636 128.854 59.5536V60.0536H72.9141C72.9141 57.0936 75.3241 54.6836 78.2841 54.6836Z" fill="#AABFE0"/>
<path d="M82.2841 56.3638H110.074C111.924 56.3638 113.424 57.8638 113.424 59.7138V60.0538H78.6041C78.6041 58.0138 80.2541 56.3638 82.2941 56.3638H82.2841Z" fill="white"/>
<path d="M119.404 56.7036H119.534C121.384 56.7036 122.884 58.2036 122.884 60.0536H116.054C116.054 58.2036 117.554 56.7036 119.404 56.7036Z" fill="white"/>
<path d="M72.9241 60.0537H128.864V60.4437C128.864 62.5437 127.154 64.2537 125.054 64.2537H77.1241C74.8041 64.2537 72.9241 62.3737 72.9241 60.0537Z" fill="#9EB4D7"/>
<path d="M78.6041 60.0537H113.424V60.3237C113.424 61.7637 112.254 62.9437 110.804 62.9437H81.4841C79.8941 62.9437 78.5941 61.6537 78.5941 60.0537H78.6041Z" fill="#E3EAF0"/>
<path d="M116.064 60.0537H122.894C122.894 61.6837 121.564 63.0137 119.934 63.0137H119.024C117.394 63.0137 116.064 61.6837 116.064 60.0537Z" fill="#E3EAF0"/>
</svg>
