<svg width="126" height="109" viewBox="0 0 126 109" fill="none" xmlns="http://www.w3.org/2000/svg">
<path d="M49.19 102.175L21.88 83.6252C21.2 89.0352 22.1 94.0852 24.84 98.2852C33.93 112.295 59.74 111.675 82.5 96.9152C93.13 90.0152 101.21 81.2552 105.88 72.4552C107.87 70.4452 109.5 68.1651 110.66 65.5751C113.67 58.8951 113.26 51.2352 110.1 43.5352L84.46 50.2652L49.19 102.175Z" fill="#C8E4F7"/>
<path d="M71.61 7.96528C41.76 -5.48472 10.86 -1.49471 2.58001 16.8653C-2.03999 27.1253 1.38002 39.6953 10.49 51.1453C10.7 50.9653 11 50.9353 11.24 51.0953L11.7 51.4053L13.04 49.4353L12.58 49.1253C12.29 48.9253 12.22 48.5353 12.41 48.2453L12.54 48.0453C12.74 47.7553 13.13 47.6853 13.42 47.8753L13.88 48.1853L15.22 46.2153L14.76 45.9053C14.47 45.7053 14.4 45.3153 14.59 45.0253L14.72 44.8253C14.92 44.5353 15.31 44.4653 15.6 44.6553L16.06 44.9653L17.4 42.9953L16.94 42.6853C16.65 42.4853 16.58 42.0953 16.77 41.8053L16.9 41.6053C17.1 41.3153 17.49 41.2453 17.78 41.4353L18.24 41.7453L19.58 39.7753L19.12 39.4653C18.83 39.2653 18.76 38.8753 18.95 38.5853L19.08 38.3853C19.28 38.0953 19.67 38.0253 19.96 38.2153L20.42 38.5253L21.76 36.5553L21.3 36.2453C21.01 36.0453 20.94 35.6553 21.13 35.3653L21.26 35.1653C21.46 34.8753 21.85 34.8053 22.14 34.9953L22.6 35.3053L23.94 33.3353L23.48 33.0253C23.19 32.8253 23.12 32.4353 23.31 32.1453L23.44 31.9453C23.64 31.6553 24.03 31.5853 24.32 31.7753L24.78 32.0853L26.12 30.1153L25.66 29.8053C25.37 29.6053 25.3 29.2153 25.49 28.9253L25.62 28.7253C25.82 28.4353 26.21 28.3653 26.5 28.5553L26.96 28.8653L28.3 26.8953L27.84 26.5853C27.55 26.3853 27.48 25.9953 27.67 25.7053L27.8 25.5053C28 25.2153 28.39 25.1453 28.68 25.3353L29.14 25.6453L30.48 23.6753L29.99 23.3453C29.72 23.1553 29.65 22.7853 29.83 22.5153L30 22.2653C30.19 21.9953 30.56 21.9253 30.83 22.1053L31.32 22.4353L32.66 20.4653L32.17 20.1353C31.9 19.9453 31.83 19.5753 32.01 19.3053L32.18 19.0553C32.37 18.7853 32.74 18.7153 33.01 18.8953L33.5 19.2253L34.84 17.2553L34.35 16.9253C34.08 16.7353 34.01 16.3653 34.19 16.0953L34.36 15.8453C34.55 15.5753 34.92 15.5053 35.19 15.6853L35.68 16.0153L37.02 14.0453L36.53 13.7153C36.26 13.5253 36.19 13.1553 36.37 12.8853L36.54 12.6353C36.73 12.3653 37.1 12.2953 37.37 12.4753L37.86 12.8053L39.2 10.8353L38.71 10.5053C38.44 10.3153 38.37 9.94529 38.55 9.67529L38.72 9.42529C38.91 9.15529 39.28 9.08529 39.55 9.26529L40.04 9.59529L43.18 4.96528L86.39 34.3253L86.62 34.4753C89.48 30.5553 92.42 26.8053 94.46 22.5853C88.14 16.9553 80.4 11.8853 71.57 7.90528L71.61 7.96528Z" fill="#C8ECF7"/>
<path d="M105.51 35.0452C102.61 30.7452 98.9 26.5553 94.5 22.6353C92.46 26.8553 89.52 30.6153 86.66 34.5253L92.46 38.4652L105.51 35.0352V35.0452Z" fill="#C8E4F7"/>
<path d="M28.27 67.1252C23.12 63.7152 18.58 59.9353 14.72 55.9453C14.63 55.9053 14.55 55.8653 14.46 55.8053C14.21 55.6353 14.04 55.3953 13.95 55.1353C13.62 54.7853 13.3 54.4352 12.98 54.0752L10.87 52.6353L9.53 54.6052L12.52 56.6353C12.93 56.4553 13.42 56.4852 13.82 56.7552C14.44 57.1752 14.6 58.0252 14.18 58.6452C13.76 59.2652 12.91 59.4252 12.29 59.0052C11.9 58.7452 11.7 58.3153 11.7 57.8853L8.70001 55.8452L7.36 57.8152L10.35 59.8452C10.76 59.6652 11.25 59.6952 11.65 59.9652C12.27 60.3852 12.43 61.2352 12.01 61.8552C11.59 62.4752 10.74 62.6352 10.12 62.2152C9.73001 61.9552 9.53 61.5252 9.53 61.0952L6.53 59.0553L5.19 61.0253L8.25 63.1052C8.66 62.9252 9.15 62.9553 9.55 63.2253C10.17 63.6453 10.33 64.4952 9.91 65.1152C9.49 65.7352 8.64 65.8953 8.02 65.4753C7.63 65.2153 7.43001 64.7852 7.43001 64.3552L4.36 62.2652L3.02 64.2352L6.15001 66.3652C6.56001 66.1852 7.05001 66.2152 7.45001 66.4852C8.07001 66.9052 8.23 67.7552 7.81 68.3752C7.39 68.9952 6.54 69.1552 5.92 68.7352C5.53 68.4752 5.33 68.0452 5.33 67.6152L2.19 65.4753L0 68.6953L20.83 82.8452C21.25 82.7552 21.67 82.6453 22.09 82.5453C22.9 77.5453 25.04 72.2652 28.33 67.0952L28.27 67.1252Z" fill="#FFF5DC"/>
<path d="M65.51 52.6554L61.62 52.5254C60.32 52.3354 60.15 51.8054 61.2 50.9254L71.24 44.2354L71.7 43.9354L82.06 41.2154C83.61 38.9954 85.08 36.7254 86.45 34.3854L43.24 5.02539L40.1 9.65538L43.09 11.6854C43.5 11.5154 43.99 11.5354 44.39 11.8054C45.01 12.2254 45.17 13.0754 44.75 13.6954C44.33 14.3154 43.48 14.4754 42.86 14.0554C42.47 13.7954 42.27 13.3654 42.27 12.9354L39.27 10.8954L37.93 12.8654L40.92 14.8954C41.33 14.7154 41.82 14.7454 42.22 15.0154C42.84 15.4354 43 16.2854 42.58 16.9054C42.16 17.5254 41.31 17.6854 40.69 17.2654C40.3 17.0054 40.1 16.5754 40.1 16.1454L37.1 14.1054L35.76 16.0754L38.75 18.1054C39.16 17.9254 39.65 17.9554 40.05 18.2254C40.67 18.6454 40.83 19.4954 40.41 20.1154C39.99 20.7354 39.14 20.8954 38.52 20.4754C38.13 20.2154 37.93 19.7854 37.93 19.3554L34.93 17.3154L33.59 19.2854L36.58 21.3154C36.99 21.1354 37.48 21.1654 37.88 21.4354C38.5 21.8554 38.66 22.7054 38.24 23.3254C37.82 23.9454 36.97 24.1054 36.35 23.6854C35.96 23.4254 35.76 22.9954 35.76 22.5654L32.76 20.5254L31.42 22.4954L34.41 24.5254C34.82 24.3454 35.31 24.3754 35.71 24.6454C36.33 25.0654 36.49 25.9154 36.07 26.5354C35.65 27.1554 34.8 27.3154 34.18 26.8954C33.79 26.6354 33.59 26.2054 33.59 25.7754L30.59 23.7354L29.25 25.7054L32.24 27.7354C32.65 27.5554 33.14 27.5854 33.54 27.8554C34.16 28.2754 34.32 29.1254 33.9 29.7454C33.48 30.3654 32.63 30.5254 32.01 30.1054C31.62 29.8454 31.42 29.4154 31.42 28.9854L28.42 26.9454L27.08 28.9154L30.07 30.9454C30.48 30.7654 30.97 30.7954 31.37 31.0654C31.99 31.4854 32.15 32.3354 31.73 32.9554C31.31 33.5754 30.46 33.7354 29.84 33.3154C29.45 33.0554 29.25 32.6254 29.25 32.1954L26.25 30.1554L24.91 32.1254L27.9 34.1554C28.31 33.9754 28.8 34.0054 29.2 34.2754C29.82 34.6954 29.98 35.5454 29.56 36.1654C29.14 36.7854 28.29 36.9454 27.67 36.5254C27.28 36.2654 27.08 35.8354 27.08 35.4054L24.08 33.3654L22.74 35.3354L25.73 37.3654C26.14 37.1954 26.63 37.2154 27.03 37.4854C27.65 37.9054 27.81 38.7554 27.39 39.3754C26.97 39.9954 26.12 40.1554 25.5 39.7354C25.11 39.4754 24.91 39.0454 24.91 38.6154L21.91 36.5754L20.57 38.5454L23.56 40.5754C23.97 40.3954 24.46 40.4254 24.86 40.6954C25.48 41.1154 25.64 41.9654 25.22 42.5854C24.8 43.2054 23.95 43.3654 23.33 42.9454C22.94 42.6854 22.74 42.2554 22.74 41.8254L19.74 39.7854L18.4 41.7554L21.39 43.7854C21.8 43.6054 22.29 43.6354 22.69 43.9054C23.31 44.3254 23.47 45.1754 23.05 45.7954C22.63 46.4154 21.78 46.5754 21.16 46.1554C20.77 45.8954 20.57 45.4654 20.57 45.0354L17.57 42.9954L16.23 44.9654L19.22 46.9954C19.63 46.8154 20.12 46.8454 20.52 47.1154C21.14 47.5354 21.3 48.3854 20.88 49.0054C20.46 49.6254 19.61 49.7854 18.99 49.3654C18.6 49.1054 18.4 48.6754 18.4 48.2454L15.4 46.2054L14.06 48.1754L17.05 50.2054C17.46 50.0354 17.95 50.0554 18.35 50.3254C18.97 50.7454 19.13 51.5954 18.71 52.2154C18.29 52.8354 17.44 52.9954 16.82 52.5754C16.43 52.3154 16.23 51.8854 16.23 51.4554L13.23 49.4154L11.89 51.3854L14.88 53.4154C15.29 53.2354 15.78 53.2654 16.18 53.5354C16.8 53.9554 16.96 54.8054 16.54 55.4254C16.17 55.9654 15.49 56.1554 14.91 55.9254C18.77 59.9154 23.32 63.6954 28.46 67.1054C25.17 72.2754 23.04 77.5554 22.22 82.5554C41.67 77.9554 59.25 67.2954 72.77 52.8654L65.71 52.6354L65.51 52.6554Z" fill="#FFF5DC"/>
<path d="M71.82 46.2352L79.95 44.0952L71.82 46.2352Z" fill="#FFF5DC"/>
<path d="M12.98 54.0854C13.3 54.4354 13.62 54.7954 13.95 55.1454C13.9 54.9954 13.87 54.8454 13.87 54.6954L12.98 54.0954V54.0854Z" fill="#FFF5DC"/>
<path d="M20.78 82.8752L21.89 83.6252C21.93 83.2752 21.98 82.9252 22.04 82.5752C21.62 82.6752 21.2 82.7752 20.78 82.8752Z" fill="#F5EBDC"/>
<path d="M92.46 38.4753L86.44 34.3853C85.07 36.7153 83.6 38.9952 82.05 41.2152L92.46 38.4852V38.4753Z" fill="#F5EBDC"/>
<path d="M84.45 50.2651L74.28 52.9351L73.51 52.9151L72.57 52.8851C59.05 67.3151 41.47 77.9751 22.02 82.5751C21.96 82.9251 21.91 83.2751 21.87 83.6251L49.18 102.175L84.45 50.2651Z" fill="#F5EBDC"/>
<path d="M43.67 12.8152L43.5 13.0652C43.31 13.3352 42.94 13.4052 42.67 13.2252L42.24 12.9352C42.24 13.3652 42.45 13.7952 42.83 14.0552C43.45 14.4752 44.3 14.3152 44.72 13.6952C45.14 13.0752 44.98 12.2252 44.36 11.8052C43.96 11.5352 43.48 11.5052 43.06 11.6852L43.51 11.9852C43.78 12.1752 43.85 12.5452 43.67 12.8152Z" fill="#666666"/>
<path d="M39.59 9.31549C39.32 9.12549 38.94 9.2055 38.76 9.4755L38.59 9.7255C38.4 9.9955 38.48 10.3755 38.75 10.5555L39.24 10.8855L40.08 9.64549L39.59 9.31549Z" fill="#999999"/>
<path d="M42.48 12.1653C42.63 11.9453 42.84 11.7753 43.07 11.6853L40.08 9.65527L39.24 10.8953L42.24 12.9353C42.24 12.6753 42.32 12.4053 42.47 12.1753L42.48 12.1653Z" fill="#999999"/>
<path d="M42.48 12.1653C42.32 12.3953 42.25 12.6653 42.25 12.9253L42.68 13.2153C42.95 13.4053 43.33 13.3253 43.51 13.0553L43.68 12.8053C43.87 12.5353 43.79 12.1553 43.52 11.9753L43.07 11.6753C42.84 11.7753 42.63 11.9353 42.48 12.1553V12.1653Z" fill="#999999"/>
<path d="M41.49 16.0252L41.32 16.2752C41.13 16.5452 40.76 16.6152 40.49 16.4352L40.06 16.1452C40.06 16.5752 40.27 17.0052 40.65 17.2652C41.27 17.6852 42.12 17.5252 42.54 16.9052C42.96 16.2852 42.8 15.4352 42.18 15.0152C41.78 14.7452 41.3 14.7152 40.88 14.8952L41.33 15.1952C41.6 15.3852 41.67 15.7552 41.49 16.0252Z" fill="#666666"/>
<path d="M37.41 12.5255C37.14 12.3355 36.76 12.4154 36.58 12.6854L36.41 12.9354C36.22 13.2054 36.3 13.5854 36.57 13.7654L37.06 14.0954L37.9 12.8554L37.41 12.5255Z" fill="#999999"/>
<path d="M40.29 15.3752C40.44 15.1552 40.65 14.9852 40.88 14.8952L37.89 12.8652L37.05 14.1052L40.05 16.1452C40.05 15.8852 40.13 15.6152 40.28 15.3852L40.29 15.3752Z" fill="#999999"/>
<path d="M40.29 15.3752C40.13 15.6052 40.06 15.8753 40.06 16.1353L40.49 16.4252C40.76 16.6152 41.14 16.5352 41.32 16.2652L41.49 16.0152C41.68 15.7452 41.6 15.3652 41.33 15.1852L40.88 14.8853C40.65 14.9853 40.44 15.1452 40.29 15.3652V15.3752Z" fill="#999999"/>
<path d="M39.31 19.2352L39.14 19.4852C38.95 19.7552 38.58 19.8252 38.31 19.6452L37.88 19.3552C37.88 19.7852 38.09 20.2152 38.47 20.4752C39.09 20.8952 39.94 20.7352 40.36 20.1152C40.78 19.4952 40.62 18.6452 40 18.2252C39.6 17.9552 39.12 17.9252 38.7 18.1052L39.15 18.4052C39.42 18.5952 39.49 18.9652 39.31 19.2352Z" fill="#666666"/>
<path d="M35.23 15.7452C34.96 15.5552 34.58 15.6352 34.4 15.9052L34.23 16.1552C34.04 16.4252 34.12 16.8052 34.39 16.9852L34.88 17.3152L35.72 16.0752L35.23 15.7452Z" fill="#999999"/>
<path d="M38.11 18.5852C38.26 18.3652 38.47 18.1952 38.7 18.1052L35.71 16.0752L34.87 17.3152L37.87 19.3552C37.87 19.0952 37.95 18.8252 38.1 18.5952L38.11 18.5852Z" fill="#999999"/>
<path d="M38.11 18.5852C37.95 18.8152 37.88 19.0852 37.88 19.3452L38.31 19.6352C38.58 19.8252 38.96 19.7452 39.14 19.4752L39.31 19.2252C39.5 18.9552 39.42 18.5752 39.15 18.3952L38.7 18.0952C38.47 18.1952 38.26 18.3552 38.11 18.5752V18.5852Z" fill="#999999"/>
<path d="M37.13 22.4554L36.96 22.7054C36.77 22.9754 36.4 23.0454 36.13 22.8654L35.7 22.5754C35.7 23.0054 35.91 23.4354 36.29 23.6954C36.91 24.1154 37.76 23.9554 38.18 23.3354C38.6 22.7154 38.44 21.8654 37.82 21.4454C37.42 21.1754 36.94 21.1454 36.52 21.3254L36.97 21.6254C37.24 21.8154 37.31 22.1854 37.13 22.4554Z" fill="#666666"/>
<path d="M33.04 18.9551C32.77 18.7651 32.39 18.8451 32.21 19.1151L32.04 19.3651C31.85 19.6351 31.93 20.0151 32.2 20.1951L32.69 20.5251L33.53 19.2851L33.04 18.9551Z" fill="#999999"/>
<path d="M35.93 21.7952C36.08 21.5752 36.29 21.4052 36.52 21.3152L33.53 19.2852L32.69 20.5252L35.69 22.5652C35.69 22.3052 35.77 22.0352 35.92 21.8052L35.93 21.7952Z" fill="#999999"/>
<path d="M35.93 21.7952C35.77 22.0252 35.7 22.2952 35.7 22.5552L36.13 22.8452C36.4 23.0352 36.78 22.9552 36.96 22.6852L37.13 22.4352C37.32 22.1652 37.24 21.7852 36.97 21.6052L36.52 21.3052C36.29 21.4052 36.08 21.5652 35.93 21.7852V21.7952Z" fill="#999999"/>
<path d="M34.94 25.6653L34.77 25.9153C34.58 26.1853 34.21 26.2553 33.94 26.0753L33.51 25.7853C33.51 26.2153 33.72 26.6453 34.1 26.9053C34.72 27.3253 35.57 27.1653 35.99 26.5453C36.41 25.9253 36.25 25.0753 35.63 24.6553C35.23 24.3853 34.75 24.3553 34.33 24.5353L34.78 24.8353C35.05 25.0253 35.12 25.3953 34.94 25.6653Z" fill="#666666"/>
<path d="M30.86 22.1651C30.59 21.9751 30.21 22.0551 30.03 22.3251L29.86 22.5751C29.67 22.8451 29.75 23.2251 30.02 23.4051L30.51 23.7351L31.35 22.4951L30.86 22.1651Z" fill="#999999"/>
<path d="M33.75 25.0154C33.9 24.7954 34.11 24.6254 34.34 24.5354L31.35 22.5054L30.51 23.7454L33.51 25.7854C33.51 25.5254 33.59 25.2554 33.74 25.0254L33.75 25.0154Z" fill="#999999"/>
<path d="M33.75 25.0154C33.59 25.2454 33.52 25.5154 33.52 25.7754L33.95 26.0654C34.22 26.2554 34.6 26.1754 34.78 25.9054L34.95 25.6554C35.14 25.3854 35.06 25.0054 34.79 24.8254L34.34 24.5254C34.11 24.6254 33.9 24.7854 33.75 25.0054V25.0154Z" fill="#999999"/>
<path d="M32.74 28.9053L32.61 29.1053C32.41 29.3953 32.02 29.4653 31.73 29.2753L31.32 28.9953C31.32 29.4253 31.53 29.8553 31.91 30.1153C32.53 30.5353 33.38 30.3753 33.8 29.7553C34.22 29.1353 34.06 28.2853 33.44 27.8653C33.04 27.5953 32.56 27.5653 32.14 27.7453L32.56 28.0353C32.85 28.2353 32.92 28.6253 32.73 28.9153L32.74 28.9053Z" fill="#666666"/>
<path d="M28.7 25.3952C28.41 25.1952 28.02 25.2752 27.82 25.5652L27.69 25.7652C27.49 26.0552 27.57 26.4452 27.86 26.6452L28.32 26.9552L29.16 25.7152L28.7 25.4052V25.3952Z" fill="#999999"/>
<path d="M31.56 28.2253C31.71 28.0053 31.92 27.8353 32.15 27.7453L29.16 25.7153L28.32 26.9553L31.32 28.9953C31.32 28.7353 31.4 28.4653 31.55 28.2353L31.56 28.2253Z" fill="#999999"/>
<path d="M31.56 28.2251C31.4 28.4551 31.33 28.7251 31.33 28.9851L31.74 29.2651C32.03 29.4651 32.42 29.3851 32.62 29.0951L32.75 28.8951C32.95 28.6051 32.87 28.2151 32.58 28.0151L32.16 27.7251C31.93 27.8251 31.72 27.9851 31.57 28.2051L31.56 28.2251Z" fill="#999999"/>
<path d="M30.56 32.1153L30.43 32.3153C30.23 32.6053 29.84 32.6753 29.55 32.4853L29.14 32.2053C29.14 32.6353 29.35 33.0652 29.73 33.3252C30.35 33.7452 31.2 33.5852 31.62 32.9652C32.04 32.3452 31.88 31.4952 31.26 31.0752C30.86 30.8052 30.38 30.7753 29.96 30.9553L30.38 31.2452C30.67 31.4452 30.74 31.8353 30.55 32.1253L30.56 32.1153Z" fill="#666666"/>
<path d="M26.52 28.6052C26.23 28.4052 25.84 28.4852 25.64 28.7752L25.51 28.9752C25.31 29.2652 25.39 29.6552 25.68 29.8552L26.14 30.1652L26.98 28.9252L26.52 28.6152V28.6052Z" fill="#999999"/>
<path d="M29.38 31.4353C29.53 31.2153 29.74 31.0553 29.97 30.9553L26.98 28.9253L26.14 30.1653L29.14 32.2053C29.14 31.9453 29.22 31.6753 29.37 31.4453L29.38 31.4353Z" fill="#999999"/>
<path d="M29.38 31.4351C29.22 31.6651 29.15 31.9351 29.15 32.1951L29.56 32.4751C29.85 32.6751 30.24 32.5951 30.44 32.3051L30.57 32.1051C30.77 31.8151 30.69 31.4251 30.4 31.2251L29.98 30.9351C29.75 31.0351 29.54 31.1951 29.39 31.4151L29.38 31.4351Z" fill="#999999"/>
<path d="M28.38 35.3252L28.25 35.5252C28.05 35.8152 27.66 35.8852 27.37 35.6952L26.96 35.4152C26.96 35.8452 27.17 36.2752 27.55 36.5352C28.17 36.9552 29.02 36.7952 29.44 36.1752C29.86 35.5552 29.7 34.7052 29.08 34.2852C28.68 34.0152 28.2 33.9852 27.78 34.1652L28.2 34.4552C28.49 34.6552 28.56 35.0452 28.37 35.3352L28.38 35.3252Z" fill="#666666"/>
<path d="M24.34 31.8254C24.05 31.6254 23.66 31.7054 23.46 31.9954L23.33 32.1954C23.13 32.4854 23.21 32.8754 23.5 33.0754L23.96 33.3854L24.8 32.1454L24.34 31.8354V31.8254Z" fill="#999999"/>
<path d="M27.2 34.6452C27.35 34.4252 27.56 34.2553 27.79 34.1653L24.8 32.1353L23.96 33.3752L26.96 35.4153C26.96 35.1553 27.04 34.8852 27.19 34.6552L27.2 34.6452Z" fill="#999999"/>
<path d="M27.2 34.6455C27.04 34.8755 26.97 35.1455 26.97 35.4055L27.38 35.6855C27.67 35.8855 28.06 35.8055 28.26 35.5155L28.39 35.3155C28.59 35.0255 28.51 34.6355 28.22 34.4355L27.8 34.1455C27.57 34.2455 27.36 34.4055 27.21 34.6255L27.2 34.6455Z" fill="#999999"/>
<path d="M26.2 38.5352L26.07 38.7352C25.87 39.0252 25.48 39.0952 25.19 38.9052L24.78 38.6252C24.78 39.0552 24.99 39.4852 25.37 39.7452C25.99 40.1652 26.84 40.0052 27.26 39.3852C27.68 38.7652 27.52 37.9152 26.9 37.4952C26.5 37.2252 26.02 37.1952 25.6 37.3752L26.02 37.6652C26.31 37.8652 26.38 38.2552 26.19 38.5452L26.2 38.5352Z" fill="#666666"/>
<path d="M22.16 35.0354C21.87 34.8354 21.48 34.9154 21.28 35.2054L21.15 35.4054C20.95 35.6954 21.03 36.0854 21.32 36.2854L21.78 36.5954L22.62 35.3554L22.16 35.0454V35.0354Z" fill="#999999"/>
<path d="M25.01 37.8655C25.16 37.6455 25.37 37.4755 25.6 37.3855L22.61 35.3555L21.77 36.5955L24.77 38.6355C24.77 38.3755 24.85 38.1055 25 37.8755L25.01 37.8655Z" fill="#999999"/>
<path d="M25.01 37.8652C24.85 38.0952 24.78 38.3652 24.78 38.6252L25.19 38.9052C25.48 39.1052 25.87 39.0252 26.07 38.7352L26.2 38.5352C26.4 38.2452 26.32 37.8552 26.03 37.6552L25.61 37.3652C25.38 37.4652 25.17 37.6252 25.02 37.8452L25.01 37.8652Z" fill="#999999"/>
<path d="M24.01 41.7554L23.88 41.9554C23.68 42.2454 23.29 42.3154 23 42.1254L22.59 41.8454C22.59 42.2754 22.8 42.7054 23.18 42.9654C23.8 43.3854 24.65 43.2254 25.07 42.6054C25.49 41.9854 25.33 41.1354 24.71 40.7154C24.31 40.4454 23.83 40.4154 23.41 40.5954L23.83 40.8854C24.12 41.0854 24.19 41.4754 24 41.7654L24.01 41.7554Z" fill="#666666"/>
<path d="M19.97 38.2453C19.68 38.0453 19.29 38.1253 19.09 38.4153L18.96 38.6153C18.76 38.9053 18.84 39.2953 19.13 39.4953L19.59 39.8053L20.43 38.5653L19.97 38.2553V38.2453Z" fill="#999999"/>
<path d="M22.83 41.0754C22.98 40.8554 23.19 40.6854 23.42 40.5954L20.43 38.5654L19.59 39.8054L22.59 41.8454C22.59 41.5854 22.67 41.3154 22.82 41.0854L22.83 41.0754Z" fill="#999999"/>
<path d="M22.83 41.0752C22.67 41.3052 22.6 41.5752 22.6 41.8352L23.01 42.1152C23.3 42.3152 23.69 42.2352 23.89 41.9452L24.02 41.7452C24.22 41.4552 24.14 41.0652 23.85 40.8652L23.43 40.5752C23.2 40.6752 22.99 40.8352 22.84 41.0552L22.83 41.0752Z" fill="#999999"/>
<path d="M21.83 44.9653L21.7 45.1654C21.5 45.4554 21.11 45.5254 20.82 45.3354L20.41 45.0554C20.41 45.4854 20.62 45.9153 21 46.1753C21.62 46.5953 22.47 46.4353 22.89 45.8153C23.31 45.1953 23.15 44.3453 22.53 43.9253C22.13 43.6553 21.65 43.6254 21.23 43.8054L21.65 44.0953C21.94 44.2953 22.01 44.6853 21.82 44.9753L21.83 44.9653Z" fill="#666666"/>
<path d="M17.79 41.4553C17.5 41.2553 17.11 41.3353 16.91 41.6253L16.78 41.8253C16.58 42.1153 16.66 42.5053 16.95 42.7053L17.41 43.0153L18.25 41.7753L17.79 41.4653V41.4553Z" fill="#999999"/>
<path d="M20.65 44.2854C20.8 44.0654 21.01 43.8954 21.24 43.8054L18.25 41.7754L17.41 43.0154L20.41 45.0554C20.41 44.7954 20.49 44.5254 20.64 44.2954L20.65 44.2854Z" fill="#999999"/>
<path d="M20.65 44.2852C20.49 44.5152 20.42 44.7852 20.42 45.0452L20.83 45.3251C21.12 45.5251 21.51 45.4452 21.71 45.1552L21.84 44.9552C22.04 44.6652 21.96 44.2751 21.67 44.0751L21.25 43.7852C21.02 43.8852 20.81 44.0452 20.66 44.2652L20.65 44.2852Z" fill="#999999"/>
<path d="M19.65 48.1753L19.52 48.3753C19.32 48.6653 18.93 48.7353 18.64 48.5453L18.23 48.2653C18.23 48.6953 18.44 49.1253 18.82 49.3853C19.44 49.8053 20.29 49.6453 20.71 49.0253C21.13 48.4053 20.97 47.5553 20.35 47.1353C19.95 46.8653 19.47 46.8353 19.05 47.0153L19.47 47.3053C19.76 47.5053 19.83 47.8953 19.64 48.1853L19.65 48.1753Z" fill="#666666"/>
<path d="M15.61 44.6755C15.32 44.4755 14.93 44.5555 14.73 44.8455L14.6 45.0455C14.4 45.3355 14.48 45.7255 14.77 45.9255L15.23 46.2355L16.07 44.9955L15.61 44.6855V44.6755Z" fill="#999999"/>
<path d="M18.47 47.4953C18.62 47.2753 18.83 47.1054 19.06 47.0154L16.07 44.9854L15.23 46.2254L18.23 48.2654C18.23 48.0054 18.31 47.7354 18.46 47.5054L18.47 47.4953Z" fill="#999999"/>
<path d="M18.47 47.4951C18.31 47.7251 18.24 47.9951 18.24 48.2551L18.65 48.5351C18.94 48.7351 19.33 48.6551 19.53 48.3651L19.66 48.1651C19.86 47.8751 19.78 47.4851 19.49 47.2851L19.07 46.9951C18.84 47.0951 18.63 47.2551 18.48 47.4751L18.47 47.4951Z" fill="#999999"/>
<path d="M17.47 51.3853L17.34 51.5853C17.14 51.8753 16.75 51.9453 16.46 51.7553L16.05 51.4753C16.05 51.9053 16.26 52.3353 16.64 52.5953C17.26 53.0153 18.11 52.8553 18.53 52.2353C18.95 51.6153 18.79 50.7653 18.17 50.3453C17.77 50.0753 17.29 50.0453 16.87 50.2253L17.29 50.5153C17.58 50.7153 17.65 51.1053 17.46 51.3953L17.47 51.3853Z" fill="#666666"/>
<path d="M13.43 47.8855C13.14 47.6855 12.75 47.7655 12.55 48.0555L12.42 48.2555C12.22 48.5455 12.3 48.9355 12.59 49.1355L13.05 49.4455L13.89 48.2055L13.43 47.8955V47.8855Z" fill="#999999"/>
<path d="M16.28 50.7151C16.43 50.4951 16.64 50.3251 16.87 50.2351L13.88 48.2051L13.04 49.4451L16.04 51.4851C16.04 51.2251 16.12 50.9551 16.27 50.7251L16.28 50.7151Z" fill="#999999"/>
<path d="M16.28 50.7153C16.12 50.9453 16.05 51.2153 16.05 51.4753L16.46 51.7553C16.75 51.9553 17.14 51.8753 17.34 51.5853L17.47 51.3853C17.67 51.0953 17.59 50.7053 17.3 50.5053L16.88 50.2153C16.65 50.3153 16.44 50.4753 16.29 50.6953L16.28 50.7153Z" fill="#999999"/>
<path d="M14.46 55.8053C14.54 55.8653 14.63 55.9053 14.72 55.9453C14.46 55.6753 14.2 55.4053 13.95 55.1353C14.04 55.3953 14.21 55.6353 14.46 55.8053Z" fill="#666666"/>
<path d="M16.35 55.4452C16.77 54.8252 16.61 53.9752 15.99 53.5552C15.59 53.2852 15.11 53.2552 14.69 53.4352L15.11 53.7252C15.4 53.9252 15.47 54.3152 15.28 54.6052L15.15 54.8052C14.95 55.0952 14.56 55.1652 14.27 54.9752L13.86 54.6952C13.86 54.8452 13.89 55.0052 13.94 55.1452C14.19 55.4152 14.45 55.6852 14.71 55.9552C15.29 56.1852 15.97 55.9952 16.34 55.4552L16.35 55.4452Z" fill="#666666"/>
<path d="M10.49 51.1455C10.49 51.1455 10.4 51.2155 10.37 51.2655L10.24 51.4655C10.04 51.7555 10.12 52.1455 10.41 52.3455L10.87 52.6555L11.26 52.0855C11 51.7755 10.75 51.4655 10.5 51.1455H10.49Z" fill="#999999"/>
<path d="M11.7 51.4055L11.24 51.0955C11 50.9355 10.7 50.9655 10.49 51.1455C10.74 51.4555 10.99 51.7755 11.25 52.0855L11.71 51.4155L11.7 51.4055Z" fill="#999999"/>
<path d="M11.25 52.0752L10.86 52.6452L12.97 54.0852C12.37 53.4252 11.8 52.7552 11.24 52.0852L11.25 52.0752Z" fill="#999999"/>
<path d="M14.1 53.9255C14.25 53.7055 14.46 53.5355 14.69 53.4455L11.7 51.4155L11.24 52.0855C11.8 52.7555 12.37 53.4255 12.97 54.0855L13.86 54.6855C13.86 54.4255 13.94 54.1555 14.09 53.9255H14.1Z" fill="#999999"/>
<path d="M14.1 53.9253C13.94 54.1553 13.87 54.4253 13.87 54.6853L14.28 54.9653C14.57 55.1653 14.96 55.0853 15.16 54.7953L15.29 54.5953C15.49 54.3053 15.41 53.9153 15.12 53.7153L14.7 53.4253C14.47 53.5253 14.26 53.6853 14.11 53.9053L14.1 53.9253Z" fill="#999999"/>
<path d="M13.1 57.8154L12.97 58.0154C12.77 58.3054 12.38 58.3754 12.09 58.1854L11.68 57.9054C11.68 58.3354 11.89 58.7655 12.27 59.0255C12.89 59.4455 13.74 59.2855 14.16 58.6655C14.58 58.0455 14.42 57.1955 13.8 56.7755C13.4 56.5055 12.92 56.4754 12.5 56.6554L12.92 56.9455C13.21 57.1455 13.28 57.5354 13.09 57.8254L13.1 57.8154Z" fill="#666666"/>
<path d="M9.06001 54.3054C8.77001 54.1054 8.38003 54.1854 8.18003 54.4754L8.05002 54.6754C7.85002 54.9654 7.93002 55.3554 8.22002 55.5554L8.68003 55.8654L9.52002 54.6254L9.06001 54.3154V54.3054Z" fill="#999999"/>
<path d="M11.92 57.1355C12.07 56.9155 12.28 56.7455 12.51 56.6555L9.51999 54.6255L8.67999 55.8655L11.68 57.9055C11.68 57.6455 11.76 57.3755 11.91 57.1455L11.92 57.1355Z" fill="#999999"/>
<path d="M11.92 57.1353C11.76 57.3653 11.69 57.6352 11.69 57.8952L12.1 58.1752C12.39 58.3752 12.78 58.2952 12.98 58.0052L13.11 57.8053C13.31 57.5153 13.23 57.1252 12.94 56.9252L12.52 56.6353C12.29 56.7353 12.08 56.8952 11.93 57.1152L11.92 57.1353Z" fill="#999999"/>
<path d="M10.92 61.0254L10.79 61.2254C10.59 61.5154 10.2 61.5854 9.91 61.3954L9.5 61.1154C9.5 61.5454 9.71001 61.9754 10.09 62.2354C10.71 62.6554 11.56 62.4954 11.98 61.8754C12.4 61.2554 12.24 60.4054 11.62 59.9854C11.22 59.7154 10.74 59.6854 10.32 59.8654L10.74 60.1554C11.03 60.3554 11.1 60.7454 10.91 61.0354L10.92 61.0254Z" fill="#666666"/>
<path d="M6.88002 57.5251C6.59002 57.3251 6.20002 57.4051 6.00002 57.6951L5.87003 57.8951C5.67003 58.1851 5.75003 58.5751 6.04003 58.7751L6.50002 59.0851L7.34003 57.8451L6.88002 57.5351V57.5251Z" fill="#999999"/>
<path d="M9.74001 60.3454C9.89001 60.1254 10.1 59.9554 10.33 59.8654L7.34001 57.8354L6.5 59.0754L9.5 61.1154C9.5 60.8554 9.58001 60.5854 9.73001 60.3554L9.74001 60.3454Z" fill="#999999"/>
<path d="M9.74001 60.3452C9.58001 60.5752 9.51001 60.8452 9.51001 61.1052L9.92 61.3852C10.21 61.5852 10.6 61.5052 10.8 61.2152L10.93 61.0152C11.13 60.7252 11.05 60.3352 10.76 60.1352L10.34 59.8452C10.11 59.9452 9.9 60.1052 9.75 60.3252L9.74001 60.3452Z" fill="#999999"/>
<path d="M8.8 64.2852L8.67 64.4852C8.47 64.7752 8.08001 64.8452 7.79001 64.6552L7.38 64.3752C7.38 64.8052 7.59 65.2352 7.97 65.4952C8.59 65.9152 9.44 65.7552 9.86 65.1352C10.28 64.5152 10.12 63.6652 9.5 63.2452C9.1 62.9752 8.62001 62.9452 8.20001 63.1252L8.62001 63.4152C8.91001 63.6152 8.98001 64.0052 8.79001 64.2952L8.8 64.2852Z" fill="#666666"/>
<path d="M4.75998 60.7854C4.46998 60.5854 4.07998 60.6654 3.87998 60.9554L3.74997 61.1554C3.54997 61.4454 3.62997 61.8354 3.91997 62.0354L4.30997 62.3054L5.14998 61.0654L4.75998 60.7954V60.7854Z" fill="#999999"/>
<path d="M7.62001 63.6054C7.77001 63.3854 7.98001 63.2154 8.21001 63.1254L5.15001 61.0454L4.31 62.2854L7.38 64.3754C7.38 64.1154 7.46 63.8454 7.61 63.6154L7.62001 63.6054Z" fill="#999999"/>
<path d="M7.62003 63.6055C7.46003 63.8355 7.39001 64.1055 7.39001 64.3655L7.80002 64.6455C8.09002 64.8455 8.48002 64.7655 8.68002 64.4755L8.81001 64.2755C9.01001 63.9855 8.93001 63.5955 8.64001 63.3955L8.22002 63.1055C7.99002 63.2055 7.78002 63.3655 7.63002 63.5855L7.62003 63.6055Z" fill="#999999"/>
<path d="M6.69002 67.5454L6.56001 67.7454C6.36001 68.0354 5.97002 68.1054 5.68002 67.9154L5.27002 67.6354C5.27002 68.0654 5.48002 68.4954 5.86002 68.7554C6.48002 69.1754 7.33002 69.0154 7.75002 68.3954C8.17002 67.7754 8.01001 66.9254 7.39001 66.5054C6.99001 66.2354 6.51003 66.2054 6.09003 66.3854L6.51003 66.6754C6.80003 66.8754 6.87002 67.2654 6.68002 67.5554L6.69002 67.5454Z" fill="#666666"/>
<path d="M2.65 64.0451C2.36 63.8451 1.96999 63.9251 1.76999 64.2151L1.63999 64.4151C1.43999 64.7051 1.51998 65.0951 1.80998 65.2951L2.12999 65.5151L2.96999 64.2751L2.65 64.0551V64.0451Z" fill="#999999"/>
<path d="M5.51001 66.8654C5.66001 66.6454 5.87001 66.4754 6.10001 66.3854L2.97 64.2554L2.13 65.4954L5.27 67.6354C5.27 67.3754 5.35 67.1054 5.5 66.8754L5.51001 66.8654Z" fill="#999999"/>
<path d="M5.51004 66.8652C5.35004 67.0952 5.28003 67.3652 5.28003 67.6252L5.69003 67.9052C5.98003 68.1052 6.37004 68.0252 6.57004 67.7352L6.70004 67.5352C6.90004 67.2452 6.82003 66.8552 6.53003 66.6552L6.11003 66.3652C5.88003 66.4652 5.67003 66.6252 5.52003 66.8452L5.51004 66.8652Z" fill="#999999"/>
<path d="M124.09 32.5054L122.65 30.5454L105.5 35.0454C105.95 35.7054 106.38 36.3754 106.78 37.0454L124.08 32.5054H124.09Z" fill="#FBCE17"/>
<path d="M92.46 38.4754L90.53 41.3154L106.79 37.0454C106.38 36.3754 105.95 35.7054 105.51 35.0454L92.46 38.4754Z" fill="#FBCE17"/>
<path d="M72.48 44.4753C72.49 44.5253 72.49 44.5853 72.48 44.6553C72.47 44.7153 72.44 44.7853 72.41 44.8553C72.28 45.1453 72.03 45.4753 71.89 45.7853C71.86 45.8653 71.83 45.9353 71.82 46.0053C71.81 46.0753 71.8 46.1453 71.82 46.2153L79.95 44.0853C80.67 43.1353 81.37 42.1753 82.05 41.1953L71.69 43.9153C72.11 43.9953 72.44 44.1453 72.48 44.4653V44.4753Z" fill="#FBCE17"/>
<path d="M79.95 44.0951L90.5399 41.3151L92.4699 38.4751L82.0599 41.2051C81.3799 42.1851 80.6799 43.1451 79.9599 44.0951H79.95Z" fill="#FBCE17"/>
<path d="M125.37 37.2853L125.35 37.2153L109.18 41.4653C109.51 42.1553 109.81 42.8453 110.09 43.5353L125.15 39.5853L125.37 37.2953V37.2853Z" fill="#A97317"/>
<path d="M86.36 47.4651L84.45 50.2751L110.09 43.5451C109.81 42.8551 109.5 42.1651 109.18 41.4751L86.36 47.4651Z" fill="#A97317"/>
<path d="M73.22 50.9151C73.38 51.1851 73.63 51.3551 73.87 51.4851C74.16 51.1651 74.44 50.8451 74.73 50.5151L73.22 50.9151Z" fill="#A97317"/>
<path d="M73.86 51.4853C74.12 51.6353 74.38 51.7453 74.52 51.9053C74.54 51.9353 74.56 51.9653 74.57 51.9953C74.57 51.9953 74.57 52.0153 74.58 52.0153C74.59 52.0453 74.6 52.0753 74.6 52.1053C74.6 52.1153 74.6 52.1253 74.6 52.1453C74.6 52.1753 74.6 52.2053 74.6 52.2453C74.6 52.2653 74.6 52.2753 74.6 52.2953C74.6 52.3353 74.58 52.3753 74.56 52.4053C74.56 52.4253 74.55 52.4453 74.54 52.4653C74.52 52.5153 74.49 52.5653 74.46 52.6153C74.45 52.6353 74.44 52.6553 74.43 52.6753C74.38 52.7553 74.33 52.8353 74.26 52.9253L84.43 50.2553L86.34 47.4453L74.7 50.5053C74.42 50.8253 74.13 51.1553 73.84 51.4753L73.86 51.4853Z" fill="#A97317"/>
<path d="M124.12 32.5054H124.1L124.13 32.5454L124.12 32.5054Z" fill="#FBAE17"/>
<path d="M125.36 37.2254L124.13 32.5454L124.1 32.5054L106.79 37.0454C107.69 38.5154 108.48 39.9854 109.18 41.4654L125.35 37.2154L125.36 37.2254Z" fill="#FBAE17"/>
<path d="M86.36 47.4652L109.18 41.4752C108.48 39.9952 107.69 38.5252 106.79 37.0552L90.53 41.3252L86.36 47.4652Z" fill="#FBAE17"/>
<path d="M72.12 46.7755C72.36 46.9955 72.71 47.1554 73.04 47.3454C73.2 47.4454 73.36 47.5454 73.5 47.6754C73.64 47.8054 73.75 47.9555 73.83 48.1355C73.89 48.2455 73.92 48.3554 73.93 48.4654C73.93 48.6354 73.89 48.8054 73.82 48.9754C73.8 49.0354 73.77 49.0854 73.74 49.1454C73.68 49.2554 73.61 49.3754 73.54 49.4954C73.51 49.5554 73.47 49.6155 73.44 49.6655C73.34 49.8355 73.24 50.0054 73.18 50.1754C73.1 50.4054 73.07 50.6254 73.17 50.8354C73.18 50.8654 73.2 50.8854 73.21 50.9054L74.72 50.5054C76.55 48.4354 78.29 46.2954 79.95 44.0854L71.82 46.2154C71.85 46.4454 71.96 46.6154 72.12 46.7554V46.7755Z" fill="#FBAE17"/>
<path d="M79.95 44.0954C78.29 46.3054 76.55 48.4454 74.72 50.5154L86.36 47.4554L90.53 41.3154L79.94 44.0954H79.95Z" fill="#FBAE17"/>
<path d="M65.51 52.1654C65.46 51.9654 65.36 51.8154 65.24 51.7054C65.24 51.7054 65.23 51.6853 65.22 51.6853C65.4 51.4153 65.48 51.0653 65.37 50.6553C65.24 50.1553 64.91 49.8654 64.52 49.7554C64.53 49.6554 64.52 49.5554 64.5 49.4454C64.44 49.2054 64.3 49.0553 64.14 48.9653L71.23 44.2354L61.19 50.9254C60.14 51.8054 60.31 52.3354 61.61 52.5254L65.5 52.6553C65.54 52.5053 65.54 52.3454 65.5 52.1654H65.51Z" fill="#1B1819"/>
<path d="M64.53 49.7551C64.91 49.8651 65.24 50.1451 65.38 50.6551C65.49 51.0651 65.41 51.4151 65.23 51.6851C65.23 51.6851 65.24 51.6951 65.25 51.7051L73.01 50.9351L71.78 46.2451L64.54 49.7451L64.53 49.7551Z" fill="#DEC49F"/>
<path d="M71.82 46.2251L71.77 46.2451L71.82 46.2351V46.2251Z" fill="#DEC49F"/>
<path d="M73 50.9351L73.22 50.9151C73.22 50.9151 73.19 50.8651 73.18 50.8451C73.09 50.6351 73.11 50.4151 73.19 50.1851C73.25 50.0151 73.35 49.8451 73.45 49.6751C73.48 49.6151 73.52 49.5551 73.55 49.5051C73.62 49.3851 73.69 49.2751 73.75 49.1551C73.78 49.0951 73.81 49.0451 73.83 48.9851C73.9 48.8151 73.95 48.6451 73.94 48.4751C73.94 48.3651 73.9 48.2551 73.84 48.1451C73.76 47.9651 73.65 47.8151 73.51 47.6851C73.37 47.5551 73.21 47.4451 73.05 47.3551C72.72 47.1551 72.37 47.0051 72.13 46.7851C71.97 46.6451 71.86 46.4651 71.83 46.2451H71.77L73 50.9451V50.9351Z" fill="#DEC49F"/>
<path d="M72.48 44.4751C72.49 44.5251 72.49 44.5851 72.48 44.6551C72.49 44.5951 72.5 44.5351 72.48 44.4751Z" fill="#F3D8BF"/>
<path d="M71.82 46.0151C71.81 46.0851 71.8 46.1551 71.82 46.2251C71.81 46.1551 71.81 46.0951 71.82 46.0151Z" fill="#F3D8BF"/>
<path d="M71.89 45.7855C72.02 45.4755 72.27 45.1455 72.41 44.8555C72.28 45.1455 72.03 45.4755 71.89 45.7855Z" fill="#F3D8BF"/>
<path d="M64.51 49.4351C64.54 49.5451 64.54 49.6551 64.53 49.7451L71.7701 46.2451L71.24 44.2251L64.15 48.9551C64.32 49.0451 64.45 49.1951 64.51 49.4351Z" fill="#F3D8BF"/>
<path d="M71.82 46.2251C71.81 46.1551 71.81 46.0951 71.82 46.0151C71.83 45.9451 71.86 45.8651 71.89 45.7951C72.02 45.4851 72.27 45.1551 72.41 44.8651C72.44 44.7951 72.47 44.7251 72.48 44.6651C72.49 44.6051 72.5 44.5451 72.48 44.4851C72.44 44.1651 72.11 44.0151 71.69 43.9351L71.23 44.2351L71.76 46.2551L71.81 46.2251H71.82Z" fill="#F3D8BF"/>
<path d="M65.51 52.6553L72.58 52.8853L65.51 52.6553Z" fill="#AF826F"/>
<path d="M72.58 52.8853L73.52 52.9153L72.58 52.8853Z" fill="#AF826F"/>
<path d="M74.52 51.9053C74.38 51.7353 74.12 51.6254 73.86 51.4854C74.12 51.6354 74.38 51.7453 74.52 51.9053Z" fill="#AF826F"/>
<path d="M73.01 50.9651V50.9351L65.24 51.7051C65.36 51.8151 65.46 51.9651 65.51 52.1651C65.56 52.3451 65.55 52.5051 65.51 52.6551L72.57 52.8851C72.81 52.6251 73.05 52.3651 73.29 52.0951L72.99 50.9651H73.01Z" fill="#AF826F"/>
<path d="M72.58 52.8852L73.52 52.9152L73.31 52.0952C73.07 52.3552 72.83 52.6252 72.59 52.8852H72.58Z" fill="#AF826F"/>
<path d="M73.3 52.0955C73.49 51.8955 73.68 51.6855 73.86 51.4855C73.62 51.3555 73.37 51.1855 73.21 50.9155L73 50.9755L73.3 52.1055V52.0955Z" fill="#AF826F"/>
<path d="M73.3 52.0951L73.51 52.9151L74.28 52.9351C74.35 52.8451 74.4 52.7651 74.45 52.6851C74.46 52.6651 74.47 52.6451 74.48 52.6251C74.51 52.5751 74.54 52.5251 74.56 52.4751C74.56 52.4551 74.57 52.4351 74.58 52.4151C74.59 52.3751 74.61 52.3351 74.62 52.3051C74.62 52.2851 74.62 52.2751 74.62 52.2551C74.62 52.2251 74.62 52.1851 74.62 52.1551C74.62 52.1451 74.62 52.1251 74.62 52.1151C74.62 52.0851 74.61 52.0551 74.6 52.0251C74.6 52.0251 74.6 52.0051 74.59 52.0051C74.58 51.9751 74.56 51.9451 74.54 51.9151C74.4 51.7551 74.14 51.6451 73.88 51.4951C73.69 51.7051 73.5 51.9051 73.32 52.1051L73.3 52.0951Z" fill="#AF826F"/>
<path d="M73.01 50.9655L73.22 50.9155L73 50.9355L73.01 50.9655Z" fill="#AF826F"/>
</svg>
