<svg width="125" height="109" viewBox="0 0 125 109" fill="none" xmlns="http://www.w3.org/2000/svg">
<path d="M8.49658 59.9766C22.8266 83.2266 46.5166 100.637 73.0966 107.057C77.2166 108.057 81.5066 108.797 85.6666 108.007C89.8266 107.217 93.8666 104.607 95.3166 100.627C95.7466 99.4566 95.9266 98.2866 95.9366 97.1166C64.3366 93.0866 31.0266 82.4866 8.50658 59.9766H8.49658Z" fill="#C8E4F7"/>
<path d="M113.427 19.8668C112.797 11.3768 106.527 6.91682 98.4966 6.04682C88.0966 4.91682 79.1566 9.74681 70.0066 13.8068C57.3466 19.4268 43.4266 22.2368 29.5766 21.6268C20.2666 21.2168 9.25661 20.0068 3.28661 27.1668C-2.45339 34.0468 0.26661 44.4668 4.29661 52.4668C5.58661 55.0368 6.99661 57.5368 8.49661 59.9868C31.0166 82.5068 64.3366 93.0968 95.9266 97.1268C95.9566 91.8268 92.2566 86.5068 89.9666 81.3768C84.9266 70.0868 87.0066 55.9768 95.0866 46.6168C102.187 38.3868 114.357 32.4568 113.427 19.8768V19.8668Z" fill="#C8ECF7"/>
<path d="M121.117 43.4667C121.127 43.8667 121.117 44.2767 121.117 44.7067C122.227 48.3067 121.367 50.5467 117.767 50.9167C117.517 58.0767 111.797 60.1967 100.607 57.2567H99.9766C99.5966 59.3967 97.8366 61.5767 94.1266 63.7967C92.5866 63.9267 91.1266 63.9667 89.7666 63.9267C84.9366 66.5767 79.1366 66.2167 72.0966 62.1267C70.8766 61.4167 69.6266 60.5967 68.3366 59.6667C67.5566 59.5467 66.7766 59.4167 66.0166 59.2867C61.4166 58.4967 57.1766 57.4767 53.7266 55.9667C46.1066 56.8867 38.9666 56.2567 32.6666 52.8367C31.4766 53.0567 30.3566 53.1767 29.3366 53.1767C24.7266 53.1967 21.8166 51.0267 20.4566 46.8467C17.0066 42.8067 17.9366 37.7667 21.2766 35.0667L21.0766 34.8067C19.8466 31.0967 20.7966 28.1767 23.5466 25.9167C25.1166 21.0667 28.1366 18.8067 32.0466 18.1767C30.7966 13.5767 37.7766 9.06672 41.6966 10.8267C46.1266 2.08672 61.9666 -0.26329 72.6866 4.22671L72.8266 3.87672C81.0066 2.53672 88.4966 3.97671 94.7966 10.2567C99.2266 9.40671 106.957 12.0767 112.467 20.0967C116.647 21.6967 119.107 24.7767 119.147 29.9267L118.647 29.9667C123.487 33.3267 125.587 37.4567 121.117 43.4667Z" fill="#F9D2DF"/>
<path d="M72.1066 62.1266L71.9566 62.3766C70.8266 65.0666 68.3166 67.1966 63.9166 68.5766L52.4366 80.5066C49.6166 84.3966 44.8266 82.8066 46.7266 79.4866C49.2866 76.6466 51.4766 72.5866 50.6366 71.0366V70.8666C55.6866 71.2966 58.9666 69.1466 60.7266 64.7466C64.0066 63.2566 65.5766 61.3966 66.0166 59.2866C66.7766 59.4166 67.5566 59.5466 68.3366 59.6666C69.6266 60.6066 70.8866 61.4166 72.0966 62.1266H72.1066Z" fill="#F2C1CE"/>
<path d="M66.0166 59.2867C65.5766 61.3967 64.0166 63.2667 60.7266 64.7467C58.9666 69.1467 55.6866 71.2967 50.6566 70.8667C48.7866 70.7067 46.6666 70.1867 44.2966 69.2967C33.7266 68.3567 27.8366 63.7767 29.3366 53.4367V53.1867C30.3566 53.1867 31.4666 53.0667 32.6566 52.8467C38.9566 56.2667 46.0966 56.8967 53.7166 55.9767C57.1666 57.4867 61.4066 58.5067 66.0066 59.2967L66.0166 59.2867Z" fill="#F2C1CE"/>
<path d="M89.7166 63.9365V63.9565C84.8966 66.5965 79.0866 66.2365 72.0466 62.1465C70.8266 61.4365 69.5766 60.6165 68.2866 59.6865C67.5066 59.5665 66.7266 59.4365 65.9666 59.3065C61.3666 58.5165 57.1266 57.4965 53.6766 55.9865C46.0566 56.9065 38.9066 56.2865 32.6166 52.8665C31.4266 53.0865 30.3166 53.2065 29.2966 53.2065C24.6866 53.2265 21.7766 51.0565 20.4166 46.8765C16.9666 42.8365 17.8966 37.7965 21.2366 35.0965L21.0366 34.8465C19.8066 31.1365 20.7566 28.2165 23.5066 25.9565C25.0766 21.1065 28.0966 18.8465 32.0066 18.2165C30.7566 13.6065 37.7366 9.1065 41.6566 10.8565C46.0866 2.1165 61.9266 -0.233505 72.6466 4.25649L72.7866 3.9165C80.9666 2.5765 88.4566 4.0065 94.7566 10.2965C99.1866 9.4465 106.917 12.1165 112.427 20.1365C116.607 21.7465 119.067 24.8165 119.107 29.9665L118.607 29.9965C123.447 33.3565 125.547 37.4965 121.077 43.4965C121.087 43.8965 121.077 44.3065 121.077 44.7365C122.187 48.3365 121.327 50.5765 117.727 50.9465C117.477 58.1065 111.757 60.2265 100.567 57.2865H99.9366C99.5566 59.4265 97.7966 61.5965 94.0866 63.8265C92.5466 63.9465 91.0966 63.9965 89.7266 63.9565L89.7166 63.9365Z" fill="#F9D2DF"/>
<path d="M72.0466 62.1466L71.8966 62.3966C70.7666 65.0866 68.2566 67.2166 63.8566 68.5966L52.3766 80.5266C49.5566 84.4166 44.7666 82.8267 46.6666 79.5067C49.2266 76.6667 51.4166 72.6066 50.5766 71.0566V70.8866C55.6166 71.3166 58.9066 69.1766 60.6666 64.7666C63.9466 63.2766 65.5166 61.4166 65.9466 59.3066C66.7066 59.4366 67.4866 59.5666 68.2666 59.6866C69.5566 60.6266 70.8166 61.4366 72.0266 62.1466H72.0466Z" fill="#F2C1CE"/>
<path d="M65.9566 59.2964C65.5166 61.4064 63.9566 63.2764 60.6766 64.7564C58.9166 69.1564 55.6266 71.3064 50.5966 70.8764C48.7266 70.7164 46.6066 70.1964 44.2366 69.3064C33.6666 68.3664 27.7766 63.7864 29.2766 53.4464V53.1964C30.2966 53.1964 31.4066 53.0764 32.5966 52.8564C38.8966 56.2764 46.0366 56.9064 53.6566 55.9764C57.1066 57.4864 61.3466 58.5064 65.9466 59.2964H65.9566Z" fill="#F2C1CE"/>
<path d="M98.5666 55.4467C98.6866 55.2767 98.8166 55.1167 98.9366 54.9467C99.8766 53.6067 97.6766 52.3367 96.7466 53.6667C93.9166 57.7167 89.3766 60.2767 84.4466 60.6267C84.4266 60.6267 84.4166 60.6167 84.3966 60.6067C83.0666 60.3667 81.9166 59.8467 80.7866 59.1267C80.2466 58.7867 77.5866 57.2967 78.0566 56.5267C78.4366 55.9067 78.2166 55.3167 77.7766 54.9667C77.6066 54.5767 77.2366 54.2867 76.6766 54.3167C74.6166 54.4067 72.5966 54.2267 70.6066 53.6567C69.0466 53.2067 66.6266 52.5467 66.0566 50.8267C65.5466 49.2867 63.0966 49.9467 63.6066 51.4967C64.0566 52.8467 64.9766 53.8767 66.1566 54.6567C66.0066 54.6067 65.8566 54.5667 65.7066 54.5167C65.6066 54.4867 65.4966 54.4567 65.3966 54.4267C65.3466 54.3567 65.2866 54.2867 65.2266 54.2267C64.3766 53.3167 63.2366 52.6467 62.0266 52.3467C61.1866 52.1367 60.2366 52.4167 59.6466 53.0367C58.1266 52.7667 56.5866 52.5867 55.0366 52.5267C54.7766 51.7767 54.1266 51.1967 53.0666 51.2667C52.9566 51.2667 52.8466 51.2767 52.7466 51.2867C52.6666 51.2267 52.5766 51.1667 52.4866 51.1167C52.2966 51.0367 52.1066 50.9567 51.9266 50.8767C51.5066 50.7667 51.0966 50.7667 50.6766 50.8767C50.6066 50.6367 50.4866 50.4067 50.3466 50.2067C50.3866 49.9667 50.3466 49.6967 50.2066 49.4267C49.2866 47.6167 47.4266 47.1367 45.7866 46.1967C44.5966 45.5267 43.4766 44.7167 42.3266 43.9767C42.1166 43.8367 41.6766 43.6067 41.1966 43.3367C40.5866 42.7167 40.0066 42.0667 39.4766 41.3767C39.3466 41.2067 39.1866 41.0767 39.0266 40.9967C38.3366 40.2167 36.7266 40.4667 36.7966 41.7767C36.8266 42.3767 37.0266 42.8967 37.3266 43.3567C36.8666 43.6067 36.5366 44.0967 36.6766 44.7467C36.8566 45.6167 37.2566 46.3367 37.7966 46.9467C37.6566 46.9667 37.5166 46.9767 37.3666 46.9967C37.3466 46.9967 37.3366 46.9967 37.3166 46.9967C36.9066 46.1467 35.9266 45.6067 34.8066 45.7967C34.5766 45.8367 34.3466 45.8867 34.1166 45.9367C34.2866 45.1267 33.6366 44.1067 32.5666 44.3567C30.1966 44.9167 27.7366 44.6567 25.3666 44.2667C22.9266 43.8667 21.6766 42.3567 20.8366 40.1267C20.2666 38.6167 17.8066 39.2667 18.3866 40.7967C18.8466 42.0167 19.4466 43.2167 20.2466 44.2067C19.9466 44.6567 19.8766 45.2867 20.2966 45.8167C22.0066 47.9967 23.7866 51.4767 26.5466 52.3867C28.9266 53.1767 31.5766 53.5067 34.1566 53.7567C34.6166 54.2967 35.3566 54.6267 36.3166 54.4667C37.1466 54.3267 37.9666 54.1567 38.7866 53.9867C38.4566 56.3367 41.3666 57.6667 42.7766 55.5767C42.7766 55.5767 42.7866 55.5567 42.7966 55.5567C44.9166 55.7267 47.0466 55.7867 49.1666 55.7667C49.3766 55.9267 49.6066 56.0467 49.8766 56.1167C50.2966 56.2167 50.7466 56.2267 51.1666 56.1167C51.5466 56.2267 51.9266 56.3367 52.3066 56.4367C52.6866 56.9067 53.2566 57.2167 54.0366 57.2167C57.6266 57.2167 61.0566 58.0267 64.4766 59.0767C67.7366 60.0767 71.1866 60.9967 74.0766 62.8567C74.7166 63.2667 75.3566 63.3167 75.8966 63.1367C76.0966 63.5367 76.4666 63.8567 76.9266 64.0267C78.4566 64.6167 80.0066 65.1467 81.5766 65.6267C81.8366 65.7067 82.0666 65.7267 82.2866 65.6967C82.5466 65.9467 82.9066 66.1167 83.3666 66.1167C85.0566 66.1167 85.3866 63.9967 84.3466 63.1767C85.6166 63.0967 86.8566 62.8867 88.0566 62.5767C88.1366 63.1267 88.5366 63.5867 89.2566 63.5267C93.4466 63.1867 97.1166 60.9067 99.1766 57.2167C99.5966 56.4567 99.1766 55.7467 98.5766 55.4567L98.5666 55.4467ZM72.1566 56.6467C73.2966 56.7967 74.4166 56.8667 75.4366 56.8667C75.4766 57.4967 75.7666 58.0867 76.1766 58.6167C74.9166 57.8367 73.5566 57.1967 72.1666 56.6467H72.1566ZM77.7666 60.8767C77.6866 60.8467 77.5966 60.8267 77.5166 60.8167C77.5366 60.4567 77.4666 60.0967 77.3066 59.7567C77.3866 59.8167 77.4566 59.8767 77.5366 59.9367C78.4366 60.6167 79.3666 61.2667 80.3466 61.8067C79.4766 61.5167 78.6166 61.2067 77.7666 60.8767Z" fill="#F2C1CE"/>
<path d="M119.167 46.2966C116.507 47.9566 114.057 50.0766 110.977 50.9166C107.767 51.7966 104.357 51.5166 101.077 51.2966C98.8566 51.1466 98.7666 54.4366 100.767 54.8766C100.607 55.8766 101.177 57.0465 102.487 57.1165C105.197 57.2565 107.947 57.3965 110.657 57.2865C112.617 57.2165 114.477 56.7766 115.867 55.3266C116.677 54.4766 116.437 53.4066 115.787 52.7666C117.567 51.7566 119.237 50.5266 120.997 49.4366C122.967 48.2066 121.157 45.0666 119.167 46.3066V46.2966Z" fill="#F2C1CE"/>
<path d="M99.1366 23.5766C96.3166 21.7166 93.7766 23.9166 90.9766 24.2366C90.6266 24.2366 90.2866 24.2366 89.9366 24.2566C88.2866 24.3266 88.3166 26.6566 89.9366 26.7966C90.2566 26.8266 90.5666 26.8266 90.8766 26.7966C92.8866 26.8366 97.2366 27.0166 97.2166 27.3666C97.1366 28.6366 98.6466 28.9066 99.3766 28.2066C99.8266 29.6666 99.9166 31.3366 99.9066 32.4266C99.8866 34.0566 102.427 34.0566 102.447 32.4266C102.487 29.4466 101.847 25.3566 99.1266 23.5666L99.1366 23.5766Z" fill="#F2C1CE"/>
<path d="M77.3466 16.2568C72.0466 10.1468 64.3166 5.24686 55.9666 7.70686C55.4966 7.84686 55.2366 8.15685 55.1266 8.52685C55.0666 8.40685 54.9966 8.29685 54.8866 8.18685C54.0666 7.37685 53.0466 6.90686 52.2966 6.01686C51.5966 5.18686 50.9366 4.51685 49.9066 4.11685C49.1066 3.80685 48.5566 4.33686 48.4166 4.98686C48.1266 4.92686 47.7666 4.96686 47.5166 5.12686C47.3466 5.23686 47.2066 5.37685 47.0866 5.54685C46.8266 5.70685 46.5766 5.99685 46.5066 6.29685C46.4366 6.61685 46.4466 6.98685 46.6366 7.27685C46.8066 7.53685 47.0766 7.80685 47.3966 7.85685C47.7466 7.91685 48.0166 7.93685 48.3666 7.85685C48.4666 7.83685 48.5666 7.78685 48.6566 7.74685C48.7666 7.69685 48.8666 7.65685 48.9666 7.58685C49.2266 7.39685 49.4766 7.16685 49.5466 6.82685C49.5466 6.80685 49.5466 6.77685 49.5566 6.75685C50.0466 7.11685 50.4266 7.75685 50.8066 8.16685C51.4766 8.89685 52.3966 9.28685 53.0866 9.97685C53.8566 10.7368 54.8966 10.2068 55.1766 9.42684C55.3966 9.95684 55.9166 10.3568 56.6366 10.1468C60.3366 9.05684 63.8566 9.65685 67.0266 11.1869C66.8066 11.6069 66.8266 12.1268 67.3066 12.5368C68.0566 13.1768 68.7866 13.8368 69.4966 14.5268C69.9366 14.9568 70.6666 15.5069 71.1066 16.0769C70.9966 16.9269 71.9566 17.9469 73.0366 17.4669C73.1166 17.4269 73.1966 17.3969 73.2866 17.3569C73.6466 17.1969 73.9066 16.7068 73.9166 16.2768C74.4866 16.8468 75.0266 17.4368 75.5466 18.0368C76.6166 19.2768 78.4066 17.4669 77.3366 16.2469L77.3466 16.2568Z" fill="#F2C1CE"/>
<path d="M47.9866 13.6268C45.6466 13.9968 42.7566 14.0168 40.6266 15.1168C38.7966 16.0668 37.0666 17.2068 36.4366 19.2368C35.9566 20.7968 38.3966 21.4668 38.8866 19.9068C39.1366 19.1068 39.9966 18.3668 40.9566 17.8168C40.9566 17.8368 40.9566 17.8568 40.9566 17.8668C41.1466 18.5768 41.8366 18.8768 42.5166 18.7568C42.7966 18.7068 43.0766 18.6668 43.3466 18.6468C43.5566 18.7068 43.7966 18.7168 44.0266 18.6768C44.2666 18.6368 44.4966 18.5868 44.7366 18.5468C45.3466 18.4368 45.7266 17.7268 45.6466 17.1568C45.6166 16.9368 45.5266 16.7368 45.3966 16.5668C46.4866 16.3968 47.5766 16.2468 48.6566 16.0768C50.2666 15.8268 49.5866 13.3768 47.9866 13.6268Z" fill="#F2C1CE"/>
<path d="M34.4866 21.4865C31.2966 21.0565 27.7866 21.1665 25.3666 23.6065C23.1466 25.8565 21.5266 29.5865 21.2066 32.7065C21.0366 34.3265 23.5766 34.3165 23.7466 32.7065C23.9866 30.3765 25.3166 27.7865 26.7266 25.9265C28.3966 23.7365 31.2766 23.5865 33.8066 23.9365C35.4066 24.1565 36.0966 21.7065 34.4766 21.4865H34.4866Z" fill="#F2C1CE"/>
<path d="M41.2766 28.4365C39.5266 29.5465 36.5466 29.3065 34.5566 29.0865C32.2266 28.8265 30.0766 28.0265 28.1666 26.6765C26.9166 25.7965 25.7366 27.6465 26.6566 28.6565C25.4266 29.4965 24.1666 31.4965 25.4466 32.7765C26.1266 33.4465 27.1466 33.3565 28.0266 33.3665C29.2366 33.3865 30.4466 33.3665 31.6666 33.3165C32.5966 33.2865 33.2566 32.0865 32.7966 31.3565C33.3766 31.4765 33.9666 31.5665 34.5566 31.6265C35.8766 31.7665 37.4466 31.8565 38.9566 31.7165C39.1066 32.1765 39.4866 32.5465 40.1166 32.5465C40.9566 32.5465 41.3666 31.8665 41.3366 31.2165C41.7666 31.0565 42.1866 30.8665 42.5566 30.6365C43.9366 29.7665 42.6566 27.5665 41.2766 28.4465V28.4365Z" fill="#F2C1CE"/>
<path d="M88.1766 51.2667C85.0266 47.6367 78.8266 44.1767 73.9566 46.2167C71.2866 41.8267 66.5566 39.1467 61.4066 39.1367C59.7766 39.1367 59.7666 41.6667 61.4066 41.6767C65.6766 41.6767 69.5766 43.8767 71.7866 47.5367C72.0166 47.9167 72.3466 48.0967 72.6866 48.1267C72.9666 48.7567 73.6966 49.2067 74.4666 48.7767C78.3766 46.5967 83.8666 50.1767 86.3766 53.0667C87.4466 54.3067 89.2366 52.4967 88.1666 51.2767L88.1766 51.2667Z" fill="#F2C1CE"/>
<path d="M87.9366 38.1569C85.7766 36.2569 83.2566 35.0469 80.5766 34.0469C77.7866 33.0069 74.8966 31.9169 71.8866 31.9469C70.2566 31.9669 70.2466 34.4969 71.8866 34.4869C73.1266 34.4769 74.3366 34.6969 75.5366 35.0169C74.9366 35.6469 74.9566 36.8769 76.0466 37.1369L76.9166 37.3469C77.8266 38.4369 79.3566 38.8169 80.7066 39.2169C82.7766 39.8269 84.8966 40.1669 87.0466 40.3369C88.1266 40.4169 88.7466 38.8769 87.9466 38.1669L87.9366 38.1569Z" fill="#F2C1CE"/>
<path d="M37.6566 40.7666C37.4066 42.3566 36.7866 43.5266 35.7966 44.2866C34.8066 45.0466 33.4566 45.3866 31.7266 45.3066" stroke="#E1A5B9" stroke-width="2.18" stroke-linecap="round" stroke-linejoin="round"/>
<path d="M96.7866 49.9966C101.057 54.4766 102.087 59.0266 94.1266 63.7966C84.9566 64.5366 78.9466 62.3566 75.6266 57.6866C71.1466 57.7266 67.0566 55.8166 63.4966 51.3466C58.3266 52.7266 53.3866 51.9666 48.7566 48.2266C43.1466 50.0866 38.6766 49.1466 35.7966 44.2866" stroke="#E1A5B9" stroke-width="2.18" stroke-linecap="round" stroke-linejoin="round"/>
<path d="M81.7566 35.627C80.0866 36.337 79.5566 37.9869 80.1066 40.5069C87.3366 40.0169 93.8666 40.8969 96.5566 49.1969" stroke="#E1A5B9" stroke-width="2.18" stroke-linecap="round" stroke-linejoin="round"/>
<path d="M56.8166 25.7769C58.9166 29.8969 58.4066 33.0669 54.2666 34.9069" stroke="#E1A5B9" stroke-width="2.18" stroke-linecap="round" stroke-linejoin="round"/>
<path d="M80.0966 40.5069C73.8666 33.8169 66.4366 30.7969 57.8166 31.4569" stroke="#E1A5B9" stroke-width="2.18" stroke-linecap="round" stroke-linejoin="round"/>
<path d="M89.7766 63.9466C84.1166 67.0366 77.1066 66.0166 68.3466 59.6766C62.8566 58.8266 57.7566 57.7366 53.7366 55.9766C46.1166 56.8966 38.9766 56.2766 32.6766 52.8566C26.1166 54.0866 22.1366 51.9766 20.4666 46.8666C14.6766 40.0766 21.2466 30.4566 30.8166 33.8966C38.8966 28.6166 48.5266 36.1066 46.6966 41.5366" stroke="#E1A5B9" stroke-width="2.18" stroke-linecap="round" stroke-linejoin="round"/>
<path d="M66.0466 59.1268C65.6566 61.3068 64.0966 63.2268 60.7266 64.7568C58.3166 70.7968 53.0266 72.5968 44.2966 69.3068C33.7266 68.3668 27.8366 63.7868 29.3366 53.4468" stroke="#E1A5B9" stroke-width="2.18" stroke-linecap="round" stroke-linejoin="round"/>
<path d="M50.6466 71.0369C51.4866 72.5869 49.2966 76.6469 46.7366 79.4869C44.8366 82.8069 49.6266 84.397 52.4466 80.507L63.9266 68.577C68.3266 67.197 70.8366 65.067 71.9666 62.377" stroke="#E1A5B9" stroke-width="2.18" stroke-linecap="round" stroke-linejoin="round"/>
<path d="M85.5966 54.3068C83.0766 48.6468 79.7666 47.6968 72.3666 48.6268C70.0366 44.3868 64.2466 40.9768 58.8366 40.5068" stroke="#E1A5B9" stroke-width="2.18" stroke-linecap="round" stroke-linejoin="round"/>
<path d="M90.4166 52.6069C87.1966 52.7269 85.4766 54.4669 85.3066 57.8769" stroke="#E1A5B9" stroke-width="2.18" stroke-linecap="round" stroke-linejoin="round"/>
<path d="M110.577 30.7471C116.767 32.2671 121.367 35.6571 121.117 44.7071C122.227 48.3071 121.367 50.5471 117.767 50.9171C117.507 58.0771 111.797 60.1971 100.607 57.2571" stroke="#E1A5B9" stroke-width="2.18" stroke-linecap="round" stroke-linejoin="round"/>
<path d="M116.887 28.8467C122.917 32.4067 126.097 36.7767 121.117 43.4767" stroke="#E1A5B9" stroke-width="2.18" stroke-linecap="round" stroke-linejoin="round"/>
<path d="M119.147 29.9369C119.107 24.7869 116.647 21.7069 112.467 20.1069C102.767 5.99693 86.2166 8.44692 92.8066 17.5269" stroke="#E1A5B9" stroke-width="2.18" stroke-linecap="round" stroke-linejoin="round"/>
<path d="M87.7066 22.1069C89.3266 25.3869 87.7766 27.6969 82.1666 28.7769" stroke="#E1A5B9" stroke-width="2.18" stroke-linecap="round" stroke-linejoin="round"/>
<path d="M101.667 35.0967C99.7266 27.6767 94.6866 26.1267 88.6366 26.4967" stroke="#E1A5B9" stroke-width="2.18" stroke-linecap="round" stroke-linejoin="round"/>
<path d="M110.707 25.5166C111.717 29.1566 110.967 31.4666 108.597 32.5566" stroke="#E1A5B9" stroke-width="2.18" stroke-linecap="round" stroke-linejoin="round"/>
<path d="M104.217 40.5669C105.697 44.0869 108.697 45.4169 113.287 44.4969" stroke="#E1A5B9" stroke-width="2.18" stroke-linecap="round" stroke-linejoin="round"/>
<path d="M97.5666 50.6667C102.127 51.4867 105.587 49.4067 107.917 44.3267" stroke="#E1A5B9" stroke-width="2.18" stroke-linecap="round" stroke-linejoin="round"/>
<path d="M76.7066 17.5767C72.2966 17.4667 69.5366 19.3867 68.9566 23.9667" stroke="#E1A5B9" stroke-width="2.18" stroke-linecap="round" stroke-linejoin="round"/>
<path d="M57.3166 12.7467C52.3066 6.97672 47.1066 6.30671 41.7066 10.8367C37.7866 9.08671 30.8166 13.5867 32.0566 18.1967C28.1366 18.8267 25.1266 21.0867 23.5566 25.9367C20.8066 28.1967 19.8566 31.1167 21.0866 34.8267" stroke="#E1A5B9" stroke-width="2.18" stroke-linecap="round" stroke-linejoin="round"/>
<path d="M71.2166 18.5866C66.6366 10.3266 60.9466 8.4266 54.6466 10.1666" stroke="#E1A5B9" stroke-width="2.18" stroke-linecap="round" stroke-linejoin="round"/>
<path d="M49.6266 14.9468C45.4966 14.9968 44.2266 18.8568 47.2866 22.1168" stroke="#E1A5B9" stroke-width="2.18" stroke-linecap="round" stroke-linejoin="round"/>
<path d="M45.1866 27.4971C42.5466 29.0671 41.4866 31.0771 42.4066 33.6471" stroke="#E1A5B9" stroke-width="2.18" stroke-linecap="round" stroke-linejoin="round"/>
<path d="M23.9266 33.257C24.1566 26.357 28.5366 23.807 34.9866 23.407C37.2266 18.987 40.4166 17.367 44.9366 19.617" stroke="#E1A5B9" stroke-width="2.18" stroke-linecap="round" stroke-linejoin="round"/>
<path d="M80.5466 10.1768C72.5666 -1.09318 47.4766 -0.543175 41.7066 10.8268" stroke="#E1A5B9" stroke-width="2.18" stroke-linecap="round" stroke-linejoin="round"/>
<path d="M94.9266 10.3869C88.5966 4.00691 81.0666 2.54691 72.8366 3.88691" stroke="#E1A5B9" stroke-width="2.18" stroke-linecap="round" stroke-linejoin="round"/>
<path opacity="0.52" d="M52.4366 57.1969C59.2905 57.1969 64.8466 51.6408 64.8466 44.7869C64.8466 37.9331 59.2905 32.377 52.4366 32.377C45.5828 32.377 40.0266 37.9331 40.0266 44.7869C40.0266 51.6408 45.5828 57.1969 52.4366 57.1969Z" fill="#67617D"/>
<path d="M51.7966 28.8968C43.0566 29.3068 36.2766 36.7468 36.6866 45.4868C36.8466 48.9968 38.1566 52.1968 40.2166 54.7368L13.1266 84.4668C12.5366 85.1168 12.5866 86.1268 13.2266 86.7168L14.3166 87.7168C14.9666 88.3068 15.9766 88.2568 16.5666 87.6168L43.6466 57.8968C46.3866 59.7568 49.7166 60.7768 53.2666 60.6068C62.0066 60.1968 68.7866 52.7568 68.3766 44.0168C67.9666 35.2768 60.5266 28.4968 51.7866 28.9068L51.7966 28.8968ZM53.0866 56.6268C46.5266 56.9268 40.9566 51.8568 40.6566 45.2968C40.3566 38.7368 45.4266 33.1668 51.9866 32.8668C58.5466 32.5668 64.1166 37.6368 64.4166 44.1968C64.7166 50.7568 59.6466 56.3268 53.0866 56.6268Z" fill="#67617D"/>
<path d="M33.7209 65.665L33.3735 65.3485C31.9406 64.0428 29.7206 64.146 28.415 65.5788L13.3616 82.0991C12.0559 83.532 12.1591 85.752 13.592 87.0576L13.9394 87.3742C15.3723 88.6798 17.5923 88.5767 18.8979 87.1438L33.9513 70.6236C35.2569 69.1907 35.1538 66.9707 33.7209 65.665Z" fill="#696969"/>
<path opacity="0.52" d="M58.4166 36.327C57.4566 35.647 55.9966 36.157 55.4366 37.107C54.7966 38.197 55.2566 39.397 56.2166 40.087C57.2966 40.857 57.9266 42.157 57.9766 43.457C58.0866 46.247 62.4466 46.257 62.3266 43.457C62.2066 40.517 60.7866 38.027 58.4066 36.327H58.4166Z" fill="#F2F2F2"/>
</svg>
