<svg width="122" height="113" viewBox="0 0 122 113" fill="none" xmlns="http://www.w3.org/2000/svg">
<path d="M105.969 22.9886C112.829 12.0986 84.4994 2.49864 68.8094 0.578642C53.1194 -1.34136 37.3494 1.80864 22.3594 5.73864C12.8194 8.23864 1.98944 12.3786 0.229437 20.7286C-1.13056 27.1486 3.74944 33.5586 9.73944 37.8286C15.7394 42.0886 22.9594 44.9586 29.0094 49.1786C32.6694 51.7286 35.9394 55.0386 37.7094 58.6886C57.0594 55.6086 76.5594 53.6386 96.1494 52.8986C95.7994 42.3086 98.9994 31.7086 105.969 22.9986V22.9886Z" fill="#C8ECF7"/>
<path d="M117.049 84.1087C106.009 78.4587 106.519 83.5387 97.7695 63.7587C96.8095 60.1887 96.2695 56.5387 96.1495 52.8887C76.5495 53.6287 57.0595 55.5987 37.7095 58.6787C38.8695 61.0587 39.3795 63.5887 38.9395 66.1487C37.6595 73.4487 29.3995 77.9787 22.4495 82.3587C15.4995 86.7387 8.58946 93.6187 11.4095 100.689C13.7495 106.549 21.6395 109.329 28.7395 110.739C56.6495 116.259 86.7895 111.419 110.179 98.1887C117.649 93.9687 127.669 89.5487 117.049 84.1187V84.1087Z" fill="#C8E4F7"/>
<path d="M90.4195 23.1484H25.8295C19.2021 23.1484 13.8295 28.521 13.8295 35.1484V76.7984C13.8295 83.4259 19.2021 88.7984 25.8295 88.7984H90.4195C97.0469 88.7984 102.419 83.4259 102.419 76.7984V35.1484C102.419 28.521 97.0469 23.1484 90.4195 23.1484Z" fill="#252C30"/>
<path d="M86.5195 66.8785C92.0595 56.2285 95.0395 45.2685 98.0995 34.2185V28.5985C98.0995 27.9685 97.5895 27.4585 96.9595 27.4585H19.2895C18.6595 27.4585 18.1495 27.9685 18.1495 28.5985V83.3285C18.1495 83.9585 18.6595 84.4685 19.2895 84.4685H66.7995C74.6795 80.3985 81.8695 75.2485 86.5195 66.8685V66.8785Z" fill="#669D60"/>
<path d="M86.5194 66.8785C81.8694 75.2485 74.6794 80.4085 66.7994 84.4785H96.9594C97.5894 84.4785 98.0994 83.9685 98.0994 83.3385V34.2285C95.0394 45.2785 92.0494 56.2385 86.5194 66.8885V66.8785Z" fill="#4F8551"/>
<path d="M65.4395 44.1685H67.9295" stroke="white" stroke-width="0.65" stroke-linecap="round" stroke-linejoin="round"/>
<path d="M62.1494 59.5088H64.6394" stroke="white" stroke-width="0.65" stroke-linecap="round" stroke-linejoin="round"/>
<path d="M62.1494 60.6587H64.6394" stroke="white" stroke-width="0.65" stroke-linecap="round" stroke-linejoin="round"/>
<path d="M48.8494 37.0985C48.6594 36.9685 48.3894 36.9785 48.1994 37.1085C48.0094 37.2385 47.9294 37.4985 47.9894 37.7185C48.3094 37.8485 48.7094 37.5485 48.6894 37.1985C48.8394 37.5985 48.9994 37.9985 49.1494 38.3985" stroke="white" stroke-width="0.65" stroke-linecap="round" stroke-linejoin="round"/>
<path d="M40.2694 45.0186C44.2194 44.9586 48.1694 44.8886 52.1194 44.8286" stroke="white" stroke-width="0.65" stroke-linecap="round" stroke-linejoin="round"/>
<path d="M47.0394 46.6885L47.3894 49.1185C47.6394 48.7585 47.8794 48.3985 48.1294 48.0385C48.2794 48.1885 48.4394 48.3385 48.5194 48.5385C48.5994 48.7385 48.5894 48.9885 48.4294 49.1285C48.2294 49.3185 47.8494 49.2085 47.7794 48.9385" stroke="white" stroke-width="0.65" stroke-linecap="round" stroke-linejoin="round"/>
<path d="M53.9494 43.3687H56.4394" stroke="white" stroke-width="0.65" stroke-linecap="round" stroke-linejoin="round"/>
<path d="M53.8294 45.2084L56.2194 45.1284" stroke="white" stroke-width="0.65" stroke-linecap="round" stroke-linejoin="round"/>
<path d="M65.4894 45.6386L67.8794 45.5586" stroke="white" stroke-width="0.65" stroke-linecap="round" stroke-linejoin="round"/>
<path d="M60.8294 43.5884C60.4994 43.1884 59.9394 43.0184 59.4294 43.1184C58.9194 43.2184 58.4694 43.5284 58.1494 43.9384C57.7894 44.4084 57.5794 45.0184 57.6894 45.6084C57.7994 46.1984 58.2494 46.7184 58.8394 46.8284C59.5294 46.9584 60.2194 46.4884 60.5694 45.8784C60.9194 45.2684 61.0094 44.5484 61.0894 43.8484C61.6394 44.9084 62.3794 45.8784 63.2494 46.6984" stroke="white" stroke-width="0.65" stroke-linecap="round" stroke-linejoin="round"/>
<path d="M44.6194 38.4287C44.2894 38.0287 43.7294 37.8587 43.2194 37.9587C42.7094 38.0587 42.2594 38.3687 41.9394 38.7787C41.5794 39.2487 41.3694 39.8587 41.4794 40.4487C41.5894 41.0387 42.0394 41.5587 42.6294 41.6687C43.3194 41.7987 44.0094 41.3287 44.3594 40.7187C44.7094 40.1087 44.7994 39.3887 44.8794 38.6887C45.4294 39.7487 46.1694 40.7187 47.0394 41.5387" stroke="white" stroke-width="0.65" stroke-linecap="round" stroke-linejoin="round"/>
<path d="M44.6194 49.4687C44.2894 49.0687 43.7294 48.8987 43.2194 48.9987C42.7094 49.0987 42.2594 49.4087 41.9394 49.8187C41.5794 50.2887 41.3694 50.8987 41.4794 51.4887C41.5894 52.0787 42.0394 52.5987 42.6294 52.7087C43.3194 52.8387 44.0094 52.3687 44.3594 51.7587C44.7094 51.1487 44.7994 50.4287 44.8794 49.7287C45.4294 50.7887 46.1694 51.7587 47.0394 52.5787" stroke="white" stroke-width="0.65" stroke-linecap="round" stroke-linejoin="round"/>
<path d="M72.5994 43.2187C72.2694 42.8187 71.7094 42.6487 71.1994 42.7487C70.6894 42.8487 70.2394 43.1587 69.9194 43.5687C69.5594 44.0387 69.3494 44.6487 69.4594 45.2387C69.5694 45.8287 70.0194 46.3487 70.6094 46.4587C71.2994 46.5887 71.9894 46.1187 72.3394 45.5087C72.6894 44.8987 72.7794 44.1787 72.8594 43.4787C73.4094 44.5387 74.1494 45.5087 75.0194 46.3287" stroke="white" stroke-width="0.65" stroke-linecap="round" stroke-linejoin="round"/>
<path d="M61.8394 40.9985L62.0894 43.1685L62.1994 42.6085C62.4394 42.6085 62.6794 42.7185 62.8294 42.9085C62.7594 43.2485 62.2494 43.3785 62.0194 43.1185" stroke="white" stroke-width="0.65" stroke-linecap="round" stroke-linejoin="round"/>
<path d="M64.1594 42.4283C64.0594 42.3883 63.9394 42.4983 63.9694 42.5983C64.0294 42.5583 64.0894 42.5283 64.1494 42.4883C64.1194 42.4683 64.0794 42.4483 64.0494 42.4283" stroke="white" stroke-width="0.41" stroke-linecap="round" stroke-linejoin="round"/>
<path d="M65.6194 41.3285C65.6694 41.1885 65.8194 41.0985 65.9694 41.1185C66.1194 41.1385 66.2494 41.2485 66.2694 41.3985C66.2994 41.5785 66.1794 41.7485 66.0294 41.8485C65.8794 41.9485 65.6894 41.9685 65.5194 41.9985C65.6994 42.0885 65.8194 42.2885 65.8194 42.4885C65.8194 42.6885 65.6794 42.8785 65.4994 42.9585" stroke="white" stroke-width="0.65" stroke-linecap="round" stroke-linejoin="round"/>
<path d="M75.5294 40.9784C75.5794 40.8384 75.7294 40.7484 75.8794 40.7684C76.0294 40.7884 76.1594 40.8984 76.1794 41.0484C76.2094 41.2284 76.0894 41.3984 75.9394 41.4984C75.7894 41.5984 75.5994 41.6184 75.4294 41.6484C75.6094 41.7384 75.7294 41.9384 75.7294 42.1384C75.7294 42.3384 75.5894 42.5284 75.4094 42.6084" stroke="white" stroke-width="0.65" stroke-linecap="round" stroke-linejoin="round"/>
<path d="M39.3195 77.0386C44.4226 77.0386 48.5595 72.9017 48.5595 67.7986C48.5595 62.6955 44.4226 58.5586 39.3195 58.5586C34.2164 58.5586 30.0795 62.6955 30.0795 67.7986C30.0795 72.9017 34.2164 77.0386 39.3195 77.0386Z" stroke="white" stroke-width="0.74" stroke-linecap="round" stroke-linejoin="round"/>
<path d="M39.3195 67.2285V58.7485" stroke="white" stroke-width="0.8" stroke-miterlimit="10"/>
<path d="M39.9294 67.7988H48.5194" stroke="white" stroke-width="0.76" stroke-miterlimit="10"/>
<path d="M39.3195 68.6185C39.7723 68.6185 40.1395 68.2514 40.1395 67.7985C40.1395 67.3456 39.7723 66.9785 39.3195 66.9785C38.8666 66.9785 38.4995 67.3456 38.4995 67.7985C38.4995 68.2514 38.8666 68.6185 39.3195 68.6185Z" fill="white"/>
<path d="M41.7395 58.8784L39.5995 59.5784L42.7795 59.2284C42.7795 59.2284 39.5195 60.3684 39.9195 60.2484C40.3195 60.1284 43.5195 59.5684 43.5195 59.5684L39.9195 61.4084L43.7995 60.1484L39.5895 62.4184L44.5295 60.9284L39.9095 62.9984L45.8695 61.2984L39.9095 63.7984L46.1695 62.1484L39.5795 64.8984L46.5995 62.9984L39.9095 65.6284L47.0195 63.6184L39.5795 66.4284L47.3295 64.2284L39.9095 66.9884L47.3295 64.8984L41.4295 67.2384L47.7795 65.5684L43.6795 67.2384L47.7795 66.1784L45.7995 67.2384L47.7795 66.7284L47.0195 67.4584L48.1895 67.2384" stroke="white" stroke-width="0.22" stroke-linecap="round" stroke-linejoin="round"/>
<path d="M53.7195 60.5484C52.8295 60.2684 52.0295 59.6784 51.5095 58.8984" stroke="white" stroke-width="0.65" stroke-linecap="round" stroke-linejoin="round"/>
<path d="M51.3694 60.8487C52.5694 60.4087 53.5294 59.3887 53.9094 58.1787" stroke="white" stroke-width="0.65" stroke-linecap="round" stroke-linejoin="round"/>
<path d="M55.8794 58.8887L55.6494 60.4187" stroke="white" stroke-width="0.65" stroke-linecap="round" stroke-linejoin="round"/>
<path d="M56.5395 59.7086L54.9995 59.5986" stroke="white" stroke-width="0.65" stroke-linecap="round" stroke-linejoin="round"/>
<path d="M60.8294 58.7886L57.5894 62.8686" stroke="white" stroke-width="0.65" stroke-linecap="round" stroke-linejoin="round"/>
<path d="M58.0994 58.5488L58.9894 60.4988" stroke="white" stroke-width="0.65" stroke-linecap="round" stroke-linejoin="round"/>
<path d="M67.1094 61.3987C67.1094 61.3987 66.9894 61.3387 66.9294 61.3687C66.8694 61.3987 66.8294 61.4687 66.8394 61.5287C66.8994 61.5387 66.9494 61.5487 67.0094 61.5287C67.0694 61.5087 67.1094 61.4587 67.0994 61.4087C67.0894 61.3587 66.9994 61.3287 66.9694 61.3787" stroke="white" stroke-width="0.65" stroke-linecap="round" stroke-linejoin="round"/>
<path d="M65.4094 56.9588C66.1394 56.6588 66.9194 56.4988 67.7094 56.4888C67.9994 56.4888 68.3094 56.5088 68.5594 56.6388C68.8094 56.7688 69.0194 57.0588 68.9794 57.3488C68.9394 57.6088 68.7294 57.8088 68.4894 57.9188C68.2494 58.0288 67.9894 58.0688 67.7394 58.1388C67.4894 58.2088 67.2294 58.3288 67.0894 58.5488C66.9694 58.7288 66.9394 58.9488 66.9094 59.1588C66.8694 59.4488 66.8294 59.7288 66.7894 60.0188" stroke="white" stroke-width="0.65" stroke-linecap="round" stroke-linejoin="round"/>
<path d="M110.289 80.0788L110.079 79.7588C104.199 85.6188 96.9494 90.2788 89.1494 93.3688C89.4094 93.4488 89.6694 93.5288 89.9294 93.5988C89.6694 93.5188 89.4094 93.4388 89.1494 93.3688C87.5094 94.0188 85.8394 94.6088 84.1594 95.1088L85.4494 96.1588C85.9594 96.5688 86.5694 96.7588 87.1694 96.7488C88.0494 97.2688 89.1794 97.2888 90.0794 96.6988L109.509 83.8688C110.769 83.0388 111.119 81.3288 110.289 80.0788Z" fill="#086AA9"/>
<path d="M88.0294 93.7885C84.9294 92.5585 82.0594 91.2785 79.2194 89.7385C78.6094 89.4285 77.9994 89.0885 77.4094 88.7285C80.1694 90.7085 83.1594 92.8485 86.2094 94.4485C86.8194 94.2385 87.4294 94.0185 88.0294 93.7885Z" fill="#087AA9"/>
<path d="M77.4095 88.7285C76.0195 87.8785 74.6995 86.8985 73.5095 85.7085C73.6395 86.2885 73.9495 86.8385 74.4395 87.2385L84.1595 95.1185C84.8495 94.9085 85.5295 94.6885 86.2095 94.4485C83.1595 92.8485 80.1695 90.7085 77.4095 88.7285Z" fill="#086AA9"/>
<path d="M89.1494 93.3788C85.8494 92.3888 82.3894 91.3588 79.2194 89.7388C82.0594 91.2788 84.9294 92.5588 88.0294 93.7888C88.3994 93.6488 88.7794 93.5188 89.1494 93.3688V93.3788Z" fill="#087AA9"/>
<path d="M107.109 75.2685C106.279 74.0085 104.569 73.6585 103.319 74.4885L85.9294 85.9685L79.6094 80.8485C78.4394 79.8985 76.7094 80.0785 75.7594 81.2485L74.0394 83.3785C73.4894 84.0485 73.3294 84.9085 73.5094 85.6985C77.8494 89.9885 83.7094 91.7385 89.1494 93.3685C96.9494 90.2785 104.199 85.6085 110.079 79.7585L107.109 75.2685Z" fill="#087AA9"/>
<path d="M77.7095 78.9688C76.4295 76.5488 75.1595 74.1288 73.8795 71.7188C73.5895 71.1688 73.1895 70.5488 72.5695 70.5388C71.6895 70.5188 71.3495 71.7688 71.6695 72.5888C71.9895 73.4088 72.6795 74.0788 72.8595 74.9388C73.2195 76.6888 71.6295 78.2888 71.6595 80.0688C71.6895 81.5888 72.4095 83.6488 73.7195 84.5388C75.0295 85.4288 76.5795 84.6588 77.5795 83.5788C78.9395 82.1188 78.5695 80.5888 77.7095 78.9688Z" fill="#FF9B6C"/>
<path d="M57.5894 43.3687L75.7794 83.5387" stroke="#4D5948" stroke-width="2.58" stroke-miterlimit="10" stroke-linecap="round"/>
<path d="M74.8495 83.0285C74.8895 82.9685 74.9195 82.9185 74.9495 82.8485C75.2195 82.2085 74.9494 81.4885 74.6794 80.8485C74.3094 79.9885 73.9494 79.1285 73.5794 78.2785C73.2394 77.4685 72.8494 76.6085 72.1094 76.1485C70.7294 75.2785 68.1194 76.1285 67.8694 77.8485C67.7594 78.5985 68.0695 79.9085 68.5195 81.0885C70.3495 82.4285 72.2695 83.5485 74.8495 83.0185V83.0285Z" fill="#FF9B6C"/>
<path d="M68.5194 81.0986C68.8994 82.0886 69.3894 82.9986 69.8394 83.3886C70.6094 84.0686 71.7594 84.0786 72.7894 83.9686C73.5694 83.8886 74.4494 83.6686 74.8494 83.0286C72.2694 83.5586 70.3494 82.4286 68.5194 81.0986Z" fill="#FF746C"/>
</svg>
