<svg width="471" height="180" viewBox="0 0 471 180" fill="none" xmlns="http://www.w3.org/2000/svg">
<g clip-path="url(#clip0_1549_6615)">
<path d="M344.19 169.55L298.88 138.76C297.75 147.73 299.25 156.11 303.78 163.09C318.86 186.33 361.7 185.31 399.47 160.81C417.11 149.37 430.51 134.83 438.26 120.22C441.57 116.89 444.26 113.1 446.19 108.81C451.19 97.7202 450.5 85.0102 445.26 72.2402L402.71 83.4102L344.19 169.54V169.55Z" fill="#E0EFFF"/>
<path d="M281.23 84.7895L282 85.3095L284.23 82.0295L283.46 81.5095C282.98 81.1895 282.86 80.5395 283.18 80.0595L283.4 79.7395C283.72 79.2595 284.37 79.1395 284.85 79.4595L285.62 79.9795L287.85 76.6995L287.08 76.1795C286.6 75.8595 286.48 75.2095 286.8 74.7295L287.02 74.4095C287.34 73.9295 287.99 73.8095 288.47 74.1295L289.24 74.6495L291.47 71.3695L290.7 70.8495C290.22 70.5295 290.1 69.8795 290.42 69.3995L290.64 69.0795C290.96 68.5995 291.61 68.4795 292.09 68.7995L292.86 69.3195L295.09 66.0395L294.32 65.5195C293.84 65.1995 293.72 64.5495 294.04 64.0695L294.26 63.7495C294.58 63.2695 295.23 63.1495 295.71 63.4695L296.48 63.9895L298.71 60.7095L297.94 60.1895C297.46 59.8695 297.34 59.2195 297.66 58.7395L297.88 58.4195C298.2 57.9395 298.85 57.8195 299.33 58.1395L300.1 58.6595L302.33 55.3795L301.56 54.8595C301.08 54.5395 300.96 53.8895 301.28 53.4095L301.5 53.0895C301.82 52.6095 302.47 52.4895 302.95 52.8095L303.72 53.3295L305.95 50.0495L305.18 49.5295C304.7 49.2095 304.58 48.5595 304.9 48.0795L305.12 47.7595C305.44 47.2795 306.09 47.1595 306.57 47.4795L307.34 47.9995L309.57 44.7195L308.8 44.1995C308.32 43.8795 308.2 43.2295 308.52 42.7495L308.74 42.4295C309.06 41.9495 309.71 41.8295 310.19 42.1495L310.96 42.6695L313.19 39.3895L312.38 38.8395C311.93 38.5295 311.81 37.9095 312.12 37.4595L312.4 37.0495C312.71 36.5995 313.33 36.4795 313.78 36.7895L314.59 37.3395L316.82 34.0595L316.01 33.5095C315.56 33.1995 315.44 32.5795 315.75 32.1295L316.03 31.7195C316.34 31.2695 316.96 31.1495 317.41 31.4595L318.22 32.0095L320.45 28.7295L319.64 28.1795C319.19 27.8695 319.07 27.2495 319.38 26.7995L319.66 26.3895C319.97 25.9395 320.59 25.8195 321.04 26.1295L321.85 26.6795L324.08 23.3995L323.27 22.8495C322.82 22.5395 322.7 21.9195 323.01 21.4695L323.29 21.0595C323.6 20.6095 324.22 20.4895 324.67 20.7995L325.48 21.3495L327.71 18.0695L326.9 17.5195C326.45 17.2095 326.33 16.5895 326.64 16.1395L326.92 15.7295C327.23 15.2795 327.85 15.1595 328.3 15.4695L329.11 16.0195L334.32 8.33955L406.02 57.0595L416.02 63.8495L437.68 58.1595C425.97 40.7795 406.28 24.4195 381.42 13.2195C331.9 -9.10045 280.61 -2.48046 266.88 27.9895C259.21 45.0095 264.89 65.8695 280.01 84.8595C280.36 84.5695 280.86 84.5195 281.26 84.7795L281.23 84.7895Z" fill="#D9F3FF"/>
<path d="M309.48 111.39C300.94 105.74 293.39 99.4599 286.99 92.8399C286.84 92.7799 286.7 92.7099 286.56 92.6199C286.15 92.3399 285.86 91.9399 285.71 91.5099C285.16 90.9299 284.63 90.3399 284.1 89.7599L280.59 87.3799L278.36 90.6599L283.32 94.0299C284 93.7399 284.81 93.7899 285.47 94.2299C286.5 94.9299 286.77 96.3299 286.07 97.3599C285.37 98.3899 283.97 98.6599 282.94 97.9599C282.3 97.5199 281.95 96.8199 281.95 96.0999L276.97 92.7099L274.74 95.9899L279.7 99.3599C280.38 99.0699 281.19 99.1199 281.85 99.5599C282.88 100.26 283.15 101.66 282.45 102.69C281.75 103.72 280.35 103.99 279.32 103.29C278.68 102.85 278.33 102.15 278.33 101.43L273.35 98.0399L271.12 101.32L276.2 104.77C276.88 104.48 277.69 104.53 278.35 104.97C279.38 105.67 279.65 107.07 278.95 108.1C278.25 109.13 276.85 109.4 275.82 108.7C275.18 108.26 274.83 107.56 274.83 106.84L269.73 103.37L267.5 106.65L272.69 110.18C273.37 109.89 274.18 109.94 274.84 110.38C275.87 111.08 276.14 112.48 275.44 113.51C274.74 114.54 273.34 114.81 272.31 114.11C271.67 113.67 271.32 112.97 271.32 112.25L266.1 108.71L262.47 114.06L297.04 137.55C297.74 137.39 298.43 137.22 299.13 137.06C300.48 128.76 304.02 120.01 309.48 111.42V111.39Z" fill="#FFF5DC"/>
<path d="M371.28 87.3801L364.82 87.1701C362.67 86.8501 362.38 85.9701 364.12 84.5101L380.78 73.4001L381.54 72.8901L398.72 68.3801C401.29 64.7001 403.72 60.9201 406 57.0501L334.3 8.33008L329.09 16.0101L334.05 19.3801C334.73 19.0901 335.54 19.1401 336.2 19.5801C337.23 20.2801 337.5 21.6801 336.8 22.7101C336.1 23.7401 334.7 24.0101 333.67 23.3101C333.03 22.8701 332.68 22.1701 332.68 21.4501L327.7 18.0601L325.47 21.3401L330.43 24.7101C331.11 24.4201 331.92 24.4701 332.58 24.9101C333.61 25.6101 333.88 27.0101 333.18 28.0401C332.48 29.0701 331.08 29.3401 330.05 28.6401C329.41 28.2001 329.06 27.5001 329.06 26.7801L324.08 23.3901L321.85 26.6701L326.81 30.0401C327.49 29.7501 328.3 29.8001 328.96 30.2401C329.99 30.9401 330.26 32.3401 329.56 33.3701C328.86 34.4001 327.46 34.6701 326.43 33.9701C325.79 33.5301 325.44 32.8301 325.44 32.1101L320.46 28.7201L318.23 32.0001L323.19 35.3701C323.87 35.0801 324.68 35.1301 325.34 35.5701C326.37 36.2701 326.64 37.6701 325.94 38.7001C325.24 39.7301 323.84 40.0001 322.81 39.3001C322.17 38.8601 321.82 38.1601 321.82 37.4401L316.84 34.0501L314.61 37.3301L319.57 40.7001C320.25 40.4101 321.06 40.4601 321.72 40.9001C322.75 41.6001 323.02 43.0001 322.32 44.0301C321.62 45.0601 320.22 45.3301 319.19 44.6301C318.55 44.1901 318.2 43.4901 318.2 42.7701L313.22 39.3801L310.99 42.6601L315.95 46.0301C316.63 45.7401 317.44 45.7901 318.1 46.2301C319.13 46.9301 319.4 48.3301 318.7 49.3601C318 50.3901 316.6 50.6601 315.57 49.9601C314.93 49.5201 314.58 48.8201 314.58 48.1001L309.6 44.7101L307.37 47.9901L312.33 51.3601C313.01 51.0701 313.82 51.1201 314.48 51.5601C315.51 52.2601 315.78 53.6601 315.08 54.6901C314.38 55.7201 312.98 55.9901 311.95 55.2901C311.31 54.8501 310.96 54.1501 310.96 53.4301L305.98 50.0401L303.75 53.3201L308.71 56.6901C309.39 56.4001 310.2 56.4501 310.86 56.8901C311.89 57.5901 312.16 58.9901 311.46 60.0201C310.76 61.0501 309.36 61.3201 308.33 60.6201C307.69 60.1801 307.34 59.4801 307.34 58.7601L302.36 55.3701L300.13 58.6501L305.09 62.0201C305.77 61.7301 306.58 61.7801 307.24 62.2201C308.27 62.9201 308.54 64.3201 307.84 65.3501C307.14 66.3801 305.74 66.6501 304.71 65.9501C304.07 65.5101 303.72 64.8101 303.72 64.0901L298.74 60.7001L296.51 63.9801L301.47 67.3501C302.15 67.0601 302.96 67.1101 303.62 67.5501C304.65 68.2501 304.92 69.6501 304.22 70.6801C303.52 71.7101 302.12 71.9801 301.09 71.2801C300.45 70.8401 300.1 70.1401 300.1 69.4201L295.12 66.0301L292.89 69.3101L297.85 72.6801C298.53 72.3901 299.34 72.4401 300 72.8801C301.03 73.5801 301.3 74.9801 300.6 76.0101C299.9 77.0401 298.5 77.3101 297.47 76.6101C296.83 76.1701 296.48 75.4701 296.48 74.7501L291.5 71.3601L289.27 74.6401L294.23 78.0101C294.91 77.7201 295.72 77.7701 296.38 78.2101C297.41 78.9101 297.68 80.3101 296.98 81.3401C296.28 82.3701 294.88 82.6401 293.85 81.9401C293.21 81.5001 292.86 80.8001 292.86 80.0801L287.88 76.6901L285.65 79.9701L290.61 83.3401C291.29 83.0501 292.1 83.1001 292.76 83.5401C293.79 84.2401 294.06 85.6401 293.36 86.6701C292.66 87.7001 291.26 87.9701 290.23 87.2701C289.59 86.8301 289.24 86.1301 289.24 85.4101L284.26 82.0201L282.03 85.3001L286.99 88.6701C287.67 88.3801 288.48 88.4301 289.14 88.8701C290.17 89.5701 290.44 90.9701 289.74 92.0001C289.13 92.8901 288 93.2101 287.03 92.8201C293.43 99.4401 300.98 105.72 309.52 111.37C304.06 119.96 300.52 128.71 299.17 137.01C331.44 129.37 360.61 111.68 383.04 87.7401L371.32 87.3601L371.28 87.3801Z" fill="#FFF5DC"/>
<path d="M381.75 76.7197L395.23 73.1797L381.75 76.7197Z" fill="#FFF5DC"/>
<path d="M284.11 89.75C284.64 90.34 285.18 90.92 285.72 91.5C285.63 91.26 285.58 91.01 285.58 90.75L284.1 89.75H284.11Z" fill="#FFF5DC"/>
<path d="M297.05 137.52L298.88 138.77C298.95 138.19 299.04 137.61 299.13 137.03C298.43 137.19 297.74 137.37 297.04 137.52H297.05Z" fill="#F5EBDC"/>
<path d="M415.99 63.8496L405.99 57.0596C403.72 60.9296 401.28 64.7096 398.71 68.3896L415.98 63.8496H415.99Z" fill="#F5EBDC"/>
<path d="M402.71 83.4199L385.83 87.8499L384.56 87.8099L383 87.7599C360.57 111.7 331.4 129.39 299.13 137.03C299.04 137.61 298.95 138.19 298.88 138.77L344.19 169.56L402.71 83.4299V83.4199Z" fill="#F5EBDC"/>
<path d="M335.04 21.2695L334.76 21.6795C334.45 22.1295 333.83 22.2495 333.38 21.9395L332.66 21.4495C332.66 22.1695 333.01 22.8795 333.65 23.3095C334.68 24.0095 336.08 23.7395 336.78 22.7095C337.48 21.6795 337.21 20.2795 336.18 19.5795C335.52 19.1295 334.71 19.0795 334.03 19.3795L334.77 19.8895C335.22 20.1995 335.34 20.8195 335.03 21.2695H335.04Z" fill="#666666"/>
<path d="M328.27 15.4597C327.82 15.1497 327.2 15.2697 326.89 15.7197L326.61 16.1297C326.3 16.5797 326.42 17.1997 326.87 17.5097L327.68 18.0597L329.08 16.0097L328.27 15.4597Z" fill="#999999"/>
<path d="M333.05 20.1895C333.3 19.8195 333.65 19.5495 334.03 19.3895L329.07 16.0195L327.67 18.0695L332.65 21.4595C332.65 21.0195 332.77 20.5795 333.04 20.1895H333.05Z" fill="#999999"/>
<path d="M333.05 20.1896C332.79 20.5796 332.66 21.0196 332.66 21.4596L333.38 21.9496C333.83 22.2596 334.45 22.1396 334.76 21.6896L335.04 21.2796C335.35 20.8296 335.23 20.2096 334.78 19.8996L334.04 19.3896C333.66 19.5496 333.31 19.8196 333.06 20.1896H333.05Z" fill="#999999"/>
<path d="M331.42 26.5996L331.14 27.0096C330.83 27.4596 330.21 27.5796 329.76 27.2696L329.04 26.7796C329.04 27.4996 329.39 28.2096 330.03 28.6396C331.06 29.3396 332.46 29.0696 333.16 28.0396C333.86 27.0096 333.59 25.6096 332.56 24.9096C331.9 24.4596 331.09 24.4096 330.41 24.7096L331.15 25.2196C331.6 25.5296 331.72 26.1496 331.41 26.5996H331.42Z" fill="#666666"/>
<path d="M324.65 20.7996C324.2 20.4896 323.58 20.6096 323.27 21.0596L322.99 21.4696C322.68 21.9196 322.8 22.5396 323.25 22.8496L324.06 23.3996L325.46 21.3496L324.65 20.7996Z" fill="#999999"/>
<path d="M329.43 25.5196C329.68 25.1496 330.03 24.8796 330.41 24.7196L325.45 21.3496L324.05 23.3996L329.03 26.7896C329.03 26.3496 329.15 25.9096 329.42 25.5196H329.43Z" fill="#999999"/>
<path d="M329.43 25.5197C329.17 25.9097 329.04 26.3497 329.04 26.7897L329.76 27.2797C330.21 27.5897 330.83 27.4697 331.14 27.0197L331.42 26.6097C331.73 26.1597 331.61 25.5397 331.16 25.2297L330.42 24.7197C330.04 24.8797 329.69 25.1497 329.44 25.5197H329.43Z" fill="#999999"/>
<path d="M327.8 31.9297L327.52 32.3397C327.21 32.7897 326.59 32.9097 326.14 32.5997L325.42 32.1097C325.42 32.8297 325.77 33.5397 326.41 33.9697C327.44 34.6697 328.84 34.3997 329.54 33.3697C330.24 32.3397 329.97 30.9397 328.94 30.2397C328.28 29.7897 327.47 29.7397 326.79 30.0397L327.53 30.5497C327.98 30.8597 328.1 31.4797 327.79 31.9297H327.8Z" fill="#666666"/>
<path d="M321.02 26.1297C320.57 25.8197 319.95 25.9397 319.64 26.3897L319.36 26.7997C319.05 27.2497 319.17 27.8697 319.62 28.1797L320.43 28.7297L321.83 26.6797L321.02 26.1297Z" fill="#999999"/>
<path d="M325.81 30.8497C326.06 30.4797 326.41 30.2097 326.79 30.0497L321.83 26.6797L320.43 28.7297L325.41 32.1197C325.41 31.6797 325.53 31.2397 325.8 30.8497H325.81Z" fill="#999999"/>
<path d="M325.81 30.8498C325.55 31.2398 325.42 31.6798 325.42 32.1198L326.14 32.6098C326.59 32.9198 327.21 32.7998 327.52 32.3498L327.8 31.9398C328.11 31.4898 327.99 30.8698 327.54 30.5598L326.8 30.0498C326.42 30.2098 326.07 30.4798 325.82 30.8498H325.81Z" fill="#999999"/>
<path d="M324.18 37.2598L323.9 37.6698C323.59 38.1198 322.97 38.2398 322.52 37.9298L321.8 37.4398C321.8 38.1598 322.15 38.8698 322.79 39.2998C323.82 39.9998 325.22 39.7298 325.92 38.6998C326.62 37.6698 326.35 36.2698 325.32 35.5698C324.66 35.1198 323.85 35.0698 323.17 35.3698L323.91 35.8798C324.36 36.1898 324.48 36.8098 324.17 37.2598H324.18Z" fill="#666666"/>
<path d="M317.4 31.4597C316.95 31.1497 316.33 31.2697 316.02 31.7197L315.74 32.1297C315.43 32.5797 315.55 33.1997 316 33.5097L316.81 34.0597L318.21 32.0097L317.4 31.4597Z" fill="#999999"/>
<path d="M322.19 36.1798C322.44 35.8098 322.79 35.5398 323.17 35.3798L318.21 32.0098L316.81 34.0598L321.79 37.4498C321.79 37.0098 321.91 36.5698 322.18 36.1798H322.19Z" fill="#999999"/>
<path d="M322.19 36.1799C321.93 36.5699 321.8 37.0099 321.8 37.4499L322.52 37.9399C322.97 38.2499 323.59 38.1299 323.9 37.6799L324.18 37.2699C324.49 36.8199 324.37 36.1999 323.92 35.8899L323.18 35.3799C322.8 35.5399 322.45 35.8099 322.2 36.1799H322.19Z" fill="#999999"/>
<path d="M320.56 42.5898L320.28 42.9998C319.97 43.4498 319.35 43.5698 318.9 43.2598L318.18 42.7698C318.18 43.4898 318.53 44.1998 319.17 44.6298C320.2 45.3298 321.6 45.0598 322.3 44.0298C323 42.9998 322.73 41.5998 321.7 40.8998C321.04 40.4498 320.23 40.3998 319.55 40.6998L320.29 41.2098C320.74 41.5198 320.86 42.1398 320.55 42.5898H320.56Z" fill="#666666"/>
<path d="M313.78 36.7898C313.33 36.4798 312.71 36.5998 312.4 37.0498L312.12 37.4598C311.81 37.9098 311.93 38.5298 312.38 38.8398L313.19 39.3898L314.59 37.3398L313.78 36.7898Z" fill="#999999"/>
<path d="M318.57 41.5098C318.82 41.1398 319.17 40.8698 319.55 40.7098L314.59 37.3398L313.19 39.3898L318.17 42.7798C318.17 42.3398 318.29 41.8998 318.56 41.5098H318.57Z" fill="#999999"/>
<path d="M318.57 41.51C318.31 41.9 318.18 42.34 318.18 42.78L318.9 43.27C319.35 43.58 319.97 43.46 320.28 43.01L320.56 42.6C320.87 42.15 320.75 41.53 320.3 41.22L319.56 40.71C319.18 40.87 318.83 41.14 318.58 41.51H318.57Z" fill="#999999"/>
<path d="M316.91 47.9697L316.69 48.2897C316.37 48.7697 315.72 48.8897 315.24 48.5697L314.56 48.1097C314.56 48.8297 314.91 49.5397 315.55 49.9697C316.58 50.6697 317.98 50.3997 318.68 49.3697C319.38 48.3397 319.11 46.9397 318.08 46.2397C317.42 45.7897 316.61 45.7397 315.93 46.0397L316.63 46.5197C317.11 46.8397 317.23 47.4897 316.91 47.9697Z" fill="#666666"/>
<path d="M310.2 42.1503C309.72 41.8303 309.07 41.9503 308.75 42.4303L308.53 42.7503C308.21 43.2303 308.33 43.8803 308.81 44.2003L309.58 44.7203L310.98 42.6703L310.21 42.1503H310.2Z" fill="#999999"/>
<path d="M314.95 46.8399C315.2 46.4699 315.55 46.1999 315.93 46.0399L310.97 42.6699L309.57 44.7199L314.55 48.1099C314.55 47.6699 314.67 47.2299 314.94 46.8399H314.95Z" fill="#999999"/>
<path d="M314.95 46.84C314.69 47.23 314.56 47.67 314.56 48.11L315.24 48.57C315.72 48.89 316.37 48.77 316.69 48.29L316.91 47.97C317.23 47.49 317.11 46.84 316.63 46.52L315.93 46.04C315.55 46.2 315.2 46.47 314.95 46.84Z" fill="#999999"/>
<path d="M313.28 53.2998L313.06 53.6198C312.74 54.0998 312.09 54.2198 311.61 53.8998L310.93 53.4398C310.93 54.1598 311.28 54.8698 311.92 55.2998C312.95 55.9998 314.35 55.7298 315.05 54.6998C315.75 53.6698 315.48 52.2698 314.45 51.5698C313.79 51.1198 312.98 51.0698 312.3 51.3698L313 51.8498C313.48 52.1698 313.6 52.8198 313.28 53.2998Z" fill="#666666"/>
<path d="M306.58 47.4804C306.1 47.1604 305.45 47.2804 305.13 47.7604L304.91 48.0804C304.59 48.5604 304.71 49.2104 305.19 49.5304L305.96 50.0504L307.36 48.0004L306.59 47.4804H306.58Z" fill="#999999"/>
<path d="M311.32 52.17C311.57 51.8 311.92 51.53 312.3 51.37L307.34 48L305.94 50.05L310.92 53.44C310.92 53 311.04 52.56 311.31 52.17H311.32Z" fill="#999999"/>
<path d="M311.32 52.1701C311.06 52.5601 310.93 53.0001 310.93 53.4401L311.61 53.9001C312.09 54.2201 312.74 54.1001 313.06 53.6201L313.28 53.3001C313.6 52.8201 313.48 52.1701 313 51.8501L312.3 51.3701C311.92 51.5301 311.57 51.8001 311.32 52.1701Z" fill="#999999"/>
<path d="M309.66 58.6298L309.44 58.9498C309.12 59.4298 308.47 59.5498 307.99 59.2298L307.31 58.7698C307.31 59.4898 307.66 60.1998 308.3 60.6298C309.33 61.3298 310.73 61.0598 311.43 60.0298C312.13 58.9998 311.86 57.5998 310.83 56.8998C310.17 56.4498 309.36 56.3998 308.68 56.6998L309.38 57.1798C309.86 57.4998 309.98 58.1498 309.66 58.6298Z" fill="#666666"/>
<path d="M302.96 52.8104C302.48 52.4904 301.83 52.6104 301.51 53.0904L301.29 53.4104C300.97 53.8904 301.09 54.5404 301.57 54.8604L302.34 55.3804L303.74 53.3304L302.97 52.8104H302.96Z" fill="#999999"/>
<path d="M307.7 57.5001C307.95 57.1301 308.3 56.8601 308.68 56.7001L303.72 53.3301L302.32 55.3801L307.3 58.7701C307.3 58.3301 307.42 57.8901 307.69 57.5001H307.7Z" fill="#999999"/>
<path d="M307.7 57.5002C307.44 57.8902 307.31 58.3302 307.31 58.7702L307.99 59.2302C308.47 59.5502 309.12 59.4302 309.44 58.9502L309.66 58.6302C309.98 58.1502 309.86 57.5002 309.38 57.1802L308.68 56.7002C308.3 56.8602 307.95 57.1302 307.7 57.5002Z" fill="#999999"/>
<path d="M306.04 63.9599L305.82 64.2799C305.5 64.7599 304.85 64.8799 304.37 64.5599L303.69 64.0999C303.69 64.8199 304.04 65.5299 304.68 65.9599C305.71 66.6599 307.11 66.3899 307.81 65.3599C308.51 64.3299 308.24 62.9299 307.21 62.2299C306.55 61.7799 305.74 61.7299 305.06 62.0299L305.76 62.5099C306.24 62.8299 306.36 63.4799 306.04 63.9599Z" fill="#666666"/>
<path d="M299.34 58.1395C298.86 57.8195 298.21 57.9395 297.89 58.4195L297.67 58.7395C297.35 59.2195 297.47 59.8695 297.95 60.1895L298.72 60.7095L300.12 58.6595L299.35 58.1395H299.34Z" fill="#999999"/>
<path d="M304.08 62.8302C304.33 62.4602 304.68 62.1902 305.06 62.0302L300.1 58.6602L298.7 60.7102L303.68 64.1002C303.68 63.6602 303.8 63.2202 304.07 62.8302H304.08Z" fill="#999999"/>
<path d="M304.08 62.8303C303.82 63.2203 303.69 63.6603 303.69 64.1003L304.37 64.5603C304.85 64.8803 305.5 64.7603 305.82 64.2803L306.04 63.9603C306.36 63.4803 306.24 62.8303 305.76 62.5103L305.06 62.0303C304.68 62.1903 304.33 62.4603 304.08 62.8303Z" fill="#999999"/>
<path d="M302.42 69.29L302.2 69.61C301.88 70.09 301.23 70.21 300.75 69.89L300.07 69.43C300.07 70.15 300.42 70.86 301.06 71.29C302.09 71.99 303.49 71.72 304.19 70.69C304.89 69.66 304.62 68.26 303.59 67.56C302.93 67.11 302.12 67.06 301.44 67.36L302.14 67.84C302.62 68.16 302.74 68.81 302.42 69.29Z" fill="#666666"/>
<path d="M295.71 63.4696C295.23 63.1496 294.58 63.2696 294.26 63.7496L294.04 64.0696C293.72 64.5496 293.84 65.1996 294.32 65.5196L295.09 66.0396L296.49 63.9896L295.72 63.4696H295.71Z" fill="#999999"/>
<path d="M300.46 68.1602C300.71 67.7902 301.06 67.5202 301.44 67.3602L296.48 63.9902L295.08 66.0402L300.06 69.4302C300.06 68.9902 300.18 68.5502 300.45 68.1602H300.46Z" fill="#999999"/>
<path d="M300.46 68.1604C300.2 68.5504 300.07 68.9904 300.07 69.4304L300.75 69.8904C301.23 70.2104 301.88 70.0904 302.2 69.6104L302.42 69.2904C302.74 68.8104 302.62 68.1603 302.14 67.8403L301.44 67.3604C301.06 67.5204 300.71 67.7904 300.46 68.1604Z" fill="#999999"/>
<path d="M298.8 74.6201L298.58 74.9401C298.26 75.4201 297.61 75.5401 297.13 75.2201L296.45 74.7601C296.45 75.4801 296.8 76.1901 297.44 76.6201C298.47 77.3201 299.87 77.0501 300.57 76.0201C301.27 74.9901 301 73.5901 299.97 72.8901C299.31 72.4401 298.5 72.3901 297.82 72.6901L298.52 73.1701C299 73.4901 299.12 74.1401 298.8 74.6201Z" fill="#666666"/>
<path d="M292.09 68.7997C291.61 68.4797 290.96 68.5997 290.64 69.0797L290.42 69.3997C290.1 69.8797 290.22 70.5297 290.7 70.8497L291.47 71.3697L292.87 69.3197L292.1 68.7997H292.09Z" fill="#999999"/>
<path d="M296.84 73.4903C297.09 73.1203 297.44 72.8503 297.82 72.6903L292.86 69.3203L291.46 71.3703L296.44 74.7603C296.44 74.3203 296.56 73.8803 296.83 73.4903H296.84Z" fill="#999999"/>
<path d="M296.84 73.4904C296.58 73.8804 296.45 74.3204 296.45 74.7604L297.13 75.2204C297.61 75.5404 298.26 75.4204 298.58 74.9404L298.8 74.6204C299.12 74.1404 299 73.4904 298.52 73.1704L297.82 72.6904C297.44 72.8504 297.09 73.1204 296.84 73.4904Z" fill="#999999"/>
<path d="M295.17 79.9501L294.95 80.2701C294.63 80.7501 293.98 80.8702 293.5 80.5502L292.82 80.0901C292.82 80.8101 293.17 81.5201 293.81 81.9501C294.84 82.6501 296.24 82.3801 296.94 81.3501C297.64 80.3201 297.37 78.9201 296.34 78.2201C295.68 77.7701 294.87 77.7201 294.19 78.0201L294.89 78.5001C295.37 78.8201 295.49 79.4701 295.17 79.9501Z" fill="#666666"/>
<path d="M288.47 74.1298C287.99 73.8098 287.34 73.9298 287.02 74.4098L286.8 74.7298C286.48 75.2098 286.6 75.8598 287.08 76.1798L287.85 76.6998L289.25 74.6498L288.48 74.1298H288.47Z" fill="#999999"/>
<path d="M293.22 78.8204C293.47 78.4504 293.82 78.1804 294.2 78.0204L289.24 74.6504L287.84 76.7004L292.82 80.0904C292.82 79.6504 292.94 79.2104 293.21 78.8204H293.22Z" fill="#999999"/>
<path d="M293.22 78.8195C292.96 79.2095 292.83 79.6495 292.83 80.0895L293.51 80.5495C293.99 80.8695 294.64 80.7495 294.96 80.2695L295.18 79.9495C295.5 79.4695 295.38 78.8195 294.9 78.4995L294.2 78.0195C293.82 78.1795 293.47 78.4495 293.22 78.8195Z" fill="#999999"/>
<path d="M291.55 85.2802L291.33 85.6002C291.01 86.0802 290.36 86.2002 289.88 85.8802L289.2 85.4202C289.2 86.1402 289.55 86.8502 290.19 87.2802C291.22 87.9802 292.62 87.7102 293.32 86.6802C294.02 85.6502 293.75 84.2502 292.72 83.5502C292.06 83.1002 291.25 83.0502 290.57 83.3502L291.27 83.8302C291.75 84.1502 291.87 84.8002 291.55 85.2802Z" fill="#666666"/>
<path d="M284.85 79.4598C284.37 79.1398 283.72 79.2598 283.4 79.7398L283.18 80.0598C282.86 80.5398 282.98 81.1899 283.46 81.5099L284.23 82.0298L285.63 79.9799L284.86 79.4598H284.85Z" fill="#999999"/>
<path d="M289.59 84.1505C289.84 83.7805 290.19 83.5105 290.57 83.3505L285.61 79.9805L284.21 82.0305L289.19 85.4205C289.19 84.9805 289.31 84.5405 289.58 84.1505H289.59Z" fill="#999999"/>
<path d="M289.59 84.1496C289.33 84.5396 289.2 84.9796 289.2 85.4196L289.88 85.8796C290.36 86.1996 291.01 86.0796 291.33 85.5996L291.55 85.2796C291.87 84.7996 291.75 84.1496 291.27 83.8296L290.57 83.3496C290.19 83.5096 289.84 83.7796 289.59 84.1496Z" fill="#999999"/>
<path d="M286.57 92.6102C286.71 92.7002 286.85 92.7802 287 92.8302C286.57 92.3902 286.14 91.9402 285.72 91.4902C285.87 91.9302 286.16 92.3202 286.57 92.6002V92.6102Z" fill="#666666"/>
<path d="M289.7 92.0201C290.4 90.9901 290.13 89.5901 289.1 88.8901C288.44 88.4401 287.63 88.3901 286.95 88.6901L287.65 89.1701C288.13 89.4901 288.25 90.1401 287.93 90.6201L287.71 90.9401C287.39 91.4201 286.74 91.5401 286.26 91.2201L285.58 90.7601C285.58 91.0201 285.63 91.2701 285.72 91.5101C286.14 91.9601 286.57 92.4001 287 92.8501C287.96 93.2401 289.1 92.9201 289.71 92.0301L289.7 92.0201Z" fill="#666666"/>
<path d="M279.98 84.8704C279.91 84.9304 279.83 84.9904 279.77 85.0704L279.55 85.3904C279.23 85.8704 279.35 86.5203 279.83 86.8403L280.6 87.3604L281.24 86.4203C280.81 85.9003 280.4 85.3804 279.98 84.8604V84.8704Z" fill="#999999"/>
<path d="M281.99 85.3098L281.22 84.7898C280.82 84.5198 280.32 84.5698 279.97 84.8698C280.38 85.3898 280.8 85.9098 281.23 86.4298L281.99 85.3198V85.3098Z" fill="#999999"/>
<path d="M281.24 86.4297L280.6 87.3697L284.11 89.7497C283.12 88.6497 282.17 87.5397 281.24 86.4297Z" fill="#999999"/>
<path d="M285.97 89.4796C286.22 89.1096 286.57 88.8396 286.95 88.6796L281.99 85.3096L281.23 86.4196C282.15 87.5396 283.11 88.6396 284.1 89.7396L285.58 90.7396C285.58 90.2996 285.7 89.8596 285.97 89.4696V89.4796Z" fill="#999999"/>
<path d="M285.97 89.4797C285.71 89.8697 285.58 90.3097 285.58 90.7497L286.26 91.2097C286.74 91.5297 287.39 91.4097 287.71 90.9297L287.93 90.6097C288.25 90.1297 288.13 89.4797 287.65 89.1597L286.95 88.6797C286.57 88.8397 286.22 89.1097 285.97 89.4797Z" fill="#999999"/>
<path d="M284.31 95.9404L284.09 96.2604C283.77 96.7404 283.12 96.8604 282.64 96.5404L281.96 96.0804C281.96 96.8004 282.31 97.5104 282.95 97.9404C283.98 98.6404 285.38 98.3704 286.08 97.3404C286.78 96.3104 286.51 94.9104 285.48 94.2104C284.82 93.7604 284.01 93.7104 283.33 94.0104L284.03 94.4904C284.51 94.8104 284.63 95.4604 284.31 95.9404Z" fill="#666666"/>
<path d="M277.61 90.12C277.13 89.8 276.48 89.92 276.16 90.4L275.94 90.72C275.62 91.2 275.74 91.85 276.22 92.17L276.99 92.69L278.39 90.64L277.62 90.12H277.61Z" fill="#999999"/>
<path d="M282.35 94.8096C282.6 94.4396 282.95 94.1697 283.33 94.0097L278.37 90.6396L276.97 92.6897L281.95 96.0797C281.95 95.6397 282.07 95.1996 282.34 94.8096H282.35Z" fill="#999999"/>
<path d="M282.35 94.8098C282.09 95.1998 281.96 95.6398 281.96 96.0798L282.64 96.5398C283.12 96.8598 283.77 96.7398 284.09 96.2598L284.31 95.9398C284.63 95.4598 284.51 94.8098 284.03 94.4898L283.33 94.0098C282.95 94.1698 282.6 94.4398 282.35 94.8098Z" fill="#999999"/>
<path d="M280.69 101.27L280.47 101.59C280.15 102.07 279.5 102.19 279.02 101.87L278.34 101.41C278.34 102.13 278.69 102.84 279.33 103.27C280.36 103.97 281.76 103.7 282.46 102.67C283.16 101.64 282.89 100.24 281.86 99.5405C281.2 99.0905 280.39 99.0405 279.71 99.3405L280.41 99.8205C280.89 100.14 281.01 100.79 280.69 101.27Z" fill="#666666"/>
<path d="M273.98 95.4501C273.5 95.1301 272.85 95.2501 272.53 95.7301L272.31 96.0501C271.99 96.5301 272.11 97.1801 272.59 97.5001L273.36 98.0201L274.76 95.9701L273.99 95.4501H273.98Z" fill="#999999"/>
<path d="M278.73 100.15C278.98 99.7805 279.33 99.5105 279.71 99.3505L274.75 95.9805L273.35 98.0305L278.33 101.42C278.33 100.98 278.45 100.54 278.72 100.15H278.73Z" fill="#999999"/>
<path d="M278.73 100.15C278.47 100.54 278.34 100.98 278.34 101.42L279.02 101.88C279.5 102.2 280.15 102.08 280.47 101.6L280.69 101.28C281.01 100.8 280.89 100.15 280.41 99.8296L279.71 99.3496C279.33 99.5096 278.98 99.7796 278.73 100.15Z" fill="#999999"/>
<path d="M277.18 106.68L276.96 107C276.64 107.48 275.99 107.6 275.51 107.28L274.83 106.82C274.83 107.54 275.18 108.25 275.82 108.68C276.85 109.38 278.25 109.11 278.95 108.08C279.65 107.05 279.38 105.65 278.35 104.95C277.69 104.5 276.88 104.45 276.2 104.75L276.9 105.23C277.38 105.55 277.5 106.2 277.18 106.68Z" fill="#666666"/>
<path d="M270.48 100.86C270 100.54 269.35 100.66 269.03 101.14L268.81 101.46C268.49 101.94 268.61 102.59 269.09 102.91L269.74 103.35L271.14 101.3L270.49 100.86H270.48Z" fill="#999999"/>
<path d="M275.22 105.56C275.47 105.19 275.82 104.92 276.2 104.76L271.12 101.31L269.72 103.36L274.82 106.83C274.82 106.39 274.94 105.95 275.21 105.56H275.22Z" fill="#999999"/>
<path d="M275.22 105.56C274.96 105.95 274.83 106.39 274.83 106.83L275.51 107.29C275.99 107.61 276.64 107.49 276.96 107.01L277.18 106.69C277.5 106.21 277.38 105.56 276.9 105.24L276.2 104.76C275.82 104.92 275.47 105.19 275.22 105.56Z" fill="#999999"/>
<path d="M273.68 112.09L273.46 112.41C273.14 112.89 272.49 113.01 272.01 112.69L271.33 112.23C271.33 112.95 271.68 113.66 272.32 114.09C273.35 114.79 274.75 114.52 275.45 113.49C276.15 112.46 275.88 111.06 274.85 110.36C274.19 109.91 273.38 109.86 272.7 110.16L273.4 110.64C273.88 110.96 274 111.61 273.68 112.09Z" fill="#666666"/>
<path d="M266.97 106.27C266.49 105.95 265.84 106.07 265.52 106.55L265.3 106.87C264.98 107.35 265.1 108 265.58 108.32L266.11 108.68L267.51 106.63L266.98 106.27H266.97Z" fill="#999999"/>
<path d="M271.72 110.96C271.97 110.59 272.32 110.32 272.7 110.16L267.51 106.63L266.11 108.68L271.33 112.22C271.33 111.78 271.45 111.34 271.72 110.95V110.96Z" fill="#999999"/>
<path d="M271.72 110.96C271.46 111.35 271.33 111.79 271.33 112.23L272.01 112.69C272.49 113.01 273.14 112.89 273.46 112.41L273.68 112.09C274 111.61 273.88 110.96 273.4 110.64L272.7 110.16C272.32 110.32 271.97 110.59 271.72 110.96Z" fill="#999999"/>
<path d="M468.48 53.9504L466.1 50.6904L437.65 58.1604C438.39 59.2604 439.1 60.3704 439.78 61.4804L468.48 53.9404V53.9504Z" fill="#FBCE17"/>
<path d="M416 63.8599L412.8 68.5699L439.78 61.4899C439.1 60.3799 438.39 59.2699 437.65 58.1699L415.99 63.8599H416Z" fill="#FBCE17"/>
<path d="M382.85 73.8101C382.87 73.9001 382.87 74.0001 382.85 74.1101C382.83 74.2201 382.79 74.3301 382.73 74.4501C382.51 74.9201 382.09 75.4801 381.87 75.9901C381.82 76.1201 381.77 76.2401 381.75 76.3601C381.73 76.4801 381.72 76.6001 381.75 76.7001C381.75 76.7001 381.75 76.7001 381.75 76.7101L395.24 73.1701C396.43 71.5901 397.59 69.9901 398.72 68.3701L381.54 72.8801C382.24 73.0201 382.78 73.2601 382.85 73.7901V73.8101Z" fill="#FBCE17"/>
<path d="M395.23 73.1804L412.79 68.5704L415.99 63.8604L398.72 68.3904C397.59 70.0104 396.42 71.6104 395.24 73.1904L395.23 73.1804Z" fill="#FBCE17"/>
<path d="M470.61 61.8795L470.58 61.7695L443.75 68.8195C444.29 69.9595 444.8 71.0995 445.27 72.2495L470.26 65.6895L470.62 61.8895L470.61 61.8795Z" fill="#A97317"/>
<path d="M405.87 78.7596L402.71 83.4096L445.26 72.2396C444.79 71.0996 444.29 69.9596 443.74 68.8096L405.87 78.7496V78.7596Z" fill="#A97317"/>
<path d="M384.06 84.4898C384.33 84.9398 384.74 85.2098 385.14 85.4398C385.62 84.9098 386.09 84.3698 386.56 83.8398L384.06 84.4998V84.4898Z" fill="#A97317"/>
<path d="M385.14 85.4395C385.58 85.6795 386.01 85.8695 386.23 86.1395C386.23 86.1395 386.23 86.1395 386.24 86.1495C386.28 86.1895 386.3 86.2395 386.33 86.2895C386.33 86.2995 386.35 86.3195 386.35 86.3295C386.37 86.3795 386.38 86.4295 386.39 86.4795C386.39 86.4995 386.4 86.5195 386.4 86.5395C386.4 86.5895 386.4 86.6495 386.39 86.6995C386.39 86.7295 386.39 86.7595 386.39 86.7895C386.38 86.8495 386.35 86.9095 386.33 86.9795C386.32 87.0195 386.31 87.0495 386.29 87.0895C386.26 87.1595 386.21 87.2495 386.16 87.3295C386.14 87.3695 386.13 87.3995 386.1 87.4395C386.02 87.5695 385.93 87.6995 385.83 87.8495L402.71 83.4195L405.87 78.7695L386.56 83.8395C386.09 84.3795 385.62 84.9095 385.14 85.4395Z" fill="#A97317"/>
<path d="M468.52 53.9404H468.5L468.54 54.0104L468.52 53.9404Z" fill="#FBAE17"/>
<path d="M470.58 61.7704L468.54 54.0004L468.5 53.9404L439.78 61.4804C441.27 63.9104 442.58 66.3604 443.75 68.8104L470.58 61.7604V61.7704Z" fill="#FBAE17"/>
<path d="M405.87 78.7602L443.74 68.8202C442.58 66.3702 441.26 63.9202 439.77 61.4902L412.79 68.5702L405.86 78.7602H405.87Z" fill="#FBAE17"/>
<path d="M382.25 77.6202C382.65 77.9802 383.23 78.2502 383.78 78.5702C384.05 78.7302 384.32 78.9102 384.55 79.1202C384.78 79.3302 384.97 79.5802 385.1 79.8902C385.2 80.0702 385.25 80.2502 385.26 80.4402C385.28 80.7202 385.2 81.0002 385.08 81.2902C385.04 81.3802 384.99 81.4802 384.94 81.5802C384.84 81.7702 384.73 81.9602 384.61 82.1502C384.55 82.2502 384.5 82.3402 384.44 82.4402C384.27 82.7302 384.11 83.0102 384.01 83.2902C383.87 83.6602 383.83 84.0302 383.99 84.3902C384.01 84.4302 384.04 84.4702 384.06 84.5102L386.56 83.8502C389.59 80.4102 392.48 76.8602 395.23 73.2002L381.74 76.7402C381.79 77.1102 381.98 77.4002 382.24 77.6402L382.25 77.6202Z" fill="#FBAE17"/>
<path d="M395.23 73.1803C392.48 76.8403 389.59 80.4003 386.56 83.8303L405.87 78.7603L412.8 68.5703L395.24 73.1803H395.23Z" fill="#FBAE17"/>
<path d="M371.28 86.5702C371.19 86.2402 371.03 85.9902 370.83 85.8102C370.82 85.8102 370.81 85.7902 370.8 85.7802C371.11 85.3302 371.23 84.7502 371.06 84.0702C370.84 83.2302 370.29 82.7602 369.65 82.5802C369.65 82.5802 369.65 82.5802 369.65 82.5702C369.67 82.4102 369.67 82.2402 369.62 82.0502C369.52 81.6602 369.29 81.4002 369.02 81.2602L380.79 73.4102L364.13 84.5201C362.39 85.9801 362.67 86.8602 364.83 87.1802L371.29 87.3902C371.35 87.1502 371.36 86.8802 371.29 86.5802L371.28 86.5702Z" fill="#1B1819"/>
<path d="M369.65 82.5602C369.65 82.5602 369.65 82.5602 369.65 82.5702C370.29 82.7502 370.84 83.2202 371.06 84.0602C371.24 84.7402 371.11 85.3202 370.8 85.7702C370.81 85.7702 370.82 85.7902 370.83 85.8002L383.7 84.5202L381.66 76.7402L369.65 82.5602Z" fill="#DEC49F"/>
<path d="M381.75 76.7002L381.66 76.7402L381.75 76.7202C381.75 76.7202 381.75 76.7202 381.75 76.7102V76.7002Z" fill="#DEC49F"/>
<path d="M383.7 84.5302L384.06 84.4902C384.06 84.4902 384.01 84.4102 383.99 84.3702C383.83 84.0202 383.88 83.6502 384.01 83.2702C384.11 82.9902 384.27 82.7002 384.44 82.4202C384.5 82.3202 384.55 82.2302 384.61 82.1302C384.72 81.9402 384.84 81.7502 384.94 81.5602C384.99 81.4602 385.04 81.3702 385.08 81.2702C385.2 80.9902 385.28 80.7002 385.26 80.4202C385.25 80.2402 385.2 80.0502 385.1 79.8702C384.97 79.5702 384.78 79.3202 384.55 79.1002C384.32 78.8802 384.06 78.7102 383.78 78.5502C383.23 78.2302 382.65 77.9602 382.25 77.6002C381.98 77.3602 381.8 77.0802 381.75 76.7002L381.66 76.7202L383.7 84.5002V84.5302Z" fill="#DEC49F"/>
<path d="M382.85 73.8096C382.87 73.8996 382.87 73.9996 382.85 74.1096C382.87 73.9996 382.88 73.8996 382.85 73.8096Z" fill="#F3D8BF"/>
<path d="M381.75 76.3604C381.73 76.4804 381.72 76.6003 381.75 76.7003C381.73 76.5903 381.73 76.4804 381.75 76.3604Z" fill="#F3D8BF"/>
<path d="M369.61 82.0404C369.66 82.2304 369.67 82.4004 369.64 82.5604L381.65 76.7404L380.77 73.4004L369 81.2504C369.28 81.3904 369.5 81.6504 369.6 82.0404H369.61Z" fill="#F3D8BF"/>
<path d="M381.75 76.7004C381.73 76.5904 381.73 76.4804 381.75 76.3604C381.77 76.2404 381.81 76.1204 381.87 75.9904C382.09 75.4804 382.51 74.9204 382.73 74.4504C382.78 74.3304 382.83 74.2204 382.85 74.1104C382.87 74.0004 382.88 73.9004 382.85 73.8104C382.78 73.2804 382.24 73.0404 381.54 72.9004L380.78 73.4104L381.66 76.7504L381.75 76.7104V76.7004Z" fill="#F3D8BF"/>
<path d="M371.28 87.3799L383 87.7599L371.28 87.3799Z" fill="#AF826F"/>
<path d="M383 87.7598L384.56 87.8098L383 87.7598Z" fill="#AF826F"/>
<path d="M385.84 87.8504C385.95 87.7004 386.04 87.5704 386.11 87.4404C386.03 87.5704 385.94 87.7004 385.84 87.8504Z" fill="#AF826F"/>
<path d="M384.06 84.4902C384.33 84.9402 384.74 85.2102 385.14 85.4402C384.74 85.2202 384.33 84.9402 384.06 84.4902Z" fill="#AF826F"/>
<path d="M386.23 86.1404C386 85.8704 385.57 85.6804 385.14 85.4404C385.58 85.6804 386.01 85.8704 386.24 86.1404H386.23Z" fill="#AF826F"/>
<path d="M383.71 84.5795V84.5195L370.82 85.7995C371.02 85.9795 371.19 86.2295 371.27 86.5595C371.35 86.8595 371.34 87.1295 371.27 87.3695L382.99 87.7495C383.39 87.3195 383.79 86.8795 384.19 86.4495L383.7 84.5795H383.71Z" fill="#AF826F"/>
<path d="M383 87.7602L384.56 87.8102L384.2 86.4502C383.8 86.8902 383.4 87.3202 383 87.7502V87.7602Z" fill="#AF826F"/>
<path d="M384.2 86.4505C384.51 86.1105 384.83 85.7805 385.13 85.4305C384.73 85.2105 384.32 84.9305 384.05 84.4805L383.7 84.5705L384.19 86.4405L384.2 86.4505Z" fill="#AF826F"/>
<path d="M384.2 86.4504L384.56 87.8104L385.83 87.8504C385.94 87.7004 386.03 87.5704 386.1 87.4404C386.12 87.4004 386.14 87.3704 386.16 87.3304C386.21 87.2504 386.25 87.1604 386.29 87.0904C386.31 87.0504 386.31 87.0204 386.33 86.9804C386.35 86.9104 386.38 86.8504 386.39 86.7904C386.39 86.7604 386.39 86.7304 386.39 86.7004C386.39 86.6404 386.4 86.5904 386.4 86.5404C386.4 86.5204 386.4 86.5004 386.39 86.4804C386.39 86.4304 386.37 86.3804 386.35 86.3304C386.35 86.3204 386.33 86.3004 386.33 86.2904C386.31 86.2404 386.28 86.1904 386.24 86.1504C386.24 86.1504 386.24 86.1504 386.23 86.1404C386 85.8704 385.57 85.6804 385.13 85.4404C384.82 85.7804 384.51 86.1204 384.2 86.4604V86.4504Z" fill="#AF826F"/>
<path d="M383.71 84.5802L384.06 84.4902L383.7 84.5302L383.71 84.5802Z" fill="#AF826F"/>
</g>
<defs>
<clipPath id="clip0_1549_6615">
<rect width="470.61" height="179.88" fill="white"/>
</clipPath>
</defs>
</svg>
