<svg width="429" height="239" viewBox="0 0 429 239" fill="none" xmlns="http://www.w3.org/2000/svg">
<path d="M30.36 124.19C60.58 173.21 110.52 209.91 166.56 223.46C175.24 225.56 184.3 227.13 193.07 225.46C201.84 223.79 210.35 218.29 213.41 209.9C214.31 207.44 214.7 204.97 214.71 202.5C148.09 194 77.85 171.66 30.36 124.18V124.19Z" fill="#C8E4F7"/>
<path d="M251.6 39.6198C250.28 21.7198 237.05 12.3198 220.13 10.4798C198.2 8.08979 179.35 18.2798 160.07 26.8498C133.38 38.7098 104.04 44.6198 74.82 43.3298C55.19 42.4698 31.97 39.9198 19.38 54.9998C7.29004 69.4998 13.02 91.4798 21.51 108.34C24.23 113.75 27.2 119.04 30.37 124.19C77.86 171.67 148.1 194.01 214.72 202.51C214.78 191.33 206.98 180.12 202.15 169.29C191.53 145.49 195.91 115.73 212.95 95.9998C227.93 78.6598 253.57 66.1498 251.62 39.6098L251.6 39.6198Z" fill="#C8ECF7"/>
<path d="M143.41 38.1498L143.65 37.5698C157.44 35.3098 170.09 37.7298 180.72 48.3298C188.2 46.8898 201.22 51.3998 210.52 64.9198C217.57 67.6198 221.72 72.8098 221.79 81.4998L220.95 81.5598C229.11 87.2198 232.66 94.1998 225.12 104.33C225.13 105 225.13 105.7 225.12 106.42C226.99 112.5 225.53 116.28 219.47 116.9C219.04 128.97 209.4 132.55 190.53 127.6L189.47 127.57C188.83 131.2 185.87 134.88 179.59 138.63C176.99 138.84 174.54 138.91 172.24 138.84V138.86C164.1 143.31 154.31 142.71 142.44 135.81C140.39 134.62 138.27 133.24 136.09 131.66C134.77 131.45 133.47 131.24 132.18 131.01C124.42 129.67 117.27 127.95 111.44 125.41C98.59 126.97 86.54 125.91 75.91 120.14C73.9 120.52 72.03 120.71 70.3 120.71C62.53 120.75 57.62 117.08 55.32 110.03C49.5 103.22 51.08 94.7098 56.7 90.1598L56.37 89.7298C54.3 83.4698 55.89 78.5498 60.53 74.7398C63.18 66.5598 68.26 62.7498 74.87 61.6798C72.77 53.9098 84.53 46.3198 91.14 49.2798C98.62 34.5298 125.34 30.5698 143.42 38.1498H143.41Z" fill="#F9D2DF"/>
<path d="M142.42 135.81L142.18 136.23C140.27 140.77 136.03 144.36 128.62 146.69L109.26 166.82C104.5 173.38 96.42 170.7 99.62 165.1C103.94 160.31 107.63 153.46 106.22 150.84L106.24 150.55C114.73 151.27 120.27 147.66 123.24 140.23C128.78 137.72 131.42 134.58 132.16 131.01C133.45 131.24 134.75 131.45 136.07 131.66C138.25 133.24 140.37 134.62 142.42 135.81Z" fill="#F2C1CE"/>
<path d="M132.16 131.009C131.42 134.579 128.78 137.719 123.24 140.229C120.27 147.659 114.73 151.279 106.24 150.549C103.08 150.279 99.51 149.409 95.52 147.899C77.69 146.319 67.75 138.589 70.28 121.139V120.719C72 120.719 73.87 120.519 75.88 120.149C86.51 125.919 98.56 126.979 111.41 125.419C117.24 127.959 124.39 129.679 132.15 131.019L132.16 131.009Z" fill="#F2C1CE"/>
<path d="M56.58 90.1903L56.25 89.7603C54.18 83.5003 55.77 78.5703 60.41 74.7603C63.06 66.5803 68.14 62.7703 74.75 61.7103C72.65 53.9403 84.41 46.3403 91.02 49.3003C98.49 34.5503 125.21 30.5903 143.3 38.1803L143.54 37.5903C157.32 35.3303 169.97 37.7503 180.6 48.3503C188.08 46.9103 201.11 51.4103 210.4 64.9403C217.45 67.6503 221.6 72.8403 221.67 81.5203L220.83 81.5803C228.99 87.2403 232.54 94.2203 225 104.36C225.02 105.03 225.01 105.73 225 106.45C226.87 112.52 225.41 116.31 219.35 116.92C218.92 128.99 209.28 132.57 190.41 127.62L189.35 127.59C188.71 131.22 185.74 134.9 179.47 138.66C176.87 138.87 174.42 138.94 172.12 138.87V138.89C163.98 143.34 154.19 142.73 142.32 135.83C140.27 134.64 138.15 133.26 135.97 131.68C134.65 131.48 133.35 131.26 132.06 131.04C124.3 129.7 117.15 127.98 111.32 125.43C98.47 126.99 86.42 125.93 75.79 120.16C73.77 120.54 71.91 120.73 70.18 120.74C62.41 120.77 57.5 117.1 55.2 110.05C49.38 103.24 50.96 94.7303 56.58 90.1803V90.1903Z" fill="#F9D2DF"/>
<path d="M142.32 135.841L142.08 136.261C140.17 140.801 135.93 144.401 128.52 146.721L109.16 166.851C104.4 173.421 96.32 170.731 99.52 165.131C103.84 160.341 107.53 153.491 106.12 150.881L106.14 150.591C114.63 151.321 120.18 147.701 123.14 140.271C128.67 137.761 131.32 134.621 132.06 131.061C133.35 131.291 134.65 131.501 135.97 131.701C138.15 133.281 140.27 134.661 142.32 135.851V135.841Z" fill="#F2C1CE"/>
<path d="M132.06 131.04C131.32 134.6 128.68 137.74 123.14 140.25C120.17 147.68 114.63 151.3 106.14 150.57C102.98 150.3 99.42 149.43 95.43 147.92C77.6 146.34 67.66 138.61 70.19 121.16V120.74C71.91 120.74 73.77 120.54 75.79 120.16C86.42 125.93 98.47 126.99 111.32 125.43C117.15 127.98 124.3 129.7 132.06 131.04Z" fill="#F2C1CE"/>
<path d="M187.05 124.53C187.26 124.25 187.48 123.97 187.68 123.68C189.26 121.42 185.55 119.27 183.98 121.52C179.21 128.36 171.54 132.67 163.24 133.25C163.21 133.25 163.18 133.23 163.15 133.22C160.91 132.82 158.97 131.94 157.06 130.73C156.15 130.15 151.67 127.65 152.46 126.35C153.09 125.31 152.72 124.31 151.99 123.71C151.7 123.05 151.08 122.57 150.13 122.61C146.65 122.76 143.25 122.46 139.89 121.5C137.26 120.75 133.17 119.63 132.21 116.72C131.35 114.12 127.21 115.23 128.08 117.86C128.84 120.14 130.39 121.88 132.39 123.19C132.14 123.11 131.88 123.04 131.63 122.96C131.46 122.91 131.28 122.86 131.11 122.81C131.02 122.69 130.93 122.58 130.83 122.47C129.4 120.93 127.47 119.8 125.43 119.29C124.01 118.94 122.41 119.4 121.42 120.45C118.85 120 116.26 119.69 113.64 119.59C113.21 118.32 112.1 117.35 110.32 117.47C110.14 117.48 109.95 117.49 109.77 117.5C109.63 117.39 109.49 117.29 109.33 117.21C109.01 117.08 108.7 116.94 108.38 116.81C107.68 116.62 106.98 116.62 106.28 116.81C106.15 116.41 105.97 116.02 105.72 115.68C105.78 115.27 105.72 114.82 105.49 114.36C103.94 111.31 100.81 110.49 98.03 108.91C96.03 107.77 94.13 106.42 92.2 105.16C91.85 104.93 91.1 104.54 90.29 104.08C89.26 103.03 88.28 101.94 87.39 100.78C87.17 100.49 86.9 100.28 86.62 100.14C85.45 98.8196 82.74 99.2496 82.86 101.45C82.92 102.47 83.25 103.34 83.75 104.11C82.98 104.54 82.43 105.37 82.65 106.46C82.95 107.92 83.62 109.15 84.55 110.17C84.31 110.2 84.07 110.22 83.83 110.26C83.8 110.26 83.77 110.27 83.75 110.28C83.05 108.85 81.41 107.93 79.51 108.25C79.12 108.32 78.73 108.4 78.35 108.49C78.63 107.12 77.53 105.4 75.73 105.83C71.74 106.78 67.59 106.34 63.58 105.68C59.46 105 57.36 102.46 55.93 98.6896C54.96 96.1396 50.82 97.2396 51.8 99.8296C52.58 101.89 53.58 103.9 54.93 105.58C54.43 106.35 54.3 107.4 55.01 108.3C57.89 111.97 60.89 117.84 65.56 119.39C69.57 120.72 74.04 121.28 78.39 121.71C79.16 122.63 80.42 123.18 82.04 122.9C83.44 122.66 84.83 122.38 86.21 122.08C85.66 126.04 90.56 128.3 92.94 124.76C92.94 124.75 92.96 124.73 92.97 124.72C96.55 125 100.13 125.11 103.72 125.07C104.07 125.35 104.46 125.55 104.91 125.65C105.62 125.81 106.38 125.83 107.09 125.64C107.73 125.83 108.37 126.01 109.02 126.18C109.66 126.96 110.63 127.5 111.95 127.5C118 127.51 123.8 128.87 129.56 130.64C135.06 132.32 140.88 133.88 145.76 137.01C146.85 137.71 147.91 137.79 148.83 137.49C149.17 138.17 149.8 138.7 150.57 139C153.16 139.99 155.77 140.89 158.42 141.7C158.85 141.83 159.25 141.86 159.61 141.81C160.05 142.23 160.65 142.51 161.44 142.51C164.3 142.51 164.85 138.93 163.1 137.55C163.1 137.55 163.1 137.55 163.11 137.55C165.25 137.41 167.34 137.06 169.37 136.53C169.51 137.45 170.18 138.24 171.4 138.14C178.47 137.57 184.66 133.73 188.13 127.5C188.84 126.22 188.13 125.03 187.12 124.53H187.05ZM142.51 126.56C144.44 126.82 146.33 126.93 148.04 126.94C148.11 128.01 148.59 129 149.28 129.89C147.15 128.57 144.87 127.49 142.51 126.56ZM151.98 133.7C151.84 133.65 151.7 133.62 151.56 133.59C151.59 132.98 151.47 132.37 151.2 131.8C151.33 131.9 151.46 132.01 151.59 132.11C153.11 133.26 154.68 134.35 156.33 135.26C154.87 134.76 153.42 134.25 151.98 133.7Z" fill="#F2C1CE"/>
<path d="M221.81 109.09C217.32 111.89 213.19 115.46 207.99 116.88C202.57 118.36 196.82 117.89 191.29 117.52C187.54 117.27 187.39 122.81 190.77 123.56C190.5 125.24 191.46 127.22 193.67 127.33C198.24 127.56 202.88 127.79 207.45 127.62C210.75 127.5 213.89 126.76 216.24 124.31C217.61 122.88 217.2 121.08 216.11 120C219.12 118.3 221.93 116.23 224.9 114.38C228.23 112.3 225.16 107.01 221.81 109.1V109.09Z" fill="#F2C1CE"/>
<path d="M188.02 70.7793C183.26 67.6393 178.98 71.3593 174.26 71.8893C173.68 71.8893 173.09 71.8993 172.51 71.9293C169.73 72.0493 169.78 75.9893 172.51 76.2093C173.05 76.2493 173.58 76.2493 174.1 76.2093C177.5 76.2793 184.84 76.5793 184.8 77.1793C184.67 79.3193 187.21 79.7793 188.44 78.5993C189.2 81.0593 189.36 83.8893 189.33 85.7193C189.3 88.4793 193.58 88.4793 193.61 85.7193C193.67 80.6893 192.6 73.7993 188.01 70.7793H188.02Z" fill="#F2C1CE"/>
<path d="M151.26 58.4202C142.33 48.1202 129.28 39.8503 115.19 44.0003C114.4 44.2303 113.95 44.7703 113.78 45.3803C113.68 45.1903 113.55 44.9903 113.37 44.8103C111.99 43.4403 110.26 42.6503 108.99 41.1503C107.8 39.7503 106.7 38.6203 104.95 37.9503C103.6 37.4303 102.67 38.3202 102.43 39.4202C101.94 39.3202 101.33 39.3902 100.91 39.6602C100.63 39.8402 100.38 40.0802 100.19 40.3602C99.7501 40.6202 99.3301 41.1203 99.2201 41.6303C99.1001 42.1803 99.1201 42.7903 99.4401 43.2803C99.7301 43.7203 100.18 44.1703 100.72 44.2603C101.31 44.3603 101.77 44.3903 102.36 44.2603C102.53 44.2203 102.69 44.1503 102.85 44.0803C103.04 44.0003 103.21 43.9303 103.38 43.8103C103.82 43.4803 104.23 43.1003 104.36 42.5303C104.36 42.4903 104.37 42.4503 104.38 42.4003C105.21 43.0103 105.85 44.0902 106.49 44.7902C107.62 46.0102 109.17 46.6803 110.34 47.8403C111.63 49.1303 113.39 48.2302 113.87 46.9202C114.23 47.8202 115.12 48.4903 116.33 48.1303C122.57 46.2903 128.5 47.3003 133.86 49.8803C133.49 50.5903 133.53 51.4702 134.33 52.1602C135.59 53.2402 136.83 54.3603 138.03 55.5203C138.77 56.2403 140 57.1703 140.75 58.1403C140.56 59.5703 142.19 61.2902 144 60.4902C144.14 60.4302 144.28 60.3702 144.42 60.3102C145.03 60.0402 145.46 59.2202 145.49 58.4902C146.44 59.4502 147.36 60.4403 148.24 61.4503C150.05 63.5303 153.07 60.5002 151.27 58.4202H151.26Z" fill="#F2C1CE"/>
<path d="M101.74 53.9902C97.79 54.6102 92.92 54.6402 89.32 56.5102C86.23 58.1102 83.32 60.0402 82.26 63.4602C81.44 66.1002 85.57 67.2302 86.39 64.6002C86.81 63.2502 88.27 62.0002 89.88 61.0702C89.88 61.1002 89.88 61.1302 89.89 61.1602C90.22 62.3602 91.38 62.8702 92.52 62.6602C92.99 62.5702 93.46 62.5102 93.93 62.4702C94.29 62.5602 94.68 62.5802 95.07 62.5102C95.47 62.4402 95.86 62.3702 96.26 62.2902C97.29 62.1002 97.94 60.9102 97.79 59.9402C97.73 59.5702 97.59 59.2302 97.37 58.9402C99.2 58.6602 101.04 58.4002 102.87 58.1102C105.58 57.6802 104.43 53.5602 101.73 53.9802L101.74 53.9902Z" fill="#F2C1CE"/>
<path d="M78.96 67.2499C73.58 66.5199 67.65 66.7099 63.58 70.8299C59.83 74.6299 57.1 80.9199 56.56 86.1699C56.28 88.9099 60.56 88.8899 60.84 86.1699C61.24 82.2399 63.49 77.8699 65.87 74.7399C68.69 71.0399 73.55 70.7999 77.81 71.3799C80.5 71.7399 81.67 67.6199 78.95 67.2499H78.96Z" fill="#F2C1CE"/>
<path d="M90.42 78.97C87.47 80.84 82.44 80.44 79.09 80.07C75.16 79.64 71.5301 78.29 68.3001 76.01C66.2001 74.52 64.2 77.65 65.75 79.36C63.68 80.77 61.54 84.15 63.71 86.3C64.85 87.44 66.58 87.27 68.07 87.29C70.12 87.32 72.16 87.29 74.2 87.2C75.77 87.14 76.89 85.12 76.11 83.89C77.09 84.09 78.08 84.24 79.09 84.35C81.32 84.58 83.97 84.74 86.51 84.49C86.76 85.27 87.4 85.89 88.46 85.89C89.88 85.89 90.57 84.75 90.52 83.64C91.25 83.38 91.95 83.06 92.58 82.66C94.9 81.19 92.76 77.48 90.42 78.96V78.97Z" fill="#F2C1CE"/>
<path d="M169.53 117.48C164.22 111.35 153.76 105.53 145.54 108.95C141.03 101.54 133.06 97.0298 124.37 97.0098C121.62 97.0098 121.61 101.29 124.37 101.29C131.57 101.3 138.15 105 141.88 111.17C142.27 111.81 142.82 112.11 143.4 112.17C143.87 113.23 145.1 113.99 146.41 113.26C153.01 109.58 162.28 115.63 166.5 120.5C168.31 122.58 171.33 119.55 169.53 117.47V117.48Z" fill="#F2C1CE"/>
<path d="M169.12 95.3794C165.47 92.1794 161.23 90.1294 156.71 88.4494C152 86.6994 147.13 84.8494 142.05 84.8994C139.3 84.9294 139.29 89.2094 142.05 89.1794C144.15 89.1594 146.19 89.5294 148.2 90.0794C147.19 91.1394 147.23 93.2094 149.06 93.6494L150.52 93.9994C152.06 95.8394 154.63 96.4794 156.91 97.1494C160.4 98.1794 163.98 98.7494 167.61 99.0294C169.43 99.1694 170.48 96.5694 169.12 95.3794Z" fill="#F2C1CE"/>
<path d="M84.32 99.7695C83.9 102.45 82.85 104.43 81.19 105.7C79.53 106.97 77.24 107.549 74.33 107.419" stroke="#E1A5B9" stroke-width="3.67" stroke-linecap="round" stroke-linejoin="round"/>
<path d="M184.06 115.349C191.26 122.899 193 130.579 179.58 138.629C164.11 139.879 153.98 136.199 148.38 128.309C140.82 128.379 133.93 125.149 127.92 117.609C119.2 119.939 110.87 118.659 103.06 112.339C93.6 115.469 86.05 113.889 81.19 105.689" stroke="#E1A5B9" stroke-width="3.67" stroke-linecap="round" stroke-linejoin="round"/>
<path d="M158.7 91.0898C155.88 92.2898 154.98 95.0598 155.91 99.3198C168.11 98.4998 179.13 99.9798 183.67 113.97" stroke="#E1A5B9" stroke-width="3.67" stroke-linecap="round" stroke-linejoin="round"/>
<path d="M116.64 74.4893C120.18 81.4393 119.32 86.7893 112.33 89.8893" stroke="#E1A5B9" stroke-width="3.67" stroke-linecap="round" stroke-linejoin="round"/>
<path d="M155.91 99.3292C145.4 88.0392 132.87 82.9492 118.32 84.0592" stroke="#E1A5B9" stroke-width="3.67" stroke-linecap="round" stroke-linejoin="round"/>
<path d="M172.22 138.869C162.68 144.089 150.84 142.349 136.07 131.659C126.81 130.229 118.21 128.379 111.42 125.409C98.57 126.969 86.51 125.909 75.89 120.139C64.82 122.219 58.1 118.659 55.3 110.029C45.52 98.5792 56.62 82.3492 72.75 88.1492C86.39 79.2392 102.62 91.8692 99.53 101.029" stroke="#E1A5B9" stroke-width="3.67" stroke-linecap="round" stroke-linejoin="round"/>
<path d="M132.21 130.74C131.55 134.41 128.92 137.66 123.24 140.23C119.17 150.42 110.25 153.45 95.52 147.9C77.69 146.32 67.75 138.59 70.28 121.14" stroke="#E1A5B9" stroke-width="3.67" stroke-linecap="round" stroke-linejoin="round"/>
<path d="M106.22 150.84C107.63 153.45 103.94 160.3 99.62 165.09C96.41 170.7 104.5 173.38 109.26 166.82L128.62 146.69C136.04 144.37 140.27 140.769 142.18 136.229" stroke="#E1A5B9" stroke-width="3.67" stroke-linecap="round" stroke-linejoin="round"/>
<path d="M165.19 122.61C160.93 113.06 155.35 111.46 142.88 113.03C138.95 105.89 129.18 100.13 120.06 99.3398" stroke="#E1A5B9" stroke-width="3.67" stroke-linecap="round" stroke-linejoin="round"/>
<path d="M173.31 119.739C167.88 119.939 164.98 122.869 164.68 128.629" stroke="#E1A5B9" stroke-width="3.67" stroke-linecap="round" stroke-linejoin="round"/>
<path d="M207.32 82.8691C217.76 85.4391 225.52 91.1491 225.1 106.419C226.97 112.499 225.51 116.279 219.45 116.889C219.02 128.959 209.38 132.539 190.51 127.589" stroke="#E1A5B9" stroke-width="3.67" stroke-linecap="round" stroke-linejoin="round"/>
<path d="M217.97 79.6592C228.15 85.6592 233.51 93.0392 225.1 104.329" stroke="#E1A5B9" stroke-width="3.67" stroke-linecap="round" stroke-linejoin="round"/>
<path d="M221.78 81.4996C221.72 72.8096 217.56 67.6196 210.51 64.9196C194.15 41.1096 166.22 45.2596 177.34 60.5596" stroke="#E1A5B9" stroke-width="3.67" stroke-linecap="round" stroke-linejoin="round"/>
<path d="M168.75 68.2891C171.49 73.8191 168.86 77.7191 159.41 79.5491" stroke="#E1A5B9" stroke-width="3.67" stroke-linecap="round" stroke-linejoin="round"/>
<path d="M192.28 90.1998C189.01 77.6798 180.51 75.0598 170.3 75.6898" stroke="#E1A5B9" stroke-width="3.67" stroke-linecap="round" stroke-linejoin="round"/>
<path d="M207.54 74.0391C209.25 80.1791 207.98 84.0691 203.98 85.9091" stroke="#E1A5B9" stroke-width="3.67" stroke-linecap="round" stroke-linejoin="round"/>
<path d="M196.59 99.4297C199.08 105.36 204.15 107.61 211.89 106.06" stroke="#E1A5B9" stroke-width="3.67" stroke-linecap="round" stroke-linejoin="round"/>
<path d="M185.38 116.469C193.07 117.849 198.91 114.339 202.85 105.779" stroke="#E1A5B9" stroke-width="3.67" stroke-linecap="round" stroke-linejoin="round"/>
<path d="M150.18 60.6594C142.74 60.4794 138.09 63.7095 137.11 71.4395" stroke="#E1A5B9" stroke-width="3.67" stroke-linecap="round" stroke-linejoin="round"/>
<path d="M117.47 52.4993C109.02 42.7693 100.24 41.6393 91.13 49.2793C84.52 46.3193 72.75 53.9193 74.86 61.6893C68.25 62.7593 63.17 66.5592 60.52 74.7392C55.88 78.5492 54.29 83.4692 56.35 89.7292" stroke="#E1A5B9" stroke-width="3.67" stroke-linecap="round" stroke-linejoin="round"/>
<path d="M140.92 62.3599C133.19 48.4299 123.6 45.2199 112.96 48.1599" stroke="#E1A5B9" stroke-width="3.67" stroke-linecap="round" stroke-linejoin="round"/>
<path d="M104.5 56.2197C97.53 56.3097 95.38 62.8098 100.55 68.3098" stroke="#E1A5B9" stroke-width="3.67" stroke-linecap="round" stroke-linejoin="round"/>
<path d="M97.02 77.3896C92.56 80.0396 90.78 83.4297 92.34 87.7697" stroke="#E1A5B9" stroke-width="3.67" stroke-linecap="round" stroke-linejoin="round"/>
<path d="M61.14 87.1C61.53 75.46 68.92 71.15 79.79 70.48C83.56 63.03 88.95 60.29 96.57 64.08" stroke="#E1A5B9" stroke-width="3.67" stroke-linecap="round" stroke-linejoin="round"/>
<path d="M156.65 48.1795C143.19 29.1695 100.86 30.0896 91.12 49.2796" stroke="#E1A5B9" stroke-width="3.67" stroke-linecap="round" stroke-linejoin="round"/>
<path d="M180.91 48.5195C170.24 37.7495 157.52 35.2894 143.65 37.5594" stroke="#E1A5B9" stroke-width="3.67" stroke-linecap="round" stroke-linejoin="round"/>
<path opacity="0.52" d="M109.24 127.5C120.805 127.5 130.18 118.125 130.18 106.56C130.18 94.9953 120.805 85.6201 109.24 85.6201C97.6752 85.6201 88.3 94.9953 88.3 106.56C88.3 118.125 97.6752 127.5 109.24 127.5Z" fill="#67617D"/>
<path d="M108.16 79.7498C93.42 80.4398 81.98 92.9897 82.66 107.73C82.94 113.66 85.13 119.05 88.62 123.34L42.92 173.5C41.93 174.59 42.01 176.29 43.1 177.29L44.95 178.97C46.04 179.96 47.74 179.88 48.74 178.79L94.43 128.65C99.05 131.78 104.67 133.5 110.66 133.22C125.4 132.53 136.84 119.98 136.16 105.24C135.47 90.4998 122.92 79.0597 108.18 79.7397L108.16 79.7498ZM110.34 126.53C99.27 127.04 89.88 118.49 89.37 107.42C88.86 96.3497 97.41 86.9598 108.48 86.4498C119.55 85.9398 128.94 94.4898 129.45 105.56C129.96 116.63 121.41 126.02 110.34 126.53Z" fill="#67617D"/>
<path d="M77.9029 141.981L76.8681 141.038C74.5738 138.948 71.0193 139.113 68.9288 141.407L43.1326 169.717C41.0421 172.011 41.2072 175.566 43.5014 177.656L44.5363 178.599C46.8305 180.69 50.3851 180.525 52.4756 178.23L78.2718 149.92C80.3623 147.626 80.1971 144.072 77.9029 141.981Z" fill="#696969"/>
<path opacity="0.52" d="M119.33 92.2797C117.72 91.1297 115.25 91.9996 114.31 93.5996C113.23 95.4396 114.01 97.4697 115.63 98.6197C117.45 99.9197 118.51 102.11 118.6 104.31C118.79 109.02 126.13 109.04 125.94 104.31C125.74 99.3497 123.35 95.1496 119.33 92.2896V92.2797Z" fill="#F2F2F2"/>
</svg>
