<svg width="429" height="247" viewBox="0 0 429 247" fill="none" xmlns="http://www.w3.org/2000/svg">
<path d="M283.685 183.712L238.59 153.071C237.468 161.999 238.957 170.343 243.473 177.292C258.483 200.428 301.127 199.41 338.717 175.019C356.272 163.63 369.613 149.158 377.325 134.61C380.616 131.301 383.303 127.52 385.226 123.259C390.195 112.228 389.516 99.5656 384.302 86.8564L341.951 97.9817L283.703 183.712H283.685Z" fill="#E0EFFF"/>
<path d="M221.015 99.3488L221.779 99.8674L223.995 96.6052L223.231 96.0867C222.76 95.7661 222.628 95.1156 222.958 94.6442L223.174 94.3236C223.495 93.8522 224.146 93.7202 224.617 94.0502L225.381 94.5687L227.596 91.3066L226.833 90.788C226.361 90.4675 226.229 89.8169 226.559 89.3455L226.776 89.025C227.097 88.5536 227.747 88.4216 228.219 88.7515L228.982 89.2701L231.198 86.0079L230.434 85.4894C229.963 85.1688 229.831 84.5183 230.161 84.0469L230.378 83.7263C230.698 83.2549 231.349 83.1229 231.82 83.4529L232.584 83.9715L234.799 80.7093L234.036 80.1908C233.564 79.8702 233.432 79.2197 233.762 78.7482L233.979 78.4277C234.3 77.9563 234.95 77.8243 235.422 78.1543L236.185 78.6728L238.401 75.4107L237.637 74.8921C237.166 74.5716 237.034 73.921 237.364 73.4496L237.581 73.129C237.901 72.6576 238.552 72.5256 239.023 72.8556L239.787 73.3742L242.003 70.112L241.239 69.5935C240.767 69.2729 240.635 68.6224 240.965 68.151L241.182 67.8304C241.503 67.359 242.153 67.227 242.625 67.557L243.388 68.0755L245.604 64.8134L244.84 64.2948C244.369 63.9743 244.237 63.3237 244.567 62.8523L244.784 62.5318C245.104 62.0604 245.755 61.9284 246.226 62.2584L246.99 62.7769L249.206 59.5147L248.442 58.9962C247.971 58.6756 247.839 58.0251 248.169 57.5537L248.385 57.2331C248.706 56.7617 249.357 56.6297 249.828 56.9597L250.592 57.4783L252.807 54.2161L252.006 53.6693C251.553 53.3581 251.44 52.7453 251.742 52.2928L252.015 51.8874C252.326 51.4348 252.939 51.3217 253.392 51.6234L254.193 52.1702L256.409 48.908L255.607 48.3612C255.155 48.0501 255.042 47.4372 255.343 46.9847L255.617 46.5793C255.928 46.1267 256.541 46.0136 256.993 46.3153L257.795 46.8621L260.01 43.6L259.209 43.0531C258.756 42.742 258.643 42.1292 258.945 41.6766L259.218 41.2712C259.53 40.8187 260.142 40.7055 260.595 41.0072L261.396 41.5541L263.612 38.2919L262.811 37.7451C262.358 37.434 262.245 36.8211 262.547 36.3686L262.82 35.9632C263.131 35.5106 263.744 35.3975 264.196 35.6992L264.998 36.246L267.213 32.9838L266.412 32.437C265.96 32.1259 265.846 31.5131 266.148 31.0605L266.422 30.6551C266.733 30.2025 267.345 30.0894 267.798 30.3911L268.599 30.9379L273.794 23.3011L345.166 71.7902L355.112 78.5503L376.665 72.8933C365.012 55.6021 345.411 39.3102 320.671 28.1566C271.381 5.94382 220.337 12.5247 206.666 42.8646C199.029 59.807 204.686 80.5679 219.733 99.4714C220.082 99.1791 220.582 99.132 220.978 99.396L221.015 99.3488Z" fill="#D9F3FF"/>
<path d="M249.14 125.824C240.645 120.195 233.131 113.954 226.757 107.364C226.616 107.307 226.465 107.232 226.333 107.137C225.918 106.854 225.645 106.468 225.484 106.034C224.938 105.459 224.4 104.875 223.882 104.29L220.393 101.914L218.178 105.176L223.118 108.533C223.797 108.24 224.598 108.288 225.258 108.74C226.286 109.438 226.55 110.833 225.852 111.861C225.154 112.888 223.759 113.152 222.731 112.455C222.09 112.021 221.751 111.314 221.751 110.597L216.792 107.222L214.576 110.484L219.516 113.841C220.195 113.548 220.997 113.596 221.657 114.048C222.684 114.746 222.948 116.141 222.25 117.169C221.553 118.197 220.157 118.461 219.13 117.763C218.489 117.329 218.149 116.622 218.149 115.905L213.19 112.53L210.974 115.792L216.028 119.224C216.707 118.932 217.508 118.979 218.168 119.432C219.196 120.129 219.46 121.525 218.762 122.552C218.064 123.58 216.669 123.844 215.641 123.146C215 122.713 214.661 122.006 214.661 121.289L209.588 117.838L207.373 121.1L212.539 124.608C213.218 124.315 214.02 124.363 214.68 124.815C215.707 125.513 215.971 126.908 215.274 127.936C214.576 128.964 213.181 129.227 212.153 128.53C211.512 128.096 211.172 127.389 211.172 126.672L205.977 123.146L202.366 128.464L236.77 151.836C237.468 151.685 238.156 151.506 238.844 151.346C240.183 143.087 243.718 134.375 249.149 125.833L249.14 125.824Z" fill="#FFF5DC"/>
<path d="M310.649 101.922L304.219 101.715C302.079 101.395 301.796 100.527 303.521 99.0658L320.096 88.0159L320.85 87.5162L337.953 83.0284C340.508 79.3609 342.931 75.6084 345.194 71.7523L273.823 23.2632L268.628 30.9L273.568 34.2564C274.247 33.9642 275.048 34.0113 275.708 34.4639C276.736 35.1615 277 36.5569 276.302 37.5846C275.605 38.6123 274.209 38.8763 273.182 38.1786C272.54 37.7449 272.201 37.0378 272.201 36.3212L267.242 32.9459L265.026 36.2081L269.967 39.5645C270.645 39.2722 271.447 39.3194 272.107 39.7719C273.134 40.4696 273.398 41.865 272.701 42.8927C272.003 43.9203 270.608 44.1843 269.58 43.4866C268.939 43.0529 268.599 42.3458 268.599 41.6293L263.64 38.254L261.425 41.5161L266.356 44.8726C267.034 44.5803 267.836 44.6274 268.496 45.08C269.523 45.7777 269.787 47.1731 269.09 48.2007C268.392 49.2284 266.997 49.4924 265.969 48.7947C265.328 48.361 264.988 47.6539 264.988 46.9373L260.029 43.5621L257.814 46.8242L262.754 50.1806C263.433 49.8884 264.234 49.9355 264.894 50.3881C265.922 51.0857 266.186 52.4811 265.488 53.5088C264.79 54.5365 263.395 54.8004 262.367 54.1028C261.726 53.6691 261.387 52.962 261.387 52.2454L256.428 48.8701L254.212 52.1323L259.143 55.4887C259.822 55.1964 260.623 55.2436 261.283 55.6961C262.311 56.3938 262.575 57.7892 261.877 58.8169C261.179 59.8445 259.784 60.1085 258.756 59.4108C258.115 58.9771 257.776 58.27 257.776 57.5535L252.817 54.1782L250.601 57.4403L255.541 60.7968C256.22 60.5045 257.022 60.5516 257.682 61.0042C258.709 61.7019 258.973 63.0972 258.276 64.1249C257.578 65.1526 256.183 65.4166 255.155 64.7189C254.514 64.2852 254.174 63.5781 254.174 62.8615L249.215 59.4863L246.999 62.7484L251.94 66.1048C252.619 65.8126 253.42 65.8597 254.08 66.3123C255.108 67.0099 255.372 68.4053 254.674 69.433C253.976 70.4607 252.581 70.7246 251.553 70.027C250.912 69.5933 250.573 68.8861 250.573 68.1696L245.614 64.7943L243.398 68.0565L248.329 71.4129C249.008 71.1206 249.809 71.1678 250.469 71.6203C251.497 72.318 251.761 73.7134 251.063 74.7411C250.365 75.7687 248.97 76.0327 247.942 75.335C247.301 74.9013 246.962 74.1942 246.962 73.4777L242.003 70.1024L239.787 73.3645L244.718 76.721C245.397 76.4287 246.198 76.4758 246.858 76.9284C247.886 77.6261 248.15 79.0214 247.452 80.0491C246.754 81.0768 245.359 81.3408 244.331 80.6431C243.69 80.2094 243.351 79.5023 243.351 78.7857L238.392 75.4105L236.176 78.6726L241.107 82.029C241.786 81.7368 242.587 81.7839 243.247 82.2365C244.275 82.9341 244.539 84.3295 243.841 85.3572C243.143 86.3849 241.748 86.6488 240.72 85.9512C240.079 85.5175 239.74 84.8103 239.74 84.0938L234.781 80.7185L232.565 83.9807L237.505 87.3371C238.184 87.0448 238.986 87.092 239.645 87.5445C240.673 88.2422 240.937 89.6376 240.239 90.6652C239.542 91.6929 238.146 91.9569 237.119 91.2592C236.478 90.8255 236.138 90.1184 236.138 89.4019L231.179 86.0266L228.963 89.2887L233.894 92.6452C234.573 92.3529 235.375 92.4 236.034 92.8526C237.062 93.5503 237.326 94.9456 236.628 95.9733C235.931 97.001 234.535 97.265 233.508 96.5673C232.867 96.1336 232.527 95.4265 232.527 94.7099L227.568 91.3346L225.352 94.5968L230.293 97.9532C230.972 97.661 231.773 97.7081 232.433 98.1607C233.461 98.8583 233.725 100.254 233.027 101.281C232.329 102.309 230.934 102.573 229.906 101.875C229.265 101.442 228.926 100.735 228.926 100.018L223.966 96.6427L221.751 99.9049L226.682 103.261C227.361 102.969 228.162 103.016 228.822 103.469C229.85 104.166 230.114 105.562 229.416 106.589C228.813 107.476 227.681 107.796 226.719 107.41C233.093 114 240.607 120.241 249.102 125.87C243.671 134.412 240.145 143.124 238.797 151.383C270.919 143.774 299.958 126.172 322.274 102.347L310.611 101.97L310.649 101.922Z" fill="#FFF5DC"/>
<path d="M321.067 91.3162L334.493 87.79L321.067 91.3162Z" fill="#FFF5DC"/>
<path d="M223.882 104.28C224.41 104.865 224.947 105.449 225.484 106.024C225.4 105.789 225.352 105.534 225.352 105.28L223.882 104.28Z" fill="#FFF5DC"/>
<path d="M236.76 151.826L238.59 153.071C238.665 152.496 238.75 151.92 238.844 151.336C238.156 151.496 237.468 151.675 236.77 151.826H236.76Z" fill="#F5EBDC"/>
<path d="M355.15 78.5027L345.203 71.7427C342.941 75.5894 340.518 79.3512 337.963 83.0188L355.16 78.5027H355.15Z" fill="#F5EBDC"/>
<path d="M341.932 97.9814L325.131 102.394L323.858 102.356L322.312 102.309C299.986 126.134 270.947 143.746 238.835 151.345C238.74 151.92 238.656 152.505 238.58 153.08L283.675 183.721L341.922 97.9909L341.932 97.9814Z" fill="#F5EBDC"/>
<path d="M274.577 36.1231L274.303 36.5285C273.992 36.9811 273.38 37.0942 272.927 36.7925L272.21 36.3023C272.21 37.0188 272.559 37.7259 273.191 38.1596C274.219 38.8573 275.614 38.5933 276.312 37.5656C277.009 36.538 276.745 35.1426 275.718 34.4449C275.058 34.0018 274.256 33.9546 273.578 34.2375L274.322 34.7372C274.775 35.0483 274.888 35.6611 274.586 36.1137L274.577 36.1231Z" fill="#666666"/>
<path d="M267.836 30.3444C267.383 30.0333 266.77 30.1558 266.459 30.6084L266.186 31.0138C265.875 31.4664 265.997 32.0792 266.45 32.3903L267.251 32.9371L268.637 30.8912L267.836 30.3444Z" fill="#999999"/>
<path d="M272.597 35.0397C272.852 34.672 273.191 34.408 273.577 34.2383L268.637 30.8818L267.251 32.9277L272.21 36.303C272.21 35.8693 272.333 35.4262 272.597 35.0397Z" fill="#999999"/>
<path d="M272.597 35.0395C272.333 35.4261 272.21 35.8692 272.21 36.3029L272.927 36.7932C273.38 37.1043 273.992 36.9817 274.303 36.5292L274.577 36.1238C274.888 35.6712 274.765 35.0584 274.313 34.7473L273.568 34.2476C273.182 34.4078 272.842 34.6813 272.588 35.049L272.597 35.0395Z" fill="#999999"/>
<path d="M270.975 41.4317L270.702 41.8371C270.391 42.2897 269.778 42.4028 269.325 42.1011L268.609 41.6109C268.609 42.3274 268.958 43.0345 269.589 43.4682C270.617 44.1659 272.012 43.9019 272.71 42.8742C273.408 41.8466 273.144 40.4512 272.116 39.7535C271.456 39.3104 270.655 39.2632 269.976 39.5461L270.721 40.0458C271.173 40.3569 271.286 40.9697 270.985 41.4223L270.975 41.4317Z" fill="#666666"/>
<path d="M264.225 35.6525C263.772 35.3414 263.159 35.4639 262.848 35.9165L262.575 36.3219C262.264 36.7745 262.386 37.3873 262.839 37.6984L263.64 38.2453L265.026 36.1993L264.225 35.6525Z" fill="#999999"/>
<path d="M268.995 40.3473C269.25 39.9796 269.589 39.7156 269.976 39.5459L265.036 36.1895L263.65 38.2354L268.609 41.6107C268.609 41.177 268.731 40.7338 268.995 40.3473Z" fill="#999999"/>
<path d="M268.995 40.3471C268.731 40.7337 268.609 41.1768 268.609 41.6105L269.325 42.1008C269.778 42.4119 270.391 42.2893 270.702 41.8368L270.975 41.4314C271.286 40.9788 271.164 40.366 270.711 40.0549L269.967 39.5552C269.58 39.7155 269.241 39.9889 268.986 40.3566L268.995 40.3471Z" fill="#999999"/>
<path d="M267.374 46.7301L267.1 47.1355C266.789 47.588 266.176 47.7012 265.724 47.3995L265.007 46.9092C265.007 47.6257 265.356 48.3328 265.988 48.7665C267.015 49.4642 268.411 49.2002 269.109 48.1726C269.806 47.1449 269.542 45.7495 268.515 45.0518C267.855 44.6087 267.053 44.5616 266.374 44.8444L267.119 45.3441C267.572 45.6552 267.685 46.2681 267.383 46.7206L267.374 46.7301Z" fill="#666666"/>
<path d="M260.623 40.9601C260.171 40.649 259.558 40.7716 259.247 41.2241L258.973 41.6295C258.662 42.0821 258.785 42.6949 259.237 43.006L260.039 43.5529L261.425 41.507L260.623 40.9601Z" fill="#999999"/>
<path d="M265.394 45.6554C265.648 45.2877 265.988 45.0237 266.374 44.854L261.443 41.4976L260.057 43.5435L265.017 46.9188C265.017 46.4851 265.139 46.0419 265.403 45.6554H265.394Z" fill="#999999"/>
<path d="M265.394 45.6557C265.13 46.0423 265.007 46.4854 265.007 46.9191L265.724 47.4094C266.176 47.7205 266.789 47.5979 267.1 47.1454L267.374 46.74C267.685 46.2874 267.562 45.6746 267.11 45.3635L266.365 44.8638C265.978 45.024 265.639 45.2975 265.384 45.6652L265.394 45.6557Z" fill="#999999"/>
<path d="M263.763 52.0387L263.489 52.4441C263.178 52.8966 262.565 53.0098 262.113 52.7081L261.396 52.2178C261.396 52.9343 261.745 53.6414 262.377 54.0751C263.405 54.7728 264.8 54.5088 265.498 53.4812C266.195 52.4535 265.931 51.0581 264.904 50.3604C264.244 49.9173 263.442 49.8702 262.763 50.153L263.508 50.6527C263.961 50.9638 264.074 51.5767 263.772 52.0292L263.763 52.0387Z" fill="#666666"/>
<path d="M257.022 46.259C256.569 45.9478 255.956 46.0704 255.645 46.5229L255.372 46.9284C255.061 47.3809 255.183 47.9937 255.636 48.3049L256.437 48.8517L257.823 46.8058L257.022 46.259Z" fill="#999999"/>
<path d="M261.783 50.9635C262.037 50.5958 262.377 50.3318 262.763 50.1621L257.823 46.8057L256.437 48.8516L261.396 52.2269C261.396 51.7932 261.519 51.35 261.783 50.9635Z" fill="#999999"/>
<path d="M261.783 50.9634C261.519 51.3499 261.396 51.793 261.396 52.2267L262.113 52.717C262.565 53.0281 263.178 52.9056 263.489 52.453L263.763 52.0476C264.074 51.595 263.951 50.9822 263.499 50.6711L262.754 50.1714C262.367 50.3317 262.028 50.6051 261.773 50.9728L261.783 50.9634Z" fill="#999999"/>
<path d="M260.161 57.3463L259.888 57.7517C259.577 58.2042 258.964 58.3174 258.511 58.0157L257.795 57.5254C257.795 58.2419 258.144 58.9491 258.775 59.3828C259.803 60.0804 261.198 59.8165 261.896 58.7888C262.594 57.7611 262.33 56.3657 261.302 55.6681C260.642 55.2249 259.841 55.1778 259.162 55.4606L259.907 55.9603C260.359 56.2715 260.472 56.8843 260.171 57.3368L260.161 57.3463Z" fill="#666666"/>
<path d="M253.411 51.5666C252.958 51.2554 252.345 51.378 252.034 51.8306L251.761 52.236C251.45 52.6885 251.572 53.3014 252.025 53.6125L252.826 54.1593L254.212 52.1134L253.411 51.5666Z" fill="#999999"/>
<path d="M258.181 56.2623C258.436 55.8946 258.775 55.6306 259.162 55.4609L254.231 52.1045L252.845 54.1504L257.804 57.5257C257.804 57.092 257.927 56.6489 258.191 56.2623H258.181Z" fill="#999999"/>
<path d="M258.181 56.2622C257.917 56.6487 257.795 57.0919 257.795 57.5256L258.511 58.0158C258.964 58.327 259.577 58.2044 259.888 57.7518L260.161 57.3464C260.472 56.8939 260.35 56.281 259.897 55.9699L259.152 55.4702C258.766 55.6305 258.426 55.9039 258.172 56.2716L258.181 56.2622Z" fill="#999999"/>
<path d="M256.522 62.6921L256.305 63.0127C255.985 63.4841 255.334 63.616 254.863 63.2861L254.193 62.8335C254.193 63.5501 254.542 64.2572 255.174 64.6909C256.201 65.3886 257.597 65.1246 258.294 64.0969C258.992 63.0692 258.728 61.6738 257.7 60.9762C257.04 60.533 256.239 60.4859 255.56 60.7687L256.258 61.2401C256.729 61.5607 256.861 62.2112 256.531 62.6827L256.522 62.6921Z" fill="#666666"/>
<path d="M249.856 56.9033C249.385 56.5827 248.734 56.7053 248.414 57.1767L248.197 57.4972C247.876 57.9687 247.999 58.6192 248.47 58.9398L249.234 59.4583L250.62 57.4124L249.856 56.8938V56.9033Z" fill="#999999"/>
<path d="M254.57 61.5704C254.825 61.2027 255.164 60.9387 255.551 60.769L250.61 57.4126L249.225 59.4585L254.184 62.8338C254.184 62.4001 254.306 61.957 254.57 61.5704Z" fill="#999999"/>
<path d="M254.57 61.5703C254.306 61.9568 254.184 62.4 254.184 62.8337L254.853 63.2862C255.325 63.6068 255.975 63.4842 256.296 63.0128L256.513 62.6922C256.833 62.2208 256.711 61.5703 256.239 61.2497L255.541 60.7783C255.155 60.9386 254.815 61.212 254.561 61.5797L254.57 61.5703Z" fill="#999999"/>
<path d="M252.92 67.9997L252.704 68.3203C252.383 68.7917 251.732 68.9237 251.261 68.5937L250.592 68.1411C250.592 68.8577 250.94 69.5648 251.572 69.9985C252.6 70.6962 253.995 70.4322 254.693 69.4045C255.391 68.3768 255.127 66.9815 254.099 66.2838C253.439 65.8406 252.638 65.7935 251.959 66.0764L252.656 66.5478C253.128 66.8683 253.26 67.5189 252.93 67.9903L252.92 67.9997Z" fill="#666666"/>
<path d="M246.245 62.2109C245.774 61.8903 245.123 62.0129 244.803 62.4843L244.586 62.8049C244.265 63.2763 244.388 63.9268 244.859 64.2474L245.623 64.7659L247.009 62.72L246.245 62.2015V62.2109Z" fill="#999999"/>
<path d="M250.969 66.8785C251.223 66.5108 251.563 66.2468 251.949 66.0771L247.009 62.7207L245.623 64.7666L250.582 68.1419C250.582 67.7082 250.705 67.2651 250.969 66.8785Z" fill="#999999"/>
<path d="M250.969 66.8784C250.705 67.265 250.582 67.7081 250.582 68.1418L251.252 68.5943C251.723 68.9149 252.374 68.7923 252.694 68.3209L252.911 68.0003C253.232 67.5289 253.109 66.8784 252.638 66.5578L251.94 66.0864C251.553 66.2467 251.214 66.5201 250.959 66.8878L250.969 66.8784Z" fill="#999999"/>
<path d="M249.319 73.3083L249.102 73.6289C248.781 74.1003 248.131 74.2323 247.659 73.9023L246.99 73.4497C246.99 74.1663 247.339 74.8734 247.971 75.3071C248.998 76.0048 250.394 75.7408 251.091 74.7131C251.789 73.6854 251.525 72.2901 250.497 71.5924C249.837 71.1492 249.036 71.1021 248.357 71.3849L249.055 71.8564C249.526 72.1769 249.658 72.8275 249.328 73.2989L249.319 73.3083Z" fill="#666666"/>
<path d="M242.644 67.5102C242.172 67.1896 241.522 67.3122 241.201 67.7836L240.984 68.1042C240.664 68.5756 240.786 69.2261 241.258 69.5467L242.021 70.0652L243.407 68.0193L242.644 67.5008V67.5102Z" fill="#999999"/>
<path d="M247.367 72.1861C247.622 71.8184 247.961 71.5545 248.348 71.3848L243.417 68.0283L242.031 70.0742L246.99 73.4495C246.99 73.0158 247.113 72.5727 247.377 72.1861H247.367Z" fill="#999999"/>
<path d="M247.367 72.186C247.103 72.5726 246.981 73.0157 246.981 73.4494L247.65 73.9019C248.121 74.2225 248.772 74.0999 249.093 73.6285L249.309 73.308C249.63 72.8366 249.507 72.186 249.036 71.8655L248.338 71.394C247.952 71.5543 247.612 71.8277 247.358 72.1954L247.367 72.186Z" fill="#999999"/>
<path d="M245.708 78.6071L245.491 78.9277C245.17 79.3991 244.52 79.5311 244.048 79.2011L243.379 78.7485C243.379 79.4651 243.728 80.1722 244.36 80.6059C245.387 81.3036 246.783 81.0396 247.48 80.0119C248.178 78.9843 247.914 77.5889 246.886 76.8912C246.226 76.4481 245.425 76.4009 244.746 76.6838L245.444 77.1552C245.915 77.4757 246.047 78.1263 245.717 78.5977L245.708 78.6071Z" fill="#666666"/>
<path d="M239.042 72.8173C238.571 72.4968 237.92 72.6193 237.6 73.0908L237.383 73.4113C237.062 73.8827 237.185 74.5333 237.656 74.8538L238.42 75.3724L239.806 73.3265L239.042 72.8079V72.8173Z" fill="#999999"/>
<path d="M243.756 77.4947C244.011 77.127 244.35 76.8631 244.737 76.6933L239.806 73.3369L238.42 75.3828L243.379 78.7581C243.379 78.3244 243.502 77.8813 243.766 77.4947H243.756Z" fill="#999999"/>
<path d="M243.756 77.4941C243.492 77.8807 243.37 78.3238 243.37 78.7575L244.039 79.21C244.51 79.5306 245.161 79.408 245.482 78.9366L245.698 78.6161C246.019 78.1447 245.896 77.4941 245.425 77.1736L244.727 76.7021C244.341 76.8624 244.001 77.1358 243.747 77.5035L243.756 77.4941Z" fill="#999999"/>
<path d="M242.106 83.9147L241.889 84.2353C241.569 84.7067 240.918 84.8387 240.447 84.5087L239.777 84.0562C239.777 84.7727 240.126 85.4798 240.758 85.9135C241.786 86.6112 243.181 86.3472 243.879 85.3195C244.576 84.2919 244.312 82.8965 243.285 82.1988C242.625 81.7557 241.823 81.7085 241.145 81.9914L241.842 82.4628C242.314 82.7834 242.446 83.4339 242.116 83.9053L242.106 83.9147Z" fill="#666666"/>
<path d="M235.431 78.1264C234.96 77.8059 234.309 77.9284 233.989 78.3998L233.772 78.7204C233.451 79.1918 233.574 79.8423 234.045 80.1629L234.809 80.6815L236.195 78.6355L235.431 78.117V78.1264Z" fill="#999999"/>
<path d="M240.155 82.7936C240.409 82.4259 240.749 82.1619 241.135 81.9922L236.204 78.6357L234.818 80.6817L239.777 84.0569C239.777 83.6232 239.9 83.1801 240.164 82.7936H240.155Z" fill="#999999"/>
<path d="M240.155 82.7929C239.891 83.1795 239.768 83.6226 239.768 84.0563L240.437 84.5089C240.909 84.8294 241.559 84.7069 241.88 84.2355L242.097 83.9149C242.417 83.4435 242.295 82.7929 241.823 82.4724L241.126 82.001C240.739 82.1613 240.4 82.4347 240.145 82.8024L240.155 82.7929Z" fill="#999999"/>
<path d="M238.505 89.2224L238.288 89.5429C237.967 90.0143 237.317 90.1463 236.845 89.8163L236.176 89.3638C236.176 90.0803 236.525 90.7874 237.156 91.2211C238.184 91.9188 239.579 91.6548 240.277 90.6272C240.975 89.5995 240.711 88.2041 239.683 87.5064C239.023 87.0633 238.222 87.0162 237.543 87.299L238.241 87.7704C238.712 88.091 238.844 88.7415 238.514 89.2129L238.505 89.2224Z" fill="#666666"/>
<path d="M231.83 83.4345C231.358 83.114 230.708 83.2365 230.387 83.7079L230.17 84.0285C229.85 84.4999 229.972 85.1505 230.444 85.471L231.207 85.9896L232.593 83.9436L231.83 83.4251V83.4345Z" fill="#999999"/>
<path d="M236.553 88.1012C236.808 87.7335 237.147 87.4695 237.534 87.2998L232.593 83.9434L231.207 85.9893L236.166 89.3646C236.166 88.9309 236.289 88.4877 236.553 88.1012Z" fill="#999999"/>
<path d="M236.553 88.1006C236.289 88.4871 236.166 88.9302 236.166 89.3639L236.836 89.8165C237.307 90.137 237.958 90.0145 238.278 89.5431L238.495 89.2225C238.816 88.7511 238.693 88.1006 238.222 87.78L237.524 87.3086C237.138 87.4689 236.798 87.7423 236.544 88.11L236.553 88.1006Z" fill="#999999"/>
<path d="M234.894 94.531L234.677 94.8515C234.356 95.3229 233.706 95.4549 233.234 95.1249L232.565 94.6724C232.565 95.3889 232.914 96.096 233.545 96.5297C234.573 97.2274 235.968 96.9634 236.666 95.9358C237.364 94.9081 237.1 93.5127 236.072 92.815C235.412 92.3719 234.611 92.3248 233.932 92.6076L234.63 93.079C235.101 93.3996 235.233 94.0501 234.903 94.5215L234.894 94.531Z" fill="#666666"/>
<path d="M228.228 88.7333C227.757 88.4128 227.106 88.5354 226.785 89.0068L226.569 89.3273C226.248 89.7987 226.371 90.4493 226.842 90.7698L227.606 91.2884L228.992 89.2425L228.228 88.7239V88.7333Z" fill="#999999"/>
<path d="M232.942 93.4088C233.197 93.0411 233.536 92.7771 233.923 92.6074L228.992 89.251L227.606 91.2969L232.565 94.6722C232.565 94.2385 232.687 93.7954 232.951 93.4088H232.942Z" fill="#999999"/>
<path d="M232.942 93.4092C232.678 93.7957 232.555 94.2388 232.555 94.6725L233.225 95.1251C233.696 95.4456 234.347 95.3231 234.667 94.8517L234.884 94.5311C235.205 94.0597 235.082 93.4092 234.611 93.0886L233.913 92.6172C233.527 92.7775 233.187 93.0509 232.933 93.4186L232.942 93.4092Z" fill="#999999"/>
<path d="M231.292 99.8288L231.075 100.149C230.755 100.621 230.104 100.753 229.633 100.423L228.963 99.9702C228.963 100.687 229.312 101.394 229.944 101.828C230.972 102.525 232.367 102.261 233.065 101.234C233.762 100.206 233.498 98.8106 232.471 98.1129C231.811 97.6698 231.009 97.6226 230.33 97.9055L231.028 98.3769C231.5 98.6974 231.632 99.348 231.302 99.8194L231.292 99.8288Z" fill="#666666"/>
<path d="M224.617 94.041C224.146 93.7204 223.495 93.843 223.174 94.3144L222.958 94.6349C222.637 95.1063 222.76 95.7569 223.231 96.0775L223.995 96.596L225.381 94.5501L224.617 94.0315V94.041Z" fill="#999999"/>
<path d="M229.34 98.7184C229.595 98.3507 229.934 98.0867 230.321 97.917L225.381 94.5605L223.995 96.6065L228.954 99.9818C228.954 99.5481 229.076 99.1049 229.34 98.7184Z" fill="#999999"/>
<path d="M229.34 98.7177C229.076 99.1043 228.954 99.5474 228.954 99.9811L229.623 100.434C230.095 100.754 230.745 100.632 231.066 100.16L231.283 99.8397C231.603 99.3683 231.481 98.7177 231.009 98.3972L230.312 97.9258C229.925 98.0861 229.586 98.3595 229.331 98.7272L229.34 98.7177Z" fill="#999999"/>
<path d="M226.333 107.137C226.465 107.232 226.606 107.298 226.757 107.364C226.333 106.92 225.909 106.477 225.484 106.034C225.635 106.468 225.918 106.864 226.333 107.137Z" fill="#666666"/>
<path d="M229.444 106.542C230.142 105.515 229.878 104.119 228.85 103.421C228.19 102.978 227.389 102.931 226.71 103.214L227.408 103.685C227.879 104.006 228.011 104.657 227.681 105.128L227.464 105.449C227.144 105.92 226.493 106.052 226.022 105.722L225.352 105.269C225.352 105.524 225.399 105.779 225.484 106.014C225.899 106.457 226.323 106.9 226.757 107.344C227.719 107.73 228.85 107.419 229.454 106.523L229.444 106.542Z" fill="#666666"/>
<path d="M219.771 99.4248C219.695 99.4814 219.62 99.5379 219.563 99.6228L219.347 99.9434C219.026 100.415 219.149 101.065 219.62 101.386L220.384 101.904L221.025 100.971C220.601 100.452 220.186 99.9434 219.771 99.4248Z" fill="#999999"/>
<path d="M221.779 99.8668L221.015 99.3482C220.619 99.0842 220.12 99.1314 219.771 99.4236C220.186 99.9422 220.601 100.461 221.025 100.97L221.779 99.8668Z" fill="#999999"/>
<path d="M221.025 100.971L220.384 101.904L223.872 104.28C222.892 103.186 221.939 102.083 221.015 100.971H221.025Z" fill="#999999"/>
<path d="M225.739 104.017C225.993 103.65 226.333 103.386 226.719 103.216L221.789 99.8594L221.034 100.962C221.958 102.075 222.901 103.178 223.891 104.272L225.362 105.271C225.362 104.837 225.484 104.394 225.748 104.008L225.739 104.017Z" fill="#999999"/>
<path d="M225.739 104.015C225.475 104.401 225.352 104.844 225.352 105.278L226.022 105.731C226.493 106.051 227.144 105.929 227.464 105.457L227.681 105.137C228.002 104.665 227.879 104.015 227.408 103.694L226.71 103.223C226.323 103.383 225.984 103.656 225.729 104.024L225.739 104.015Z" fill="#999999"/>
<path d="M224.08 110.446L223.863 110.767C223.542 111.238 222.892 111.37 222.42 111.04L221.751 110.587C221.751 111.304 222.1 112.011 222.731 112.445C223.759 113.142 225.154 112.878 225.852 111.851C226.55 110.823 226.286 109.428 225.258 108.73C224.598 108.287 223.797 108.24 223.118 108.523L223.816 108.994C224.287 109.315 224.419 109.965 224.089 110.437L224.08 110.446Z" fill="#666666"/>
<path d="M217.404 104.656C216.933 104.336 216.282 104.458 215.962 104.93L215.745 105.25C215.424 105.722 215.547 106.372 216.018 106.693L216.782 107.211L218.168 105.165L217.404 104.647V104.656Z" fill="#999999"/>
<path d="M222.128 109.325C222.382 108.957 222.722 108.693 223.108 108.523L218.168 105.167L216.782 107.213L221.741 110.588C221.741 110.154 221.864 109.711 222.128 109.325Z" fill="#999999"/>
<path d="M222.128 109.324C221.864 109.711 221.741 110.154 221.741 110.588L222.411 111.04C222.882 111.361 223.533 111.238 223.853 110.767L224.07 110.446C224.391 109.975 224.268 109.324 223.797 109.004L223.099 108.532C222.712 108.693 222.373 108.966 222.118 109.334L222.128 109.324Z" fill="#999999"/>
<path d="M220.478 115.754L220.261 116.074C219.941 116.546 219.29 116.678 218.819 116.348L218.149 115.895C218.149 116.612 218.498 117.319 219.13 117.752C220.157 118.45 221.553 118.186 222.25 117.158C222.948 116.131 222.684 114.735 221.657 114.038C220.997 113.595 220.195 113.547 219.516 113.83L220.214 114.302C220.685 114.622 220.817 115.273 220.487 115.744L220.478 115.754Z" fill="#666666"/>
<path d="M213.803 109.955C213.331 109.634 212.681 109.757 212.36 110.228L212.143 110.549C211.823 111.02 211.945 111.671 212.417 111.992L213.181 112.51L214.567 110.464L213.803 109.946V109.955Z" fill="#999999"/>
<path d="M218.526 114.632C218.781 114.265 219.12 114.001 219.507 113.831L214.567 110.475L213.181 112.521L218.14 115.896C218.14 115.462 218.262 115.019 218.526 114.632Z" fill="#999999"/>
<path d="M218.526 114.632C218.262 115.018 218.14 115.461 218.14 115.895L218.809 116.348C219.281 116.668 219.931 116.546 220.252 116.074L220.469 115.754C220.789 115.282 220.667 114.632 220.195 114.311L219.497 113.84C219.111 114 218.771 114.274 218.517 114.641L218.526 114.632Z" fill="#999999"/>
<path d="M216.99 121.138L216.773 121.459C216.452 121.93 215.802 122.062 215.33 121.732L214.661 121.28C214.661 121.996 215.01 122.703 215.641 123.137C216.669 123.835 218.064 123.571 218.762 122.543C219.46 121.516 219.196 120.12 218.168 119.422C217.508 118.979 216.707 118.932 216.028 119.215L216.726 119.686C217.197 120.007 217.329 120.658 216.999 121.129L216.99 121.138Z" fill="#666666"/>
<path d="M210.314 115.349C209.843 115.028 209.192 115.151 208.872 115.622L208.655 115.943C208.334 116.414 208.457 117.065 208.928 117.385L209.579 117.828L210.965 115.782L210.314 115.339V115.349Z" fill="#999999"/>
<path d="M215.038 120.015C215.292 119.648 215.632 119.384 216.018 119.214L210.965 115.782L209.579 117.828L214.651 121.279C214.651 120.845 214.774 120.402 215.038 120.015Z" fill="#999999"/>
<path d="M215.038 120.015C214.774 120.401 214.651 120.844 214.651 121.278L215.321 121.731C215.792 122.051 216.443 121.929 216.763 121.457L216.98 121.137C217.301 120.665 217.178 120.015 216.707 119.694L216.009 119.223C215.622 119.383 215.283 119.656 215.029 120.024L215.038 120.015Z" fill="#999999"/>
<path d="M213.501 126.521L213.284 126.842C212.964 127.313 212.313 127.445 211.842 127.115L211.172 126.663C211.172 127.379 211.521 128.086 212.153 128.52C213.181 129.218 214.576 128.954 215.274 127.926C215.971 126.898 215.707 125.503 214.68 124.805C214.02 124.362 213.218 124.315 212.539 124.598L213.237 125.069C213.709 125.39 213.841 126.04 213.511 126.512L213.501 126.521Z" fill="#666666"/>
<path d="M206.826 120.731C206.355 120.411 205.704 120.533 205.383 121.005L205.167 121.325C204.846 121.797 204.969 122.447 205.44 122.768L205.968 123.126L207.354 121.08L206.826 120.722V120.731Z" fill="#999999"/>
<path d="M211.549 125.399C211.804 125.031 212.143 124.767 212.53 124.597L207.363 121.09L205.977 123.136L211.172 126.662C211.172 126.228 211.295 125.785 211.559 125.399H211.549Z" fill="#999999"/>
<path d="M211.55 125.399C211.286 125.786 211.163 126.229 211.163 126.663L211.832 127.115C212.304 127.436 212.954 127.313 213.275 126.842L213.492 126.521C213.812 126.05 213.69 125.399 213.218 125.079L212.521 124.607C212.134 124.768 211.795 125.041 211.54 125.409L211.55 125.399Z" fill="#999999"/>
<path d="M407.401 68.6505L405.025 65.4072L376.703 72.8461C377.448 73.9397 378.145 75.0428 378.824 76.1554L407.392 68.6505H407.401Z" fill="#FBCE17"/>
<path d="M355.16 78.5125L351.973 83.2078L378.834 76.1555C378.155 75.0524 377.448 73.9493 376.712 72.8462L355.16 78.5031V78.5125Z" fill="#FBCE17"/>
<path d="M322.161 88.4215C322.18 88.5158 322.18 88.6101 322.161 88.7138C322.142 88.8175 322.095 88.9307 322.038 89.0532C321.822 89.5246 321.407 90.0809 321.19 90.59C321.133 90.7126 321.096 90.8446 321.067 90.9577C321.048 91.0803 321.039 91.1934 321.067 91.2971C321.067 91.2971 321.067 91.2971 321.067 91.3066L334.493 87.7804C335.672 86.2059 336.831 84.622 337.963 83.0098L320.86 87.4976C321.558 87.639 322.095 87.8747 322.17 88.4027L322.161 88.4215Z" fill="#FBCE17"/>
<path d="M334.493 87.7897L351.973 83.1982L355.16 78.5029L337.963 83.0096C336.841 84.6218 335.672 86.2058 334.493 87.7803V87.7897Z" fill="#FBCE17"/>
<path d="M409.513 76.5414L409.485 76.4282L382.775 83.4428C383.312 84.5836 383.812 85.715 384.283 86.8558L409.155 80.3221L409.513 76.5414Z" fill="#A97317"/>
<path d="M345.081 93.3436L341.932 97.9728L384.283 86.8476C383.812 85.7068 383.312 84.5754 382.775 83.4346L345.081 93.3342V93.3436Z" fill="#A97317"/>
<path d="M323.368 99.049C323.632 99.4921 324.037 99.7655 324.443 99.9918C324.923 99.4638 325.385 98.9264 325.857 98.3984L323.368 99.049Z" fill="#A97317"/>
<path d="M324.443 99.9906C324.876 100.236 325.301 100.415 325.536 100.688C325.536 100.688 325.536 100.688 325.546 100.698C325.583 100.745 325.612 100.792 325.631 100.839C325.631 100.849 325.649 100.867 325.649 100.877C325.668 100.924 325.678 100.971 325.687 101.028C325.687 101.047 325.696 101.065 325.696 101.094C325.696 101.141 325.697 101.197 325.687 101.254C325.687 101.282 325.687 101.311 325.687 101.339C325.678 101.395 325.649 101.461 325.631 101.527C325.621 101.565 325.612 101.593 325.593 101.631C325.565 101.707 325.517 101.791 325.47 101.876C325.451 101.914 325.442 101.942 325.414 101.98C325.338 102.103 325.244 102.244 325.14 102.385L341.941 97.973L345.09 93.3438L325.866 98.3878C325.395 98.9252 324.923 99.4532 324.452 99.9812L324.443 99.9906Z" fill="#A97317"/>
<path d="M407.439 68.6406H407.411L407.458 68.7075L407.439 68.6406Z" fill="#FBAE17"/>
<path d="M409.485 76.4377L407.458 68.7066L407.42 68.6406L378.834 76.1455C380.314 78.5685 381.624 81.001 382.784 83.4429L409.494 76.4283L409.485 76.4377Z" fill="#FBAE17"/>
<path d="M345.081 93.3425L382.775 83.4429C381.615 81.001 380.304 78.5686 378.824 76.1455L351.963 83.1978L345.071 93.3425H345.081Z" fill="#FBAE17"/>
<path d="M321.567 92.2119C321.972 92.5701 322.547 92.8341 323.094 93.1547C323.368 93.3149 323.632 93.4941 323.858 93.7015C324.084 93.9089 324.273 94.1635 324.405 94.4652C324.509 94.6443 324.556 94.8235 324.565 95.012C324.584 95.2854 324.509 95.5683 324.386 95.8511C324.348 95.9454 324.301 96.0397 324.254 96.134C324.16 96.3225 324.047 96.5111 323.933 96.7091C323.877 96.8034 323.82 96.8977 323.764 96.9919C323.594 97.2748 323.434 97.5576 323.33 97.8405C323.189 98.2176 323.151 98.5759 323.302 98.9341C323.321 98.9813 323.349 99.0096 323.377 99.0473L325.866 98.3967C328.883 94.9743 331.759 91.4387 334.502 87.79L321.077 91.3162C321.124 91.6839 321.312 91.9667 321.576 92.2119H321.567Z" fill="#FBAE17"/>
<path d="M334.493 87.7891C331.759 91.4378 328.874 94.9734 325.857 98.3958L345.081 93.3517L351.973 83.207L334.493 87.7986V87.7891Z" fill="#FBAE17"/>
<path d="M310.649 101.111C310.564 100.781 310.395 100.536 310.197 100.357C310.187 100.348 310.178 100.329 310.168 100.319C310.47 99.8763 310.602 99.3012 310.423 98.6223C310.206 97.7926 309.659 97.3212 309.027 97.1421C309.027 97.1421 309.027 97.1421 309.027 97.1327C309.046 96.9724 309.046 96.8027 308.99 96.6141C308.886 96.2276 308.66 95.973 308.386 95.8316L320.106 88.0156L303.531 99.0655C301.805 100.517 302.079 101.394 304.229 101.715L310.659 101.922C310.725 101.686 310.734 101.413 310.659 101.121L310.649 101.111Z" fill="#1B1819"/>
<path d="M309.018 97.1239C309.018 97.1239 309.018 97.1239 309.018 97.1333C309.65 97.3124 310.197 97.7838 310.413 98.6135C310.593 99.2923 310.461 99.8675 310.159 100.311C310.168 100.32 310.178 100.339 310.187 100.348L323 99.0755L320.964 91.335L309.009 97.1239H309.018Z" fill="#DEC49F"/>
<path d="M321.067 91.2979L320.982 91.345L321.077 91.3167C321.077 91.3167 321.077 91.3167 321.077 91.3073L321.067 91.2979Z" fill="#DEC49F"/>
<path d="M323.009 99.0852L323.368 99.0475C323.368 99.0475 323.321 98.9721 323.292 98.9344C323.132 98.5855 323.179 98.2178 323.321 97.8407C323.424 97.5579 323.585 97.275 323.754 96.9922C323.811 96.8979 323.867 96.8036 323.924 96.7093C324.037 96.5208 324.15 96.3322 324.245 96.1342C324.292 96.0399 324.339 95.9456 324.377 95.8514C324.499 95.5685 324.575 95.2857 324.556 95.0123C324.546 94.8237 324.499 94.6446 324.395 94.4654C324.263 94.1637 324.075 93.9186 323.849 93.7017C323.622 93.4849 323.358 93.3152 323.085 93.1549C322.538 92.8343 321.963 92.5704 321.558 92.2121C321.294 91.9764 321.105 91.6935 321.058 91.3164L320.964 91.3447L323 99.0852H323.009Z" fill="#DEC49F"/>
<path d="M322.161 88.4229C322.18 88.5171 322.18 88.6114 322.161 88.7151C322.18 88.6114 322.189 88.5077 322.161 88.4229Z" fill="#F3D8BF"/>
<path d="M321.067 90.958C321.048 91.0806 321.039 91.1937 321.067 91.2974C321.048 91.1937 321.048 91.0711 321.067 90.958Z" fill="#F3D8BF"/>
<path d="M308.99 96.6053C309.037 96.7939 309.046 96.9636 309.027 97.1239L320.982 91.335L320.106 88.0068L308.386 95.8228C308.66 95.9642 308.886 96.2188 308.99 96.6053Z" fill="#F3D8BF"/>
<path d="M321.067 91.2973C321.048 91.1936 321.048 91.071 321.067 90.9579C321.086 90.8353 321.133 90.7128 321.19 90.5902C321.407 90.0811 321.822 89.5248 322.038 89.0534C322.095 88.9308 322.133 88.8271 322.161 88.714C322.18 88.6103 322.189 88.5066 322.161 88.4217C322.085 87.8937 321.548 87.6486 320.85 87.5166L320.096 88.0163L320.973 91.3444L321.058 91.2973H321.067Z" fill="#F3D8BF"/>
<path d="M310.649 101.923L322.312 102.3L310.649 101.923Z" fill="#AF826F"/>
<path d="M322.312 102.301L323.867 102.348L322.312 102.301Z" fill="#AF826F"/>
<path d="M325.131 102.395C325.235 102.244 325.329 102.112 325.404 101.989C325.329 102.112 325.235 102.253 325.131 102.395Z" fill="#AF826F"/>
<path d="M323.368 99.0479C323.632 99.491 324.037 99.7644 324.443 99.9907C324.047 99.7644 323.641 99.5004 323.368 99.0479Z" fill="#AF826F"/>
<path d="M325.536 100.688C325.31 100.415 324.886 100.235 324.443 99.9902C324.876 100.235 325.301 100.415 325.536 100.688Z" fill="#AF826F"/>
<path d="M323.019 99.1415L323 99.085L310.187 100.358C310.385 100.537 310.555 100.782 310.64 101.112C310.715 101.414 310.706 101.678 310.64 101.913L322.302 102.291C322.708 101.857 323.104 101.423 323.5 100.989L323.009 99.1227L323.019 99.1415Z" fill="#AF826F"/>
<path d="M322.312 102.3L323.858 102.347L323.5 100.999C323.104 101.433 322.708 101.866 322.302 102.3H322.312Z" fill="#AF826F"/>
<path d="M323.509 100.999C323.82 100.66 324.131 100.33 324.443 99.9907C324.047 99.7644 323.641 99.491 323.368 99.0479L323.019 99.1421L323.509 101.009V100.999Z" fill="#AF826F"/>
<path d="M323.509 100.999L323.867 102.347L325.14 102.385C325.244 102.234 325.338 102.102 325.414 101.98C325.433 101.942 325.451 101.914 325.47 101.876C325.517 101.791 325.564 101.706 325.593 101.631C325.612 101.593 325.612 101.565 325.631 101.527C325.649 101.461 325.678 101.395 325.687 101.338C325.687 101.31 325.687 101.282 325.687 101.254C325.687 101.197 325.706 101.14 325.696 101.093C325.696 101.074 325.696 101.056 325.687 101.027C325.687 100.98 325.668 100.924 325.649 100.876C325.649 100.867 325.631 100.848 325.631 100.839C325.602 100.792 325.583 100.744 325.546 100.697C325.546 100.697 325.546 100.697 325.536 100.688C325.31 100.415 324.876 100.235 324.443 99.9902C324.131 100.33 323.82 100.66 323.509 100.999Z" fill="#AF826F"/>
<path d="M323.019 99.1421L323.368 99.0479L323.009 99.0856L323.019 99.1421Z" fill="#AF826F"/>
</svg>
