<svg width="158" height="166" viewBox="0 0 158 166" fill="none" xmlns="http://www.w3.org/2000/svg">
<g clip-path="url(#clip0_1552_7082)">
<path d="M136.59 86.7202C133.74 112.01 129 123.45 115.94 142.98C111.71 149.3 107.38 155.74 101.78 160.03C89.68 169.3 72.46 165.92 63.16 152.47C54.66 140.17 52.69 121.54 42.5 111.48C32.82 101.93 18.41 102.96 8.92999 93.1002C0.659989 84.5002 -1.73001 69.0502 1.19999 56.0502C4.11999 43.0502 11.53 32.2902 19.95 23.9302C39.23 4.78018 65 -3.58982 89.21 1.43018C91.52 1.91018 94.02 2.67018 95.41 5.04018C97.8 9.13018 95.39 14.7402 93.3 19.0902C86.82 32.6302 83.46 48.5202 83.76 64.3302C83.85 69.2002 84.45 74.5202 87.28 77.8402C91.64 82.9602 99.12 80.4402 103.22 74.9902C107.32 69.5402 109.15 62.0802 111.76 55.3302C114.37 48.5802 118.49 41.8302 124.36 40.6002C132.09 38.9802 139.11 48.1702 140.5 57.8802C141.88 67.6002 139.21 77.4202 136.59 86.7202Z" fill="#BAC9C8"/>
<path d="M103.15 133.26C103.41 133.35 114.43 133.69 114.43 133.69L124.57 133.48L113.86 132.75L103.15 133.26Z" fill="#E8CB9C"/>
<path d="M150.2 139.34H146.04C145.41 139.34 144.9 138.83 144.9 138.2C144.9 137.67 145.27 137.22 145.77 137.1H101.35C99.59 137.1 98.15 135.67 98.15 133.9V123.19C98.15 121.43 99.58 119.99 101.35 119.99H146.04C145.41 119.99 144.9 119.48 144.9 118.85C144.9 118.22 145.41 117.71 146.04 117.71H101.35C98.34 117.71 95.87 120.18 95.87 123.19V133.9C95.87 136.91 98.34 139.38 101.35 139.38H150.33V139.33C150.33 139.33 150.25 139.34 150.21 139.34H150.2Z" fill="#696969"/>
<path d="M150.33 117.71H150.21C150.21 117.71 150.29 117.71 150.33 117.72V117.71Z" fill="#696969"/>
<path d="M101.35 119.99C99.59 119.99 98.15 121.42 98.15 123.19V133.9C98.15 135.66 99.58 137.1 101.35 137.1H145.77C145.86 137.08 145.95 137.06 146.04 137.06H150.09C148.72 134.76 147.89 131.79 147.89 128.55C147.89 125.31 148.73 122.3 150.11 120H101.35V119.99ZM131.35 123.13C131.35 123.13 113.43 122.79 113 122.7L130.42 122.19L147.84 122.92L131.34 123.13H131.35Z" fill="#F6E1B7"/>
<path d="M113 122.7C113.43 122.79 131.35 123.13 131.35 123.13L147.85 122.92L130.43 122.19L113.01 122.7H113Z" fill="#E8CB9C"/>
<path d="M122.24 131.67C122.55 131.74 135.72 132.02 135.72 132.02L147.85 131.84L135.05 131.24L122.25 131.66L122.24 131.67Z" fill="#E8CB9C"/>
<path d="M111.63 134.34C111.81 134.4 119.32 134.63 119.32 134.63L126.23 134.49L118.93 134L111.63 134.34Z" fill="#E8CB9C"/>
<path d="M102.82 131.08C102.96 131.12 108.74 131.29 108.74 131.29L114.07 131.18L108.44 130.81L102.81 131.07L102.82 131.08Z" fill="#E8CB9C"/>
<path d="M150.11 119.99H150.21C150.84 119.99 151.35 119.48 151.35 118.85C151.35 118.26 150.9 117.78 150.33 117.72V119.65C150.26 119.76 150.18 119.87 150.11 119.99Z" fill="#696969"/>
<path d="M144.9 118.85C144.9 119.48 145.41 119.99 146.04 119.99H150.11C150.18 119.87 150.26 119.76 150.33 119.65V117.72C150.33 117.72 150.25 117.71 150.21 117.71H146.05C145.42 117.71 144.91 118.22 144.91 118.85H144.9Z" fill="#696969"/>
<path d="M150.2 137.09H150.1C150.17 137.21 150.25 137.32 150.32 137.43V139.36C150.89 139.3 151.34 138.82 151.34 138.23C151.34 137.6 150.83 137.09 150.2 137.09Z" fill="#696969"/>
<path d="M145.76 137.09C145.26 137.21 144.89 137.66 144.89 138.19C144.89 138.82 145.4 139.33 146.03 139.33H150.19C150.19 139.33 150.27 139.33 150.31 139.32V137.43C150.24 137.32 150.16 137.21 150.09 137.09H145.75H145.76Z" fill="#696969"/>
<path d="M145.76 137.09H150.1C150.1 137.09 150.09 137.06 150.08 137.05H146.03C145.93 137.05 145.84 137.07 145.76 137.09Z" fill="#F6E1B7"/>
<path d="M110.79 140.61C109.51 137.43 109.54 134.25 110.86 131.08H104.28C103.2 134.32 103.2 137.55 104.28 140.79H104.41C106.18 137.64 108.3 139.77 110.78 140.61H110.79Z" fill="#67617D"/>
<path d="M102.43 103.66H154.69C156.42 103.66 157.82 105.06 157.82 106.79V111.53H98.79V107.29C98.79 105.28 100.42 103.65 102.43 103.65V103.66Z" fill="#EBA895"/>
<path d="M147.92 106.62C149.91 106.62 151.52 108.24 151.52 110.22V111.53H144.31V110.22C144.31 108.23 145.93 106.62 147.91 106.62H147.92Z" fill="#EBA895"/>
<path d="M113.34 106.13H141.22C143.73 106.13 145.76 108.16 145.76 110.67V111.54H108.33V111.13C108.33 108.37 110.57 106.12 113.34 106.12V106.13Z" fill="white"/>
<path d="M98.79 111.54H157.82V114.63C157.82 116.33 156.44 117.71 154.74 117.71H102.37C100.39 117.71 98.79 116.1 98.79 114.13V111.55V111.54Z" fill="#EE8D67"/>
<path d="M144.32 111.54H151.53V112.28C151.53 114.27 149.91 115.88 147.93 115.88C145.94 115.88 144.33 114.26 144.33 112.28V111.54H144.32Z" fill="#EE8D67"/>
<path d="M108.3 111.54H145.76V112.22C145.76 114.18 144.17 115.77 142.21 115.77H112.22C110.06 115.77 108.3 114.01 108.3 111.85V111.53V111.54Z" fill="#E3EAF0"/>
<path d="M104.59 100.62H101.85V108.48H104.59V100.62Z" fill="white"/>
<path d="M150.82 100.641H148.08V108.501H150.82V100.641Z" fill="white"/>
<path d="M150.78 104.03L120.02 105.58L119.96 93.5001L150.86 92.7301C151.87 92.7001 152.73 93.7301 152.79 95.0201L153.04 100.86C153.11 102.55 152.11 103.97 150.79 104.04L150.78 104.03Z" fill="#003365"/>
<path d="M118.93 96.98C118.78 96.94 112.83 97.0199 112.83 97.0199L107.85 97.3499L113.13 97.4999L118.93 96.98Z" fill="#E8CB9C"/>
<path d="M120.01 104.31C121.03 104.33 121.87 103.54 121.87 102.55L121.85 96.4897C121.85 95.4797 120.99 94.7197 119.96 94.7797L98.69 96.0697C98.69 96.0697 98.62 96.0897 98.58 96.0897L97.01 96.1897C97.56 97.2097 97.92 98.5497 97.96 100.04C98 101.53 97.72 102.88 97.22 103.91L98.79 103.94L120.01 104.32V104.31ZM104.87 102.52C104.87 102.52 113.42 102.73 113.64 102.78L105.29 102.98L98.06 102.59L104.87 102.52Z" fill="#F6E1B7"/>
<path d="M113.64 102.781C113.42 102.731 104.87 102.521 104.87 102.521L98.06 102.591L105.29 102.981L113.64 102.781Z" fill="#E8CB9C"/>
<path d="M108.98 98.2099C108.83 98.1799 102.88 98.2599 102.88 98.2599L97.95 98.5199L103.18 98.6199L108.98 98.2099Z" fill="#E8CB9C"/>
<path d="M114.28 96.5998C114.19 96.5698 110.37 96.6398 110.37 96.6398L107.07 96.8699L110.56 96.9498L114.28 96.5898V96.5998Z" fill="#E8CB9C"/>
<path d="M119.13 98.1798C119.05 98.1598 115.84 98.1798 115.84 98.1798L113.03 98.3298L116 98.4298L119.13 98.1898V98.1798Z" fill="#E8CB9C"/>
<path d="M123.23 96.43C123.23 94.69 121.73 93.37 119.95 93.49L96.88 95.13C96.66 95.17 96.5 95.4 96.51 95.67C96.51 95.96 96.72 96.18 96.96 96.16H97L98.68 96.06L119.95 94.77C120.98 94.71 121.84 95.48 121.84 96.48L121.86 102.54C121.86 103.53 121.02 104.32 120 104.3L98.78 103.92L97.21 103.89H97.17C96.93 103.89 96.75 104.11 96.75 104.39C96.75 104.65 96.93 104.87 97.15 104.9C97.17 104.9 97.18 104.9 97.2 104.9L98.8 104.95L119.99 105.55C121.75 105.6 123.22 104.24 123.22 102.53V96.4L123.23 96.43Z" fill="#538D7D"/>
<path d="M98.69 96.0703L97.01 96.1703C97.01 96.1703 97.01 96.1803 97.01 96.1903L98.58 96.0903C98.58 96.0903 98.65 96.0803 98.69 96.0703Z" fill="#F6E1B7"/>
<path d="M152.58 83.2202L103.26 80.4502L103.46 89.4602L152.58 83.2202Z" fill="#3C5285"/>
<path d="M113.44 91.3904C113.7 91.4304 123.97 91.4404 123.97 91.4404L132.78 91.1704L123.44 90.9404L113.44 91.3904Z" fill="#E8CB9C"/>
<path d="M111.46 83.9203C109.72 83.9003 108.31 84.7103 108.34 85.7203L108.52 91.8403C108.55 92.8503 110 93.6303 111.74 93.5903L149.52 92.6603C149.59 92.6503 149.65 92.6403 149.72 92.6403L152.67 92.5703C151.65 91.4803 151.01 90.0403 150.96 88.4603C150.91 86.8803 151.48 85.4203 152.44 84.3103L149.48 84.2803L111.45 83.9303L111.46 83.9203ZM138.21 85.7803C138.21 85.7803 122.9 85.5503 122.51 85.5003L137.45 85.2903L150.86 85.7103L138.21 85.7803Z" fill="#F6E1B7"/>
<path d="M122.51 85.5C122.9 85.55 138.21 85.78 138.21 85.78L150.86 85.71L137.45 85.29L122.51 85.5Z" fill="#E8CB9C"/>
<path d="M130.78 90.2604C131.05 90.2904 141.82 90.2804 141.82 90.2804L150.99 90.0604L141.28 89.9004L130.79 90.2604H130.78Z" fill="#E8CB9C"/>
<path d="M121.44 91.85C121.6 91.88 128.3 91.87 128.3 91.87L134.18 91.68L127.96 91.54L121.45 91.85H121.44Z" fill="#E8CB9C"/>
<path d="M113.08 90.1707C113.21 90.1907 118.72 90.2207 118.72 90.2207L123.6 90.1007L118.43 89.9707L113.07 90.1807L113.08 90.1707Z" fill="#E8CB9C"/>
<path d="M153.6 93.1005C153.6 92.8005 153.22 92.5605 152.77 92.5705H152.7H152.69L149.54 92.6505L111.76 93.5805C110.02 93.6205 108.57 92.8405 108.54 91.8305L108.36 85.7105C108.33 84.7005 109.74 83.9005 111.48 83.9105L149.51 84.2605L152.47 84.2905H152.54C152.99 84.2905 153.35 84.0505 153.34 83.7505C153.34 83.4705 153 83.2305 152.59 83.2005C152.56 83.2005 152.53 83.2005 152.5 83.2005L149.47 83.1605L111.44 82.6405C108.45 82.6005 106 83.9905 106.05 85.7205L106.23 91.8905C106.28 93.6305 108.81 94.9705 111.8 94.8905L152.9 93.6905C153.31 93.6505 153.62 93.4105 153.61 93.1205L153.6 93.1005Z" fill="#696969"/>
<path d="M149.53 92.6508L152.68 92.5708H152.69C152.69 92.5708 152.68 92.5608 152.67 92.5508L149.72 92.6208C149.65 92.6208 149.58 92.6308 149.52 92.6408L149.53 92.6508Z" fill="#F6E1B7"/>
<path d="M115.07 98.1797C116.12 95.5297 116.09 92.8897 114.97 90.2497L120.44 90.2197C121.35 92.9097 121.37 95.5997 120.48 98.2997H120.37C118.89 95.6797 117.13 97.4697 115.07 98.1797Z" fill="#67617D"/>
<path d="M71.5417 44.2845C73.7626 39.6593 71.8136 34.1095 67.1885 31.8886C62.5634 29.6676 57.0136 31.6166 54.7926 36.2417C52.5717 40.8668 54.5206 46.4166 59.1458 48.6376C63.7709 50.8585 69.3207 48.9096 71.5417 44.2845Z" stroke="#779A71" stroke-width="0.5" stroke-miterlimit="10"/>
<path d="M28.43 68.7107C28.66 69.0007 29.01 69.1607 29.36 69.1707C28.87 68.9907 28.42 68.6907 28.07 68.2607L28.43 68.7107Z" stroke="#779A71" stroke-width="0.5" stroke-miterlimit="10"/>
<path d="M27.71 67.8108L28.07 68.2608C27.72 67.8308 27.53 67.3208 27.47 66.8008C27.41 67.1408 27.47 67.5108 27.71 67.8008V67.8108Z" stroke="#779A71" stroke-width="0.5" stroke-miterlimit="10"/>
<path d="M75.48 41.6406C76.24 34.8506 71.33 28.7106 64.54 27.9506C57.75 27.1906 51.61 32.1006 50.85 38.8906C50.55 41.6206 51.16 44.2506 52.44 46.4606L44.34 52.9406C44.97 53.0806 45.56 53.4106 45.99 53.9506C46.42 54.4906 46.62 55.1406 46.61 55.7806L54.7 49.3106C56.58 51.0806 59.03 52.2706 61.79 52.5806C68.58 53.3406 74.72 48.4306 75.48 41.6406ZM62.14 49.4906C57.04 48.9206 53.37 44.3306 53.94 39.2306C54.51 34.1306 59.1 30.4606 64.2 31.0306C69.3 31.6006 72.97 36.1906 72.4 41.2906C71.83 46.3906 67.24 50.0606 62.14 49.4906Z" stroke="#779A71" stroke-width="0.5" stroke-miterlimit="10"/>
<path d="M46.61 55.7709C46.61 55.1309 46.42 54.4809 45.99 53.9409C45.56 53.4009 44.97 53.0709 44.34 52.9309C43.5 52.7409 42.59 52.9109 41.88 53.4809L28.53 64.1509C27.71 64.8109 27.34 65.8309 27.47 66.8109C27.53 67.3309 27.73 67.8309 28.07 68.2709C28.42 68.7009 28.87 69.0009 29.36 69.1809C30.29 69.5209 31.36 69.3909 32.18 68.7309L45.53 58.0609C46.25 57.4909 46.61 56.6409 46.61 55.7809V55.7709Z" stroke="#779A71" stroke-width="0.5" stroke-miterlimit="10"/>
<path opacity="0.52" d="M68.74 34.491C68.09 33.851 66.89 34.061 66.35 34.731C65.72 35.491 65.93 36.481 66.59 37.121C67.33 37.851 67.66 38.921 67.54 39.941C67.29 42.111 70.64 42.651 70.9 40.471C71.17 38.191 70.38 36.091 68.75 34.491H68.74Z" stroke="#779A71" stroke-width="0.5" stroke-miterlimit="10"/>
<path d="M86.8 133.571L68.85 124.931L55.71 152.251L68.16 158.241L76.82 162.411L89.97 135.101L86.8 133.571Z" stroke="#779A71" stroke-width="0.5" stroke-miterlimit="10"/>
<path d="M69.46 128.521C69.7527 128.521 69.99 128.284 69.99 127.991C69.99 127.698 69.7527 127.461 69.46 127.461C69.1673 127.461 68.93 127.698 68.93 127.991C68.93 128.284 69.1673 128.521 69.46 128.521Z" stroke="#779A71" stroke-width="0.5" stroke-miterlimit="10"/>
<path d="M69.3195 127.603L67.7336 126.84C67.5893 126.77 67.416 126.831 67.3465 126.975L67.3422 126.984C67.2728 127.129 67.3334 127.302 67.4778 127.371L69.0637 128.134C69.208 128.204 69.3813 128.143 69.4507 127.999L69.4551 127.99C69.5245 127.846 69.4638 127.672 69.3195 127.603Z" stroke="#779A71" stroke-width="0.5" stroke-miterlimit="10"/>
<path d="M68.13 131.271C68.4227 131.271 68.66 131.034 68.66 130.741C68.66 130.448 68.4227 130.211 68.13 130.211C67.8373 130.211 67.6 130.448 67.6 130.741C67.6 131.034 67.8373 131.271 68.13 131.271Z" stroke="#779A71" stroke-width="0.5" stroke-miterlimit="10"/>
<path d="M67.9932 130.368L66.4073 129.604C66.263 129.535 66.0897 129.596 66.0202 129.74L66.0159 129.749C65.9464 129.893 66.0071 130.066 66.1514 130.136L67.7373 130.899C67.8817 130.969 68.055 130.908 68.1244 130.764L68.1287 130.755C68.1982 130.61 68.1375 130.437 67.9932 130.368Z" stroke="#779A71" stroke-width="0.5" stroke-miterlimit="10"/>
<path d="M66.81 134.031C67.1027 134.031 67.34 133.793 67.34 133.501C67.34 133.208 67.1027 132.971 66.81 132.971C66.5173 132.971 66.28 133.208 66.28 133.501C66.28 133.793 66.5173 134.031 66.81 134.031Z" stroke="#779A71" stroke-width="0.5" stroke-miterlimit="10"/>
<path d="M66.6722 133.109L65.0863 132.345C64.942 132.276 64.7687 132.337 64.6992 132.481L64.6949 132.49C64.6254 132.634 64.6861 132.808 64.8304 132.877L66.4163 133.64C66.5606 133.71 66.7339 133.649 66.8034 133.505L66.8077 133.496C66.8772 133.351 66.8165 133.178 66.6722 133.109Z" stroke="#779A71" stroke-width="0.5" stroke-miterlimit="10"/>
<path d="M65.25 136.741C65.52 136.871 65.84 136.761 65.96 136.491C66.09 136.221 65.98 135.901 65.71 135.781C65.44 135.661 65.12 135.761 65 136.031C64.87 136.301 64.98 136.621 65.25 136.741Z" stroke="#779A71" stroke-width="0.5" stroke-miterlimit="10"/>
<path d="M63.385 135.194L63.346 135.275C63.2861 135.399 63.3385 135.549 63.4629 135.608L65.121 136.406C65.2454 136.466 65.3948 136.414 65.4547 136.289L65.4937 136.208C65.5535 136.084 65.5012 135.934 65.3768 135.874L63.7187 135.077C63.5942 135.017 63.4448 135.069 63.385 135.194Z" stroke="#779A71" stroke-width="0.5" stroke-miterlimit="10"/>
<path d="M63.92 139.491C64.19 139.621 64.51 139.511 64.63 139.241C64.76 138.971 64.65 138.651 64.38 138.531C64.11 138.401 63.79 138.511 63.67 138.781C63.54 139.051 63.65 139.371 63.92 139.491Z" stroke="#779A71" stroke-width="0.5" stroke-miterlimit="10"/>
<path d="M62.0651 137.965L62.0261 138.046C61.9662 138.171 62.0186 138.32 62.143 138.38L63.8009 139.178C63.9254 139.238 64.0747 139.185 64.1346 139.061L64.1737 138.98C64.2335 138.855 64.1812 138.706 64.0568 138.646L62.3988 137.848C62.2744 137.788 62.125 137.841 62.0651 137.965Z" stroke="#779A71" stroke-width="0.5" stroke-miterlimit="10"/>
<path d="M62.6 142.251C62.87 142.381 63.19 142.271 63.31 142.001C63.44 141.731 63.33 141.411 63.06 141.291C62.79 141.161 62.47 141.271 62.35 141.541C62.22 141.811 62.33 142.131 62.6 142.251Z" stroke="#779A71" stroke-width="0.5" stroke-miterlimit="10"/>
<path d="M60.7307 140.707L60.6916 140.788C60.6318 140.913 60.6841 141.062 60.8085 141.122L62.4665 141.92C62.5909 141.98 62.7403 141.928 62.8002 141.803L62.8392 141.722C62.8991 141.598 62.8467 141.448 62.7223 141.388L61.0643 140.59C60.9399 140.531 60.7905 140.583 60.7307 140.707Z" stroke="#779A71" stroke-width="0.5" stroke-miterlimit="10"/>
<path d="M61.27 145.001C61.54 145.131 61.86 145.021 61.98 144.751C62.11 144.481 62 144.161 61.73 144.041C61.46 143.911 61.14 144.021 61.02 144.291C60.9 144.561 61 144.881 61.27 145.001Z" stroke="#779A71" stroke-width="0.5" stroke-miterlimit="10"/>
<path d="M59.4122 143.465L59.3732 143.546C59.3133 143.671 59.3657 143.82 59.4901 143.88L61.1482 144.678C61.2726 144.737 61.422 144.685 61.4819 144.561L61.5209 144.479C61.5807 144.355 61.5284 144.206 61.404 144.146L59.7459 143.348C59.6214 143.288 59.472 143.341 59.4122 143.465Z" stroke="#779A71" stroke-width="0.5" stroke-miterlimit="10"/>
<path d="M59.94 147.761C60.21 147.891 60.53 147.781 60.65 147.511C60.78 147.241 60.67 146.921 60.4 146.801C60.13 146.671 59.81 146.781 59.69 147.051C59.57 147.321 59.67 147.641 59.94 147.761Z" stroke="#779A71" stroke-width="0.5" stroke-miterlimit="10"/>
<path d="M58.0937 146.236L58.0547 146.317C57.9948 146.441 58.0471 146.591 58.1715 146.65L59.8293 147.449C59.9537 147.509 60.1031 147.456 60.163 147.332L60.202 147.251C60.2619 147.126 60.2097 146.977 60.0853 146.917L58.4274 146.119C58.303 146.059 58.1536 146.111 58.0937 146.236Z" stroke="#779A71" stroke-width="0.5" stroke-miterlimit="10"/>
<path d="M58.65 150.531C58.92 150.661 59.24 150.551 59.36 150.281C59.49 150.011 59.38 149.691 59.11 149.571C58.84 149.441 58.52 149.551 58.4 149.821C58.28 150.091 58.38 150.411 58.65 150.531Z" stroke="#779A71" stroke-width="0.5" stroke-miterlimit="10"/>
<path d="M56.7908 148.99L56.7517 149.071C56.6919 149.195 56.7442 149.344 56.8687 149.404L58.5268 150.202C58.6512 150.262 58.8006 150.209 58.8605 150.085L58.8995 150.004C58.9593 149.879 58.907 149.73 58.7826 149.67L57.1244 148.873C57 148.813 56.8506 148.865 56.7908 148.99Z" stroke="#779A71" stroke-width="0.5" stroke-miterlimit="10"/>
<path d="M69.83 130.2L69.67 130.52L84.74 137.77C84.8 137.67 84.87 137.56 84.93 137.46L69.82 130.19L69.83 130.2Z" stroke="#779A71" stroke-width="0.5" stroke-miterlimit="10"/>
<path d="M84.75 137.78L86.66 138.7L86.82 138.38L84.94 137.48C84.88 137.58 84.81 137.69 84.75 137.79V137.78Z" stroke="#779A71" stroke-width="0.5" stroke-miterlimit="10"/>
<path d="M84.46 143.271L84.62 142.951L82.39 141.881C82.33 141.991 82.27 142.091 82.22 142.201L84.47 143.281L84.46 143.271Z" stroke="#779A71" stroke-width="0.5" stroke-miterlimit="10"/>
<path d="M67.47 135.101L82.21 142.191C82.27 142.081 82.33 141.98 82.38 141.87L67.62 134.771L67.46 135.09L67.47 135.101Z" stroke="#779A71" stroke-width="0.5" stroke-miterlimit="10"/>
<path d="M82.26 147.84L82.42 147.52L79.92 146.32C79.86 146.42 79.8 146.53 79.74 146.63L82.27 147.85L82.26 147.84Z" stroke="#779A71" stroke-width="0.5" stroke-miterlimit="10"/>
<path d="M65.27 139.671L79.73 146.631C79.79 146.531 79.85 146.421 79.91 146.321L65.43 139.351L65.27 139.671Z" stroke="#779A71" stroke-width="0.5" stroke-miterlimit="10"/>
<path d="M63.07 144.241L76.97 150.931C77.04 150.831 77.11 150.731 77.18 150.631L63.23 143.921L63.07 144.241Z" stroke="#779A71" stroke-width="0.5" stroke-miterlimit="10"/>
<path d="M80.06 152.421L80.22 152.101L77.19 150.641C77.12 150.741 77.05 150.841 76.98 150.941L80.07 152.431L80.06 152.421Z" stroke="#779A71" stroke-width="0.5" stroke-miterlimit="10"/>
<path d="M77.86 156.991L78.02 156.671L73.86 154.671C73.77 154.761 73.68 154.851 73.59 154.941L77.86 156.991Z" stroke="#779A71" stroke-width="0.5" stroke-miterlimit="10"/>
<path d="M60.87 148.821L73.59 154.941C73.68 154.851 73.77 154.761 73.86 154.671L61.03 148.501L60.87 148.821Z" stroke="#779A71" stroke-width="0.5" stroke-miterlimit="10"/>
<path d="M150.82 108.5H148.08V114.67H150.82V108.5Z" fill="#E3EAF0"/>
<path d="M104.59 108.49H101.85V114.66H104.59V108.49Z" fill="#E3EAF0"/>
<path d="M6.34 80.9505L53.56 69.7805L98.49 51.3105L114.01 103.871C99.65 101.021 83.59 102.701 72.33 113.341C70.32 117.781 67.42 119.001 63.39 116.131C51.39 113.021 35.23 122.391 22.39 132.451L6.34 80.9505Z" fill="#843B46"/>
<path d="M53.02 68.0609L66.28 110.581C77.99 99.5209 91.68 95.3409 107.47 98.5709L94.19 53.3009C78.56 52.6309 64.42 56.3409 53.01 68.0709L53.02 68.0609Z" fill="#F4E8D3"/>
<path d="M96.95 56.5708L94.2 53.3008L107.4 98.3208L110.5 102.071L96.95 56.5708Z" fill="#DFBF8B"/>
<path d="M70.6 113.871C69.67 111.411 69.19 110.061 66.29 110.581C78.32 98.9212 92.16 95.4412 107.41 98.3212L110.51 102.071C101.61 100.991 78.58 99.3612 70.6 113.871Z" fill="#C8895E"/>
<path d="M53.02 68.0602L66.28 110.58C50.36 108.14 36.72 112.48 25.56 124.12L10.75 79.3202C23.23 69.8802 36.97 64.9002 53.02 68.0602Z" fill="#F4E8D3"/>
<path d="M10.35 83.5803L10.75 79.3203L25.49 123.87L25.07 128.72L10.35 83.5803Z" fill="#DFBF8B"/>
<path d="M64.6 115.74C63.97 113.19 63.59 111.81 66.28 110.58C49.75 107.82 36.39 112.83 25.49 123.87L25.07 128.72C31.78 122.77 49.79 108.34 64.61 115.74H64.6Z" fill="#C8895E"/>
<path d="M64.3 63.3506L70.94 60.9306C68.63 61.5406 67.17 63.9606 66.93 66.3306C66.69 68.7006 67.39 71.0606 68.1 73.3406C69.77 78.7506 71.43 84.1606 73.1 89.5706C73.6 91.2106 74.15 92.9106 75.36 94.1306C76.57 95.3506 78.67 95.8606 80.01 94.7906C79.76 95.4306 79.52 96.0706 79.27 96.7106C81.03 96.6406 82.78 96.5706 84.54 96.4906C82.82 97.1906 81.11 97.8906 79.39 98.5906C77.84 99.2206 76.26 99.8806 75 100.981C74.61 101.331 74.24 101.721 73.76 101.951C73.28 102.181 72.66 102.201 72.29 101.831C71.92 101.461 72.04 100.671 72.56 100.581C71.29 100.091 70.76 98.6106 70.38 97.3006C68.11 89.5406 65.84 81.7806 63.57 74.0206C63.16 72.6306 62.74 71.2006 61.84 70.0606C61.5 69.6306 61.09 69.2206 60.95 68.6906C60.64 67.4806 61.86 66.4806 62.93 65.8306C61.15 66.1306 59.37 66.4406 57.6 66.7406C62.73 61.4006 69.6 57.7706 76.9 56.5506C77.37 56.4706 80.42 55.7006 80.21 56.7806C80.1 57.3406 77.21 57.4106 76.58 57.5406C73.7 58.1206 70.91 59.1506 68.35 60.5906C67.63 61.0006 66.93 61.4306 66.24 61.9006C65.66 62.3006 64.97 63.1106 64.33 63.3406L64.3 63.3506Z" fill="#F8EEE0"/>
<path d="M66.2765 110.582C66.5138 110.508 63.7365 100.926 60.0732 89.1786C56.4099 77.4316 53.2479 67.9688 53.0107 68.0428C52.7734 68.1168 55.5507 77.6996 59.214 89.4465C62.8773 101.193 66.0393 110.656 66.2765 110.582Z" fill="#DCB68A"/>
<path d="M19.7 76.1705C21.29 75.7705 22.88 75.3605 24.47 74.9605C23.47 75.4705 22.46 75.9705 21.46 76.4805C20.52 76.9505 19.52 77.4905 19.06 78.4405C18.56 79.4805 18.86 80.7105 19.17 81.8205C21.27 89.3905 23.37 96.9505 25.47 104.52C26.12 106.87 27 109.5 29.22 110.52C29.79 110.78 30.41 110.91 30.97 111.19C31.53 111.47 32.06 111.92 32.17 112.54C34.69 112.12 37.21 111.7 39.73 111.28C35.24 113.67 30.76 116.06 26.27 118.44C26.19 117.26 26.98 116.08 28.09 115.69C27.85 115.17 27.03 115.07 26.66 115.5C25.1 111.96 23.91 108.26 22.73 104.58C20.47 97.5005 18.2 90.4205 15.94 83.3405C15.69 82.5505 15.43 81.7405 15.51 80.9205C15.59 80.1005 16.08 79.2505 16.87 79.0305C16.43 78.8205 16 78.6105 15.56 78.4105C15.66 78.4605 18.64 75.7805 19 75.5305C20.27 74.6405 21.62 73.8605 23.02 73.1905C25.47 72.0305 28.95 70.5705 31.71 70.7705C31.17 71.3705 29.71 71.3505 28.95 71.5505C27.83 71.8405 26.72 72.2105 25.65 72.6605C23.51 73.5505 21.49 74.7405 19.68 76.2005L19.7 76.1705Z" fill="#F8EEE0"/>
<path d="M111.35 58.3701C111.46 58.5501 111.91 58.5501 112 58.7001C112.07 58.8001 112.02 58.9301 111.92 59.0701L130.11 49.5601L130.01 48.6201L111.35 58.3801V58.3701Z" stroke="#769A6F" stroke-width="0.22" stroke-miterlimit="10"/>
<path d="M110.3 55.7903C110.3 55.7903 110.38 55.8103 110.41 55.8203C110.41 55.8203 110.43 55.8203 110.44 55.8203C110.46 55.8203 110.48 55.8303 110.5 55.8403C110.5 55.8403 110.51 55.8403 110.52 55.8503C110.53 55.8503 110.55 55.8703 110.56 55.8703C110.56 55.8703 110.56 55.8703 110.58 55.8803C110.59 55.8803 110.6 55.9003 110.61 55.9103C110.61 55.9103 110.61 55.9103 110.61 55.9203C110.61 55.9303 110.62 55.9403 110.63 55.9503C110.63 55.9503 110.63 55.9503 110.63 55.9603C110.63 55.9703 110.63 55.9903 110.63 56.0003C110.63 56.1603 110.46 56.3803 110.51 56.6303L129.12 46.9003V46.8803L128.44 46.2803L110.28 55.7703L110.3 55.7903Z" stroke="#769A6F" stroke-width="0.22" stroke-miterlimit="10"/>
<path d="M110.53 56.6499C110.53 56.6499 110.53 56.6699 110.53 56.6799C110.56 56.7699 110.62 56.8199 110.71 56.8699C110.77 56.8999 110.85 56.9299 110.92 56.9499C110.94 56.9499 110.97 56.9699 111 56.9699C111.05 56.9899 111.1 56.9999 111.15 57.0199C111.17 57.0199 111.2 57.0399 111.22 57.0499C111.29 57.0799 111.34 57.1199 111.38 57.1699C111.41 57.1999 111.43 57.2399 111.44 57.2899C111.47 57.3599 111.47 57.4399 111.47 57.5099C111.47 57.5799 111.45 57.6599 111.42 57.7299C111.38 57.8699 111.32 58.0099 111.3 58.1399C111.3 58.2199 111.3 58.2999 111.35 58.3699L130.01 48.6099V48.5899L129.13 46.9199L110.52 56.6499H110.53Z" stroke="#769A6F" stroke-width="0.22" stroke-miterlimit="10"/>
<path d="M108.43 59.5899C108.46 59.5199 108.45 59.4399 108.41 59.3599C108.39 59.3199 108.36 59.2899 108.33 59.2599C108.41 59.1299 108.43 58.9599 108.33 58.7799C108.25 58.6299 108.14 58.5499 108.02 58.5199C108.02 58.5199 108.02 58.5199 108.02 58.5099C108.02 58.4499 108.02 58.3799 107.98 58.3099C107.95 58.2499 107.9 58.1999 107.85 58.1699L106.76 59.2299C106.44 59.6299 106.53 59.8199 107.06 59.7999L111.71 59.0999L108.43 59.5999V59.5899Z" fill="#769A6F"/>
<path d="M112 58.7002C112.07 58.8002 112.02 58.9302 111.92 59.0702C112.02 58.9402 112.08 58.8102 112 58.7002Z" stroke="#769A6F" stroke-width="0.22" stroke-miterlimit="10"/>
<path d="M111.71 59.0905L111.92 59.0605L111.71 59.0905Z" stroke="#769A6F" stroke-width="0.22" stroke-miterlimit="10"/>
<path d="M110.61 55.9199C110.61 55.9199 110.61 55.9199 110.61 55.9299C110.61 55.9299 110.61 55.9299 110.61 55.9199Z" stroke="#769A6F" stroke-width="0.22" stroke-miterlimit="10"/>
<path d="M110.63 55.9707C110.63 55.9707 110.63 55.9707 110.63 55.9807C110.63 55.9807 110.63 55.9807 110.63 55.9707Z" stroke="#769A6F" stroke-width="0.22" stroke-miterlimit="10"/>
<path d="M110.5 55.8506C110.5 55.8506 110.51 55.8506 110.52 55.8606C110.52 55.8606 110.51 55.8606 110.5 55.8506Z" stroke="#769A6F" stroke-width="0.22" stroke-miterlimit="10"/>
<path d="M110.57 55.8799C110.57 55.8799 110.57 55.8799 110.59 55.8899C110.59 55.8899 110.59 55.8899 110.57 55.8799Z" stroke="#769A6F" stroke-width="0.22" stroke-miterlimit="10"/>
<path d="M110.42 55.8105C110.42 55.8105 110.44 55.8105 110.45 55.8105C110.45 55.8105 110.43 55.8105 110.42 55.8105Z" stroke="#769A6F" stroke-width="0.22" stroke-miterlimit="10"/>
<path d="M110.53 56.6804C110.53 56.6804 110.53 56.6604 110.53 56.6504C110.53 56.6504 110.53 56.6704 110.53 56.6804Z" stroke="#769A6F" stroke-width="0.22" stroke-miterlimit="10"/>
<path d="M111.21 57.0498C111.28 57.0798 111.33 57.1198 111.37 57.1698C111.33 57.1198 111.27 57.0798 111.21 57.0498Z" stroke="#769A6F" stroke-width="0.22" stroke-miterlimit="10"/>
<path d="M111.46 57.5107C111.46 57.5807 111.44 57.6607 111.41 57.7307C111.43 57.6607 111.45 57.5907 111.46 57.5107Z" stroke="#769A6F" stroke-width="0.22" stroke-miterlimit="10"/>
<path d="M110.71 56.8701C110.77 56.9001 110.85 56.9301 110.92 56.9501" stroke="#769A6F" stroke-width="0.22" stroke-miterlimit="10"/>
<path d="M111.14 57.0207C111.14 57.0207 111.04 56.9907 110.99 56.9707C111.04 56.9907 111.09 57.0007 111.14 57.0207Z" stroke="#769A6F" stroke-width="0.22" stroke-miterlimit="10"/>
<path d="M111.3 58.1307C111.31 58.0007 111.37 57.8707 111.42 57.7207C111.38 57.8607 111.32 58.0007 111.3 58.1307Z" stroke="#769A6F" stroke-width="0.22" stroke-miterlimit="10"/>
<path d="M111.33 58.3801L111.36 58.3701H111.35L111.33 58.3801Z" stroke="#769A6F" stroke-width="0.22" stroke-miterlimit="10"/>
<path d="M111.43 57.2904C111.43 57.2904 111.4 57.2004 111.37 57.1704C111.33 57.1204 111.27 57.0804 111.21 57.0504C111.19 57.0404 111.16 57.0304 111.14 57.0204C111.09 57.0004 111.04 56.9904 110.99 56.9704C110.96 56.9704 110.94 56.9504 110.91 56.9504C110.84 56.9304 110.76 56.9004 110.7 56.8704C110.62 56.8304 110.55 56.7704 110.52 56.6804C110.52 56.6704 110.52 56.6604 110.52 56.6504L110.45 56.7004L108.01 58.5104C108.01 58.5104 108.01 58.5104 108.01 58.5204C108.13 58.5504 108.25 58.6304 108.32 58.7804C108.41 58.9604 108.39 59.1304 108.32 59.2604L111.32 58.3704H111.34C111.29 58.2904 111.28 58.2104 111.29 58.1204C111.3 57.9904 111.36 57.8604 111.41 57.7104C111.43 57.6404 111.45 57.5704 111.46 57.4904C111.46 57.4204 111.46 57.3404 111.43 57.2704V57.2904Z" stroke="#769A6F" stroke-width="0.22" stroke-miterlimit="10"/>
<path d="M112 58.7001C111.92 58.5501 111.46 58.5501 111.35 58.3701C111.46 58.5501 111.91 58.5501 112 58.7001Z" stroke="#769A6F" stroke-width="0.22" stroke-miterlimit="10"/>
<path d="M112 58.7001C111.92 58.5501 111.46 58.5501 111.35 58.3701H111.33L108.33 59.2701C108.36 59.2901 108.39 59.3301 108.41 59.3701C108.45 59.4501 108.46 59.5301 108.43 59.6001L111.71 59.1001L111.92 59.0701C112.02 58.9401 112.08 58.8101 112 58.7001Z" stroke="#769A6F" stroke-width="0.22" stroke-miterlimit="10"/>
<path d="M107.855 58.1699L110.093 55.9959L107.855 58.1699Z" stroke="#769A6F" stroke-width="0.22" stroke-miterlimit="10"/>
<path d="M110.58 55.9004C110.58 55.9004 110.6 55.9204 110.61 55.9304C110.61 55.9304 110.59 55.9104 110.58 55.9004Z" stroke="#769A6F" stroke-width="0.22" stroke-miterlimit="10"/>
<path d="M110.53 55.8604C110.53 55.8604 110.56 55.8804 110.57 55.8804C110.56 55.8804 110.54 55.8604 110.53 55.8604Z" stroke="#769A6F" stroke-width="0.22" stroke-miterlimit="10"/>
<path d="M110.44 55.8203C110.44 55.8203 110.48 55.8303 110.5 55.8403C110.48 55.8403 110.46 55.8203 110.44 55.8203Z" stroke="#769A6F" stroke-width="0.22" stroke-miterlimit="10"/>
<path d="M110.134 55.7617L110.273 56.0276L110.134 55.7617Z" stroke="#769A6F" stroke-width="0.22" stroke-miterlimit="10"/>
<path d="M110.42 55.8103C110.42 55.8103 110.35 55.7903 110.31 55.7803C110.31 55.7803 110.39 55.8003 110.42 55.8103Z" stroke="#769A6F" stroke-width="0.22" stroke-miterlimit="10"/>
<path d="M110.64 55.9805C110.64 55.9805 110.64 56.0105 110.64 56.0205C110.64 56.0105 110.64 55.9905 110.64 55.9805Z" stroke="#769A6F" stroke-width="0.22" stroke-miterlimit="10"/>
<path d="M110.53 56.6505C110.48 56.4005 110.65 56.1805 110.65 56.0205" stroke="#769A6F" stroke-width="0.22" stroke-miterlimit="10"/>
<path d="M110.62 55.9404C110.62 55.9404 110.63 55.9604 110.64 55.9704C110.64 55.9604 110.63 55.9504 110.62 55.9404Z" stroke="#769A6F" stroke-width="0.22" stroke-miterlimit="10"/>
<path d="M110.64 55.9805C110.64 55.9805 110.64 55.9805 110.64 55.9705C110.64 55.9605 110.63 55.9505 110.62 55.9405C110.62 55.9405 110.62 55.9405 110.62 55.9305C110.62 55.9305 110.6 55.9105 110.59 55.9005C110.59 55.9005 110.59 55.9005 110.57 55.8905C110.56 55.8905 110.54 55.8705 110.53 55.8705C110.53 55.8705 110.52 55.8705 110.51 55.8605C110.49 55.8605 110.47 55.8405 110.45 55.8405C110.45 55.8405 110.43 55.8405 110.42 55.8405C110.39 55.8405 110.35 55.8205 110.31 55.8105L110.1 56.0205L107.86 58.1905C107.86 58.1905 107.95 58.2705 107.99 58.3305C108.03 58.4005 108.04 58.4705 108.03 58.5305L110.47 56.7205L110.55 56.6705C110.5 56.4205 110.67 56.2005 110.67 56.0405C110.67 56.0305 110.67 56.0105 110.67 56.0005L110.64 55.9805Z" stroke="#769A6F" stroke-width="0.22" stroke-miterlimit="10"/>
<path d="M110.45 56.6904L110.46 56.7004L110.53 56.6504L110.45 56.6904Z" stroke="#769A6F" stroke-width="0.22" stroke-miterlimit="10"/>
<path d="M152.363 64.4572C152.866 63.8272 152.487 62.6878 151.516 61.9124C150.545 61.1369 149.35 61.0191 148.847 61.6492C148.343 62.2793 148.723 63.4186 149.694 64.1941C150.665 64.9695 151.86 65.0873 152.363 64.4572Z" stroke="#779A71" stroke-width="0.16" stroke-miterlimit="10"/>
<path d="M24.7914 59.178C25.2946 58.5479 24.9153 57.4085 23.9443 56.6331C22.9733 55.8576 21.7782 55.7398 21.2751 56.3699C20.7719 57 21.1512 58.1394 22.1222 58.9148C23.0932 59.6902 24.2882 59.808 24.7914 59.178Z" stroke="#779A71" stroke-width="0.16" stroke-miterlimit="10"/>
<path d="M66.9464 20.4433C67.4999 20.0591 67.747 19.4571 67.4983 19.0987C67.2495 18.7403 66.5991 18.7611 66.0456 19.1452C65.492 19.5294 65.2449 20.1314 65.4937 20.4898C65.7424 20.8483 66.3928 20.8274 66.9464 20.4433Z" stroke="#779A71" stroke-width="0.09" stroke-miterlimit="10"/>
<path d="M96.7305 33.2193C97.3344 32.685 97.1565 31.4974 96.3331 30.5667C95.5097 29.636 94.3526 29.3147 93.7487 29.849C93.1448 30.3833 93.3227 31.5709 94.1461 32.5016C94.9695 33.4322 96.1266 33.7536 96.7305 33.2193Z" stroke="#779A71" stroke-width="0.16" stroke-miterlimit="10"/>
</g>
<defs>
<clipPath id="clip0_1552_7082">
<rect width="157.82" height="165.26" fill="white"/>
</clipPath>
</defs>
</svg>
