<svg width="429" height="247" viewBox="0 0 429 247" fill="none" xmlns="http://www.w3.org/2000/svg">
<path d="M387.08 59.5093C399.44 39.8693 348.36 22.5393 320.07 19.0893C291.78 15.6293 263.33 21.2993 236.3 28.3893C219.08 32.8993 199.57 40.3793 196.38 55.4193C193.93 66.9993 202.72 78.5593 213.54 86.2493C224.36 93.9393 237.38 99.1193 248.28 106.719C254.87 111.319 260.78 117.289 263.97 123.859C298.87 118.309 334.02 114.759 369.36 113.419C368.73 94.3293 374.5 75.1993 387.07 59.5093H387.08Z" fill="#C8ECF7"/>
<path d="M407.06 169.73C387.15 159.54 388.08 168.7 372.28 133.03C370.55 126.6 369.58 120.02 369.36 113.43C334.02 114.76 298.87 118.32 263.97 123.87C266.06 128.17 266.99 132.73 266.18 137.33C263.87 150.5 248.98 158.66 236.45 166.56C223.92 174.46 211.45 186.87 216.54 199.62C220.76 210.19 234.98 215.21 247.8 217.74C298.14 227.7 352.48 218.97 394.67 195.11C408.13 187.5 426.21 179.53 407.06 169.73Z" fill="#C8E4F7"/>
<path d="M368.68 59.7793H232.91C226.283 59.7793 220.91 65.1519 220.91 71.7793V166.179C220.91 172.807 226.283 178.179 232.91 178.179H368.68C375.307 178.179 380.68 172.807 380.68 166.179V71.7793C380.68 65.1519 375.307 59.7793 368.68 59.7793Z" fill="#252C30"/>
<path d="M352 138.649C361.98 119.449 367.37 99.6791 372.89 79.7591V69.6291C372.89 68.4991 371.97 67.5791 370.84 67.5791H230.76C229.63 67.5791 228.71 68.4991 228.71 69.6291V168.329C228.71 169.459 229.63 170.379 230.76 170.379H316.45C330.66 163.039 343.62 153.739 352.01 138.649H352Z" fill="#669D60"/>
<path d="M352 138.65C343.61 153.75 330.65 163.05 316.44 170.38H370.83C371.96 170.38 372.88 169.46 372.88 168.33V79.7598C367.36 99.6798 361.98 119.45 351.99 138.65H352Z" fill="#4F8551"/>
<path d="M313.99 97.709C315.49 97.709 316.99 97.709 318.48 97.709" stroke="white" stroke-width="1.17" stroke-linecap="round" stroke-linejoin="round"/>
<path d="M308.05 125.369H312.54" stroke="white" stroke-width="1.17" stroke-linecap="round" stroke-linejoin="round"/>
<path d="M308.05 127.439C309.55 127.439 311.05 127.439 312.54 127.439" stroke="white" stroke-width="1.17" stroke-linecap="round" stroke-linejoin="round"/>
<path d="M284.06 84.9496C283.72 84.7196 283.23 84.7296 282.89 84.9696C282.55 85.2096 282.4 85.6796 282.52 86.0696C283.1 86.2996 283.83 85.7596 283.78 85.1396C284.06 85.8596 284.33 86.5796 284.61 87.2996" stroke="white" stroke-width="1.17" stroke-linecap="round" stroke-linejoin="round"/>
<path d="M268.58 99.2394C275.7 99.1294 282.83 99.0094 289.95 98.8994" stroke="white" stroke-width="1.17" stroke-linecap="round" stroke-linejoin="round"/>
<path d="M280.8 102.25L281.43 106.63C281.87 105.98 282.32 105.33 282.76 104.68C283.03 104.95 283.32 105.23 283.46 105.58C283.6 105.93 283.59 106.39 283.3 106.65C282.94 106.99 282.25 106.79 282.12 106.31" stroke="white" stroke-width="1.17" stroke-linecap="round" stroke-linejoin="round"/>
<path d="M293.27 96.2598H297.76" stroke="white" stroke-width="1.17" stroke-linecap="round" stroke-linejoin="round"/>
<path d="M293.05 99.5697L297.36 99.4297" stroke="white" stroke-width="1.17" stroke-linecap="round" stroke-linejoin="round"/>
<path d="M314.08 100.35L318.39 100.21" stroke="white" stroke-width="1.17" stroke-linecap="round" stroke-linejoin="round"/>
<path d="M305.66 96.65C305.07 95.93 304.05 95.63 303.13 95.79C302.21 95.95 301.4 96.53 300.83 97.27C300.17 98.12 299.81 99.22 300 100.28C300.19 101.34 301.02 102.29 302.07 102.48C303.32 102.71 304.56 101.86 305.19 100.76C305.82 99.66 305.98 98.36 306.12 97.11C307.12 99.02 308.44 100.76 310.01 102.24" stroke="white" stroke-width="1.17" stroke-linecap="round" stroke-linejoin="round"/>
<path d="M276.44 87.3394C275.85 86.6194 274.83 86.3195 273.91 86.4795C272.99 86.6395 272.18 87.2194 271.61 87.9594C270.95 88.8094 270.59 89.9094 270.78 90.9694C270.97 92.0294 271.8 92.9795 272.85 93.1695C274.1 93.3995 275.34 92.5495 275.97 91.4495C276.6 90.3495 276.76 89.0494 276.9 87.7994C277.9 89.7094 279.22 91.4494 280.79 92.9294" stroke="white" stroke-width="1.17" stroke-linecap="round" stroke-linejoin="round"/>
<path d="M276.44 107.269C275.85 106.549 274.83 106.249 273.91 106.409C272.99 106.569 272.18 107.149 271.61 107.889C270.95 108.739 270.59 109.839 270.78 110.899C270.97 111.959 271.8 112.909 272.85 113.099C274.1 113.329 275.34 112.479 275.97 111.379C276.6 110.279 276.76 108.979 276.9 107.729C277.9 109.639 279.22 111.379 280.79 112.859" stroke="white" stroke-width="1.17" stroke-linecap="round" stroke-linejoin="round"/>
<path d="M326.89 95.9801C326.3 95.2601 325.28 94.9601 324.36 95.1201C323.44 95.2801 322.63 95.8601 322.06 96.6001C321.4 97.4501 321.04 98.5501 321.23 99.6101C321.42 100.67 322.25 101.62 323.3 101.81C324.55 102.04 325.79 101.19 326.42 100.09C327.05 98.9901 327.21 97.6901 327.35 96.4401C328.35 98.3501 329.67 100.09 331.24 101.57" stroke="white" stroke-width="1.17" stroke-linecap="round" stroke-linejoin="round"/>
<path d="M307.49 91.9795C307.64 93.2795 307.79 94.5895 307.94 95.8895C308.01 95.5495 308.07 95.2195 308.14 94.8795C308.58 94.8795 309.01 95.0895 309.28 95.4195C309.16 96.0295 308.23 96.2695 307.83 95.7895" stroke="white" stroke-width="1.17" stroke-linecap="round" stroke-linejoin="round"/>
<path d="M311.67 94.5592C311.49 94.4892 311.28 94.6892 311.33 94.8692C311.44 94.7992 311.54 94.7393 311.65 94.6693C311.59 94.6293 311.53 94.5892 311.47 94.5492" stroke="white" stroke-width="0.75" stroke-linecap="round" stroke-linejoin="round"/>
<path d="M314.31 92.5899C314.41 92.3399 314.68 92.1799 314.94 92.1999C315.2 92.2199 315.44 92.4399 315.48 92.6999C315.54 93.0199 315.33 93.3399 315.05 93.5099C314.77 93.6799 314.44 93.7299 314.12 93.7899C314.45 93.9499 314.67 94.2999 314.66 94.6699C314.65 95.0399 314.41 95.3799 314.08 95.5199" stroke="white" stroke-width="1.17" stroke-linecap="round" stroke-linejoin="round"/>
<path d="M332.18 91.9395C332.28 91.6895 332.55 91.5295 332.81 91.5495C333.07 91.5695 333.31 91.7895 333.35 92.0495C333.41 92.3695 333.2 92.6895 332.92 92.8595C332.64 93.0295 332.31 93.0796 331.99 93.1396C332.32 93.2996 332.54 93.6495 332.53 94.0195C332.52 94.3895 332.28 94.7295 331.95 94.8695" stroke="white" stroke-width="1.17" stroke-linecap="round" stroke-linejoin="round"/>
<path d="M266.88 156.989C276.087 156.989 283.55 149.526 283.55 140.319C283.55 131.113 276.087 123.649 266.88 123.649C257.673 123.649 250.21 131.113 250.21 140.319C250.21 149.526 257.673 156.989 266.88 156.989Z" stroke="white" stroke-width="1.34" stroke-linecap="round" stroke-linejoin="round"/>
<path d="M266.88 139.289V123.989" stroke="white" stroke-width="1.44" stroke-miterlimit="10"/>
<path d="M267.97 140.319H283.47" stroke="white" stroke-width="1.36" stroke-miterlimit="10"/>
<path d="M266.88 141.809C267.703 141.809 268.37 141.142 268.37 140.319C268.37 139.496 267.703 138.829 266.88 138.829C266.057 138.829 265.39 139.496 265.39 140.319C265.39 141.142 266.057 141.809 266.88 141.809Z" fill="white"/>
<path d="M271.25 124.229L267.39 125.489L273.13 124.859C273.13 124.859 267.24 126.919 267.98 126.699C268.72 126.479 274.47 125.469 274.47 125.469L267.98 128.789L274.99 126.509L267.4 130.599L276.31 127.909L267.98 131.639L278.72 128.579L267.98 133.079L279.28 130.109L267.4 135.059L280.05 131.639L267.98 136.379L280.8 132.749L267.39 137.809L281.36 133.849L267.97 138.829L281.36 135.059L270.72 139.289L282.17 136.269L274.78 139.289L282.17 137.379L278.61 139.289L282.17 138.369L280.79 139.689L282.9 139.289" stroke="white" stroke-width="0.39" stroke-linecap="round" stroke-linejoin="round"/>
<path d="M292.85 127.24C291.24 126.74 289.81 125.67 288.87 124.27" stroke="white" stroke-width="1.17" stroke-linecap="round" stroke-linejoin="round"/>
<path d="M288.61 127.779C290.77 126.989 292.51 125.149 293.19 122.959" stroke="white" stroke-width="1.17" stroke-linecap="round" stroke-linejoin="round"/>
<path d="M296.74 124.239L296.33 126.999" stroke="white" stroke-width="1.17" stroke-linecap="round" stroke-linejoin="round"/>
<path d="M297.93 125.72L295.15 125.52" stroke="white" stroke-width="1.17" stroke-linecap="round" stroke-linejoin="round"/>
<path d="M305.68 124.06C303.73 126.51 301.78 128.96 299.83 131.41" stroke="white" stroke-width="1.17" stroke-linecap="round" stroke-linejoin="round"/>
<path d="M300.75 123.64L302.36 127.16" stroke="white" stroke-width="1.17" stroke-linecap="round" stroke-linejoin="round"/>
<path d="M316.99 128.779C316.91 128.699 316.77 128.679 316.66 128.729C316.55 128.779 316.49 128.899 316.5 129.019C316.6 129.039 316.7 129.059 316.8 129.029C316.9 128.999 316.98 128.909 316.96 128.809C316.94 128.709 316.78 128.669 316.73 128.759" stroke="white" stroke-width="1.17" stroke-linecap="round" stroke-linejoin="round"/>
<path d="M313.93 120.769C315.24 120.229 316.66 119.929 318.08 119.909C318.61 119.909 319.15 119.939 319.62 120.179C320.09 120.419 320.45 120.929 320.38 121.459C320.32 121.929 319.92 122.289 319.5 122.489C319.08 122.689 318.6 122.759 318.14 122.889C317.68 123.019 317.23 123.229 316.96 123.619C316.74 123.939 316.68 124.339 316.63 124.719C316.56 125.239 316.48 125.759 316.41 126.269" stroke="white" stroke-width="1.17" stroke-linecap="round" stroke-linejoin="round"/>
<path d="M394.86 162.46L394.48 161.89C383.87 172.45 370.79 180.86 356.73 186.44C357.2 186.58 357.68 186.72 358.15 186.86C357.68 186.72 357.21 186.58 356.73 186.44C353.77 187.61 350.77 188.67 347.73 189.58L350.06 191.47C350.97 192.21 352.07 192.54 353.16 192.54C354.74 193.48 356.78 193.52 358.41 192.44L393.45 169.3C395.71 167.8 396.34 164.73 394.85 162.46H394.86Z" fill="#086AA9"/>
<path d="M354.72 187.19C349.13 184.97 343.95 182.66 338.83 179.88C337.72 179.32 336.64 178.71 335.57 178.06C340.54 181.63 345.93 185.48 351.44 188.37C352.54 187.99 353.63 187.59 354.72 187.19Z" fill="#087AA9"/>
<path d="M335.57 178.059C333.06 176.529 330.69 174.749 328.53 172.609C328.76 173.659 329.32 174.639 330.21 175.369L347.74 189.579C348.98 189.209 350.21 188.799 351.44 188.379C345.94 185.489 340.54 181.629 335.57 178.069V178.059Z" fill="#086AA9"/>
<path d="M356.74 186.439C350.78 184.659 344.56 182.799 338.83 179.879C343.95 182.659 349.13 184.969 354.72 187.189C355.39 186.939 356.07 186.699 356.74 186.439Z" fill="#087AA9"/>
<path d="M389.14 153.789C387.64 151.529 384.57 150.899 382.3 152.389L350.93 173.099L339.53 163.859C337.42 162.149 334.3 162.479 332.59 164.589L329.48 168.429C328.5 169.639 328.21 171.189 328.53 172.619C336.35 180.359 346.92 183.509 356.74 186.439C370.8 180.869 383.88 172.449 394.49 161.889L389.14 153.789Z" fill="#087AA9"/>
<path d="M336.11 160.45C333.81 156.09 331.51 151.73 329.21 147.37C328.69 146.38 327.96 145.26 326.84 145.24C325.25 145.21 324.63 147.45 325.22 148.93C325.81 150.41 327.05 151.61 327.37 153.17C328.01 156.33 325.15 159.21 325.21 162.42C325.26 165.15 326.56 168.89 328.93 170.49C331.3 172.09 334.08 170.7 335.88 168.77C338.33 166.13 337.66 163.39 336.12 160.46L336.11 160.45Z" fill="#FF9B6C"/>
<path d="M299.83 96.2598L332.62 168.69" stroke="#4D5948" stroke-width="4.65" stroke-miterlimit="10" stroke-linecap="round"/>
<path d="M330.95 167.78C331.01 167.68 331.08 167.58 331.13 167.46C331.62 166.31 331.13 165.01 330.64 163.86C329.98 162.31 329.32 160.77 328.66 159.22C328.04 157.76 327.34 156.21 326 155.37C323.51 153.81 318.8 155.34 318.35 158.44C318.15 159.78 318.7 162.16 319.53 164.29C322.83 166.7 326.29 168.73 330.94 167.78H330.95Z" fill="#FF9B6C"/>
<path d="M319.54 164.299C320.23 166.089 321.12 167.719 321.92 168.419C323.32 169.649 325.38 169.669 327.24 169.469C328.64 169.319 330.24 168.929 330.96 167.779C326.31 168.729 322.85 166.699 319.55 164.289L319.54 164.299Z" fill="#FF746C"/>
</svg>
