<svg width="255" height="134" viewBox="0 0 255 134" fill="none" xmlns="http://www.w3.org/2000/svg">
<g filter="url(#filter0_bd_794_5610)">
<rect x="-29" y="24" width="248" height="70" rx="16" fill="#60935D" fill-opacity="0.75" shape-rendering="crispEdges"/>
</g>
<path d="M33.372 62.408V61.848C33.372 61.456 33.568 61.26 33.96 61.26H36.34C36.732 61.26 36.928 61.456 36.928 61.848V62.072C36.928 62.7813 37.068 63.2667 37.348 63.528C37.628 63.7893 38.1413 63.92 38.888 63.92H40.204C40.932 63.92 41.436 63.78 41.716 63.5C42.0147 63.22 42.164 62.6973 42.164 61.932V61.596C42.164 61.0547 41.94 60.644 41.492 60.364C41.0627 60.0653 40.5213 59.888 39.868 59.832C39.2147 59.776 38.5053 59.6733 37.74 59.524C36.9933 59.356 36.2933 59.1507 35.64 58.908C34.9867 58.6467 34.436 58.152 33.988 57.424C33.5587 56.6773 33.344 55.7253 33.344 54.568V53.588C33.344 52.132 33.7547 51.0027 34.576 50.2C35.3973 49.3973 36.536 48.996 37.992 48.996H40.792C42.2667 48.996 43.4147 49.3973 44.236 50.2C45.0573 51.0027 45.468 52.132 45.468 53.588V54.12C45.468 54.512 45.272 54.708 44.88 54.708H42.5C42.108 54.708 41.912 54.512 41.912 54.12V53.952C41.912 53.224 41.772 52.7293 41.492 52.468C41.212 52.2067 40.6987 52.076 39.952 52.076H38.86C38.0947 52.076 37.572 52.2253 37.292 52.524C37.0307 52.804 36.9 53.364 36.9 54.204V54.736C36.9 55.6133 37.6653 56.1173 39.196 56.248C40.7827 56.3787 42.192 56.696 43.424 57.2C44.0773 57.48 44.6187 57.984 45.048 58.712C45.496 59.4213 45.72 60.336 45.72 61.456V62.408C45.72 63.864 45.3093 64.9933 44.488 65.796C43.6667 66.5987 42.528 67 41.072 67H38.02C36.564 67 35.4253 66.5987 34.604 65.796C33.7827 64.9933 33.372 63.864 33.372 62.408ZM49.7818 55.8H48.6618C48.4378 55.8 48.2791 55.7627 48.1858 55.688C48.1111 55.6133 48.0738 55.464 48.0738 55.24V53.308C48.0738 52.916 48.2698 52.72 48.6618 52.72H49.7818C49.9871 52.72 50.0898 52.6173 50.0898 52.412V49.752C50.0898 49.36 50.2951 49.164 50.7058 49.164H53.0578C53.4498 49.164 53.6458 49.36 53.6458 49.752V52.412C53.6458 52.6173 53.7578 52.72 53.9818 52.72H56.1658C56.5578 52.72 56.7538 52.916 56.7538 53.308V55.24C56.7538 55.4453 56.7071 55.5947 56.6138 55.688C56.5391 55.7627 56.3898 55.8 56.1658 55.8H53.9818C53.7578 55.8 53.6458 55.9027 53.6458 56.108V62.296C53.6458 62.8747 53.7764 63.2947 54.0378 63.556C54.2991 63.7987 54.7284 63.92 55.3258 63.92H56.4458C56.8378 63.92 57.0338 64.116 57.0338 64.508V66.44C57.0338 66.6453 56.9871 66.7947 56.8938 66.888C56.8191 66.9627 56.6698 67 56.4458 67H54.7378C53.2631 67 52.1151 66.608 51.2938 65.824C50.4911 65.04 50.0898 63.92 50.0898 62.464V56.108C50.0898 55.9027 49.9871 55.8 49.7818 55.8ZM65.3368 67H64.4128C62.9755 67 61.8835 66.608 61.1368 65.824C60.4088 65.04 60.0448 63.9107 60.0448 62.436V53.308C60.0448 52.916 60.2408 52.72 60.6328 52.72H63.0128C63.4048 52.72 63.6008 52.916 63.6008 53.308V62.268C63.6008 62.8653 63.7222 63.2947 63.9648 63.556C64.2262 63.7987 64.6462 63.92 65.2248 63.92H66.2608C67.5488 63.92 68.1928 63.2107 68.1928 61.792V53.308C68.1928 52.916 68.3888 52.72 68.7808 52.72H71.1328C71.5435 52.72 71.7488 52.916 71.7488 53.308V66.412C71.7488 66.804 71.5435 67 71.1328 67H68.7808C68.3888 67 68.1928 66.804 68.1928 66.412V65.488H68.0808C67.8755 65.992 67.5115 66.3747 66.9888 66.636C66.4662 66.8787 65.9155 67 65.3368 67ZM80.9171 67H79.7691C78.3318 67 77.2398 66.608 76.4931 65.824C75.7651 65.04 75.4011 63.9107 75.4011 62.436V57.284C75.4011 55.8093 75.7651 54.68 76.4931 53.896C77.2398 53.112 78.3318 52.72 79.7691 52.72H80.9171C81.4958 52.72 82.0464 52.8507 82.5691 53.112C83.0918 53.3547 83.4558 53.728 83.6611 54.232H83.7731V47.904C83.7731 47.512 83.9691 47.316 84.3611 47.316H86.7411C87.1331 47.316 87.3291 47.512 87.3291 47.904V66.412C87.3291 66.804 87.1331 67 86.7411 67H84.3611C83.9691 67 83.7731 66.804 83.7731 66.412V65.488H83.6611C83.4558 65.992 83.0918 66.3747 82.5691 66.636C82.0464 66.8787 81.4958 67 80.9171 67ZM83.7731 61.792V57.928C83.7731 56.5093 83.1291 55.8 81.8411 55.8H80.5811C79.9838 55.8 79.5638 55.9307 79.3211 56.192C79.0784 56.4347 78.9571 56.8547 78.9571 57.452V62.268C78.9571 62.8653 79.0784 63.2947 79.3211 63.556C79.5638 63.7987 79.9838 63.92 80.5811 63.92H81.8411C83.1291 63.92 83.7731 63.2107 83.7731 61.792ZM91.3994 50.312V47.876C91.3994 47.5027 91.586 47.316 91.9594 47.316H94.3954C94.7687 47.316 94.9554 47.4933 94.9554 47.848V50.312C94.9554 50.6853 94.7687 50.872 94.3954 50.872H91.9594C91.586 50.872 91.3994 50.6853 91.3994 50.312ZM91.3994 66.412V53.308C91.3994 52.916 91.586 52.72 91.9594 52.72H94.3674C94.7594 52.72 94.9554 52.916 94.9554 53.308V66.412C94.9554 66.6547 94.9087 66.8133 94.8154 66.888C94.7407 66.9627 94.6007 67 94.3954 67H91.9874C91.5954 67 91.3994 66.804 91.3994 66.412ZM108.509 48.996H110.861C111.272 48.996 111.477 49.1827 111.477 49.556V62.436C111.477 63.892 111.067 65.0213 110.245 65.824C109.443 66.608 108.313 67 106.857 67H103.777C102.303 67 101.164 66.608 100.361 65.824C99.5587 65.04 99.1573 63.9107 99.1573 62.436V49.584C99.1573 49.192 99.3533 48.996 99.7453 48.996H102.125C102.517 48.996 102.713 49.192 102.713 49.584V62.268C102.713 62.8653 102.835 63.2947 103.077 63.556C103.339 63.7987 103.759 63.92 104.337 63.92H106.269C106.867 63.92 107.287 63.7987 107.529 63.556C107.791 63.2947 107.921 62.8653 107.921 62.268V49.584C107.921 49.192 108.117 48.996 108.509 48.996ZM120.929 67H115.609C115.236 67 115.049 66.804 115.049 66.412V64.62C115.049 64.4147 115.087 64.2747 115.161 64.2C115.236 64.1067 115.385 64.06 115.609 64.06H120.285C121.2 64.06 121.657 63.78 121.657 63.22V63.08C121.657 62.632 121.275 62.2027 120.509 61.792L117.737 60.252C116.785 59.7667 116.085 59.244 115.637 58.684C115.189 58.124 114.965 57.4053 114.965 56.528C114.965 55.2213 115.311 54.26 116.001 53.644C116.692 53.028 117.775 52.72 119.249 52.72H123.925C124.299 52.72 124.485 52.916 124.485 53.308V55.128C124.485 55.3333 124.448 55.4827 124.373 55.576C124.299 55.6507 124.149 55.688 123.925 55.688H120.033C119.119 55.688 118.661 55.9213 118.661 56.388V56.528C118.661 56.9387 119.063 57.3587 119.865 57.788L122.693 59.468C123.664 59.9907 124.345 60.532 124.737 61.092C125.129 61.6333 125.325 62.352 125.325 63.248C125.325 65.7493 123.86 67 120.929 67ZM141.067 63.92H143.055C143.652 63.92 144.072 63.7987 144.315 63.556C144.576 63.2947 144.707 62.8653 144.707 62.268V53.728C144.707 53.1307 144.576 52.7107 144.315 52.468C144.072 52.2067 143.652 52.076 143.055 52.076H141.067C140.47 52.076 140.05 52.2067 139.807 52.468C139.564 52.7107 139.443 53.1307 139.443 53.728V62.268C139.443 62.8653 139.564 63.2947 139.807 63.556C140.05 63.7987 140.47 63.92 141.067 63.92ZM146.191 70.724H144.147C143.643 70.724 143.279 70.528 143.055 70.136L141.235 67H140.479C139.004 67 137.866 66.608 137.063 65.824C136.26 65.04 135.859 63.9107 135.859 62.436V53.56C135.859 52.0853 136.26 50.956 137.063 50.172C137.866 49.388 139.004 48.996 140.479 48.996H143.615C145.09 48.996 146.228 49.388 147.031 50.172C147.834 50.956 148.235 52.0853 148.235 53.56V62.436C148.235 63.668 147.936 64.6667 147.339 65.432C146.76 66.1973 145.93 66.6827 144.847 66.888L146.639 69.996C146.732 70.22 146.732 70.3973 146.639 70.528C146.546 70.6587 146.396 70.724 146.191 70.724ZM157.568 67H156.644C155.207 67 154.115 66.608 153.368 65.824C152.64 65.04 152.276 63.9107 152.276 62.436V53.308C152.276 52.916 152.472 52.72 152.864 52.72H155.244C155.636 52.72 155.832 52.916 155.832 53.308V62.268C155.832 62.8653 155.954 63.2947 156.196 63.556C156.458 63.7987 156.878 63.92 157.456 63.92H158.492C159.78 63.92 160.424 63.2107 160.424 61.792V53.308C160.424 52.916 160.62 52.72 161.012 52.72H163.364C163.775 52.72 163.98 52.916 163.98 53.308V66.412C163.98 66.804 163.775 67 163.364 67H161.012C160.62 67 160.424 66.804 160.424 66.412V65.488H160.312C160.107 65.992 159.743 66.3747 159.22 66.636C158.698 66.8787 158.147 67 157.568 67ZM168.053 50.312V47.876C168.053 47.5027 168.239 47.316 168.613 47.316H171.049C171.422 47.316 171.609 47.4933 171.609 47.848V50.312C171.609 50.6853 171.422 50.872 171.049 50.872H168.613C168.239 50.872 168.053 50.6853 168.053 50.312ZM168.053 66.412V53.308C168.053 52.916 168.239 52.72 168.613 52.72H171.021C171.413 52.72 171.609 52.916 171.609 53.308V66.412C171.609 66.6547 171.562 66.8133 171.469 66.888C171.394 66.9627 171.254 67 171.049 67H168.641C168.249 67 168.053 66.804 168.053 66.412ZM174.999 66.412V65.488C174.999 64.8533 175.176 64.312 175.531 63.864L181.467 55.884V55.772H175.839C175.447 55.772 175.251 55.5667 175.251 55.156V53.308C175.251 52.916 175.447 52.72 175.839 52.72H184.967C185.359 52.72 185.555 52.916 185.555 53.308V54.988C185.555 55.5853 185.405 56.0707 185.107 56.444L179.619 63.836V63.948H185.275C185.667 63.948 185.863 64.1533 185.863 64.564V66.412C185.863 66.804 185.667 67 185.275 67H175.587C175.195 67 174.999 66.804 174.999 66.412Z" fill="#FDFFFD"/>
<defs>
<filter id="filter0_bd_794_5610" x="-57" y="0" width="312" height="134" filterUnits="userSpaceOnUse" color-interpolation-filters="sRGB">
<feFlood flood-opacity="0" result="BackgroundImageFix"/>
<feGaussianBlur in="BackgroundImageFix" stdDeviation="4"/>
<feComposite in2="SourceAlpha" operator="in" result="effect1_backgroundBlur_794_5610"/>
<feColorMatrix in="SourceAlpha" type="matrix" values="0 0 0 0 0 0 0 0 0 0 0 0 0 0 0 0 0 0 127 0" result="hardAlpha"/>
<feOffset dx="4" dy="8"/>
<feGaussianBlur stdDeviation="16"/>
<feComposite in2="hardAlpha" operator="out"/>
<feColorMatrix type="matrix" values="0 0 0 0 0.180392 0 0 0 0 0.219608 0 0 0 0 0.301961 0 0 0 0.35 0"/>
<feBlend mode="normal" in2="effect1_backgroundBlur_794_5610" result="effect2_dropShadow_794_5610"/>
<feBlend mode="normal" in="SourceGraphic" in2="effect2_dropShadow_794_5610" result="shape"/>
</filter>
</defs>
</svg>
