<svg width="399" height="168" viewBox="0 0 399 168" fill="none" xmlns="http://www.w3.org/2000/svg">
<g clip-path="url(#clip0_1549_6740)">
<path d="M13.22 91.8604C35.52 128.02 72.36 155.1 113.7 165.1C120.1 166.65 126.78 167.81 133.26 166.58C139.73 165.35 146.01 161.29 148.27 155.1C148.93 153.28 149.22 151.47 149.23 149.64C100.08 143.37 48.26 126.89 13.23 91.8604H13.22Z" fill="#C8E4F7"/>
<path d="M154.21 35.2404C149.82 32.3504 145.87 35.7704 141.52 36.2604C140.98 36.2604 140.44 36.2604 139.9 36.2904C137.34 36.4004 137.38 40.0304 139.9 40.2404C140.4 40.2804 140.89 40.2804 141.37 40.2404C144.5 40.3004 151.27 40.5804 151.24 41.1304C151.12 43.1004 153.47 43.5304 154.6 42.4404C155.3 44.7004 155.45 47.3204 155.42 49.0104C155.39 51.5504 159.34 51.5504 159.37 49.0104C159.43 44.3804 158.44 38.0204 154.21 35.2304V35.2404Z" fill="#F2C1CE"/>
<path d="M120.31 23.8402C112.07 14.3402 100.04 6.72023 87.05 10.5402C86.32 10.7502 85.91 11.2502 85.75 11.8102C85.66 11.6302 85.54 11.4502 85.37 11.2902C84.1 10.0302 82.5 9.30023 81.33 7.92023C80.24 6.63023 79.21 5.59023 77.61 4.96023C76.37 4.48023 75.5 5.30023 75.29 6.31023C74.83 6.22023 74.28 6.28023 73.89 6.53023C73.63 6.70023 73.4 6.92023 73.23 7.18023C72.82 7.42023 72.44 7.89023 72.33 8.35023C72.21 8.86023 72.24 9.42023 72.53 9.87023C72.79 10.2802 73.21 10.6902 73.71 10.7802C74.25 10.8802 74.68 10.9002 75.22 10.7802C75.38 10.7402 75.52 10.6802 75.68 10.6102C75.86 10.5402 76.01 10.4802 76.16 10.3602C76.57 10.0602 76.95 9.70023 77.07 9.18023C77.07 9.14023 77.08 9.10023 77.09 9.06023C77.86 9.62023 78.44 10.6202 79.04 11.2602C80.08 12.3902 81.51 13.0002 82.59 14.0702C83.78 15.2602 85.4 14.4302 85.84 13.2202C86.17 14.0502 86.99 14.6602 88.1 14.3402C93.86 12.6402 99.33 13.5702 104.27 15.9502C103.93 16.6102 103.96 17.4102 104.71 18.0502C105.88 19.0502 107.02 20.0802 108.12 21.1502C108.8 21.8102 109.94 22.6702 110.63 23.5702C110.45 24.8902 111.96 26.4702 113.63 25.7302C113.76 25.6702 113.89 25.6202 114.01 25.5602C114.58 25.3102 114.97 24.5602 114.99 23.8802C115.87 24.7702 116.72 25.6802 117.52 26.6102C119.19 28.5302 121.97 25.7302 120.31 23.8202V23.8402Z" fill="#F2C1CE"/>
<path d="M74.6499 19.7605C71.0099 20.3405 66.5199 20.3605 63.1999 22.0905C60.3499 23.5705 57.6599 25.3505 56.6899 28.5005C55.9399 30.9305 59.7499 31.9705 60.4999 29.5505C60.8899 28.3005 62.2299 27.1505 63.7199 26.3005C63.7199 26.3305 63.7199 26.3605 63.7299 26.3805C64.0299 27.4805 65.1099 27.9505 66.1599 27.7605C66.5899 27.6805 67.0199 27.6205 67.4599 27.5805C67.7899 27.6705 68.1499 27.6805 68.5099 27.6205C68.8799 27.5505 69.2399 27.4905 69.6099 27.4205C70.5599 27.2505 71.1599 26.1405 71.0199 25.2505C70.9699 24.9105 70.8299 24.6005 70.6299 24.3305C72.3199 24.0705 74.0199 23.8305 75.6999 23.5705C78.1999 23.1705 77.1399 19.3705 74.6499 19.7605Z" fill="#F2C1CE"/>
<path d="M53.6399 31.99C48.6799 31.32 43.2099 31.5 39.4599 35.29C35.9999 38.79 33.4799 44.59 32.9899 49.44C32.7299 51.96 36.6799 51.95 36.9399 49.44C37.3099 45.81 39.3799 41.79 41.5799 38.9C44.1799 35.49 48.6599 35.27 52.5899 35.8C55.0699 36.14 56.1499 32.33 53.6399 31.99Z" fill="#F2C1CE"/>
<path d="M64.2099 42.7903C61.4899 44.5103 56.8499 44.1503 53.7599 43.8103C50.1399 43.4103 46.7899 42.1703 43.8099 40.0603C41.8699 38.6903 40.0299 41.5703 41.4599 43.1503C39.5499 44.4503 37.5799 47.5603 39.5799 49.5503C40.6299 50.6003 42.2299 50.4503 43.5999 50.4603C45.4899 50.4803 47.3699 50.4603 49.2599 50.3803C50.7099 50.3303 51.7399 48.4603 51.0199 47.3303C51.9199 47.5103 52.8399 47.6603 53.7699 47.7503C55.8299 47.9603 58.2699 48.1103 60.6099 47.8803C60.8399 48.5903 61.4299 49.1803 62.4099 49.1803C63.7199 49.1803 64.3499 48.1203 64.3099 47.1003C64.9899 46.8603 65.6299 46.5603 66.2099 46.1903C68.3499 44.8303 66.3699 41.4203 64.2199 42.7803L64.2099 42.7903Z" fill="#F2C1CE"/>
<path d="M136.78 57.9199C133.41 54.9699 129.5 53.0799 125.33 51.5299C120.99 49.9199 116.5 48.2099 111.81 48.2599C109.27 48.2799 109.26 52.2299 111.81 52.2099C113.74 52.1899 115.63 52.5299 117.48 53.0399C116.55 54.0199 116.58 55.9299 118.28 56.3299L119.63 56.6499C121.05 58.3499 123.42 58.9299 125.52 59.5499C128.74 60.4999 132.04 61.0199 135.38 61.2899C137.06 61.4199 138.03 59.0199 136.78 57.9199Z" fill="#F2C1CE"/>
<path d="M176.43 29.4701C175.46 16.2601 165.7 9.33006 153.21 7.97006C137.03 6.21006 123.12 13.7301 108.9 20.0401C89.21 28.7901 67.56 33.1501 46.01 32.2001C31.53 31.5701 14.39 29.6801 5.11 40.8101C-3.81 51.5001 0.42 67.7201 6.68 80.1601C8.69 84.1501 10.87 88.0501 13.22 91.8501C48.25 126.88 100.07 143.36 149.22 149.63C149.26 141.38 143.51 133.11 139.94 125.12C132.1 107.56 135.34 85.6001 147.9 71.0501C158.95 58.2501 177.87 49.0301 176.43 29.4501V29.4701Z" fill="#C8ECF7"/>
<path d="M184.56 45.1797C192.09 50.3997 195.36 56.8397 188.41 66.1697C188.43 66.7897 188.42 67.4297 188.41 68.0897C190.14 73.6997 188.79 77.1797 183.2 77.7497C182.81 88.8797 173.92 92.1797 156.52 87.6097L155.54 87.5897C154.95 90.9297 152.22 94.3297 146.44 97.7897C144.04 97.9897 141.78 98.0497 139.66 97.9897V98.0097C132.15 102.11 123.12 101.56 112.18 95.1897C110.29 94.0897 108.33 92.8197 106.33 91.3597C105.11 91.1697 103.91 90.9797 102.72 90.7697C95.5601 89.5397 88.9701 87.9497 83.6001 85.5997C71.7501 87.0397 60.6401 86.0597 50.8401 80.7397C48.9801 81.0897 47.2501 81.2697 45.6601 81.2797C38.4901 81.3097 33.9601 77.9397 31.8501 71.4297C26.4901 65.1497 27.9401 57.2997 33.1301 53.1097L32.8201 52.7097C30.9101 46.9397 32.3901 42.3997 36.6601 38.8897C39.1001 31.3397 43.7901 27.8397 49.8801 26.8497C47.9401 19.6897 58.7901 12.6797 64.8901 15.4097C71.7601 1.81974 96.4001 -1.83026 113.08 5.15974L113.3 4.61974C126.02 2.53974 137.67 4.76974 147.47 14.5497C154.37 13.2197 166.38 17.3797 174.95 29.8497C181.45 32.3397 185.28 37.1197 185.34 45.1397L184.56 45.1997V45.1797Z" fill="#F9D2DF"/>
<path d="M112.16 95.1998L111.93 95.5898C110.17 99.7698 106.26 103.09 99.4301 105.23L81.5801 123.79C77.2001 129.84 69.7401 127.37 72.7001 122.2C76.6801 117.78 80.0801 111.46 78.7801 109.05L78.8001 108.78C86.6301 109.45 91.7401 106.11 94.4701 99.2598C99.5801 96.9498 102.01 94.0498 102.69 90.7598C103.88 90.9698 105.09 91.1698 106.3 91.3498C108.31 92.7998 110.26 94.0798 112.15 95.1798L112.16 95.1998Z" fill="#F2C1CE"/>
<path d="M102.7 90.78C102.02 94.07 99.5901 96.97 94.4801 99.28C91.7401 106.13 86.6401 109.46 78.8101 108.8C75.9001 108.55 72.6101 107.75 68.9201 106.36C52.4801 104.9 43.3101 97.77 45.6501 81.68V81.29C47.2301 81.29 48.9701 81.1 50.8201 80.75C60.6201 86.07 71.7301 87.05 83.5801 85.61C88.9501 87.96 95.5501 89.54 102.7 90.78Z" fill="#F2C1CE"/>
<path d="M147.38 14.5602C154.28 13.2302 166.29 17.3902 174.86 29.8602C181.36 32.3602 185.19 37.1402 185.25 45.1502L184.47 45.2002C192 50.4302 195.27 56.8602 188.32 66.2102C188.34 66.8302 188.33 67.4702 188.32 68.1302C190.05 73.7302 188.7 77.2202 183.11 77.7802C182.72 88.9102 173.83 92.2102 156.43 87.6502L155.45 87.6302C154.86 90.9702 152.13 94.3602 146.35 97.8302C143.95 98.0202 141.69 98.0902 139.57 98.0302V98.0602C132.07 102.16 123.03 101.6 112.09 95.2402C110.2 94.1402 108.24 92.8702 106.24 91.4102C105.02 91.2202 103.82 91.0202 102.63 90.8102C95.4799 89.5802 88.8799 87.9902 83.5099 85.6402C71.6599 87.0802 60.5399 86.1002 50.7499 80.7802C48.8899 81.1302 47.1699 81.3002 45.5799 81.3102C38.4099 81.3402 33.8799 77.9702 31.7599 71.4602C26.3999 65.1802 27.8499 57.3302 33.0299 53.1402L32.7299 52.7502C30.8199 46.9802 32.2999 42.4402 36.5699 38.9202C39.0099 31.3702 43.6999 27.8702 49.7899 26.8902C47.8499 19.7202 58.6999 12.7202 64.7999 15.4502C71.6699 1.85023 96.3099 -1.80977 112.99 5.18023L113.21 4.64023C125.93 2.56023 137.58 4.79023 147.38 14.5602Z" fill="#F9D2DF"/>
<path d="M112.07 95.23L111.84 95.62C110.08 99.8 106.18 103.12 99.34 105.26L81.49 123.82C77.11 129.87 69.65 127.4 72.61 122.23C76.59 117.81 79.99 111.49 78.69 109.08L78.71 108.81C86.54 109.48 91.65 106.14 94.39 99.29C99.5 96.98 101.93 94.08 102.61 90.79C103.8 91 105.01 91.2 106.22 91.39C108.23 92.84 110.18 94.12 112.07 95.22V95.23Z" fill="#F2C1CE"/>
<path d="M102.6 90.81C101.92 94.1 99.4899 97 94.3799 99.31C91.6399 106.16 86.5299 109.5 78.6999 108.83C75.7899 108.58 72.4999 107.78 68.8099 106.39C52.3699 104.93 43.2099 97.8 45.5399 81.71V81.32C47.1299 81.32 48.8499 81.14 50.7099 80.79C60.5099 86.11 71.6199 87.08 83.4699 85.65C88.8399 88 95.4399 89.58 102.59 90.82L102.6 90.81Z" fill="#F2C1CE"/>
<path d="M153.32 84.8104C153.51 84.5504 153.71 84.2904 153.9 84.0304C155.36 81.9404 151.94 79.9704 150.49 82.0404C146.09 88.3504 139.02 92.3204 131.36 92.8604C131.33 92.8604 131.31 92.8404 131.28 92.8404C129.22 92.4704 127.43 91.6604 125.66 90.5404C124.82 90.0104 120.69 87.7004 121.41 86.5004C121.99 85.5404 121.65 84.6104 120.98 84.0704C120.71 83.4704 120.14 83.0204 119.26 83.0504C116.06 83.1904 112.91 82.9104 109.82 82.0304C107.39 81.3404 103.62 80.3004 102.74 77.6204C101.94 75.2204 98.13 76.2504 98.93 78.6704C99.63 80.7704 101.06 82.3704 102.9 83.5904C102.67 83.5204 102.43 83.4504 102.2 83.3804C102.04 83.3304 101.88 83.2904 101.72 83.2404C101.64 83.1304 101.55 83.0304 101.46 82.9304C100.14 81.5104 98.36 80.4704 96.48 80.0004C95.17 79.6704 93.7 80.1104 92.78 81.0704C90.41 80.6504 88.02 80.3704 85.6 80.2804C85.2 79.1104 84.18 78.2104 82.54 78.3204C82.37 78.3304 82.2 78.3404 82.04 78.3504C81.91 78.2504 81.78 78.1604 81.63 78.0804C81.34 77.9604 81.05 77.8304 80.75 77.7104C80.1 77.5404 79.46 77.5404 78.81 77.7104C78.69 77.3404 78.52 76.9804 78.29 76.6704C78.35 76.2904 78.29 75.8804 78.08 75.4504C76.65 72.6404 73.76 71.8804 71.2 70.4204C69.35 69.3704 67.6 68.1204 65.82 66.9704C65.49 66.7604 64.81 66.4004 64.05 65.9704C63.1 65.0104 62.2 64.0004 61.37 62.9204C61.16 62.6504 60.92 62.4604 60.66 62.3304C59.58 61.1104 57.08 61.5104 57.2 63.5404C57.25 64.4804 57.56 65.2904 58.03 66.0004C57.32 66.3904 56.81 67.1604 57.01 68.1704C57.28 69.5204 57.91 70.6504 58.76 71.5904C58.54 71.6104 58.32 71.6304 58.09 71.6704C58.06 71.6704 58.04 71.6704 58.01 71.6804C57.37 70.3604 55.85 69.5104 54.1 69.8104C53.74 69.8704 53.38 69.9504 53.03 70.0304C53.29 68.7704 52.28 67.1804 50.62 67.5804C46.94 68.4604 43.11 68.0504 39.42 67.4404C35.62 66.8204 33.69 64.4704 32.37 60.9904C31.48 58.6404 27.66 59.6604 28.56 62.0404C29.28 63.9404 30.2 65.8004 31.45 67.3404C30.99 68.0504 30.87 69.0204 31.52 69.8504C34.18 73.2404 36.94 78.6504 41.24 80.0704C44.94 81.2904 49.06 81.8104 53.07 82.2104C53.78 83.0504 54.94 83.5704 56.44 83.3104C57.73 83.0904 59.01 82.8304 60.29 82.5604C59.78 86.2104 64.3 88.2904 66.49 85.0304C66.49 85.0204 66.51 85.0104 66.52 84.9904C69.82 85.2504 73.12 85.3504 76.43 85.3104C76.75 85.5704 77.12 85.7504 77.53 85.8504C78.18 86.0004 78.89 86.0204 79.54 85.8404C80.13 86.0204 80.72 86.1804 81.32 86.3404C81.91 87.0604 82.8 87.5604 84.02 87.5604C89.6 87.5704 94.94 88.8304 100.25 90.4504C105.32 92.0004 110.69 93.4404 115.18 96.3304C116.18 96.9704 117.16 97.0504 118.01 96.7704C118.33 97.3904 118.9 97.8904 119.61 98.1604C121.99 99.0704 124.41 99.9004 126.85 100.65C127.25 100.77 127.62 100.8 127.95 100.75C128.35 101.14 128.91 101.4 129.64 101.4C132.27 101.4 132.78 98.1004 131.17 96.8204C131.17 96.8204 131.17 96.8204 131.18 96.8204C133.16 96.7004 135.08 96.3704 136.95 95.8804C137.08 96.7304 137.7 97.4504 138.82 97.3604C145.34 96.8304 151.05 93.2904 154.24 87.5504C154.89 86.3704 154.24 85.2704 153.31 84.8104H153.32ZM112.25 86.6804C114.03 86.9204 115.77 87.0204 117.34 87.0304C117.41 88.0104 117.85 88.9304 118.49 89.7504C116.53 88.5304 114.42 87.5404 112.25 86.6804ZM120.98 93.2604C120.85 93.2104 120.72 93.1804 120.59 93.1604C120.61 92.6004 120.51 92.0404 120.26 91.5104C120.38 91.6104 120.5 91.7004 120.62 91.7904C122.02 92.8504 123.46 93.8604 124.99 94.7004C123.64 94.2404 122.3 93.7704 120.97 93.2604H120.98Z" fill="#F2C1CE"/>
<path d="M185.36 70.5704C181.22 73.1504 177.41 76.4404 172.62 77.7504C167.62 79.1104 162.32 78.6804 157.22 78.3404C153.77 78.1104 153.62 83.2204 156.74 83.9104C156.49 85.4604 157.38 87.2904 159.41 87.3904C163.62 87.6004 167.9 87.8204 172.12 87.6604C175.16 87.5504 178.06 86.8704 180.22 84.6104C181.48 83.2904 181.1 81.6304 180.1 80.6304C182.87 79.0604 185.47 77.1504 188.2 75.4404C191.27 73.5204 188.44 68.6404 185.35 70.5704H185.36Z" fill="#F2C1CE"/>
<path d="M137.16 78.2997C132.26 72.6497 122.62 67.2797 115.04 70.4397C110.88 63.6097 103.53 59.4497 95.52 59.4297C92.98 59.4297 92.98 63.3697 95.52 63.3797C102.16 63.3897 108.23 66.7997 111.67 72.4897C112.03 73.0797 112.54 73.3597 113.07 73.4097C113.5 74.3897 114.63 75.0897 115.84 74.4197C121.92 71.0297 130.47 76.5997 134.37 81.0897C136.04 83.0097 138.82 80.2097 137.16 78.2997Z" fill="#F2C1CE"/>
<path d="M58.59 61.9697C58.2 64.4397 57.24 66.2697 55.7 67.4397C54.16 68.6097 52.05 69.1397 49.37 69.0197" stroke="#E1A5B9" stroke-width="3.38" stroke-linecap="round" stroke-linejoin="round"/>
<path d="M150.56 76.3402C157.2 83.3002 158.81 90.3802 146.43 97.8102C132.17 98.9602 122.82 95.5702 117.66 88.3002C110.69 88.3702 104.34 85.3902 98.7901 78.4402C90.7501 80.5802 83.0701 79.4002 75.8601 73.5802C67.1301 76.4702 60.1801 75.0102 55.7001 67.4502" stroke="#E1A5B9" stroke-width="3.38" stroke-linecap="round" stroke-linejoin="round"/>
<path d="M127.17 53.9697C124.57 55.0797 123.74 57.6297 124.6 61.5597C135.85 60.7997 146.01 62.1597 150.19 75.0697" stroke="#E1A5B9" stroke-width="3.38" stroke-linecap="round" stroke-linejoin="round"/>
<path d="M88.39 38.6602C91.66 45.0702 90.86 50.0002 84.42 52.8602" stroke="#E1A5B9" stroke-width="3.38" stroke-linecap="round" stroke-linejoin="round"/>
<path d="M124.6 61.5702C114.91 51.1602 103.35 46.4702 89.9401 47.4902" stroke="#E1A5B9" stroke-width="3.38" stroke-linecap="round" stroke-linejoin="round"/>
<path d="M139.64 98.0296C130.84 102.84 119.93 101.24 106.3 91.3796C97.76 90.0596 89.83 88.3596 83.57 85.6196C71.72 87.0596 60.6 86.0796 50.81 80.7596C40.6 82.6796 34.41 79.3896 31.82 71.4396C22.81 60.8796 33.04 45.9196 47.91 51.2596C60.49 43.0496 75.45 54.6896 72.6 63.1396" stroke="#E1A5B9" stroke-width="3.38" stroke-linecap="round" stroke-linejoin="round"/>
<path d="M102.75 90.5297C102.14 93.9197 99.7201 96.9097 94.4801 99.2797C90.7301 108.68 82.5001 111.47 68.9201 106.36C52.4801 104.9 43.3101 97.7697 45.6501 81.6797" stroke="#E1A5B9" stroke-width="3.38" stroke-linecap="round" stroke-linejoin="round"/>
<path d="M78.7801 109.07C80.0801 111.48 76.6801 117.79 72.7001 122.21C69.7401 127.38 77.2001 129.85 81.5801 123.8L99.4301 105.24C106.27 103.1 110.18 99.7796 111.93 95.5996" stroke="#E1A5B9" stroke-width="3.38" stroke-linecap="round" stroke-linejoin="round"/>
<path d="M133.15 83.0401C129.23 74.2401 124.08 72.7601 112.58 74.2001C108.96 67.6101 99.95 62.3101 91.54 61.5801" stroke="#E1A5B9" stroke-width="3.38" stroke-linecap="round" stroke-linejoin="round"/>
<path d="M140.65 80.3896C135.65 80.5796 132.97 83.2797 132.7 88.5797" stroke="#E1A5B9" stroke-width="3.38" stroke-linecap="round" stroke-linejoin="round"/>
<path d="M172.01 46.3896C181.64 48.7596 188.79 54.0296 188.41 68.0996C190.14 73.6996 188.79 77.1897 183.2 77.7597C182.8 88.8897 173.92 92.1896 156.52 87.6296" stroke="#E1A5B9" stroke-width="3.38" stroke-linecap="round" stroke-linejoin="round"/>
<path d="M181.82 43.4404C191.21 48.9804 196.15 55.7804 188.4 66.1904" stroke="#E1A5B9" stroke-width="3.38" stroke-linecap="round" stroke-linejoin="round"/>
<path d="M185.34 45.1302C185.28 37.1202 181.45 32.3402 174.95 29.8402C159.86 7.89022 134.11 11.7102 144.36 25.8202" stroke="#E1A5B9" stroke-width="3.38" stroke-linecap="round" stroke-linejoin="round"/>
<path d="M136.44 32.9404C138.96 38.0404 136.54 41.6404 127.82 43.3204" stroke="#E1A5B9" stroke-width="3.38" stroke-linecap="round" stroke-linejoin="round"/>
<path d="M158.14 53.1499C155.12 41.5999 147.29 39.1899 137.88 39.7699" stroke="#E1A5B9" stroke-width="3.38" stroke-linecap="round" stroke-linejoin="round"/>
<path d="M172.21 38.25C173.78 43.91 172.61 47.5 168.93 49.19" stroke="#E1A5B9" stroke-width="3.38" stroke-linecap="round" stroke-linejoin="round"/>
<path d="M162.11 61.6602C164.41 67.1302 169.08 69.2102 176.21 67.7702" stroke="#E1A5B9" stroke-width="3.38" stroke-linecap="round" stroke-linejoin="round"/>
<path d="M151.78 77.3698C158.87 78.6398 164.26 75.3998 167.89 67.5098" stroke="#E1A5B9" stroke-width="3.38" stroke-linecap="round" stroke-linejoin="round"/>
<path d="M119.32 25.9102C112.46 25.7402 108.17 28.7202 107.27 35.8502" stroke="#E1A5B9" stroke-width="3.38" stroke-linecap="round" stroke-linejoin="round"/>
<path d="M89.15 18.3905C81.36 9.42049 73.27 8.38049 64.86 15.4205C58.77 12.6905 47.91 19.7005 49.86 26.8605C43.77 27.8405 39.08 31.3505 36.64 38.9005C32.36 42.4105 30.89 46.9505 32.8 52.7205" stroke="#E1A5B9" stroke-width="3.38" stroke-linecap="round" stroke-linejoin="round"/>
<path d="M110.78 27.4801C103.65 14.6401 94.81 11.6801 85 14.3801" stroke="#E1A5B9" stroke-width="3.38" stroke-linecap="round" stroke-linejoin="round"/>
<path d="M77.2 21.8203C70.78 21.9003 68.79 27.9003 73.55 32.9703" stroke="#E1A5B9" stroke-width="3.38" stroke-linecap="round" stroke-linejoin="round"/>
<path d="M70.3001 41.3398C66.1901 43.7798 64.5501 46.9098 65.9801 50.9098" stroke="#E1A5B9" stroke-width="3.38" stroke-linecap="round" stroke-linejoin="round"/>
<path d="M37.2201 50.2896C37.5801 39.5596 44.4001 35.5796 54.4201 34.9696C57.9001 28.0996 62.8601 25.5696 69.8901 29.0696" stroke="#E1A5B9" stroke-width="3.38" stroke-linecap="round" stroke-linejoin="round"/>
<path d="M125.29 14.4C112.88 -3.13 73.84 -2.27999 64.87 15.42" stroke="#E1A5B9" stroke-width="3.38" stroke-linecap="round" stroke-linejoin="round"/>
<path d="M147.66 14.7198C137.82 4.78981 126.1 2.51981 113.3 4.61981" stroke="#E1A5B9" stroke-width="3.38" stroke-linecap="round" stroke-linejoin="round"/>
<path opacity="0.52" d="M81.56 87.5399C92.2246 87.5399 100.87 78.8945 100.87 68.2299C100.87 57.5653 92.2246 48.9199 81.56 48.9199C70.8954 48.9199 62.25 57.5653 62.25 68.2299C62.25 78.8945 70.8954 87.5399 81.56 87.5399Z" fill="#67617D"/>
<path d="M80.58 43.52C66.99 44.15 56.44 55.73 57.07 69.32C57.32 74.79 59.35 79.76 62.56 83.71L20.42 129.96C19.5 130.97 19.58 132.54 20.58 133.45L22.28 135C23.29 135.92 24.86 135.84 25.77 134.84L67.9 88.61C72.16 91.5 77.35 93.08 82.87 92.83C96.46 92.2 107.01 80.62 106.38 67.03C105.75 53.44 94.17 42.89 80.58 43.52ZM82.58 86.65C72.37 87.12 63.72 79.23 63.24 69.03C62.77 58.82 70.66 50.17 80.86 49.69C91.07 49.22 99.72 57.11 100.2 67.31C100.67 77.52 92.78 86.17 82.58 86.65Z" fill="#67617D"/>
<path d="M52.5827 108.689C54.7514 106.309 54.5817 102.623 52.2038 100.457C49.8259 98.2897 46.1402 98.4625 43.9715 100.843L21.0581 125.989C18.8894 128.369 19.0591 132.055 21.437 134.221C23.8149 136.388 27.5007 136.215 29.6693 133.835L52.5827 108.689Z" fill="#696969"/>
<path opacity="0.52" d="M90.8701 55.0702C89.3801 54.0102 87.1001 54.8102 86.2401 56.2802C85.2501 57.9802 85.9601 59.8402 87.4501 60.9102C89.1301 62.1102 90.1101 64.1202 90.1901 66.1502C90.3701 70.4902 97.1401 70.5102 96.9601 66.1502C96.7701 61.5802 94.5701 57.7102 90.8701 55.0602V55.0702Z" fill="#F2F2F2"/>
</g>
<defs>
<clipPath id="clip0_1549_6740">
<rect width="398.9" height="167.1" fill="white"/>
</clipPath>
</defs>
</svg>
