<svg width="432" height="199" viewBox="0 0 432 199" fill="none" xmlns="http://www.w3.org/2000/svg">
<g clip-path="url(#clip0_1549_6565)">
<path d="M404.17 40.4298C416.22 21.2798 366.42 4.3898 338.83 1.0198C311.25 -2.3502 283.51 3.1798 257.16 10.0898C240.37 14.4898 221.35 21.7798 218.24 36.4498C215.85 47.7398 224.42 59.0098 234.97 66.5098C245.52 74.0098 258.21 79.0598 268.85 86.4698C275.28 90.9498 281.04 96.7698 284.15 103.19C318.18 97.7798 352.45 94.3098 386.91 93.0098C386.3 74.3998 391.92 55.7398 404.18 40.4398L404.17 40.4298Z" fill="#C8ECF7"/>
<path d="M423.65 147.89C404.23 137.95 405.14 146.89 389.74 112.11C388.06 105.84 387.11 99.42 386.89 93C352.43 94.3 318.16 97.76 284.13 103.18C286.17 107.37 287.07 111.82 286.29 116.31C284.04 129.15 269.52 137.11 257.3 144.8C245.08 152.49 232.93 164.6 237.89 177.04C242 187.34 255.87 192.24 268.37 194.71C317.45 204.42 370.43 195.91 411.57 172.64C424.7 165.22 442.32 157.45 423.65 147.9V147.89Z" fill="#C8E4F7"/>
<path d="M385.93 40.6997H254.16C247.533 40.6997 242.16 46.0723 242.16 52.6997V144.13C242.16 150.757 247.533 156.13 254.16 156.13H385.93C392.557 156.13 397.93 150.757 397.93 144.13V52.6997C397.93 46.0723 392.557 40.6997 385.93 40.6997Z" fill="#252C30"/>
<path d="M369.97 117.59C379.7 98.8695 384.95 79.5895 390.33 60.1695V50.2896C390.33 49.1896 389.43 48.2896 388.33 48.2896H251.76C250.66 48.2896 249.76 49.1896 249.76 50.2896V146.53C249.76 147.63 250.66 148.53 251.76 148.53H335.3C349.15 141.38 361.79 132.31 369.97 117.59Z" fill="#669D60"/>
<path d="M369.97 117.59C361.79 132.31 349.16 141.38 335.3 148.53H388.33C389.43 148.53 390.33 147.63 390.33 146.53V60.1699C384.95 79.5899 379.7 98.8699 369.97 117.59Z" fill="#4F8551"/>
<path d="M332.91 77.6699C334.37 77.6699 335.83 77.6699 337.29 77.6699" stroke="white" stroke-width="1.14" stroke-linecap="round" stroke-linejoin="round"/>
<path d="M327.11 104.64H331.49" stroke="white" stroke-width="1.14" stroke-linecap="round" stroke-linejoin="round"/>
<path d="M327.11 106.66H331.49" stroke="white" stroke-width="1.14" stroke-linecap="round" stroke-linejoin="round"/>
<path d="M303.73 65.2299C303.4 64.9999 302.92 65.0099 302.59 65.2499C302.26 65.4899 302.11 65.9399 302.23 66.3299C302.8 66.5499 303.5 66.0299 303.46 65.4199C303.73 66.1199 304 66.8199 304.27 67.5199" stroke="white" stroke-width="1.14" stroke-linecap="round" stroke-linejoin="round"/>
<path d="M288.64 79.1701C295.58 79.0601 302.53 78.9501 309.47 78.8301" stroke="white" stroke-width="1.14" stroke-linecap="round" stroke-linejoin="round"/>
<path d="M300.54 82.1001L301.16 86.3701C301.59 85.7401 302.02 85.1001 302.46 84.4701C302.73 84.7301 303 85.0001 303.15 85.3501C303.3 85.7001 303.27 86.1401 303 86.4001C302.65 86.7301 301.97 86.5301 301.85 86.0701" stroke="white" stroke-width="1.14" stroke-linecap="round" stroke-linejoin="round"/>
<path d="M312.7 76.2598H317.08" stroke="white" stroke-width="1.14" stroke-linecap="round" stroke-linejoin="round"/>
<path d="M312.49 79.4899L316.69 79.3599" stroke="white" stroke-width="1.14" stroke-linecap="round" stroke-linejoin="round"/>
<path d="M332.99 80.2501L337.19 80.1201" stroke="white" stroke-width="1.14" stroke-linecap="round" stroke-linejoin="round"/>
<path d="M324.79 76.64C324.21 75.94 323.22 75.65 322.32 75.81C321.42 75.97 320.63 76.53 320.07 77.25C319.43 78.08 319.07 79.15 319.26 80.18C319.45 81.21 320.25 82.14 321.28 82.33C322.49 82.55 323.71 81.73 324.33 80.66C324.95 79.59 325.1 78.32 325.24 77.1C326.21 78.96 327.5 80.66 329.04 82.1" stroke="white" stroke-width="1.14" stroke-linecap="round" stroke-linejoin="round"/>
<path d="M296.3 67.5599C295.72 66.8599 294.73 66.5699 293.83 66.7299C292.93 66.8899 292.14 67.4499 291.58 68.1699C290.94 68.9999 290.58 70.0699 290.77 71.0999C290.96 72.1299 291.76 73.0599 292.79 73.2499C294 73.4699 295.22 72.6499 295.84 71.5799C296.46 70.5099 296.61 69.2399 296.75 68.0199C297.72 69.8799 299.01 71.5799 300.55 73.0199" stroke="white" stroke-width="1.14" stroke-linecap="round" stroke-linejoin="round"/>
<path d="M296.3 86.9901C295.72 86.2901 294.73 86.0001 293.83 86.1601C292.93 86.3201 292.14 86.8801 291.58 87.6001C290.94 88.4301 290.58 89.5001 290.77 90.5301C290.96 91.5601 291.76 92.4901 292.79 92.6801C294 92.9001 295.22 92.0801 295.84 91.0101C296.46 89.9401 296.61 88.6701 296.75 87.4501C297.72 89.3101 299.01 91.0101 300.55 92.4501" stroke="white" stroke-width="1.14" stroke-linecap="round" stroke-linejoin="round"/>
<path d="M345.49 75.9901C344.91 75.2901 343.92 75.0001 343.02 75.1601C342.12 75.3201 341.33 75.8801 340.77 76.6001C340.13 77.4301 339.77 78.5001 339.96 79.5301C340.15 80.5601 340.95 81.4901 341.98 81.6801C343.19 81.9001 344.41 81.0801 345.03 80.0101C345.65 78.9401 345.8 77.6701 345.94 76.4501C346.91 78.3101 348.2 80.0101 349.74 81.4501" stroke="white" stroke-width="1.14" stroke-linecap="round" stroke-linejoin="round"/>
<path d="M326.57 72.0898C326.72 73.3598 326.86 74.6298 327.01 75.8998C327.07 75.5698 327.14 75.2498 327.2 74.9198C327.63 74.9198 328.05 75.1198 328.32 75.4498C328.2 76.0498 327.29 76.2798 326.9 75.8098" stroke="white" stroke-width="1.14" stroke-linecap="round" stroke-linejoin="round"/>
<path d="M330.65 74.5997C330.48 74.5397 330.27 74.7197 330.32 74.8997C330.42 74.8397 330.53 74.7697 330.63 74.7097C330.57 74.6697 330.51 74.6297 330.46 74.5997" stroke="white" stroke-width="0.73" stroke-linecap="round" stroke-linejoin="round"/>
<path d="M333.22 72.68C333.31 72.44 333.58 72.28 333.83 72.3C334.08 72.32 334.31 72.53 334.36 72.79C334.42 73.1 334.21 73.41 333.94 73.58C333.67 73.75 333.35 73.8 333.03 73.85C333.35 74 333.56 74.35 333.56 74.71C333.56 75.07 333.32 75.4 332.99 75.54" stroke="white" stroke-width="1.14" stroke-linecap="round" stroke-linejoin="round"/>
<path d="M350.65 72.0497C350.74 71.8097 351.01 71.6497 351.26 71.6697C351.51 71.6897 351.74 71.8997 351.79 72.1597C351.85 72.4697 351.64 72.7797 351.37 72.9497C351.1 73.1197 350.78 73.1697 350.46 73.2197C350.78 73.3697 350.99 73.7197 350.99 74.0797C350.99 74.4397 350.75 74.7697 350.42 74.9097" stroke="white" stroke-width="1.14" stroke-linecap="round" stroke-linejoin="round"/>
<path d="M286.97 135.47C295.945 135.47 303.22 128.194 303.22 119.22C303.22 110.245 295.945 102.97 286.97 102.97C277.995 102.97 270.72 110.245 270.72 119.22C270.72 128.194 277.995 135.47 286.97 135.47Z" stroke="white" stroke-width="1.31" stroke-linecap="round" stroke-linejoin="round"/>
<path d="M286.97 118.21V103.3" stroke="white" stroke-width="1.4" stroke-miterlimit="10"/>
<path d="M288.04 119.22H303.15" stroke="white" stroke-width="1.33" stroke-miterlimit="10"/>
<path d="M286.97 120.67C287.771 120.67 288.42 120.021 288.42 119.22C288.42 118.419 287.771 117.77 286.97 117.77C286.169 117.77 285.52 118.419 285.52 119.22C285.52 120.021 286.169 120.67 286.97 120.67Z" fill="white"/>
<path d="M291.24 103.53L287.47 104.76L293.07 104.15C293.07 104.15 287.33 106.16 288.04 105.94C288.75 105.72 294.37 104.74 294.37 104.74L288.04 107.97L294.87 105.75L287.47 109.74L296.16 107.11L288.04 110.75L298.51 107.77L288.04 112.16L299.05 109.26L287.46 114.09L299.8 110.75L288.04 115.37L300.54 111.83L287.47 116.76L301.09 112.9L288.04 117.76L301.09 114.08L290.72 118.2L301.88 115.26L294.67 118.2L301.88 116.33L298.41 118.2L301.88 117.3L300.54 118.59L302.59 118.2" stroke="white" stroke-width="0.38" stroke-linecap="round" stroke-linejoin="round"/>
<path d="M312.29 106.46C310.72 105.97 309.33 104.93 308.41 103.56" stroke="white" stroke-width="1.14" stroke-linecap="round" stroke-linejoin="round"/>
<path d="M308.16 106.99C310.26 106.22 311.96 104.43 312.62 102.29" stroke="white" stroke-width="1.14" stroke-linecap="round" stroke-linejoin="round"/>
<path d="M316.09 103.54L315.69 106.23" stroke="white" stroke-width="1.14" stroke-linecap="round" stroke-linejoin="round"/>
<path d="M317.25 104.98L314.54 104.79" stroke="white" stroke-width="1.14" stroke-linecap="round" stroke-linejoin="round"/>
<path d="M324.8 103.37C322.9 105.76 321 108.15 319.1 110.54" stroke="white" stroke-width="1.14" stroke-linecap="round" stroke-linejoin="round"/>
<path d="M320 102.95L321.57 106.38" stroke="white" stroke-width="1.14" stroke-linecap="round" stroke-linejoin="round"/>
<path d="M335.83 107.97C335.75 107.89 335.61 107.87 335.51 107.92C335.41 107.97 335.34 108.09 335.35 108.2C335.45 108.22 335.55 108.24 335.64 108.21C335.73 108.18 335.82 108.09 335.8 107.99C335.78 107.89 335.63 107.85 335.58 107.94" stroke="white" stroke-width="1.14" stroke-linecap="round" stroke-linejoin="round"/>
<path d="M332.85 100.16C334.13 99.6296 335.51 99.3396 336.9 99.3296C337.41 99.3296 337.95 99.3596 338.4 99.5996C338.85 99.8396 339.21 100.34 339.14 100.85C339.08 101.31 338.7 101.66 338.28 101.86C337.86 102.06 337.4 102.13 336.96 102.25C336.52 102.37 336.07 102.59 335.81 102.97C335.6 103.28 335.54 103.67 335.49 104.04C335.42 104.55 335.35 105.05 335.27 105.56" stroke="white" stroke-width="1.14" stroke-linecap="round" stroke-linejoin="round"/>
<path d="M411.76 140.81L411.39 140.25C401.04 150.55 388.3 158.75 374.59 164.18C375.05 164.32 375.51 164.46 375.97 164.59C375.51 164.45 375.05 164.32 374.59 164.18C371.7 165.32 368.78 166.35 365.82 167.24L368.09 169.08C368.98 169.8 370.05 170.13 371.12 170.13C372.66 171.05 374.65 171.08 376.23 170.04L410.4 147.48C412.61 146.02 413.22 143.02 411.76 140.81Z" fill="#086AA9"/>
<path d="M372.62 164.92C367.17 162.76 362.12 160.5 357.13 157.79C356.05 157.24 354.99 156.65 353.95 156.01C358.8 159.49 364.05 163.25 369.42 166.07C370.49 165.7 371.56 165.31 372.62 164.91V164.92Z" fill="#087AA9"/>
<path d="M353.95 156.01C351.51 154.52 349.19 152.79 347.08 150.7C347.31 151.72 347.85 152.68 348.72 153.39L365.81 167.24C367.02 166.88 368.22 166.48 369.41 166.07C364.04 163.25 358.79 159.49 353.94 156.01H353.95Z" fill="#086AA9"/>
<path d="M374.59 164.18C368.78 162.45 362.71 160.63 357.13 157.79C362.12 160.5 367.17 162.76 372.62 164.92C373.28 164.67 373.94 164.44 374.59 164.19V164.18Z" fill="#087AA9"/>
<path d="M406.17 132.35C404.71 130.14 401.71 129.53 399.5 130.99L368.92 151.18L357.81 142.17C355.75 140.5 352.71 140.82 351.04 142.88L348.01 146.62C347.05 147.8 346.77 149.31 347.08 150.7C354.7 158.25 365.01 161.32 374.58 164.18C388.29 158.75 401.04 150.54 411.38 140.25L406.16 132.35H406.17Z" fill="#087AA9"/>
<path d="M354.48 138.85C352.24 134.6 350 130.35 347.75 126.1C347.24 125.14 346.53 124.04 345.44 124.02C343.89 123.99 343.29 126.18 343.86 127.62C344.43 129.06 345.64 130.24 345.95 131.76C346.58 134.84 343.78 137.64 343.84 140.78C343.89 143.45 345.15 147.08 347.46 148.65C349.77 150.22 352.49 148.86 354.24 146.97C356.63 144.4 355.98 141.72 354.47 138.86L354.48 138.85Z" fill="#FF9B6C"/>
<path d="M319.1 76.2598L351.07 146.88" stroke="#4D5948" stroke-width="4.54" stroke-miterlimit="10" stroke-linecap="round"/>
<path d="M349.44 145.99C349.5 145.89 349.57 145.79 349.62 145.68C350.1 144.56 349.62 143.29 349.15 142.17C348.51 140.66 347.87 139.15 347.22 137.65C346.61 136.23 345.94 134.72 344.63 133.9C342.21 132.38 337.61 133.87 337.17 136.89C336.98 138.2 337.52 140.51 338.32 142.6C341.54 144.95 344.91 146.93 349.45 146L349.44 145.99Z" fill="#FF9B6C"/>
<path d="M338.31 142.59C338.98 144.34 339.85 145.92 340.63 146.61C341.99 147.81 344.01 147.82 345.81 147.64C347.18 147.5 348.73 147.12 349.44 145.99C344.91 146.92 341.54 144.94 338.31 142.59Z" fill="#FF746C"/>
</g>
<defs>
<clipPath id="clip0_1549_6565">
<rect width="431.77" height="198.65" fill="white"/>
</clipPath>
</defs>
</svg>
