<svg width="449" height="171" viewBox="0 0 449 171" fill="none" xmlns="http://www.w3.org/2000/svg">
<g clip-path="url(#clip0_1549_6329)">
<path d="M24.3799 106.429C21.0999 116.519 16.5399 126.359 9.69994 136.189C8.12994 138.449 6.46995 140.689 4.97995 143.009C3.08995 145.949 1.44994 149.009 0.569945 152.369C-1.00006 158.399 0.649945 165.839 6.14995 168.769C12.9899 172.419 21.0499 167.579 27.6499 163.509C32.9199 160.269 38.4499 157.459 44.1499 155.079C53.0599 151.369 62.4199 148.739 71.9599 147.179C57.5399 131.739 41.9599 117.639 24.3799 106.409V106.429Z" fill="#C8E4F7"/>
<path d="M200.51 17.6696C193.41 12.4696 183.38 15.3896 175.53 19.3896C167.69 23.3896 159.43 28.4596 150.76 26.9496C142.26 25.4696 136.25 18.1496 129.58 12.6696C113.8 -0.300366 90.71 -3.68037 71.87 4.22963C58.47 9.85963 47.68 21.5396 40.97 35.0096C41.39 36.1096 41.82 37.1996 42.27 38.2896C41.82 37.1996 41.38 36.1096 40.97 35.0096C37.46 42.0496 35.07 49.5696 34 56.9596C31.44 74.6296 29.45 90.8096 24.37 106.42C41.95 117.65 57.53 131.75 71.95 147.19C82.39 145.49 93.05 145.08 103.58 146.01C105.21 138.4 107.21 130.85 109.51 123.41C99.01 112.14 87.76 101.01 77.25 89.4096C88.94 102.29 101.53 114.6 112.99 127.17C113.88 128.21 114.87 129.17 115.91 130.06C139.42 129.05 162.44 131.09 185.79 131.55C184.88 130.01 183.99 128.47 183.23 126.88C178.81 117.59 179.11 106.74 180.9 96.6096C183.31 82.9296 188.25 69.6996 195.41 57.7996C199.26 51.3996 203.81 45.2396 205.81 38.0396C207.81 30.8396 206.54 22.0696 200.51 17.6596V17.6696ZM43.68 41.5296C43.36 40.8196 43.05 40.0996 42.75 39.3796C43.06 40.0996 43.36 40.8196 43.68 41.5296ZM50.22 54.0496C49.88 53.4796 49.55 52.8996 49.22 52.3296C49.55 52.9096 49.88 53.4796 50.22 54.0496ZM46.77 47.8696C46.45 47.2696 46.15 46.6496 45.84 46.0496C46.15 46.6596 46.45 47.2696 46.77 47.8696ZM45.18 44.7196C44.87 44.0796 44.57 43.4396 44.27 42.7896C44.57 43.4296 44.87 44.0796 45.18 44.7196ZM63.25 72.9296C63.71 73.5196 64.17 74.0996 64.64 74.6796C64.17 74.0996 63.71 73.5096 63.25 72.9296ZM54.85 61.3796C55.23 61.9396 55.6 62.4996 55.98 63.0596C55.6 62.4996 55.22 61.9396 54.85 61.3796ZM58.93 67.2196C59.34 67.7796 59.76 68.3496 60.17 68.9096C59.75 68.3496 59.34 67.7896 58.93 67.2196ZM71.82 83.2996C71.24 82.6296 70.67 81.9696 70.09 81.2996C70.66 81.9696 71.24 82.6396 71.82 83.2996ZM69.35 80.4196C68.82 79.7896 68.29 79.1696 67.77 78.5396C68.29 79.1696 68.82 79.7996 69.35 80.4196ZM66.96 77.5496C66.47 76.9496 65.97 76.3496 65.48 75.7396C65.97 76.3396 66.46 76.9496 66.96 77.5496ZM74.84 86.7396C75.58 87.5696 76.33 88.4096 77.08 89.2396C76.33 88.4096 75.58 87.5796 74.84 86.7396Z" fill="#D9F3FF"/>
<path d="M191.14 144.46C190.78 139.76 188.23 135.69 185.79 131.56C162.44 131.1 139.43 129.06 115.91 130.07C114.87 129.17 113.89 128.22 112.99 127.18C111.84 125.92 110.68 124.67 109.52 123.42C107.21 130.86 105.21 138.41 103.59 146.02C115.12 147.05 126.51 149.67 137.28 153.94C145.04 157.02 152.73 160.94 160.8 162.7C163.41 163.27 166.05 163.62 168.75 163.64C179.8 163.71 191.98 155.49 191.14 144.47V144.46ZM131.95 139.98C126.31 136.76 120.48 134.01 115.91 130.07C120.48 134.01 126.31 136.75 131.95 139.98ZM137.27 143.29C137.79 143.65 138.31 144.02 138.81 144.4C138.3 144.02 137.79 143.65 137.27 143.29ZM134.01 141.19C134.38 141.42 134.76 141.65 135.13 141.88C134.76 141.65 134.39 141.42 134.01 141.19Z" fill="#C8E4F7"/>
<path d="M66.184 14.2241L57.0015 16.5801L60.6597 30.8383L69.8423 28.4823L66.184 14.2241Z" fill="#AABFE0"/>
<path d="M71.2718 12.9238L66.1865 14.2285L69.8447 28.4867L74.93 27.182L71.2718 12.9238Z" fill="#9EB4D7"/>
<path d="M69.6253 5.81922L54.6019 9.67378C53.4624 9.96613 52.7757 11.1268 53.068 12.2663L54.4871 17.7972C54.7795 18.9366 55.9402 19.6233 57.0796 19.331L72.103 15.4764C73.2425 15.1841 73.9292 14.0234 73.6368 12.8839L72.2178 7.35304C71.9254 6.21358 70.7647 5.52687 69.6253 5.81922Z" fill="#C4D1EE"/>
<path d="M18.6099 52.3399L12.3163 62.9775L25.6564 70.87L31.95 60.2323L18.6099 52.3399Z" fill="#9EB4D7"/>
<path d="M24.9091 41.7051L18.6155 52.3428L31.9556 60.2352L38.2492 49.5976L24.9091 41.7051Z" fill="#AABFE0"/>
<path d="M7.26994 41.5901L3.72994 47.5801C-0.730061 55.1101 1.36994 64.7001 8.31994 69.7401L28.8999 34.9601C21.1399 31.2901 11.7299 34.0601 7.26994 41.6001V41.5901Z" fill="#BFD4F0"/>
<path d="M83.36 155.08C119.463 155.08 148.73 125.813 148.73 89.7098C148.73 53.607 119.463 24.3398 83.36 24.3398C47.2571 24.3398 17.99 53.607 17.99 89.7098C17.99 125.813 47.2571 155.08 83.36 155.08Z" fill="#7D9DC1"/>
<path d="M83.36 148.49C115.823 148.49 142.14 122.173 142.14 89.7097C142.14 57.2464 115.823 30.9297 83.36 30.9297C50.8967 30.9297 24.58 57.2464 24.58 89.7097C24.58 122.173 50.8967 148.49 83.36 148.49Z" fill="#A9C3E5"/>
<path d="M83.36 141.22C111.808 141.22 134.87 118.158 134.87 89.7102C134.87 61.262 111.808 38.2002 83.36 38.2002C54.9118 38.2002 31.85 61.262 31.85 89.7102C31.85 118.158 54.9118 141.22 83.36 141.22Z" fill="#E0E7F6"/>
<path d="M71.9166 44.5057L71.6357 44.5777C71.1114 44.7122 70.7954 45.2463 70.93 45.7705L72.9206 53.5292C73.0551 54.0535 73.5892 54.3695 74.1134 54.2349L74.3943 54.1629C74.9186 54.0284 75.2345 53.4943 75.1 52.9701L73.1094 45.2114C72.9749 44.6871 72.4408 44.3712 71.9166 44.5057Z" fill="#7D9DC1"/>
<path d="M74.1035 54.2541L74.3844 54.182C74.9086 54.0475 75.2246 53.5135 75.0901 52.9892L73.0994 45.2305C72.9649 44.7063 72.4309 44.3903 71.9066 44.5248L71.6257 44.5969C71.1014 44.7314 70.7855 45.2654 70.92 45.7897L72.9107 53.5484C73.0452 54.0727 73.5792 54.3886 74.1035 54.2541Z" fill="#7D9DC1"/>
<path d="M92.6157 125.173L92.3347 125.245C91.8105 125.379 91.4945 125.913 91.629 126.438L93.6197 134.196C93.7542 134.72 94.2882 135.036 94.8125 134.902L95.0934 134.83C95.6177 134.695 95.9336 134.161 95.7991 133.637L93.8085 125.878C93.6739 125.354 93.1399 125.038 92.6157 125.173Z" fill="#7D9DC1"/>
<path d="M51.7381 71.1829L51.8858 70.9333C52.1614 70.4675 52.0071 69.8664 51.5413 69.5908L44.6475 65.5122C44.1817 65.2366 43.5806 65.3908 43.305 65.8566L43.1574 66.1062C42.8818 66.5721 43.036 67.1731 43.5018 67.4487L50.3956 71.5273C50.8615 71.8029 51.4625 71.6487 51.7381 71.1829Z" fill="#7D9DC1"/>
<path d="M114.976 108.248L114.828 108.497C114.553 108.963 114.707 109.564 115.173 109.84L122.066 113.918C122.532 114.194 123.133 114.04 123.409 113.574L123.557 113.324C123.832 112.859 123.678 112.258 123.212 111.982L116.318 107.903C115.853 107.628 115.251 107.782 114.976 108.248Z" fill="#7D9DC1"/>
<path d="M47.9013 98.9723L47.8292 98.6914C47.6947 98.1672 47.1607 97.8512 46.6364 97.9857L38.8777 99.9764C38.3535 100.111 38.0375 100.645 38.172 101.169L38.2441 101.45C38.3786 101.974 38.9127 102.29 39.4369 102.156L47.1956 100.165C47.7199 100.031 48.0358 99.4966 47.9013 98.9723Z" fill="#7D9DC1"/>
<path d="M99.64 56.29L81.96 82.11L89.92 86.03L99.64 56.29Z" fill="#7D9DC1"/>
<path d="M118.82 80.4603L118.892 80.7412C119.026 81.2654 119.56 81.5814 120.085 81.4469L127.843 79.4562C128.367 79.3217 128.683 78.7877 128.549 78.2634L128.477 77.9825C128.342 77.4583 127.808 77.1423 127.284 77.2768L119.525 79.2675C119.001 79.402 118.685 79.936 118.82 80.4603Z" fill="#7D9DC1"/>
<path d="M64.8255 121.341L64.5759 121.193C64.11 120.918 63.509 121.072 63.2334 121.538L59.1548 128.432C58.8792 128.897 59.0334 129.498 59.4992 129.774L59.7488 129.922C60.2146 130.197 60.8157 130.043 61.0913 129.577L65.1699 122.683C65.4455 122.218 65.2913 121.617 64.8255 121.341Z" fill="#7D9DC1"/>
<path d="M83.36 98.5798C88.2588 98.5798 92.23 94.6086 92.23 89.7098C92.23 84.8111 88.2588 80.8398 83.36 80.8398C78.4612 80.8398 74.49 84.8111 74.49 89.7098C74.49 94.6086 78.4612 98.5798 83.36 98.5798Z" fill="#A9C3E5"/>
<path d="M83.36 94.5296C86.0221 94.5296 88.18 92.3717 88.18 89.7096C88.18 87.0476 86.0221 84.8896 83.36 84.8896C80.698 84.8896 78.54 87.0476 78.54 89.7096C78.54 92.3717 80.698 94.5296 83.36 94.5296Z" fill="#7D9DC1"/>
<path d="M101.895 58.0955L102.145 58.2432C102.611 58.5188 103.212 58.3646 103.487 57.8987L107.566 51.0049C107.842 50.5391 107.687 49.9381 107.222 49.6625L106.972 49.5148C106.506 49.2392 105.905 49.3934 105.63 49.8592L101.551 56.7531C101.275 57.2189 101.43 57.8199 101.895 58.0955Z" fill="#7D9DC1"/>
<path d="M126.85 141.459C127.26 141.589 144.54 142.129 144.54 142.129L160.45 141.789L143.65 140.649L126.85 141.459Z" fill="#E8CB9C"/>
<path d="M200.82 117.069H200.63C200.7 117.069 200.76 117.079 200.82 117.089V117.069Z" fill="#696969"/>
<path d="M124.02 120.65C121.26 120.65 119.01 122.9 119.01 125.66V142.45C119.01 145.21 121.26 147.46 124.02 147.46H193.67C193.81 147.43 193.95 147.4 194.1 147.4H200.45C198.31 143.8 197.01 139.14 197.01 134.05C197.01 128.96 198.32 124.25 200.48 120.64H124.02V120.65ZM171.07 125.58C171.07 125.58 142.97 125.04 142.3 124.91L169.62 124.1L196.94 125.24L171.07 125.58Z" fill="#E3EAF0"/>
<path d="M142.3 124.9C142.97 125.03 171.07 125.57 171.07 125.57L196.94 125.23L169.62 124.09L142.3 124.9Z" fill="#C4C9CE"/>
<path d="M156.78 138.97C157.27 139.08 177.92 139.52 177.92 139.52L196.93 139.24L176.85 138.3L156.77 138.96L156.78 138.97Z" fill="#C4C9CE"/>
<path d="M140.15 143.16C140.43 143.25 152.2 143.61 152.2 143.61L163.04 143.39L151.6 142.63L140.16 143.17L140.15 143.16Z" fill="#C4C9CE"/>
<path d="M126.33 138.04C126.55 138.11 135.62 138.38 135.62 138.38L143.97 138.21L135.15 137.64L126.33 138.04Z" fill="#C4C9CE"/>
<path d="M200.63 150.989H194.1C193.12 150.989 192.31 150.179 192.31 149.199C192.31 148.359 192.89 147.659 193.67 147.469H124.02C121.26 147.469 119.01 145.219 119.01 142.459V125.669C119.01 122.909 121.26 120.659 124.02 120.659H194.1C193.12 120.659 192.31 119.849 192.31 118.869C192.31 117.889 193.12 117.079 194.1 117.079H124.02C119.29 117.079 115.43 120.949 115.43 125.669V142.459C115.43 147.189 119.3 151.049 124.02 151.049H200.82V150.969C200.76 150.969 200.69 150.989 200.63 150.989Z" fill="#7D9DC1"/>
<path d="M200.48 120.65H200.63C201.61 120.65 202.42 119.84 202.42 118.86C202.42 117.94 201.72 117.19 200.82 117.09V120.12C200.71 120.3 200.59 120.47 200.48 120.66V120.65Z" fill="#7D9DC1"/>
<path d="M192.31 118.86C192.31 119.84 193.12 120.65 194.1 120.65H200.48C200.59 120.47 200.71 120.29 200.82 120.11V117.08C200.76 117.08 200.69 117.06 200.63 117.06H194.1C193.12 117.06 192.31 117.87 192.31 118.85V118.86Z" fill="#7D9DC1"/>
<path d="M200.63 147.46H200.48C200.59 147.64 200.71 147.82 200.82 148V151.03C201.71 150.93 202.42 150.18 202.42 149.26C202.42 148.28 201.61 147.47 200.63 147.47V147.46Z" fill="#7D9DC1"/>
<path d="M193.67 147.459C192.89 147.659 192.31 148.359 192.31 149.189C192.31 150.169 193.12 150.979 194.1 150.979H200.63C200.7 150.979 200.76 150.969 200.82 150.959V147.989C200.71 147.809 200.59 147.639 200.48 147.449H193.67V147.459Z" fill="#7D9DC1"/>
<path d="M193.67 147.459H200.48C200.48 147.459 200.46 147.419 200.45 147.399H194.1C193.95 147.399 193.81 147.419 193.67 147.459Z" fill="#F6E1B7"/>
<path d="M138.83 152.99C136.83 148.01 136.86 143.02 138.94 138.04H128.63C126.94 143.12 126.94 148.19 128.63 153.27H128.84C131.61 148.33 134.94 151.67 138.83 152.99Z" fill="#67617D"/>
<path d="M196.51 99.54H119.73V117.09H196.51V99.54Z" fill="#AABFE0"/>
<path d="M130.49 99.54H126.05V117.09H130.49V99.54Z" fill="#7D9DC1"/>
<path d="M190.17 99.54H185.73V117.09H190.17V99.54Z" fill="#7D9DC1"/>
<path d="M119.43 85.4893H196.52C199.24 85.4893 201.45 87.6993 201.45 90.4193V93.8893H114V90.9293C114 87.9293 116.43 85.4993 119.43 85.4993V85.4893Z" fill="#AABFE0"/>
<path d="M127.89 88.1194H172.78C175.29 88.1194 177.32 90.1494 177.32 92.6594V93.8794H122.88V93.1194C122.88 90.3594 125.12 88.1094 127.89 88.1094V88.1194Z" fill="white"/>
<path d="M185.99 88.6494H187.58C190.09 88.6494 192.13 90.6894 192.13 93.1994V93.8894H181.45V93.1994C181.45 90.6894 183.49 88.6494 186 88.6494H185.99Z" fill="white"/>
<path d="M114 93.8896H201.45V95.5296C201.45 98.2496 199.24 100.46 196.52 100.46H119.43C116.43 100.46 114 98.0296 114 95.0296V93.8896Z" fill="#9EB4D7"/>
<path d="M122.88 93.8896H177.32V94.8496C177.32 96.8096 175.73 98.3997 173.77 98.3997H126.8C124.64 98.3997 122.88 96.6397 122.88 94.4797V93.8896Z" fill="#E3EAF0"/>
<path d="M181.44 93.8896H192.12V94.4996C192.12 96.7196 190.32 98.5196 188.1 98.5196H185.46C183.24 98.5196 181.44 96.7196 181.44 94.4996V93.8896Z" fill="#E3EAF0"/>
</g>
<defs>
<clipPath id="clip0_1549_6329">
<rect width="448.28" height="170.07" fill="white"/>
</clipPath>
</defs>
</svg>
