<svg width="429" height="238" viewBox="0 0 429 238" fill="none" xmlns="http://www.w3.org/2000/svg">
<path d="M44.6 150.359C40.4 163.289 34.55 175.899 25.78 188.509C23.77 191.399 21.64 194.279 19.73 197.259C17.3 201.029 15.2 204.949 14.08 209.269C12.06 216.999 14.19 226.529 21.23 230.299C30 234.979 40.33 228.769 48.79 223.559C55.55 219.399 62.63 215.799 69.95 212.759C81.37 207.999 93.37 204.629 105.6 202.629C87.11 182.829 67.14 164.759 44.61 150.369L44.6 150.359Z" fill="#C8E4F7"/>
<path d="M270.39 36.5798C261.28 29.9198 248.42 33.6498 238.37 38.7798C228.32 43.9098 217.73 50.4098 206.62 48.4698C195.72 46.5698 188.02 37.1898 179.47 30.1598C159.23 13.5398 129.63 9.20983 105.48 19.3498C88.3 26.5598 74.47 41.5498 65.87 58.8098C61.38 67.8298 58.31 77.4698 56.94 86.9498C53.66 109.6 51.1 130.35 44.6 150.35C67.14 164.75 87.11 182.82 105.59 202.61C118.97 200.43 132.64 199.9 146.14 201.1C148.23 191.34 150.79 181.67 153.75 172.12C140.3 157.67 125.87 143.4 112.39 128.54C127.37 145.06 143.52 160.84 158.2 176.94C159.35 178.28 160.61 179.5 161.94 180.65C192.08 179.36 221.58 181.96 251.52 182.56C250.35 180.59 249.21 178.61 248.24 176.57C242.57 164.66 242.96 150.76 245.25 137.77C248.34 120.24 254.68 103.28 263.86 88.0198C268.8 79.8098 274.63 71.9098 277.19 62.6798C279.75 53.4498 278.13 42.2098 270.4 36.5498L270.39 36.5798ZM69.35 67.1698C68.94 66.2598 68.55 65.3398 68.15 64.4198C68.54 65.3398 68.94 66.2598 69.35 67.1698ZM77.73 83.2198C77.3 82.4898 76.87 81.7498 76.45 81.0098C76.87 81.7498 77.29 82.4898 77.73 83.2198ZM75.47 79.2798C75.05 78.5298 74.65 77.7798 74.24 77.0198C74.65 77.7698 75.05 78.5298 75.47 79.2798ZM71.27 71.2598C70.87 70.4398 70.49 69.6098 70.1 68.7898C70.49 69.6198 70.87 70.4398 71.27 71.2598ZM86.24 96.3798C86.74 97.0998 87.25 97.8198 87.76 98.5298C87.25 97.8098 86.74 97.0998 86.24 96.3798ZM88.9 100.11C89.43 100.83 89.96 101.56 90.5 102.28C89.96 101.56 89.43 100.84 88.9 100.11ZM91.63 103.79C92.19 104.52 92.75 105.26 93.31 105.99C92.75 105.26 92.19 104.53 91.63 103.79ZM105.42 120.71C104.68 119.86 103.94 119 103.21 118.14C103.94 119 104.68 119.85 105.42 120.71ZM102.26 117.02C101.58 116.22 100.9 115.41 100.23 114.6C100.9 115.41 101.58 116.21 102.26 117.02ZM99.19 113.35C98.56 112.58 97.92 111.81 97.3 111.03C97.93 111.81 98.56 112.58 99.19 113.35ZM109.29 125.12C110.24 126.19 111.2 127.26 112.17 128.32C111.21 127.26 110.25 126.19 109.29 125.12ZM106.23 121.65C107.05 122.59 107.88 123.52 108.7 124.46C107.87 123.53 107.05 122.59 106.23 121.65Z" fill="#D9F3FF"/>
<path d="M258.38 199.12C257.92 193.09 254.64 187.87 251.52 182.58C221.59 181.99 192.09 179.38 161.94 180.67C160.61 179.52 159.35 178.3 158.2 176.96C156.73 175.35 155.24 173.74 153.75 172.14C150.79 181.68 148.23 191.36 146.14 201.12C160.93 202.44 175.52 205.79 189.33 211.27C199.28 215.21 209.14 220.24 219.48 222.5C222.82 223.23 226.21 223.68 229.67 223.7C243.84 223.79 259.45 213.25 258.37 199.12H258.38ZM182.83 193.57C183.4 193.89 183.96 194.22 184.52 194.56C183.96 194.23 183.4 193.9 182.83 193.57ZM185.14 194.93C185.62 195.22 186.1 195.52 186.57 195.81C186.09 195.51 185.62 195.22 185.14 194.93ZM187.28 196.26C187.75 196.56 188.22 196.88 188.69 197.19C188.22 196.87 187.75 196.56 187.28 196.26Z" fill="#C8E4F7"/>
<path d="M98.1979 32.1689L86.4291 35.1885L91.1212 53.4761L102.89 50.4566L98.1979 32.1689Z" fill="#AABFE0"/>
<path d="M104.712 30.4944L98.1933 32.167L102.885 50.4547L109.404 48.7821L104.712 30.4944Z" fill="#9EB4D7"/>
<path d="M103.202 21.2333L82.7737 26.4746C81.6343 26.7669 80.9476 27.9276 81.2399 29.0671L83.3598 37.3295C83.6522 38.4689 84.8129 39.1556 85.9523 38.8633L106.381 33.622C107.52 33.3296 108.207 32.1689 107.914 31.0295L105.795 22.7671C105.502 21.6276 104.342 20.9409 103.202 21.2333Z" fill="#C4D1EE"/>
<path d="M37.2033 81.0401L29.1377 94.6729L46.2389 104.79L54.3045 91.1577L37.2033 81.0401Z" fill="#9EB4D7"/>
<path d="M45.2732 67.3995L37.2076 81.0322L54.3088 91.1499L62.3744 77.5171L45.2732 67.3995Z" fill="#AABFE0"/>
<path d="M22.67 67.2503L18.13 74.9303C12.42 84.5903 15.11 96.8803 24.02 103.33L50.41 58.7403C40.47 54.0403 28.39 57.5903 22.68 67.2503H22.67Z" fill="#BFD4F0"/>
<path d="M120.21 212.741C166.492 212.741 204.01 175.222 204.01 128.941C204.01 82.6592 166.492 45.1406 120.21 45.1406C73.9286 45.1406 36.41 82.6592 36.41 128.941C36.41 175.222 73.9286 212.741 120.21 212.741Z" fill="#7D9DC1"/>
<path d="M120.21 204.291C161.825 204.291 195.56 170.555 195.56 128.941C195.56 87.3262 161.825 53.5908 120.21 53.5908C78.5954 53.5908 44.86 87.3262 44.86 128.941C44.86 170.555 78.5954 204.291 120.21 204.291Z" fill="#A9C3E5"/>
<path d="M120.21 194.97C156.677 194.97 186.24 165.408 186.24 128.94C186.24 92.4728 156.677 62.9102 120.21 62.9102C83.7427 62.9102 54.1801 92.4728 54.1801 128.94C54.1801 165.408 83.7427 194.97 120.21 194.97Z" fill="#E0E7F6"/>
<path d="M105.815 70.9145L104.924 71.1432C104.4 71.2777 104.084 71.8117 104.219 72.336L106.91 82.8262C107.045 83.3505 107.579 83.6664 108.103 83.5319L108.994 83.3033C109.518 83.1688 109.834 82.6347 109.7 82.1105L107.008 71.6202C106.874 71.096 106.34 70.78 105.815 70.9145Z" fill="#7D9DC1"/>
<path d="M108.085 83.5464L108.976 83.3178C109.5 83.1833 109.816 82.6492 109.681 82.125L106.99 71.6347C106.856 71.1105 106.321 70.7945 105.797 70.929L104.906 71.1577C104.382 71.2922 104.066 71.8262 104.2 72.3505L106.892 82.8407C107.026 83.365 107.56 83.6809 108.085 83.5464Z" fill="#7D9DC1"/>
<path d="M132.335 174.339L131.444 174.568C130.92 174.702 130.604 175.237 130.739 175.761L133.43 186.251C133.565 186.775 134.099 187.091 134.623 186.957L135.514 186.728C136.038 186.594 136.354 186.06 136.22 185.535L133.528 175.045C133.394 174.521 132.86 174.205 132.335 174.339Z" fill="#7D9DC1"/>
<path d="M79.5463 105.42L80.0147 104.629C80.2903 104.163 80.1361 103.562 79.6703 103.286L70.3494 97.7716C69.8836 97.496 69.2826 97.6502 69.007 98.116L68.5385 98.9078C68.2629 99.3737 68.4171 99.9747 68.883 100.25L78.2038 105.765C78.6696 106.04 79.2707 105.886 79.5463 105.42Z" fill="#7D9DC1"/>
<path d="M160.882 152.459L160.414 153.25C160.138 153.716 160.292 154.317 160.758 154.593L170.079 160.107C170.545 160.383 171.146 160.229 171.421 159.763L171.89 158.971C172.165 158.505 172.011 157.904 171.545 157.629L162.224 152.114C161.759 151.838 161.158 151.993 160.882 152.459Z" fill="#7D9DC1"/>
<path d="M74.8189 141.069L74.5902 140.178C74.4557 139.654 73.9217 139.338 73.3974 139.472L62.9072 142.164C62.3829 142.298 62.067 142.832 62.2015 143.356L62.4301 144.247C62.5646 144.772 63.0987 145.088 63.6229 144.953L74.1132 142.262C74.6374 142.127 74.9534 141.593 74.8189 141.069Z" fill="#7D9DC1"/>
<path d="M141.08 86.0908L118.42 119.191L128.62 124.221L141.08 86.0908Z" fill="#7D9DC1"/>
<path d="M165.602 116.821L165.83 117.712C165.965 118.236 166.499 118.552 167.023 118.418L177.513 115.726C178.037 115.592 178.353 115.058 178.219 114.533L177.99 113.642C177.856 113.118 177.322 112.802 176.797 112.936L166.307 115.628C165.783 115.762 165.467 116.296 165.602 116.821Z" fill="#7D9DC1"/>
<path d="M96.6988 169.617L95.907 169.148C95.4412 168.873 94.8401 169.027 94.5645 169.493L89.05 178.814C88.7744 179.28 88.9286 179.881 89.3944 180.156L90.1862 180.625C90.652 180.9 91.2531 180.746 91.5287 180.28L97.0432 170.959C97.3188 170.494 97.1646 169.892 96.6988 169.617Z" fill="#7D9DC1"/>
<path d="M120.21 140.31C126.49 140.31 131.58 135.22 131.58 128.94C131.58 122.661 126.49 117.57 120.21 117.57C113.931 117.57 108.84 122.661 108.84 128.94C108.84 135.22 113.931 140.31 120.21 140.31Z" fill="#A9C3E5"/>
<path d="M120.21 135.121C123.623 135.121 126.39 132.354 126.39 128.941C126.39 125.528 123.623 122.761 120.21 122.761C116.797 122.761 114.03 125.528 114.03 128.941C114.03 132.354 116.797 135.121 120.21 135.121Z" fill="#7D9DC1"/>
<path d="M143.733 88.2669L144.525 88.7354C144.991 89.011 145.592 88.8568 145.867 88.3909L151.382 79.0701C151.657 78.6042 151.503 78.0032 151.037 77.7276L150.246 77.2592C149.78 76.9836 149.179 77.1378 148.903 77.6036L143.389 86.9245C143.113 87.3903 143.267 87.9913 143.733 88.2669Z" fill="#7D9DC1"/>
<path d="M175.96 195.27C176.49 195.44 198.63 196.13 198.63 196.13L219.02 195.7L197.49 194.23L175.96 195.26V195.27Z" fill="#E8CB9C"/>
<path d="M270.79 164.01H270.54C270.62 164.01 270.7 164.03 270.79 164.04V164.01Z" fill="#696969"/>
<path d="M172.34 168.601C168.8 168.601 165.91 171.481 165.91 175.031V196.551C165.91 200.091 168.79 202.981 172.34 202.981H261.62C261.8 202.941 261.98 202.901 262.17 202.901H270.31C267.56 198.291 265.9 192.321 265.9 185.791C265.9 179.261 267.58 173.231 270.35 168.601H172.33H172.34ZM232.65 174.911C232.65 174.911 196.63 174.221 195.77 174.051L230.79 173.021L265.81 174.491L232.65 174.921V174.911Z" fill="#E3EAF0"/>
<path d="M195.77 174.05C196.63 174.22 232.65 174.91 232.65 174.91L265.81 174.48L230.79 173.01L195.77 174.04V174.05Z" fill="#C4C9CE"/>
<path d="M214.34 192.08C214.97 192.22 241.44 192.79 241.44 192.79L265.81 192.44L240.07 191.23L214.33 192.08H214.34Z" fill="#C4C9CE"/>
<path d="M193.01 197.45C193.37 197.57 208.46 198.03 208.46 198.03L222.35 197.74L207.68 196.76L193.01 197.45Z" fill="#C4C9CE"/>
<path d="M175.3 190.88C175.58 190.97 187.21 191.31 187.21 191.31L197.92 191.09L186.61 190.36L175.3 190.88Z" fill="#C4C9CE"/>
<path d="M270.55 207.49H262.18C260.92 207.49 259.88 206.46 259.88 205.19C259.88 204.12 260.63 203.22 261.62 202.97H172.34C168.8 202.97 165.91 200.09 165.91 196.54V175.02C165.91 171.48 168.79 168.59 172.34 168.59H262.18C260.92 168.59 259.88 167.56 259.88 166.29C259.88 165.02 260.91 163.99 262.18 163.99H172.34C166.28 163.99 161.32 168.95 161.32 175.01V196.53C161.32 202.59 166.28 207.55 172.34 207.55H270.8V207.45C270.72 207.45 270.64 207.48 270.55 207.48V207.49Z" fill="#7D9DC1"/>
<path d="M270.35 168.6H270.54C271.8 168.6 272.84 167.57 272.84 166.3C272.84 165.12 271.94 164.16 270.79 164.03V167.91C270.64 168.14 270.49 168.36 270.35 168.6Z" fill="#7D9DC1"/>
<path d="M259.88 166.3C259.88 167.56 260.91 168.6 262.18 168.6H270.36C270.5 168.36 270.65 168.14 270.8 167.91V164.03C270.72 164.03 270.64 164 270.55 164H262.18C260.92 164 259.88 165.03 259.88 166.3Z" fill="#7D9DC1"/>
<path d="M270.55 202.971H270.36C270.5 203.211 270.65 203.431 270.8 203.661V207.541C271.95 207.411 272.85 206.451 272.85 205.271C272.85 204.011 271.82 202.971 270.55 202.971Z" fill="#7D9DC1"/>
<path d="M261.62 202.971C260.62 203.221 259.88 204.121 259.88 205.191C259.88 206.451 260.91 207.491 262.18 207.491H270.55C270.63 207.491 270.71 207.471 270.8 207.461V203.661C270.65 203.431 270.5 203.211 270.36 202.971H261.63H261.62Z" fill="#7D9DC1"/>
<path d="M261.62 202.971H270.35C270.35 202.971 270.32 202.921 270.31 202.891H262.17C261.98 202.891 261.8 202.921 261.62 202.971Z" fill="#F6E1B7"/>
<path d="M191.32 210.06C188.76 203.67 188.8 197.29 191.46 190.9H178.24C176.07 197.41 176.07 203.91 178.24 210.42H178.51C182.06 204.08 186.33 208.37 191.32 210.06Z" fill="#67617D"/>
<path d="M265.27 141.53H166.84V164.03H265.27V141.53Z" fill="#AABFE0"/>
<path d="M180.64 141.53H174.94V164.03H180.64V141.53Z" fill="#7D9DC1"/>
<path d="M257.14 141.53H251.44V164.03H257.14V141.53Z" fill="#7D9DC1"/>
<path d="M164.93 123.53H266.67C269.39 123.53 271.6 125.74 271.6 128.46V134.29H159.5V128.96C159.5 125.96 161.93 123.53 164.93 123.53Z" fill="#AABFE0"/>
<path d="M175.88 126.901H236.12C238.63 126.901 240.66 128.931 240.66 131.441V134.291H170.87V131.901C170.87 129.141 173.11 126.891 175.88 126.891V126.901Z" fill="white"/>
<path d="M250.5 127.58H255.1C257.61 127.58 259.65 129.62 259.65 132.13V134.3H245.96V132.13C245.96 129.62 248 127.58 250.51 127.58H250.5Z" fill="white"/>
<path d="M159.49 134.29H271.59V137.78C271.59 140.5 269.38 142.71 266.66 142.71H164.92C161.92 142.71 159.49 140.28 159.49 137.28V134.29Z" fill="#9EB4D7"/>
<path d="M170.88 134.29H240.67V136.52C240.67 138.48 239.08 140.07 237.12 140.07H174.81C172.65 140.07 170.89 138.31 170.89 136.15V134.28L170.88 134.29Z" fill="#E3EAF0"/>
<path d="M245.95 134.29H259.64V136.21C259.64 138.43 257.84 140.23 255.62 140.23H249.97C247.75 140.23 245.95 138.43 245.95 136.21V134.29Z" fill="#E3EAF0"/>
</svg>
