<svg width="216" height="169" viewBox="0 0 216 169" fill="none" xmlns="http://www.w3.org/2000/svg">
<path d="M208.669 153.578C208.897 155.737 209.279 157.687 209.875 159.24L162.072 167.97C162.072 167.97 160.202 165.573 158.491 161.966C158.305 161.572 158.118 161.165 157.938 160.741C156.973 158.485 156.137 155.857 155.84 153.096C155.825 152.965 155.809 152.835 155.801 152.705C155.578 150.237 155.798 147.671 156.739 145.174C156.874 144.815 157.024 144.461 157.19 144.106C157.448 143.556 157.743 143.009 158.08 142.471C158.392 141.97 158.738 141.475 159.126 140.983C159.832 140.091 160.665 139.218 161.642 138.381L209.875 128.978C209.875 128.978 209.658 130.365 209.388 132.583C209.337 133.003 209.286 133.452 209.229 133.927C209.177 134.406 209.124 134.908 209.069 135.432C209.024 135.865 208.979 136.314 208.937 136.777C208.745 138.818 208.57 141.114 208.471 143.475C208.452 143.914 208.435 144.357 208.423 144.8C208.345 147.336 208.366 149.902 208.549 152.279C208.582 152.719 208.621 153.155 208.669 153.578L208.669 153.578Z" fill="#F9E4DC"/>
<path d="M208.668 153.578L158.491 161.966L157.297 162.164C157.264 162.171 157.234 162.171 157.204 162.171C156.913 162.171 156.657 161.943 156.609 161.621C156.561 161.266 156.784 160.934 157.114 160.879L157.938 160.742L208.549 152.279C208.582 152.719 208.62 153.155 208.669 153.578L208.668 153.578Z" fill="#EDD1C5"/>
<path d="M208.471 143.474C208.453 143.914 208.435 144.357 208.423 144.799L156.48 153.48C156.45 153.487 156.417 153.487 156.387 153.487C156.147 153.487 155.93 153.33 155.84 153.096C155.816 153.047 155.804 152.992 155.795 152.937C155.783 152.859 155.785 152.78 155.801 152.706C155.849 152.448 156.041 152.236 156.297 152.194L208.471 143.475L208.471 143.474Z" fill="#EDD1C5"/>
<path d="M209.387 132.583C209.336 133.003 209.285 133.452 209.228 133.927L158.16 142.462C158.133 142.468 158.106 142.472 158.079 142.472H158.07C157.778 142.472 157.52 142.24 157.475 141.918C157.423 141.563 157.649 141.231 157.977 141.175L159.125 140.983L209.387 132.583Z" fill="#EDD1C5"/>
<path d="M209.069 135.432C209.024 135.865 208.979 136.314 208.937 136.777L157.297 145.405C157.264 145.408 157.234 145.412 157.204 145.412C157.021 145.412 156.853 145.321 156.738 145.174C156.672 145.086 156.627 144.982 156.609 144.861C156.561 144.507 156.783 144.171 157.114 144.119L157.189 144.106L209.068 135.432L209.069 135.432Z" fill="#EDD1C5"/>
<path d="M162.884 168.621H6.85389C5.87057 168.621 4.95393 168.087 4.39463 167.208C-1.5523 157.856 -1.3422 148.938 4.28958 139.18C4.90884 138.108 6.00056 137.457 7.16999 137.457L21.6378 137.395L32.4077 137.353L162.884 136.806C154.411 146.955 155.082 157.596 162.884 168.621V168.621Z" fill="#896060"/>
<path d="M28.2791 156.192C28.4115 160.536 29.1809 164.83 30.4136 168.621H20.3325C19.3674 164.795 18.7898 160.708 18.6637 156.531C18.4531 149.569 19.4786 143.099 21.6372 137.395L32.4071 137.353C28.637 144.067 28.1405 151.611 28.2791 156.192V156.192Z" fill="#FFDAA9"/>
<path d="M135.565 156.192C135.697 160.536 136.467 164.83 137.699 168.621H127.618C126.653 164.795 126.075 160.708 125.949 156.531C125.739 149.569 126.764 143.099 128.923 137.395L139.693 137.353C135.923 144.067 135.426 151.611 135.565 156.192V156.192Z" fill="#FFDAA9"/>
<path d="M54.8757 129.874L10.5611 138.004L5.36865 137.991V137.968C5.37777 137.588 7.73054 136.874 8.09125 136.806L54.6234 128.268C54.7376 128.249 54.8489 128.255 54.9539 128.288C55.2244 128.373 55.4379 128.617 55.4892 128.936C55.5583 129.378 55.2849 129.799 54.8757 129.874Z" fill="#7C4C4C"/>
<path d="M211.423 127.939L161.642 138.382L10.5613 138.004L5.36888 137.991H5.24561L5.36888 137.968L54.38 128.35C54.5694 128.317 54.7618 128.298 54.9541 128.288C55.0112 128.285 55.0683 128.281 55.1254 128.281L211.422 127.939H211.423Z" fill="#7C4C4C"/>
<path d="M162.07 168.782C161.708 168.782 161.389 168.499 161.329 168.1C161.262 167.656 161.54 167.237 161.95 167.165L211.158 158.438C211.568 158.364 211.954 158.666 212.021 159.109C212.088 159.554 211.811 159.972 211.401 160.044L162.193 168.771C162.152 168.779 162.111 168.782 162.07 168.782H162.07Z" fill="#7C4C4C"/>
<path d="M162.07 138.27C161.708 138.27 161.389 137.987 161.329 137.587C161.262 137.143 161.54 136.725 161.95 136.652L211.158 127.925C211.568 127.852 211.954 128.153 212.021 128.597C212.088 129.041 211.811 129.459 211.401 129.532L162.193 138.259C162.152 138.266 162.111 138.27 162.07 138.27H162.07Z" fill="#7C4C4C"/>
<path d="M177.76 137.783C177.76 137.783 184.436 141.021 180.485 157.948L187.297 149.458L190.92 153.964C190.92 153.964 198.069 135.467 186.675 136.409L177.76 137.783Z" fill="#D38888"/>
<path d="M213.069 122.955C213.268 124.836 213.601 126.536 214.12 127.89L172.454 135.499C172.454 135.499 170.824 133.41 169.333 130.266C169.17 129.922 169.007 129.567 168.851 129.199C168.009 127.232 167.281 124.942 167.021 122.535C167.008 122.421 166.995 122.308 166.987 122.194C166.793 120.043 166.985 117.806 167.805 115.63C167.923 115.317 168.054 115.008 168.198 114.699C168.424 114.219 168.68 113.742 168.974 113.274C169.246 112.837 169.548 112.405 169.886 111.977C170.502 111.199 171.227 110.439 172.079 109.709L214.12 101.513C214.12 101.513 213.932 102.721 213.696 104.654C213.651 105.021 213.607 105.412 213.557 105.826C213.512 106.243 213.465 106.68 213.418 107.137C213.378 107.515 213.339 107.907 213.302 108.309C213.135 110.089 212.983 112.089 212.896 114.147C212.88 114.53 212.865 114.916 212.854 115.302C212.786 117.513 212.805 119.75 212.964 121.822C212.993 122.205 213.027 122.585 213.069 122.954V122.955Z" fill="#F9E4DC"/>
<path d="M213.069 122.956L169.333 130.267L168.292 130.44C168.263 130.445 168.237 130.445 168.211 130.445C167.957 130.445 167.734 130.247 167.692 129.966C167.65 129.656 167.844 129.367 168.133 129.319L168.851 129.2L212.965 121.823C212.993 122.207 213.028 122.587 213.07 122.956H213.069Z" fill="#EDD1C5"/>
<path d="M212.896 114.148C212.88 114.532 212.864 114.918 212.854 115.304L167.579 122.87C167.553 122.876 167.524 122.876 167.498 122.876C167.289 122.876 167.1 122.74 167.021 122.535C167 122.493 166.99 122.444 166.982 122.396C166.971 122.328 166.974 122.26 166.987 122.194C167.029 121.97 167.197 121.786 167.419 121.749L212.896 114.148H212.896Z" fill="#EDD1C5"/>
<path d="M213.695 104.655C213.651 105.022 213.606 105.413 213.556 105.827L169.044 113.266C169.02 113.272 168.997 113.274 168.973 113.274H168.965C168.711 113.274 168.486 113.073 168.446 112.792C168.402 112.482 168.598 112.193 168.884 112.144L169.885 111.977L213.695 104.655L213.695 104.655Z" fill="#EDD1C5"/>
<path d="M213.418 107.138C213.378 107.516 213.339 107.908 213.302 108.31L168.292 115.831C168.263 115.834 168.237 115.837 168.211 115.837C168.051 115.837 167.905 115.757 167.805 115.629C167.747 115.553 167.708 115.462 167.692 115.357C167.65 115.048 167.844 114.755 168.133 114.709L168.198 114.698L213.418 107.137L213.418 107.138Z" fill="#EDD1C5"/>
<path d="M173.162 136.067H37.1611C36.304 136.067 35.5048 135.602 35.0175 134.835C29.8337 126.684 30.0174 118.911 34.9259 110.405C35.4655 109.471 36.4172 108.904 37.4364 108.904L50.0474 108.85L59.4345 108.813L173.162 108.336C165.777 117.182 166.361 126.457 173.162 136.067H173.162Z" fill="#A5B1C7"/>
<path d="M55.8358 125.234C55.951 129.02 56.622 132.763 57.6965 136.067H48.9094C48.0681 132.732 47.5649 129.17 47.4551 125.529C47.2718 119.461 48.1655 113.822 50.0467 108.849L59.4338 108.812C56.1476 114.665 55.715 121.241 55.8358 125.234Z" fill="#FFDAA9"/>
<path d="M149.35 125.234C149.465 129.02 150.136 132.763 151.21 136.067H142.423C141.582 132.732 141.079 129.17 140.969 125.529C140.786 119.461 141.679 113.822 143.56 108.849L152.948 108.812C149.661 114.665 149.229 121.241 149.35 125.234Z" fill="#FFDAA9"/>
<path d="M79.0186 102.293L40.3924 109.379L35.8662 109.368V109.348C35.8739 109.016 37.9249 108.394 38.2391 108.335L78.798 100.894C78.8978 100.877 78.9947 100.882 79.0863 100.911C79.3223 100.985 79.5084 101.198 79.553 101.476C79.6134 101.862 79.3745 102.228 79.0182 102.293L79.0186 102.293Z" fill="#889DBA"/>
<path d="M215.47 100.607L172.079 109.709L40.3924 109.38L35.8662 109.368H35.7588L35.8662 109.348L78.586 100.965C78.751 100.936 78.9189 100.92 79.0868 100.911C79.1367 100.908 79.1865 100.905 79.2359 100.905L215.47 100.607Z" fill="#889DBA"/>
<path d="M172.452 136.208C172.137 136.208 171.859 135.961 171.807 135.613C171.748 135.226 171.99 134.862 172.347 134.798L215.239 127.192C215.596 127.128 215.933 127.391 215.991 127.777C216.05 128.164 215.808 128.529 215.451 128.592L172.559 136.199C172.523 136.205 172.488 136.208 172.453 136.208H172.452Z" fill="#889DBA"/>
<path d="M172.452 109.611C172.137 109.611 171.859 109.365 171.807 109.017C171.748 108.63 171.99 108.265 172.347 108.202L215.239 100.595C215.596 100.531 215.933 100.794 215.991 101.18C216.05 101.567 215.808 101.932 215.451 101.995L172.559 109.602C172.523 109.608 172.488 109.611 172.453 109.611H172.452Z" fill="#889DBA"/>
<path d="M195.667 117.959C195.667 117.959 201.486 120.782 198.043 135.536L203.98 128.135L207.138 132.063C207.138 132.063 213.37 115.941 203.438 116.761L195.667 117.959H195.667Z" fill="#D38888"/>
<path d="M191.634 98.8662C191.788 100.167 192.045 101.341 192.446 102.277L160.236 107.537C160.236 107.537 158.976 106.093 157.823 103.92C157.697 103.682 157.572 103.437 157.45 103.182C156.8 101.822 156.237 100.24 156.036 98.5763C156.026 98.4979 156.016 98.4194 156.01 98.341C155.86 96.8543 156.008 95.3083 156.642 93.804C156.733 93.5884 156.834 93.3744 156.946 93.1604C157.12 92.8289 157.319 92.4991 157.546 92.1755C157.756 91.8731 157.989 91.5755 158.251 91.2789C158.727 90.7412 159.288 90.2155 159.946 89.7116L192.446 84.0469C192.446 84.0469 192.301 84.8827 192.118 86.2182C192.084 86.4712 192.049 86.7419 192.011 87.0286C191.976 87.3169 191.94 87.6192 191.903 87.9351C191.873 88.1958 191.842 88.4665 191.814 88.7454C191.685 89.9755 191.567 91.3583 191.5 92.7801C191.488 93.045 191.476 93.3115 191.467 93.5785C191.415 95.1068 191.429 96.6522 191.552 98.0844C191.574 98.3493 191.601 98.6121 191.633 98.8672L191.634 98.8662Z" fill="#F9E4DC"/>
<path d="M191.634 98.8653L157.823 103.918L157.018 104.038C156.996 104.042 156.976 104.042 156.955 104.042C156.759 104.042 156.587 103.905 156.554 103.71C156.522 103.496 156.672 103.296 156.895 103.263L157.45 103.181L191.553 98.0825C191.575 98.3474 191.601 98.6103 191.634 98.8653Z" fill="#EDD1C5"/>
<path d="M191.5 92.7793C191.488 93.0442 191.475 93.3107 191.467 93.5777L156.467 98.8072C156.447 98.8113 156.425 98.8113 156.404 98.8113C156.242 98.8113 156.096 98.7173 156.036 98.576C156.019 98.5464 156.011 98.5131 156.005 98.4799C155.997 98.4326 155.999 98.3859 156.009 98.3407C156.042 98.1859 156.171 98.0581 156.343 98.0326L191.5 92.7798V92.7793Z" fill="#EDD1C5"/>
<path d="M192.118 86.2178C192.083 86.4708 192.049 86.7414 192.01 87.0281L157.6 92.1693C157.582 92.1734 157.563 92.175 157.545 92.175H157.539C157.342 92.175 157.168 92.0358 157.138 91.8415C157.103 91.6275 157.255 91.4275 157.476 91.3942L158.25 91.2784L192.117 86.2178H192.118Z" fill="#EDD1C5"/>
<path d="M191.903 87.9346C191.873 88.1953 191.842 88.466 191.814 88.7449L157.018 93.9432C156.996 93.9453 156.976 93.9474 156.955 93.9474C156.832 93.9474 156.719 93.8923 156.641 93.804C156.597 93.751 156.566 93.6882 156.554 93.6154C156.521 93.4014 156.672 93.1993 156.895 93.1682L156.945 93.1604L191.903 87.9351V87.9346Z" fill="#EDD1C5"/>
<path d="M160.782 107.929H55.6461C54.9837 107.929 54.3658 107.607 53.9888 107.077C49.9817 101.444 50.1232 96.071 53.9178 90.1928C54.3351 89.5476 55.0705 89.1549 55.8586 89.1549L65.6074 89.1175L72.8643 89.092L160.782 88.7627C155.073 94.8768 155.525 101.287 160.782 107.929Z" fill="#D38888"/>
<path d="M70.0828 100.442C70.172 103.058 70.6905 105.646 71.5213 107.929H64.7282C64.0778 105.624 63.6888 103.162 63.6039 100.645C63.4619 96.4516 64.1531 92.554 65.6075 89.1173L72.8644 89.0918C70.324 93.1363 69.9897 97.6811 70.0828 100.441V100.442Z" fill="#FFDAA9"/>
<path d="M142.374 100.442C142.463 103.058 142.982 105.646 143.813 107.929H137.02C136.369 105.624 135.98 103.162 135.895 100.645C135.753 96.4516 136.445 92.554 137.899 89.1173L145.156 89.0918C142.616 93.1363 142.281 97.6811 142.374 100.441V100.442Z" fill="#FFDAA9"/>
<path d="M88.3823 87.053L58.1445 89.4841L54.6458 89.4763V89.4628C54.652 89.2332 56.2373 88.8036 56.48 88.7625L88.212 86.0863C88.2892 86.0743 88.364 86.0785 88.435 86.0982C88.6173 86.1491 88.7612 86.2961 88.7957 86.4883C88.8423 86.7553 88.6581 87.0083 88.3823 87.0535V87.053Z" fill="#C97777"/>
<path d="M193.489 83.4209L159.945 89.7116L58.1439 89.4841L54.6452 89.4763H54.5623L54.6452 89.4628L88.0474 86.1356C88.175 86.1159 88.3045 86.1045 88.4345 86.0982C88.4729 86.0961 88.5113 86.0941 88.5501 86.0941L193.49 83.4209H193.489Z" fill="#C97777"/>
<path d="M160.234 108.026C159.99 108.026 159.775 107.855 159.734 107.615C159.689 107.348 159.876 107.096 160.152 107.052L193.31 101.795C193.587 101.751 193.847 101.932 193.892 102.199C193.937 102.467 193.75 102.719 193.474 102.762L160.316 108.02C160.289 108.024 160.261 108.027 160.234 108.027V108.026Z" fill="#C97777"/>
<path d="M160.234 89.6439C159.99 89.6439 159.775 89.473 159.734 89.233C159.689 88.9655 159.876 88.7135 160.152 88.6699L193.31 83.4124C193.587 83.3682 193.847 83.5495 193.892 83.817C193.937 84.0846 193.75 84.3365 193.474 84.3801L160.316 89.6376C160.289 89.6418 160.261 89.6444 160.234 89.6444V89.6439Z" fill="#C97777"/>
<path d="M159.298 93.161C159.298 93.161 163.796 95.1121 161.134 105.309L165.723 100.194L168.165 102.909C168.165 102.909 172.983 91.7657 165.304 92.333L159.298 93.1605V93.161Z" fill="#896060"/>
<path d="M45.9801 88.7614L27.8601 88.5814L29.2301 82.3814L45.5101 81.2314L45.9801 88.7614Z" fill="#F1E1C5"/>
<path d="M20.2 69.6413C19.5 69.6413 19 69.7113 19 69.7113V90.0114C19.4 90.0114 19.8 90.0114 20.2 89.9814C25.51 89.7514 29.86 88.5913 29.86 88.5913L29.98 81.8314C27.36 81.3914 28.01 81.4313 26.92 80.0213C26.63 79.6513 26.38 79.2614 26.17 78.8614C26.07 78.6714 25.98 78.4914 25.89 78.2914C25.7 77.8714 25.54 77.4313 25.41 76.9913C24.87 75.2013 24.75 73.3914 24.56 72.1214C24.22 69.9614 21.72 69.6313 20.2 69.6313V69.6413Z" fill="#4F5553"/>
<path d="M20.2 69.6413C19.5 69.6413 19 69.7113 19 69.7113V90.0114C19.4 90.0114 19.8 90.0114 20.2 89.9814V69.6313V69.6413Z" fill="#B18082"/>
<path d="M124 7.05137C126.05 4.73137 131.41 7.77137 131.41 7.77137L127.13 17.4614L122.19 16.7214C122.19 16.7214 120.52 10.9714 124 7.04137V7.05137Z" fill="#191A1A"/>
<path d="M128.48 23.3315L136.03 23.6315C136.03 23.6315 134.7 27.6415 136.73 31.3215C137.4 32.5315 135.72 33.8815 133.99 34.5915C132.42 35.2415 130.42 35.1015 128.94 34.2615C127.54 33.4715 126.11 32.2615 126.35 31.8515C129.28 28.1615 128.49 23.3315 128.49 23.3315H128.48Z" fill="#F1E1C5"/>
<path d="M128.49 23.3413C128.49 23.3413 128.38 26.8613 127.48 30.1513C129.27 30.3513 131.8 30.0513 135.6 27.0113C135.61 25.2513 136.03 23.6413 136.03 23.6413L128.49 23.3413Z" fill="#DB9E79"/>
<path d="M125.25 8.29127C128.86 3.73127 138.45 5.67127 141.03 10.8413C143.62 16.0113 139.11 22.5313 136.71 24.6413C132.37 28.4513 125.1 27.7413 123.08 24.0513C121.06 20.3613 121.64 12.8513 125.25 8.29127Z" fill="#F1E1C5"/>
<path d="M123.36 11.5413C123.86 10.3713 124.48 9.26127 125.25 8.29127C128.86 3.73127 138.45 5.67127 141.03 10.8413C142.2 13.1913 141.91 15.8113 141.03 18.1813C140.23 18.4713 139.36 18.6313 138.43 18.7213C138.43 18.7213 135.05 14.8813 134.49 10.9213C134.49 10.9213 127.75 12.7013 123.35 11.5413H123.36Z" fill="#DB9E79"/>
<path d="M143.29 7.47171C141.74 5.38171 139.24 3.37171 136.17 5.33171C133.68 6.92171 136.15 16.5017 137.18 17.9917C138.59 20.0517 137.53 24.9317 138.7 22.8817C141.39 18.1517 147.62 14.0617 143.28 7.47171H143.29Z" fill="#3C423D"/>
<path d="M120.16 6.99151C120.45 4.66151 124.98 1.45151 129.52 0.851513C135.75 0.0215135 138.33 3.82151 138.42 5.35151C138.51 6.88151 138.08 9.58151 128.1 10.3215C126.14 10.4615 123.95 10.3415 123.95 10.3415C123.95 10.3415 120.02 8.06151 120.16 6.99151Z" fill="#3C423D"/>
<path d="M133.52 0.991598C132.4 0.731598 131.08 0.651598 129.52 0.861598C124.99 1.4616 120.46 4.6716 120.17 7.0016C120.15 7.1716 120.35 7.3916 120.5 7.6116C126.77 1.0916 133.89 2.1416 137.06 3.0616C136.26 2.2116 135.19 1.3816 133.52 0.991598Z" fill="#6F7B71"/>
<path d="M137.21 20.9814C137.6 19.4614 139.15 18.5414 140.67 18.9314C142.2 19.3214 143.12 20.8614 142.74 22.3814C142.35 23.9014 140.8 24.8214 139.28 24.4314C137.75 24.0414 136.83 22.5014 137.21 20.9814Z" fill="#F1E1C5"/>
<path d="M84.0798 40.2315L101.34 54.0515C103.07 55.6015 105.29 56.4915 107.61 56.5915C110.67 56.7215 113.61 55.4515 115.62 53.1615L115.99 52.9315L120.19 33.3315C118.56 34.4515 117.15 36.1615 115.75 37.4715L107.65 46.0315L89.6998 33.7615L84.0898 40.2215L84.0798 40.2315Z" fill="#B18082"/>
<path d="M153.62 81.9714L154.94 89.5514L169.78 89.4114C169.78 89.4114 167.75 85.3614 160.3 85.4714L159.58 81.9614H153.63L153.62 81.9714Z" fill="#F1E1C5"/>
<path d="M114.44 57.8016L114.95 55.7716L115.61 53.1616L115.98 52.9316L119.86 34.8216C120.07 34.6616 120.28 34.5116 120.5 34.3616C121.19 33.8916 121.9 33.4716 122.65 33.1516L126.84 30.9316H126.98C127.66 34.2016 130.97 35.7116 134.29 33.9816C136.47 32.3916 136.05 32.3116 136.62 31.0716L138.34 31.1016C140.7 31.1716 142.96 31.8816 144.89 33.1216C145.25 33.3516 145.6 33.6016 145.93 33.8716L142.37 54.7116L140.25 59.5316L133.07 75.8316C132.19 77.8316 129.91 78.8016 127.86 78.0416L117.34 71.7816C115.82 70.8816 114.52 69.6616 113.53 68.2016L109.11 61.7116L114.45 57.8116L114.44 57.8016Z" fill="white"/>
<path d="M136.03 30.2016C136.03 30.2016 128.98 60.7216 130.9 74.1116C132.82 87.5016 132.01 84.3216 138.15 86.1016C144.29 87.8816 145.48 90.0416 145.11 85.3316C144.74 80.6216 141.11 66.3416 140.89 63.9716C140.67 61.6016 142.37 54.7016 142.37 54.7016C142.37 54.7016 147.5 35.9916 145.72 33.7016C143.94 31.4116 136.21 29.3816 136.02 30.2016H136.03Z" fill="#B18082"/>
<path d="M139.27 57.1616L140.26 59.5216L142.38 54.7016L153.02 85.3316L162.92 84.9016L151.17 42.6116C150.61 40.4616 149.7 38.4616 148.5 36.6516C147.54 35.2116 146.56 34.0116 145.14 33.1016L139.26 57.1516L139.27 57.1616Z" fill="#B18082"/>
<path d="M77.5599 30.4717C78.1899 29.9317 79.9999 29.3217 81.0399 29.5217C81.4199 29.6017 82.4099 30.4017 83.2199 31.0117C84.0299 31.6117 85.8499 33.2917 85.4299 31.5617C85.0099 29.8317 84.9499 28.8917 85.3099 28.5517C85.6699 28.2117 86.6199 28.2517 86.5199 28.8017C86.4399 29.2417 86.9099 29.8317 86.9999 30.4117C87.0699 30.8917 87.2699 31.3317 87.4499 31.7817C87.6399 32.2617 88.0599 33.2517 89.3399 34.2017L84.9299 39.6417L84.3499 39.2517C82.1099 37.7317 79.9999 37.1417 78.7799 36.4417C78.4899 36.2717 78.2399 36.1317 78.0299 35.9917C76.1299 35.1517 77.2299 34.5717 77.0599 33.7717C76.8899 32.9717 76.9499 31.0117 77.5799 30.4717H77.5599Z" fill="#F1E1C5"/>
<path d="M33.4299 79.5613L61.8599 76.9313L63.3099 72.5213L72.6099 44.1313C74.0599 39.9913 77.7699 37.0613 82.1399 36.5913C85.6999 36.2113 89.2399 37.5413 91.6799 40.1613L109.12 61.6913L112.98 67.0113C114.41 68.9913 116.24 70.6413 118.35 71.8713L129.33 78.2713L125.89 83.1213C123.06 87.1113 118.48 89.4813 113.59 89.4813L33.3999 89.4413L33.4499 79.5413L33.4299 79.5613ZM78.3299 75.3613L97.4199 73.7713C97.2699 73.5613 96.8199 72.9313 96.1599 72.0113C93.5599 68.3713 87.7099 60.1813 84.1099 55.1413L77.9899 72.2913L76.8399 75.5113L78.3199 75.3713L78.3299 75.3613Z" fill="#4F5553"/>
<path d="M142.38 54.7015L140.11 46.7515L141.24 60.1615L142.38 54.7015Z" fill="#6B559A"/>
<path d="M96.1499 72.0015C96.8099 72.9215 97.2599 73.5515 97.4099 73.7615L106.48 72.3315L96.1499 72.0015Z" fill="#202020"/>
<path d="M78.3298 75.3615L76.8398 75.5015L97.4098 73.7715L78.3298 75.3615Z" fill="#334C56"/>
<path d="M61.8599 76.9317L76.8399 75.5017L77.9899 72.2817L63.3099 72.5117L61.8599 76.9317Z" fill="#202020"/>
<path d="M84.1099 55.1314V47.9614L88.2899 60.9914L84.1099 55.1314Z" fill="#202020"/>
<path d="M108.53 60.9916C108.6 61.3816 111.74 65.7016 112.05 65.7616C112.26 65.8016 114.42 63.4416 115.81 61.2816C116.08 60.8616 116.33 60.4416 116.52 60.0516C116.8 59.5016 116.97 59.0116 116.98 58.6316C117.05 56.6316 122.85 36.5016 127.46 30.1416C127.36 30.1816 120.98 32.7016 120.17 33.3216C119.35 33.9516 113.87 56.8416 113.58 57.1816C113.28 57.5216 108.45 60.5916 108.53 60.9816V60.9916Z" fill="#B18082"/>
<path d="M113.59 57.1916C113.86 58.3016 115.21 60.1016 115.81 61.2916C116.08 60.8716 114.75 57.5616 114.69 57.2916C114.49 56.4416 117.95 39.9316 118 39.6416L114.81 52.6616L113.58 57.1916H113.59Z" fill="#6B559A"/>
<path d="M83.7795 11.7566C83.7795 11.7566 82.5401 12.2961 82.39 12.0519C82.2394 11.808 88.6644 22.2335 88.6644 22.2335L103.066 24.8703C103.066 24.8703 101.766 23.738 102.21 23.3042L89.5824 21.5346C89.5824 21.5346 88.1879 15.1793 83.7795 11.7566Z" fill="#FFF2EE"/>
<path d="M95.487 40.5353L81.3909 38.0483L89.5664 22.5464L103.552 24.4906C103.737 24.5163 103.831 24.7143 103.74 24.8865L95.4873 40.5356L95.487 40.5353Z" fill="#896060"/>
<path d="M72.8739 27.1571L79.8367 37.1348C79.9291 37.2674 80.1371 37.2462 80.2229 37.0952L88.5955 22.3541C88.6378 22.28 88.6378 22.192 88.5962 22.1243L82.1419 11.6517C82.0549 11.5102 81.8403 11.5254 81.7508 11.6794L72.869 26.9155C72.8232 26.9942 72.825 27.088 72.8736 27.1575L72.8739 27.1571Z" fill="#896060"/>
<path d="M88.394 21.7959L89.566 22.5467L81.3902 38.0489L80.037 37.4218L88.394 21.7959Z" fill="#DBAEA2"/>
<path d="M83.5707 38.5734C83.2961 38.8412 75.4708 35.9048 74.4981 33.8648C73.8069 32.4144 73.7747 28.9384 76.3484 25.557C78.9223 22.1752 80.3115 21.2232 81.0568 21.7118C81.8021 22.2004 81.0224 22.9692 81.0224 22.9692L78.0335 26.2534C78.0335 26.2534 81.6445 24.0664 82.2773 24.3118C82.9101 24.5572 82.7326 25.1185 82.3139 25.5824C82.1018 25.8171 78.6053 28.2859 78.6053 28.2859C78.6053 28.2859 82.2263 27.3311 83.1839 27.2801C83.8402 27.2451 84.0415 27.672 83.855 28.3173C83.6829 28.9136 79.5458 30.7489 79.5458 30.7489C79.5458 30.7489 82.0929 30.1179 82.3599 30.2827C82.627 30.4475 82.9922 30.7994 81.8689 31.4424C80.7456 32.0854 77.2239 32.8517 77.9807 34.4346C78.2132 34.92 83.5704 38.5738 83.5704 38.5738L83.5707 38.5734Z" fill="#F1E1C5"/>
</svg>
