<svg width="194" height="168" viewBox="0 0 194 168" fill="none" xmlns="http://www.w3.org/2000/svg">
<path d="M13.2165 92.1704C35.5165 128.33 72.3565 155.41 113.696 165.41C120.096 166.96 126.776 168.12 133.256 166.89C139.726 165.66 146.006 161.6 148.266 155.41C148.926 153.59 149.216 151.78 149.226 149.95C100.076 143.68 48.2565 127.2 13.2265 92.1704H13.2165Z" fill="#C8E4F7"/>
<path d="M176.426 29.7806C175.456 16.5706 165.696 9.6406 153.206 8.2806C137.026 6.5206 123.116 14.0406 108.896 20.3506C89.2065 29.1006 67.5565 33.4606 46.0065 32.5106C31.5265 31.8806 14.3865 29.9906 5.10646 41.1206C-3.81354 51.8106 0.41646 68.0306 6.67646 80.4706C8.68646 84.4606 10.8665 88.3606 13.2165 92.1606C48.2465 127.191 100.066 143.671 149.216 149.941C149.256 141.691 143.506 133.421 139.936 125.431C132.096 107.871 135.336 85.9106 147.896 71.3606C158.946 58.5606 177.866 49.3406 176.426 29.7606V29.7806Z" fill="#C8ECF7"/>
<path d="M33.1065 53.4304L32.7965 53.0304C30.8865 47.2604 32.3665 42.7205 36.6365 39.2105C39.0765 31.6605 43.7665 28.1604 49.8565 27.1704C47.9165 20.0104 58.7665 13.0004 64.8665 15.7304C71.7565 2.13041 96.3965 -1.5196 113.076 5.4704L113.296 4.93042C126.016 2.85042 137.666 5.08042 147.466 14.8604C154.366 13.5304 166.376 17.6904 174.946 30.1604C181.446 32.6504 185.276 37.4304 185.336 45.4504L184.556 45.5104C192.086 50.7304 195.356 57.1704 188.406 66.5004C188.426 67.1204 188.416 67.7604 188.406 68.4204C190.136 74.0304 188.786 77.5105 183.196 78.0805C182.806 89.2105 173.916 92.5104 156.516 87.9404L155.536 87.9204C154.946 91.2604 152.216 94.6604 146.436 98.1204C144.036 98.3204 141.776 98.3804 139.656 98.3204V98.3404C132.146 102.44 123.116 101.89 112.176 95.5205C110.286 94.4205 108.326 93.1504 106.326 91.6904C105.106 91.5004 103.906 91.3104 102.716 91.1004C95.5565 89.8704 88.9665 88.2804 83.5965 85.9304C71.7465 87.3704 60.6365 86.3904 50.8365 81.0704C48.9765 81.4204 47.2465 81.6004 45.6565 81.6104C38.4865 81.6404 33.9565 78.2704 31.8465 71.7604C26.4865 65.4804 27.9365 57.6304 33.1265 53.4404L33.1065 53.4304Z" fill="#F9D2DF"/>
<path d="M112.156 95.5103L111.926 95.9003C110.166 100.08 106.256 103.4 99.4265 105.54L81.5765 124.1C77.1965 130.15 69.7365 127.68 72.6965 122.51C76.6765 118.09 80.0765 111.77 78.7765 109.36L78.7965 109.09C86.6265 109.76 91.7365 106.42 94.4665 99.5703C99.5765 97.2603 102.006 94.3603 102.686 91.0703C103.876 91.2803 105.086 91.4803 106.296 91.6603C108.306 93.1103 110.256 94.3903 112.146 95.4903L112.156 95.5103Z" fill="#F2C1CE"/>
<path d="M102.696 91.0905C102.016 94.3805 99.5865 97.2805 94.4765 99.5905C91.7365 106.441 86.6365 109.771 78.8065 109.111C75.8965 108.861 72.6065 108.061 68.9165 106.671C52.4765 105.211 43.3065 98.0805 45.6465 81.9905V81.6005C47.2265 81.6005 48.9665 81.4105 50.8165 81.0605C60.6165 86.3805 71.7265 87.3605 83.5765 85.9205C88.9465 88.2705 95.5465 89.8505 102.696 91.0905Z" fill="#F2C1CE"/>
<path d="M139.546 98.3305V98.3604C132.046 102.46 123.006 101.9 112.066 95.5404C110.176 94.4404 108.216 93.1705 106.216 91.7105C104.996 91.5205 103.796 91.3204 102.606 91.1104C95.4565 89.8804 88.8565 88.2904 83.4865 85.9404C71.6365 87.3804 60.5165 86.4005 50.7265 81.0805C48.8665 81.4305 47.1465 81.6004 45.5565 81.6104C38.3865 81.6404 33.8565 78.2704 31.7365 71.7604C26.3765 65.4804 27.8265 57.6304 33.0065 53.4404L32.7065 53.0504C30.7965 47.2804 32.2765 42.7404 36.5465 39.2204C38.9865 31.6704 43.6765 28.1704 49.7665 27.1904C47.8265 20.0204 58.6765 13.0204 64.7765 15.7504C71.6665 2.15043 96.3065 -1.49958 112.986 5.49042L113.206 4.95044C125.926 2.87044 137.576 5.10043 147.376 14.8704C154.276 13.5404 166.286 17.7004 174.856 30.1704C181.356 32.6704 185.186 37.4505 185.246 45.4605L184.466 45.5104C191.996 50.7404 195.266 57.1705 188.316 66.5205C188.336 67.1405 188.326 67.7804 188.316 68.4404C190.046 74.0404 188.696 77.5304 183.106 78.0904C182.716 89.2204 173.826 92.5205 156.426 87.9605L155.446 87.9404C154.856 91.2804 152.126 94.6704 146.346 98.1404C143.946 98.3304 141.686 98.4004 139.566 98.3404L139.546 98.3305Z" fill="#F9D2DF"/>
<path d="M112.066 95.5406L111.836 95.9306C110.076 100.111 106.176 103.431 99.3365 105.571L81.4865 124.131C77.1065 130.181 69.6465 127.711 72.6065 122.541C76.5865 118.121 79.9865 111.801 78.6865 109.391L78.7065 109.121C86.5365 109.791 91.6465 106.451 94.3865 99.6006C99.4965 97.2906 101.926 94.3906 102.606 91.1006C103.796 91.3106 105.006 91.5106 106.216 91.7006C108.226 93.1506 110.176 94.4306 112.066 95.5306V95.5406Z" fill="#F2C1CE"/>
<path d="M102.596 91.1104C101.916 94.4004 99.4865 97.3004 94.3765 99.6104C91.6365 106.46 86.5265 109.8 78.6965 109.13C75.7865 108.88 72.4965 108.08 68.8065 106.69C52.3665 105.23 43.2065 98.1004 45.5365 82.0104V81.6204C47.1265 81.6204 48.8465 81.4403 50.7065 81.0903C60.5065 86.4103 71.6165 87.3804 83.4665 85.9504C88.8365 88.3004 95.4365 89.8804 102.586 91.1204L102.596 91.1104Z" fill="#F2C1CE"/>
<path d="M153.316 85.1205C153.506 84.8605 153.706 84.6004 153.896 84.3404C155.356 82.2504 151.936 80.2804 150.486 82.3504C146.086 88.6604 139.016 92.6305 131.356 93.1705C131.326 93.1705 131.306 93.1504 131.276 93.1504C129.216 92.7804 127.426 91.9704 125.656 90.8504C124.816 90.3204 120.686 88.0105 121.406 86.8105C121.986 85.8505 121.646 84.9205 120.976 84.3805C120.706 83.7805 120.136 83.3305 119.256 83.3605C116.056 83.5005 112.906 83.2204 109.816 82.3404C107.386 81.6504 103.616 80.6105 102.736 77.9305C101.936 75.5305 98.1265 76.5604 98.9265 78.9804C99.6265 81.0804 101.056 82.6804 102.896 83.9004C102.666 83.8304 102.426 83.7605 102.196 83.6905C102.036 83.6405 101.876 83.6005 101.716 83.5505C101.636 83.4405 101.546 83.3405 101.456 83.2405C100.136 81.8205 98.3565 80.7805 96.4765 80.3105C95.1665 79.9805 93.6965 80.4205 92.7765 81.3805C90.4065 80.9605 88.0165 80.6804 85.5965 80.5904C85.1965 79.4204 84.1765 78.5205 82.5365 78.6305C82.3665 78.6405 82.1965 78.6504 82.0365 78.6604C81.9065 78.5604 81.7765 78.4705 81.6265 78.3905C81.3365 78.2705 81.0465 78.1405 80.7465 78.0205C80.0965 77.8505 79.4565 77.8505 78.8065 78.0205C78.6865 77.6505 78.5165 77.2904 78.2865 76.9804C78.3465 76.6004 78.2865 76.1905 78.0765 75.7605C76.6465 72.9505 73.7565 72.1904 71.1965 70.7304C69.3465 69.6804 67.5965 68.4304 65.8165 67.2804C65.4865 67.0704 64.8065 66.7104 64.0465 66.2804C63.0965 65.3204 62.1965 64.3104 61.3665 63.2304C61.1565 62.9604 60.9165 62.7705 60.6565 62.6405C59.5765 61.4205 57.0765 61.8204 57.1965 63.8504C57.2465 64.7904 57.5565 65.6005 58.0265 66.3105C57.3165 66.7005 56.8065 67.4704 57.0065 68.4804C57.2765 69.8304 57.9065 70.9604 58.7565 71.9004C58.5365 71.9204 58.3165 71.9404 58.0865 71.9804C58.0565 71.9804 58.0365 71.9805 58.0065 71.9905C57.3665 70.6705 55.8465 69.8205 54.0965 70.1205C53.7365 70.1805 53.3765 70.2604 53.0265 70.3404C53.2865 69.0804 52.2765 67.4905 50.6165 67.8905C46.9365 68.7705 43.1065 68.3605 39.4165 67.7505C35.6165 67.1305 33.6865 64.7805 32.3665 61.3005C31.4765 58.9505 27.6565 59.9704 28.5565 62.3504C29.2765 64.2504 30.1965 66.1104 31.4465 67.6504C30.9865 68.3604 30.8665 69.3304 31.5165 70.1604C34.1765 73.5504 36.9365 78.9605 41.2365 80.3805C44.9365 81.6005 49.0565 82.1205 53.0665 82.5205C53.7765 83.3605 54.9365 83.8805 56.4365 83.6205C57.7265 83.4005 59.0065 83.1405 60.2865 82.8705C59.7765 86.5205 64.2965 88.6004 66.4865 85.3404C66.4865 85.3304 66.5065 85.3205 66.5165 85.3005C69.8165 85.5605 73.1165 85.6605 76.4265 85.6205C76.7465 85.8805 77.1165 86.0604 77.5265 86.1604C78.1765 86.3104 78.8865 86.3304 79.5365 86.1504C80.1265 86.3304 80.7165 86.4904 81.3165 86.6504C81.9065 87.3704 82.7965 87.8705 84.0165 87.8705C89.5965 87.8805 94.9365 89.1405 100.246 90.7605C105.316 92.3105 110.686 93.7505 115.176 96.6405C116.176 97.2805 117.156 97.3605 118.006 97.0805C118.326 97.7005 118.896 98.2004 119.606 98.4704C121.986 99.3804 124.406 100.21 126.846 100.96C127.246 101.08 127.616 101.11 127.946 101.06C128.346 101.45 128.906 101.71 129.636 101.71C132.266 101.71 132.776 98.4105 131.166 97.1305C131.166 97.1305 131.166 97.1305 131.176 97.1305C133.156 97.0105 135.076 96.6805 136.946 96.1905C137.076 97.0405 137.696 97.7605 138.816 97.6705C145.336 97.1405 151.046 93.6005 154.236 87.8605C154.886 86.6805 154.236 85.5805 153.306 85.1205H153.316ZM112.246 86.9905C114.026 87.2305 115.766 87.3304 117.336 87.3404C117.406 88.3204 117.846 89.2405 118.486 90.0605C116.526 88.8405 114.416 87.8505 112.246 86.9905ZM120.976 93.5705C120.846 93.5205 120.716 93.4904 120.586 93.4704C120.606 92.9104 120.506 92.3505 120.256 91.8205C120.376 91.9205 120.496 92.0104 120.616 92.1004C122.016 93.1604 123.456 94.1705 124.986 95.0105C123.636 94.5505 122.296 94.0805 120.966 93.5705H120.976Z" fill="#F2C1CE"/>
<path d="M185.356 70.8804C181.216 73.4604 177.406 76.7504 172.616 78.0604C167.616 79.4204 162.316 78.9904 157.216 78.6504C153.766 78.4204 153.616 83.5304 156.736 84.2204C156.486 85.7704 157.376 87.6004 159.406 87.7004C163.616 87.9104 167.896 88.1304 172.116 87.9704C175.156 87.8604 178.056 87.1804 180.216 84.9204C181.476 83.6004 181.096 81.9404 180.096 80.9404C182.866 79.3704 185.466 77.4604 188.196 75.7504C191.266 73.8304 188.436 68.9504 185.346 70.8804H185.356Z" fill="#F2C1CE"/>
<path d="M154.206 35.5505C149.816 32.6605 145.866 36.0805 141.516 36.5705C140.976 36.5705 140.436 36.5705 139.896 36.6005C137.336 36.7105 137.376 40.3405 139.896 40.5505C140.396 40.5905 140.886 40.5905 141.366 40.5505C144.496 40.6105 151.266 40.8905 151.236 41.4405C151.116 43.4105 153.466 43.8405 154.596 42.7505C155.296 45.0105 155.446 47.6305 155.416 49.3205C155.386 51.8605 159.336 51.8605 159.366 49.3205C159.426 44.6905 158.436 38.3305 154.206 35.5405V35.5505Z" fill="#F2C1CE"/>
<path d="M120.306 24.1507C112.066 14.6507 100.036 7.03073 87.0465 10.8507C86.3165 11.0607 85.9065 11.5608 85.7465 12.1208C85.6565 11.9408 85.5365 11.7607 85.3665 11.6007C84.0965 10.3407 82.4965 9.61074 81.3265 8.23074C80.2365 6.94074 79.2065 5.90078 77.6065 5.27078C76.3665 4.79078 75.4965 5.61075 75.2865 6.62075C74.8265 6.53075 74.2765 6.59073 73.8865 6.84073C73.6265 7.01073 73.3965 7.23075 73.2265 7.49075C72.8165 7.73075 72.4365 8.20073 72.3265 8.66073C72.2065 9.17073 72.2365 9.73075 72.5265 10.1808C72.7865 10.5908 73.2065 11.0007 73.7065 11.0907C74.2465 11.1907 74.6765 11.2107 75.2165 11.0907C75.3765 11.0507 75.5165 10.9907 75.6765 10.9207C75.8565 10.8507 76.0065 10.7907 76.1565 10.6707C76.5665 10.3707 76.9465 10.0107 77.0665 9.49075C77.0665 9.45075 77.0764 9.41075 77.0864 9.37075C77.8564 9.93075 78.4365 10.9308 79.0365 11.5708C80.0765 12.7008 81.5064 13.3108 82.5864 14.3808C83.7764 15.5708 85.3964 14.7407 85.8364 13.5307C86.1664 14.3607 86.9864 14.9707 88.0964 14.6507C93.8565 12.9507 99.3264 13.8808 104.266 16.2608C103.926 16.9208 103.956 17.7207 104.706 18.3607C105.876 19.3607 107.016 20.3908 108.116 21.4608C108.796 22.1208 109.936 22.9808 110.626 23.8808C110.446 25.2008 111.956 26.7807 113.626 26.0407C113.756 25.9807 113.886 25.9308 114.006 25.8708C114.576 25.6208 114.966 24.8708 114.986 24.1908C115.866 25.0808 116.716 25.9907 117.516 26.9207C119.186 28.8407 121.966 26.0408 120.306 24.1308V24.1507Z" fill="#F2C1CE"/>
<path d="M74.6465 20.0705C71.0065 20.6505 66.5165 20.6705 63.1965 22.4005C60.3465 23.8805 57.6565 25.6605 56.6865 28.8105C55.9365 31.2405 59.7465 32.2805 60.4965 29.8605C60.8865 28.6105 62.2265 27.4605 63.7165 26.6105C63.7165 26.6405 63.7165 26.6705 63.7265 26.6905C64.0265 27.7905 65.1065 28.2605 66.1565 28.0705C66.5865 27.9905 67.0165 27.9305 67.4565 27.8905C67.7865 27.9805 68.1465 27.9905 68.5065 27.9305C68.8765 27.8605 69.2365 27.8005 69.6065 27.7305C70.5565 27.5605 71.1565 26.4505 71.0165 25.5605C70.9665 25.2205 70.8265 24.9105 70.6265 24.6405C72.3165 24.3805 74.0165 24.1405 75.6965 23.8805C78.1965 23.4805 77.1365 19.6805 74.6465 20.0705Z" fill="#F2C1CE"/>
<path d="M53.6365 32.2903C48.6765 31.6203 43.2065 31.8003 39.4565 35.5903C35.9965 39.0903 33.4765 44.8903 32.9865 49.7403C32.7265 52.2603 36.6765 52.2503 36.9365 49.7403C37.3065 46.1103 39.3765 42.0904 41.5765 39.2004C44.1765 35.7904 48.6565 35.5703 52.5865 36.1003C55.0665 36.4403 56.1465 32.6303 53.6365 32.2903Z" fill="#F2C1CE"/>
<path d="M64.2064 43.1004C61.4864 44.8204 56.8464 44.4604 53.7564 44.1204C50.1364 43.7204 46.7865 42.4804 43.8065 40.3704C41.8665 39.0004 40.0264 41.8804 41.4564 43.4604C39.5464 44.7604 37.5765 47.8704 39.5765 49.8604C40.6265 50.9104 42.2264 50.7604 43.5964 50.7704C45.4864 50.7904 47.3664 50.7704 49.2564 50.6904C50.7064 50.6404 51.7365 48.7704 51.0165 47.6404C51.9165 47.8204 52.8365 47.9704 53.7665 48.0604C55.8265 48.2704 58.2665 48.4204 60.6065 48.1904C60.8365 48.9004 61.4265 49.4904 62.4065 49.4904C63.7165 49.4904 64.3464 48.4304 64.3064 47.4104C64.9864 47.1704 65.6264 46.8704 66.2064 46.5004C68.3464 45.1404 66.3665 41.7304 64.2165 43.0904L64.2064 43.1004Z" fill="#F2C1CE"/>
<path d="M137.156 78.6107C132.256 72.9607 122.616 67.5907 115.036 70.7507C110.876 63.9207 103.526 59.7607 95.5165 59.7407C92.9765 59.7407 92.9765 63.6807 95.5165 63.6907C102.156 63.7007 108.226 67.1107 111.666 72.8007C112.026 73.3907 112.536 73.6707 113.066 73.7207C113.496 74.7007 114.626 75.4007 115.836 74.7307C121.916 71.3407 130.466 76.9107 134.366 81.4007C136.036 83.3207 138.816 80.5207 137.156 78.6107Z" fill="#F2C1CE"/>
<path d="M136.776 58.2304C133.406 55.2804 129.496 53.3904 125.326 51.8404C120.986 50.2304 116.496 48.5204 111.806 48.5704C109.266 48.5904 109.256 52.5404 111.806 52.5204C113.736 52.5004 115.626 52.8404 117.476 53.3504C116.546 54.3304 116.576 56.2404 118.276 56.6404L119.626 56.9604C121.046 58.6604 123.416 59.2404 125.516 59.8604C128.736 60.8104 132.036 61.3304 135.376 61.6004C137.056 61.7304 138.026 59.3304 136.776 58.2304Z" fill="#F2C1CE"/>
<path d="M58.5865 62.2803C58.1965 64.7503 57.2365 66.5803 55.6965 67.7503C54.1565 68.9203 52.0465 69.4503 49.3665 69.3303" stroke="#E1A5B9" stroke-width="3.38" stroke-linecap="round" stroke-linejoin="round"/>
<path d="M150.556 76.6405C157.196 83.6005 158.806 90.6805 146.426 98.1105C132.166 99.2605 122.816 95.8705 117.656 88.6005C110.686 88.6705 104.336 85.6905 98.7865 78.7405C90.7465 80.8805 83.0665 79.7005 75.8565 73.8805C67.1265 76.7705 60.1765 75.3105 55.6965 67.7505" stroke="#E1A5B9" stroke-width="3.38" stroke-linecap="round" stroke-linejoin="round"/>
<path d="M127.166 54.2803C124.566 55.3903 123.736 57.9403 124.596 61.8703C135.846 61.1103 146.006 62.4703 150.186 75.3803" stroke="#E1A5B9" stroke-width="3.38" stroke-linecap="round" stroke-linejoin="round"/>
<path d="M88.3864 38.9707C91.6564 45.3807 90.8564 50.3107 84.4164 53.1707" stroke="#E1A5B9" stroke-width="3.38" stroke-linecap="round" stroke-linejoin="round"/>
<path d="M124.596 61.8705C114.906 51.4605 103.346 46.7705 89.9365 47.7905" stroke="#E1A5B9" stroke-width="3.38" stroke-linecap="round" stroke-linejoin="round"/>
<path d="M139.636 98.3304C130.836 103.14 119.926 101.54 106.296 91.6804C97.7565 90.3604 89.8265 88.6604 83.5665 85.9204C71.7165 87.3604 60.5965 86.3804 50.8065 81.0604C40.5965 82.9804 34.4065 79.6904 31.8165 71.7404C22.8065 61.1804 33.0365 46.2204 47.9065 51.5604C60.4865 43.3504 75.4465 54.9904 72.5965 63.4404" stroke="#E1A5B9" stroke-width="3.38" stroke-linecap="round" stroke-linejoin="round"/>
<path d="M102.746 90.8407C102.136 94.2307 99.7165 97.2207 94.4765 99.5907C90.7265 108.991 82.4965 111.781 68.9165 106.671C52.4765 105.211 43.3065 98.0807 45.6465 81.9907" stroke="#E1A5B9" stroke-width="3.38" stroke-linecap="round" stroke-linejoin="round"/>
<path d="M78.7765 109.37C80.0765 111.78 76.6765 118.09 72.6965 122.51C69.7365 127.68 77.1965 130.15 81.5765 124.1L99.4265 105.54C106.266 103.4 110.176 100.08 111.926 95.9004" stroke="#E1A5B9" stroke-width="3.38" stroke-linecap="round" stroke-linejoin="round"/>
<path d="M133.146 83.3403C129.226 74.5403 124.076 73.0604 112.576 74.5004C108.956 67.9104 99.9465 62.6104 91.5365 61.8804" stroke="#E1A5B9" stroke-width="3.38" stroke-linecap="round" stroke-linejoin="round"/>
<path d="M140.646 80.7007C135.646 80.8907 132.966 83.5907 132.696 88.8907" stroke="#E1A5B9" stroke-width="3.38" stroke-linecap="round" stroke-linejoin="round"/>
<path d="M172.006 46.7007C181.636 49.0707 188.786 54.3406 188.406 68.4106C190.136 74.0106 188.786 77.5007 183.196 78.0707C182.796 89.2007 173.916 92.5007 156.516 87.9407" stroke="#E1A5B9" stroke-width="3.38" stroke-linecap="round" stroke-linejoin="round"/>
<path d="M181.816 43.7407C191.206 49.2807 196.146 56.0807 188.396 66.4907" stroke="#E1A5B9" stroke-width="3.38" stroke-linecap="round" stroke-linejoin="round"/>
<path d="M185.336 45.4305C185.276 37.4205 181.446 32.6405 174.946 30.1405C159.856 8.19052 134.106 12.0105 144.356 26.1205" stroke="#E1A5B9" stroke-width="3.38" stroke-linecap="round" stroke-linejoin="round"/>
<path d="M136.436 33.2505C138.956 38.3505 136.536 41.9505 127.816 43.6305" stroke="#E1A5B9" stroke-width="3.38" stroke-linecap="round" stroke-linejoin="round"/>
<path d="M158.136 53.4605C155.116 41.9105 147.286 39.5004 137.876 40.0804" stroke="#E1A5B9" stroke-width="3.38" stroke-linecap="round" stroke-linejoin="round"/>
<path d="M172.206 38.5605C173.776 44.2205 172.606 47.8105 168.926 49.5005" stroke="#E1A5B9" stroke-width="3.38" stroke-linecap="round" stroke-linejoin="round"/>
<path d="M162.106 61.9707C164.406 67.4407 169.076 69.5207 176.206 68.0807" stroke="#E1A5B9" stroke-width="3.38" stroke-linecap="round" stroke-linejoin="round"/>
<path d="M151.776 77.6803C158.866 78.9503 164.256 75.7103 167.886 67.8203" stroke="#E1A5B9" stroke-width="3.38" stroke-linecap="round" stroke-linejoin="round"/>
<path d="M119.316 26.2207C112.456 26.0507 108.166 29.0307 107.266 36.1607" stroke="#E1A5B9" stroke-width="3.38" stroke-linecap="round" stroke-linejoin="round"/>
<path d="M89.1465 18.6903C81.3565 9.72031 73.2665 8.68028 64.8565 15.7203C58.7665 12.9903 47.9065 20.0003 49.8565 27.1603C43.7665 28.1403 39.0765 31.6503 36.6365 39.2003C32.3565 42.7103 30.8865 47.2503 32.7965 53.0203" stroke="#E1A5B9" stroke-width="3.38" stroke-linecap="round" stroke-linejoin="round"/>
<path d="M110.776 27.7906C103.646 14.9506 94.8065 11.9906 84.9965 14.6906" stroke="#E1A5B9" stroke-width="3.38" stroke-linecap="round" stroke-linejoin="round"/>
<path d="M77.1964 22.1206C70.7764 22.2006 68.7864 28.2006 73.5464 33.2706" stroke="#E1A5B9" stroke-width="3.38" stroke-linecap="round" stroke-linejoin="round"/>
<path d="M70.2965 41.6504C66.1865 44.0904 64.5465 47.2204 65.9765 51.2204" stroke="#E1A5B9" stroke-width="3.38" stroke-linecap="round" stroke-linejoin="round"/>
<path d="M37.2165 50.6007C37.5765 39.8707 44.3965 35.8906 54.4165 35.2806C57.8965 28.4106 62.8565 25.8807 69.8865 29.3807" stroke="#E1A5B9" stroke-width="3.38" stroke-linecap="round" stroke-linejoin="round"/>
<path d="M125.286 14.7106C112.876 -2.81943 73.8365 -1.96947 64.8665 15.7305" stroke="#E1A5B9" stroke-width="3.38" stroke-linecap="round" stroke-linejoin="round"/>
<path d="M147.656 15.0303C137.816 5.10034 126.096 2.83036 113.296 4.93036" stroke="#E1A5B9" stroke-width="3.38" stroke-linecap="round" stroke-linejoin="round"/>
<path opacity="0.52" d="M81.5565 87.8505C92.2211 87.8505 100.866 79.2051 100.866 68.5405C100.866 57.8758 92.2211 49.2305 81.5565 49.2305C70.8918 49.2305 62.2465 57.8758 62.2465 68.5405C62.2465 79.2051 70.8918 87.8505 81.5565 87.8505Z" fill="#67617D"/>
<path d="M80.5765 43.8208C66.9865 44.4508 56.4365 56.0307 57.0665 69.6207C57.3165 75.0907 59.3465 80.0608 62.5565 84.0108L20.4165 130.261C19.4965 131.271 19.5765 132.841 20.5765 133.751L22.2765 135.301C23.2865 136.221 24.8565 136.141 25.7665 135.141L67.8965 88.9107C72.1565 91.8007 77.3465 93.3808 82.8665 93.1308C96.4565 92.5008 107.006 80.9208 106.376 67.3308C105.746 53.7408 94.1665 43.1908 80.5765 43.8208ZM82.5765 86.9608C72.3665 87.4308 63.7165 79.5407 63.2365 69.3407C62.7665 59.1307 70.6565 50.4807 80.8565 50.0007C91.0665 49.5307 99.7165 57.4207 100.196 67.6207C100.666 77.8307 92.7765 86.4808 82.5765 86.9608Z" fill="#67617D"/>
<path d="M52.5667 108.999C54.7354 106.619 54.5657 102.933 52.1878 100.766C49.8099 98.5993 46.1241 98.7721 43.9555 101.152L21.0421 126.298C18.8734 128.678 19.0431 132.364 21.421 134.531C23.7989 136.698 27.4847 136.525 29.6533 134.145L52.5667 108.999Z" fill="#696969"/>
<path opacity="0.52" d="M90.8665 55.3808C89.3765 54.3208 87.0965 55.1207 86.2365 56.5907C85.2465 58.2907 85.9565 60.1507 87.4465 61.2207C89.1265 62.4207 90.1065 64.4308 90.1865 66.4608C90.3665 70.8008 97.1365 70.8208 96.9565 66.4608C96.7665 61.8908 94.5665 58.0207 90.8665 55.3707V55.3808Z" fill="#F2F2F2"/>
</svg>
