<svg width="214" height="199" viewBox="0 0 214 199" fill="none" xmlns="http://www.w3.org/2000/svg">
<path d="M186.333 40.4254C198.383 21.2754 148.583 4.38541 120.993 1.01541C93.4134 -2.35459 65.6734 3.17542 39.3234 10.0854C22.5334 14.4854 3.51338 21.7754 0.40338 36.4454C-1.98662 47.7354 6.58339 59.0054 17.1334 66.5054C27.6834 74.0054 40.3734 79.0554 51.0134 86.4654C57.4434 90.9454 63.2034 96.7654 66.3134 103.185C100.343 97.7754 134.613 94.3054 169.073 93.0054C168.463 74.3954 174.083 55.7354 186.343 40.4354L186.333 40.4254Z" fill="#C8ECF7"/>
<path d="M205.813 147.886C186.393 137.946 187.303 146.886 171.903 112.106C170.223 105.836 169.273 99.4156 169.053 92.9956C134.593 94.2956 100.323 97.7556 66.2934 103.176C68.3334 107.366 69.2334 111.816 68.4534 116.306C66.2034 129.146 51.6834 137.106 39.4634 144.796C27.2434 152.486 15.0934 164.596 20.0534 177.036C24.1634 187.336 38.0334 192.236 50.5334 194.706C99.6134 204.416 152.593 195.906 193.733 172.636C206.863 165.216 224.483 157.446 205.813 147.896V147.886Z" fill="#C8E4F7"/>
<path d="M168.093 40.6953H36.3234C29.696 40.6953 24.3234 46.0679 24.3234 52.6953V144.125C24.3234 150.753 29.696 156.125 36.3234 156.125H168.093C174.721 156.125 180.093 150.753 180.093 144.125V52.6953C180.093 46.0679 174.721 40.6953 168.093 40.6953Z" fill="#252C30"/>
<path d="M152.133 117.595C161.863 98.8754 167.113 79.5954 172.493 60.1754V50.2954C172.493 49.1954 171.593 48.2954 170.493 48.2954H33.9234C32.8234 48.2954 31.9234 49.1954 31.9234 50.2954V146.535C31.9234 147.635 32.8234 148.535 33.9234 148.535H117.463C131.313 141.385 143.953 132.315 152.133 117.595Z" fill="#669D60"/>
<path d="M152.133 117.595C143.953 132.315 131.323 141.385 117.463 148.535H170.493C171.593 148.535 172.493 147.635 172.493 146.535V60.1753C167.113 79.5953 161.863 98.8753 152.133 117.595Z" fill="#4F8551"/>
<path d="M115.073 77.6655C116.533 77.6655 117.993 77.6655 119.453 77.6655" stroke="white" stroke-width="1.14" stroke-linecap="round" stroke-linejoin="round"/>
<path d="M109.273 104.635H113.653" stroke="white" stroke-width="1.14" stroke-linecap="round" stroke-linejoin="round"/>
<path d="M109.273 106.655H113.653" stroke="white" stroke-width="1.14" stroke-linecap="round" stroke-linejoin="round"/>
<path d="M85.8934 65.2255C85.5634 64.9955 85.0834 65.0055 84.7534 65.2455C84.4234 65.4855 84.2734 65.9355 84.3934 66.3255C84.9634 66.5455 85.6634 66.0255 85.6234 65.4155C85.8934 66.1155 86.1634 66.8155 86.4334 67.5155" stroke="white" stroke-width="1.14" stroke-linecap="round" stroke-linejoin="round"/>
<path d="M70.8034 79.1657C77.7434 79.0557 84.6934 78.9457 91.6334 78.8257" stroke="white" stroke-width="1.14" stroke-linecap="round" stroke-linejoin="round"/>
<path d="M82.7034 82.0957L83.3234 86.3657C83.7534 85.7357 84.1834 85.0957 84.6234 84.4657C84.8934 84.7257 85.1634 84.9957 85.3134 85.3457C85.4634 85.6957 85.4334 86.1357 85.1634 86.3957C84.8134 86.7257 84.1334 86.5257 84.0134 86.0657" stroke="white" stroke-width="1.14" stroke-linecap="round" stroke-linejoin="round"/>
<path d="M94.8634 76.2554H99.2434" stroke="white" stroke-width="1.14" stroke-linecap="round" stroke-linejoin="round"/>
<path d="M94.6534 79.4855L98.8534 79.3555" stroke="white" stroke-width="1.14" stroke-linecap="round" stroke-linejoin="round"/>
<path d="M115.153 80.2457L119.353 80.1157" stroke="white" stroke-width="1.14" stroke-linecap="round" stroke-linejoin="round"/>
<path d="M106.953 76.6356C106.373 75.9356 105.383 75.6456 104.483 75.8056C103.583 75.9656 102.793 76.5256 102.233 77.2456C101.593 78.0756 101.233 79.1456 101.423 80.1756C101.613 81.2056 102.413 82.1356 103.443 82.3256C104.653 82.5456 105.873 81.7256 106.493 80.6556C107.113 79.5856 107.263 78.3156 107.403 77.0956C108.373 78.9556 109.663 80.6556 111.203 82.0956" stroke="white" stroke-width="1.14" stroke-linecap="round" stroke-linejoin="round"/>
<path d="M78.4634 67.5555C77.8834 66.8555 76.8934 66.5655 75.9934 66.7255C75.0934 66.8855 74.3034 67.4455 73.7434 68.1655C73.1034 68.9955 72.7434 70.0655 72.9334 71.0955C73.1234 72.1255 73.9234 73.0555 74.9534 73.2455C76.1634 73.4655 77.3834 72.6455 78.0034 71.5755C78.6234 70.5055 78.7734 69.2355 78.9134 68.0155C79.8834 69.8755 81.1734 71.5755 82.7134 73.0155" stroke="white" stroke-width="1.14" stroke-linecap="round" stroke-linejoin="round"/>
<path d="M78.4634 86.9857C77.8834 86.2857 76.8934 85.9957 75.9934 86.1557C75.0934 86.3157 74.3034 86.8757 73.7434 87.5957C73.1034 88.4257 72.7434 89.4957 72.9334 90.5257C73.1234 91.5557 73.9234 92.4857 74.9534 92.6757C76.1634 92.8957 77.3834 92.0757 78.0034 91.0057C78.6234 89.9357 78.7734 88.6657 78.9134 87.4457C79.8834 89.3057 81.1734 91.0057 82.7134 92.4457" stroke="white" stroke-width="1.14" stroke-linecap="round" stroke-linejoin="round"/>
<path d="M127.653 75.9857C127.073 75.2857 126.083 74.9957 125.183 75.1557C124.283 75.3157 123.493 75.8757 122.933 76.5957C122.293 77.4257 121.933 78.4957 122.123 79.5257C122.313 80.5557 123.113 81.4857 124.143 81.6757C125.353 81.8957 126.573 81.0757 127.193 80.0057C127.813 78.9357 127.963 77.6657 128.103 76.4457C129.073 78.3057 130.363 80.0057 131.903 81.4457" stroke="white" stroke-width="1.14" stroke-linecap="round" stroke-linejoin="round"/>
<path d="M108.733 72.0854C108.883 73.3554 109.023 74.6254 109.173 75.8954C109.233 75.5654 109.303 75.2454 109.363 74.9154C109.793 74.9154 110.213 75.1155 110.483 75.4455C110.363 76.0455 109.453 76.2755 109.063 75.8055" stroke="white" stroke-width="1.14" stroke-linecap="round" stroke-linejoin="round"/>
<path d="M112.813 74.5958C112.643 74.5358 112.433 74.7157 112.483 74.8957C112.583 74.8357 112.693 74.7657 112.793 74.7057C112.733 74.6657 112.673 74.6258 112.623 74.5958" stroke="white" stroke-width="0.73" stroke-linecap="round" stroke-linejoin="round"/>
<path d="M115.383 72.6756C115.473 72.4356 115.743 72.2756 115.993 72.2956C116.243 72.3156 116.473 72.5257 116.523 72.7857C116.583 73.0957 116.373 73.4056 116.103 73.5756C115.833 73.7456 115.513 73.7956 115.193 73.8456C115.513 73.9956 115.723 74.3456 115.723 74.7056C115.723 75.0656 115.483 75.3957 115.153 75.5357" stroke="white" stroke-width="1.14" stroke-linecap="round" stroke-linejoin="round"/>
<path d="M132.813 72.0458C132.903 71.8058 133.173 71.6457 133.423 71.6657C133.673 71.6857 133.903 71.8958 133.953 72.1558C134.013 72.4658 133.803 72.7758 133.533 72.9458C133.263 73.1158 132.943 73.1658 132.623 73.2158C132.943 73.3658 133.153 73.7158 133.153 74.0758C133.153 74.4358 132.913 74.7658 132.583 74.9058" stroke="white" stroke-width="1.14" stroke-linecap="round" stroke-linejoin="round"/>
<path d="M69.1334 135.465C78.108 135.465 85.3834 128.19 85.3834 119.215C85.3834 110.241 78.108 102.965 69.1334 102.965C60.1588 102.965 52.8834 110.241 52.8834 119.215C52.8834 128.19 60.1588 135.465 69.1334 135.465Z" stroke="white" stroke-width="1.31" stroke-linecap="round" stroke-linejoin="round"/>
<path d="M69.1334 118.205V103.295" stroke="white" stroke-width="1.4" stroke-miterlimit="10"/>
<path d="M70.2034 119.215H85.3134" stroke="white" stroke-width="1.33" stroke-miterlimit="10"/>
<path d="M69.1334 120.666C69.9342 120.666 70.5834 120.016 70.5834 119.216C70.5834 118.415 69.9342 117.766 69.1334 117.766C68.3326 117.766 67.6834 118.415 67.6834 119.216C67.6834 120.016 68.3326 120.666 69.1334 120.666Z" fill="white"/>
<path d="M73.4034 103.525L69.6334 104.755L75.2334 104.145C75.2334 104.145 69.4934 106.155 70.2034 105.935C70.9134 105.715 76.5334 104.735 76.5334 104.735L70.2034 107.965L77.0334 105.745L69.6334 109.735L78.3234 107.105L70.2034 110.745L80.6734 107.765L70.2034 112.155L81.2134 109.255L69.6234 114.085L81.9634 110.745L70.2034 115.365L82.7034 111.825L69.6334 116.755L83.2534 112.895L70.2034 117.755L83.2534 114.075L72.8834 118.195L84.0434 115.255L76.8334 118.195L84.0434 116.325L80.5734 118.195L84.0434 117.295L82.7034 118.585L84.7534 118.195" stroke="white" stroke-width="0.38" stroke-linecap="round" stroke-linejoin="round"/>
<path d="M94.4534 106.456C92.8834 105.966 91.4934 104.926 90.5734 103.556" stroke="white" stroke-width="1.14" stroke-linecap="round" stroke-linejoin="round"/>
<path d="M90.3234 106.986C92.4234 106.216 94.1234 104.426 94.7834 102.286" stroke="white" stroke-width="1.14" stroke-linecap="round" stroke-linejoin="round"/>
<path d="M98.2534 103.536L97.8534 106.226" stroke="white" stroke-width="1.14" stroke-linecap="round" stroke-linejoin="round"/>
<path d="M99.4134 104.985L96.7034 104.795" stroke="white" stroke-width="1.14" stroke-linecap="round" stroke-linejoin="round"/>
<path d="M106.963 103.365C105.063 105.755 103.163 108.145 101.263 110.535" stroke="white" stroke-width="1.14" stroke-linecap="round" stroke-linejoin="round"/>
<path d="M102.163 102.956L103.733 106.386" stroke="white" stroke-width="1.14" stroke-linecap="round" stroke-linejoin="round"/>
<path d="M117.993 107.965C117.913 107.885 117.773 107.865 117.673 107.915C117.573 107.965 117.503 108.085 117.513 108.195C117.613 108.215 117.713 108.235 117.803 108.205C117.893 108.175 117.983 108.085 117.963 107.985C117.943 107.885 117.793 107.845 117.743 107.935" stroke="white" stroke-width="1.14" stroke-linecap="round" stroke-linejoin="round"/>
<path d="M115.013 100.155C116.293 99.6252 117.673 99.3352 119.063 99.3252C119.573 99.3252 120.113 99.3552 120.563 99.5952C121.013 99.8352 121.373 100.335 121.303 100.845C121.243 101.305 120.863 101.655 120.443 101.855C120.023 102.055 119.563 102.125 119.123 102.245C118.683 102.365 118.233 102.585 117.973 102.965C117.763 103.275 117.703 103.665 117.653 104.035C117.583 104.545 117.513 105.045 117.433 105.555" stroke="white" stroke-width="1.14" stroke-linecap="round" stroke-linejoin="round"/>
<path d="M193.923 140.806L193.553 140.246C183.203 150.546 170.463 158.746 156.753 164.176C157.213 164.316 157.673 164.456 158.133 164.586C157.673 164.446 157.213 164.316 156.753 164.176C153.863 165.316 150.943 166.346 147.983 167.236L150.253 169.076C151.143 169.796 152.213 170.126 153.283 170.126C154.823 171.046 156.813 171.076 158.393 170.036L192.563 147.476C194.773 146.016 195.383 143.016 193.923 140.806Z" fill="#086AA9"/>
<path d="M154.783 164.916C149.333 162.756 144.283 160.496 139.293 157.786C138.213 157.236 137.153 156.646 136.113 156.006C140.963 159.486 146.213 163.246 151.583 166.066C152.653 165.696 153.723 165.306 154.783 164.906V164.916Z" fill="#087AA9"/>
<path d="M136.113 156.015C133.673 154.525 131.353 152.795 129.243 150.705C129.473 151.725 130.013 152.685 130.883 153.395L147.973 167.245C149.183 166.885 150.383 166.485 151.573 166.075C146.203 163.255 140.953 159.495 136.103 156.015H136.113Z" fill="#086AA9"/>
<path d="M156.753 164.175C150.943 162.445 144.873 160.625 139.293 157.785C144.283 160.495 149.333 162.755 154.783 164.915C155.443 164.665 156.103 164.435 156.753 164.185V164.175Z" fill="#087AA9"/>
<path d="M188.333 132.345C186.873 130.135 183.873 129.525 181.663 130.985L151.083 151.175L139.973 142.165C137.913 140.495 134.873 140.815 133.203 142.875L130.173 146.615C129.213 147.795 128.933 149.305 129.243 150.695C136.863 158.245 147.173 161.315 156.743 164.175C170.453 158.745 183.203 150.535 193.543 140.245L188.323 132.345H188.333Z" fill="#087AA9"/>
<path d="M136.643 138.845C134.403 134.595 132.163 130.345 129.913 126.095C129.403 125.135 128.693 124.035 127.603 124.015C126.053 123.985 125.453 126.175 126.023 127.615C126.593 129.055 127.803 130.235 128.113 131.755C128.743 134.835 125.943 137.635 126.003 140.775C126.053 143.445 127.313 147.075 129.623 148.645C131.933 150.215 134.653 148.855 136.403 146.965C138.793 144.395 138.143 141.715 136.633 138.855L136.643 138.845Z" fill="#FF9B6C"/>
<path d="M101.263 76.2554L133.233 146.875" stroke="#4D5948" stroke-width="4.54" stroke-miterlimit="10" stroke-linecap="round"/>
<path d="M131.603 145.995C131.663 145.895 131.733 145.795 131.783 145.685C132.263 144.565 131.783 143.295 131.313 142.175C130.673 140.665 130.033 139.155 129.383 137.655C128.773 136.235 128.103 134.725 126.793 133.905C124.373 132.385 119.773 133.875 119.333 136.895C119.143 138.205 119.683 140.515 120.483 142.605C123.703 144.955 127.073 146.935 131.613 146.005L131.603 145.995Z" fill="#FF9B6C"/>
<path d="M120.473 142.595C121.143 144.345 122.013 145.925 122.793 146.615C124.153 147.815 126.173 147.825 127.973 147.645C129.343 147.505 130.893 147.125 131.603 145.995C127.073 146.925 123.703 144.945 120.473 142.595Z" fill="#FF746C"/>
</svg>
