<svg width="207" height="171" viewBox="0 0 207 171" fill="none" xmlns="http://www.w3.org/2000/svg">
<path d="M24.3753 106.426C21.0953 116.516 16.5353 126.356 9.69531 136.186C8.12531 138.446 6.46531 140.686 4.97531 143.006C3.08531 145.946 1.44531 149.006 0.565306 152.366C-1.00469 158.396 0.645308 165.836 6.14531 168.766C12.9853 172.416 21.0453 167.576 27.6453 163.506C32.9153 160.266 38.4453 157.456 44.1453 155.076C53.0553 151.366 62.4153 148.736 71.9553 147.176C57.5353 131.736 41.9553 117.636 24.3753 106.406V106.426Z" fill="#C8E4F7"/>
<path d="M200.505 17.6655C193.405 12.4655 183.375 15.3855 175.525 19.3855C167.685 23.3855 159.425 28.4555 150.755 26.9455C142.255 25.4655 136.245 18.1455 129.575 12.6655C113.785 -0.30448 90.6953 -3.67448 71.8553 4.23552C58.4553 9.86552 47.6653 21.5455 40.9553 35.0155C41.3753 36.1155 41.8053 37.2055 42.2553 38.2955C41.8053 37.2055 41.3653 36.1155 40.9553 35.0155C37.4453 42.0555 35.0553 49.5755 33.9853 56.9655C31.4253 74.6355 29.4353 90.8155 24.3553 106.426C41.9353 117.656 57.5153 131.756 71.9353 147.196C82.3753 145.496 93.0353 145.086 103.565 146.016C105.195 138.406 107.195 130.856 109.495 123.416C98.9953 112.146 87.7454 101.016 77.2354 89.4155C88.9254 102.296 101.515 114.606 112.975 127.176C113.865 128.216 114.855 129.176 115.895 130.066C139.405 129.056 162.425 131.096 185.775 131.556C184.865 130.016 183.975 128.476 183.215 126.886C178.795 117.596 179.095 106.746 180.885 96.6155C183.295 82.9355 188.235 69.7055 195.395 57.8055C199.245 51.4055 203.795 45.2455 205.795 38.0455C207.795 30.8455 206.525 22.0755 200.495 17.6655H200.505ZM43.6753 41.5255C43.3553 40.8155 43.0453 40.0955 42.7453 39.3755C43.0553 40.0955 43.3553 40.8155 43.6753 41.5255ZM50.2153 54.0455C49.8753 53.4755 49.5453 52.8955 49.2153 52.3255C49.5453 52.9055 49.8753 53.4755 50.2153 54.0455ZM46.7753 47.8655C46.4553 47.2655 46.1553 46.6455 45.8453 46.0455C46.1553 46.6555 46.4553 47.2655 46.7753 47.8655ZM45.1853 44.7155C44.8753 44.0755 44.5753 43.4355 44.2753 42.7855C44.5753 43.4255 44.8753 44.0755 45.1853 44.7155ZM63.2453 72.9255C63.7053 73.5155 64.1653 74.0955 64.6353 74.6755C64.1653 74.0955 63.7053 73.5055 63.2453 72.9255ZM54.8453 61.3755C55.2253 61.9355 55.5953 62.4955 55.9753 63.0555C55.5953 62.4955 55.2153 61.9355 54.8453 61.3755ZM58.9353 67.2155C59.3453 67.7755 59.7654 68.3455 60.1754 68.9055C59.7554 68.3455 59.3453 67.7855 58.9353 67.2155ZM71.8153 83.2955C71.2353 82.6255 70.6653 81.9655 70.0853 81.2955C70.6553 81.9655 71.2353 82.6355 71.8153 83.2955ZM69.3553 80.4155C68.8253 79.7855 68.2953 79.1655 67.7753 78.5355C68.2953 79.1655 68.8253 79.7955 69.3553 80.4155ZM66.9653 77.5455C66.4753 76.9455 65.9754 76.3455 65.4854 75.7355C65.9754 76.3355 66.4653 76.9455 66.9653 77.5455ZM74.8353 86.7355C75.5753 87.5655 76.3253 88.4055 77.0753 89.2355C76.3253 88.4055 75.5753 87.5755 74.8353 86.7355Z" fill="#D9F3FF"/>
<path d="M191.135 144.456C190.775 139.756 188.225 135.686 185.785 131.556C162.435 131.096 139.425 129.056 115.905 130.066C114.865 129.166 113.885 128.216 112.985 127.176C111.835 125.916 110.675 124.666 109.515 123.416C107.205 130.856 105.205 138.406 103.585 146.016C115.115 147.046 126.505 149.666 137.275 153.936C145.035 157.016 152.725 160.936 160.795 162.696C163.405 163.266 166.045 163.616 168.745 163.636C179.795 163.706 191.975 155.486 191.135 144.466V144.456ZM131.955 139.976C126.315 136.756 120.485 134.006 115.915 130.066C120.485 134.006 126.315 136.746 131.955 139.976ZM137.275 143.286C137.795 143.646 138.315 144.016 138.815 144.396C138.305 144.016 137.795 143.646 137.275 143.286ZM134.005 141.186C134.375 141.416 134.755 141.646 135.125 141.876C134.755 141.646 134.385 141.416 134.005 141.186Z" fill="#C8E4F7"/>
<path d="M66.1805 14.2099L56.9979 16.5659L60.6561 30.8241L69.8387 28.4681L66.1805 14.2099Z" fill="#AABFE0"/>
<path d="M71.2584 12.9023L66.1732 14.207L69.8314 28.4652L74.9167 27.1605L71.2584 12.9023Z" fill="#9EB4D7"/>
<path d="M69.6219 5.79724L54.5985 9.65181C53.459 9.94416 52.7723 11.1049 53.0647 12.2443L54.4837 17.7752C54.7761 18.9146 55.9368 19.6014 57.0763 19.309L72.0997 15.4545C73.2391 15.1621 73.9258 14.0014 73.6335 12.8619L72.2144 7.33107C71.9221 6.19161 70.7614 5.50489 69.6219 5.79724Z" fill="#C4D1EE"/>
<path d="M18.599 52.3247L12.3054 62.9624L25.6455 70.8549L31.9392 60.2172L18.599 52.3247Z" fill="#9EB4D7"/>
<path d="M24.8931 41.6988L18.5995 52.3364L31.9396 60.2289L38.2332 49.5912L24.8931 41.6988Z" fill="#AABFE0"/>
<path d="M7.26529 41.5852L3.7253 47.5752C-0.734699 55.1052 1.3653 64.6952 8.3153 69.7352L28.8953 34.9552C21.1353 31.2852 11.7253 34.0552 7.26529 41.5952V41.5852Z" fill="#BFD4F0"/>
<path d="M83.3553 155.075C119.458 155.075 148.725 125.808 148.725 89.7054C148.725 53.6026 119.458 24.3354 83.3553 24.3354C47.2524 24.3354 17.9853 53.6026 17.9853 89.7054C17.9853 125.808 47.2524 155.075 83.3553 155.075Z" fill="#7D9DC1"/>
<path d="M83.3553 148.485C115.819 148.485 142.135 122.169 142.135 89.7053C142.135 57.242 115.819 30.9253 83.3553 30.9253C50.892 30.9253 24.5753 57.242 24.5753 89.7053C24.5753 122.169 50.892 148.485 83.3553 148.485Z" fill="#A9C3E5"/>
<path d="M83.3553 141.215C111.803 141.215 134.865 118.153 134.865 89.7053C134.865 61.2571 111.803 38.1953 83.3553 38.1953C54.9071 38.1953 31.8453 61.2571 31.8453 89.7053C31.8453 118.153 54.9071 141.215 83.3553 141.215Z" fill="#E0E7F6"/>
<path d="M71.9131 44.4837L71.6322 44.5558C71.108 44.6903 70.792 45.2243 70.9265 45.7486L72.9172 53.5073C73.0517 54.0315 73.5857 54.3475 74.11 54.213L74.3909 54.1409C74.9151 54.0064 75.2311 53.4724 75.0966 52.9481L73.1059 45.1894C72.9714 44.6651 72.4374 44.3492 71.9131 44.4837Z" fill="#7D9DC1"/>
<path d="M74.1175 54.2575L74.3984 54.1854C74.9226 54.0509 75.2386 53.5169 75.104 52.9926L73.1134 45.2339C72.9789 44.7097 72.4449 44.3937 71.9206 44.5282L71.6397 44.6003C71.1154 44.7348 70.7995 45.2689 70.934 45.7931L72.9246 53.5518C73.0591 54.0761 73.5932 54.392 74.1175 54.2575Z" fill="#7D9DC1"/>
<path d="M92.6022 125.151L92.3213 125.223C91.797 125.357 91.4811 125.891 91.6156 126.416L93.6063 134.174C93.7408 134.699 94.2748 135.014 94.7991 134.88L95.08 134.808C95.6042 134.673 95.9202 134.139 95.7857 133.615L93.795 125.856C93.6605 125.332 93.1265 125.016 92.6022 125.151Z" fill="#7D9DC1"/>
<path d="M51.7548 71.1804L51.9025 70.9308C52.1781 70.465 52.0239 69.864 51.558 69.5884L44.6642 65.5098C44.1984 65.2342 43.5974 65.3884 43.3218 65.8542L43.1741 66.1038C42.8985 66.5696 43.0527 67.1706 43.5185 67.4462L50.4124 71.5249C50.8782 71.8005 51.4792 71.6463 51.7548 71.1804Z" fill="#7D9DC1"/>
<path d="M114.965 108.223L114.817 108.473C114.542 108.939 114.696 109.54 115.162 109.815L122.056 113.894C122.521 114.17 123.122 114.015 123.398 113.55L123.546 113.3C123.821 112.834 123.667 112.233 123.201 111.958L116.307 107.879C115.842 107.603 115.241 107.758 114.965 108.223Z" fill="#7D9DC1"/>
<path d="M47.914 98.9592L47.8419 98.6783C47.7074 98.154 47.1734 97.838 46.6491 97.9726L38.8904 99.9632C38.3662 100.098 38.0502 100.632 38.1847 101.156L38.2568 101.437C38.3913 101.961 38.9254 102.277 39.4496 102.143L47.2083 100.152C47.7326 100.017 48.0485 99.4834 47.914 98.9592Z" fill="#7D9DC1"/>
<path d="M99.6353 56.2856L81.9653 82.1056L89.9153 86.0256L99.6353 56.2856Z" fill="#7D9DC1"/>
<path d="M118.807 80.4647L118.88 80.7456C119.014 81.2698 119.548 81.5858 120.072 81.4513L127.831 79.4606C128.355 79.3261 128.671 78.7921 128.537 78.2678L128.465 77.9869C128.33 77.4627 127.796 77.1467 127.272 77.2812L119.513 79.2719C118.989 79.4064 118.673 79.9404 118.807 80.4647Z" fill="#7D9DC1"/>
<path d="M64.8325 121.316L64.5829 121.168C64.1171 120.892 63.516 121.047 63.2404 121.512L59.1618 128.406C58.8862 128.872 59.0404 129.473 59.5063 129.749L59.7558 129.896C60.2217 130.172 60.8227 130.018 61.0983 129.552L65.1769 122.658C65.4525 122.192 65.2983 121.591 64.8325 121.316Z" fill="#7D9DC1"/>
<path d="M83.3553 98.5755C88.2541 98.5755 92.2253 94.6042 92.2253 89.7055C92.2253 84.8067 88.2541 80.8354 83.3553 80.8354C78.4565 80.8354 74.4853 84.8067 74.4853 89.7055C74.4853 94.6042 78.4565 98.5755 83.3553 98.5755Z" fill="#A9C3E5"/>
<path d="M83.3553 94.5253C86.0173 94.5253 88.1753 92.3673 88.1753 89.7053C88.1753 87.0432 86.0173 84.8853 83.3553 84.8853C80.6933 84.8853 78.5353 87.0432 78.5353 89.7053C78.5353 92.3673 80.6933 94.5253 83.3553 94.5253Z" fill="#7D9DC1"/>
<path d="M101.889 58.1121L102.139 58.2598C102.604 58.5354 103.205 58.3812 103.481 57.9153L107.56 51.0215C107.835 50.5557 107.681 49.9547 107.215 49.6791L106.966 49.5314C106.5 49.2558 105.899 49.41 105.623 49.8758L101.545 56.7697C101.269 57.2355 101.423 57.8365 101.889 58.1121Z" fill="#7D9DC1"/>
<path d="M126.845 141.456C127.255 141.586 144.535 142.126 144.535 142.126L160.445 141.786L143.645 140.646L126.845 141.456Z" fill="#E8CB9C"/>
<path d="M200.825 117.065H200.635C200.705 117.065 200.765 117.075 200.825 117.085V117.065Z" fill="#696969"/>
<path d="M124.015 120.646C121.255 120.646 119.005 122.896 119.005 125.656V142.446C119.005 145.206 121.255 147.456 124.015 147.456H193.665C193.805 147.426 193.945 147.396 194.095 147.396H200.445C198.305 143.796 197.005 139.136 197.005 134.046C197.005 128.956 198.315 124.246 200.475 120.636H124.015V120.646ZM171.065 125.576C171.065 125.576 142.965 125.036 142.295 124.906L169.615 124.096L196.935 125.236L171.065 125.576Z" fill="#E3EAF0"/>
<path d="M142.295 124.895C142.965 125.025 171.065 125.565 171.065 125.565L196.935 125.225L169.615 124.085L142.295 124.895Z" fill="#C4C9CE"/>
<path d="M156.785 138.966C157.275 139.076 177.925 139.516 177.925 139.516L196.935 139.236L176.855 138.296L156.775 138.956L156.785 138.966Z" fill="#C4C9CE"/>
<path d="M140.145 143.155C140.425 143.245 152.195 143.605 152.195 143.605L163.035 143.385L151.595 142.625L140.155 143.165L140.145 143.155Z" fill="#C4C9CE"/>
<path d="M126.325 138.036C126.545 138.106 135.615 138.376 135.615 138.376L143.965 138.206L135.145 137.636L126.325 138.036Z" fill="#C4C9CE"/>
<path d="M200.625 150.986H194.095C193.115 150.986 192.305 150.176 192.305 149.196C192.305 148.356 192.885 147.656 193.665 147.466H124.015C121.255 147.466 119.005 145.216 119.005 142.456V125.666C119.005 122.906 121.255 120.656 124.015 120.656H194.095C193.115 120.656 192.305 119.846 192.305 118.866C192.305 117.886 193.115 117.076 194.095 117.076H124.015C119.285 117.076 115.425 120.946 115.425 125.666V142.456C115.425 147.186 119.295 151.046 124.015 151.046H200.815V150.966C200.755 150.966 200.685 150.986 200.625 150.986Z" fill="#7D9DC1"/>
<path d="M200.475 120.645H200.625C201.605 120.645 202.415 119.835 202.415 118.855C202.415 117.935 201.715 117.185 200.815 117.085V120.115C200.705 120.295 200.585 120.465 200.475 120.655V120.645Z" fill="#7D9DC1"/>
<path d="M192.305 118.856C192.305 119.836 193.115 120.646 194.095 120.646H200.475C200.585 120.466 200.705 120.286 200.815 120.106V117.076C200.755 117.076 200.685 117.056 200.625 117.056H194.095C193.115 117.056 192.305 117.866 192.305 118.846V118.856Z" fill="#7D9DC1"/>
<path d="M200.625 147.456H200.475C200.585 147.636 200.705 147.816 200.815 147.996V151.026C201.705 150.926 202.415 150.176 202.415 149.256C202.415 148.276 201.605 147.466 200.625 147.466V147.456Z" fill="#7D9DC1"/>
<path d="M193.665 147.456C192.885 147.656 192.305 148.356 192.305 149.186C192.305 150.166 193.115 150.976 194.095 150.976H200.625C200.695 150.976 200.755 150.966 200.815 150.956V147.986C200.705 147.806 200.585 147.636 200.475 147.446H193.665V147.456Z" fill="#7D9DC1"/>
<path d="M193.665 147.456H200.475C200.475 147.456 200.455 147.416 200.445 147.396H194.095C193.945 147.396 193.805 147.416 193.665 147.456Z" fill="#F6E1B7"/>
<path d="M138.825 152.986C136.825 148.006 136.855 143.016 138.935 138.036H128.625C126.935 143.116 126.935 148.186 128.625 153.266H128.835C131.605 148.326 134.935 151.666 138.825 152.986Z" fill="#67617D"/>
<path d="M196.515 99.5356H119.735V117.086H196.515V99.5356Z" fill="#AABFE0"/>
<path d="M130.485 99.5356H126.045V117.086H130.485V99.5356Z" fill="#7D9DC1"/>
<path d="M190.165 99.5356H185.725V117.086H190.165V99.5356Z" fill="#7D9DC1"/>
<path d="M119.435 85.4854H196.525C199.245 85.4854 201.455 87.6954 201.455 90.4154V93.8854H114.005V90.9254C114.005 87.9254 116.435 85.4954 119.435 85.4954V85.4854Z" fill="#AABFE0"/>
<path d="M127.885 88.1155H172.775C175.285 88.1155 177.315 90.1455 177.315 92.6555V93.8755H122.875V93.1155C122.875 90.3555 125.115 88.1055 127.885 88.1055V88.1155Z" fill="white"/>
<path d="M185.985 88.6455H187.575C190.085 88.6455 192.125 90.6855 192.125 93.1955V93.8855H181.445V93.1955C181.445 90.6855 183.485 88.6455 185.995 88.6455H185.985Z" fill="white"/>
<path d="M114.005 93.8853H201.455V95.5253C201.455 98.2453 199.245 100.455 196.525 100.455H119.435C116.435 100.455 114.005 98.0253 114.005 95.0253V93.8853Z" fill="#9EB4D7"/>
<path d="M122.875 93.8853H177.315V94.8453C177.315 96.8053 175.725 98.3953 173.765 98.3953H126.795C124.635 98.3953 122.875 96.6353 122.875 94.4753V93.8853Z" fill="#E3EAF0"/>
<path d="M181.445 93.8853H192.125V94.4953C192.125 96.7153 190.325 98.5153 188.105 98.5153H185.465C183.245 98.5153 181.445 96.7153 181.445 94.4953V93.8853Z" fill="#E3EAF0"/>
</svg>
