<svg width="209" height="180" viewBox="0 0 209 180" fill="none" xmlns="http://www.w3.org/2000/svg">
<path d="M81.72 169.548L36.41 138.758C35.28 147.728 36.78 156.108 41.31 163.088C56.39 186.328 99.23 185.308 137 160.808C154.64 149.368 168.04 134.828 175.79 120.218C179.1 116.888 181.79 113.098 183.72 108.808C188.72 97.7183 188.03 85.0083 182.79 72.2383L140.24 83.4083L81.72 169.538V169.548Z" fill="#E0EFFF"/>
<path d="M18.76 84.7886L19.53 85.3085L21.76 82.0286L20.99 81.5086C20.51 81.1886 20.39 80.5385 20.71 80.0585L20.93 79.7385C21.25 79.2585 21.9 79.1386 22.38 79.4586L23.15 79.9786L25.38 76.6986L24.61 76.1785C24.13 75.8585 24.01 75.2086 24.33 74.7286L24.55 74.4086C24.87 73.9286 25.52 73.8086 26 74.1286L26.77 74.6486L29 71.3685L28.23 70.8486C27.75 70.5286 27.63 69.8786 27.95 69.3986L28.17 69.0786C28.49 68.5986 29.14 68.4785 29.62 68.7985L30.39 69.3186L32.62 66.0386L31.85 65.5186C31.37 65.1986 31.25 64.5486 31.57 64.0686L31.79 63.7486C32.11 63.2686 32.76 63.1486 33.24 63.4686L34.01 63.9885L36.24 60.7086L35.47 60.1886C34.99 59.8686 34.87 59.2185 35.19 58.7385L35.41 58.4185C35.73 57.9385 36.38 57.8186 36.86 58.1386L37.63 58.6586L39.86 55.3786L39.09 54.8585C38.61 54.5385 38.49 53.8886 38.81 53.4086L39.03 53.0886C39.35 52.6086 40 52.4885 40.48 52.8085L41.25 53.3286L43.48 50.0485L42.71 49.5286C42.23 49.2086 42.11 48.5586 42.43 48.0786L42.65 47.7586C42.97 47.2786 43.62 47.1586 44.1 47.4786L44.87 47.9986L47.1 44.7186L46.33 44.1986C45.85 43.8786 45.73 43.2286 46.05 42.7486L46.27 42.4285C46.59 41.9485 47.24 41.8286 47.72 42.1486L48.49 42.6685L50.72 39.3886L49.91 38.8386C49.46 38.5286 49.34 37.9086 49.65 37.4586L49.93 37.0485C50.24 36.5985 50.86 36.4786 51.31 36.7886L52.12 37.3386L54.35 34.0585L53.54 33.5086C53.09 33.1986 52.97 32.5786 53.28 32.1286L53.56 31.7186C53.87 31.2686 54.49 31.1486 54.94 31.4586L55.75 32.0086L57.98 28.7286L57.17 28.1785C56.72 27.8685 56.6 27.2485 56.91 26.7985L57.19 26.3886C57.5 25.9386 58.12 25.8186 58.57 26.1286L59.38 26.6785L61.61 23.3986L60.8 22.8486C60.35 22.5386 60.23 21.9186 60.54 21.4686L60.82 21.0585C61.13 20.6085 61.75 20.4885 62.2 20.7985L63.01 21.3486L65.24 18.0686L64.43 17.5186C63.98 17.2086 63.86 16.5886 64.17 16.1386L64.45 15.7286C64.76 15.2786 65.38 15.1586 65.83 15.4686L66.64 16.0186L71.85 8.33858L143.55 57.0585L153.55 63.8486L175.21 58.1586C163.5 40.7786 143.81 24.4186 118.95 13.2186C69.43 -9.10142 18.14 -2.48146 4.41 27.9885C-3.26 45.0085 2.42 65.8685 17.54 84.8585C17.89 84.5685 18.39 84.5186 18.79 84.7786L18.76 84.7886Z" fill="#D9F3FF"/>
<path d="M47.01 111.389C38.47 105.739 30.92 99.4589 24.52 92.8389C24.37 92.7789 24.23 92.7089 24.09 92.6189C23.68 92.3389 23.39 91.9389 23.24 91.5089C22.69 90.9289 22.16 90.3389 21.63 89.7589L18.12 87.3789L15.89 90.6589L20.85 94.0289C21.53 93.7389 22.34 93.7889 23 94.2289C24.03 94.9289 24.3 96.3289 23.6 97.3589C22.9 98.3889 21.5 98.6589 20.47 97.9589C19.83 97.5189 19.48 96.8189 19.48 96.0989L14.5 92.7089L12.27 95.9889L17.23 99.3589C17.91 99.0689 18.72 99.1189 19.38 99.5589C20.41 100.259 20.68 101.659 19.98 102.689C19.28 103.719 17.88 103.989 16.85 103.289C16.21 102.849 15.86 102.149 15.86 101.429L10.88 98.0389L8.65 101.319L13.73 104.769C14.41 104.479 15.22 104.529 15.88 104.969C16.91 105.669 17.18 107.069 16.48 108.099C15.78 109.129 14.38 109.399 13.35 108.699C12.71 108.259 12.36 107.559 12.36 106.839L7.26 103.369L5.03 106.649L10.22 110.179C10.9 109.889 11.71 109.939 12.37 110.379C13.4 111.079 13.67 112.479 12.97 113.509C12.27 114.539 10.87 114.809 9.84 114.109C9.2 113.669 8.85 112.969 8.85 112.249L3.63 108.709L0 114.059L34.57 137.549C35.27 137.389 35.96 137.219 36.66 137.059C38.01 128.759 41.55 120.009 47.01 111.419V111.389Z" fill="#FFF5DC"/>
<path d="M108.81 87.3781L102.35 87.1681C100.2 86.8481 99.91 85.9681 101.65 84.5081L118.31 73.3981L119.07 72.8881L136.25 68.3781C138.82 64.6981 141.25 60.9181 143.53 57.0481L71.83 8.32812L66.62 16.0081L71.58 19.3781C72.26 19.0881 73.07 19.1381 73.73 19.5781C74.76 20.2781 75.03 21.6781 74.33 22.7081C73.63 23.7381 72.23 24.0081 71.2 23.3081C70.56 22.8681 70.21 22.1681 70.21 21.4481L65.23 18.0581L63 21.3381L67.96 24.7081C68.64 24.4181 69.45 24.4681 70.11 24.9081C71.14 25.6081 71.41 27.0081 70.71 28.0381C70.01 29.0681 68.61 29.3381 67.58 28.6381C66.94 28.1981 66.59 27.4981 66.59 26.7781L61.61 23.3881L59.38 26.6681L64.34 30.0381C65.02 29.7481 65.83 29.7981 66.49 30.2381C67.52 30.9381 67.79 32.3381 67.09 33.3681C66.39 34.3981 64.99 34.6681 63.96 33.9681C63.32 33.5281 62.97 32.8281 62.97 32.1081L57.99 28.7181L55.76 31.9981L60.72 35.3681C61.4 35.0781 62.21 35.1281 62.87 35.5681C63.9 36.2681 64.17 37.6681 63.47 38.6981C62.77 39.7281 61.37 39.9981 60.34 39.2981C59.7 38.8581 59.35 38.1581 59.35 37.4381L54.37 34.0481L52.14 37.3281L57.1 40.6981C57.78 40.4081 58.59 40.4581 59.25 40.8981C60.28 41.5981 60.55 42.9981 59.85 44.0281C59.15 45.0581 57.75 45.3281 56.72 44.6281C56.08 44.1881 55.73 43.4881 55.73 42.7681L50.75 39.3781L48.52 42.6581L53.48 46.0281C54.16 45.7381 54.97 45.7881 55.63 46.2281C56.66 46.9281 56.93 48.3281 56.23 49.3581C55.53 50.3881 54.13 50.6581 53.1 49.9581C52.46 49.5181 52.11 48.8181 52.11 48.0981L47.13 44.7081L44.9 47.9881L49.86 51.3581C50.54 51.0681 51.35 51.1181 52.01 51.5581C53.04 52.2581 53.31 53.6581 52.61 54.6881C51.91 55.7181 50.51 55.9881 49.48 55.2881C48.84 54.8481 48.49 54.1481 48.49 53.4281L43.51 50.0381L41.28 53.3181L46.24 56.6881C46.92 56.3981 47.73 56.4481 48.39 56.8881C49.42 57.5881 49.69 58.9881 48.99 60.0181C48.29 61.0481 46.89 61.3181 45.86 60.6181C45.22 60.1781 44.87 59.4781 44.87 58.7581L39.89 55.3681L37.66 58.6481L42.62 62.0181C43.3 61.7281 44.11 61.7781 44.77 62.2181C45.8 62.9181 46.07 64.3181 45.37 65.3481C44.67 66.3781 43.27 66.6481 42.24 65.9481C41.6 65.5081 41.25 64.8081 41.25 64.0881L36.27 60.6981L34.04 63.9781L39 67.3481C39.68 67.0581 40.49 67.1081 41.15 67.5481C42.18 68.2481 42.45 69.6481 41.75 70.6781C41.05 71.7081 39.65 71.9781 38.62 71.2781C37.98 70.8381 37.63 70.1381 37.63 69.4181L32.65 66.0281L30.42 69.3081L35.38 72.6781C36.06 72.3881 36.87 72.4381 37.53 72.8781C38.56 73.5781 38.83 74.9781 38.13 76.0081C37.43 77.0381 36.03 77.3081 35 76.6081C34.36 76.1681 34.01 75.4681 34.01 74.7481L29.03 71.3581L26.8 74.6381L31.76 78.0081C32.44 77.7181 33.25 77.7681 33.91 78.2081C34.94 78.9081 35.21 80.3081 34.51 81.3381C33.81 82.3681 32.41 82.6381 31.38 81.9381C30.74 81.4981 30.39 80.7981 30.39 80.0781L25.41 76.6881L23.18 79.9681L28.14 83.3381C28.82 83.0481 29.63 83.0981 30.29 83.5381C31.32 84.2381 31.59 85.6381 30.89 86.6681C30.19 87.6981 28.79 87.9681 27.76 87.2681C27.12 86.8281 26.77 86.1281 26.77 85.4081L21.79 82.0181L19.56 85.2981L24.52 88.6681C25.2 88.3781 26.01 88.4281 26.67 88.8681C27.7 89.5681 27.97 90.9681 27.27 91.9981C26.66 92.8881 25.53 93.2081 24.56 92.8181C30.96 99.4381 38.51 105.718 47.05 111.368C41.59 119.958 38.05 128.708 36.7 137.008C68.97 129.368 98.14 111.678 120.57 87.7381L108.85 87.3581L108.81 87.3781Z" fill="#FFF5DC"/>
<path d="M119.28 76.7188L132.76 73.1787L119.28 76.7188Z" fill="#FFF5DC"/>
<path d="M21.63 89.748C22.16 90.338 22.7 90.918 23.24 91.498C23.15 91.258 23.1 91.008 23.1 90.748L21.62 89.748H21.63Z" fill="#FFF5DC"/>
<path d="M34.57 137.518L36.4 138.768C36.47 138.188 36.56 137.608 36.65 137.028C35.95 137.188 35.26 137.368 34.56 137.518H34.57Z" fill="#F5EBDC"/>
<path d="M153.52 63.8486L143.52 57.0586C141.25 60.9286 138.81 64.7086 136.24 68.3886L153.51 63.8486H153.52Z" fill="#F5EBDC"/>
<path d="M140.24 83.4189L123.36 87.849L122.09 87.809L120.53 87.759C98.1 111.699 68.93 129.389 36.66 137.029C36.57 137.609 36.48 138.189 36.41 138.769L81.72 169.559L140.24 83.429V83.4189Z" fill="#F5EBDC"/>
<path d="M72.57 21.2686L72.29 21.6785C71.98 22.1285 71.36 22.2485 70.91 21.9385L70.19 21.4485C70.19 22.1685 70.54 22.8785 71.18 23.3085C72.21 24.0085 73.61 23.7386 74.31 22.7086C75.01 21.6786 74.74 20.2786 73.71 19.5786C73.05 19.1286 72.24 19.0785 71.56 19.3785L72.3 19.8885C72.75 20.1985 72.87 20.8186 72.56 21.2686H72.57Z" fill="#666666"/>
<path d="M65.8 15.4685C65.35 15.1585 64.73 15.2785 64.42 15.7285L64.14 16.1385C63.83 16.5885 63.95 17.2085 64.4 17.5185L65.21 18.0685L66.61 16.0185L65.8 15.4685Z" fill="#999999"/>
<path d="M70.58 20.1885C70.83 19.8185 71.18 19.5485 71.56 19.3885L66.6 16.0186L65.2 18.0685L70.18 21.4586C70.18 21.0186 70.3 20.5785 70.57 20.1885H70.58Z" fill="#999999"/>
<path d="M70.58 20.1887C70.32 20.5787 70.19 21.0187 70.19 21.4587L70.91 21.9487C71.36 22.2587 71.98 22.1387 72.29 21.6887L72.57 21.2787C72.88 20.8287 72.76 20.2087 72.31 19.8987L71.57 19.3887C71.19 19.5487 70.84 19.8187 70.59 20.1887H70.58Z" fill="#999999"/>
<path d="M68.95 26.5986L68.67 27.0086C68.36 27.4586 67.74 27.5786 67.29 27.2686L66.57 26.7786C66.57 27.4986 66.92 28.2086 67.56 28.6386C68.59 29.3386 69.99 29.0686 70.69 28.0386C71.39 27.0086 71.12 25.6086 70.09 24.9086C69.43 24.4586 68.62 24.4086 67.94 24.7086L68.68 25.2186C69.13 25.5286 69.25 26.1486 68.94 26.5986H68.95Z" fill="#666666"/>
<path d="M62.17 20.7986C61.72 20.4886 61.1 20.6086 60.79 21.0586L60.51 21.4686C60.2 21.9186 60.32 22.5386 60.77 22.8486L61.58 23.3986L62.98 21.3486L62.17 20.7986Z" fill="#999999"/>
<path d="M66.96 25.5186C67.21 25.1486 67.56 24.8786 67.94 24.7186L62.98 21.3486L61.58 23.3986L66.56 26.7886C66.56 26.3486 66.68 25.9086 66.95 25.5186H66.96Z" fill="#999999"/>
<path d="M66.96 25.5187C66.7 25.9087 66.57 26.3488 66.57 26.7888L67.29 27.2787C67.74 27.5887 68.36 27.4687 68.67 27.0187L68.95 26.6087C69.26 26.1587 69.14 25.5388 68.69 25.2288L67.95 24.7188C67.57 24.8787 67.22 25.1487 66.97 25.5187H66.96Z" fill="#999999"/>
<path d="M65.33 31.9287L65.05 32.3387C64.74 32.7887 64.12 32.9087 63.67 32.5987L62.95 32.1087C62.95 32.8287 63.3 33.5387 63.94 33.9687C64.97 34.6687 66.37 34.3987 67.07 33.3687C67.77 32.3387 67.5 30.9387 66.47 30.2387C65.81 29.7887 65 29.7387 64.32 30.0387L65.06 30.5487C65.51 30.8587 65.63 31.4787 65.32 31.9287H65.33Z" fill="#666666"/>
<path d="M58.55 26.1287C58.1 25.8187 57.48 25.9387 57.17 26.3887L56.89 26.7987C56.58 27.2487 56.7 27.8687 57.15 28.1787L57.96 28.7287L59.36 26.6787L58.55 26.1287Z" fill="#999999"/>
<path d="M63.34 30.8488C63.59 30.4788 63.94 30.2087 64.32 30.0487L59.36 26.6787L57.96 28.7288L62.94 32.1187C62.94 31.6787 63.06 31.2388 63.33 30.8488H63.34Z" fill="#999999"/>
<path d="M63.34 30.8489C63.08 31.2389 62.95 31.6788 62.95 32.1188L63.67 32.6088C64.12 32.9188 64.74 32.7989 65.05 32.3489L65.33 31.9388C65.64 31.4888 65.52 30.8688 65.07 30.5588L64.33 30.0488C63.95 30.2088 63.6 30.4789 63.35 30.8489H63.34Z" fill="#999999"/>
<path d="M61.71 37.2588L61.43 37.6688C61.12 38.1188 60.5 38.2388 60.05 37.9288L59.33 37.4388C59.33 38.1588 59.68 38.8688 60.32 39.2988C61.35 39.9988 62.75 39.7288 63.45 38.6988C64.15 37.6688 63.88 36.2688 62.85 35.5688C62.19 35.1188 61.38 35.0688 60.7 35.3688L61.44 35.8788C61.89 36.1888 62.01 36.8088 61.7 37.2588H61.71Z" fill="#666666"/>
<path d="M54.93 31.4588C54.48 31.1488 53.86 31.2688 53.55 31.7188L53.27 32.1287C52.96 32.5787 53.08 33.1987 53.53 33.5087L54.34 34.0587L55.74 32.0087L54.93 31.4588Z" fill="#999999"/>
<path d="M59.72 36.1788C59.97 35.8088 60.32 35.5388 60.7 35.3788L55.74 32.0088L54.34 34.0588L59.32 37.4488C59.32 37.0088 59.44 36.5688 59.71 36.1788H59.72Z" fill="#999999"/>
<path d="M59.72 36.1789C59.46 36.5689 59.33 37.0089 59.33 37.4489L60.05 37.9389C60.5 38.2489 61.12 38.1289 61.43 37.6789L61.71 37.2689C62.02 36.8189 61.9 36.1989 61.45 35.8889L60.71 35.3789C60.33 35.5389 59.98 35.8089 59.73 36.1789H59.72Z" fill="#999999"/>
<path d="M58.09 42.5986L57.81 43.0086C57.5 43.4586 56.88 43.5786 56.43 43.2686L55.71 42.7786C55.71 43.4986 56.06 44.2086 56.7 44.6386C57.73 45.3386 59.13 45.0686 59.83 44.0386C60.53 43.0086 60.26 41.6086 59.23 40.9086C58.57 40.4586 57.76 40.4086 57.08 40.7086L57.82 41.2186C58.27 41.5286 58.39 42.1486 58.08 42.5986H58.09Z" fill="#666666"/>
<path d="M51.31 36.7888C50.86 36.4788 50.24 36.5988 49.93 37.0488L49.65 37.4588C49.34 37.9088 49.46 38.5288 49.91 38.8388L50.72 39.3888L52.12 37.3388L51.31 36.7888Z" fill="#999999"/>
<path d="M56.1 41.5089C56.35 41.1389 56.7 40.8689 57.08 40.7089L52.12 37.3389L50.72 39.3889L55.7 42.7789C55.7 42.3389 55.82 41.8989 56.09 41.5089H56.1Z" fill="#999999"/>
<path d="M56.1 41.509C55.84 41.899 55.71 42.339 55.71 42.779L56.43 43.269C56.88 43.579 57.5 43.459 57.81 43.009L58.09 42.599C58.4 42.149 58.28 41.529 57.83 41.219L57.09 40.709C56.71 40.869 56.36 41.139 56.11 41.509H56.1Z" fill="#999999"/>
<path d="M54.43 47.9687L54.21 48.2887C53.89 48.7687 53.24 48.8887 52.76 48.5687L52.08 48.1087C52.08 48.8287 52.43 49.5387 53.07 49.9687C54.1 50.6687 55.5 50.3987 56.2 49.3687C56.9 48.3387 56.63 46.9387 55.6 46.2387C54.94 45.7887 54.13 45.7387 53.45 46.0387L54.15 46.5187C54.63 46.8387 54.75 47.4887 54.43 47.9687Z" fill="#666666"/>
<path d="M47.73 42.1483C47.25 41.8283 46.6 41.9483 46.28 42.4283L46.06 42.7483C45.74 43.2283 45.86 43.8783 46.34 44.1983L47.11 44.7183L48.51 42.6683L47.74 42.1483H47.73Z" fill="#999999"/>
<path d="M52.47 46.839C52.72 46.469 53.07 46.199 53.45 46.039L48.49 42.6689L47.09 44.719L52.07 48.1089C52.07 47.6689 52.19 47.229 52.46 46.839H52.47Z" fill="#999999"/>
<path d="M52.47 46.8391C52.21 47.2291 52.08 47.669 52.08 48.109L52.76 48.569C53.24 48.889 53.89 48.7691 54.21 48.2891L54.43 47.9691C54.75 47.4891 54.63 46.839 54.15 46.519L53.45 46.0391C53.07 46.1991 52.72 46.4691 52.47 46.8391Z" fill="#999999"/>
<path d="M50.81 53.2988L50.59 53.6188C50.27 54.0988 49.62 54.2188 49.14 53.8988L48.46 53.4388C48.46 54.1588 48.81 54.8688 49.45 55.2988C50.48 55.9988 51.88 55.7288 52.58 54.6988C53.28 53.6688 53.01 52.2688 51.98 51.5688C51.32 51.1188 50.51 51.0688 49.83 51.3688L50.53 51.8488C51.01 52.1688 51.13 52.8188 50.81 53.2988Z" fill="#666666"/>
<path d="M44.11 47.4784C43.63 47.1584 42.98 47.2784 42.66 47.7584L42.44 48.0784C42.12 48.5584 42.24 49.2084 42.72 49.5284L43.49 50.0484L44.89 47.9984L44.12 47.4784H44.11Z" fill="#999999"/>
<path d="M48.85 52.168C49.1 51.798 49.45 51.528 49.83 51.368L44.87 47.998L43.47 50.048L48.45 53.438C48.45 52.998 48.57 52.558 48.84 52.168H48.85Z" fill="#999999"/>
<path d="M48.85 52.1682C48.59 52.5582 48.46 52.9982 48.46 53.4382L49.14 53.8982C49.62 54.2182 50.27 54.0982 50.59 53.6182L50.81 53.2982C51.13 52.8182 51.01 52.1682 50.53 51.8482L49.83 51.3682C49.45 51.5282 49.1 51.7982 48.85 52.1682Z" fill="#999999"/>
<path d="M47.19 58.6288L46.97 58.9489C46.65 59.4289 46 59.5489 45.52 59.2289L44.84 58.7689C44.84 59.4889 45.19 60.1988 45.83 60.6288C46.86 61.3288 48.26 61.0589 48.96 60.0289C49.66 58.9989 49.39 57.5989 48.36 56.8989C47.7 56.4489 46.89 56.3989 46.21 56.6989L46.91 57.1788C47.39 57.4988 47.51 58.1488 47.19 58.6288Z" fill="#666666"/>
<path d="M40.49 52.8085C40.01 52.4885 39.36 52.6085 39.04 53.0885L38.82 53.4085C38.5 53.8885 38.62 54.5385 39.1 54.8585L39.87 55.3785L41.27 53.3285L40.5 52.8085H40.49Z" fill="#999999"/>
<path d="M45.23 57.4981C45.48 57.1281 45.83 56.8581 46.21 56.6981L41.25 53.3281L39.85 55.3781L44.83 58.7681C44.83 58.3281 44.95 57.8881 45.22 57.4981H45.23Z" fill="#999999"/>
<path d="M45.23 57.4982C44.97 57.8882 44.84 58.3282 44.84 58.7682L45.52 59.2283C46 59.5483 46.65 59.4282 46.97 58.9482L47.19 58.6282C47.51 58.1482 47.39 57.4982 46.91 57.1782L46.21 56.6982C45.83 56.8582 45.48 57.1282 45.23 57.4982Z" fill="#999999"/>
<path d="M43.57 63.9589L43.35 64.2789C43.03 64.7589 42.38 64.8789 41.9 64.5589L41.22 64.0989C41.22 64.8189 41.57 65.5289 42.21 65.9589C43.24 66.6589 44.64 66.3889 45.34 65.3589C46.04 64.3289 45.77 62.9289 44.74 62.2289C44.08 61.7789 43.27 61.7289 42.59 62.0289L43.29 62.5089C43.77 62.8289 43.89 63.4789 43.57 63.9589Z" fill="#666666"/>
<path d="M36.86 58.1386C36.38 57.8186 35.73 57.9385 35.41 58.4185L35.19 58.7385C34.87 59.2185 34.99 59.8686 35.47 60.1886L36.24 60.7086L37.64 58.6586L36.87 58.1386H36.86Z" fill="#999999"/>
<path d="M41.61 62.8282C41.86 62.4582 42.21 62.1882 42.59 62.0282L37.63 58.6582L36.23 60.7082L41.21 64.0982C41.21 63.6582 41.33 63.2182 41.6 62.8282H41.61Z" fill="#999999"/>
<path d="M41.61 62.8283C41.35 63.2183 41.22 63.6583 41.22 64.0983L41.9 64.5583C42.38 64.8783 43.03 64.7583 43.35 64.2783L43.57 63.9583C43.89 63.4783 43.77 62.8283 43.29 62.5083L42.59 62.0283C42.21 62.1883 41.86 62.4583 41.61 62.8283Z" fill="#999999"/>
<path d="M39.95 69.2891L39.73 69.609C39.41 70.089 38.76 70.209 38.28 69.889L37.6 69.429C37.6 70.149 37.95 70.8591 38.59 71.2891C39.62 71.9891 41.02 71.719 41.72 70.689C42.42 69.659 42.15 68.259 41.12 67.559C40.46 67.109 39.65 67.059 38.97 67.359L39.67 67.8391C40.15 68.1591 40.27 68.8091 39.95 69.2891Z" fill="#666666"/>
<path d="M33.24 63.4686C32.76 63.1486 32.11 63.2686 31.79 63.7486L31.57 64.0686C31.25 64.5486 31.37 65.1986 31.85 65.5186L32.62 66.0387L34.02 63.9886L33.25 63.4686H33.24Z" fill="#999999"/>
<path d="M37.99 68.1583C38.24 67.7883 38.59 67.5183 38.97 67.3583L34.01 63.9883L32.61 66.0383L37.59 69.4283C37.59 68.9883 37.71 68.5483 37.98 68.1583H37.99Z" fill="#999999"/>
<path d="M37.99 68.1584C37.73 68.5484 37.6 68.9884 37.6 69.4284L38.28 69.8884C38.76 70.2084 39.41 70.0884 39.73 69.6084L39.95 69.2885C40.27 68.8085 40.15 68.1584 39.67 67.8384L38.97 67.3584C38.59 67.5184 38.24 67.7884 37.99 68.1584Z" fill="#999999"/>
<path d="M36.33 74.6181L36.11 74.9381C35.79 75.4181 35.14 75.5381 34.66 75.2181L33.98 74.7581C33.98 75.4781 34.33 76.1881 34.97 76.6181C36 77.3181 37.4 77.0481 38.1 76.0181C38.8 74.9881 38.53 73.5881 37.5 72.8881C36.84 72.4381 36.03 72.3881 35.35 72.6881L36.05 73.1681C36.53 73.4881 36.65 74.1381 36.33 74.6181Z" fill="#666666"/>
<path d="M29.62 68.7987C29.14 68.4787 28.49 68.5987 28.17 69.0787L27.95 69.3987C27.63 69.8787 27.75 70.5288 28.23 70.8488L29 71.3687L30.4 69.3187L29.63 68.7987H29.62Z" fill="#999999"/>
<path d="M34.37 73.4981C34.62 73.1281 34.97 72.8581 35.35 72.6981L30.39 69.3281L28.99 71.3781L33.97 74.7681C33.97 74.3281 34.09 73.8881 34.36 73.4981H34.37Z" fill="#999999"/>
<path d="M34.37 73.4982C34.11 73.8882 33.98 74.3282 33.98 74.7682L34.66 75.2283C35.14 75.5483 35.79 75.4282 36.11 74.9482L36.33 74.6282C36.65 74.1482 36.53 73.4982 36.05 73.1782L35.35 72.6982C34.97 72.8582 34.62 73.1282 34.37 73.4982Z" fill="#999999"/>
<path d="M32.7 79.9482L32.48 80.2682C32.16 80.7482 31.51 80.8682 31.03 80.5482L30.35 80.0882C30.35 80.8082 30.7 81.5182 31.34 81.9482C32.37 82.6482 33.77 82.3782 34.47 81.3482C35.17 80.3182 34.9 78.9182 33.87 78.2182C33.21 77.7682 32.4 77.7182 31.72 78.0182L32.42 78.4982C32.9 78.8182 33.02 79.4682 32.7 79.9482Z" fill="#666666"/>
<path d="M26 74.1288C25.52 73.8088 24.87 73.9288 24.55 74.4088L24.33 74.7288C24.01 75.2088 24.13 75.8588 24.61 76.1788L25.38 76.6988L26.78 74.6488L26.01 74.1288H26Z" fill="#999999"/>
<path d="M30.74 78.8282C30.99 78.4582 31.34 78.1882 31.72 78.0282L26.76 74.6582L25.36 76.7082L30.34 80.0982C30.34 79.6582 30.46 79.2182 30.73 78.8282H30.74Z" fill="#999999"/>
<path d="M30.74 78.8283C30.48 79.2183 30.35 79.6583 30.35 80.0983L31.03 80.5583C31.51 80.8783 32.16 80.7583 32.48 80.2783L32.7 79.9583C33.02 79.4783 32.9 78.8283 32.42 78.5083L31.72 78.0283C31.34 78.1883 30.99 78.4583 30.74 78.8283Z" fill="#999999"/>
<path d="M29.08 85.2783L28.86 85.5983C28.54 86.0783 27.89 86.1983 27.41 85.8783L26.73 85.4182C26.73 86.1382 27.08 86.8483 27.72 87.2783C28.75 87.9783 30.15 87.7082 30.85 86.6782C31.55 85.6482 31.28 84.2482 30.25 83.5482C29.59 83.0982 28.78 83.0483 28.1 83.3483L28.8 83.8283C29.28 84.1483 29.4 84.7983 29.08 85.2783Z" fill="#666666"/>
<path d="M22.38 79.4589C21.9 79.1389 21.25 79.2588 20.93 79.7388L20.71 80.0589C20.39 80.5389 20.51 81.1889 20.99 81.5089L21.76 82.0289L23.16 79.9789L22.39 79.4589H22.38Z" fill="#999999"/>
<path d="M27.12 84.1583C27.37 83.7883 27.72 83.5183 28.1 83.3583L23.14 79.9883L21.74 82.0383L26.72 85.4283C26.72 84.9883 26.84 84.5483 27.11 84.1583H27.12Z" fill="#999999"/>
<path d="M27.12 84.1584C26.86 84.5484 26.73 84.9884 26.73 85.4284L27.41 85.8884C27.89 86.2084 28.54 86.0884 28.86 85.6084L29.08 85.2885C29.4 84.8085 29.28 84.1584 28.8 83.8384L28.1 83.3584C27.72 83.5184 27.37 83.7884 27.12 84.1584Z" fill="#999999"/>
<path d="M24.1 92.618C24.24 92.708 24.38 92.7881 24.53 92.8381C24.1 92.3981 23.67 91.948 23.25 91.498C23.4 91.938 23.69 92.328 24.1 92.608V92.618Z" fill="#666666"/>
<path d="M27.23 92.0181C27.93 90.9881 27.66 89.5881 26.63 88.8881C25.97 88.4381 25.16 88.3881 24.48 88.6881L25.18 89.1681C25.66 89.4881 25.78 90.1381 25.46 90.6181L25.24 90.9381C24.92 91.4181 24.27 91.5381 23.79 91.2181L23.11 90.7581C23.11 91.0181 23.16 91.2681 23.25 91.5081C23.67 91.9581 24.1 92.3981 24.53 92.8481C25.49 93.2381 26.63 92.9181 27.24 92.0281L27.23 92.0181Z" fill="#666666"/>
<path d="M17.51 84.8684C17.44 84.9284 17.36 84.9884 17.3 85.0684L17.08 85.3884C16.76 85.8684 16.88 86.5184 17.36 86.8384L18.13 87.3584L18.77 86.4184C18.34 85.8984 17.93 85.3784 17.51 84.8584V84.8684Z" fill="#999999"/>
<path d="M19.52 85.3186L18.75 84.7986C18.35 84.5286 17.85 84.5786 17.5 84.8786C17.91 85.3986 18.33 85.9186 18.76 86.4386L19.52 85.3286V85.3186Z" fill="#999999"/>
<path d="M18.77 86.4287L18.13 87.3687L21.64 89.7487C20.65 88.6487 19.7 87.5387 18.77 86.4287Z" fill="#999999"/>
<path d="M23.5 89.4883C23.75 89.1183 24.1 88.8484 24.48 88.6884L19.52 85.3184L18.76 86.4283C19.68 87.5483 20.64 88.6484 21.63 89.7484L23.11 90.7484C23.11 90.3084 23.23 89.8684 23.5 89.4784V89.4883Z" fill="#999999"/>
<path d="M23.5 89.4885C23.24 89.8785 23.11 90.3185 23.11 90.7585L23.79 91.2185C24.27 91.5385 24.92 91.4185 25.24 90.9385L25.46 90.6185C25.78 90.1385 25.66 89.4885 25.18 89.1685L24.48 88.6885C24.1 88.8485 23.75 89.1185 23.5 89.4885Z" fill="#999999"/>
<path d="M21.84 95.9384L21.62 96.2584C21.3 96.7384 20.65 96.8585 20.17 96.5385L19.49 96.0784C19.49 96.7984 19.84 97.5084 20.48 97.9384C21.51 98.6384 22.91 98.3684 23.61 97.3384C24.31 96.3084 24.04 94.9084 23.01 94.2084C22.35 93.7584 21.54 93.7084 20.86 94.0084L21.56 94.4884C22.04 94.8084 22.16 95.4584 21.84 95.9384Z" fill="#666666"/>
<path d="M15.13 90.1288C14.65 89.8088 14 89.9288 13.68 90.4088L13.46 90.7288C13.14 91.2088 13.26 91.8588 13.74 92.1788L14.51 92.6988L15.91 90.6488L15.14 90.1288H15.13Z" fill="#999999"/>
<path d="M19.88 94.8184C20.13 94.4484 20.48 94.1784 20.86 94.0184L15.9 90.6484L14.5 92.6984L19.48 96.0884C19.48 95.6484 19.6 95.2084 19.87 94.8184H19.88Z" fill="#999999"/>
<path d="M19.88 94.8185C19.62 95.2085 19.49 95.6486 19.49 96.0886L20.17 96.5485C20.65 96.8685 21.3 96.7486 21.62 96.2686L21.84 95.9485C22.16 95.4685 22.04 94.8185 21.56 94.4985L20.86 94.0186C20.48 94.1786 20.13 94.4485 19.88 94.8185Z" fill="#999999"/>
<path d="M18.22 101.268L18 101.589C17.68 102.069 17.03 102.188 16.55 101.868L15.87 101.409C15.87 102.129 16.22 102.838 16.86 103.268C17.89 103.968 19.29 103.698 19.99 102.668C20.69 101.638 20.42 100.239 19.39 99.5385C18.73 99.0885 17.92 99.0385 17.24 99.3385L17.94 99.8185C18.42 100.138 18.54 100.788 18.22 101.268Z" fill="#666666"/>
<path d="M11.51 95.4589C11.03 95.1389 10.38 95.2588 10.06 95.7388L9.84 96.0589C9.52 96.5389 9.64 97.1889 10.12 97.5089L10.89 98.0289L12.29 95.9789L11.52 95.4589H11.51Z" fill="#999999"/>
<path d="M16.26 100.148C16.51 99.7785 16.86 99.5085 17.24 99.3485L12.28 95.9785L10.88 98.0285L15.86 101.418C15.86 100.978 15.98 100.538 16.25 100.148H16.26Z" fill="#999999"/>
<path d="M16.26 100.149C16 100.539 15.87 100.979 15.87 101.419L16.55 101.879C17.03 102.199 17.68 102.079 18 101.599L18.22 101.279C18.54 100.799 18.42 100.149 17.94 99.8286L17.24 99.3486C16.86 99.5086 16.51 99.7786 16.26 100.149Z" fill="#999999"/>
<path d="M14.71 106.679L14.49 106.999C14.17 107.479 13.52 107.599 13.04 107.279L12.36 106.819C12.36 107.539 12.71 108.249 13.35 108.679C14.38 109.379 15.78 109.109 16.48 108.079C17.18 107.049 16.91 105.649 15.88 104.949C15.22 104.499 14.41 104.449 13.73 104.749L14.43 105.229C14.91 105.549 15.03 106.199 14.71 106.679Z" fill="#666666"/>
<path d="M8.01 100.868C7.53 100.548 6.88 100.668 6.56 101.148L6.34 101.468C6.02 101.948 6.14 102.598 6.62 102.918L7.27 103.358L8.67 101.308L8.02 100.868H8.01Z" fill="#999999"/>
<path d="M12.75 105.559C13 105.189 13.35 104.919 13.73 104.759L8.65 101.309L7.25 103.359L12.35 106.829C12.35 106.389 12.47 105.949 12.74 105.559H12.75Z" fill="#999999"/>
<path d="M12.75 105.559C12.49 105.949 12.36 106.389 12.36 106.829L13.04 107.289C13.52 107.609 14.17 107.489 14.49 107.009L14.71 106.689C15.03 106.209 14.91 105.559 14.43 105.239L13.73 104.759C13.35 104.919 13 105.189 12.75 105.559Z" fill="#999999"/>
<path d="M11.21 112.089L10.99 112.409C10.67 112.889 10.02 113.009 9.53998 112.689L8.85999 112.229C8.85999 112.949 9.20999 113.659 9.84999 114.089C10.88 114.789 12.28 114.519 12.98 113.489C13.68 112.459 13.41 111.059 12.38 110.359C11.72 109.909 10.91 109.859 10.23 110.159L10.93 110.639C11.41 110.959 11.53 111.609 11.21 112.089Z" fill="#666666"/>
<path d="M4.49999 106.278C4.01999 105.958 3.36999 106.078 3.04999 106.558L2.82999 106.878C2.50999 107.358 2.62999 108.008 3.10999 108.328L3.63999 108.688L5.03999 106.638L4.50999 106.278H4.49999Z" fill="#999999"/>
<path d="M9.25001 110.969C9.50001 110.599 9.85001 110.329 10.23 110.169L5.04001 106.639L3.64001 108.689L8.86001 112.229C8.86001 111.789 8.98001 111.349 9.25001 110.959V110.969Z" fill="#999999"/>
<path d="M9.24998 110.969C8.98998 111.359 8.85999 111.799 8.85999 112.239L9.53998 112.699C10.02 113.019 10.67 112.899 10.99 112.419L11.21 112.099C11.53 111.619 11.41 110.969 10.93 110.649L10.23 110.169C9.84998 110.329 9.49998 110.599 9.24998 110.969Z" fill="#999999"/>
<path d="M206.01 53.9485L203.63 50.6885L175.18 58.1585C175.92 59.2585 176.63 60.3685 177.31 61.4785L206.01 53.9385V53.9485Z" fill="#FBCE17"/>
<path d="M153.53 63.8589L150.33 68.569L177.31 61.489C176.63 60.379 175.92 59.2689 175.18 58.1689L153.52 63.8589H153.53Z" fill="#FBCE17"/>
<path d="M120.38 73.8082C120.4 73.8982 120.4 73.9982 120.38 74.1082C120.36 74.2182 120.32 74.3282 120.26 74.4482C120.04 74.9182 119.62 75.4782 119.4 75.9882C119.35 76.1182 119.3 76.2382 119.28 76.3582C119.26 76.4782 119.25 76.5982 119.28 76.6982C119.28 76.6982 119.28 76.6982 119.28 76.7082L132.77 73.1682C133.96 71.5882 135.12 69.9882 136.25 68.3682L119.07 72.8782C119.77 73.0182 120.31 73.2582 120.38 73.7882V73.8082Z" fill="#FBCE17"/>
<path d="M132.76 73.1784L150.32 68.5684L153.52 63.8584L136.25 68.3884C135.12 70.0084 133.95 71.6084 132.77 73.1884L132.76 73.1784Z" fill="#FBCE17"/>
<path d="M208.14 61.8785L208.11 61.7686L181.28 68.8185C181.82 69.9585 182.33 71.0985 182.8 72.2485L207.79 65.6885L208.15 61.8885L208.14 61.8785Z" fill="#A97317"/>
<path d="M143.4 78.7684L140.24 83.4183L182.79 72.2484C182.32 71.1084 181.82 69.9684 181.27 68.8184L143.4 78.7584V78.7684Z" fill="#A97317"/>
<path d="M121.59 84.4888C121.86 84.9388 122.27 85.2088 122.67 85.4388C123.15 84.9088 123.62 84.3689 124.09 83.8389L121.59 84.4988V84.4888Z" fill="#A97317"/>
<path d="M122.67 85.4385C123.11 85.6785 123.54 85.8685 123.76 86.1385C123.76 86.1385 123.76 86.1386 123.77 86.1486C123.81 86.1886 123.83 86.2386 123.86 86.2886C123.86 86.2986 123.88 86.3186 123.88 86.3286C123.9 86.3786 123.91 86.4286 123.92 86.4786C123.92 86.4986 123.93 86.5186 123.93 86.5386C123.93 86.5886 123.93 86.6485 123.92 86.6985C123.92 86.7285 123.92 86.7586 123.92 86.7886C123.91 86.8486 123.88 86.9086 123.86 86.9786C123.85 87.0186 123.84 87.0486 123.82 87.0886C123.79 87.1586 123.74 87.2486 123.69 87.3286C123.67 87.3686 123.66 87.3985 123.63 87.4385C123.55 87.5685 123.46 87.6986 123.36 87.8486L140.24 83.4185L143.4 78.7686L124.09 83.8386C123.62 84.3786 123.15 84.9085 122.67 85.4385Z" fill="#A97317"/>
<path d="M206.05 53.9385L206.03 53.9485L206.07 54.0085L206.05 53.9385Z" fill="#FBAE17"/>
<path d="M208.11 61.7783L206.07 54.0082L206.03 53.9482L177.31 61.4882C178.8 63.9182 180.11 66.3682 181.28 68.8182L208.11 61.7682V61.7783Z" fill="#FBAE17"/>
<path d="M143.4 78.7681L181.27 68.8281C180.11 66.3781 178.79 63.928 177.3 61.498L150.32 68.5781L143.39 78.7681H143.4Z" fill="#FBAE17"/>
<path d="M119.78 77.6182C120.18 77.9782 120.76 78.2482 121.31 78.5682C121.58 78.7282 121.85 78.9082 122.08 79.1182C122.31 79.3282 122.5 79.5782 122.63 79.8882C122.73 80.0682 122.78 80.2482 122.79 80.4382C122.81 80.7182 122.73 80.9983 122.61 81.2883C122.57 81.3783 122.52 81.4782 122.47 81.5782C122.37 81.7682 122.26 81.9583 122.14 82.1483C122.08 82.2483 122.03 82.3382 121.97 82.4382C121.8 82.7282 121.64 83.0083 121.54 83.2883C121.4 83.6583 121.36 84.0282 121.52 84.3882C121.54 84.4282 121.57 84.4682 121.59 84.5082L124.09 83.8483C127.12 80.4083 130.01 76.8582 132.76 73.1982L119.27 76.7382C119.32 77.1082 119.51 77.3982 119.77 77.6382L119.78 77.6182Z" fill="#FBAE17"/>
<path d="M132.76 73.1783C130.01 76.8383 127.12 80.3984 124.09 83.8284L143.4 78.7584L150.33 68.5684L132.77 73.1783H132.76Z" fill="#FBAE17"/>
<path d="M108.81 86.5682C108.72 86.2382 108.56 85.9882 108.36 85.8082C108.35 85.8082 108.34 85.7882 108.33 85.7782C108.64 85.3282 108.76 84.7482 108.59 84.0682C108.37 83.2282 107.82 82.7582 107.18 82.5782C107.18 82.5782 107.18 82.5782 107.18 82.5682C107.2 82.4082 107.2 82.2382 107.15 82.0482C107.05 81.6582 106.82 81.3982 106.55 81.2582L118.32 73.4082L101.66 84.5182C99.92 85.9782 100.2 86.8582 102.36 87.1782L108.82 87.3882C108.88 87.1482 108.89 86.8782 108.82 86.5782L108.81 86.5682Z" fill="#1B1819"/>
<path d="M107.17 82.5583C107.17 82.5583 107.17 82.5583 107.17 82.5683C107.81 82.7483 108.36 83.2183 108.58 84.0583C108.76 84.7383 108.63 85.3183 108.32 85.7683C108.33 85.7683 108.34 85.7883 108.35 85.7983L121.22 84.5183L119.18 76.7383L107.17 82.5583Z" fill="#DEC49F"/>
<path d="M119.27 76.709L119.18 76.749L119.27 76.729C119.27 76.729 119.27 76.729 119.27 76.719V76.709Z" fill="#DEC49F"/>
<path d="M121.23 84.5283L121.59 84.4882C121.59 84.4882 121.54 84.4082 121.52 84.3682C121.36 84.0182 121.41 83.6482 121.54 83.2682C121.64 82.9882 121.8 82.6982 121.97 82.4182C122.03 82.3182 122.08 82.2282 122.14 82.1282C122.25 81.9382 122.37 81.7482 122.47 81.5582C122.52 81.4582 122.57 81.3682 122.61 81.2682C122.73 80.9882 122.81 80.6982 122.79 80.4182C122.78 80.2382 122.73 80.0482 122.63 79.8682C122.5 79.5682 122.31 79.3183 122.08 79.0983C121.85 78.8783 121.59 78.7082 121.31 78.5482C120.76 78.2282 120.18 77.9583 119.78 77.5983C119.51 77.3583 119.33 77.0782 119.28 76.6982L119.19 76.7183L121.23 84.4982V84.5283Z" fill="#DEC49F"/>
<path d="M120.38 73.8086C120.4 73.8986 120.4 73.9986 120.38 74.1086C120.4 73.9986 120.41 73.8986 120.38 73.8086Z" fill="#F3D8BF"/>
<path d="M119.28 76.3584C119.26 76.4784 119.25 76.5984 119.28 76.6984C119.26 76.5884 119.26 76.4784 119.28 76.3584Z" fill="#F3D8BF"/>
<path d="M107.14 82.0385C107.19 82.2285 107.2 82.3984 107.17 82.5584L119.18 76.7384L118.3 73.3984L106.53 81.2484C106.81 81.3884 107.03 81.6485 107.13 82.0385H107.14Z" fill="#F3D8BF"/>
<path d="M119.27 76.7082C119.25 76.5982 119.25 76.4882 119.27 76.3682C119.29 76.2482 119.33 76.1282 119.39 75.9982C119.61 75.4882 120.03 74.9282 120.25 74.4582C120.3 74.3382 120.35 74.2282 120.37 74.1182C120.39 74.0082 120.4 73.9082 120.37 73.8182C120.3 73.2882 119.76 73.0482 119.06 72.9082L118.3 73.4182L119.18 76.7582L119.27 76.7182V76.7082Z" fill="#F3D8BF"/>
<path d="M108.81 87.3789L120.53 87.7589L108.81 87.3789Z" fill="#AF826F"/>
<path d="M120.53 87.7588L122.09 87.8088L120.53 87.7588Z" fill="#AF826F"/>
<path d="M123.36 87.8485C123.47 87.6985 123.56 87.5685 123.63 87.4385C123.55 87.5685 123.46 87.6985 123.36 87.8485Z" fill="#AF826F"/>
<path d="M121.59 84.4883C121.86 84.9383 122.27 85.2083 122.67 85.4383C122.27 85.2183 121.86 84.9383 121.59 84.4883Z" fill="#AF826F"/>
<path d="M123.76 86.1385C123.53 85.8685 123.1 85.6785 122.67 85.4385C123.11 85.6785 123.54 85.8685 123.77 86.1385H123.76Z" fill="#AF826F"/>
<path d="M121.24 84.5786V84.5186L108.35 85.7985C108.55 85.9785 108.72 86.2285 108.8 86.5585C108.88 86.8585 108.87 87.1285 108.8 87.3685L120.52 87.7485C120.92 87.3185 121.32 86.8785 121.72 86.4485L121.23 84.5786H121.24Z" fill="#AF826F"/>
<path d="M120.53 87.7582L122.09 87.8082L121.73 86.4482C121.33 86.8882 120.93 87.3182 120.53 87.7482V87.7582Z" fill="#AF826F"/>
<path d="M121.73 86.4583C122.04 86.1183 122.36 85.7883 122.66 85.4383C122.26 85.2183 121.85 84.9383 121.58 84.4883L121.23 84.5783L121.72 86.4483L121.73 86.4583Z" fill="#AF826F"/>
<path d="M121.73 86.4583L122.09 87.8182L123.36 87.8582C123.47 87.7082 123.56 87.5782 123.63 87.4482C123.65 87.4082 123.67 87.3783 123.69 87.3383C123.74 87.2583 123.78 87.1683 123.82 87.0983C123.84 87.0583 123.84 87.0282 123.86 86.9882C123.88 86.9182 123.91 86.8582 123.92 86.7982C123.92 86.7682 123.92 86.7383 123.92 86.7083C123.92 86.6483 123.93 86.5982 123.93 86.5482C123.93 86.5282 123.93 86.5082 123.92 86.4882C123.92 86.4382 123.9 86.3883 123.88 86.3383C123.88 86.3283 123.86 86.3082 123.86 86.2982C123.84 86.2482 123.81 86.1983 123.77 86.1583C123.77 86.1583 123.77 86.1583 123.76 86.1483C123.53 85.8783 123.1 85.6882 122.66 85.4482C122.35 85.7882 122.04 86.1283 121.73 86.4683V86.4583Z" fill="#AF826F"/>
<path d="M121.24 84.5783L121.59 84.4883L121.23 84.5283L121.24 84.5783Z" fill="#AF826F"/>
</svg>
