<svg width="692" height="932" viewBox="0 0 692 932" fill="none" xmlns="http://www.w3.org/2000/svg">
<g clip-path="url(#clip0_497_10530)">
<path d="M-0.000277963 773.723C4.95004 772.983 8.98178 775.382 12.9625 777.73C32.7383 789.37 52.0802 801.315 69.8912 816.196C93.3925 835.849 111.586 859.817 131.183 882.814C146.8 901.141 164.509 917.63 189.056 923.016C203.218 926.129 217.406 927.176 232.512 924.955C257.595 921.28 281.25 913.929 303.909 903.54C318.658 896.776 329.63 884.346 338.026 870.563C360.43 833.808 378.547 794.704 397.914 756.341C418.277 716.038 438.92 675.888 458.211 635.074C467.474 615.471 477.732 596.405 487.582 577.134C499.728 553.37 514.349 531.011 530.553 509.775C554.896 477.895 585.874 454.004 620.373 433.992C636.704 424.523 651.734 412.935 664.518 398.743C679.088 382.535 688.198 364.081 686.233 341.849C685.059 328.551 680.645 315.865 674.776 303.792C660.333 274.158 641.272 246.975 627.799 216.881C612.463 182.653 597.841 148.093 580.337 114.886C570.181 95.6403 557.984 77.8497 544.408 60.7739C532.211 45.4337 518.891 31.625 502.152 21.6194C482.529 9.87813 462.294 3.24176 438.053 7.22358C413.761 11.2054 393.372 21.3386 375.97 37.0872C362.343 49.4155 353.387 65.9298 347.033 83.4396C339.659 103.732 334.708 124.815 327.028 145.081C320.853 161.366 312.815 175.966 300.643 188.651C280.74 209.403 257.876 226.402 235.319 243.963C216.538 258.588 199.187 275.001 178.722 287.584C145.652 307.927 113.245 305.809 83.007 283.781C68.2836 273.061 57.0816 258.512 42.2561 247.97C29.0638 238.603 16.9176 227.398 -0.000253973 224.896L-0.000253638 217.239C19.1631 221.833 34.5499 232.86 49.7071 244.933C65.4512 257.491 78.6181 272.959 95.8166 283.934C120.186 299.479 147.821 299.555 172.164 283.832C191.914 271.07 209.623 255.806 227.766 241.028C241.673 229.695 256.881 219.919 270.354 208.101C295.54 186.048 318.046 161.851 326.645 127.852C330.192 113.788 335.321 100.107 339.301 86.1452C344.788 66.9253 354.101 49.3389 367.651 35.2494C384.314 17.9438 404.983 5.74316 429.709 2.98652C435.144 2.37393 440.094 0.280926 445.734 0.0512064C479.263 -1.25054 506.949 11.333 530.349 34.4071C553.773 57.5068 571.839 84.4095 587.303 113.456C606.926 150.339 621.241 189.621 640.455 226.632C653.112 251.033 667.529 274.516 679.879 299.07C691.056 321.251 695.445 344.836 689.065 369.696C685.978 381.744 679.879 392.107 671.994 401.27C656.48 419.265 637.189 432.742 616.775 444.458C589.115 460.334 564.72 480.268 544.051 504.287C527.491 523.558 514.043 545.228 501.055 567.154C490.848 584.408 481.126 602.071 472.756 620.066C457.778 652.252 441.345 683.673 425.881 715.604C406.922 754.707 387.172 793.428 367.421 832.148C359.281 848.101 351.856 864.769 341.241 878.96C329.783 894.301 316.336 908.569 296.382 914.312C280.842 918.778 265.94 925.211 249.915 928.299C223.122 933.455 196.533 934.17 170.812 923.909C160.783 919.927 151.725 913.495 143.84 905.94C126.157 889.068 111.765 869.287 95.8166 850.883C87.3194 841.082 77.9291 831.944 67.5436 823.7C57.7195 815.915 48.4568 807.211 37.8927 800.422C25.67 792.56 12.6817 785.898 -0.000278182 778.726L-0.000277958 773.621L-0.000277963 773.723Z" fill="#60935D" fill-opacity="0.1"/>
<path d="M0.000111004 296.415C5.40972 295.803 9.56902 298.508 13.8559 301.316C33.7338 314.257 52.7186 328.576 74.2551 338.965C86.3757 344.81 98.9557 349.506 111.842 351.931C128.454 355.071 144.3 349.379 158.36 340.598C174.027 330.822 188.189 319.005 201.279 305.783C230.267 276.506 261.679 250.14 296.101 227.321C320.419 211.215 342.032 191.944 353.005 163.918C360.277 145.387 366.044 126.244 372.372 107.33C379.058 87.3191 389.826 69.6817 406.871 57.3534C428.204 41.8856 452.394 39.8947 477.35 47.7052C496.488 53.7034 511.134 66.5678 523.357 81.4996C540.581 102.506 554.361 126.04 565.027 151.028C577.275 179.667 587.839 208.994 597 238.807C603.226 259.048 609.529 279.238 614.224 299.912C620.833 328.985 608.916 361.094 584.803 378.068C572.478 386.747 560.204 395.399 549.563 406.298C535.707 420.49 524.556 436.468 514.783 453.646C497.84 483.382 484.239 514.624 470.843 546.045C455.022 583.132 441.371 621.087 425.142 657.969C406.335 700.697 386.049 742.787 359.69 781.559C344.252 804.25 327.028 825.537 306.283 843.558C287.017 860.276 266.246 874.697 240.959 881.64C213.783 889.068 188.444 887.536 164.331 871.379C156.216 865.943 148.74 860.123 141.901 853.257C123.911 835.186 106.483 816.476 87.6515 799.298C60.5013 774.539 32.0497 751.21 -0.0765072 732.909L-0.0765069 725.252C13.9835 730.842 25.4151 740.618 37.6123 749.092C79.5115 778.138 114.138 815.225 149.913 851.062C166.04 867.219 185.102 878.092 207.812 880.594C222.969 882.253 237.386 876.893 251.344 871.047C272.472 862.165 290.283 848.458 306.895 832.991C334.785 807.032 356.22 776.173 375 743.298C400.262 699.089 420.829 652.711 439.099 605.236C449.383 578.486 460.84 552.171 472.144 525.804C479.366 508.983 486.587 492.111 494.982 475.852C509.935 446.857 525.399 418.116 550.023 395.604C559.03 387.359 569.007 380.442 578.755 373.295C593.529 362.447 603.889 348.664 608.814 331.307C612.463 318.443 609.911 305.068 606.39 292.638C594.346 250.318 581.077 208.382 564.491 167.517C552.957 139.108 538.438 112.461 519.734 88.4422C504.27 68.5842 484.673 52.9632 458.85 49.2877C440.324 46.6587 423.253 52.9122 408.836 64.9342C393.653 77.6199 383.727 93.9555 377.425 112.614C372.525 127.188 366.809 141.482 362.523 156.235C353.949 185.716 335.729 207.616 311.105 225.049C290.003 239.981 268.109 254.019 248.869 271.248C232.513 285.899 215.518 299.938 200.693 316.299C192.476 325.335 182.346 332.175 172.624 339.475C140.957 363.315 107.963 361.911 73.5151 346.137C50.6006 335.647 30.5442 320.715 9.59459 307.136C6.43047 305.094 3.21526 303.282 -0.102001 301.546L-0.102001 296.441L0.000111004 296.415Z" fill="#60935D" fill-opacity="0.1"/>
<path d="M354.076 289.09C362.777 289.754 371.504 287.456 380.282 291.106C398.808 298.84 409.805 313.16 415.19 331.358C419.196 344.886 421.799 359.308 420.752 373.474C418.736 400.913 414.73 428.122 407.024 454.667C397.047 488.998 389.341 523.915 382.961 559.037C376.812 593.01 371.657 627.161 359.741 659.705C347.441 693.295 331.366 724.818 305.364 750.189C285.588 769.486 262.648 783.473 235.166 788.655C223.785 790.799 212.098 789.012 201.713 784.928C176.859 775.152 157.543 758.127 143.891 735.002C138.839 726.426 133.608 717.952 129.984 708.533C120.109 682.83 121.308 657.153 128.555 631.143C134.935 608.273 144.555 586.654 153.001 564.575C166.244 529.99 182.754 496.808 197.299 462.784C210.21 432.563 221.821 401.755 237.36 372.734C246.445 355.734 257.545 339.935 270.635 325.947C287.808 307.57 309.727 296.135 333.764 289.371C340.042 287.61 347.263 289.115 354.05 289.115L354.076 289.09ZM354.969 294.322C349.457 294.322 343.588 293.072 338.51 294.527C314.065 301.622 291.789 313.236 274.564 332.201C261.117 347.005 249.685 363.57 240.525 381.489C229.169 403.746 219.652 426.82 210.032 449.869C194.976 485.935 178.467 521.388 163.259 557.403C152.286 583.387 140.906 609.294 133.582 636.631C128.504 655.621 125.672 674.586 132.281 694.24C142.156 723.593 157.977 748.147 183.034 766.933C206.153 784.264 230.547 788.246 256.524 775.535C278.877 764.585 297.964 749.628 313.733 729.668C337.515 699.6 352.417 665.729 362.344 629.254C369.361 603.526 373.52 577.261 378.19 551.022C386.33 505.231 398.986 460.41 410.239 415.283C413.914 400.504 414.016 385.292 414.96 370.487C415.598 360.456 414.092 348.996 410.852 338.454C403.401 314.308 383.982 290.953 354.944 294.322L354.969 294.322Z" fill="#60935D" fill-opacity="0.1"/>
<path d="M321.567 614.501C323.711 634.053 317.969 655.468 308.477 675.607C297.607 698.681 282.398 718.488 256.116 725.711C225.929 734.007 200.412 718.437 193.675 687.093C187.653 659.041 197.579 635.278 211.154 612.587C230.369 580.528 257.647 555.182 284.006 529.199C292.554 520.775 302.863 522.409 307.762 534.227C313.504 548.061 317.816 562.125 319.424 577.338C320.623 588.671 321.389 599.901 321.593 614.476L321.567 614.501ZM316.413 612.281C317.025 602.071 314.958 592.116 314.167 582.085C312.968 566.771 308.477 552.656 302.302 538.974C297.734 528.892 294.698 528.484 286.838 536.703C271.63 552.604 255.325 567.332 241.137 584.331C226.516 601.816 213.17 619.938 204.392 640.843C195.946 660.981 193.93 681.324 206.332 701.54C215.594 716.625 235.727 725.405 248.843 721.883C263.771 717.875 276.58 709.452 286.175 697.634C306.257 672.901 316.464 644.263 316.387 612.255L316.413 612.281Z" fill="#60935D" fill-opacity="0.1"/>
<path d="M280.867 435.702C280.229 420.158 280.178 405.915 285.715 392.234C293.218 373.652 303.322 358.261 325.165 354.509C334.479 352.901 345.885 355.454 350.58 362.83C354.331 368.726 356.908 375.056 357.444 382.663C359.996 417.733 344.711 446.78 327.513 475.291C324.935 479.579 321.465 483.331 319.041 487.67C315.443 494.128 309.931 498.467 302.94 497.701C295.412 496.859 290.768 490.835 288.318 483.739C285.613 475.903 282.296 468.067 281.097 459.951C279.847 451.63 280.816 442.977 280.816 435.702L280.867 435.702ZM285.945 435.907C285.945 441.012 285.001 447.98 286.175 454.565C287.731 463.065 290.844 471.309 293.549 479.579C295.208 484.607 298.908 488.334 303.68 490.095C308.094 491.703 310.748 487.696 312.815 484.684C326.594 464.8 338.715 443.972 346.829 421.077C351.065 409.157 353.157 396.803 352.086 384.041C350.657 367.093 335.448 355.224 321.873 361.503C313.733 365.255 306.308 370.385 300.72 378.477C288.931 395.501 284.669 414.032 285.92 435.932L285.945 435.907Z" fill="#60935D" fill-opacity="0.1"/>
</g>
<defs>
<clipPath id="clip0_497_10530">
<rect width="932" height="692" fill="white" transform="translate(692) rotate(90)"/>
</clipPath>
</defs>
</svg>
