<svg width="1334" height="922" viewBox="0 0 1334 922" fill="none" xmlns="http://www.w3.org/2000/svg">
<g clip-path="url(#clip0_497_10531)">
<path d="M337.108 566.977C360.209 566.49 380.162 570.928 400.287 572.045C425.736 573.476 450.355 579.747 475.689 581.865C491.291 583.154 506.835 584.299 522.379 583.927C557.39 583.039 587.677 570.871 613.527 546.42C641.495 519.965 664.396 489.559 684.463 457.149C696.315 438.024 703.3 416.551 703.099 393.188C702.899 373.318 700.036 353.82 697.947 334.18C696.2 318.032 694.397 301.111 699.721 284.82C705.933 265.78 715.895 258.651 735.734 257.592C754.37 256.59 772.204 261.257 790.21 264.292C813.999 268.3 837.272 270.333 861.634 266.954C894.096 262.431 926.244 256.246 958.678 251.637C986.017 247.743 1013.44 244.393 1040.75 240.27C1074.39 235.174 1107.88 229.104 1140.66 219.456C1165.25 212.212 1190.47 207.459 1215.77 202.936C1237.16 199.099 1258.46 200.244 1279.61 201.017C1294.13 201.533 1309.7 203.565 1319.89 217.394C1322.61 221.088 1324.01 224.38 1324.21 228.847C1324.81 243.133 1322.47 256.876 1318.46 270.533C1307.01 309.528 1294.67 348.209 1275.29 384.112C1257.28 417.495 1231.49 443.292 1197.83 461.1C1165.45 478.25 1130.84 488.872 1095.69 498.75C1054.83 510.231 1012.98 517.618 972.476 530.072C942.218 539.348 913.591 552.805 892.15 577.027C872.827 598.843 857.855 623.781 846.233 650.522C836.957 671.909 828.026 693.44 819.438 715.085C806.928 746.665 789.351 775.295 768.568 801.836C743.721 833.559 715.38 861.388 675.475 873.957C661.591 878.338 647.22 879.884 632.907 882.031C611.58 885.267 590.081 886.813 568.726 889.561C542.676 892.911 517.169 898.924 491.119 902.13C467.388 905.051 443.856 909.03 419.896 910.863C392.615 912.953 365.333 914.842 338.052 916.732C319.617 918.02 301.095 917.505 282.832 919.566C271.524 920.855 260.245 922.716 249.023 921.742C220.626 919.28 191.77 918.364 164.918 907.37C128.104 892.338 104.201 865.74 96.2717 826.23C92.3784 806.847 88.8574 787.091 90.6036 767.365C93.7811 731.519 95.2125 695.415 107.236 660.801C118.057 629.622 139.126 609.866 169.384 598.242C201.36 585.959 234.853 579.775 268.203 573.333C279.482 571.157 291.305 569.354 303.271 569.354C315.409 569.354 327.489 565.345 337.136 566.977L337.108 566.977ZM708.481 389.924C711.83 414.088 704.502 439.57 690.532 462.217C671.324 493.424 649.31 522.657 622.859 548.653C594.805 576.225 561.999 589.538 523.095 589.882C497.045 590.111 471.309 588.479 445.517 584.413C428.427 581.722 411.136 579.517 393.874 577.628C377.099 575.796 360.238 573.963 343.434 572.904C320.332 571.415 297.173 575.194 274.587 579.002C240.664 584.728 206.685 591.457 174.422 604.197C150.09 613.789 129.937 628.161 118.801 653.07C111.472 669.39 107.379 686.311 103.886 703.89C99.7355 724.762 98.8481 745.834 96.6152 766.706C94.4968 786.633 99.5351 806.618 103.886 826.459C110.156 855.061 126.473 875.847 150.061 891.05C172.018 905.222 197.181 911.092 223.088 913.268C228.756 913.754 235.025 912.237 240.063 914.155C248.594 917.39 257.554 917.591 265.341 915.73C287.269 910.433 309.655 915.673 331.64 910.92C345.266 907.971 359.809 909.402 373.95 908.314C397.424 906.511 420.869 904.421 444.314 902.245C461.176 900.67 478.008 898.408 494.497 895.402C519.746 890.821 544.994 886.011 570.358 882.203C595.377 878.452 620.74 877.078 645.875 873.671C668.375 870.636 688.5 862.476 706.821 850.308C732.9 832.987 753.711 809.881 771.546 784.285C787.319 761.667 802.09 738.533 811.966 712.422C820.698 689.317 830.488 666.613 840.565 644.051C852.273 617.911 866.987 593.318 885.852 571.73C907.179 547.336 935.805 533.651 966.006 524.432C1006.97 511.891 1049.28 504.39 1090.62 492.88C1126.72 482.802 1162.3 471.865 1195.19 453.713C1227.51 435.876 1252.62 410.509 1269.74 377.641C1291.18 336.441 1304.75 292.522 1316.85 247.8C1322.61 226.556 1307.67 212.069 1291.15 209.206C1268.28 205.226 1245.43 204.797 1222.21 208.633C1193.62 213.357 1165.56 219.799 1137.68 227.673C1113.43 234.516 1088.7 239.64 1063.77 243.133C1046.59 245.538 1029.33 247.772 1012.1 249.862C994.547 251.98 976.885 254.528 959.422 257.678C939.641 261.228 919.86 264.635 900.051 267.899C884.821 270.39 869.592 273.511 854.248 274.685C820.125 277.319 786.632 271.764 753.482 264.263C729.522 258.852 707.164 271.592 703.414 294.927C701.639 306.093 701.639 318.003 703.471 329.169C706.62 348.295 709.34 367.334 708.481 389.952L708.481 389.924Z" fill="#60935D" fill-opacity="0.1"/>
<path d="M210.721 523.888C183.583 525.606 157.218 521.826 131.74 512.435C96.5579 499.466 73.2271 474.7 65.3834 438.31C61.0322 418.154 63.0074 396.48 70.937 376.954C90.3459 329.169 123.037 293.18 168.783 268.472C198.039 252.667 229.357 244.45 261.304 237.722C288.671 231.967 316.153 226.756 342.547 217.308C371.231 207.058 397.853 192.514 424.104 177.254C447.578 163.597 472.025 151.887 498.075 144.156C508.037 141.179 519.144 141.694 529.221 143.956C541.416 146.705 547.599 157.985 550.491 168.435C558.449 197.123 564.947 226.27 570.873 255.473C575.596 278.807 575.51 302.771 573.707 326.335C571.331 357.056 559.508 385.286 544.05 411.626C536.492 424.481 529.278 437.566 521.034 450.077C501.453 479.768 475.546 498.664 439.791 504.361C424.448 506.795 408.903 507.625 393.846 510.288C374.15 513.724 354.312 510.374 334.703 514.812C322.05 517.675 308.481 516.415 295.284 517.646C281.257 518.963 267.001 520.309 253.088 521.884C238.861 523.487 224.777 522.972 210.692 523.916L210.721 523.888ZM212.782 518.047C229.042 521.025 247.964 516.816 266.514 514.497C291.677 511.376 316.983 509.63 342.174 507.31C368.396 504.905 394.819 504.161 421.07 501.126C460.975 496.545 492.922 479.538 514.85 444.895C522.379 433.042 528.734 420.53 536.263 408.734C565.491 363.039 574.709 313.336 565.004 260.484C559.737 231.681 553.296 202.993 545.281 174.734C539.527 154.492 522.236 144.128 503.085 149.94C477.951 157.556 454.047 168.493 431.547 181.749C398.855 201.046 365.419 218.224 328.92 229.076C296.715 238.638 263.365 243.162 230.989 251.837C191.398 262.431 156.359 281.041 126.186 308.956C104.688 328.854 89.6875 352.933 78.3227 379.559C70.9656 396.795 67.0438 415.234 71.2233 433.271C78.3227 463.935 96.3575 487.212 125.385 501.212C152.179 514.153 180.463 519.221 212.811 518.047L212.782 518.047Z" fill="#60935D" fill-opacity="0.1"/>
<path d="M138.753 755.655C139.44 726.995 145.509 695.158 164.775 666.985C170.729 658.281 178.144 650.608 186.617 644.681C212.982 626.214 242.954 616.709 274.129 609.408C293.967 604.77 314.292 605.772 334.016 601.363C343.949 599.13 353.625 603.997 363.473 603.94C385.257 603.854 406.269 608.664 427.596 611.899C456.738 616.308 485.336 623.494 514.564 627.617C527.045 629.364 539.784 630.538 552.208 631.969C573.649 634.46 595.005 629.593 615.502 621.862C641.953 611.899 663.108 594.348 683.833 575.939C704.187 557.844 724.999 540.236 748.844 526.894C762.413 519.307 776.927 514.125 793.13 515.184C805.869 516.014 811.05 521.425 811.852 534.624C813.226 557.329 805.497 578.172 798.225 598.757C785.515 634.775 771.316 670.277 757.261 705.808C743.577 740.394 724.569 771.602 695.713 795.738C676.763 811.599 653.976 820.389 630.588 827.117C597.925 836.508 564.976 844.954 532.198 854.002C503.886 861.847 475.689 869.577 446.347 873.499C388.607 881.201 330.695 879.025 272.841 878.367C251.142 878.109 229.042 875.217 208.001 867.716C170.701 854.46 148.057 829.522 141.502 789.811C139.87 779.905 139.326 770.17 138.811 755.597L138.753 755.655ZM339.14 873.242C368.425 873.843 404.237 872.01 440.077 867.888C469.563 864.481 497.646 856.263 526.015 848.562C558.821 839.658 591.684 830.897 624.347 821.534C648.25 814.691 671.438 805.787 690.647 789.439C719.302 765.103 737.68 733.752 751.822 699.28C766.335 663.921 780.048 628.247 792.987 592.287C798.941 575.738 804.895 558.731 805.812 540.866C806.584 525.892 796.308 517.761 782.166 521.597C765.362 526.149 749.961 534.052 735.819 544.13C712.031 561.051 691.219 581.722 668.289 599.674C655.951 609.351 643.298 618.828 628.069 624.697C613.498 630.337 598.669 633.057 583.583 636.378C560.481 641.475 538.267 636.722 515.995 634.603C491.491 632.284 467.359 625.842 443.055 621.261C422.873 617.453 402.748 613.101 382.452 610.267C368.024 608.263 352.881 607.347 338.768 608.091C325.113 608.835 310.828 609.523 296.858 612.099C263.537 618.198 231.361 626.501 202.104 644.137C185.186 654.33 171.102 667.615 162.714 685.48C148.114 716.545 141.215 748.669 147.112 783.684C154.155 825.514 178.43 850.766 217.105 863.45C238.088 870.321 260.331 871.925 282.316 873.07C298.977 873.929 315.695 873.242 339.111 873.242L339.14 873.242Z" fill="#60935D" fill-opacity="0.1"/>
<path d="M834.582 431.267C833.894 409.049 834.009 387.089 842.797 365.874C846.29 357.456 850.841 350.098 856.424 343.255C874.544 321.009 899.22 308.698 924.927 297.589C947.399 287.883 971.245 283.388 994.833 278.321C1013.1 274.398 1032.19 274.541 1050.77 271.85C1069.75 269.073 1088.93 268.042 1107.88 264.435C1125.34 261.114 1143.21 259.797 1160.9 257.735C1165.08 257.248 1169.4 256.389 1173.38 256.132C1194.56 254.757 1215.72 255.702 1233.64 269.13C1247.03 279.18 1251.47 294.182 1252.42 310.044C1254.13 338.646 1245.26 364.442 1229.54 388.034C1211.65 414.833 1185.92 431.668 1156.8 443.721C1128.81 455.345 1099.81 464.106 1070.15 470.491C1051 474.614 1031.76 478.25 1012.44 481.571C993.001 484.892 973.306 487.985 953.983 488.758C925.586 489.874 897.188 494.541 868.819 491.964C861.233 491.277 852.044 492.05 845.231 484.921C838.332 477.677 833.723 470.405 834.438 459.955C835.097 450.449 834.582 440.887 834.582 431.353L834.582 431.267ZM840.307 429.434C840.307 440.142 840.078 449.705 840.364 459.239C840.679 469.06 850.469 482.258 858.742 483.719C869.878 485.665 880.985 487.441 892.436 486.982C898.247 486.753 903.085 483.575 909.039 483.747C941.674 484.807 973.793 480.226 1006.06 475.816C1025.12 473.211 1043.93 469.46 1062.56 465.423C1093.02 458.838 1123.05 449.963 1151.85 437.795C1169.94 430.15 1187.18 420.645 1201.89 407.16C1224.33 386.574 1238.59 361.866 1244.54 331.545C1250.24 302.6 1240.97 280.783 1215.2 267.326C1204.15 261.543 1191.9 261.743 1180.99 261.715C1166.36 261.686 1151.08 263.776 1136.48 266.697C1111.17 271.793 1085.55 274.484 1060.04 277.233C1040.92 279.294 1021.6 281.012 1002.68 283.99C964.747 289.945 927.675 300.424 894.812 321.009C871.853 335.353 853.132 353.62 845.259 381.707C840.65 398.141 840.708 414.231 840.335 429.463L840.307 429.434Z" fill="#60935D" fill-opacity="0.1"/>
<path d="M243.012 489.445C223.116 491.306 201.761 488.299 181.15 480.941C164.689 475.072 149.345 467.37 138.839 452.253C124.469 431.582 121.12 409.307 128.047 385.372C133.744 365.673 144.536 349.211 158.248 333.836C181.522 307.782 210.349 290.632 242.525 279.18C262.192 272.194 282.86 267.47 303.443 263.719C338.854 257.248 373.549 248.258 407.472 236.405C420.755 231.767 434.524 228.417 448.179 226.613C477.893 222.748 501.568 243.362 508.61 275.057C514.507 301.569 507.751 325.676 497.961 348.781C487.598 373.261 475.775 397.339 460.202 419.242C440.908 446.355 415.688 464.65 383.111 472.381C359.866 477.907 336.506 482.029 312.603 484.32C290.103 486.467 267.745 490.218 242.983 489.445L243.012 489.445ZM245.96 483.804C266.113 484.434 286.524 480.34 307.135 478.536C331.067 476.446 354.398 472.094 377.643 466.597C410.22 458.896 435.383 440.4 454.649 413.287C470.222 391.384 481.787 367.162 492.379 342.797C500.766 323.472 507.493 303.029 502.799 280.582C499.077 262.831 489.859 249.375 476.119 238.982C469.506 234 460.46 231.652 452.215 232.368C442.11 233.256 431.919 235.861 422.3 239.268C381.765 253.641 340.228 263.891 298.089 272.165C280.742 275.572 263.48 279.666 246.819 285.65C214.414 297.246 186.131 314.968 162.886 340.879C148.487 356.941 137.637 374.349 133.171 395.593C131.826 402.035 128.935 408.419 130.652 415.004C136.836 438.568 148.372 458.094 171.617 469.002C195.034 479.997 219.538 485.064 246.018 483.862L245.96 483.804Z" fill="#60935D" fill-opacity="0.1"/>
<path d="M396.164 833.044C368.969 833.788 344.722 830.61 320.332 827.948C301.181 825.858 282.344 822.622 263.623 818.643C248.823 815.493 235.139 808.65 223.889 798.773C212.009 788.351 204.68 774.809 204.738 758.088C204.795 741.597 204.108 725.306 213.211 710.16C226.408 688.258 245.702 673.999 268.604 664.408C304.816 649.234 342.947 644.567 381.793 647.258C409.304 649.176 436.585 654.101 463.007 661.831C499.191 672.453 535.118 684.192 568.811 701.571C577.6 706.095 586.045 711.191 592.772 718.664C601.245 728.083 602.219 739.077 595.864 749.728C587.648 763.499 575.023 772.318 562.027 780.85C536.606 797.542 509.812 811.685 481.042 821.506C452.759 831.126 423.445 834.905 396.135 833.015L396.164 833.044ZM395.133 827.289C422.1 829.179 450.011 824.77 476.691 815.465C505.317 805.501 532.169 791.357 557.447 774.293C570.014 765.819 582.065 757.229 590.138 744.002C594.031 737.617 593.917 732.063 589.022 726.422C581.779 718.091 572.819 712.107 563.086 707.297C524.526 688.172 483.905 674.887 442.31 664.064C419.581 658.138 396.479 654.473 373.205 653.013C340.056 650.952 308.108 657.079 276.991 669.418C253.489 678.723 233.736 692.209 220.396 713.481C205.425 737.331 205.367 765.59 224.547 788.008C236.055 801.493 252.344 808.794 269.348 812.773C287.984 817.125 306.849 820.217 326.029 822.135C348.529 824.369 370.829 828.005 395.105 827.26L395.133 827.289Z" fill="#60935D" fill-opacity="0.1"/>
<path d="M1082.52 312.076C1097.09 312.076 1108.54 312.191 1119.99 312.048C1130.9 311.905 1141.14 314.968 1151.68 317.316C1176.01 322.756 1180.08 345.059 1172.4 365.387C1165.79 382.938 1150.76 393.388 1135.02 402.35C1105.48 419.127 1073.21 428.719 1040.15 434.645C1015.24 439.112 989.738 441.259 964.833 432.355C948.286 426.457 934.631 417.896 929.822 399.572C924.44 379.044 933.658 356.397 951.063 342.454C973.65 324.359 1000.01 318.891 1027.58 314.51C1047.05 311.418 1066.34 313.136 1082.55 312.076L1082.52 312.076ZM1085.98 317.745C1065.31 317.974 1045.9 316.972 1026.64 320.637C1005.48 324.645 984.413 329.169 965.978 340.908C952.437 349.526 941.044 360.005 936.693 376.84C932.456 393.274 939.04 409.937 953.582 418.755C979.947 434.731 1008.23 433.529 1036.66 428.404C1059.07 424.367 1081.11 418.412 1102.24 409.479C1123.57 400.46 1144.41 390.611 1159.47 372.173C1173.75 354.679 1172.46 340.994 1160.04 329.885C1153.42 323.987 1145.09 322.756 1136.96 320.608C1119.67 316.085 1102.1 318.547 1085.92 317.774L1085.98 317.745Z" fill="#60935D" fill-opacity="0.1"/>
<path d="M347.499 303.459C365.19 302.829 383.082 305.406 399.971 313.737C408.359 317.86 411.737 324.903 413.827 333.349C421.613 364.986 408.846 390.955 388.349 412.428C371.774 429.778 348.987 438.281 325.342 444.008C300.122 450.106 274.672 450.507 249.252 449.132C234.939 448.359 220.625 444.122 208.86 434.817C184.899 415.892 185.214 388.578 201.445 362.782C219.079 334.781 246.561 320.78 276.991 312.506C299.606 306.35 322.966 303.001 347.527 303.459L347.499 303.459ZM272.554 443.836C297.574 443.521 321.763 439.369 345.123 429.749C379.417 415.606 403.006 393.045 408.359 354.651C410.563 338.703 405.811 322.699 388.864 316.829C377.27 312.792 365.619 309.671 353.396 309.328C342.088 309.013 330.867 310.645 319.588 311.676C291.562 314.224 265.054 321.41 241.122 335.64C221.427 347.321 206.627 363.984 198.583 386.545C193.945 399.601 197.609 409.622 204.852 419.213C211.78 428.375 221.112 434.531 232.276 438.253C245.445 442.662 258.699 444.895 272.583 443.864L272.554 443.836Z" fill="#60935D" fill-opacity="0.1"/>
</g>
<defs>
<clipPath id="clip0_497_10531">
<rect width="922" height="1333.05" fill="white" transform="translate(0 922) rotate(-90)"/>
</clipPath>
</defs>
</svg>
