<?xml version="1.0" encoding="utf-8"?>
<!-- Generator: Adobe Illustrator 28.2.0, SVG Export Plug-In . SVG Version: 6.00 Build 0)  -->
<svg version="1.1" id="Layer_2_00000128471425862153773830000002630476516649854117_"
	 xmlns="http://www.w3.org/2000/svg" xmlns:xlink="http://www.w3.org/1999/xlink" x="0px" y="0px" viewBox="0 0 596.2 174.9"
	 style="enable-background:new 0 0 596.2 174.9;" xml:space="preserve">
<style type="text/css">
	.st0{fill:#FFFFFF;}
</style>
<g id="Layer_1-2">
	<g>
		<path class="st0" d="M251.4,98.1c2,2.8,3,6.6,3,11.2c0,12.9-7.5,19.3-22.6,19.3h-27.4c-1.9,0-2.9-1-2.9-3v-9.2
			c0-1.1,0.2-1.8,0.6-2.2c0.4-0.4,1.1-0.7,2.3-0.7h24.1c4.7,0,7.1-1.4,7.1-4.3v-0.7c0-2.3-2-4.5-5.9-6.6l-14.3-7.9
			c-4.9-2.5-8.5-5.2-10.8-8.1s-3.5-6.6-3.5-11.1c0-6.7,1.8-11.7,5.3-14.8c3.6-3.2,9.1-4.8,16.7-4.8h24.1c1.9,0,2.9,1,2.9,3v9.4
			c0,1.1-0.2,1.8-0.6,2.2c-0.4,0.4-1.1,0.7-2.3,0.7h-20c-4.7,0-7.1,1.2-7.1,3.6v0.7c0,2.1,2.1,4.3,6.2,6.5l14.5,8.6
			C245.8,92.6,249.3,95.3,251.4,98.1L251.4,98.1z M302.9,112.8h-5.8c-3.1,0-5.3-0.7-6.6-1.9c-1.4-1.3-2-3.4-2-6.4V72.6
			c0-1.1,0.6-1.6,1.7-1.6h11.2c1.1,0,1.9-0.2,2.4-0.7s0.6-1.2,0.6-2.2v-9.9c0-2-1-3-3-3h-11.2c-1.1,0-1.7-0.5-1.7-1.6V39.9
			c0-2-1-3-3-3h-12.1c-2.1,0-3.2,1-3.2,3v13.7c0,1.1-0.5,1.6-1.6,1.6h-5.8c-2,0-3,1-3,3v9.9c0,1.2,0.2,1.9,0.6,2.3
			c0.4,0.4,1.2,0.6,2.4,0.6h5.8c1.1,0,1.6,0.5,1.6,1.6v32.7c0,7.5,2.1,13.2,6.3,17.3c4.2,4,10.1,6.1,17.6,6.1h8.8
			c1.1,0,1.9-0.2,2.4-0.7c0.4-0.4,0.6-1.2,0.6-2.2v-9.9C306,113.8,304.9,112.8,302.9,112.8L302.9,112.8z M374.2,55.2h-12.1
			c-2,0-3,1-3,3v43.6c0,7.3-3.3,10.9-9.9,10.9h-5.3c-3,0-5.1-0.7-6.4-1.9s-1.9-3.5-1.9-6.6V58.2c0-2-1-3-3-3h-12.2c-2,0-3,1-3,3
			v46.9c0,7.6,1.9,13.4,5.7,17.4c3.8,4,9.4,6.1,16.8,6.1h4.8c3,0,5.8-0.7,8.5-1.9c2.7-1.3,4.6-3.2,5.6-5.8h0.6v4.8c0,2,1,3,3,3h12.1
			c2.1,0,3.2-1,3.2-3V58.2C377.4,56.2,376.3,55.2,374.2,55.2L374.2,55.2z M453.1,30.4v95.2c0,2-1,3-3,3h-12.2c-2,0-3-1-3-3v-4.8
			h-0.6c-1.1,2.6-2.9,4.5-5.6,5.8c-2.7,1.3-5.5,1.9-8.5,1.9h-5.9c-7.4,0-13-2-16.8-6.1c-3.8-4-5.7-9.8-5.7-17.4V78.6
			c0-7.6,1.9-13.4,5.7-17.4c3.8-4,9.4-6,16.8-6h5.9c3,0,5.8,0.7,8.5,1.9c2.7,1.3,4.6,3.2,5.6,5.8h0.6V30.4c0-2,1-3,3-3h12.2
			C452.1,27.4,453.1,28.4,453.1,30.4z M434.8,81.9c0-7.3-3.3-10.9-9.9-10.9h-6.5c-3.1,0-5.2,0.7-6.5,1.9c-1.2,1.3-1.9,3.5-1.9,6.6
			v24.8c0,3.1,0.6,5.3,1.9,6.6c1.2,1.3,3.4,1.9,6.5,1.9h6.5c6.6,0,9.9-3.7,9.9-10.9C434.8,101.8,434.8,81.9,434.8,81.9z M472.4,18
			h12.2c1.6,0,2.9-1.3,2.9-2.9V2.7c0-1.8-1-2.7-2.8-2.7h-12.3c-1.6,0-2.9,1.3-2.9,2.9v12.2C469.5,16.7,470.8,18,472.4,18L472.4,18z
			 M526.4,55h-11.9c-1.7,0-3,1.3-3,3v44c0,7.3-3.3,11-9.8,11h-6c-2.9,0-5-0.7-6.3-2s-1.9-3.5-1.9-6.6V29.1c0-1.4-1-2.1-3-2.1h-12.2
			c-1.9,0-2.8,0.7-2.8,2.1v76.4c0,7.6,1.9,13.4,5.7,17.4c3.8,4,9.4,6.1,16.8,6.1h5.1c2.9,0,5.7-0.7,8.4-2c2.6-1.3,4.5-3.3,5.5-6h0.6
			v4.9c0,2.1,1,3.1,3,3.1h11.9c2.1,0,3.1-1,3.1-3.1V58C529.5,56,528.5,55,526.4,55L526.4,55z M593.2,98.1c-2-2.8-5.5-5.6-10.5-8.3
			l-14.5-8.6c-4.1-2.2-6.2-4.4-6.2-6.5V74c0-2.4,2.3-3.6,7.1-3.6h20c1.2,0,1.9-0.2,2.3-0.7s0.6-1.2,0.6-2.2v-9.4c0-2-1-3-2.9-3h-24
			c-7.6,0-13.2,1.6-16.7,4.8c-3.5,3.2-5.3,8.1-5.3,14.8c0,4.5,1.2,8.2,3.5,11.1c2.3,2.9,5.9,5.6,10.8,8.1l14.3,7.9
			c3.9,2.1,5.9,4.3,5.9,6.6v0.7c0,2.9-2.3,4.3-7.1,4.3h-24c-1.2,0-1.9,0.2-2.3,0.7s-0.6,1.2-0.6,2.2v9.2c0,2,1,3,2.9,3h27.4
			c15.1,0,22.6-6.4,22.6-19.3C596.2,104.7,595.2,101,593.2,98.1L593.2,98.1z"/>
		<path class="st0" d="M10,79.9c7.2,2.4,16.2,3.9,27,3.9c0.5,0,0.9,0,1.3,0v81.1c-0.6,0-1.2,0-1.8,0c-12.7,0-21.8-2.1-26.5-6.1
			L10,79.9 M0,63l0.1,99.6c6.1,8.6,18.8,12.3,36.5,12.3c3.7,0,7.7-0.2,11.8-0.5V73.1c-3.7,0.5-7.5,0.8-11.4,0.8
			C21.8,73.8,6.3,69.9,0,63L0,63L0,63z M122.2,17.8L53.7,56.6c-10.2,5.8-28.9,0.5-23.4-4.4l46.9-27H52.5C27.5,38.6-4.2,52.4,2.3,60
			c6.2,6.9,30.3,13.3,50.5,8.7v105.3l27.9-19.7V55.9l49-28.9c7.4-4.1,30-1,18.6,5l-47.4,26.4l0,0v108.3H118l0.2-108.2h0.1l57.3-31.4
			C182.6,19.7,131.8,10,122.2,17.8z M167.5,47.7v77.9l-35.7,22.9V67.5L167.5,47.7 M177.5,30.6l-55.7,31v105.1l55.7-35.7V30.6
			L177.5,30.6z"/>
	</g>
</g>
</svg>
