<svg width="40" height="41" viewBox="0 0 40 41" fill="none" xmlns="http://www.w3.org/2000/svg">
<path d="M40 20.2389C40 31.4165 31.0457 40.4777 20 40.4777C8.9543 40.4777 0 31.4165 0 20.2389C0 9.06125 8.9543 0 20 0C31.0457 0 40 9.06125 40 20.2389Z" fill="#2E384D"/>
<path d="M17.721 13.374V10.938C17.721 10.5647 17.9077 10.378 18.281 10.378H20.717C21.0903 10.378 21.277 10.5553 21.277 10.91V13.374C21.277 13.7473 21.0903 13.934 20.717 13.934H18.281C17.9077 13.934 17.721 13.7473 17.721 13.374ZM17.721 29.474V16.37C17.721 15.978 17.9077 15.782 18.281 15.782H20.689C21.081 15.782 21.277 15.978 21.277 16.37V29.474C21.277 29.7167 21.2303 29.8753 21.137 29.95C21.0623 30.0247 20.9223 30.062 20.717 30.062H18.309C17.917 30.062 17.721 29.866 17.721 29.474Z" fill="white"/>
</svg>
