<svg width="44" height="41" viewBox="0 0 44 41" fill="none" xmlns="http://www.w3.org/2000/svg">
<path d="M26.588 11.3718C26.4583 11.254 26.3042 11.1605 26.1345 11.0966C25.9649 11.0328 25.783 11 25.5993 11C25.4156 11 25.2337 11.0328 25.0641 11.0966C24.8944 11.1605 24.7403 11.254 24.6106 11.3718L15.3267 19.786C15.2231 19.8797 15.141 19.991 15.0849 20.1135C15.0289 20.2359 15 20.3673 15 20.4999C15 20.6325 15.0289 20.7638 15.0849 20.8863C15.141 21.0088 15.2231 21.12 15.3267 21.2137L24.6106 29.6279C25.158 30.124 26.0406 30.124 26.588 29.6279C27.1355 29.1318 27.1355 28.3318 26.588 27.8357L18.4995 20.4948L26.5992 13.1539C27.1354 12.6679 27.1355 11.8579 26.588 11.3718Z" fill="#234422"/>
</svg>
