<svg width="40" height="41" viewBox="0 0 40 41" fill="none" xmlns="http://www.w3.org/2000/svg">
<path d="M40 20.2389C40 31.4165 31.0457 40.4777 20 40.4777C8.9543 40.4777 0 31.4165 0 20.2389C0 9.06125 8.9543 0 20 0C31.0457 0 40 9.06125 40 20.2389Z" fill="#2E384D"/>
<path d="M21.0705 26.03V29.474C21.0705 29.866 20.8932 30.062 20.5385 30.062H18.0465C17.6732 30.062 17.4865 29.8567 17.4865 29.446V26.058C17.4865 25.6847 17.6732 25.498 18.0465 25.498H20.5385C20.8932 25.498 21.0705 25.6753 21.0705 26.03ZM21.0425 22.362V23.09C21.0425 23.482 20.8465 23.678 20.4545 23.678H18.2425C17.8505 23.678 17.6545 23.482 17.6545 23.09V22.334C17.6545 21.718 17.7572 21.2233 17.9625 20.85C18.1678 20.458 18.5132 20.066 18.9985 19.674L20.5665 18.386C21.1638 17.9193 21.4625 17.406 21.4625 16.846V16.678C21.4625 16.0993 21.3225 15.6887 21.0425 15.446C20.7812 15.1847 20.3425 15.054 19.7265 15.054H19.2225C18.6438 15.054 18.2238 15.1753 17.9625 15.418C17.7198 15.6607 17.5985 16.0807 17.5985 16.678V17.266C17.5985 17.6767 17.4025 17.882 17.0105 17.882H14.6305C14.2385 17.882 14.0425 17.6767 14.0425 17.266V16.622C14.0425 15.166 14.4438 14.046 15.2465 13.262C16.0492 12.478 17.1878 12.086 18.6625 12.086H20.3145C21.7892 12.086 22.9278 12.478 23.7305 13.262C24.5332 14.046 24.9345 15.166 24.9345 16.622V17.014C24.9345 17.9287 24.5145 18.75 23.6745 19.478L21.7705 21.018C21.2852 21.466 21.0425 21.914 21.0425 22.362Z" fill="white"/>
</svg>
