<svg width="40" height="38" viewBox="0 0 40 38" fill="none" xmlns="http://www.w3.org/2000/svg">
<path d="M19.9966 25.65C18.1558 25.65 16.3903 24.9494 15.0886 23.7023C13.787 22.4551 13.0557 20.7637 13.0557 19C13.0557 17.2363 13.787 15.5449 15.0886 14.2977C16.3903 13.0506 18.1558 12.35 19.9966 12.35C21.8375 12.35 23.6029 13.0506 24.9046 14.2977C26.2063 15.5449 26.9375 17.2363 26.9375 19C26.9375 20.7637 26.2063 22.4551 24.9046 23.7023C23.6029 24.9494 21.8375 25.65 19.9966 25.65ZM34.7312 20.843C34.8105 20.235 34.87 19.627 34.87 19C34.87 18.373 34.8105 17.746 34.7312 17.1L38.9156 14.003C39.2924 13.718 39.3915 13.205 39.1536 12.787L35.1873 6.213C34.9493 5.795 34.4139 5.624 33.9776 5.795L29.0396 7.695C28.0084 6.954 26.9375 6.308 25.6882 5.833L24.9544 0.798004C24.9141 0.574216 24.7925 0.371315 24.611 0.225251C24.4295 0.0791879 24.1999 -0.000607571 23.9629 3.48359e-06H16.0304C15.5346 3.48359e-06 15.1181 0.342004 15.0388 0.798004L14.305 5.833C13.0557 6.308 11.9848 6.954 10.9536 7.695L6.01559 5.795C5.5793 5.624 5.04386 5.795 4.80589 6.213L0.839641 12.787C0.581836 13.205 0.700823 13.718 1.07762 14.003L5.26201 17.1C5.18268 17.746 5.12319 18.373 5.12319 19C5.12319 19.627 5.18268 20.235 5.26201 20.843L1.07762 23.997C0.700823 24.282 0.581836 24.795 0.839641 25.213L4.80589 31.787C5.04386 32.205 5.5793 32.357 6.01559 32.205L10.9536 30.286C11.9848 31.046 13.0557 31.692 14.305 32.167L15.0388 37.202C15.1181 37.658 15.5346 38 16.0304 38H23.9629C24.4586 38 24.8751 37.658 24.9544 37.202L25.6882 32.167C26.9375 31.673 28.0084 31.046 29.0396 30.286L33.9776 32.205C34.4139 32.357 34.9493 32.205 35.1873 31.787L39.1536 25.213C39.3915 24.795 39.2924 24.282 38.9156 23.997L34.7312 20.843Z" fill="#2E384D"/>
</svg>
