<svg width="836" height="1212" viewBox="0 0 836 1212" fill="none" xmlns="http://www.w3.org/2000/svg">
<g clip-path="url(#clip0_497_10532)">
<path d="M321.908 305.712C322.349 326.662 318.326 344.757 317.313 363.007C316.015 386.086 310.33 408.412 308.409 431.387C307.241 445.536 306.202 459.632 306.54 473.729C307.344 505.479 318.378 532.945 340.548 556.388C364.535 581.751 392.105 602.52 421.492 620.718C438.833 631.466 458.304 637.8 479.487 637.618C497.504 637.437 515.183 634.841 532.991 632.945C547.633 631.362 562.976 629.726 577.747 634.555C595.011 640.188 601.475 649.223 602.435 667.213C603.344 684.114 599.112 700.287 596.361 716.616C592.726 738.19 590.883 759.296 593.946 781.388C598.048 810.827 603.655 839.981 607.835 869.395C611.366 894.187 614.403 919.057 618.141 943.824C622.762 974.327 628.266 1004.7 637.014 1034.43C643.582 1056.73 647.892 1079.6 651.994 1102.55C655.472 1121.94 654.434 1141.25 653.733 1160.44C653.266 1173.6 651.422 1187.72 638.884 1196.97C635.535 1199.43 632.549 1200.7 628.499 1200.89C615.545 1201.43 603.084 1199.3 590.701 1195.67C555.343 1185.28 520.271 1174.09 487.717 1156.52C457.447 1140.19 434.057 1116.8 417.909 1086.27C402.359 1056.91 392.728 1025.52 383.772 993.642C373.361 956.596 366.664 918.642 355.371 881.908C346.96 854.467 334.758 828.507 312.796 809.062C293.014 791.539 270.403 777.961 246.156 767.421C226.764 759.01 207.241 750.91 187.615 743.122C158.981 731.777 133.021 715.838 108.956 696.99C80.1916 674.456 54.9582 648.755 43.5616 612.566C39.5897 599.975 38.1879 586.943 36.2408 573.963C33.3073 554.622 31.9055 535.126 29.4133 515.759C26.3759 492.135 20.9242 469.004 18.0167 445.38C15.3687 423.859 11.7603 402.519 10.0988 380.79C8.20369 356.05 6.49031 331.309 4.77693 306.569C3.60871 289.85 4.076 273.054 2.20686 256.491C1.03864 246.236 -0.648779 236.008 0.233871 225.831C2.46646 200.078 3.29719 173.91 13.266 149.559C26.8951 116.174 51.0123 94.4966 86.8375 87.3055C104.413 83.7748 122.325 80.5817 140.212 82.1653C172.714 85.0469 205.45 86.3449 236.836 97.2484C265.107 107.061 283.02 126.168 293.559 153.609C304.696 182.607 310.304 212.981 316.145 243.225C318.118 253.453 319.753 264.175 319.753 275.027C319.753 286.034 323.388 296.989 321.908 305.738V305.712ZM482.447 642.499C460.536 645.536 437.432 638.89 416.897 626.222C388.6 608.802 362.095 588.838 338.523 564.851C313.523 539.409 301.451 509.658 301.14 474.378C300.932 450.754 302.412 427.415 306.098 404.025C308.539 388.526 310.538 372.846 312.251 357.192C313.912 341.979 315.574 326.688 316.534 311.449C317.884 290.499 314.458 269.497 311.005 249.014C305.813 218.251 299.712 187.436 288.16 158.178C279.463 136.111 266.431 117.835 243.845 107.736C229.048 101.091 213.706 97.3782 197.766 94.211C178.841 90.4467 159.734 89.6419 140.809 87.617C122.741 85.6959 104.62 90.265 86.6298 94.211C60.6954 99.8964 41.8483 114.694 28.0633 136.085C15.213 155.997 9.89111 178.817 7.91812 202.311C7.4768 207.451 8.8527 213.137 7.11335 217.706C4.17984 225.442 3.99812 233.568 5.68554 240.629C10.4882 260.515 5.73746 280.816 10.0469 300.754C12.7208 313.111 11.4228 326.299 12.4093 339.123C14.0448 360.411 15.9399 381.673 17.9128 402.934C19.3407 418.225 21.3915 433.49 24.1174 448.443C28.271 471.341 32.6323 494.238 36.0851 517.239C39.4859 539.929 40.732 562.93 43.8212 585.723C46.573 606.128 53.9717 624.378 65.0049 640.993C80.7108 664.643 101.661 683.517 124.869 699.69C145.378 713.994 166.354 727.39 190.03 736.347C210.98 744.264 231.566 753.143 252.023 762.281C275.725 772.899 298.025 786.243 317.599 803.351C339.717 822.691 352.126 848.652 360.485 876.04C371.856 913.19 378.657 951.56 389.093 989.047C398.231 1021.78 408.148 1054.05 424.607 1083.88C440.78 1113.19 463.781 1135.96 493.584 1151.48C530.941 1170.93 570.764 1183.23 611.314 1194.21C630.576 1199.43 643.712 1185.88 646.308 1170.9C649.917 1150.16 650.306 1129.44 646.827 1108.39C642.544 1082.45 636.703 1057.01 629.564 1031.73C623.359 1009.74 618.712 987.308 615.545 964.696C613.365 949.12 611.34 933.465 609.445 917.837C607.524 901.923 605.213 885.905 602.357 870.07C599.138 852.131 596.049 834.192 593.09 816.227C590.831 802.416 588.001 788.605 586.937 774.69C584.549 743.745 589.585 713.371 596.387 683.309C601.293 661.58 589.741 641.305 568.583 637.904C558.459 636.294 547.659 636.294 537.535 637.956C520.193 640.811 502.929 643.278 482.421 642.499H482.447Z" fill="#60935D" fill-opacity="0.05"/>
<path d="M360.978 191.096C359.42 166.485 362.847 142.576 371.362 119.471C383.122 87.5652 405.578 66.4073 438.573 59.2941C456.849 55.3481 476.501 57.1393 494.206 64.3304C537.534 81.9317 570.166 111.579 592.57 153.064C606.9 179.595 614.351 207.996 620.451 236.968C625.669 261.787 630.394 286.709 638.961 310.645C648.255 336.657 661.443 360.8 675.279 384.606C687.663 405.894 698.28 428.064 705.29 451.689C707.989 460.723 707.522 470.796 705.471 479.934C702.979 490.993 692.751 496.6 683.275 499.222C657.263 506.439 630.835 512.333 604.356 517.706C583.198 521.99 561.469 521.912 540.104 520.276C512.249 518.122 486.652 507.4 462.768 493.381C451.112 486.528 439.248 479.986 427.904 472.509C400.983 454.752 383.849 431.258 378.683 398.833C376.476 384.918 375.723 370.821 373.309 357.166C370.194 339.305 373.231 321.314 369.207 303.531C366.611 292.057 367.754 279.751 366.637 267.784C365.443 255.063 364.223 242.135 362.795 229.518C361.341 216.615 361.809 203.843 360.952 191.07L360.978 191.096ZM366.274 192.965C363.574 207.711 367.39 224.871 369.493 241.693C372.323 264.513 373.906 287.462 376.009 310.307C378.19 334.087 378.865 358.049 381.616 381.855C385.77 418.044 401.19 447.016 432.602 466.901C443.35 473.729 454.695 479.492 465.39 486.32C506.823 512.826 551.89 521.185 599.813 512.384C625.929 507.608 651.941 501.767 677.564 494.498C695.918 489.28 705.316 473.599 700.046 456.232C693.14 433.438 683.223 411.761 671.204 391.356C653.706 361.709 638.13 331.387 628.291 298.287C619.621 269.082 615.519 238.838 607.653 209.476C598.048 173.573 581.173 141.797 555.862 114.434C537.82 94.938 515.987 81.3346 491.844 71.0283C476.216 64.3564 459.497 60.7998 443.142 64.59C415.339 71.0283 394.233 87.3834 381.539 113.707C369.804 138.007 365.209 163.656 366.274 192.991V192.965Z" fill="#60935D" fill-opacity="0.05"/>
<path d="M150.829 125.831C176.816 126.454 205.683 131.958 231.228 149.429C239.12 154.829 246.078 161.553 251.451 169.237C268.196 193.147 276.815 220.328 283.435 248.599C287.64 266.589 286.732 285.021 290.729 302.908C292.754 311.917 288.341 320.691 288.393 329.622C288.471 349.378 284.11 368.433 281.176 387.774C277.178 414.201 270.662 440.136 266.924 466.642C265.34 477.961 264.276 489.513 262.978 500.78C260.719 520.224 265.133 539.591 272.142 558.179C281.176 582.166 297.09 601.351 313.782 620.147C330.189 638.605 346.155 657.478 358.252 679.103C365.132 691.409 369.831 704.571 368.87 719.264C368.117 730.817 363.211 735.516 351.243 736.243C330.656 737.489 311.757 730.479 293.092 723.885C260.434 712.359 228.243 699.482 196.026 686.736C164.666 674.327 136.369 657.089 114.485 630.921C100.103 613.735 92.133 593.07 86.0323 571.86C77.5174 542.239 69.8591 512.358 61.6556 482.634C54.5425 456.959 47.5332 431.387 43.9766 404.778C36.9933 352.415 38.9663 299.897 39.5634 247.431C39.797 227.752 42.419 207.711 49.2206 188.63C61.2402 154.803 83.8517 134.268 119.859 128.323C128.841 126.844 137.667 126.35 150.881 125.883L150.829 125.831ZM44.2103 307.555C43.6651 334.113 45.3266 366.59 49.0649 399.092C52.1541 425.832 59.6047 451.299 66.5881 477.026C74.6617 506.777 82.6056 536.58 91.0946 566.201C97.2991 587.878 105.373 608.906 120.196 626.325C142.262 652.312 170.689 668.979 201.945 681.803C234.006 694.965 266.353 707.4 298.959 719.135C313.964 724.534 329.384 729.934 345.584 730.765C359.161 731.466 366.534 722.146 363.055 709.322C358.927 694.083 351.762 680.116 342.624 667.291C327.282 645.718 308.538 626.845 292.261 606.05C283.487 594.861 274.894 583.387 269.572 569.576C264.458 556.362 261.991 542.914 258.98 529.233C254.359 508.283 258.668 488.137 260.589 467.94C262.692 445.718 268.533 423.833 272.687 401.792C276.14 383.49 280.086 365.24 282.656 346.834C284.473 333.75 285.304 320.016 284.629 307.218C283.954 294.835 283.331 281.88 280.994 269.211C275.465 238.993 267.936 209.814 251.945 183.282C242.703 167.939 230.657 155.167 214.458 147.56C186.291 134.32 157.164 128.064 125.414 133.412C87.4861 139.798 64.5891 161.812 53.0887 196.885C46.8582 215.914 45.4045 236.086 44.366 256.023C43.5872 271.133 44.2103 286.294 44.2103 307.529V307.555Z" fill="#60935D" fill-opacity="0.05"/>
<path d="M444.96 756.855C465.105 756.232 485.017 756.336 504.253 764.306C511.886 767.473 518.557 771.601 524.762 776.663C544.933 793.096 556.096 815.474 566.169 838.787C574.969 859.166 579.045 880.791 583.64 902.183C587.197 918.746 587.067 936.061 589.507 952.91C592.025 970.122 592.96 987.515 596.231 1004.7C599.242 1020.54 600.436 1036.74 602.305 1052.78C602.747 1056.57 603.526 1060.49 603.759 1064.1C605.005 1083.31 604.149 1102.49 591.973 1118.75C582.861 1130.9 569.258 1134.92 554.876 1135.78C528.942 1137.33 505.551 1129.29 484.16 1115.03C459.861 1098.81 444.597 1075.47 433.667 1049.07C423.127 1023.68 415.184 997.38 409.394 970.485C405.656 953.118 402.359 935.672 399.348 918.149C396.336 900.521 393.533 882.66 392.832 865.137C391.819 839.384 387.588 813.631 389.924 787.904C390.547 781.025 389.846 772.691 396.31 766.513C402.878 760.256 409.472 756.077 418.948 756.726C427.567 757.323 436.237 756.855 444.882 756.855H444.96ZM446.621 762.048C436.912 762.048 428.242 761.84 419.597 762.099C410.692 762.385 398.725 771.264 397.401 778.766C395.635 788.865 394.026 798.938 394.441 809.322C394.649 814.592 397.531 818.979 397.375 824.379C396.414 853.974 400.568 883.102 404.566 912.359C406.928 929.649 410.329 946.705 413.989 963.606C419.96 991.228 428.008 1018.46 439.041 1044.58C445.972 1060.98 454.591 1076.61 466.819 1089.96C485.484 1110.31 507.888 1123.24 535.38 1128.64C561.626 1133.8 581.407 1125.39 593.609 1102.03C598.853 1092.01 598.671 1080.9 598.697 1071C598.723 1057.74 596.828 1043.88 594.18 1030.64C589.559 1007.69 587.119 984.452 584.626 961.321C582.757 943.979 581.2 926.456 578.5 909.296C573.1 874.898 563.599 841.279 544.933 811.476C531.927 790.656 515.364 773.678 489.897 766.539C474.996 762.359 460.406 762.411 446.596 762.073L446.621 762.048Z" fill="#60935D" fill-opacity="0.05"/>
<path d="M392.208 220.38C390.521 202.337 393.247 182.97 399.919 164.279C405.24 149.351 412.224 135.436 425.931 125.909C444.674 112.877 464.871 109.839 486.574 116.122C504.435 121.288 519.362 131.075 533.303 143.51C556.927 164.616 572.477 190.759 582.861 219.938C589.195 237.773 593.479 256.517 596.88 275.182C602.747 307.296 610.898 338.76 621.646 369.523C625.851 381.569 628.889 394.056 630.524 406.439C634.029 433.386 615.337 454.856 586.599 461.242C562.56 466.59 540.701 460.463 519.751 451.585C497.555 442.187 475.723 431.465 455.863 417.343C431.279 399.845 414.69 376.974 407.681 347.431C402.67 326.351 398.932 305.167 396.855 283.49C394.908 263.085 391.507 242.81 392.208 220.354V220.38ZM397.323 223.054C396.751 241.33 400.464 259.84 402.099 278.531C403.994 300.234 407.94 321.392 412.925 342.472C419.908 372.015 436.678 394.835 461.263 412.306C481.122 426.429 503.085 436.917 525.177 446.522C542.7 454.129 561.236 460.23 581.589 455.972C597.684 452.597 609.886 444.238 619.309 431.777C623.826 425.78 625.955 417.576 625.306 410.1C624.501 400.936 622.139 391.694 619.05 382.971C606.018 346.211 596.724 308.542 589.221 270.328C586.132 254.596 582.42 238.941 576.994 223.832C566.48 194.445 550.411 168.796 526.916 147.716C512.353 134.658 496.569 124.819 477.306 120.769C471.465 119.549 465.676 116.927 459.705 118.484C438.34 124.092 420.635 134.554 410.744 155.634C400.775 176.87 396.18 199.092 397.271 223.105L397.323 223.054Z" fill="#60935D" fill-opacity="0.05"/>
<path d="M80.6585 359.269C79.9835 334.606 82.8651 312.618 85.2794 290.499C87.1745 273.132 90.1081 256.049 93.7165 239.071C96.5722 225.65 102.777 213.24 111.733 203.038C121.183 192.264 133.462 185.618 148.623 185.67C163.576 185.722 178.347 185.099 192.08 193.355C211.94 205.322 224.868 222.82 233.565 243.588C247.324 276.429 251.555 311.008 249.115 346.237C247.376 371.185 242.91 395.925 235.901 419.887C226.27 452.701 215.626 485.282 199.868 515.837C195.767 523.807 191.146 531.465 184.37 537.566C175.829 545.251 165.86 546.133 156.203 540.37C143.716 532.919 135.72 521.471 127.984 509.685C112.849 486.632 100.025 462.332 91.1205 436.242C82.3978 410.593 78.9711 384.009 80.6845 359.243L80.6585 359.269ZM85.8765 358.334C84.1632 382.789 88.161 408.101 96.5981 432.296C105.632 458.257 118.457 482.608 133.929 505.531C141.613 516.928 149.401 527.857 161.395 535.178C167.184 538.708 172.221 538.605 177.335 534.165C184.889 527.597 190.315 519.472 194.676 510.645C212.018 475.676 224.063 438.838 233.876 401.117C239.25 380.505 242.573 359.554 243.897 338.448C245.766 308.386 240.211 279.414 229.022 251.195C220.585 229.881 208.357 211.968 189.069 199.871C167.444 186.293 141.821 186.241 121.494 203.635C109.267 214.071 102.647 228.843 99.0384 244.263C95.0924 261.164 92.2887 278.272 90.5494 295.665C88.5245 316.07 85.2275 336.294 85.9025 358.308L85.8765 358.334Z" fill="#60935D" fill-opacity="0.05"/>
<path d="M553.033 981.7C553.033 994.914 552.929 1005.3 553.059 1015.68C553.189 1025.57 550.411 1034.87 548.282 1044.42C543.35 1066.49 523.127 1070.17 504.695 1063.22C488.781 1057.22 479.305 1043.59 471.18 1029.31C455.967 1002.52 447.27 973.263 441.897 943.278C437.847 920.693 435.9 897.562 443.974 874.976C449.321 859.971 457.083 847.588 473.698 843.226C492.312 838.346 512.846 846.705 525.489 862.489C541.896 882.972 546.854 906.882 550.826 931.882C553.63 949.535 552.072 967.032 553.033 981.726V981.7ZM547.893 984.841C547.685 966.098 548.594 948.496 545.271 931.025C541.636 911.84 537.535 892.733 526.891 876.014C519.077 863.735 509.575 853.403 494.311 849.457C479.409 845.615 464.3 851.586 456.305 864.773C441.819 888.683 442.909 914.332 447.556 940.111C451.216 960.438 456.616 980.428 464.716 999.587C472.893 1018.93 481.824 1037.83 498.542 1051.48C514.404 1064.44 526.813 1063.27 536.885 1052C542.233 1046 543.35 1038.45 545.297 1031.08C549.398 1015.4 547.166 999.457 547.867 984.789L547.893 984.841Z" fill="#60935D" fill-opacity="0.05"/>
<path d="M560.847 315.136C561.418 331.179 559.082 347.405 551.527 362.722C547.789 370.328 541.403 373.391 533.744 375.286C505.058 382.348 481.512 370.769 462.042 352.182C446.31 337.15 438.6 316.486 433.408 295.042C427.878 272.171 427.515 249.092 428.761 226.039C429.462 213.059 433.304 200.078 441.741 189.409C458.901 167.68 483.667 167.965 507.057 182.685C532.446 198.676 545.141 223.599 552.643 251.195C558.225 271.704 561.262 292.888 560.847 315.162V315.136ZM433.563 247.171C433.849 269.86 437.613 291.797 446.336 312.981C459.16 344.082 479.617 365.473 514.43 370.328C528.89 372.327 543.401 368.017 548.723 352.649C552.384 342.135 555.213 331.569 555.525 320.484C555.811 310.229 554.331 300.053 553.396 289.824C551.086 264.409 544.57 240.369 531.667 218.666C521.076 200.805 505.967 187.384 485.51 180.089C473.672 175.883 464.586 179.206 455.889 185.774C447.582 192.057 442.001 200.52 438.626 210.644C434.628 222.586 432.603 234.606 433.537 247.197L433.563 247.171Z" fill="#60935D" fill-opacity="0.05"/>
</g>
<defs>
<clipPath id="clip0_497_10532">
<rect width="836" height="1212" fill="white"/>
</clipPath>
</defs>
</svg>
