<svg width="1201" height="961" viewBox="0 0 1201 961" fill="none" xmlns="http://www.w3.org/2000/svg">
<g clip-path="url(#clip0_497_10527)">
<path d="M488.542 961C488.415 954.329 493.733 951.478 498.059 948.55C518.262 934.724 539 921.637 559.05 907.582C581.544 891.821 595.284 870.128 600.551 842.987C607.625 806.679 598.439 774.113 580.628 742.49C570.068 723.751 558.796 705.266 551.417 684.693C543.376 662.21 546.837 642.223 560.221 623.178C570.246 608.894 580.857 594.941 589.915 580.021C607.192 551.53 620.78 521.281 631.059 489.48C644.189 448.895 654.392 407.392 669.125 367.291C677.064 345.699 688.463 326.171 702.254 307.736C722.534 280.569 751.261 264.045 778.513 245.763C793.042 236.012 807.596 226.158 820.548 214.599C841.692 195.681 854.059 171.493 857.621 143.027C858.562 135.566 860.496 128.31 860.165 120.62C858.028 72.8549 831.922 29.8252 782.915 13.3262C741.414 -0.652138 703.552 5.94228 666.835 27.559C638.769 44.0835 618.159 68.4246 596.938 92.3074C571.238 121.232 542.129 145.293 503.046 153.695C488.771 156.75 474.268 158.074 459.662 159.449C436.482 161.613 412.64 160.009 390.172 167.521C362.743 176.712 341.445 193.618 327.374 219.385C315.924 240.366 310.581 262.593 310.352 286.451C309.97 329.277 319.944 369.862 336.127 409.073C352.183 448.004 373.786 484.006 395.083 520.238C408.518 543.076 423.632 565.05 432.971 590.231C439.535 607.952 440.477 624.578 427.017 639.142C416.686 650.32 403.175 657.373 389.18 662.872C372.234 669.543 355.109 675.781 337.069 679.117C323.176 681.688 309.232 683.827 295.339 686.195C277.248 689.25 258.978 690.855 240.836 693.146C209.335 697.118 178.852 704.833 148.853 714.355C122.873 722.605 97.0469 731.644 74.8589 748.957C65.9532 755.908 59.7192 764.336 53.5107 773.069C45.8008 783.941 40.6864 796.163 36.4371 808.868C26.8444 837.69 20.3814 867.175 15.2415 897.041C12.1118 915.119 8.16782 933.043 7.73525 951.452C7.65892 954.966 4.32564 957.385 5.13987 961H0C2.21371 944.501 4.0203 927.977 6.76835 911.554C10.0507 891.872 13.4095 872.242 17.8369 852.789C24.6561 822.821 32.1369 793.031 48.6507 766.602C61.3222 746.335 80.6858 733.604 101.881 724.642C131.627 712.064 162.389 702.21 194.196 695.692C213.763 691.669 233.304 688.283 253.126 685.711C274.958 682.885 296.815 680.135 318.57 676.443C347.603 671.529 374.956 662.669 400.986 649.505C410.121 644.897 418.543 638.761 425.159 630.129C433.225 619.563 433.403 608.92 429.078 597.386C422.767 580.607 413.709 565.202 404.6 549.824C391.495 527.672 378.213 505.623 365.516 483.217C358.112 470.155 351.394 456.788 344.397 443.522C326.586 409.862 315.339 373.885 308.214 336.661C303.761 313.364 303.787 289.43 305.772 265.98C308.214 237.157 319.537 210.728 339.817 189.977C356.585 172.816 377.577 161.613 402.259 158.864C424.752 156.343 447.423 155.681 469.891 153.466C509.382 149.545 544.827 135.363 573.223 106.133C591.772 87.0623 609.38 67.1261 628.082 48.1574C652.408 23.4853 681.568 7.08808 714.849 1.97033C752.304 -3.80941 789.937 0.824604 821.209 25.2421C844.211 43.1924 858.359 67.3807 862.888 97.0687C864.618 108.424 865.712 119.678 864.974 130.958C862.735 165.356 851.819 196.419 825.484 219.869C808.105 235.35 788.436 248.08 768.793 260.607C752.584 270.945 736.63 281.74 722.992 295.133C697.013 320.671 680.321 351.988 669.023 386.591C655.028 429.519 644.443 473.541 628.464 515.833C616.378 547.838 601.314 578.315 580.399 605.686C573.096 615.234 567.116 625.775 560.475 635.832C549.763 652.051 550.526 669.085 558.44 685.686C567.218 704.069 576.684 722.198 587.065 739.715C596.098 754.966 601.441 771.262 605.564 788.244C609.202 803.241 609.1 818.543 607.777 833.515C604.877 866.64 590.882 893.986 562.892 913.616C543.503 927.238 522.384 938.212 503.86 953.133C500.909 955.501 497.779 957.41 496.1 960.949H488.466L488.542 961Z" fill="#60935D" fill-opacity="0.075"/>
<path d="M1201 780.224C1162.81 771.72 1126.6 759.142 1098.58 729.912C1083.95 714.661 1073.9 696.507 1066.12 677.029C1054.41 647.672 1048.46 616.711 1040.6 586.284C1030.62 547.787 1018.36 510.002 1004.31 472.777C990.138 435.196 976.958 397.259 966.678 358.354C961.385 338.341 955.304 318.532 948.739 298.927C946.169 291.288 941.869 284.286 935.686 278.328C924.592 267.686 910.699 269.213 898.587 271.607C854.695 280.289 812.736 295.642 777.164 323.141C750.523 343.713 730.244 370.371 717.241 402.453C703.552 436.189 696.58 471.555 690.015 506.921C685.766 529.76 682 552.777 678.921 575.896C675.639 600.364 671.212 624.604 671.67 649.454C671.975 665.851 675.715 681.739 677.802 697.856C679.863 713.948 683.043 729.81 684.85 746.004C689.176 784.858 684.697 823.814 687.496 862.541C688.87 881.535 689.456 900.733 693.832 919.676C696.987 933.298 699.226 947.302 702.305 961.026H694.672C692.56 948.32 690.423 935.641 688.387 922.935C686.809 913.056 685.257 903.228 684.29 893.222C680.245 851.414 683.731 809.479 681.542 767.722C680.397 745.826 677.14 723.903 672.509 702.21C666.606 674.585 664.24 646.221 667.166 618.137C669.303 597.564 672.789 576.966 676.122 556.444C678.972 538.799 681.746 521.052 684.901 503.484C692.458 461.472 700.015 419.283 720.091 380.785C736.987 348.398 761.516 323.395 792.635 304.477C819.479 288.157 848.843 278.15 878.715 269.417C894.236 264.885 910.368 265.445 926.322 266.081C934.261 266.387 939.503 271.989 944.592 277.488C951.029 284.465 953.956 293.249 956.602 301.957C970.8 348.729 983.039 396.088 999.909 442.02C1009.63 468.449 1019.43 494.878 1028.23 521.638C1037.44 549.569 1044.39 578.111 1051.56 606.654C1058.99 636.265 1066.12 666.233 1081.26 693.502C1098.61 724.769 1123.65 746.437 1156.47 760.033C1171.05 766.067 1186.5 769.225 1201.05 775.157V780.249L1201 780.224Z" fill="#60935D" fill-opacity="0.075"/>
<path d="M755.714 961C751.414 943.635 742.864 927.849 737.012 911.045C731.821 896.15 727.089 881.128 723.577 865.8C721.44 856.481 720.397 846.78 720.218 837.207C719.786 811.338 719.43 785.418 720.269 759.575C720.88 740.911 718.87 722.35 716.86 704.145C712.611 665.215 709.074 626.411 709.786 587.226C710.142 567.901 712.407 548.831 714.621 529.658C715.715 520.136 716.249 510.511 717.292 500.912C721.364 463.891 728.056 427.558 746.071 394.56C765.994 358.023 796.604 333.631 836.629 322.529C851.769 318.328 867.85 317.106 883.88 321.154C907.824 327.214 922.302 344.197 933.32 364.286C947.696 390.511 957.874 418.697 968.256 446.73C978.612 474.712 989.757 502.389 999.68 530.524C1012 565.355 1019.5 601.561 1027.82 637.462C1033.83 663.381 1040.54 689.148 1051.94 713.108C1064.49 739.435 1082.66 761.612 1108.02 777.245C1131.97 792.013 1157.97 801.433 1185.07 808.028C1190.24 809.276 1195.33 812.051 1201 810.752V818.391C1178.1 812.815 1155.15 807.391 1133.37 798.022C1099.98 783.661 1072.02 763.165 1053.78 730.702C1038.36 703.254 1030.06 673.439 1022.91 643.165C1013.29 602.452 1004.74 561.383 989.782 522.172C974.439 481.918 960.164 441.231 943.269 401.536C936.907 386.59 930.928 371.415 921.182 358.328C910.368 343.79 898.333 331.237 879.376 326.374C865.102 322.708 851.972 324.999 838.868 328.946C791.795 343.128 760.523 373.936 742.305 419.588C733.399 441.893 728.666 464.757 725.053 488.181C721.211 513.006 719.43 538.009 716.911 562.962C714.773 584.12 715.231 605.126 715.231 626.157C715.231 641.968 717.292 657.806 719.608 673.566C720.931 682.605 721.389 691.873 722.432 701.039C726.173 733.859 725.053 766.857 725.155 799.804C725.155 807.875 725.231 815.921 725.155 823.992C724.824 851.949 732.178 878.403 741.414 904.348C748.208 923.419 755.994 942.159 763.322 961.051H755.689L755.714 961Z" fill="#60935D" fill-opacity="0.075"/>
<path d="M1027.97 961C1030.6 949.008 1030.44 936.863 1030.6 924.692C1030.88 904.45 1024.26 886.423 1014.08 869.364C990.418 829.695 969.884 788.804 958.358 743.534C952.861 721.943 945.432 700.759 940.546 678.938C937.289 664.324 935.05 649.48 933.879 634.559C931.437 602.911 925.635 572.102 914.109 542.363C904.872 518.557 892.175 496.813 877.468 476.138C870.929 466.972 860.954 462.134 851.133 457.577C846.069 455.234 831.311 463.637 827.418 471.224C824.415 477.08 820.98 482.809 819.148 489.327C815.23 503.382 811.362 517.36 811.566 532.179C811.693 540.53 807.495 548.627 809.174 557.08C812.126 571.873 811.388 586.997 813.474 601.918C814.899 612.153 815.917 622.72 817.113 633.082C819.428 653.273 820.65 673.566 818.868 693.604C817.342 710.638 817.367 727.773 814.899 744.833C813.067 757.487 813.118 770.727 815.739 783.865C817.851 794.406 817.952 805.354 820.548 815.946C826.298 839.32 834.822 861.751 843.321 884.157C851.54 905.851 858.69 927.9 866.069 949.873C867.341 953.667 867.366 957.232 867.646 960.949H862.557C853.474 929.963 842.049 899.791 830.98 869.492C823.881 850.065 816.833 830.689 813.678 809.937C809.81 784.552 806.299 759.397 811.515 733.833C811.693 733.019 811.693 732.153 811.642 731.287C810.701 707.659 816.833 684.158 813.907 660.606C812.329 647.799 811.617 634.89 809.861 622.083C808.411 611.44 805.255 600.594 806.655 589.62C807.953 579.359 803.602 569.811 803.831 559.601C804.339 536.94 806.757 514.636 811.566 492.51C813.627 482.987 817.545 474.279 822.329 466.106C828.258 455.973 845.84 446.577 861.998 454.827C877.366 462.695 886.984 475.553 895.305 489.404C907.493 509.645 918.434 530.651 924.948 553.617C930.266 572.408 934.795 591.173 936.755 610.829C940.19 645.049 944.872 679.168 955.584 712.267C964.388 739.409 971.385 767.137 982.047 793.719C990.291 814.24 1000.9 833.591 1012.56 852.229C1022.81 868.601 1032.22 885.634 1034.64 904.45C1037.01 922.986 1037.9 942.26 1033.01 960.949H1027.92L1027.97 961Z" fill="#60935D" fill-opacity="0.075"/>
<path d="M412.208 961C412.411 953.438 419.281 950.026 422.767 944.501C433.225 927.926 449.459 917.003 464.701 905.443C482.868 891.669 502.105 879.32 520.679 866.08C543.325 849.937 553.02 815.412 540.959 788.703C525.158 753.77 499.178 728.894 462.461 716.443C443.887 710.129 424.803 709.492 405.567 713.515C397.399 715.221 388.9 715.145 380.681 715.909C360.275 717.818 339.817 720.008 319.537 722.401C301.599 724.54 283.558 722.045 265.696 726.297C254.907 728.868 243.279 727.341 231.931 728.97C207.58 732.433 183.56 737.22 160.71 745.953C140.202 753.795 120.355 763.114 102.67 777.067C89.4136 787.506 80.1516 800.466 72.0347 814.444C60.4827 834.304 54.0452 856.328 48.5236 878.48C43.5873 898.238 40.254 918.301 37.8113 938.569C36.8953 946.029 35.7248 953.438 35.6739 961H30.5849C30.1778 941.217 34.8597 922.121 37.6841 902.719C41.1955 878.683 47.8875 855.717 56.0553 833.056C63.9432 811.21 75.4698 791.351 92.7214 775.59C107.937 761.663 126.614 753.057 145.265 744.782C163.509 736.685 182.847 731.516 202.287 727.799C218.165 724.769 234.399 722.91 250.633 721.255C270.225 719.269 289.97 720.492 309.487 716.978C320.911 714.915 332.82 716.367 344.575 714.355C356.84 712.267 369.308 710.638 381.674 709.467C408.366 706.895 435.261 703 461.953 709.161C475.413 712.267 487.576 718.964 498.822 726.882C518.949 741.064 534.75 758.913 545.03 781.599C558.287 810.854 553.961 837.792 534.598 862.439C526.837 872.318 516.099 879.575 505.54 886.169C483.25 900.122 462.309 915.831 442.284 932.687C433.098 940.402 426.482 950.892 419.867 961.051H412.233L412.208 961Z" fill="#60935D" fill-opacity="0.075"/>
<path d="M63.6123 961C67.5817 919.6 72.3399 878.505 90.8384 840.211C105.52 809.81 129.616 790.23 159.82 778.238C178.165 770.956 197.631 766.755 217.681 764.387C238.393 761.917 258.902 762.859 279.487 762.528C308.698 762.045 337.934 761.866 367.145 762.579C387.501 763.088 407.729 765.584 427.169 772.611C438.747 776.787 447.551 784.552 454.573 793.948C464.446 807.213 461.825 824.527 450.375 840.237C439.332 855.412 424.472 866.156 409.663 876.748C390.427 890.523 372.717 905.927 357.119 923.546C347.756 934.113 341.267 946.818 338.443 960.975H333.354C334.066 943.355 342.819 929.224 353.812 916.519C371.47 896.099 393.149 880.236 414.625 864.119C428.874 853.4 443.123 842.528 450.731 825.24C456.66 811.745 455.82 806.424 446.38 794.992C435.566 781.905 421.012 776.201 405.439 772.738C390.401 769.403 375.033 767.442 359.537 767.442C321.853 767.442 284.143 766.908 246.459 767.621C212.898 768.257 180.557 774.979 150.227 790.281C119.896 805.558 100.507 829.976 89.0063 861.319C78.7775 889.173 72.3654 917.869 71.3221 947.607C71.1694 952.267 67.5817 956.137 68.7267 960.975H63.6378L63.6123 961Z" fill="#60935D" fill-opacity="0.075"/>
<path d="M778.716 130.321C779.632 160.035 764.314 181.091 741.109 196.776C725.358 207.444 708.616 216.559 690.626 223.587C672.586 230.639 656.301 241.333 644.087 256.839C634.444 269.086 629.762 283.803 625.97 298.723C618.413 328.539 614.037 358.965 607.879 389.035C602.052 417.552 593.045 445.279 577.294 470.028C566.378 487.163 552.384 501.447 532.41 508.627C515.463 514.712 498.619 513.999 482.512 507.176C459.23 497.322 439.561 482.707 423.531 462.466C409.256 444.413 395.083 426.412 385.389 405.534C373.277 379.436 365.465 351.759 369.257 322.937C375.185 278.049 392.259 253.606 440.731 238.354C467.22 230.003 495.107 226.998 522.537 222.39C539.661 219.513 556.786 215.643 573.07 209.532C593.605 201.817 608.006 186.566 617.93 167.495C628.693 146.82 637.243 124.873 651.415 106.235C664.621 88.8702 678.794 71.5056 701.694 66.6424C733.144 59.9716 762.457 66.4896 775.078 103.052C778.207 112.117 778.767 121.028 778.691 130.347L778.716 130.321ZM373.862 336.355C373.71 342.39 375.414 348.017 376.254 353.796C379.893 378.519 388.798 401.18 402.31 421.88C420.884 450.295 441.113 477.361 471.52 494.623C483.174 501.243 495.845 507.125 508.771 507.15C524.14 507.15 538.847 500.785 550.628 490.091C565.641 476.444 576.277 459.818 584.572 441.18C592.765 422.822 598.643 403.828 602.714 384.401C608.999 354.356 613.324 323.905 620.856 294.089C624.724 278.736 629.482 263.663 639.558 251.161C651.67 236.165 667.573 225.853 685.13 218.647C706.046 210.041 725.765 199.678 743.424 185.496C773.576 161.283 780.701 131.874 767.648 101.524C755.816 74.0261 725.867 62.5431 698.921 74.1026C680.677 81.9193 668.082 95.9994 656.682 110.945C642.51 129.532 633.909 151.505 623.197 172.205C613.502 190.894 599.737 206.018 579.737 213.886C566.633 219.029 552.867 222.441 539.051 225.14C511.774 230.487 484.191 234.153 457.093 240.493C437.424 245.101 418.976 252.358 403.582 265.802C382.234 284.465 375.872 309.57 373.888 336.381L373.862 336.355Z" fill="#60935D" fill-opacity="0.075"/>
<path d="M412.335 353.211C410.681 332.179 416.635 314.229 432.615 300.225C445.21 289.2 460.222 283.37 476.532 281.409C484.777 280.416 492.792 277.259 501.392 278.558C510.374 279.933 519.331 281.155 528.237 283.319C551.9 289.073 562.053 307.074 566.76 327.978C569.177 338.646 571.34 350.155 570.017 361.638C567.396 384.35 565.081 407.061 552.791 427.278C535.717 455.336 515.718 461.905 485.031 454.7C457.627 448.258 440.731 428.22 427.347 404.948C418.111 388.933 410.121 372.408 412.335 353.236V353.211ZM417.271 352.472C416.279 371.008 424.65 386.158 432.793 401.027C442.742 419.232 456.864 434.025 475.031 444.362C482.181 448.411 490.069 451.16 498.466 451.772C521.214 453.427 535.87 441.154 547.142 423.28C559.737 403.293 562.078 380.505 564.954 357.819C565.793 351.301 562.46 345.623 562.18 339.283C561.417 322.173 553.987 307.762 540.934 296.941C527.779 286.018 511.188 284.541 495.031 284.134C486.558 283.93 477.881 286.756 469.484 288.946C441.113 296.355 415.745 318.354 417.271 352.447V352.472Z" fill="#60935D" fill-opacity="0.075"/>
</g>
<defs>
<clipPath id="clip0_497_10527">
<rect width="1201" height="961" fill="white"/>
</clipPath>
</defs>
</svg>
