<svg width="656" height="748" viewBox="0 0 656 748" fill="none" xmlns="http://www.w3.org/2000/svg">
<g clip-path="url(#clip0_497_10529)">
<path d="M80.3758 563.835C79.6011 545.164 84.7146 529.15 91.2225 513.159C98.7709 494.576 109.131 477.611 120.708 461.597C129.606 449.283 139.479 437.566 148.997 425.65C166.861 403.28 181.05 378.828 183.994 349.924C185.765 332.56 184.459 315.018 180.895 297.543C175.804 272.715 168.455 248.639 160.11 224.807C153.823 206.867 145.5 190.256 132.196 176.258C120.088 163.5 104.947 157.564 88.3006 154.486C69.1751 150.942 49.7839 148.373 31.6103 140.975C16.6685 134.884 5.51199 123.943 1.3947 108.572C-2.67833 93.3337 2.258 78.915 13.5031 67.4421C35.2185 45.3157 63.3312 39.6678 92.3073 52.8019C106.519 59.2471 119.579 67.7743 132.971 75.6814C155.373 88.904 177.73 88.0402 200.464 77.5418C224.105 66.6448 247.813 55.8805 271.144 44.3412C293.811 33.1119 315.77 20.5094 337.22 7.0874C354.486 -3.72108 378.326 -2.12642 390.036 11.6943C397.961 21.0409 405.089 31.0742 411.575 41.6169C421.049 56.988 430.744 72.204 442.366 86.2462C462.288 110.322 488.209 124.275 516.875 134.486C531.441 139.668 546.604 143.013 560.749 149.702C573.145 155.593 578.325 165.161 575.226 178.716C570.599 198.871 561.745 217.454 554.994 236.834C551.186 247.709 547.667 258.606 547.091 270.522C546.294 286.956 550.146 301.596 558.735 315.395C565.265 325.893 573.256 335.262 580.605 345.14C595.746 365.539 604.113 388.729 609.559 413.402C615.978 442.616 624.301 471.409 630.61 500.645C637.14 530.989 645.286 560.978 649.492 591.831C651.307 605.186 652.414 618.586 654.141 631.875C655.734 644.345 656.531 656.77 655.602 669.085C654.229 687.424 653.078 705.851 647.323 723.725C641.523 741.776 623.726 750.414 608.054 747.424C599.088 745.719 590.079 746.25 581.092 744.013C563.604 739.65 545.475 737.967 527.766 734.489C507.6 730.525 487.501 726.228 467.556 721.311C450.445 717.081 433.733 711.167 416.577 707.114C403.938 704.124 391.121 701.111 377.906 701.488C361.813 701.931 346.318 705.63 331.354 711.1C311.653 718.299 291.642 724.5 270.967 727.579C261.802 728.952 252.218 727.955 242.611 726.649C225.3 724.301 209.716 718.033 194.753 710.037C179.412 701.82 165.599 691.167 152.429 679.672C141.427 670.059 131.355 659.516 121.792 648.597C104.792 629.239 89.4295 608.774 81.9918 583.281C79.911 576.194 81.4162 569.461 80.3758 563.857L80.3758 563.835ZM84.7145 564.499C83.32 574.466 87.7251 584.522 92.1301 594.488C99.6785 611.521 111.079 626.139 122.589 640.557C128.5 647.955 134.875 655.485 141.87 661.421C150.724 668.952 158.87 677.28 168.034 684.544C188.466 700.713 210.469 713.537 235.549 720.27C245.245 722.883 255.582 725.253 265.809 723.415C284.27 720.115 302.356 715.419 320.042 708.996C338.769 702.197 357.873 696.815 378.193 696.97C402.056 697.147 424.679 703.105 447.191 710.148C470.943 717.59 495.226 723.504 519.642 727.601C548.508 732.429 576.886 740.004 606.349 741.798C624.39 742.906 636.653 736.394 642.763 719.14C649.049 701.422 649.426 682.861 651.219 664.544C652.148 655.153 650.533 645.652 649.603 636.172C648.275 622.794 646.792 609.483 644.976 596.127C640.771 565.297 632.669 535.285 626.094 504.986C619.763 475.772 611.485 446.979 605.087 417.765C600.085 394.908 592.514 373.247 579.365 353.911C571.241 341.951 561.435 331.187 553.533 319.005C544.545 305.14 541.048 289.26 541.314 273.556C541.535 259.758 545.32 245.804 550.279 232.493C557.185 213.955 565.597 196.036 570.135 176.524C571.795 169.392 569.714 165.582 566.128 160.998C560.129 153.378 550.876 150.942 542.597 148.284C527.169 143.301 511.718 138.561 496.621 132.537C468.951 121.507 446.859 103.921 429.217 79.8896C415.072 60.6425 404.336 39.1806 388.907 20.7087C375.515 4.6732 359.312 0.376355 341.935 11.4063C321.171 24.6068 299.699 36.6113 277.851 47.7963C254.055 59.978 229.572 70.8087 205.157 81.7279C179.656 93.1344 154.177 94.419 128.898 80.2661C115.329 72.6691 102.49 63.7655 88.1899 57.5417C78.5386 53.3335 68.356 48.5715 57.8857 50.6535C37.2992 54.7288 19.7011 64.3413 9.47432 83.9427C6.08751 90.4322 3.05492 97.4976 5.77765 104.807C11.3559 119.801 21.6713 130.543 36.6131 136.678C54.4768 144.01 73.4916 146.357 92.2187 149.99C109.197 153.29 124.692 159.159 137.022 172.249C150.016 186.025 158.339 202.304 164.36 219.89C173.945 247.886 182.976 275.926 187.138 305.517C189.484 322.128 189.816 338.717 188.2 354.886C185.323 384.122 170.691 408.773 152.318 431.298C142.711 443.081 133.48 455.174 124.471 467.422C112.451 483.768 102.003 501.044 94.5429 520.025C89.0975 533.89 84.2497 547.888 84.6481 564.521L84.7145 564.499Z" fill="#60935D" fill-opacity="0.05"/>
<path d="M186.363 555.707C186.584 521.731 196.147 494.887 211.31 469.504C225.588 445.606 239.091 421.221 245.134 393.668C248.078 380.224 249.495 366.514 251.244 352.848C253.745 333.335 253.081 313.955 252.682 294.575C252.328 277.034 249.628 259.47 250.889 241.884C252.439 220.555 254.475 199.182 268.399 181.308C284.647 160.444 304.525 146.668 331.708 143.013C359.798 139.248 382.444 150.654 404.07 165.339C417.662 174.553 429.792 185.959 438.868 199.935C448.719 215.107 453.412 231.939 454.518 250.079C456.356 280.112 459.012 310.146 470.146 338.474C478.226 359.028 489.338 378.164 499.432 397.765C515.06 428.087 533.832 456.215 553.931 483.746C574.23 511.565 590.035 541.842 596.454 576.526C599.133 591.011 600.594 605.297 600.572 619.937C600.572 634.245 596.012 647.246 588.419 658.786C581.291 669.616 569.183 674.135 557.074 676.948C534.164 682.308 511.496 678.919 489.36 672.407C469.283 666.493 450.467 657.258 431.253 649.018C408.055 639.074 384.281 631.233 358.824 627.911C337.353 625.12 317.054 628.907 296.29 631.986C288.432 633.16 280.707 635.441 272.538 635.131C264.392 634.843 256.512 636.46 247.967 635.552C219.943 632.518 203.363 616.549 193.314 592.03C188.023 579.162 185.389 565.585 186.319 555.662L186.363 555.707ZM342.798 147.886C337.574 147.886 332.947 147 328.764 148.041C305.698 153.755 287.215 166.468 272.848 185.45C259.213 203.456 256.733 224.675 255.361 246.026C254.586 258.008 256.556 270.146 256.91 282.106C257.884 313.911 258.482 345.761 253.302 377.522C249.65 399.892 243.341 420.955 233.535 441.309C225.035 458.94 214.144 475.175 205.533 492.738C197.785 508.552 193.535 525.319 191.277 542.417C189.041 559.228 192.384 575.773 199.268 591.366C207.791 610.701 221.736 624.5 242.456 629.572C258.836 633.581 275.482 630.502 291.797 627.689C315.46 623.636 338.769 620.314 363.141 623.459C388.619 626.737 412.349 634.666 435.592 644.456C455.514 652.85 474.861 662.551 495.824 668.288C514.463 673.382 533.19 677.811 552.536 672.562C564.556 669.306 576.775 665.231 583.925 654.4C591.54 642.883 596.056 629.882 596.189 615.574C596.277 603.813 593.864 592.54 591.939 581.044C586.05 546.249 569.869 516.039 549.637 488.198C528.962 459.759 509.77 430.678 493.699 399.316C484.136 380.645 473.644 362.394 465.852 342.948C454.518 314.708 451.973 284.609 450.135 254.575C449.029 236.458 444.646 219.403 434.53 204.453C422.952 187.332 407.789 173.467 389.815 163.345C375.072 155.04 360.352 145.56 342.82 147.841L342.798 147.886Z" fill="#60935D" fill-opacity="0.05"/>
<path d="M248.587 517.611C247.237 498.275 254.896 480.756 260.496 462.86C266.982 442.173 272.029 421.243 275.372 399.759C279.024 376.303 280.33 352.76 282.278 329.171C283.673 312.272 282.5 295.395 284.248 278.673C285.975 262.216 287.392 245.671 292.549 229.569C299.943 206.402 320.551 192.183 343.883 191.718C364.735 191.297 381.625 199.093 395.88 212.537C410.512 226.314 417.241 244.83 421.27 264.298C425.941 286.89 429.46 309.747 436.699 331.718C440.307 342.682 444.69 353.335 449.671 363.79C462.067 389.925 473.91 416.326 486.66 442.306C497.374 464.145 511.231 483.99 526.792 502.749C540.871 519.737 554.042 537.545 561.103 558.852C567.943 579.516 571.573 600.491 562.896 621.576C556.809 636.371 544.236 642.329 529.36 643.813C507.379 646.006 486.793 640.447 467.424 630.458C451.995 622.484 436.588 614.356 421.071 606.626C393.689 592.938 365.023 581.975 334.962 575.264C318.448 571.565 302.001 567.401 285.355 564.389C263.861 560.468 245.267 544.743 248.587 517.633L248.587 517.611ZM562.896 595.175C563.693 584.035 560.107 573.669 556.698 563.392C549.659 542.063 536.51 524.233 522.409 507.29C506.339 487.976 492.26 467.4 481.214 444.942C468.774 419.648 457.396 393.823 445.288 368.352C440.329 357.898 435.902 347.245 432.294 336.281C425.078 314.31 421.536 291.43 416.821 268.861C411.796 244.83 402.3 223.412 381.425 208.838C367.568 199.16 352.294 193.401 335.316 197.454C313.49 202.681 301.138 217.964 295.184 238.938C291.199 252.958 290.137 267.488 288.72 281.84C286.993 299.293 288.056 316.923 286.683 334.531C284.868 357.765 283.363 380.933 279.777 404.011C276.39 425.85 271.255 447.09 264.525 468.109C258.947 485.606 251.886 502.882 252.904 521.952C253.568 534.444 258.814 543.591 268.864 551.166C277.098 557.39 286.484 559.937 295.848 561.576C327.878 567.202 359.356 574.754 389.726 586.449C402.831 591.499 415.825 597.058 428.265 603.525C454.208 617.014 479.266 632.451 508.331 638.608C516.145 640.27 524.202 640.181 532.26 638.232C553.09 633.182 564.114 615.042 562.918 595.153L562.896 595.175Z" fill="#60935D" fill-opacity="0.05"/>
<path d="M445.576 487.201C445.576 490.147 445.62 493.093 445.576 496.038C445.31 513.026 431.718 524.765 415.271 521.886C404.646 520.025 393.822 518.497 383.573 515.219C361.636 508.22 340.762 499.006 327.79 478.297C321.348 468.021 317.452 456.703 317.364 444.565C317.298 437.899 314.553 431.852 314.818 425.097C315.527 407.245 317.452 389.548 319.157 371.785C320.972 353.003 324.315 334.553 328.321 316.17C330.092 308.064 333.501 300.489 336.489 292.759C340.009 283.656 346.694 279.027 355.15 278.783C363.872 278.54 370.468 284.188 374.873 292.073C381.603 304.077 386.517 316.945 392.272 329.393C397.12 339.847 400.728 350.921 406.063 361.11C416.666 381.309 426.362 401.951 433.622 423.458C440.551 443.945 445.686 465.163 445.576 487.157L445.576 487.201ZM441.215 485.252C442.521 479.759 440.13 473.425 438.802 467.068C436.079 454.023 433.954 440.689 429.438 428.264C422.178 408.286 413.346 388.884 403.827 369.792C395.327 352.715 388.133 334.974 380.673 317.388C376.511 307.554 372.881 296.945 364.536 289.26C357.474 282.77 348.399 283.811 343.728 292.183C341.116 296.901 338.637 301.663 336.888 306.89C332.461 319.958 330.159 333.357 327.834 346.912C324.691 365.207 321.393 383.369 321.614 401.996C321.614 403.458 321.924 405.074 321.437 406.403C316.235 420.977 321.105 435.263 323.164 449.438C326.882 475.064 343.263 491.099 365.576 502.085C381.293 509.837 397.85 514.156 415.294 515.928C425.852 517.013 435.216 512.074 439.156 502.572C441.392 497.212 440.993 491.874 441.237 485.23L441.215 485.252Z" fill="#60935D" fill-opacity="0.05"/>
</g>
<defs>
<clipPath id="clip0_497_10529">
<rect width="656" height="748" fill="white" transform="translate(656 748) rotate(-180)"/>
</clipPath>
</defs>
</svg>
