<svg width="424" height="868" viewBox="0 0 424 868" fill="none" xmlns="http://www.w3.org/2000/svg">
<g clip-path="url(#clip0_563_5243)">
<path d="M-40.2817 49.2002C-39.8831 68.128 -43.5171 84.4758 -44.4315 100.964C-45.6037 121.815 -50.7382 141.986 -52.4731 162.743C-53.5282 175.526 -54.466 188.262 -54.1611 200.998C-53.4344 229.683 -43.4703 254.498 -23.4482 275.677C-1.78499 298.592 23.1136 317.356 49.6534 333.797C65.3147 343.507 82.8984 349.23 102.03 349.066C118.3 348.902 134.266 346.556 150.35 344.844C163.573 343.414 177.429 341.936 190.769 346.298C206.36 351.388 212.198 359.55 213.065 375.804C213.886 391.073 210.064 405.685 207.579 420.438C204.297 439.929 202.632 458.997 205.399 478.957C209.103 505.554 214.167 531.894 217.942 558.468C221.13 580.867 223.873 603.336 227.249 625.712C231.423 653.271 236.393 680.713 244.294 707.568C250.226 727.716 254.117 748.379 257.822 769.113C260.963 786.633 260.026 804.083 259.393 821.416C258.971 833.308 257.306 846.067 245.982 854.417C242.958 856.645 240.261 857.794 236.604 857.958C224.905 858.451 213.651 856.528 202.468 853.244C170.536 843.862 138.862 833.753 109.462 817.875C82.1247 803.122 61.0008 781.989 46.418 754.407C32.3744 727.88 23.6763 699.523 15.5878 670.721C6.18632 637.252 0.137492 602.961 -10.0611 569.773C-17.6573 544.981 -28.6764 521.527 -48.5109 503.96C-66.376 488.128 -86.7966 475.861 -108.694 466.339C-126.208 458.739 -143.838 451.421 -161.563 444.385C-187.423 434.136 -210.868 419.734 -232.601 402.707C-258.578 382.348 -281.367 359.128 -291.659 326.432C-295.246 315.057 -296.512 303.283 -298.271 291.556C-300.92 274.082 -302.186 256.468 -304.437 238.971C-307.18 217.627 -312.103 196.729 -314.729 175.385C-317.121 155.942 -320.379 136.662 -321.88 117.031C-323.591 94.6785 -325.139 72.3264 -326.686 49.9742C-327.741 34.8695 -327.319 19.6945 -329.007 4.73051C-330.062 -4.53404 -331.586 -13.7751 -330.789 -22.9693C-328.773 -46.2362 -328.022 -69.8783 -319.02 -91.8786C-306.711 -122.041 -284.931 -141.626 -252.576 -148.122C-236.704 -151.312 -220.527 -154.197 -204.373 -152.766C-175.02 -150.163 -145.456 -148.99 -117.111 -139.139C-91.5794 -130.274 -75.4023 -113.011 -65.8837 -88.2197C-55.8258 -62.021 -50.7616 -34.5792 -45.4865 -7.25475C-43.7047 1.98632 -42.2276 11.673 -42.2276 21.477C-42.2276 31.4217 -38.9453 41.3195 -40.2817 49.2237V49.2002ZM104.702 353.475C84.9147 356.22 64.0486 350.215 45.5036 338.77C19.9486 323.032 -3.98882 304.995 -25.2769 283.323C-47.8545 260.338 -58.7564 233.459 -59.0377 201.584C-59.2253 180.241 -57.8889 159.155 -54.5597 138.022C-52.3559 124.02 -50.5506 109.854 -49.0033 95.7105C-47.5028 81.9662 -46.0023 68.1515 -45.1348 54.3837C-43.9157 35.4559 -47.0104 16.4812 -50.1286 -2.02441C-54.8176 -29.818 -60.3272 -57.6585 -70.7602 -84.0917C-78.6143 -104.028 -90.3837 -120.54 -110.781 -129.664C-124.145 -135.668 -138.001 -139.022 -152.396 -141.884C-169.487 -145.285 -186.743 -146.012 -203.834 -147.841C-220.152 -149.577 -236.517 -145.449 -252.764 -141.884C-276.186 -136.747 -293.207 -123.378 -305.656 -104.051C-317.261 -86.0619 -322.067 -65.4454 -323.849 -44.2191C-324.248 -39.5751 -323.005 -34.4385 -324.576 -30.3105C-327.225 -23.3211 -327.389 -15.9798 -325.866 -9.6002C-321.528 8.36594 -325.819 26.7074 -321.927 44.7204C-319.512 55.8848 -320.684 67.7997 -319.793 79.3862C-318.316 98.6189 -316.605 117.828 -314.823 137.037C-313.533 150.852 -311.681 164.643 -309.22 178.153C-305.468 198.84 -301.53 219.527 -298.411 240.308C-295.34 260.807 -294.215 281.587 -291.425 302.18C-288.94 320.616 -282.258 337.104 -272.294 352.115C-258.109 373.482 -239.189 390.534 -218.229 405.146C-199.708 418.069 -180.764 430.172 -159.382 438.264C-140.462 445.417 -121.87 453.439 -103.396 461.695C-81.9904 471.287 -61.8512 483.343 -44.1736 498.8C-24.1984 516.273 -12.9917 539.728 -5.4424 564.472C4.82652 598.036 10.9691 632.701 20.394 666.57C28.6467 696.146 37.6026 725.3 52.4668 752.249C67.073 778.729 87.8453 799.299 114.76 813.324C148.498 830.892 184.462 842.009 221.083 851.931C238.48 856.645 250.343 844.402 252.687 830.868C255.946 812.128 256.298 793.412 253.156 774.39C249.288 750.959 244.013 727.974 237.565 705.129C231.962 685.263 227.765 664.998 224.905 644.569C222.936 630.497 221.107 616.354 219.395 602.234C217.66 587.856 215.574 573.385 212.995 559.078C210.088 542.871 207.298 526.664 204.625 510.433C202.585 497.955 200.03 485.477 199.069 472.906C196.912 444.948 201.46 417.506 207.603 390.346C212.034 370.715 201.601 352.397 182.493 349.324C173.349 347.87 163.596 347.87 154.453 349.371C138.791 351.951 123.2 354.179 104.679 353.475H104.702Z" fill="#60935D" fill-opacity="0.075"/>
<path d="M-4.99683 -54.3514C-6.40353 -76.5863 -3.30879 -98.1879 4.38118 -119.062C15.0018 -147.888 35.2817 -167.003 65.0803 -173.43C81.5856 -176.995 99.3335 -175.377 115.323 -168.88C154.453 -152.978 183.923 -126.193 204.156 -88.7122C217.098 -64.7417 223.827 -39.0825 229.336 -12.9073C234.049 9.51522 238.316 32.0316 246.052 53.6566C254.446 77.158 266.356 98.9707 278.852 120.478C290.035 139.711 299.624 159.741 305.954 181.085C308.393 189.247 307.971 198.347 306.119 206.603C303.868 216.595 294.631 221.661 286.073 224.03C262.581 230.55 238.714 235.875 214.8 240.73C195.693 244.6 176.069 244.529 156.774 243.052C131.617 241.105 108.5 231.418 86.9311 218.753C76.4043 212.561 65.6899 206.65 55.4444 199.895C31.1319 183.853 15.6582 162.626 10.9927 133.332C8.99983 120.76 8.31994 108.024 6.13955 95.6871C3.32615 79.5504 6.06921 63.2964 2.43523 47.2301C0.0907323 36.8632 1.1223 25.7457 0.114165 14.9332C-0.964307 3.44051 -2.06621 -8.23983 -3.35569 -19.6387C-4.66861 -31.2956 -4.24662 -42.8352 -5.0203 -54.3749L-4.99683 -54.3514ZM-0.214064 -52.6627C-2.65235 -39.3405 0.794084 -23.8371 2.69313 -8.63857C5.24864 11.9779 6.67877 32.7117 8.57782 53.3517C10.5472 74.836 11.1568 96.4845 13.6419 117.992C17.3932 150.688 31.3195 176.863 59.688 194.829C69.3942 200.998 79.6397 206.205 89.299 212.373C126.717 236.32 167.418 243.873 210.697 235.922C234.283 231.606 257.775 226.329 280.915 219.761C297.491 215.047 305.978 200.881 301.219 185.19C294.982 164.596 286.026 145.012 275.171 126.577C259.369 99.7916 245.302 72.3968 236.417 42.4923C228.586 16.1059 224.882 -11.2185 217.778 -37.7456C209.103 -70.1832 193.864 -98.8915 171.005 -123.613C154.711 -141.227 134.993 -153.517 113.19 -162.828C99.0756 -168.856 83.977 -172.07 69.2066 -168.645C44.097 -162.828 25.0362 -148.052 13.5716 -124.269C2.97447 -102.316 -1.17531 -79.1428 -0.214064 -52.6392V-52.6627Z" fill="#60935D" fill-opacity="0.075"/>
<path d="M-194.784 -113.316C-171.316 -112.753 -145.245 -107.781 -122.175 -91.9959C-115.048 -87.1173 -108.765 -81.0426 -103.911 -74.1001C-88.7894 -52.4985 -81.0056 -27.9416 -75.0272 -2.39966C-71.2291 13.8543 -72.0497 30.507 -68.4391 46.6672C-66.6104 54.8059 -70.5961 62.7335 -70.5492 70.8019C-70.4788 88.6507 -74.4176 105.866 -77.0669 123.34C-80.6774 147.217 -86.5621 170.648 -89.9382 194.595C-91.3683 204.821 -92.3296 215.258 -93.5018 225.437C-95.5415 243.005 -91.5559 260.502 -85.2257 277.295C-77.0669 298.967 -62.6951 316.3 -47.6199 333.281C-32.8027 349.957 -18.384 367.009 -7.4586 386.546C-1.24568 397.664 2.99788 409.555 2.13038 422.831C1.45048 433.268 -2.98061 437.513 -13.7887 438.17C-32.3807 439.296 -49.4486 432.963 -66.3056 427.005C-95.7994 416.592 -124.871 404.958 -153.967 393.442C-182.288 382.231 -207.843 366.657 -227.607 343.015C-240.596 327.488 -247.794 308.818 -253.303 289.656C-260.993 262.894 -267.909 235.898 -275.318 209.043C-281.742 185.846 -288.072 162.744 -291.284 138.703C-297.591 91.3949 -295.809 43.9464 -295.27 -3.45512C-295.059 -21.2336 -292.691 -39.3405 -286.548 -56.5796C-275.693 -87.1408 -255.272 -105.693 -222.754 -111.064C-214.642 -112.401 -206.671 -112.847 -194.737 -113.269L-194.784 -113.316ZM-291.073 50.8655C-291.565 74.8595 -290.065 104.201 -286.689 133.566C-283.899 157.724 -277.17 180.733 -270.863 203.977C-263.572 230.855 -256.398 257.781 -248.731 284.543C-243.128 304.127 -235.837 323.125 -222.449 338.863C-202.521 362.341 -176.849 377.399 -148.621 388.986C-119.666 400.877 -90.454 412.112 -61.007 422.713C-47.4558 427.592 -33.5295 432.47 -18.8998 433.221C-6.63805 433.854 0.0203681 425.434 -3.12126 413.848C-6.84902 400.08 -13.3199 387.461 -21.5725 375.875C-35.4285 356.384 -52.3558 339.333 -67.0558 320.545C-74.9803 310.437 -82.7406 300.07 -87.5468 287.592C-92.1655 275.653 -94.3927 263.504 -97.1124 251.144C-101.286 232.216 -97.3937 214.015 -95.6588 195.767C-93.7597 175.69 -88.4846 155.918 -84.7334 136.005C-81.6152 119.47 -78.0516 102.981 -75.7305 86.3522C-74.0894 74.5311 -73.3391 62.1237 -73.9487 50.5606C-74.5583 39.3728 -75.1209 27.669 -77.231 16.2232C-82.2248 -11.0778 -89.0238 -37.4407 -103.466 -61.4112C-111.812 -75.2728 -122.691 -86.8124 -137.321 -93.6846C-162.758 -105.646 -189.064 -111.299 -217.737 -106.467C-251.99 -100.698 -272.669 -80.8081 -283.055 -49.1211C-288.682 -31.9289 -289.995 -13.7047 -290.932 4.30833C-291.636 17.9589 -291.073 31.6563 -291.073 50.8421V50.8655Z" fill="#60935D" fill-opacity="0.075"/>
<path d="M70.8475 456.793C89.0408 456.23 107.023 456.324 124.396 463.524C131.289 466.386 137.314 470.115 142.917 474.688C161.134 489.535 171.216 509.753 180.312 530.815C188.26 549.227 191.941 568.764 196.091 588.091C199.303 603.055 199.186 618.699 201.389 633.921C203.664 649.471 204.508 665.186 207.462 680.713C210.181 695.02 211.26 709.656 212.948 724.151C213.346 727.575 214.05 731.117 214.261 734.377C215.386 751.733 214.612 769.066 203.617 783.748C195.387 794.725 183.102 798.361 170.114 799.135C146.692 800.542 125.568 793.271 106.249 780.394C84.3049 765.735 70.5193 744.65 60.6489 720.797C51.1302 697.858 43.956 674.099 38.7278 649.8C35.3517 634.109 32.3742 618.347 29.6546 602.516C26.935 586.59 24.4029 570.453 23.7699 554.621C22.8555 531.355 19.034 508.088 21.144 484.844C21.7067 478.629 21.0737 471.1 26.9115 465.518C32.8431 459.865 38.7981 456.089 47.3556 456.675C55.1393 457.215 62.9699 456.793 70.7771 456.793H70.8475ZM72.348 461.484C63.5795 461.484 55.7489 461.296 47.9417 461.53C39.9001 461.788 29.0919 469.81 27.8962 476.588C26.3019 485.712 24.8484 494.812 25.2235 504.194C25.411 508.955 28.0134 512.919 27.8728 517.798C27.0053 544.536 30.7565 570.852 34.367 597.285C36.5005 612.906 39.5718 628.315 42.8776 643.584C48.2699 668.54 55.5379 693.144 65.502 716.739C71.7618 731.562 79.5456 745.682 90.5882 757.737C107.445 776.126 127.678 787.806 152.506 792.685C176.209 797.352 194.075 789.753 205.094 768.644C209.83 759.59 209.665 749.552 209.689 740.616C209.712 728.63 208.001 716.106 205.609 704.144C201.436 683.41 199.232 662.418 196.982 641.52C195.294 625.853 193.887 610.021 191.449 594.518C186.572 563.44 177.991 533.067 161.134 506.141C149.388 487.33 134.43 471.991 111.431 465.541C97.9734 461.765 84.7973 461.812 72.3245 461.507L72.348 461.484Z" fill="#60935D" fill-opacity="0.075"/>
<path d="M23.2076 -27.8947C21.6837 -44.1956 24.1454 -61.6927 30.1708 -78.5799C34.977 -92.0662 41.2837 -104.638 53.6627 -113.246C70.59 -125.02 88.8302 -127.764 108.43 -122.088C124.56 -117.421 138.041 -108.578 150.631 -97.3435C171.966 -78.275 186.01 -54.6563 195.388 -28.2934C201.108 -12.1802 204.977 4.75396 208.048 21.6177C213.347 50.631 220.708 79.0578 230.415 106.851C234.213 117.734 236.956 129.016 238.433 140.204C241.598 164.549 224.718 183.946 198.764 189.716C177.054 194.548 157.313 189.013 138.393 180.991C118.347 172.501 98.6302 162.814 80.6948 150.055C58.4923 134.246 43.5109 113.583 37.1808 86.8916C32.6559 67.8466 29.2798 48.7077 27.4042 29.1232C25.6458 10.6879 22.5746 -7.63003 23.2076 -27.9182V-27.8947ZM27.8263 -25.4789C27.3105 -8.96694 30.6631 7.75613 32.1401 24.6434C33.8516 44.2513 37.4153 63.3667 41.9167 82.4118C48.2234 109.103 63.3689 129.72 85.5713 145.504C103.507 158.264 123.341 167.739 143.293 176.417C159.118 183.29 175.858 188.801 194.239 184.955C208.775 181.906 219.794 174.353 228.305 163.095C232.384 157.677 234.307 150.266 233.72 143.511C232.994 135.231 230.86 126.882 228.07 119.001C216.301 85.7893 207.907 51.7568 201.132 17.2317C198.342 3.01831 194.989 -11.1247 190.089 -24.7753C180.594 -51.3258 166.082 -74.4988 144.864 -93.5439C131.711 -105.341 117.457 -114.231 100.06 -117.89C94.7852 -118.992 89.557 -121.361 84.1646 -119.954C64.8694 -114.887 48.8799 -105.435 39.9473 -86.3902C30.9444 -67.2045 26.7947 -47.1274 27.7794 -25.432L27.8263 -25.4789Z" fill="#60935D" fill-opacity="0.075"/>
<path d="M168.449 659.932C168.449 671.87 168.356 681.252 168.473 690.634C168.59 699.57 166.081 707.967 164.159 716.598C159.704 736.534 141.441 739.865 124.795 733.579C110.423 728.161 101.865 715.848 94.5272 702.948C80.7884 678.743 72.9343 652.309 68.0812 625.219C64.4238 604.814 62.6654 583.916 69.9568 563.511C74.7865 549.954 81.7965 538.766 96.8014 534.826C113.611 530.416 132.156 537.969 143.574 552.229C158.391 570.735 162.869 592.336 166.457 614.923C168.989 630.872 167.582 646.68 168.449 659.955V659.932ZM163.807 662.77C163.62 645.836 164.44 629.934 161.439 614.149C158.157 596.816 154.453 579.553 144.84 564.449C137.783 553.355 129.202 544.02 115.417 540.455C101.959 536.983 88.3143 542.378 81.0932 554.293C68.0109 575.894 68.9955 599.068 73.1922 622.358C76.498 640.723 81.3745 658.783 88.6894 676.092C96.0746 693.566 104.14 710.641 119.238 722.978C133.563 734.682 144.77 733.626 153.867 723.447C158.696 718.029 159.704 711.204 161.463 704.543C165.167 690.376 163.151 675.975 163.784 662.723L163.807 662.77Z" fill="#60935D" fill-opacity="0.075"/>
<path d="M175.506 57.7142C176.022 72.2091 173.912 86.8682 167.09 100.706C163.714 107.579 157.946 110.346 151.03 112.058C125.123 118.438 103.858 107.977 86.2746 91.1838C72.0669 77.6037 65.1038 58.9339 60.4148 39.5605C55.421 18.897 55.0928 -1.95401 56.2181 -22.7816C56.8511 -34.5089 60.321 -46.2361 67.9406 -55.8759C83.4378 -75.5073 105.804 -75.2493 126.928 -61.9506C149.858 -47.5027 161.322 -24.9863 168.098 -0.0541958C173.138 18.4749 175.881 37.6137 175.506 57.7377V57.7142ZM60.5554 -3.68966C60.8133 16.8096 64.2128 36.6286 72.0904 55.7675C83.6722 83.866 102.147 103.192 133.587 107.578C146.646 109.384 159.751 105.491 164.558 91.606C167.863 82.1069 170.419 72.5609 170.7 62.5459C170.958 53.2813 169.622 44.0872 168.778 34.8461C166.691 11.8841 160.806 -9.83472 149.154 -29.4427C139.589 -45.5794 125.944 -57.7054 107.469 -64.2961C96.778 -68.0957 88.5722 -65.0935 80.7182 -59.1596C73.2157 -53.4836 68.1751 -45.8374 65.1272 -36.6901C61.5167 -25.9011 59.688 -15.0416 60.532 -3.6662L60.5554 -3.68966Z" fill="#60935D" fill-opacity="0.075"/>
</g>
<defs>
<clipPath id="clip0_563_5243">
<rect width="755" height="1095" fill="white" transform="translate(-331 -227)"/>
</clipPath>
</defs>
</svg>
