<svg width="430" height="748" viewBox="0 0 430 748" fill="none" xmlns="http://www.w3.org/2000/svg">
<g clip-path="url(#clip0_907_4312)">
<path d="M33.3759 563.835C32.6011 545.164 37.7146 529.151 44.2226 513.159C51.7709 494.577 62.1305 477.611 73.7077 461.598C82.6063 449.283 92.479 437.567 101.997 425.651C119.861 403.281 134.05 378.829 136.994 349.925C138.765 332.56 137.459 315.019 133.895 297.544C128.804 272.715 121.455 248.64 113.11 224.808C106.823 206.867 98.5 190.256 85.1963 176.258C73.0879 163.501 57.9469 157.565 41.3006 154.486C22.1751 150.942 2.78393 148.373 -15.3897 140.976C-30.3315 134.885 -41.488 123.943 -45.6053 108.572C-49.6783 93.334 -44.742 78.9154 -33.4969 67.4424C-11.7815 45.3161 16.3312 39.6682 45.3073 52.8023C59.5186 59.2475 72.5788 67.7747 85.9711 75.6817C108.373 88.9044 130.73 88.0406 153.464 77.5422C177.105 66.6451 200.813 55.8809 224.144 44.3415C246.811 33.1122 268.77 20.5098 290.22 7.08774C307.486 -3.72073 331.326 -2.12606 343.036 11.6946C350.961 21.0413 358.089 31.0746 364.575 41.6173C374.049 56.9884 383.744 72.2044 395.366 86.2466C415.288 110.322 441.209 124.276 469.875 134.486C484.441 139.669 499.604 143.013 513.749 149.702C526.145 155.594 531.325 165.162 528.226 178.717C523.599 198.872 514.745 217.455 507.994 236.834C504.186 247.709 500.667 258.606 500.091 270.522C499.294 286.957 503.146 301.597 511.735 315.395C518.265 325.894 526.256 335.263 533.605 345.141C548.746 365.54 557.113 388.729 562.559 413.402C568.978 442.616 577.301 471.409 583.61 500.646C590.14 530.989 598.286 560.978 602.492 591.831C604.307 605.187 605.414 618.586 607.141 631.876C608.734 644.345 609.531 656.77 608.602 669.085C607.229 687.424 606.078 705.852 600.323 723.725C594.523 741.777 576.726 750.414 561.054 747.424C552.088 745.719 543.079 746.251 534.092 744.014C516.604 739.65 498.475 737.967 480.766 734.49C460.6 730.525 440.501 726.228 420.556 721.311C403.445 717.081 386.733 711.167 369.577 707.114C356.938 704.124 344.121 701.112 330.906 701.488C314.813 701.931 299.318 705.63 284.354 711.101C264.653 718.299 244.642 724.501 223.967 727.579C214.802 728.953 205.218 727.956 195.611 726.649C178.3 724.301 162.716 718.033 147.753 710.038C132.412 701.821 118.599 691.167 105.429 679.672C94.4269 670.06 84.355 659.517 74.7923 648.598C57.7919 629.24 42.4295 608.775 34.9918 583.282C32.911 576.194 34.4162 569.461 33.3759 563.857L33.3759 563.835ZM37.7146 564.5C36.32 574.467 40.7251 584.522 45.1301 594.489C52.6785 611.521 64.0785 626.139 75.5892 640.558C81.4995 647.955 87.8747 655.486 94.8697 661.422C103.724 668.952 111.87 677.28 121.034 684.545C141.466 700.713 163.469 713.537 188.549 720.27C198.245 722.884 208.582 725.254 218.809 723.415C237.27 720.115 255.356 715.42 273.042 708.997C291.769 702.197 310.873 696.815 331.193 696.97C355.056 697.147 377.679 703.105 400.191 710.148C423.943 717.59 448.226 723.504 472.642 727.601C501.508 732.43 529.886 740.005 559.349 741.799C577.39 742.906 589.653 736.394 595.763 719.141C602.049 701.422 602.426 682.861 604.219 664.545C605.148 655.154 603.533 645.652 602.603 636.172C601.275 622.795 599.792 609.483 597.976 596.128C593.771 565.297 585.669 535.286 579.094 504.987C572.763 475.773 564.485 446.98 558.087 417.766C553.085 394.908 545.514 373.247 532.365 353.912C524.241 341.951 514.435 331.187 506.533 319.005C497.545 305.14 494.048 289.26 494.314 273.557C494.535 259.758 498.32 245.805 503.279 232.493C510.185 213.955 518.597 196.037 523.135 176.524C524.795 169.392 522.714 165.583 519.128 160.998C513.129 153.379 503.876 150.942 495.597 148.285C480.169 143.301 464.718 138.561 449.621 132.537C421.951 121.507 399.859 103.921 382.217 79.89C368.072 60.6429 357.336 39.1809 341.907 20.7091C328.515 4.67356 312.311 0.376744 294.935 11.4067C274.171 24.6072 252.699 36.6117 230.851 47.7967C207.055 59.9784 182.573 70.809 158.156 81.7282C132.656 93.1347 107.177 94.4193 81.898 80.2664C68.3287 72.6695 55.4897 63.7658 41.1899 57.5421C31.5386 53.3339 21.356 48.5719 10.8857 50.6539C-9.70075 54.7292 -27.2988 64.3416 -37.5257 83.9431C-40.9125 90.4326 -43.9451 97.498 -41.2224 104.807C-35.6441 119.802 -25.3287 130.544 -10.387 136.679C7.4768 144.01 26.4916 146.358 45.2187 149.99C62.197 153.29 77.6922 159.159 90.0219 172.249C103.016 186.026 111.339 202.305 117.36 219.891C126.945 247.887 135.976 275.927 140.138 305.517C142.484 322.128 142.816 338.718 141.2 354.886C138.323 384.122 123.691 408.773 105.318 431.298C95.7108 443.081 86.4801 455.175 77.4708 467.423C65.451 483.768 55.0028 501.044 47.5429 520.025C42.0975 533.89 37.2497 547.888 37.6481 564.522L37.7146 564.5Z" fill="#60935D" fill-opacity="0.1"/>
<path d="M139.363 555.707C139.584 521.731 149.147 494.887 164.31 469.505C178.588 445.607 192.091 421.221 198.134 393.668C201.078 380.224 202.495 366.514 204.244 352.848C206.745 333.336 206.081 313.956 205.682 294.576C205.328 277.034 202.628 259.47 203.889 241.884C205.439 220.555 207.475 199.182 221.399 181.308C237.647 160.444 257.525 146.668 284.708 143.013C312.798 139.248 335.444 150.655 357.07 165.339C370.662 174.553 382.792 185.959 391.868 199.935C401.719 215.107 406.412 231.94 407.518 250.079C409.356 280.113 412.012 310.146 423.146 338.474C431.226 359.028 442.338 378.164 452.432 397.766C468.06 428.087 486.832 456.216 506.931 483.746C527.23 511.565 543.035 541.842 549.454 576.526C552.133 591.012 553.594 605.297 553.572 619.938C553.572 634.246 549.012 647.247 541.419 658.786C534.291 669.617 522.183 674.135 510.074 676.948C487.164 682.308 464.496 678.919 442.36 672.407C422.283 666.494 403.467 657.258 384.253 649.019C361.055 639.074 337.281 631.233 311.824 627.911C290.353 625.12 270.054 628.908 249.29 631.986C241.432 633.16 233.707 635.442 225.538 635.131C217.392 634.844 209.512 636.46 200.967 635.552C172.943 632.518 156.363 616.549 146.314 592.03C141.023 579.162 138.389 565.585 139.319 555.663L139.363 555.707ZM295.798 147.886C290.574 147.886 285.947 147 281.764 148.041C258.698 153.755 240.215 166.469 225.848 185.45C212.213 203.457 209.733 224.675 208.361 246.026C207.586 258.009 209.556 270.146 209.91 282.106C210.884 313.911 211.482 345.761 206.302 377.522C202.65 399.892 196.341 420.955 186.535 441.31C178.035 458.94 167.144 475.175 158.533 492.739C150.785 508.553 146.535 525.319 144.277 542.418C142.041 559.228 145.384 575.773 152.268 591.366C160.791 610.702 174.736 624.5 195.456 629.572C211.836 633.581 228.482 630.502 244.797 627.69C268.46 623.636 291.769 620.314 316.141 623.459C341.619 626.737 365.349 634.666 388.592 644.456C408.514 652.85 427.861 662.551 448.824 668.288C467.463 673.382 486.19 677.812 505.536 672.562C517.556 669.307 529.775 665.231 536.925 654.401C544.54 642.883 549.056 629.882 549.189 615.574C549.277 603.813 546.864 592.54 544.939 581.045C539.05 546.249 522.869 516.039 502.637 488.198C481.962 459.759 462.77 430.678 446.699 399.316C437.136 380.645 426.644 362.395 418.852 342.948C407.518 314.709 404.973 284.609 403.135 254.576C402.029 236.458 397.646 219.404 387.53 204.453C375.952 187.333 360.789 173.468 342.815 163.346C328.072 155.04 313.352 145.56 295.82 147.842L295.798 147.886Z" fill="#60935D" fill-opacity="0.1"/>
<path d="M201.587 517.611C200.237 498.275 207.896 480.756 213.496 462.86C219.982 442.173 225.029 421.243 228.372 399.758C232.024 376.303 233.33 352.759 235.278 329.171C236.673 312.272 235.499 295.395 237.248 278.672C238.975 262.216 240.391 245.671 245.549 229.569C252.943 206.402 273.551 192.182 296.883 191.717C317.735 191.297 334.624 199.093 348.88 212.537C363.512 226.313 370.241 244.83 374.27 264.298C378.941 286.89 382.46 309.747 389.699 331.718C393.307 342.682 397.69 353.335 402.67 363.789C415.067 389.925 426.909 416.326 439.66 442.306C450.373 464.144 464.231 483.989 479.792 502.749C493.871 519.737 507.042 537.544 514.103 558.851C520.943 579.516 524.573 600.491 515.896 621.576C509.809 636.371 497.235 642.329 482.36 643.813C460.379 646.006 439.792 640.446 420.423 630.457C404.995 622.484 389.588 614.356 374.071 606.626C346.688 592.938 318.022 581.974 287.962 575.263C271.448 571.565 255.001 567.401 238.355 564.388C216.861 560.468 198.267 544.743 201.587 517.633L201.587 517.611ZM515.896 595.175C516.693 584.034 513.107 573.669 509.698 563.392C502.659 542.063 489.51 524.233 475.409 507.29C459.339 487.976 445.26 467.4 434.214 444.941C421.774 419.648 410.396 393.823 398.287 368.352C393.329 357.898 388.902 347.244 385.294 336.281C378.077 314.309 374.536 291.43 369.821 268.861C364.796 244.83 355.299 223.412 334.425 208.838C320.568 199.159 305.294 193.401 288.316 197.454C266.49 202.681 254.138 217.963 248.183 238.938C244.199 252.958 243.136 267.487 241.72 281.84C239.993 299.293 241.056 316.923 239.683 334.531C237.868 357.765 236.363 380.932 232.777 404.011C229.39 425.849 224.254 447.09 217.525 468.109C211.947 485.606 204.885 502.882 205.904 521.952C206.568 534.444 211.814 543.591 221.864 551.166C230.098 557.389 239.484 559.937 248.847 561.576C280.878 567.201 312.356 574.754 342.726 586.448C355.831 591.498 368.824 597.058 381.265 603.525C407.208 617.013 432.266 632.451 461.331 638.608C469.145 640.269 477.202 640.181 485.26 638.232C506.09 633.182 517.113 615.042 515.918 595.153L515.896 595.175Z" fill="#60935D" fill-opacity="0.1"/>
<path d="M398.575 487.201C398.575 490.147 398.62 493.092 398.575 496.038C398.31 513.026 384.718 524.765 368.271 521.886C357.646 520.025 346.821 518.497 336.572 515.219C314.636 508.22 293.761 499.006 280.79 478.297C274.348 468.02 270.452 456.702 270.364 444.565C270.297 437.898 267.552 431.852 267.818 425.097C268.526 407.245 270.452 389.548 272.157 371.785C273.972 353.003 277.314 334.553 281.321 316.17C283.092 308.064 286.501 300.489 289.489 292.759C293.009 283.656 299.694 279.027 308.15 278.783C316.871 278.54 323.468 284.188 327.873 292.072C334.602 304.077 339.516 316.945 345.272 329.393C350.12 339.847 353.728 350.921 359.063 361.109C369.666 381.309 379.361 401.951 386.622 423.458C393.55 443.945 398.686 465.163 398.575 487.157L398.575 487.201ZM394.215 485.252C395.521 479.759 393.13 473.425 391.802 467.068C389.079 454.022 386.954 440.689 382.438 428.264C375.178 408.286 366.345 388.884 356.827 369.792C348.327 352.715 341.132 334.974 333.673 317.388C329.511 307.554 325.881 296.945 317.535 289.26C310.474 282.77 301.398 283.811 296.728 292.183C294.116 296.901 291.636 301.663 289.888 306.89C285.46 319.957 283.158 333.357 280.834 346.912C277.691 365.207 274.392 383.369 274.614 401.996C274.614 403.457 274.924 405.074 274.437 406.403C269.235 420.977 274.105 435.263 276.163 449.438C279.882 475.064 296.263 491.099 318.576 502.085C334.292 509.837 350.85 514.156 368.293 515.928C378.852 517.013 388.216 512.074 392.156 502.572C394.392 497.212 393.993 491.874 394.237 485.23L394.215 485.252Z" fill="#60935D" fill-opacity="0.1"/>
</g>
<defs>
<clipPath id="clip0_907_4312">
<rect width="656" height="748" fill="white" transform="translate(609 748) rotate(-180)"/>
</clipPath>
</defs>
</svg>
