<svg width="607" height="926" viewBox="0 0 607 926" fill="none" xmlns="http://www.w3.org/2000/svg">
<g clip-path="url(#clip0_497_10528)">
<path d="M121.186 0.388013C150.038 -1.62052 173.841 9.47206 196.502 25.4719C221.516 43.115 244.588 63.2916 270.584 79.6566C293.885 94.3326 318.35 105.608 345.009 111.999C356.637 114.783 368.401 117.431 380.554 116.723C386.242 116.404 391.336 119.371 397.23 119.143C422.13 118.184 446.024 112.934 469.256 104.101C483.168 98.8061 496.577 92.324 510.763 87.7592C528.65 82.0075 546.605 79.999 565.017 84.6095C585.348 89.7221 602.07 112.318 603.578 133.75C604.012 139.821 606.501 145.413 606.182 151.53C605.154 171.045 601.75 189.966 593.686 207.974C583.361 231.004 568.238 250.93 553.367 271.015C535.8 294.752 519.855 319.516 507.474 346.335C487.371 389.906 468.114 433.866 454.225 479.902C450.159 493.392 448.057 507.451 445.956 521.511C441.204 553.465 442.917 585.601 441.181 617.601C440.268 634.582 441.021 651.7 438.92 668.476C437.412 680.596 437.298 692.556 437.138 704.584C436.955 719.625 439.948 734.438 441.158 749.343C442.301 763.197 444.105 777.006 446.687 790.517C448.743 801.291 449.496 812.292 450.022 822.814C451.118 845.318 447.075 867.504 431.541 885.763C415.665 904.433 395.22 916.393 371.85 921.506C343.227 927.76 314.627 926.208 286.758 914.91C262.178 904.958 238.489 893.181 214.503 882.02C194.56 872.73 174.298 864.194 154.606 854.266C136.743 845.273 124.247 831.327 113.807 815.031C98.6164 791.248 88.8393 765.16 82.1917 737.908C80.1815 729.6 78.2398 721.155 78.3768 712.459C78.4225 709.103 78.9251 705.657 76.9377 702.462C76.2067 701.298 75.9782 699.494 76.2067 698.102C79.1535 679.363 79.085 660.077 86.1437 642.069C94.6187 620.431 106.246 600.551 119.267 581.356C134.55 558.851 150.335 536.643 161.711 511.719C167.65 498.687 171.556 485.198 172.059 470.818C172.584 455.8 168.176 441.877 161.254 428.982C152.939 413.484 142.271 399.493 130.301 386.506C113.488 368.223 96.9488 349.713 80.8668 330.769C66.7722 314.153 54.0482 296.692 42.6035 278.296C26.5443 252.459 15.4651 224.659 9.61713 194.622C5.84791 175.153 2.92391 155.547 1.18778 135.941C-0.799625 113.505 -1.50778 90.4296 5.73369 68.6097C8.95466 58.9322 14.2087 49.7797 21.6329 41.7455C43.7228 18.054 71.3409 6.18537 102.203 0.547783C108.462 -0.593429 115.11 0.388013 121.186 0.388013ZM121.78 5.02133C116.457 5.02133 110.998 4.26813 105.812 5.15828C86.9432 8.44497 69.0794 14.7673 52.6319 24.7871C36.6184 34.5331 23.1406 46.744 14.5971 63.7937C3.8605 85.2485 3.79197 108.438 5.87075 131.171C7.67541 150.754 10.508 170.383 14.2773 189.852C20.1024 219.912 31.2045 247.711 47.1723 273.571C58.754 292.333 71.9349 309.93 86.1209 326.957C99.5987 343.14 113.853 358.637 127.788 374.363C139.758 387.875 151.34 401.433 161.163 416.656C177.93 442.63 180.785 470.111 172.402 499.349C165.412 523.771 151.454 544.472 137.771 565.402C121.46 590.303 103.688 614.292 92.7227 642.411C81.0952 672.242 79.7018 702.576 86.829 733.343C93.3166 761.439 103.779 788.121 119.61 812.383C129.752 827.926 142.088 841.119 159.221 849.701C197.941 869.101 237.575 886.516 276.866 904.639C302.725 916.553 329.795 924.153 359.515 918.242C390.011 912.171 414.842 898.636 432.843 873.118C442.757 859.059 443.489 842.465 446.093 826.374C441.41 816.902 444.22 806.426 442.323 796.406C439.696 782.552 437.732 768.378 436.704 754.113C435.585 738.433 432.386 722.889 432.615 707.072C432.843 691.985 432.455 676.967 434.557 661.834C436.681 646.588 435.356 631.022 436.635 615.501C438.783 589.55 436.704 563.348 439.171 537.237C440.542 522.675 442.072 508.067 445.156 493.916C451.667 464.085 462.54 435.555 474.35 407.435C482.003 389.245 490.135 371.259 497.925 353.159C505.783 334.9 515.538 317.85 525.612 300.869C539.546 277.429 557.479 256.75 572.19 233.88C590.602 205.304 604.309 175.404 599.603 139.662C596.747 118.001 581.099 94.9488 560.723 89.1743C547.108 85.317 534.155 87.0745 520.952 90.8633C504.436 95.6107 489.039 103.143 473.025 109.123C449.062 118.093 424.391 123.913 398.623 123.57C383.958 123.388 369.498 121.105 354.992 119.211C325.957 115.399 299.527 104.467 274.65 89.8819C244.953 72.4898 219.117 49.5742 191.202 29.5802C170.414 14.676 148.164 4.10836 121.803 5.11263L121.78 5.02133Z" fill="#60935D" fill-opacity="0.05"/>
<path d="M117.211 675.597C116.137 653.275 125.915 631.638 138.022 610.708C155.611 580.306 177.953 553.168 197.301 523.953C207.467 508.592 215.302 491.657 217.427 473.466C219.917 452.194 211.579 432.93 198.74 416.268C183.481 396.48 164.909 379.818 146.337 363.088C132.06 350.215 118.65 336.292 105.903 321.662C94.2531 308.287 83.7678 294.182 74.3105 279.437C58.1371 254.216 46.5097 226.759 39.8165 197.475C37.2351 186.2 35.8416 174.72 34.6538 163.148C33.6943 153.767 32.1866 144.386 32.9633 135.051C34.6309 115.354 36.7325 95.5879 46.5782 77.8306C61.3581 51.1719 83.6079 35.9254 114.287 32.0909C144.327 28.3477 169.546 39.2349 193.738 54.9379C219.117 71.3942 242.212 91.0231 267.317 107.89C293.405 125.419 320.406 141.077 351.245 149.019C366.414 152.922 381.559 156.346 397.23 158.195C407.03 159.336 416.716 160.272 426.515 160.021C444.516 159.564 462.175 156.871 479.467 151.53C494.498 146.897 509.667 142.766 525.817 143.998C537.993 144.934 548.136 155.045 549.232 167.096C551.242 189.396 541.671 207.723 530.409 225.618C517.708 245.817 504.23 265.56 494.407 287.426C485.567 307.123 478.668 327.528 471.472 347.864C462.54 373.085 452.969 398.078 441.866 422.477C431.838 444.502 423.454 467.349 417.378 490.607C412.124 510.761 409.017 531.713 409.702 552.94C410.159 567.388 409.497 581.858 409.862 596.306C410.319 614.474 408.469 632.642 406.87 650.582C404.334 679.204 402.941 707.757 402.849 736.447C402.781 756.509 406.664 776.366 405.294 796.475C404.357 810.375 402.301 824.023 395.791 836.394C388.275 850.682 376.556 858.123 359.652 858.785C341.217 859.515 326.323 852.759 312.16 842.146C302.108 834.591 293.085 825.986 284.747 816.743C260.51 789.81 231.224 771.642 196.022 762.466C180.58 758.427 165.411 753.04 152.002 743.751C129.113 727.865 116.617 706.638 117.234 675.643L117.211 675.597ZM125.503 36.496C91.7403 37.9567 66.8178 53.3174 50.7815 83.4454C41.3698 101.111 39.588 120.352 37.395 139.616C36.664 146.098 39.3596 152.306 39.4281 158.56C39.588 170.314 41.781 181.681 44.3852 192.933C51.1241 222.217 62.7059 249.674 78.9021 274.895C88.3823 289.64 98.8447 303.745 110.495 317.12C123.242 331.75 136.651 345.696 150.951 358.546C169.546 375.276 188.05 391.983 203.378 411.726C215.256 427.041 221.835 444.707 222.498 464.428C223.297 488.347 214.114 509.186 201.71 528.472C188.004 549.767 172.242 569.739 158.17 590.805C143.299 613.082 129.478 635.564 123.516 662.702C116.937 692.693 132.494 722.113 153.784 737.428C167.901 747.585 184.372 752.515 200.591 758.107C216.696 763.676 233.166 767.899 248.06 777.279C266.563 788.943 281.503 804.212 296.489 819.596C306.814 830.186 318.145 839.43 330.846 846.734C352.799 859.378 379.023 856.982 392.136 829.615C397.572 818.272 399.537 806.221 400.588 793.987C402.301 774.289 397.938 754.82 398.098 735.1C398.303 708.967 398.395 682.81 400.885 656.836C402.941 635.472 404.106 614.086 405.111 592.677C405.705 580.146 405.75 567.547 405.088 555.04C404.288 539.839 405.568 524.684 407.921 509.893C413.015 477.803 424.482 447.424 437.389 417.752C448.08 393.17 457.926 368.315 466.949 343.117C474.464 322.118 481.569 301.006 490.935 280.692C500.643 259.557 513.801 240.545 525.931 220.893C533.561 208.545 540.666 195.969 544.047 181.658C548.41 163.216 536.691 148.494 517.662 148.654C505.897 148.746 494.955 152.945 483.922 156.163C466.561 161.23 448.971 164.449 430.924 164.54C418.109 164.608 405.385 164.54 392.501 162.737C376.945 160.546 361.708 157.464 346.539 153.516C315.723 145.482 288.653 129.938 262.634 112.295C235.45 93.8761 210.528 72.2615 182.407 55.2118C165.069 44.7127 147.045 35.4689 125.526 36.5188L125.503 36.496Z" fill="#60935D" fill-opacity="0.05"/>
<path d="M434.877 290.507C434.808 325.451 426.105 358.318 411.416 389.884C398.03 418.688 379.549 444.685 365.98 473.42C360.635 484.718 357.002 496.45 355.335 508.456C354.01 517.928 356.02 528.13 358.03 537.442C363.924 564.786 368.241 592.22 366.117 620.089C364.198 645.515 358.396 670.028 343.639 691.734C336.397 702.37 326.163 706.867 314.239 707.688C290.71 709.286 268.14 704.173 245.936 696.733C234.674 692.967 223.047 690.639 212.082 685.594C202.898 681.372 195.588 675.392 188.598 668.453C184.007 663.911 181.996 658.593 181.38 652.545C179.369 633.099 184.372 615.387 195.2 599.273C208.267 579.85 223.526 562.617 241.733 547.576C252.424 538.743 263.617 530.116 272.777 519.434C282.28 508.341 290.321 496.884 293.908 481.934C296.421 471.526 293.52 462.784 291.418 453.563C285.364 427.178 267.957 408.828 246.987 393.421C224.737 377.079 200.02 364.572 176.834 349.644C153.739 334.763 133.773 316.412 115.795 296.122C89.9132 266.884 73.1687 232.488 65.0821 194.234C61.1529 175.633 60.4219 156.278 63.0718 137.767C66.6126 113.163 75.0648 89.6993 98.1598 75.4341C111.067 67.4456 124.727 64.7752 140.398 65.8251C165.617 67.5141 185.834 79.6794 205.845 92.5295C227.25 106.292 246.484 123 266.495 138.68C285.547 153.607 304.804 168.352 326.118 180.22C344.073 190.24 362.987 197.955 381.582 206.514C398.624 214.388 414.546 223.974 425.419 240.408C432.661 251.341 432.981 263.574 434.74 275.625C435.448 280.464 434.854 285.486 434.854 290.438L434.877 290.507ZM430.308 290.484C430.308 287.06 430.765 283.568 430.217 280.236C428.252 268.23 428.092 255.974 420.851 245.041C409.726 228.265 393.461 218.405 375.94 210.759C364.358 205.715 352.822 200.442 341.309 195.239C312.571 182.252 287.215 163.604 262.749 144.067C237.324 123.776 212.356 102.937 184.144 86.5952C168.199 77.3513 151.614 70.3215 132.311 70.8464C112.14 71.3942 96.812 80.4783 85.6414 95.9987C72.9632 113.642 66.1329 133.704 67.0695 155.912C67.435 164.928 67.5949 173.829 69.034 182.868C72.2321 202.93 78.0116 222.034 86.8065 240.179C94.8018 256.659 104.579 271.974 116.298 286.284C127.902 300.458 140.512 313.719 154.333 325.245C175.212 342.637 198.741 356.537 222.338 370.163C240.499 380.64 258.089 391.869 272.777 407.435C289.842 425.489 298.157 446.853 299.939 470.887C301.424 491.155 292.217 507.885 278.9 522.287C267.112 535.023 253.36 545.636 240.202 556.911C230.494 565.242 222.179 575.125 213.749 584.871C201.299 599.296 191.568 614.999 186.839 633.304C184.281 643.119 184.395 653.549 191.614 662.177C201.048 673.429 213.132 680.459 226.976 685.206C248.814 692.716 271.041 698.947 293.748 702.781C304.233 704.561 315.29 704.676 325.706 698.855C334.067 694.176 339.413 687.626 343.707 679.569C352.571 662.93 357.368 645.378 360.041 626.571C362.896 606.417 361.297 587.017 357.825 567.342C354.901 550.817 352.685 534.156 350.492 517.494C349.852 512.632 349.875 507.52 350.606 502.704C353.873 481.318 363.376 462.099 374.181 443.886C388.847 419.144 403.512 394.517 414.294 367.813C424.3 343.025 429.577 317.188 430.331 290.461L430.308 290.484Z" fill="#60935D" fill-opacity="0.05"/>
<path d="M148.073 103.006C169.341 101.157 187.045 111.793 204.475 122.863C219.414 132.358 232.938 143.656 245.205 156.483C255.462 167.188 266.518 177.139 276.524 188.049C293.428 206.468 311.109 224.111 328.265 242.256C337.882 252.436 345.9 264.191 350.88 277.771C356.34 292.607 356.545 307.237 349.487 321.137C343.365 333.234 332.057 339.008 318.693 340.309C313.119 340.857 307.523 340.013 301.972 342.318C299.07 343.528 295.027 343.573 291.966 341.93C288.677 340.172 285.364 340.515 282.006 340.378C252.652 339.328 224.531 332.709 197.164 322.164C170.643 311.939 148.599 295.368 130.187 274.233C112.62 254.057 100.398 230.685 94.6189 204.391C92.2203 193.481 89.4334 182.434 90.0273 171.182C90.9182 153.904 94.8702 137.242 104.145 122.338C112.231 109.351 126.966 103.006 148.028 103.006H148.073ZM148.073 107.388C129.913 107.023 117.074 114.646 108.234 128.455C95.8296 147.833 92.6087 169.424 97.0403 191.678C104.899 231.141 124.704 264.031 155.246 290.142C166.851 300.07 179.735 308.766 193.852 314.586C231.704 330.198 271.041 338.461 312.32 335.927C323.856 335.22 333.953 331.157 340.783 322.575C350.629 310.181 351.931 295.939 345.854 280.807C340.76 268.116 333.016 257.115 324.13 247.301C309.167 230.753 292.743 215.575 277.986 198.776C267.729 187.09 255.85 176.842 245.114 165.544C229.74 149.385 212.972 135.005 193.806 123.593C179.324 114.966 164.498 106.977 148.073 107.388Z" fill="#60935D" fill-opacity="0.05"/>
<path d="M216.787 283.317C186.359 282.792 162.785 269.782 144.144 245.749C132.06 230.182 124.75 212.859 122.488 193.96C120.752 179.604 123.196 164.768 132.882 152.785C138.479 145.87 145.994 142.4 155.292 141.647C178.57 139.73 196.136 150.959 212.607 165.111C227.021 177.481 238.123 192.751 246.827 209.321C253.314 221.669 258.934 234.93 258.98 249.515C259.048 272.704 248.06 280.419 225.902 283.272C222.909 283.66 219.825 283.317 216.787 283.317ZM220.831 279.072C226.062 279.665 233.989 276.675 241.641 272.407C249.751 267.865 256.216 255.631 254.16 246.958C251.601 236.14 248.243 225.458 243.035 215.621C229.146 189.35 210.619 167.096 184.029 152.854C174.184 147.582 163.31 143.724 151.751 147.513C142.819 150.435 136.103 156.574 132.151 164.951C128.336 173.031 126.166 182.434 127.308 190.833C130.826 216.305 142.18 238.422 161.688 255.609C177.427 269.486 195.497 278.524 220.808 279.072H220.831Z" fill="#60935D" fill-opacity="0.05"/>
</g>
<defs>
<clipPath id="clip0_497_10528">
<rect width="606.25" height="925.158" fill="white"/>
</clipPath>
</defs>
</svg>
